G75*
%MOIN*%
%OFA0B0*%
%FSLAX25Y25*%
%IPPOS*%
%LPD*%
%AMOC8*
5,1,8,0,0,1.08239X$1,22.5*
%
%ADD10C,0.00000*%
%ADD11C,0.08274*%
%ADD12C,0.05600*%
%ADD13OC8,0.05600*%
%ADD14OC8,0.06000*%
%ADD15C,0.06900*%
%ADD16C,0.07800*%
%ADD17R,0.07800X0.07800*%
D10*
X0037233Y0047233D02*
X0037233Y0224083D01*
X0037236Y0224325D01*
X0037245Y0224566D01*
X0037259Y0224807D01*
X0037280Y0225048D01*
X0037306Y0225288D01*
X0037338Y0225528D01*
X0037376Y0225767D01*
X0037419Y0226004D01*
X0037469Y0226241D01*
X0037524Y0226476D01*
X0037584Y0226710D01*
X0037651Y0226942D01*
X0037722Y0227173D01*
X0037800Y0227402D01*
X0037883Y0227629D01*
X0037971Y0227854D01*
X0038065Y0228077D01*
X0038164Y0228297D01*
X0038269Y0228515D01*
X0038378Y0228730D01*
X0038493Y0228943D01*
X0038613Y0229153D01*
X0038738Y0229359D01*
X0038868Y0229563D01*
X0039003Y0229764D01*
X0039143Y0229961D01*
X0039287Y0230155D01*
X0039436Y0230345D01*
X0039590Y0230531D01*
X0039748Y0230714D01*
X0039910Y0230893D01*
X0040077Y0231068D01*
X0040248Y0231239D01*
X0040423Y0231406D01*
X0040602Y0231568D01*
X0040785Y0231726D01*
X0040971Y0231880D01*
X0041161Y0232029D01*
X0041355Y0232173D01*
X0041552Y0232313D01*
X0041753Y0232448D01*
X0041957Y0232578D01*
X0042163Y0232703D01*
X0042373Y0232823D01*
X0042586Y0232938D01*
X0042801Y0233047D01*
X0043019Y0233152D01*
X0043239Y0233251D01*
X0043462Y0233345D01*
X0043687Y0233433D01*
X0043914Y0233516D01*
X0044143Y0233594D01*
X0044374Y0233665D01*
X0044606Y0233732D01*
X0044840Y0233792D01*
X0045075Y0233847D01*
X0045312Y0233897D01*
X0045549Y0233940D01*
X0045788Y0233978D01*
X0046028Y0234010D01*
X0046268Y0234036D01*
X0046509Y0234057D01*
X0046750Y0234071D01*
X0046991Y0234080D01*
X0047233Y0234083D01*
X0224083Y0234083D01*
X0219296Y0224733D02*
X0219298Y0224858D01*
X0219304Y0224983D01*
X0219314Y0225107D01*
X0219328Y0225231D01*
X0219345Y0225355D01*
X0219367Y0225478D01*
X0219393Y0225600D01*
X0219422Y0225722D01*
X0219455Y0225842D01*
X0219493Y0225961D01*
X0219533Y0226080D01*
X0219578Y0226196D01*
X0219626Y0226311D01*
X0219678Y0226425D01*
X0219734Y0226537D01*
X0219793Y0226647D01*
X0219855Y0226755D01*
X0219921Y0226862D01*
X0219990Y0226966D01*
X0220063Y0227067D01*
X0220138Y0227167D01*
X0220217Y0227264D01*
X0220299Y0227358D01*
X0220384Y0227450D01*
X0220471Y0227539D01*
X0220562Y0227625D01*
X0220655Y0227708D01*
X0220751Y0227789D01*
X0220849Y0227866D01*
X0220949Y0227940D01*
X0221052Y0228011D01*
X0221157Y0228078D01*
X0221265Y0228143D01*
X0221374Y0228203D01*
X0221485Y0228261D01*
X0221598Y0228314D01*
X0221712Y0228364D01*
X0221828Y0228411D01*
X0221945Y0228453D01*
X0222064Y0228492D01*
X0222184Y0228528D01*
X0222305Y0228559D01*
X0222427Y0228587D01*
X0222549Y0228610D01*
X0222673Y0228630D01*
X0222797Y0228646D01*
X0222921Y0228658D01*
X0223046Y0228666D01*
X0223171Y0228670D01*
X0223295Y0228670D01*
X0223420Y0228666D01*
X0223545Y0228658D01*
X0223669Y0228646D01*
X0223793Y0228630D01*
X0223917Y0228610D01*
X0224039Y0228587D01*
X0224161Y0228559D01*
X0224282Y0228528D01*
X0224402Y0228492D01*
X0224521Y0228453D01*
X0224638Y0228411D01*
X0224754Y0228364D01*
X0224868Y0228314D01*
X0224981Y0228261D01*
X0225092Y0228203D01*
X0225202Y0228143D01*
X0225309Y0228078D01*
X0225414Y0228011D01*
X0225517Y0227940D01*
X0225617Y0227866D01*
X0225715Y0227789D01*
X0225811Y0227708D01*
X0225904Y0227625D01*
X0225995Y0227539D01*
X0226082Y0227450D01*
X0226167Y0227358D01*
X0226249Y0227264D01*
X0226328Y0227167D01*
X0226403Y0227067D01*
X0226476Y0226966D01*
X0226545Y0226862D01*
X0226611Y0226755D01*
X0226673Y0226647D01*
X0226732Y0226537D01*
X0226788Y0226425D01*
X0226840Y0226311D01*
X0226888Y0226196D01*
X0226933Y0226080D01*
X0226973Y0225961D01*
X0227011Y0225842D01*
X0227044Y0225722D01*
X0227073Y0225600D01*
X0227099Y0225478D01*
X0227121Y0225355D01*
X0227138Y0225231D01*
X0227152Y0225107D01*
X0227162Y0224983D01*
X0227168Y0224858D01*
X0227170Y0224733D01*
X0227168Y0224608D01*
X0227162Y0224483D01*
X0227152Y0224359D01*
X0227138Y0224235D01*
X0227121Y0224111D01*
X0227099Y0223988D01*
X0227073Y0223866D01*
X0227044Y0223744D01*
X0227011Y0223624D01*
X0226973Y0223505D01*
X0226933Y0223386D01*
X0226888Y0223270D01*
X0226840Y0223155D01*
X0226788Y0223041D01*
X0226732Y0222929D01*
X0226673Y0222819D01*
X0226611Y0222711D01*
X0226545Y0222604D01*
X0226476Y0222500D01*
X0226403Y0222399D01*
X0226328Y0222299D01*
X0226249Y0222202D01*
X0226167Y0222108D01*
X0226082Y0222016D01*
X0225995Y0221927D01*
X0225904Y0221841D01*
X0225811Y0221758D01*
X0225715Y0221677D01*
X0225617Y0221600D01*
X0225517Y0221526D01*
X0225414Y0221455D01*
X0225309Y0221388D01*
X0225201Y0221323D01*
X0225092Y0221263D01*
X0224981Y0221205D01*
X0224868Y0221152D01*
X0224754Y0221102D01*
X0224638Y0221055D01*
X0224521Y0221013D01*
X0224402Y0220974D01*
X0224282Y0220938D01*
X0224161Y0220907D01*
X0224039Y0220879D01*
X0223917Y0220856D01*
X0223793Y0220836D01*
X0223669Y0220820D01*
X0223545Y0220808D01*
X0223420Y0220800D01*
X0223295Y0220796D01*
X0223171Y0220796D01*
X0223046Y0220800D01*
X0222921Y0220808D01*
X0222797Y0220820D01*
X0222673Y0220836D01*
X0222549Y0220856D01*
X0222427Y0220879D01*
X0222305Y0220907D01*
X0222184Y0220938D01*
X0222064Y0220974D01*
X0221945Y0221013D01*
X0221828Y0221055D01*
X0221712Y0221102D01*
X0221598Y0221152D01*
X0221485Y0221205D01*
X0221374Y0221263D01*
X0221264Y0221323D01*
X0221157Y0221388D01*
X0221052Y0221455D01*
X0220949Y0221526D01*
X0220849Y0221600D01*
X0220751Y0221677D01*
X0220655Y0221758D01*
X0220562Y0221841D01*
X0220471Y0221927D01*
X0220384Y0222016D01*
X0220299Y0222108D01*
X0220217Y0222202D01*
X0220138Y0222299D01*
X0220063Y0222399D01*
X0219990Y0222500D01*
X0219921Y0222604D01*
X0219855Y0222711D01*
X0219793Y0222819D01*
X0219734Y0222929D01*
X0219678Y0223041D01*
X0219626Y0223155D01*
X0219578Y0223270D01*
X0219533Y0223386D01*
X0219493Y0223505D01*
X0219455Y0223624D01*
X0219422Y0223744D01*
X0219393Y0223866D01*
X0219367Y0223988D01*
X0219345Y0224111D01*
X0219328Y0224235D01*
X0219314Y0224359D01*
X0219304Y0224483D01*
X0219298Y0224608D01*
X0219296Y0224733D01*
X0224083Y0234083D02*
X0224325Y0234080D01*
X0224566Y0234071D01*
X0224807Y0234057D01*
X0225048Y0234036D01*
X0225288Y0234010D01*
X0225528Y0233978D01*
X0225767Y0233940D01*
X0226004Y0233897D01*
X0226241Y0233847D01*
X0226476Y0233792D01*
X0226710Y0233732D01*
X0226942Y0233665D01*
X0227173Y0233594D01*
X0227402Y0233516D01*
X0227629Y0233433D01*
X0227854Y0233345D01*
X0228077Y0233251D01*
X0228297Y0233152D01*
X0228515Y0233047D01*
X0228730Y0232938D01*
X0228943Y0232823D01*
X0229153Y0232703D01*
X0229359Y0232578D01*
X0229563Y0232448D01*
X0229764Y0232313D01*
X0229961Y0232173D01*
X0230155Y0232029D01*
X0230345Y0231880D01*
X0230531Y0231726D01*
X0230714Y0231568D01*
X0230893Y0231406D01*
X0231068Y0231239D01*
X0231239Y0231068D01*
X0231406Y0230893D01*
X0231568Y0230714D01*
X0231726Y0230531D01*
X0231880Y0230345D01*
X0232029Y0230155D01*
X0232173Y0229961D01*
X0232313Y0229764D01*
X0232448Y0229563D01*
X0232578Y0229359D01*
X0232703Y0229153D01*
X0232823Y0228943D01*
X0232938Y0228730D01*
X0233047Y0228515D01*
X0233152Y0228297D01*
X0233251Y0228077D01*
X0233345Y0227854D01*
X0233433Y0227629D01*
X0233516Y0227402D01*
X0233594Y0227173D01*
X0233665Y0226942D01*
X0233732Y0226710D01*
X0233792Y0226476D01*
X0233847Y0226241D01*
X0233897Y0226004D01*
X0233940Y0225767D01*
X0233978Y0225528D01*
X0234010Y0225288D01*
X0234036Y0225048D01*
X0234057Y0224807D01*
X0234071Y0224566D01*
X0234080Y0224325D01*
X0234083Y0224083D01*
X0234083Y0047233D01*
X0234080Y0046991D01*
X0234071Y0046750D01*
X0234057Y0046509D01*
X0234036Y0046268D01*
X0234010Y0046028D01*
X0233978Y0045788D01*
X0233940Y0045549D01*
X0233897Y0045312D01*
X0233847Y0045075D01*
X0233792Y0044840D01*
X0233732Y0044606D01*
X0233665Y0044374D01*
X0233594Y0044143D01*
X0233516Y0043914D01*
X0233433Y0043687D01*
X0233345Y0043462D01*
X0233251Y0043239D01*
X0233152Y0043019D01*
X0233047Y0042801D01*
X0232938Y0042586D01*
X0232823Y0042373D01*
X0232703Y0042163D01*
X0232578Y0041957D01*
X0232448Y0041753D01*
X0232313Y0041552D01*
X0232173Y0041355D01*
X0232029Y0041161D01*
X0231880Y0040971D01*
X0231726Y0040785D01*
X0231568Y0040602D01*
X0231406Y0040423D01*
X0231239Y0040248D01*
X0231068Y0040077D01*
X0230893Y0039910D01*
X0230714Y0039748D01*
X0230531Y0039590D01*
X0230345Y0039436D01*
X0230155Y0039287D01*
X0229961Y0039143D01*
X0229764Y0039003D01*
X0229563Y0038868D01*
X0229359Y0038738D01*
X0229153Y0038613D01*
X0228943Y0038493D01*
X0228730Y0038378D01*
X0228515Y0038269D01*
X0228297Y0038164D01*
X0228077Y0038065D01*
X0227854Y0037971D01*
X0227629Y0037883D01*
X0227402Y0037800D01*
X0227173Y0037722D01*
X0226942Y0037651D01*
X0226710Y0037584D01*
X0226476Y0037524D01*
X0226241Y0037469D01*
X0226004Y0037419D01*
X0225767Y0037376D01*
X0225528Y0037338D01*
X0225288Y0037306D01*
X0225048Y0037280D01*
X0224807Y0037259D01*
X0224566Y0037245D01*
X0224325Y0037236D01*
X0224083Y0037233D01*
X0047233Y0037233D01*
X0043296Y0047233D02*
X0043298Y0047358D01*
X0043304Y0047483D01*
X0043314Y0047607D01*
X0043328Y0047731D01*
X0043345Y0047855D01*
X0043367Y0047978D01*
X0043393Y0048100D01*
X0043422Y0048222D01*
X0043455Y0048342D01*
X0043493Y0048461D01*
X0043533Y0048580D01*
X0043578Y0048696D01*
X0043626Y0048811D01*
X0043678Y0048925D01*
X0043734Y0049037D01*
X0043793Y0049147D01*
X0043855Y0049255D01*
X0043921Y0049362D01*
X0043990Y0049466D01*
X0044063Y0049567D01*
X0044138Y0049667D01*
X0044217Y0049764D01*
X0044299Y0049858D01*
X0044384Y0049950D01*
X0044471Y0050039D01*
X0044562Y0050125D01*
X0044655Y0050208D01*
X0044751Y0050289D01*
X0044849Y0050366D01*
X0044949Y0050440D01*
X0045052Y0050511D01*
X0045157Y0050578D01*
X0045265Y0050643D01*
X0045374Y0050703D01*
X0045485Y0050761D01*
X0045598Y0050814D01*
X0045712Y0050864D01*
X0045828Y0050911D01*
X0045945Y0050953D01*
X0046064Y0050992D01*
X0046184Y0051028D01*
X0046305Y0051059D01*
X0046427Y0051087D01*
X0046549Y0051110D01*
X0046673Y0051130D01*
X0046797Y0051146D01*
X0046921Y0051158D01*
X0047046Y0051166D01*
X0047171Y0051170D01*
X0047295Y0051170D01*
X0047420Y0051166D01*
X0047545Y0051158D01*
X0047669Y0051146D01*
X0047793Y0051130D01*
X0047917Y0051110D01*
X0048039Y0051087D01*
X0048161Y0051059D01*
X0048282Y0051028D01*
X0048402Y0050992D01*
X0048521Y0050953D01*
X0048638Y0050911D01*
X0048754Y0050864D01*
X0048868Y0050814D01*
X0048981Y0050761D01*
X0049092Y0050703D01*
X0049202Y0050643D01*
X0049309Y0050578D01*
X0049414Y0050511D01*
X0049517Y0050440D01*
X0049617Y0050366D01*
X0049715Y0050289D01*
X0049811Y0050208D01*
X0049904Y0050125D01*
X0049995Y0050039D01*
X0050082Y0049950D01*
X0050167Y0049858D01*
X0050249Y0049764D01*
X0050328Y0049667D01*
X0050403Y0049567D01*
X0050476Y0049466D01*
X0050545Y0049362D01*
X0050611Y0049255D01*
X0050673Y0049147D01*
X0050732Y0049037D01*
X0050788Y0048925D01*
X0050840Y0048811D01*
X0050888Y0048696D01*
X0050933Y0048580D01*
X0050973Y0048461D01*
X0051011Y0048342D01*
X0051044Y0048222D01*
X0051073Y0048100D01*
X0051099Y0047978D01*
X0051121Y0047855D01*
X0051138Y0047731D01*
X0051152Y0047607D01*
X0051162Y0047483D01*
X0051168Y0047358D01*
X0051170Y0047233D01*
X0051168Y0047108D01*
X0051162Y0046983D01*
X0051152Y0046859D01*
X0051138Y0046735D01*
X0051121Y0046611D01*
X0051099Y0046488D01*
X0051073Y0046366D01*
X0051044Y0046244D01*
X0051011Y0046124D01*
X0050973Y0046005D01*
X0050933Y0045886D01*
X0050888Y0045770D01*
X0050840Y0045655D01*
X0050788Y0045541D01*
X0050732Y0045429D01*
X0050673Y0045319D01*
X0050611Y0045211D01*
X0050545Y0045104D01*
X0050476Y0045000D01*
X0050403Y0044899D01*
X0050328Y0044799D01*
X0050249Y0044702D01*
X0050167Y0044608D01*
X0050082Y0044516D01*
X0049995Y0044427D01*
X0049904Y0044341D01*
X0049811Y0044258D01*
X0049715Y0044177D01*
X0049617Y0044100D01*
X0049517Y0044026D01*
X0049414Y0043955D01*
X0049309Y0043888D01*
X0049201Y0043823D01*
X0049092Y0043763D01*
X0048981Y0043705D01*
X0048868Y0043652D01*
X0048754Y0043602D01*
X0048638Y0043555D01*
X0048521Y0043513D01*
X0048402Y0043474D01*
X0048282Y0043438D01*
X0048161Y0043407D01*
X0048039Y0043379D01*
X0047917Y0043356D01*
X0047793Y0043336D01*
X0047669Y0043320D01*
X0047545Y0043308D01*
X0047420Y0043300D01*
X0047295Y0043296D01*
X0047171Y0043296D01*
X0047046Y0043300D01*
X0046921Y0043308D01*
X0046797Y0043320D01*
X0046673Y0043336D01*
X0046549Y0043356D01*
X0046427Y0043379D01*
X0046305Y0043407D01*
X0046184Y0043438D01*
X0046064Y0043474D01*
X0045945Y0043513D01*
X0045828Y0043555D01*
X0045712Y0043602D01*
X0045598Y0043652D01*
X0045485Y0043705D01*
X0045374Y0043763D01*
X0045264Y0043823D01*
X0045157Y0043888D01*
X0045052Y0043955D01*
X0044949Y0044026D01*
X0044849Y0044100D01*
X0044751Y0044177D01*
X0044655Y0044258D01*
X0044562Y0044341D01*
X0044471Y0044427D01*
X0044384Y0044516D01*
X0044299Y0044608D01*
X0044217Y0044702D01*
X0044138Y0044799D01*
X0044063Y0044899D01*
X0043990Y0045000D01*
X0043921Y0045104D01*
X0043855Y0045211D01*
X0043793Y0045319D01*
X0043734Y0045429D01*
X0043678Y0045541D01*
X0043626Y0045655D01*
X0043578Y0045770D01*
X0043533Y0045886D01*
X0043493Y0046005D01*
X0043455Y0046124D01*
X0043422Y0046244D01*
X0043393Y0046366D01*
X0043367Y0046488D01*
X0043345Y0046611D01*
X0043328Y0046735D01*
X0043314Y0046859D01*
X0043304Y0046983D01*
X0043298Y0047108D01*
X0043296Y0047233D01*
X0037233Y0047233D02*
X0037236Y0046991D01*
X0037245Y0046750D01*
X0037259Y0046509D01*
X0037280Y0046268D01*
X0037306Y0046028D01*
X0037338Y0045788D01*
X0037376Y0045549D01*
X0037419Y0045312D01*
X0037469Y0045075D01*
X0037524Y0044840D01*
X0037584Y0044606D01*
X0037651Y0044374D01*
X0037722Y0044143D01*
X0037800Y0043914D01*
X0037883Y0043687D01*
X0037971Y0043462D01*
X0038065Y0043239D01*
X0038164Y0043019D01*
X0038269Y0042801D01*
X0038378Y0042586D01*
X0038493Y0042373D01*
X0038613Y0042163D01*
X0038738Y0041957D01*
X0038868Y0041753D01*
X0039003Y0041552D01*
X0039143Y0041355D01*
X0039287Y0041161D01*
X0039436Y0040971D01*
X0039590Y0040785D01*
X0039748Y0040602D01*
X0039910Y0040423D01*
X0040077Y0040248D01*
X0040248Y0040077D01*
X0040423Y0039910D01*
X0040602Y0039748D01*
X0040785Y0039590D01*
X0040971Y0039436D01*
X0041161Y0039287D01*
X0041355Y0039143D01*
X0041552Y0039003D01*
X0041753Y0038868D01*
X0041957Y0038738D01*
X0042163Y0038613D01*
X0042373Y0038493D01*
X0042586Y0038378D01*
X0042801Y0038269D01*
X0043019Y0038164D01*
X0043239Y0038065D01*
X0043462Y0037971D01*
X0043687Y0037883D01*
X0043914Y0037800D01*
X0044143Y0037722D01*
X0044374Y0037651D01*
X0044606Y0037584D01*
X0044840Y0037524D01*
X0045075Y0037469D01*
X0045312Y0037419D01*
X0045549Y0037376D01*
X0045788Y0037338D01*
X0046028Y0037306D01*
X0046268Y0037280D01*
X0046509Y0037259D01*
X0046750Y0037245D01*
X0046991Y0037236D01*
X0047233Y0037233D01*
X0043796Y0224733D02*
X0043798Y0224858D01*
X0043804Y0224983D01*
X0043814Y0225107D01*
X0043828Y0225231D01*
X0043845Y0225355D01*
X0043867Y0225478D01*
X0043893Y0225600D01*
X0043922Y0225722D01*
X0043955Y0225842D01*
X0043993Y0225961D01*
X0044033Y0226080D01*
X0044078Y0226196D01*
X0044126Y0226311D01*
X0044178Y0226425D01*
X0044234Y0226537D01*
X0044293Y0226647D01*
X0044355Y0226755D01*
X0044421Y0226862D01*
X0044490Y0226966D01*
X0044563Y0227067D01*
X0044638Y0227167D01*
X0044717Y0227264D01*
X0044799Y0227358D01*
X0044884Y0227450D01*
X0044971Y0227539D01*
X0045062Y0227625D01*
X0045155Y0227708D01*
X0045251Y0227789D01*
X0045349Y0227866D01*
X0045449Y0227940D01*
X0045552Y0228011D01*
X0045657Y0228078D01*
X0045765Y0228143D01*
X0045874Y0228203D01*
X0045985Y0228261D01*
X0046098Y0228314D01*
X0046212Y0228364D01*
X0046328Y0228411D01*
X0046445Y0228453D01*
X0046564Y0228492D01*
X0046684Y0228528D01*
X0046805Y0228559D01*
X0046927Y0228587D01*
X0047049Y0228610D01*
X0047173Y0228630D01*
X0047297Y0228646D01*
X0047421Y0228658D01*
X0047546Y0228666D01*
X0047671Y0228670D01*
X0047795Y0228670D01*
X0047920Y0228666D01*
X0048045Y0228658D01*
X0048169Y0228646D01*
X0048293Y0228630D01*
X0048417Y0228610D01*
X0048539Y0228587D01*
X0048661Y0228559D01*
X0048782Y0228528D01*
X0048902Y0228492D01*
X0049021Y0228453D01*
X0049138Y0228411D01*
X0049254Y0228364D01*
X0049368Y0228314D01*
X0049481Y0228261D01*
X0049592Y0228203D01*
X0049702Y0228143D01*
X0049809Y0228078D01*
X0049914Y0228011D01*
X0050017Y0227940D01*
X0050117Y0227866D01*
X0050215Y0227789D01*
X0050311Y0227708D01*
X0050404Y0227625D01*
X0050495Y0227539D01*
X0050582Y0227450D01*
X0050667Y0227358D01*
X0050749Y0227264D01*
X0050828Y0227167D01*
X0050903Y0227067D01*
X0050976Y0226966D01*
X0051045Y0226862D01*
X0051111Y0226755D01*
X0051173Y0226647D01*
X0051232Y0226537D01*
X0051288Y0226425D01*
X0051340Y0226311D01*
X0051388Y0226196D01*
X0051433Y0226080D01*
X0051473Y0225961D01*
X0051511Y0225842D01*
X0051544Y0225722D01*
X0051573Y0225600D01*
X0051599Y0225478D01*
X0051621Y0225355D01*
X0051638Y0225231D01*
X0051652Y0225107D01*
X0051662Y0224983D01*
X0051668Y0224858D01*
X0051670Y0224733D01*
X0051668Y0224608D01*
X0051662Y0224483D01*
X0051652Y0224359D01*
X0051638Y0224235D01*
X0051621Y0224111D01*
X0051599Y0223988D01*
X0051573Y0223866D01*
X0051544Y0223744D01*
X0051511Y0223624D01*
X0051473Y0223505D01*
X0051433Y0223386D01*
X0051388Y0223270D01*
X0051340Y0223155D01*
X0051288Y0223041D01*
X0051232Y0222929D01*
X0051173Y0222819D01*
X0051111Y0222711D01*
X0051045Y0222604D01*
X0050976Y0222500D01*
X0050903Y0222399D01*
X0050828Y0222299D01*
X0050749Y0222202D01*
X0050667Y0222108D01*
X0050582Y0222016D01*
X0050495Y0221927D01*
X0050404Y0221841D01*
X0050311Y0221758D01*
X0050215Y0221677D01*
X0050117Y0221600D01*
X0050017Y0221526D01*
X0049914Y0221455D01*
X0049809Y0221388D01*
X0049701Y0221323D01*
X0049592Y0221263D01*
X0049481Y0221205D01*
X0049368Y0221152D01*
X0049254Y0221102D01*
X0049138Y0221055D01*
X0049021Y0221013D01*
X0048902Y0220974D01*
X0048782Y0220938D01*
X0048661Y0220907D01*
X0048539Y0220879D01*
X0048417Y0220856D01*
X0048293Y0220836D01*
X0048169Y0220820D01*
X0048045Y0220808D01*
X0047920Y0220800D01*
X0047795Y0220796D01*
X0047671Y0220796D01*
X0047546Y0220800D01*
X0047421Y0220808D01*
X0047297Y0220820D01*
X0047173Y0220836D01*
X0047049Y0220856D01*
X0046927Y0220879D01*
X0046805Y0220907D01*
X0046684Y0220938D01*
X0046564Y0220974D01*
X0046445Y0221013D01*
X0046328Y0221055D01*
X0046212Y0221102D01*
X0046098Y0221152D01*
X0045985Y0221205D01*
X0045874Y0221263D01*
X0045764Y0221323D01*
X0045657Y0221388D01*
X0045552Y0221455D01*
X0045449Y0221526D01*
X0045349Y0221600D01*
X0045251Y0221677D01*
X0045155Y0221758D01*
X0045062Y0221841D01*
X0044971Y0221927D01*
X0044884Y0222016D01*
X0044799Y0222108D01*
X0044717Y0222202D01*
X0044638Y0222299D01*
X0044563Y0222399D01*
X0044490Y0222500D01*
X0044421Y0222604D01*
X0044355Y0222711D01*
X0044293Y0222819D01*
X0044234Y0222929D01*
X0044178Y0223041D01*
X0044126Y0223155D01*
X0044078Y0223270D01*
X0044033Y0223386D01*
X0043993Y0223505D01*
X0043955Y0223624D01*
X0043922Y0223744D01*
X0043893Y0223866D01*
X0043867Y0223988D01*
X0043845Y0224111D01*
X0043828Y0224235D01*
X0043814Y0224359D01*
X0043804Y0224483D01*
X0043798Y0224608D01*
X0043796Y0224733D01*
D11*
X0047733Y0224733D03*
X0223233Y0224733D03*
X0047233Y0047233D03*
D12*
X0129389Y0052233D02*
X0134589Y0052233D01*
X0134589Y0062233D02*
X0129389Y0062233D01*
X0129389Y0072233D02*
X0134589Y0072233D01*
X0134589Y0082233D02*
X0129389Y0082233D01*
X0129389Y0092233D02*
X0134589Y0092233D01*
X0134589Y0102233D02*
X0129389Y0102233D01*
X0129389Y0112233D02*
X0134589Y0112233D01*
X0134589Y0122233D02*
X0129389Y0122233D01*
X0129389Y0132233D02*
X0134589Y0132233D01*
X0134589Y0142233D02*
X0129389Y0142233D01*
X0129389Y0152233D02*
X0134589Y0152233D01*
X0134589Y0162233D02*
X0129389Y0162233D01*
X0129389Y0172233D02*
X0134589Y0172233D01*
X0134589Y0182233D02*
X0129389Y0182233D01*
X0159389Y0182233D02*
X0164589Y0182233D01*
X0164589Y0172233D02*
X0159389Y0172233D01*
X0159389Y0162233D02*
X0164589Y0162233D01*
X0164589Y0152233D02*
X0159389Y0152233D01*
X0159389Y0142233D02*
X0164589Y0142233D01*
X0164589Y0132233D02*
X0159389Y0132233D01*
X0159389Y0122233D02*
X0164589Y0122233D01*
X0164589Y0112233D02*
X0159389Y0112233D01*
X0159389Y0102233D02*
X0164589Y0102233D01*
X0164589Y0092233D02*
X0159389Y0092233D01*
X0159389Y0082233D02*
X0164589Y0082233D01*
X0164589Y0072233D02*
X0159389Y0072233D01*
X0159389Y0062233D02*
X0164589Y0062233D01*
X0164589Y0052233D02*
X0159389Y0052233D01*
D13*
X0096973Y0137843D03*
X0096973Y0157843D03*
X0066855Y0198650D03*
X0046855Y0198650D03*
X0046973Y0175580D03*
X0046973Y0155580D03*
X0046993Y0109324D03*
X0046993Y0089324D03*
D14*
X0043272Y0073296D03*
X0053272Y0073296D03*
X0053784Y0063115D03*
X0043784Y0063115D03*
D15*
X0077406Y0053217D03*
X0077406Y0073217D03*
D16*
X0100733Y0077233D03*
X0101233Y0067233D03*
X0110733Y0056733D03*
X0110733Y0046733D03*
X0103233Y0098733D03*
X0087733Y0097733D03*
X0087733Y0107733D03*
X0086225Y0128532D03*
X0074414Y0128532D03*
X0056343Y0131209D03*
X0056343Y0141209D03*
X0056343Y0121209D03*
X0074414Y0158532D03*
X0086225Y0158532D03*
X0094611Y0172981D03*
X0094611Y0182981D03*
X0094611Y0192981D03*
X0093115Y0212036D03*
X0093115Y0222036D03*
X0126733Y0219733D03*
X0126733Y0209733D03*
X0127328Y0199792D03*
X0156733Y0209733D03*
X0157328Y0199792D03*
X0170733Y0192233D03*
X0196635Y0196772D03*
X0196635Y0186772D03*
X0196635Y0176772D03*
X0195981Y0161918D03*
X0195981Y0151918D03*
X0195981Y0141918D03*
X0195981Y0131918D03*
X0195981Y0121918D03*
X0195981Y0111918D03*
X0215733Y0102233D03*
X0225733Y0102233D03*
X0221461Y0084477D03*
X0221461Y0072666D03*
X0221461Y0060855D03*
X0221461Y0049044D03*
X0191461Y0049044D03*
X0191461Y0060855D03*
X0191461Y0072666D03*
X0191461Y0084477D03*
X0178902Y0082981D03*
X0178902Y0072981D03*
X0178902Y0062981D03*
X0215733Y0132233D03*
X0225733Y0132233D03*
X0196635Y0206772D03*
X0196635Y0216772D03*
X0196635Y0226772D03*
X0156733Y0219733D03*
X0110733Y0152233D03*
X0110733Y0142233D03*
X0103233Y0128733D03*
D17*
X0178902Y0052981D03*
M02*
