%
M48
M72
T01C0.02756
T02C0.03200
T03C0.03543
T04C0.04000
T05C0.07874
%
T01
X77406Y73217
X77406Y53217
T02
X46855Y198650
X66855Y198650
X46973Y175580
X46973Y155580
X46993Y109324
X46993Y89324
X43272Y73296
X53272Y73296
X53784Y63115
X43784Y63115
X87733Y97733
X87733Y107733
X96973Y137843
X96973Y157843
X131989Y162233
X131989Y152233
X131989Y142233
X131989Y132233
X131989Y122233
X131989Y112233
X131989Y102233
X131989Y92233
X131989Y82233
X131989Y72233
X131989Y62233
X131989Y52233
X161989Y52233
X161989Y62233
X161989Y72233
X161989Y82233
X161989Y92233
X161989Y102233
X161989Y112233
X161989Y122233
X161989Y132233
X161989Y142233
X161989Y152233
X161989Y162233
X161989Y172233
X161989Y182233
X131989Y182233
X131989Y172233
T03
X74414Y158532
X86225Y158532
X86225Y128532
X74414Y128532
X103233Y128733
X103233Y98733
X191461Y84477
X191461Y72666
X191461Y60855
X191461Y49044
X221461Y49044
X221461Y60855
X221461Y72666
X221461Y84477
X225733Y102233
X215733Y102233
X215733Y132233
X225733Y132233
X157328Y199792
X156733Y209733
X156733Y219733
X126733Y219733
X126733Y209733
X127328Y199792
T04
X93115Y222036
X93115Y212036
X94611Y192981
X94611Y182981
X94611Y172981
X110733Y152233
X110733Y142233
X56343Y141209
X56343Y131209
X56343Y121209
X100733Y77233
X101233Y67233
X110733Y56733
X110733Y46733
X178902Y52981
X178902Y62981
X178902Y72981
X178902Y82981
X195981Y111918
X195981Y121918
X195981Y131918
X195981Y141918
X195981Y151918
X195981Y161918
X196635Y176772
X196635Y186772
X196635Y196772
X196635Y206772
X196635Y216772
X196635Y226772
X170733Y192233
T05
X47233Y47233
X47733Y224733
X223233Y224733
M30
