G75*
%MOIN*%
%OFA0B0*%
%FSLAX25Y25*%
%IPPOS*%
%LPD*%
%AMOC8*
5,1,8,0,0,1.08239X$1,22.5*
%
%ADD10C,0.00000*%
%ADD11C,0.05200*%
%ADD12OC8,0.05200*%
%ADD13OC8,0.05600*%
%ADD14C,0.06500*%
%ADD15C,0.07400*%
%ADD16R,0.07400X0.07400*%
%ADD17C,0.01600*%
D10*
X0037233Y0047233D02*
X0037233Y0224083D01*
X0037236Y0224325D01*
X0037245Y0224566D01*
X0037259Y0224807D01*
X0037280Y0225048D01*
X0037306Y0225288D01*
X0037338Y0225528D01*
X0037376Y0225767D01*
X0037419Y0226004D01*
X0037469Y0226241D01*
X0037524Y0226476D01*
X0037584Y0226710D01*
X0037651Y0226942D01*
X0037722Y0227173D01*
X0037800Y0227402D01*
X0037883Y0227629D01*
X0037971Y0227854D01*
X0038065Y0228077D01*
X0038164Y0228297D01*
X0038269Y0228515D01*
X0038378Y0228730D01*
X0038493Y0228943D01*
X0038613Y0229153D01*
X0038738Y0229359D01*
X0038868Y0229563D01*
X0039003Y0229764D01*
X0039143Y0229961D01*
X0039287Y0230155D01*
X0039436Y0230345D01*
X0039590Y0230531D01*
X0039748Y0230714D01*
X0039910Y0230893D01*
X0040077Y0231068D01*
X0040248Y0231239D01*
X0040423Y0231406D01*
X0040602Y0231568D01*
X0040785Y0231726D01*
X0040971Y0231880D01*
X0041161Y0232029D01*
X0041355Y0232173D01*
X0041552Y0232313D01*
X0041753Y0232448D01*
X0041957Y0232578D01*
X0042163Y0232703D01*
X0042373Y0232823D01*
X0042586Y0232938D01*
X0042801Y0233047D01*
X0043019Y0233152D01*
X0043239Y0233251D01*
X0043462Y0233345D01*
X0043687Y0233433D01*
X0043914Y0233516D01*
X0044143Y0233594D01*
X0044374Y0233665D01*
X0044606Y0233732D01*
X0044840Y0233792D01*
X0045075Y0233847D01*
X0045312Y0233897D01*
X0045549Y0233940D01*
X0045788Y0233978D01*
X0046028Y0234010D01*
X0046268Y0234036D01*
X0046509Y0234057D01*
X0046750Y0234071D01*
X0046991Y0234080D01*
X0047233Y0234083D01*
X0224083Y0234083D01*
X0219296Y0224733D02*
X0219298Y0224858D01*
X0219304Y0224983D01*
X0219314Y0225107D01*
X0219328Y0225231D01*
X0219345Y0225355D01*
X0219367Y0225478D01*
X0219393Y0225600D01*
X0219422Y0225722D01*
X0219455Y0225842D01*
X0219493Y0225961D01*
X0219533Y0226080D01*
X0219578Y0226196D01*
X0219626Y0226311D01*
X0219678Y0226425D01*
X0219734Y0226537D01*
X0219793Y0226647D01*
X0219855Y0226755D01*
X0219921Y0226862D01*
X0219990Y0226966D01*
X0220063Y0227067D01*
X0220138Y0227167D01*
X0220217Y0227264D01*
X0220299Y0227358D01*
X0220384Y0227450D01*
X0220471Y0227539D01*
X0220562Y0227625D01*
X0220655Y0227708D01*
X0220751Y0227789D01*
X0220849Y0227866D01*
X0220949Y0227940D01*
X0221052Y0228011D01*
X0221157Y0228078D01*
X0221265Y0228143D01*
X0221374Y0228203D01*
X0221485Y0228261D01*
X0221598Y0228314D01*
X0221712Y0228364D01*
X0221828Y0228411D01*
X0221945Y0228453D01*
X0222064Y0228492D01*
X0222184Y0228528D01*
X0222305Y0228559D01*
X0222427Y0228587D01*
X0222549Y0228610D01*
X0222673Y0228630D01*
X0222797Y0228646D01*
X0222921Y0228658D01*
X0223046Y0228666D01*
X0223171Y0228670D01*
X0223295Y0228670D01*
X0223420Y0228666D01*
X0223545Y0228658D01*
X0223669Y0228646D01*
X0223793Y0228630D01*
X0223917Y0228610D01*
X0224039Y0228587D01*
X0224161Y0228559D01*
X0224282Y0228528D01*
X0224402Y0228492D01*
X0224521Y0228453D01*
X0224638Y0228411D01*
X0224754Y0228364D01*
X0224868Y0228314D01*
X0224981Y0228261D01*
X0225092Y0228203D01*
X0225202Y0228143D01*
X0225309Y0228078D01*
X0225414Y0228011D01*
X0225517Y0227940D01*
X0225617Y0227866D01*
X0225715Y0227789D01*
X0225811Y0227708D01*
X0225904Y0227625D01*
X0225995Y0227539D01*
X0226082Y0227450D01*
X0226167Y0227358D01*
X0226249Y0227264D01*
X0226328Y0227167D01*
X0226403Y0227067D01*
X0226476Y0226966D01*
X0226545Y0226862D01*
X0226611Y0226755D01*
X0226673Y0226647D01*
X0226732Y0226537D01*
X0226788Y0226425D01*
X0226840Y0226311D01*
X0226888Y0226196D01*
X0226933Y0226080D01*
X0226973Y0225961D01*
X0227011Y0225842D01*
X0227044Y0225722D01*
X0227073Y0225600D01*
X0227099Y0225478D01*
X0227121Y0225355D01*
X0227138Y0225231D01*
X0227152Y0225107D01*
X0227162Y0224983D01*
X0227168Y0224858D01*
X0227170Y0224733D01*
X0227168Y0224608D01*
X0227162Y0224483D01*
X0227152Y0224359D01*
X0227138Y0224235D01*
X0227121Y0224111D01*
X0227099Y0223988D01*
X0227073Y0223866D01*
X0227044Y0223744D01*
X0227011Y0223624D01*
X0226973Y0223505D01*
X0226933Y0223386D01*
X0226888Y0223270D01*
X0226840Y0223155D01*
X0226788Y0223041D01*
X0226732Y0222929D01*
X0226673Y0222819D01*
X0226611Y0222711D01*
X0226545Y0222604D01*
X0226476Y0222500D01*
X0226403Y0222399D01*
X0226328Y0222299D01*
X0226249Y0222202D01*
X0226167Y0222108D01*
X0226082Y0222016D01*
X0225995Y0221927D01*
X0225904Y0221841D01*
X0225811Y0221758D01*
X0225715Y0221677D01*
X0225617Y0221600D01*
X0225517Y0221526D01*
X0225414Y0221455D01*
X0225309Y0221388D01*
X0225201Y0221323D01*
X0225092Y0221263D01*
X0224981Y0221205D01*
X0224868Y0221152D01*
X0224754Y0221102D01*
X0224638Y0221055D01*
X0224521Y0221013D01*
X0224402Y0220974D01*
X0224282Y0220938D01*
X0224161Y0220907D01*
X0224039Y0220879D01*
X0223917Y0220856D01*
X0223793Y0220836D01*
X0223669Y0220820D01*
X0223545Y0220808D01*
X0223420Y0220800D01*
X0223295Y0220796D01*
X0223171Y0220796D01*
X0223046Y0220800D01*
X0222921Y0220808D01*
X0222797Y0220820D01*
X0222673Y0220836D01*
X0222549Y0220856D01*
X0222427Y0220879D01*
X0222305Y0220907D01*
X0222184Y0220938D01*
X0222064Y0220974D01*
X0221945Y0221013D01*
X0221828Y0221055D01*
X0221712Y0221102D01*
X0221598Y0221152D01*
X0221485Y0221205D01*
X0221374Y0221263D01*
X0221264Y0221323D01*
X0221157Y0221388D01*
X0221052Y0221455D01*
X0220949Y0221526D01*
X0220849Y0221600D01*
X0220751Y0221677D01*
X0220655Y0221758D01*
X0220562Y0221841D01*
X0220471Y0221927D01*
X0220384Y0222016D01*
X0220299Y0222108D01*
X0220217Y0222202D01*
X0220138Y0222299D01*
X0220063Y0222399D01*
X0219990Y0222500D01*
X0219921Y0222604D01*
X0219855Y0222711D01*
X0219793Y0222819D01*
X0219734Y0222929D01*
X0219678Y0223041D01*
X0219626Y0223155D01*
X0219578Y0223270D01*
X0219533Y0223386D01*
X0219493Y0223505D01*
X0219455Y0223624D01*
X0219422Y0223744D01*
X0219393Y0223866D01*
X0219367Y0223988D01*
X0219345Y0224111D01*
X0219328Y0224235D01*
X0219314Y0224359D01*
X0219304Y0224483D01*
X0219298Y0224608D01*
X0219296Y0224733D01*
X0224083Y0234083D02*
X0224325Y0234080D01*
X0224566Y0234071D01*
X0224807Y0234057D01*
X0225048Y0234036D01*
X0225288Y0234010D01*
X0225528Y0233978D01*
X0225767Y0233940D01*
X0226004Y0233897D01*
X0226241Y0233847D01*
X0226476Y0233792D01*
X0226710Y0233732D01*
X0226942Y0233665D01*
X0227173Y0233594D01*
X0227402Y0233516D01*
X0227629Y0233433D01*
X0227854Y0233345D01*
X0228077Y0233251D01*
X0228297Y0233152D01*
X0228515Y0233047D01*
X0228730Y0232938D01*
X0228943Y0232823D01*
X0229153Y0232703D01*
X0229359Y0232578D01*
X0229563Y0232448D01*
X0229764Y0232313D01*
X0229961Y0232173D01*
X0230155Y0232029D01*
X0230345Y0231880D01*
X0230531Y0231726D01*
X0230714Y0231568D01*
X0230893Y0231406D01*
X0231068Y0231239D01*
X0231239Y0231068D01*
X0231406Y0230893D01*
X0231568Y0230714D01*
X0231726Y0230531D01*
X0231880Y0230345D01*
X0232029Y0230155D01*
X0232173Y0229961D01*
X0232313Y0229764D01*
X0232448Y0229563D01*
X0232578Y0229359D01*
X0232703Y0229153D01*
X0232823Y0228943D01*
X0232938Y0228730D01*
X0233047Y0228515D01*
X0233152Y0228297D01*
X0233251Y0228077D01*
X0233345Y0227854D01*
X0233433Y0227629D01*
X0233516Y0227402D01*
X0233594Y0227173D01*
X0233665Y0226942D01*
X0233732Y0226710D01*
X0233792Y0226476D01*
X0233847Y0226241D01*
X0233897Y0226004D01*
X0233940Y0225767D01*
X0233978Y0225528D01*
X0234010Y0225288D01*
X0234036Y0225048D01*
X0234057Y0224807D01*
X0234071Y0224566D01*
X0234080Y0224325D01*
X0234083Y0224083D01*
X0234083Y0047233D01*
X0234080Y0046991D01*
X0234071Y0046750D01*
X0234057Y0046509D01*
X0234036Y0046268D01*
X0234010Y0046028D01*
X0233978Y0045788D01*
X0233940Y0045549D01*
X0233897Y0045312D01*
X0233847Y0045075D01*
X0233792Y0044840D01*
X0233732Y0044606D01*
X0233665Y0044374D01*
X0233594Y0044143D01*
X0233516Y0043914D01*
X0233433Y0043687D01*
X0233345Y0043462D01*
X0233251Y0043239D01*
X0233152Y0043019D01*
X0233047Y0042801D01*
X0232938Y0042586D01*
X0232823Y0042373D01*
X0232703Y0042163D01*
X0232578Y0041957D01*
X0232448Y0041753D01*
X0232313Y0041552D01*
X0232173Y0041355D01*
X0232029Y0041161D01*
X0231880Y0040971D01*
X0231726Y0040785D01*
X0231568Y0040602D01*
X0231406Y0040423D01*
X0231239Y0040248D01*
X0231068Y0040077D01*
X0230893Y0039910D01*
X0230714Y0039748D01*
X0230531Y0039590D01*
X0230345Y0039436D01*
X0230155Y0039287D01*
X0229961Y0039143D01*
X0229764Y0039003D01*
X0229563Y0038868D01*
X0229359Y0038738D01*
X0229153Y0038613D01*
X0228943Y0038493D01*
X0228730Y0038378D01*
X0228515Y0038269D01*
X0228297Y0038164D01*
X0228077Y0038065D01*
X0227854Y0037971D01*
X0227629Y0037883D01*
X0227402Y0037800D01*
X0227173Y0037722D01*
X0226942Y0037651D01*
X0226710Y0037584D01*
X0226476Y0037524D01*
X0226241Y0037469D01*
X0226004Y0037419D01*
X0225767Y0037376D01*
X0225528Y0037338D01*
X0225288Y0037306D01*
X0225048Y0037280D01*
X0224807Y0037259D01*
X0224566Y0037245D01*
X0224325Y0037236D01*
X0224083Y0037233D01*
X0047233Y0037233D01*
X0043296Y0047233D02*
X0043298Y0047358D01*
X0043304Y0047483D01*
X0043314Y0047607D01*
X0043328Y0047731D01*
X0043345Y0047855D01*
X0043367Y0047978D01*
X0043393Y0048100D01*
X0043422Y0048222D01*
X0043455Y0048342D01*
X0043493Y0048461D01*
X0043533Y0048580D01*
X0043578Y0048696D01*
X0043626Y0048811D01*
X0043678Y0048925D01*
X0043734Y0049037D01*
X0043793Y0049147D01*
X0043855Y0049255D01*
X0043921Y0049362D01*
X0043990Y0049466D01*
X0044063Y0049567D01*
X0044138Y0049667D01*
X0044217Y0049764D01*
X0044299Y0049858D01*
X0044384Y0049950D01*
X0044471Y0050039D01*
X0044562Y0050125D01*
X0044655Y0050208D01*
X0044751Y0050289D01*
X0044849Y0050366D01*
X0044949Y0050440D01*
X0045052Y0050511D01*
X0045157Y0050578D01*
X0045265Y0050643D01*
X0045374Y0050703D01*
X0045485Y0050761D01*
X0045598Y0050814D01*
X0045712Y0050864D01*
X0045828Y0050911D01*
X0045945Y0050953D01*
X0046064Y0050992D01*
X0046184Y0051028D01*
X0046305Y0051059D01*
X0046427Y0051087D01*
X0046549Y0051110D01*
X0046673Y0051130D01*
X0046797Y0051146D01*
X0046921Y0051158D01*
X0047046Y0051166D01*
X0047171Y0051170D01*
X0047295Y0051170D01*
X0047420Y0051166D01*
X0047545Y0051158D01*
X0047669Y0051146D01*
X0047793Y0051130D01*
X0047917Y0051110D01*
X0048039Y0051087D01*
X0048161Y0051059D01*
X0048282Y0051028D01*
X0048402Y0050992D01*
X0048521Y0050953D01*
X0048638Y0050911D01*
X0048754Y0050864D01*
X0048868Y0050814D01*
X0048981Y0050761D01*
X0049092Y0050703D01*
X0049202Y0050643D01*
X0049309Y0050578D01*
X0049414Y0050511D01*
X0049517Y0050440D01*
X0049617Y0050366D01*
X0049715Y0050289D01*
X0049811Y0050208D01*
X0049904Y0050125D01*
X0049995Y0050039D01*
X0050082Y0049950D01*
X0050167Y0049858D01*
X0050249Y0049764D01*
X0050328Y0049667D01*
X0050403Y0049567D01*
X0050476Y0049466D01*
X0050545Y0049362D01*
X0050611Y0049255D01*
X0050673Y0049147D01*
X0050732Y0049037D01*
X0050788Y0048925D01*
X0050840Y0048811D01*
X0050888Y0048696D01*
X0050933Y0048580D01*
X0050973Y0048461D01*
X0051011Y0048342D01*
X0051044Y0048222D01*
X0051073Y0048100D01*
X0051099Y0047978D01*
X0051121Y0047855D01*
X0051138Y0047731D01*
X0051152Y0047607D01*
X0051162Y0047483D01*
X0051168Y0047358D01*
X0051170Y0047233D01*
X0051168Y0047108D01*
X0051162Y0046983D01*
X0051152Y0046859D01*
X0051138Y0046735D01*
X0051121Y0046611D01*
X0051099Y0046488D01*
X0051073Y0046366D01*
X0051044Y0046244D01*
X0051011Y0046124D01*
X0050973Y0046005D01*
X0050933Y0045886D01*
X0050888Y0045770D01*
X0050840Y0045655D01*
X0050788Y0045541D01*
X0050732Y0045429D01*
X0050673Y0045319D01*
X0050611Y0045211D01*
X0050545Y0045104D01*
X0050476Y0045000D01*
X0050403Y0044899D01*
X0050328Y0044799D01*
X0050249Y0044702D01*
X0050167Y0044608D01*
X0050082Y0044516D01*
X0049995Y0044427D01*
X0049904Y0044341D01*
X0049811Y0044258D01*
X0049715Y0044177D01*
X0049617Y0044100D01*
X0049517Y0044026D01*
X0049414Y0043955D01*
X0049309Y0043888D01*
X0049201Y0043823D01*
X0049092Y0043763D01*
X0048981Y0043705D01*
X0048868Y0043652D01*
X0048754Y0043602D01*
X0048638Y0043555D01*
X0048521Y0043513D01*
X0048402Y0043474D01*
X0048282Y0043438D01*
X0048161Y0043407D01*
X0048039Y0043379D01*
X0047917Y0043356D01*
X0047793Y0043336D01*
X0047669Y0043320D01*
X0047545Y0043308D01*
X0047420Y0043300D01*
X0047295Y0043296D01*
X0047171Y0043296D01*
X0047046Y0043300D01*
X0046921Y0043308D01*
X0046797Y0043320D01*
X0046673Y0043336D01*
X0046549Y0043356D01*
X0046427Y0043379D01*
X0046305Y0043407D01*
X0046184Y0043438D01*
X0046064Y0043474D01*
X0045945Y0043513D01*
X0045828Y0043555D01*
X0045712Y0043602D01*
X0045598Y0043652D01*
X0045485Y0043705D01*
X0045374Y0043763D01*
X0045264Y0043823D01*
X0045157Y0043888D01*
X0045052Y0043955D01*
X0044949Y0044026D01*
X0044849Y0044100D01*
X0044751Y0044177D01*
X0044655Y0044258D01*
X0044562Y0044341D01*
X0044471Y0044427D01*
X0044384Y0044516D01*
X0044299Y0044608D01*
X0044217Y0044702D01*
X0044138Y0044799D01*
X0044063Y0044899D01*
X0043990Y0045000D01*
X0043921Y0045104D01*
X0043855Y0045211D01*
X0043793Y0045319D01*
X0043734Y0045429D01*
X0043678Y0045541D01*
X0043626Y0045655D01*
X0043578Y0045770D01*
X0043533Y0045886D01*
X0043493Y0046005D01*
X0043455Y0046124D01*
X0043422Y0046244D01*
X0043393Y0046366D01*
X0043367Y0046488D01*
X0043345Y0046611D01*
X0043328Y0046735D01*
X0043314Y0046859D01*
X0043304Y0046983D01*
X0043298Y0047108D01*
X0043296Y0047233D01*
X0037233Y0047233D02*
X0037236Y0046991D01*
X0037245Y0046750D01*
X0037259Y0046509D01*
X0037280Y0046268D01*
X0037306Y0046028D01*
X0037338Y0045788D01*
X0037376Y0045549D01*
X0037419Y0045312D01*
X0037469Y0045075D01*
X0037524Y0044840D01*
X0037584Y0044606D01*
X0037651Y0044374D01*
X0037722Y0044143D01*
X0037800Y0043914D01*
X0037883Y0043687D01*
X0037971Y0043462D01*
X0038065Y0043239D01*
X0038164Y0043019D01*
X0038269Y0042801D01*
X0038378Y0042586D01*
X0038493Y0042373D01*
X0038613Y0042163D01*
X0038738Y0041957D01*
X0038868Y0041753D01*
X0039003Y0041552D01*
X0039143Y0041355D01*
X0039287Y0041161D01*
X0039436Y0040971D01*
X0039590Y0040785D01*
X0039748Y0040602D01*
X0039910Y0040423D01*
X0040077Y0040248D01*
X0040248Y0040077D01*
X0040423Y0039910D01*
X0040602Y0039748D01*
X0040785Y0039590D01*
X0040971Y0039436D01*
X0041161Y0039287D01*
X0041355Y0039143D01*
X0041552Y0039003D01*
X0041753Y0038868D01*
X0041957Y0038738D01*
X0042163Y0038613D01*
X0042373Y0038493D01*
X0042586Y0038378D01*
X0042801Y0038269D01*
X0043019Y0038164D01*
X0043239Y0038065D01*
X0043462Y0037971D01*
X0043687Y0037883D01*
X0043914Y0037800D01*
X0044143Y0037722D01*
X0044374Y0037651D01*
X0044606Y0037584D01*
X0044840Y0037524D01*
X0045075Y0037469D01*
X0045312Y0037419D01*
X0045549Y0037376D01*
X0045788Y0037338D01*
X0046028Y0037306D01*
X0046268Y0037280D01*
X0046509Y0037259D01*
X0046750Y0037245D01*
X0046991Y0037236D01*
X0047233Y0037233D01*
X0043796Y0224733D02*
X0043798Y0224858D01*
X0043804Y0224983D01*
X0043814Y0225107D01*
X0043828Y0225231D01*
X0043845Y0225355D01*
X0043867Y0225478D01*
X0043893Y0225600D01*
X0043922Y0225722D01*
X0043955Y0225842D01*
X0043993Y0225961D01*
X0044033Y0226080D01*
X0044078Y0226196D01*
X0044126Y0226311D01*
X0044178Y0226425D01*
X0044234Y0226537D01*
X0044293Y0226647D01*
X0044355Y0226755D01*
X0044421Y0226862D01*
X0044490Y0226966D01*
X0044563Y0227067D01*
X0044638Y0227167D01*
X0044717Y0227264D01*
X0044799Y0227358D01*
X0044884Y0227450D01*
X0044971Y0227539D01*
X0045062Y0227625D01*
X0045155Y0227708D01*
X0045251Y0227789D01*
X0045349Y0227866D01*
X0045449Y0227940D01*
X0045552Y0228011D01*
X0045657Y0228078D01*
X0045765Y0228143D01*
X0045874Y0228203D01*
X0045985Y0228261D01*
X0046098Y0228314D01*
X0046212Y0228364D01*
X0046328Y0228411D01*
X0046445Y0228453D01*
X0046564Y0228492D01*
X0046684Y0228528D01*
X0046805Y0228559D01*
X0046927Y0228587D01*
X0047049Y0228610D01*
X0047173Y0228630D01*
X0047297Y0228646D01*
X0047421Y0228658D01*
X0047546Y0228666D01*
X0047671Y0228670D01*
X0047795Y0228670D01*
X0047920Y0228666D01*
X0048045Y0228658D01*
X0048169Y0228646D01*
X0048293Y0228630D01*
X0048417Y0228610D01*
X0048539Y0228587D01*
X0048661Y0228559D01*
X0048782Y0228528D01*
X0048902Y0228492D01*
X0049021Y0228453D01*
X0049138Y0228411D01*
X0049254Y0228364D01*
X0049368Y0228314D01*
X0049481Y0228261D01*
X0049592Y0228203D01*
X0049702Y0228143D01*
X0049809Y0228078D01*
X0049914Y0228011D01*
X0050017Y0227940D01*
X0050117Y0227866D01*
X0050215Y0227789D01*
X0050311Y0227708D01*
X0050404Y0227625D01*
X0050495Y0227539D01*
X0050582Y0227450D01*
X0050667Y0227358D01*
X0050749Y0227264D01*
X0050828Y0227167D01*
X0050903Y0227067D01*
X0050976Y0226966D01*
X0051045Y0226862D01*
X0051111Y0226755D01*
X0051173Y0226647D01*
X0051232Y0226537D01*
X0051288Y0226425D01*
X0051340Y0226311D01*
X0051388Y0226196D01*
X0051433Y0226080D01*
X0051473Y0225961D01*
X0051511Y0225842D01*
X0051544Y0225722D01*
X0051573Y0225600D01*
X0051599Y0225478D01*
X0051621Y0225355D01*
X0051638Y0225231D01*
X0051652Y0225107D01*
X0051662Y0224983D01*
X0051668Y0224858D01*
X0051670Y0224733D01*
X0051668Y0224608D01*
X0051662Y0224483D01*
X0051652Y0224359D01*
X0051638Y0224235D01*
X0051621Y0224111D01*
X0051599Y0223988D01*
X0051573Y0223866D01*
X0051544Y0223744D01*
X0051511Y0223624D01*
X0051473Y0223505D01*
X0051433Y0223386D01*
X0051388Y0223270D01*
X0051340Y0223155D01*
X0051288Y0223041D01*
X0051232Y0222929D01*
X0051173Y0222819D01*
X0051111Y0222711D01*
X0051045Y0222604D01*
X0050976Y0222500D01*
X0050903Y0222399D01*
X0050828Y0222299D01*
X0050749Y0222202D01*
X0050667Y0222108D01*
X0050582Y0222016D01*
X0050495Y0221927D01*
X0050404Y0221841D01*
X0050311Y0221758D01*
X0050215Y0221677D01*
X0050117Y0221600D01*
X0050017Y0221526D01*
X0049914Y0221455D01*
X0049809Y0221388D01*
X0049701Y0221323D01*
X0049592Y0221263D01*
X0049481Y0221205D01*
X0049368Y0221152D01*
X0049254Y0221102D01*
X0049138Y0221055D01*
X0049021Y0221013D01*
X0048902Y0220974D01*
X0048782Y0220938D01*
X0048661Y0220907D01*
X0048539Y0220879D01*
X0048417Y0220856D01*
X0048293Y0220836D01*
X0048169Y0220820D01*
X0048045Y0220808D01*
X0047920Y0220800D01*
X0047795Y0220796D01*
X0047671Y0220796D01*
X0047546Y0220800D01*
X0047421Y0220808D01*
X0047297Y0220820D01*
X0047173Y0220836D01*
X0047049Y0220856D01*
X0046927Y0220879D01*
X0046805Y0220907D01*
X0046684Y0220938D01*
X0046564Y0220974D01*
X0046445Y0221013D01*
X0046328Y0221055D01*
X0046212Y0221102D01*
X0046098Y0221152D01*
X0045985Y0221205D01*
X0045874Y0221263D01*
X0045764Y0221323D01*
X0045657Y0221388D01*
X0045552Y0221455D01*
X0045449Y0221526D01*
X0045349Y0221600D01*
X0045251Y0221677D01*
X0045155Y0221758D01*
X0045062Y0221841D01*
X0044971Y0221927D01*
X0044884Y0222016D01*
X0044799Y0222108D01*
X0044717Y0222202D01*
X0044638Y0222299D01*
X0044563Y0222399D01*
X0044490Y0222500D01*
X0044421Y0222604D01*
X0044355Y0222711D01*
X0044293Y0222819D01*
X0044234Y0222929D01*
X0044178Y0223041D01*
X0044126Y0223155D01*
X0044078Y0223270D01*
X0044033Y0223386D01*
X0043993Y0223505D01*
X0043955Y0223624D01*
X0043922Y0223744D01*
X0043893Y0223866D01*
X0043867Y0223988D01*
X0043845Y0224111D01*
X0043828Y0224235D01*
X0043814Y0224359D01*
X0043804Y0224483D01*
X0043798Y0224608D01*
X0043796Y0224733D01*
D11*
X0129389Y0182233D02*
X0134589Y0182233D01*
X0134589Y0172233D02*
X0129389Y0172233D01*
X0129389Y0162233D02*
X0134589Y0162233D01*
X0134589Y0152233D02*
X0129389Y0152233D01*
X0129389Y0142233D02*
X0134589Y0142233D01*
X0134589Y0132233D02*
X0129389Y0132233D01*
X0129389Y0122233D02*
X0134589Y0122233D01*
X0134589Y0112233D02*
X0129389Y0112233D01*
X0129389Y0102233D02*
X0134589Y0102233D01*
X0134589Y0092233D02*
X0129389Y0092233D01*
X0129389Y0082233D02*
X0134589Y0082233D01*
X0134589Y0072233D02*
X0129389Y0072233D01*
X0129389Y0062233D02*
X0134589Y0062233D01*
X0134589Y0052233D02*
X0129389Y0052233D01*
X0159389Y0052233D02*
X0164589Y0052233D01*
X0164589Y0062233D02*
X0159389Y0062233D01*
X0159389Y0072233D02*
X0164589Y0072233D01*
X0164589Y0082233D02*
X0159389Y0082233D01*
X0159389Y0092233D02*
X0164589Y0092233D01*
X0164589Y0102233D02*
X0159389Y0102233D01*
X0159389Y0112233D02*
X0164589Y0112233D01*
X0164589Y0122233D02*
X0159389Y0122233D01*
X0159389Y0132233D02*
X0164589Y0132233D01*
X0164589Y0142233D02*
X0159389Y0142233D01*
X0159389Y0152233D02*
X0164589Y0152233D01*
X0164589Y0162233D02*
X0159389Y0162233D01*
X0159389Y0172233D02*
X0164589Y0172233D01*
X0164589Y0182233D02*
X0159389Y0182233D01*
D12*
X0096973Y0157843D03*
X0096973Y0137843D03*
X0046973Y0155580D03*
X0046973Y0175580D03*
X0046855Y0198650D03*
X0066855Y0198650D03*
X0046993Y0109324D03*
X0046993Y0089324D03*
D13*
X0043272Y0073296D03*
X0053272Y0073296D03*
X0053784Y0063115D03*
X0043784Y0063115D03*
D14*
X0077406Y0053217D03*
X0077406Y0073217D03*
D15*
X0100733Y0077233D03*
X0101233Y0067233D03*
X0110733Y0056733D03*
X0110733Y0046733D03*
X0103233Y0098733D03*
X0087733Y0097733D03*
X0087733Y0107733D03*
X0086225Y0128532D03*
X0074414Y0128532D03*
X0056343Y0131209D03*
X0056343Y0141209D03*
X0056343Y0121209D03*
X0074414Y0158532D03*
X0086225Y0158532D03*
X0094611Y0172981D03*
X0094611Y0182981D03*
X0094611Y0192981D03*
X0093115Y0212036D03*
X0093115Y0222036D03*
X0126733Y0219733D03*
X0126733Y0209733D03*
X0127328Y0199792D03*
X0156733Y0209733D03*
X0157328Y0199792D03*
X0170733Y0192233D03*
X0196635Y0196772D03*
X0196635Y0186772D03*
X0196635Y0176772D03*
X0195981Y0161918D03*
X0195981Y0151918D03*
X0195981Y0141918D03*
X0195981Y0131918D03*
X0195981Y0121918D03*
X0195981Y0111918D03*
X0215733Y0102233D03*
X0225733Y0102233D03*
X0221461Y0084477D03*
X0221461Y0072666D03*
X0221461Y0060855D03*
X0221461Y0049044D03*
X0191461Y0049044D03*
X0191461Y0060855D03*
X0191461Y0072666D03*
X0191461Y0084477D03*
X0178902Y0082981D03*
X0178902Y0072981D03*
X0178902Y0062981D03*
X0215733Y0132233D03*
X0225733Y0132233D03*
X0196635Y0206772D03*
X0196635Y0216772D03*
X0196635Y0226772D03*
X0156733Y0219733D03*
X0110733Y0152233D03*
X0110733Y0142233D03*
X0103233Y0128733D03*
D16*
X0178902Y0052981D03*
D17*
X0041435Y0041435D02*
X0039927Y0043510D01*
X0039134Y0045950D01*
X0039033Y0047233D01*
X0039033Y0071030D01*
X0041367Y0068696D01*
X0043272Y0068696D01*
X0043272Y0073296D01*
X0043272Y0073296D01*
X0043272Y0077896D01*
X0041367Y0077896D01*
X0039033Y0075562D01*
X0039033Y0224083D01*
X0039134Y0225366D01*
X0039927Y0227806D01*
X0041435Y0229882D01*
X0043510Y0231390D01*
X0045950Y0232183D01*
X0047233Y0232283D01*
X0224083Y0232283D01*
X0225366Y0232183D01*
X0227806Y0231390D01*
X0229882Y0229882D01*
X0231390Y0227806D01*
X0232183Y0225366D01*
X0232283Y0224083D01*
X0232283Y0047233D01*
X0232183Y0045950D01*
X0231390Y0043510D01*
X0229882Y0041435D01*
X0227806Y0039927D01*
X0225366Y0039134D01*
X0224083Y0039033D01*
X0047233Y0039033D01*
X0045950Y0039134D01*
X0043510Y0039927D01*
X0041435Y0041435D01*
X0041003Y0042029D02*
X0044806Y0042029D01*
X0043983Y0042369D02*
X0046092Y0041496D01*
X0048374Y0041496D01*
X0050483Y0042369D01*
X0052097Y0043983D01*
X0052970Y0046092D01*
X0052970Y0048374D01*
X0052097Y0050483D01*
X0050483Y0052097D01*
X0048374Y0052970D01*
X0046092Y0052970D01*
X0043983Y0052097D01*
X0042369Y0050483D01*
X0041496Y0048374D01*
X0041496Y0046092D01*
X0042369Y0043983D01*
X0043983Y0042369D01*
X0042726Y0043627D02*
X0039889Y0043627D01*
X0039369Y0045226D02*
X0041855Y0045226D01*
X0041496Y0046824D02*
X0039065Y0046824D01*
X0039033Y0048423D02*
X0041516Y0048423D01*
X0042178Y0050021D02*
X0039033Y0050021D01*
X0039033Y0051620D02*
X0043506Y0051620D01*
X0039033Y0053218D02*
X0072756Y0053218D01*
X0072756Y0054142D02*
X0072756Y0052292D01*
X0073464Y0050583D01*
X0074772Y0049275D01*
X0076481Y0048567D01*
X0078331Y0048567D01*
X0080040Y0049275D01*
X0081348Y0050583D01*
X0082056Y0052292D01*
X0082056Y0054142D01*
X0081348Y0055851D01*
X0080040Y0057159D01*
X0078331Y0057867D01*
X0076481Y0057867D01*
X0074772Y0057159D01*
X0073464Y0055851D01*
X0072756Y0054142D01*
X0073036Y0054817D02*
X0039033Y0054817D01*
X0039033Y0056415D02*
X0074028Y0056415D01*
X0073035Y0051620D02*
X0050960Y0051620D01*
X0052288Y0050021D02*
X0074026Y0050021D01*
X0080786Y0050021D02*
X0106809Y0050021D01*
X0106409Y0049622D02*
X0105633Y0047748D01*
X0105633Y0045719D01*
X0106409Y0043844D01*
X0107844Y0042409D01*
X0109719Y0041633D01*
X0111748Y0041633D01*
X0113622Y0042409D01*
X0115057Y0043844D01*
X0115833Y0045719D01*
X0115833Y0047748D01*
X0115057Y0049622D01*
X0113622Y0051057D01*
X0111989Y0051733D01*
X0113622Y0052409D01*
X0115057Y0053844D01*
X0115833Y0055719D01*
X0115833Y0057748D01*
X0115057Y0059622D01*
X0113622Y0061057D01*
X0111748Y0061833D01*
X0109719Y0061833D01*
X0107844Y0061057D01*
X0106409Y0059622D01*
X0105633Y0057748D01*
X0105633Y0055719D01*
X0106409Y0053844D01*
X0107844Y0052409D01*
X0109477Y0051733D01*
X0107844Y0051057D01*
X0106409Y0049622D01*
X0105913Y0048423D02*
X0052950Y0048423D01*
X0052970Y0046824D02*
X0105633Y0046824D01*
X0105837Y0045226D02*
X0052611Y0045226D01*
X0051740Y0043627D02*
X0106627Y0043627D01*
X0108764Y0042029D02*
X0049660Y0042029D01*
X0042818Y0040430D02*
X0228499Y0040430D01*
X0230313Y0042029D02*
X0112702Y0042029D01*
X0114840Y0043627D02*
X0231428Y0043627D01*
X0231947Y0045226D02*
X0224855Y0045226D01*
X0224350Y0044721D02*
X0225785Y0046155D01*
X0226561Y0048030D01*
X0226561Y0050059D01*
X0225785Y0051933D01*
X0224350Y0053368D01*
X0222476Y0054144D01*
X0220447Y0054144D01*
X0218572Y0053368D01*
X0217138Y0051933D01*
X0216361Y0050059D01*
X0216361Y0048030D01*
X0217138Y0046155D01*
X0218572Y0044721D01*
X0220447Y0043944D01*
X0222476Y0043944D01*
X0224350Y0044721D01*
X0226062Y0046824D02*
X0232251Y0046824D01*
X0232283Y0048423D02*
X0226561Y0048423D01*
X0226561Y0050021D02*
X0232283Y0050021D01*
X0232283Y0051620D02*
X0225915Y0051620D01*
X0224500Y0053218D02*
X0232283Y0053218D01*
X0232283Y0054817D02*
X0184002Y0054817D01*
X0184002Y0056415D02*
X0188853Y0056415D01*
X0188572Y0056532D02*
X0190447Y0055755D01*
X0192476Y0055755D01*
X0194350Y0056532D01*
X0195785Y0057966D01*
X0196561Y0059841D01*
X0196561Y0061870D01*
X0195785Y0063744D01*
X0194350Y0065179D01*
X0192476Y0065955D01*
X0190447Y0065955D01*
X0188572Y0065179D01*
X0187138Y0063744D01*
X0186361Y0061870D01*
X0186361Y0059841D01*
X0187138Y0057966D01*
X0188572Y0056532D01*
X0187118Y0058014D02*
X0183250Y0058014D01*
X0183182Y0058081D02*
X0180400Y0058081D01*
X0181791Y0058658D01*
X0183226Y0060092D01*
X0184002Y0061967D01*
X0184002Y0063996D01*
X0183226Y0065870D01*
X0181791Y0067305D01*
X0180158Y0067981D01*
X0181791Y0068658D01*
X0183226Y0070092D01*
X0184002Y0071967D01*
X0184002Y0073996D01*
X0183226Y0075870D01*
X0181791Y0077305D01*
X0180158Y0077981D01*
X0181791Y0078658D01*
X0183226Y0080092D01*
X0184002Y0081967D01*
X0184002Y0083996D01*
X0183226Y0085870D01*
X0181791Y0087305D01*
X0179917Y0088081D01*
X0177888Y0088081D01*
X0176013Y0087305D01*
X0174579Y0085870D01*
X0173802Y0083996D01*
X0173802Y0081967D01*
X0174579Y0080092D01*
X0176013Y0078658D01*
X0177647Y0077981D01*
X0176013Y0077305D01*
X0174579Y0075870D01*
X0173802Y0073996D01*
X0173802Y0071967D01*
X0174579Y0070092D01*
X0176013Y0068658D01*
X0177647Y0067981D01*
X0176013Y0067305D01*
X0174579Y0065870D01*
X0173802Y0063996D01*
X0173802Y0061967D01*
X0174579Y0060092D01*
X0176013Y0058658D01*
X0177405Y0058081D01*
X0174622Y0058081D01*
X0173802Y0057261D01*
X0173802Y0048701D01*
X0174622Y0047881D01*
X0183182Y0047881D01*
X0184002Y0048701D01*
X0184002Y0057261D01*
X0183182Y0058081D01*
X0182746Y0059612D02*
X0186456Y0059612D01*
X0186361Y0061211D02*
X0183689Y0061211D01*
X0184002Y0062809D02*
X0186751Y0062809D01*
X0187802Y0064408D02*
X0183832Y0064408D01*
X0183090Y0066006D02*
X0232283Y0066006D01*
X0232283Y0064408D02*
X0225121Y0064408D01*
X0225785Y0063744D02*
X0224350Y0065179D01*
X0222476Y0065955D01*
X0220447Y0065955D01*
X0218572Y0065179D01*
X0217138Y0063744D01*
X0216361Y0061870D01*
X0216361Y0059841D01*
X0217138Y0057966D01*
X0218572Y0056532D01*
X0220447Y0055755D01*
X0222476Y0055755D01*
X0224350Y0056532D01*
X0225785Y0057966D01*
X0226561Y0059841D01*
X0226561Y0061870D01*
X0225785Y0063744D01*
X0226172Y0062809D02*
X0232283Y0062809D01*
X0232283Y0061211D02*
X0226561Y0061211D01*
X0226467Y0059612D02*
X0232283Y0059612D01*
X0232283Y0058014D02*
X0225805Y0058014D01*
X0224069Y0056415D02*
X0232283Y0056415D01*
X0232283Y0067605D02*
X0222569Y0067605D01*
X0222476Y0067566D02*
X0224350Y0068343D01*
X0225785Y0069777D01*
X0226561Y0071652D01*
X0226561Y0073681D01*
X0225785Y0075555D01*
X0224350Y0076990D01*
X0222476Y0077766D01*
X0220447Y0077766D01*
X0218572Y0076990D01*
X0217138Y0075555D01*
X0216361Y0073681D01*
X0216361Y0071652D01*
X0217138Y0069777D01*
X0218572Y0068343D01*
X0220447Y0067566D01*
X0222476Y0067566D01*
X0220354Y0067605D02*
X0192569Y0067605D01*
X0192476Y0067566D02*
X0194350Y0068343D01*
X0195785Y0069777D01*
X0196561Y0071652D01*
X0196561Y0073681D01*
X0195785Y0075555D01*
X0194350Y0076990D01*
X0192476Y0077766D01*
X0190447Y0077766D01*
X0188572Y0076990D01*
X0187138Y0075555D01*
X0186361Y0073681D01*
X0186361Y0071652D01*
X0187138Y0069777D01*
X0188572Y0068343D01*
X0190447Y0067566D01*
X0192476Y0067566D01*
X0190354Y0067605D02*
X0181067Y0067605D01*
X0182337Y0069203D02*
X0187712Y0069203D01*
X0186713Y0070802D02*
X0183520Y0070802D01*
X0184002Y0072400D02*
X0186361Y0072400D01*
X0186493Y0073999D02*
X0184001Y0073999D01*
X0183339Y0075597D02*
X0187180Y0075597D01*
X0189070Y0077196D02*
X0181900Y0077196D01*
X0181928Y0078794D02*
X0232283Y0078794D01*
X0232283Y0077196D02*
X0223853Y0077196D01*
X0225743Y0075597D02*
X0232283Y0075597D01*
X0232283Y0073999D02*
X0226430Y0073999D01*
X0226561Y0072400D02*
X0232283Y0072400D01*
X0232283Y0070802D02*
X0226209Y0070802D01*
X0225211Y0069203D02*
X0232283Y0069203D01*
X0224350Y0080154D02*
X0222476Y0079377D01*
X0220447Y0079377D01*
X0218572Y0080154D01*
X0217138Y0081588D01*
X0216361Y0083463D01*
X0216361Y0085492D01*
X0217138Y0087366D01*
X0218572Y0088801D01*
X0220447Y0089577D01*
X0222476Y0089577D01*
X0224350Y0088801D01*
X0225785Y0087366D01*
X0226561Y0085492D01*
X0226561Y0083463D01*
X0225785Y0081588D01*
X0224350Y0080154D01*
X0224590Y0080393D02*
X0232283Y0080393D01*
X0232283Y0081991D02*
X0225952Y0081991D01*
X0226561Y0083590D02*
X0232283Y0083590D01*
X0232283Y0085188D02*
X0226561Y0085188D01*
X0226025Y0086787D02*
X0232283Y0086787D01*
X0232283Y0088385D02*
X0224766Y0088385D01*
X0218157Y0088385D02*
X0194766Y0088385D01*
X0194350Y0088801D02*
X0192476Y0089577D01*
X0190447Y0089577D01*
X0188572Y0088801D01*
X0187138Y0087366D01*
X0186361Y0085492D01*
X0186361Y0083463D01*
X0187138Y0081588D01*
X0188572Y0080154D01*
X0190447Y0079377D01*
X0192476Y0079377D01*
X0194350Y0080154D01*
X0195785Y0081588D01*
X0196561Y0083463D01*
X0196561Y0085492D01*
X0195785Y0087366D01*
X0194350Y0088801D01*
X0196025Y0086787D02*
X0216898Y0086787D01*
X0216361Y0085188D02*
X0196561Y0085188D01*
X0196561Y0083590D02*
X0216361Y0083590D01*
X0216971Y0081991D02*
X0195952Y0081991D01*
X0194590Y0080393D02*
X0218333Y0080393D01*
X0219070Y0077196D02*
X0193853Y0077196D01*
X0195743Y0075597D02*
X0217180Y0075597D01*
X0216493Y0073999D02*
X0196430Y0073999D01*
X0196561Y0072400D02*
X0216361Y0072400D01*
X0216713Y0070802D02*
X0196209Y0070802D01*
X0195211Y0069203D02*
X0217712Y0069203D01*
X0217802Y0064408D02*
X0195121Y0064408D01*
X0196172Y0062809D02*
X0216751Y0062809D01*
X0216361Y0061211D02*
X0196561Y0061211D01*
X0196467Y0059612D02*
X0216456Y0059612D01*
X0217118Y0058014D02*
X0195805Y0058014D01*
X0194069Y0056415D02*
X0218853Y0056415D01*
X0218423Y0053218D02*
X0194500Y0053218D01*
X0194350Y0053368D02*
X0192476Y0054144D01*
X0190447Y0054144D01*
X0188572Y0053368D01*
X0187138Y0051933D01*
X0186361Y0050059D01*
X0186361Y0048030D01*
X0187138Y0046155D01*
X0188572Y0044721D01*
X0190447Y0043944D01*
X0192476Y0043944D01*
X0194350Y0044721D01*
X0195785Y0046155D01*
X0196561Y0048030D01*
X0196561Y0050059D01*
X0195785Y0051933D01*
X0194350Y0053368D01*
X0195915Y0051620D02*
X0217008Y0051620D01*
X0216361Y0050021D02*
X0196561Y0050021D01*
X0196561Y0048423D02*
X0216361Y0048423D01*
X0216861Y0046824D02*
X0196062Y0046824D01*
X0194855Y0045226D02*
X0218067Y0045226D01*
X0188067Y0045226D02*
X0115629Y0045226D01*
X0115833Y0046824D02*
X0186861Y0046824D01*
X0186361Y0048423D02*
X0183724Y0048423D01*
X0184002Y0050021D02*
X0186361Y0050021D01*
X0187008Y0051620D02*
X0184002Y0051620D01*
X0184002Y0053218D02*
X0188423Y0053218D01*
X0173802Y0053218D02*
X0168510Y0053218D01*
X0168589Y0053029D02*
X0167980Y0054499D01*
X0166855Y0055624D01*
X0165385Y0056233D01*
X0158593Y0056233D01*
X0157123Y0055624D01*
X0155998Y0054499D01*
X0155389Y0053029D01*
X0155389Y0051437D01*
X0155998Y0049967D01*
X0157123Y0048842D01*
X0158593Y0048233D01*
X0165385Y0048233D01*
X0166855Y0048842D01*
X0167980Y0049967D01*
X0168589Y0051437D01*
X0168589Y0053029D01*
X0168589Y0051620D02*
X0173802Y0051620D01*
X0173802Y0050021D02*
X0168002Y0050021D01*
X0165842Y0048423D02*
X0174081Y0048423D01*
X0173802Y0054817D02*
X0167662Y0054817D01*
X0165385Y0058233D02*
X0166855Y0058842D01*
X0167980Y0059967D01*
X0168589Y0061437D01*
X0168589Y0063029D01*
X0167980Y0064499D01*
X0166855Y0065624D01*
X0165385Y0066233D01*
X0158593Y0066233D01*
X0157123Y0065624D01*
X0155998Y0064499D01*
X0155389Y0063029D01*
X0155389Y0061437D01*
X0155998Y0059967D01*
X0157123Y0058842D01*
X0158593Y0058233D01*
X0165385Y0058233D01*
X0167625Y0059612D02*
X0175059Y0059612D01*
X0174555Y0058014D02*
X0115723Y0058014D01*
X0115833Y0056415D02*
X0173802Y0056415D01*
X0174115Y0061211D02*
X0168495Y0061211D01*
X0168589Y0062809D02*
X0173802Y0062809D01*
X0173973Y0064408D02*
X0168018Y0064408D01*
X0165932Y0066006D02*
X0174715Y0066006D01*
X0176738Y0067605D02*
X0106333Y0067605D01*
X0106333Y0068248D02*
X0105557Y0070122D01*
X0104122Y0071557D01*
X0102248Y0072333D01*
X0102230Y0072333D01*
X0103622Y0072909D01*
X0105057Y0074344D01*
X0105833Y0076219D01*
X0105833Y0078248D01*
X0105057Y0080122D01*
X0103622Y0081557D01*
X0101748Y0082333D01*
X0099719Y0082333D01*
X0097844Y0081557D01*
X0096409Y0080122D01*
X0095633Y0078248D01*
X0095633Y0076219D01*
X0096409Y0074344D01*
X0097844Y0072909D01*
X0099719Y0072133D01*
X0099736Y0072133D01*
X0098344Y0071557D01*
X0096909Y0070122D01*
X0096133Y0068248D01*
X0096133Y0066219D01*
X0096909Y0064344D01*
X0098344Y0062909D01*
X0100219Y0062133D01*
X0102248Y0062133D01*
X0104122Y0062909D01*
X0105557Y0064344D01*
X0106333Y0066219D01*
X0106333Y0068248D01*
X0105937Y0069203D02*
X0126762Y0069203D01*
X0127123Y0068842D02*
X0128593Y0068233D01*
X0135385Y0068233D01*
X0136855Y0068842D01*
X0137980Y0069967D01*
X0138589Y0071437D01*
X0138589Y0073029D01*
X0137980Y0074499D01*
X0136855Y0075624D01*
X0135385Y0076233D01*
X0128593Y0076233D01*
X0127123Y0075624D01*
X0125998Y0074499D01*
X0125389Y0073029D01*
X0125389Y0071437D01*
X0125998Y0069967D01*
X0127123Y0068842D01*
X0125652Y0070802D02*
X0104877Y0070802D01*
X0102393Y0072400D02*
X0125389Y0072400D01*
X0125791Y0073999D02*
X0104711Y0073999D01*
X0105576Y0075597D02*
X0127096Y0075597D01*
X0128593Y0078233D02*
X0135385Y0078233D01*
X0136855Y0078842D01*
X0137980Y0079967D01*
X0138589Y0081437D01*
X0138589Y0083029D01*
X0137980Y0084499D01*
X0136855Y0085624D01*
X0135385Y0086233D01*
X0128593Y0086233D01*
X0127123Y0085624D01*
X0125998Y0084499D01*
X0125389Y0083029D01*
X0125389Y0081437D01*
X0125998Y0079967D01*
X0127123Y0078842D01*
X0128593Y0078233D01*
X0127238Y0078794D02*
X0105607Y0078794D01*
X0105833Y0077196D02*
X0175905Y0077196D01*
X0175877Y0078794D02*
X0166740Y0078794D01*
X0166855Y0078842D02*
X0167980Y0079967D01*
X0168589Y0081437D01*
X0168589Y0083029D01*
X0167980Y0084499D01*
X0166855Y0085624D01*
X0165385Y0086233D01*
X0158593Y0086233D01*
X0157123Y0085624D01*
X0155998Y0084499D01*
X0155389Y0083029D01*
X0155389Y0081437D01*
X0155998Y0079967D01*
X0157123Y0078842D01*
X0158593Y0078233D01*
X0165385Y0078233D01*
X0166855Y0078842D01*
X0168156Y0080393D02*
X0174454Y0080393D01*
X0173802Y0081991D02*
X0168589Y0081991D01*
X0168357Y0083590D02*
X0173802Y0083590D01*
X0174296Y0085188D02*
X0167290Y0085188D01*
X0165385Y0088233D02*
X0166855Y0088842D01*
X0167980Y0089967D01*
X0168589Y0091437D01*
X0168589Y0093029D01*
X0167980Y0094499D01*
X0166855Y0095624D01*
X0165385Y0096233D01*
X0158593Y0096233D01*
X0157123Y0095624D01*
X0155998Y0094499D01*
X0155389Y0093029D01*
X0155389Y0091437D01*
X0155998Y0089967D01*
X0157123Y0088842D01*
X0158593Y0088233D01*
X0165385Y0088233D01*
X0165752Y0088385D02*
X0188157Y0088385D01*
X0186898Y0086787D02*
X0182309Y0086787D01*
X0183508Y0085188D02*
X0186361Y0085188D01*
X0186361Y0083590D02*
X0184002Y0083590D01*
X0184002Y0081991D02*
X0186971Y0081991D01*
X0188333Y0080393D02*
X0183350Y0080393D01*
X0174466Y0075597D02*
X0166882Y0075597D01*
X0166855Y0075624D02*
X0165385Y0076233D01*
X0158593Y0076233D01*
X0157123Y0075624D01*
X0155998Y0074499D01*
X0155389Y0073029D01*
X0155389Y0071437D01*
X0155998Y0069967D01*
X0157123Y0068842D01*
X0158593Y0068233D01*
X0165385Y0068233D01*
X0166855Y0068842D01*
X0167980Y0069967D01*
X0168589Y0071437D01*
X0168589Y0073029D01*
X0167980Y0074499D01*
X0166855Y0075624D01*
X0168187Y0073999D02*
X0173804Y0073999D01*
X0173802Y0072400D02*
X0168589Y0072400D01*
X0168326Y0070802D02*
X0174285Y0070802D01*
X0175468Y0069203D02*
X0167216Y0069203D01*
X0158046Y0066006D02*
X0135932Y0066006D01*
X0135385Y0066233D02*
X0136855Y0065624D01*
X0137980Y0064499D01*
X0138589Y0063029D01*
X0138589Y0061437D01*
X0137980Y0059967D01*
X0136855Y0058842D01*
X0135385Y0058233D01*
X0128593Y0058233D01*
X0127123Y0058842D01*
X0125998Y0059967D01*
X0125389Y0061437D01*
X0125389Y0063029D01*
X0125998Y0064499D01*
X0127123Y0065624D01*
X0128593Y0066233D01*
X0135385Y0066233D01*
X0138018Y0064408D02*
X0155960Y0064408D01*
X0155389Y0062809D02*
X0138589Y0062809D01*
X0138495Y0061211D02*
X0155483Y0061211D01*
X0156353Y0059612D02*
X0137625Y0059612D01*
X0135385Y0056233D02*
X0136855Y0055624D01*
X0137980Y0054499D01*
X0138589Y0053029D01*
X0138589Y0051437D01*
X0137980Y0049967D01*
X0136855Y0048842D01*
X0135385Y0048233D01*
X0128593Y0048233D01*
X0127123Y0048842D01*
X0125998Y0049967D01*
X0125389Y0051437D01*
X0125389Y0053029D01*
X0125998Y0054499D01*
X0127123Y0055624D01*
X0128593Y0056233D01*
X0135385Y0056233D01*
X0137662Y0054817D02*
X0156316Y0054817D01*
X0155467Y0053218D02*
X0138510Y0053218D01*
X0138589Y0051620D02*
X0155389Y0051620D01*
X0155976Y0050021D02*
X0138002Y0050021D01*
X0135842Y0048423D02*
X0158136Y0048423D01*
X0156762Y0069203D02*
X0137216Y0069203D01*
X0138326Y0070802D02*
X0155652Y0070802D01*
X0155389Y0072400D02*
X0138589Y0072400D01*
X0138187Y0073999D02*
X0155791Y0073999D01*
X0157096Y0075597D02*
X0136882Y0075597D01*
X0136740Y0078794D02*
X0157238Y0078794D01*
X0155822Y0080393D02*
X0138156Y0080393D01*
X0138589Y0081991D02*
X0155389Y0081991D01*
X0155621Y0083590D02*
X0138357Y0083590D01*
X0137290Y0085188D02*
X0156687Y0085188D01*
X0158225Y0088385D02*
X0135752Y0088385D01*
X0135385Y0088233D02*
X0136855Y0088842D01*
X0137980Y0089967D01*
X0138589Y0091437D01*
X0138589Y0093029D01*
X0137980Y0094499D01*
X0136855Y0095624D01*
X0135385Y0096233D01*
X0128593Y0096233D01*
X0127123Y0095624D01*
X0125998Y0094499D01*
X0125389Y0093029D01*
X0125389Y0091437D01*
X0125998Y0089967D01*
X0127123Y0088842D01*
X0128593Y0088233D01*
X0135385Y0088233D01*
X0137987Y0089984D02*
X0155991Y0089984D01*
X0155389Y0091582D02*
X0138589Y0091582D01*
X0138526Y0093181D02*
X0155452Y0093181D01*
X0156279Y0094779D02*
X0137699Y0094779D01*
X0136855Y0098842D02*
X0137980Y0099967D01*
X0138589Y0101437D01*
X0138589Y0103029D01*
X0137980Y0104499D01*
X0136855Y0105624D01*
X0135385Y0106233D01*
X0128593Y0106233D01*
X0127123Y0105624D01*
X0125998Y0104499D01*
X0125389Y0103029D01*
X0125389Y0101437D01*
X0125998Y0099967D01*
X0127123Y0098842D01*
X0128593Y0098233D01*
X0135385Y0098233D01*
X0136855Y0098842D01*
X0137588Y0099575D02*
X0156390Y0099575D01*
X0155998Y0099967D02*
X0157123Y0098842D01*
X0158593Y0098233D01*
X0165385Y0098233D01*
X0166855Y0098842D01*
X0167980Y0099967D01*
X0168589Y0101437D01*
X0168589Y0103029D01*
X0167980Y0104499D01*
X0166855Y0105624D01*
X0165385Y0106233D01*
X0158593Y0106233D01*
X0157123Y0105624D01*
X0155998Y0104499D01*
X0155389Y0103029D01*
X0155389Y0101437D01*
X0155998Y0099967D01*
X0155498Y0101174D02*
X0138480Y0101174D01*
X0138589Y0102772D02*
X0155389Y0102772D01*
X0155945Y0104371D02*
X0138033Y0104371D01*
X0136022Y0105969D02*
X0157956Y0105969D01*
X0158593Y0108233D02*
X0165385Y0108233D01*
X0166855Y0108842D01*
X0167980Y0109967D01*
X0168589Y0111437D01*
X0168589Y0113029D01*
X0167980Y0114499D01*
X0166855Y0115624D01*
X0165385Y0116233D01*
X0158593Y0116233D01*
X0157123Y0115624D01*
X0155998Y0114499D01*
X0155389Y0113029D01*
X0155389Y0111437D01*
X0155998Y0109967D01*
X0157123Y0108842D01*
X0158593Y0108233D01*
X0156799Y0109166D02*
X0137745Y0109166D01*
X0137945Y0109367D02*
X0138352Y0109927D01*
X0138667Y0110544D01*
X0138881Y0111203D01*
X0138989Y0111887D01*
X0138989Y0112233D01*
X0131989Y0112233D01*
X0131989Y0107833D01*
X0134935Y0107833D01*
X0135619Y0107941D01*
X0136278Y0108155D01*
X0136895Y0108470D01*
X0137455Y0108877D01*
X0137945Y0109367D01*
X0138738Y0110765D02*
X0155668Y0110765D01*
X0155389Y0112363D02*
X0138989Y0112363D01*
X0138989Y0112233D02*
X0138989Y0112579D01*
X0138881Y0113263D01*
X0138667Y0113922D01*
X0138352Y0114539D01*
X0137945Y0115099D01*
X0137455Y0115589D01*
X0136895Y0115996D01*
X0136278Y0116311D01*
X0135619Y0116525D01*
X0134935Y0116633D01*
X0131989Y0116633D01*
X0131989Y0112233D01*
X0131989Y0112233D01*
X0131989Y0112233D01*
X0131989Y0107833D01*
X0129043Y0107833D01*
X0128359Y0107941D01*
X0127700Y0108155D01*
X0127083Y0108470D01*
X0126523Y0108877D01*
X0126033Y0109367D01*
X0125626Y0109927D01*
X0125311Y0110544D01*
X0125097Y0111203D01*
X0124989Y0111887D01*
X0124989Y0112233D01*
X0131989Y0112233D01*
X0138989Y0112233D01*
X0138646Y0113962D02*
X0155775Y0113962D01*
X0157059Y0115560D02*
X0137484Y0115560D01*
X0136650Y0118757D02*
X0156687Y0118757D01*
X0156523Y0118877D02*
X0157083Y0118470D01*
X0157700Y0118155D01*
X0158359Y0117941D01*
X0159043Y0117833D01*
X0161989Y0117833D01*
X0164935Y0117833D01*
X0165619Y0117941D01*
X0166278Y0118155D01*
X0166895Y0118470D01*
X0167455Y0118877D01*
X0167945Y0119367D01*
X0168352Y0119927D01*
X0168667Y0120544D01*
X0168881Y0121203D01*
X0168989Y0121887D01*
X0168989Y0122233D01*
X0161989Y0122233D01*
X0161989Y0117833D01*
X0161989Y0122233D01*
X0161989Y0122233D01*
X0161989Y0122233D01*
X0168989Y0122233D01*
X0168989Y0122579D01*
X0168881Y0123263D01*
X0168667Y0123922D01*
X0168352Y0124539D01*
X0167945Y0125099D01*
X0167455Y0125589D01*
X0166895Y0125996D01*
X0166278Y0126311D01*
X0165619Y0126525D01*
X0164935Y0126633D01*
X0161989Y0126633D01*
X0161989Y0122233D01*
X0154989Y0122233D01*
X0154989Y0121887D01*
X0155097Y0121203D01*
X0155311Y0120544D01*
X0155626Y0119927D01*
X0156033Y0119367D01*
X0156523Y0118877D01*
X0155407Y0120356D02*
X0138141Y0120356D01*
X0137980Y0119967D02*
X0138589Y0121437D01*
X0138589Y0123029D01*
X0137980Y0124499D01*
X0136855Y0125624D01*
X0135385Y0126233D01*
X0128593Y0126233D01*
X0127123Y0125624D01*
X0125998Y0124499D01*
X0125389Y0123029D01*
X0125389Y0121437D01*
X0125998Y0119967D01*
X0127123Y0118842D01*
X0128593Y0118233D01*
X0135385Y0118233D01*
X0136855Y0118842D01*
X0137980Y0119967D01*
X0138589Y0121954D02*
X0154989Y0121954D01*
X0154989Y0122233D02*
X0161989Y0122233D01*
X0161989Y0122233D01*
X0161989Y0122233D01*
X0161989Y0126633D01*
X0159043Y0126633D01*
X0158359Y0126525D01*
X0157700Y0126311D01*
X0157083Y0125996D01*
X0156523Y0125589D01*
X0156033Y0125099D01*
X0155626Y0124539D01*
X0155311Y0123922D01*
X0155097Y0123263D01*
X0154989Y0122579D01*
X0154989Y0122233D01*
X0155191Y0123553D02*
X0138372Y0123553D01*
X0137328Y0125151D02*
X0156085Y0125151D01*
X0157123Y0128842D02*
X0158593Y0128233D01*
X0165385Y0128233D01*
X0166855Y0128842D01*
X0167980Y0129967D01*
X0168589Y0131437D01*
X0168589Y0133029D01*
X0167980Y0134499D01*
X0166855Y0135624D01*
X0165385Y0136233D01*
X0158593Y0136233D01*
X0157123Y0135624D01*
X0155998Y0134499D01*
X0155389Y0133029D01*
X0155389Y0131437D01*
X0155998Y0129967D01*
X0157123Y0128842D01*
X0158315Y0128348D02*
X0135663Y0128348D01*
X0135385Y0128233D02*
X0136855Y0128842D01*
X0137980Y0129967D01*
X0138589Y0131437D01*
X0138589Y0133029D01*
X0137980Y0134499D01*
X0136855Y0135624D01*
X0135385Y0136233D01*
X0128593Y0136233D01*
X0127123Y0135624D01*
X0125998Y0134499D01*
X0125389Y0133029D01*
X0125389Y0131437D01*
X0125998Y0129967D01*
X0127123Y0128842D01*
X0128593Y0128233D01*
X0135385Y0128233D01*
X0137959Y0129947D02*
X0156018Y0129947D01*
X0155389Y0131545D02*
X0138589Y0131545D01*
X0138541Y0133144D02*
X0155437Y0133144D01*
X0156241Y0134742D02*
X0137737Y0134742D01*
X0136855Y0138842D02*
X0137980Y0139967D01*
X0138589Y0141437D01*
X0138589Y0143029D01*
X0137980Y0144499D01*
X0136855Y0145624D01*
X0135385Y0146233D01*
X0128593Y0146233D01*
X0127123Y0145624D01*
X0125998Y0144499D01*
X0125389Y0143029D01*
X0125389Y0141437D01*
X0125998Y0139967D01*
X0127123Y0138842D01*
X0128593Y0138233D01*
X0135385Y0138233D01*
X0136855Y0138842D01*
X0137551Y0139538D02*
X0156427Y0139538D01*
X0155998Y0139967D02*
X0157123Y0138842D01*
X0158593Y0138233D01*
X0165385Y0138233D01*
X0166855Y0138842D01*
X0167980Y0139967D01*
X0168589Y0141437D01*
X0168589Y0143029D01*
X0167980Y0144499D01*
X0166855Y0145624D01*
X0165385Y0146233D01*
X0158593Y0146233D01*
X0157123Y0145624D01*
X0155998Y0144499D01*
X0155389Y0143029D01*
X0155389Y0141437D01*
X0155998Y0139967D01*
X0155514Y0141136D02*
X0138464Y0141136D01*
X0138589Y0142735D02*
X0155389Y0142735D01*
X0155929Y0144333D02*
X0138049Y0144333D01*
X0136112Y0145932D02*
X0157866Y0145932D01*
X0158593Y0148233D02*
X0165385Y0148233D01*
X0166855Y0148842D01*
X0167980Y0149967D01*
X0168589Y0151437D01*
X0168589Y0153029D01*
X0167980Y0154499D01*
X0166855Y0155624D01*
X0165385Y0156233D01*
X0158593Y0156233D01*
X0157123Y0155624D01*
X0155998Y0154499D01*
X0155389Y0153029D01*
X0155389Y0151437D01*
X0155998Y0149967D01*
X0157123Y0148842D01*
X0158593Y0148233D01*
X0156836Y0149129D02*
X0137142Y0149129D01*
X0136855Y0148842D02*
X0137980Y0149967D01*
X0138589Y0151437D01*
X0138589Y0153029D01*
X0137980Y0154499D01*
X0136855Y0155624D01*
X0135385Y0156233D01*
X0128593Y0156233D01*
X0127123Y0155624D01*
X0125998Y0154499D01*
X0125389Y0153029D01*
X0125389Y0151437D01*
X0125998Y0149967D01*
X0127123Y0148842D01*
X0128593Y0148233D01*
X0135385Y0148233D01*
X0136855Y0148842D01*
X0138295Y0150727D02*
X0155683Y0150727D01*
X0155389Y0152326D02*
X0138589Y0152326D01*
X0138218Y0153924D02*
X0155760Y0153924D01*
X0157022Y0155523D02*
X0136956Y0155523D01*
X0135385Y0158233D02*
X0136855Y0158842D01*
X0137980Y0159967D01*
X0138589Y0161437D01*
X0138589Y0163029D01*
X0137980Y0164499D01*
X0136855Y0165624D01*
X0135385Y0166233D01*
X0128593Y0166233D01*
X0127123Y0165624D01*
X0125998Y0164499D01*
X0125389Y0163029D01*
X0125389Y0161437D01*
X0125998Y0159967D01*
X0127123Y0158842D01*
X0128593Y0158233D01*
X0135385Y0158233D01*
X0136560Y0158720D02*
X0157418Y0158720D01*
X0157123Y0158842D02*
X0158593Y0158233D01*
X0165385Y0158233D01*
X0166855Y0158842D01*
X0167980Y0159967D01*
X0168589Y0161437D01*
X0168589Y0163029D01*
X0167980Y0164499D01*
X0166855Y0165624D01*
X0165385Y0166233D01*
X0158593Y0166233D01*
X0157123Y0165624D01*
X0155998Y0164499D01*
X0155389Y0163029D01*
X0155389Y0161437D01*
X0155998Y0159967D01*
X0157123Y0158842D01*
X0155852Y0160318D02*
X0138125Y0160318D01*
X0138589Y0161917D02*
X0155389Y0161917D01*
X0155591Y0163515D02*
X0138387Y0163515D01*
X0137365Y0165114D02*
X0156613Y0165114D01*
X0158405Y0168311D02*
X0135573Y0168311D01*
X0135385Y0168233D02*
X0136855Y0168842D01*
X0137980Y0169967D01*
X0138589Y0171437D01*
X0138589Y0173029D01*
X0137980Y0174499D01*
X0136855Y0175624D01*
X0135385Y0176233D01*
X0128593Y0176233D01*
X0127123Y0175624D01*
X0125998Y0174499D01*
X0125389Y0173029D01*
X0125389Y0171437D01*
X0125998Y0169967D01*
X0127123Y0168842D01*
X0128593Y0168233D01*
X0135385Y0168233D01*
X0137922Y0169910D02*
X0156056Y0169910D01*
X0155998Y0169967D02*
X0157123Y0168842D01*
X0158593Y0168233D01*
X0165385Y0168233D01*
X0166855Y0168842D01*
X0167980Y0169967D01*
X0168589Y0171437D01*
X0168589Y0173029D01*
X0167980Y0174499D01*
X0166855Y0175624D01*
X0165385Y0176233D01*
X0158593Y0176233D01*
X0157123Y0175624D01*
X0155998Y0174499D01*
X0155389Y0173029D01*
X0155389Y0171437D01*
X0155998Y0169967D01*
X0155389Y0171508D02*
X0138589Y0171508D01*
X0138557Y0173107D02*
X0155421Y0173107D01*
X0156204Y0174705D02*
X0137774Y0174705D01*
X0136855Y0178842D02*
X0137980Y0179967D01*
X0138589Y0181437D01*
X0138589Y0183029D01*
X0137980Y0184499D01*
X0136855Y0185624D01*
X0135385Y0186233D01*
X0128593Y0186233D01*
X0127123Y0185624D01*
X0125998Y0184499D01*
X0125389Y0183029D01*
X0125389Y0181437D01*
X0125998Y0179967D01*
X0127123Y0178842D01*
X0128593Y0178233D01*
X0135385Y0178233D01*
X0136855Y0178842D01*
X0137513Y0179501D02*
X0156465Y0179501D01*
X0155998Y0179967D02*
X0157123Y0178842D01*
X0158593Y0178233D01*
X0165385Y0178233D01*
X0166855Y0178842D01*
X0167980Y0179967D01*
X0168589Y0181437D01*
X0168589Y0183029D01*
X0167980Y0184499D01*
X0166855Y0185624D01*
X0165385Y0186233D01*
X0158593Y0186233D01*
X0157123Y0185624D01*
X0155998Y0184499D01*
X0155389Y0183029D01*
X0155389Y0181437D01*
X0155998Y0179967D01*
X0155529Y0181099D02*
X0138449Y0181099D01*
X0138589Y0182698D02*
X0155389Y0182698D01*
X0155914Y0184296D02*
X0138064Y0184296D01*
X0136202Y0185895D02*
X0157776Y0185895D01*
X0166202Y0185895D02*
X0191205Y0185895D01*
X0191270Y0185485D02*
X0191538Y0184661D01*
X0191931Y0183890D01*
X0192439Y0183189D01*
X0193052Y0182577D01*
X0193752Y0182068D01*
X0194523Y0181675D01*
X0194871Y0181562D01*
X0193746Y0181096D01*
X0192311Y0179661D01*
X0191535Y0177787D01*
X0191535Y0175758D01*
X0192311Y0173884D01*
X0193746Y0172449D01*
X0195620Y0171672D01*
X0197649Y0171672D01*
X0199524Y0172449D01*
X0200958Y0173884D01*
X0201735Y0175758D01*
X0201735Y0177787D01*
X0200958Y0179661D01*
X0199524Y0181096D01*
X0198398Y0181562D01*
X0198746Y0181675D01*
X0199517Y0182068D01*
X0200218Y0182577D01*
X0200830Y0183189D01*
X0201339Y0183890D01*
X0201732Y0184661D01*
X0201999Y0185485D01*
X0202135Y0186340D01*
X0202135Y0186572D01*
X0196835Y0186572D01*
X0196835Y0186972D01*
X0202135Y0186972D01*
X0202135Y0187205D01*
X0201999Y0188060D01*
X0201732Y0188884D01*
X0201339Y0189655D01*
X0200830Y0190355D01*
X0200218Y0190968D01*
X0199517Y0191476D01*
X0198746Y0191869D01*
X0198398Y0191983D01*
X0199524Y0192449D01*
X0200958Y0193884D01*
X0201735Y0195758D01*
X0201735Y0197787D01*
X0200958Y0199661D01*
X0199524Y0201096D01*
X0197890Y0201772D01*
X0199524Y0202449D01*
X0200958Y0203884D01*
X0201735Y0205758D01*
X0201735Y0207787D01*
X0200958Y0209661D01*
X0199524Y0211096D01*
X0197890Y0211772D01*
X0199524Y0212449D01*
X0200958Y0213884D01*
X0201735Y0215758D01*
X0201735Y0217787D01*
X0200958Y0219661D01*
X0199524Y0221096D01*
X0197890Y0221772D01*
X0199524Y0222449D01*
X0200958Y0223884D01*
X0201735Y0225758D01*
X0201735Y0227787D01*
X0200958Y0229661D01*
X0199524Y0231096D01*
X0197649Y0231872D01*
X0195620Y0231872D01*
X0193746Y0231096D01*
X0192311Y0229661D01*
X0191535Y0227787D01*
X0191535Y0225758D01*
X0192311Y0223884D01*
X0193746Y0222449D01*
X0195379Y0221772D01*
X0193746Y0221096D01*
X0192311Y0219661D01*
X0191535Y0217787D01*
X0191535Y0215758D01*
X0192311Y0213884D01*
X0193746Y0212449D01*
X0195379Y0211772D01*
X0193746Y0211096D01*
X0192311Y0209661D01*
X0191535Y0207787D01*
X0191535Y0205758D01*
X0192311Y0203884D01*
X0193746Y0202449D01*
X0195379Y0201772D01*
X0193746Y0201096D01*
X0192311Y0199661D01*
X0191535Y0197787D01*
X0191535Y0195758D01*
X0192311Y0193884D01*
X0193746Y0192449D01*
X0194871Y0191983D01*
X0194523Y0191869D01*
X0193752Y0191476D01*
X0193052Y0190968D01*
X0192439Y0190355D01*
X0191931Y0189655D01*
X0191538Y0188884D01*
X0191270Y0188060D01*
X0191135Y0187205D01*
X0191135Y0186972D01*
X0196435Y0186972D01*
X0196435Y0186572D01*
X0191135Y0186572D01*
X0191135Y0186340D01*
X0191270Y0185485D01*
X0191724Y0184296D02*
X0168064Y0184296D01*
X0168589Y0182698D02*
X0192931Y0182698D01*
X0193753Y0181099D02*
X0168449Y0181099D01*
X0167513Y0179501D02*
X0192244Y0179501D01*
X0191582Y0177902D02*
X0096058Y0177902D01*
X0095867Y0177981D02*
X0097500Y0178658D01*
X0098935Y0180092D01*
X0099711Y0181967D01*
X0099711Y0183996D01*
X0098935Y0185870D01*
X0097500Y0187305D01*
X0096374Y0187771D01*
X0096722Y0187884D01*
X0097494Y0188277D01*
X0098194Y0188786D01*
X0098806Y0189398D01*
X0099315Y0190098D01*
X0099708Y0190870D01*
X0099976Y0191693D01*
X0100111Y0192548D01*
X0100111Y0192781D01*
X0094811Y0192781D01*
X0094811Y0193181D01*
X0100111Y0193181D01*
X0100111Y0193414D01*
X0099976Y0194269D01*
X0099708Y0195092D01*
X0099315Y0195864D01*
X0098806Y0196564D01*
X0098194Y0197176D01*
X0097494Y0197685D01*
X0096722Y0198078D01*
X0095899Y0198346D01*
X0095044Y0198481D01*
X0094811Y0198481D01*
X0094811Y0193181D01*
X0094411Y0193181D01*
X0094411Y0192781D01*
X0089111Y0192781D01*
X0089111Y0192548D01*
X0089246Y0191693D01*
X0089514Y0190870D01*
X0089907Y0190098D01*
X0090416Y0189398D01*
X0091028Y0188786D01*
X0091728Y0188277D01*
X0092500Y0187884D01*
X0092848Y0187771D01*
X0091722Y0187305D01*
X0090287Y0185870D01*
X0089511Y0183996D01*
X0089511Y0181967D01*
X0090287Y0180092D01*
X0091722Y0178658D01*
X0093355Y0177981D01*
X0091722Y0177305D01*
X0090287Y0175870D01*
X0089511Y0173996D01*
X0089511Y0171967D01*
X0090287Y0170092D01*
X0091722Y0168658D01*
X0093597Y0167881D01*
X0095625Y0167881D01*
X0097500Y0168658D01*
X0098935Y0170092D01*
X0099711Y0171967D01*
X0099711Y0173996D01*
X0098935Y0175870D01*
X0097500Y0177305D01*
X0095867Y0177981D01*
X0093164Y0177902D02*
X0050873Y0177902D01*
X0051373Y0177402D02*
X0048796Y0179980D01*
X0046973Y0179980D01*
X0045151Y0179980D01*
X0042573Y0177402D01*
X0042573Y0175580D01*
X0046973Y0175580D01*
X0046973Y0179980D01*
X0046973Y0175580D01*
X0046973Y0175580D01*
X0046973Y0175579D01*
X0046973Y0175579D01*
X0046973Y0171180D01*
X0045151Y0171180D01*
X0042573Y0173757D01*
X0042573Y0175579D01*
X0046973Y0175579D01*
X0046973Y0171180D01*
X0048796Y0171180D01*
X0051373Y0173757D01*
X0051373Y0175579D01*
X0046973Y0175579D01*
X0046973Y0175580D01*
X0051373Y0175580D01*
X0051373Y0177402D01*
X0051373Y0176304D02*
X0090721Y0176304D01*
X0089805Y0174705D02*
X0051373Y0174705D01*
X0050723Y0173107D02*
X0089511Y0173107D01*
X0089701Y0171508D02*
X0049124Y0171508D01*
X0046973Y0171508D02*
X0046973Y0171508D01*
X0046973Y0173107D02*
X0046973Y0173107D01*
X0046973Y0174705D02*
X0046973Y0174705D01*
X0046973Y0176304D02*
X0046973Y0176304D01*
X0046973Y0177902D02*
X0046973Y0177902D01*
X0046973Y0179501D02*
X0046973Y0179501D01*
X0044672Y0179501D02*
X0039033Y0179501D01*
X0039033Y0181099D02*
X0089870Y0181099D01*
X0089511Y0182698D02*
X0039033Y0182698D01*
X0039033Y0184296D02*
X0089636Y0184296D01*
X0090312Y0185895D02*
X0039033Y0185895D01*
X0039033Y0187493D02*
X0092177Y0187493D01*
X0090722Y0189092D02*
X0039033Y0189092D01*
X0039033Y0190690D02*
X0089606Y0190690D01*
X0089152Y0192289D02*
X0039033Y0192289D01*
X0039033Y0193887D02*
X0089186Y0193887D01*
X0089246Y0194269D02*
X0089111Y0193414D01*
X0089111Y0193181D01*
X0094411Y0193181D01*
X0094411Y0198481D01*
X0094178Y0198481D01*
X0093323Y0198346D01*
X0092500Y0198078D01*
X0091728Y0197685D01*
X0091028Y0197176D01*
X0090416Y0196564D01*
X0089907Y0195864D01*
X0089514Y0195092D01*
X0089246Y0194269D01*
X0089714Y0195486D02*
X0069347Y0195486D01*
X0068512Y0194650D02*
X0070855Y0196994D01*
X0070855Y0200307D01*
X0068512Y0202650D01*
X0065198Y0202650D01*
X0062855Y0200307D01*
X0062855Y0196994D01*
X0065198Y0194650D01*
X0068512Y0194650D01*
X0070855Y0197084D02*
X0090936Y0197084D01*
X0094411Y0197084D02*
X0094811Y0197084D01*
X0094811Y0195486D02*
X0094411Y0195486D01*
X0094411Y0193887D02*
X0094811Y0193887D01*
X0098286Y0197084D02*
X0122929Y0197084D01*
X0123004Y0196903D02*
X0124439Y0195469D01*
X0126313Y0194692D01*
X0128342Y0194692D01*
X0130216Y0195469D01*
X0131651Y0196903D01*
X0132428Y0198778D01*
X0132428Y0200807D01*
X0131651Y0202681D01*
X0130216Y0204116D01*
X0128357Y0204886D01*
X0129622Y0205409D01*
X0131057Y0206844D01*
X0131833Y0208719D01*
X0131833Y0210748D01*
X0131057Y0212622D01*
X0129622Y0214057D01*
X0127989Y0214733D01*
X0129622Y0215409D01*
X0131057Y0216844D01*
X0131833Y0218719D01*
X0131833Y0220748D01*
X0131057Y0222622D01*
X0129622Y0224057D01*
X0127748Y0224833D01*
X0125719Y0224833D01*
X0123844Y0224057D01*
X0122409Y0222622D01*
X0121633Y0220748D01*
X0121633Y0218719D01*
X0122409Y0216844D01*
X0123844Y0215409D01*
X0125477Y0214733D01*
X0123844Y0214057D01*
X0122409Y0212622D01*
X0121633Y0210748D01*
X0121633Y0208719D01*
X0122409Y0206844D01*
X0123844Y0205409D01*
X0125703Y0204639D01*
X0124439Y0204116D01*
X0123004Y0202681D01*
X0122228Y0200807D01*
X0122228Y0198778D01*
X0123004Y0196903D01*
X0122267Y0198683D02*
X0070855Y0198683D01*
X0070855Y0200281D02*
X0122228Y0200281D01*
X0122672Y0201880D02*
X0069283Y0201880D01*
X0064428Y0201880D02*
X0049848Y0201880D01*
X0048678Y0203050D02*
X0051255Y0200473D01*
X0051255Y0198650D01*
X0046855Y0198650D01*
X0046855Y0198650D01*
X0046855Y0194250D01*
X0045033Y0194250D01*
X0042455Y0196828D01*
X0042455Y0198650D01*
X0046855Y0198650D01*
X0046855Y0194250D01*
X0048678Y0194250D01*
X0051255Y0196828D01*
X0051255Y0198650D01*
X0046855Y0198650D01*
X0046855Y0198650D01*
X0046855Y0198650D01*
X0042455Y0198650D01*
X0042455Y0200473D01*
X0045033Y0203050D01*
X0046855Y0203050D01*
X0046855Y0198651D01*
X0046855Y0198651D01*
X0046855Y0203050D01*
X0048678Y0203050D01*
X0046855Y0201880D02*
X0046855Y0201880D01*
X0046855Y0200281D02*
X0046855Y0200281D01*
X0046855Y0198683D02*
X0046855Y0198683D01*
X0046855Y0197084D02*
X0046855Y0197084D01*
X0046855Y0195486D02*
X0046855Y0195486D01*
X0049913Y0195486D02*
X0064363Y0195486D01*
X0062855Y0197084D02*
X0051255Y0197084D01*
X0051255Y0198683D02*
X0062855Y0198683D01*
X0062855Y0200281D02*
X0051255Y0200281D01*
X0043862Y0201880D02*
X0039033Y0201880D01*
X0039033Y0203478D02*
X0123801Y0203478D01*
X0124647Y0205077D02*
X0039033Y0205077D01*
X0039033Y0206675D02*
X0122578Y0206675D01*
X0121817Y0208274D02*
X0096565Y0208274D01*
X0096004Y0207713D02*
X0097439Y0209147D01*
X0098215Y0211022D01*
X0098215Y0213051D01*
X0097439Y0214925D01*
X0096004Y0216360D01*
X0094878Y0216826D01*
X0095226Y0216939D01*
X0095998Y0217332D01*
X0096698Y0217841D01*
X0097310Y0218453D01*
X0097819Y0219154D01*
X0098212Y0219925D01*
X0098480Y0220748D01*
X0098615Y0221603D01*
X0098615Y0221836D01*
X0093315Y0221836D01*
X0093315Y0222236D01*
X0098615Y0222236D01*
X0098615Y0222469D01*
X0098480Y0223324D01*
X0098212Y0224147D01*
X0097819Y0224919D01*
X0097310Y0225619D01*
X0096698Y0226231D01*
X0095998Y0226740D01*
X0095226Y0227133D01*
X0094403Y0227401D01*
X0093548Y0227536D01*
X0093315Y0227536D01*
X0093315Y0222236D01*
X0092915Y0222236D01*
X0092915Y0221836D01*
X0087615Y0221836D01*
X0087615Y0221603D01*
X0087750Y0220748D01*
X0088018Y0219925D01*
X0088411Y0219154D01*
X0088920Y0218453D01*
X0089532Y0217841D01*
X0090232Y0217332D01*
X0091004Y0216939D01*
X0091352Y0216826D01*
X0090226Y0216360D01*
X0088791Y0214925D01*
X0088015Y0213051D01*
X0088015Y0211022D01*
X0088791Y0209147D01*
X0090226Y0207713D01*
X0092100Y0206936D01*
X0094129Y0206936D01*
X0096004Y0207713D01*
X0097739Y0209872D02*
X0121633Y0209872D01*
X0121933Y0211471D02*
X0098215Y0211471D01*
X0098207Y0213069D02*
X0122857Y0213069D01*
X0125320Y0214668D02*
X0097545Y0214668D01*
X0096097Y0216266D02*
X0122987Y0216266D01*
X0121987Y0217865D02*
X0096722Y0217865D01*
X0097977Y0219463D02*
X0121633Y0219463D01*
X0121763Y0221062D02*
X0098529Y0221062D01*
X0098585Y0222660D02*
X0122448Y0222660D01*
X0124332Y0224259D02*
X0098155Y0224259D01*
X0097072Y0225857D02*
X0191535Y0225857D01*
X0191535Y0227456D02*
X0094055Y0227456D01*
X0093315Y0227456D02*
X0092915Y0227456D01*
X0092915Y0227536D02*
X0092682Y0227536D01*
X0091827Y0227401D01*
X0091004Y0227133D01*
X0090232Y0226740D01*
X0089532Y0226231D01*
X0088920Y0225619D01*
X0088411Y0224919D01*
X0088018Y0224147D01*
X0087750Y0223324D01*
X0087615Y0222469D01*
X0087615Y0222236D01*
X0092915Y0222236D01*
X0092915Y0227536D01*
X0092175Y0227456D02*
X0052815Y0227456D01*
X0052597Y0227983D02*
X0050983Y0229597D01*
X0048874Y0230470D01*
X0046592Y0230470D01*
X0044483Y0229597D01*
X0042869Y0227983D01*
X0041996Y0225874D01*
X0041996Y0223592D01*
X0042869Y0221483D01*
X0044483Y0219869D01*
X0046592Y0218996D01*
X0048874Y0218996D01*
X0050983Y0219869D01*
X0052597Y0221483D01*
X0053470Y0223592D01*
X0053470Y0225874D01*
X0052597Y0227983D01*
X0051525Y0229054D02*
X0192060Y0229054D01*
X0193303Y0230653D02*
X0042496Y0230653D01*
X0043941Y0229054D02*
X0040834Y0229054D01*
X0039813Y0227456D02*
X0042651Y0227456D01*
X0041996Y0225857D02*
X0039294Y0225857D01*
X0039047Y0224259D02*
X0041996Y0224259D01*
X0042382Y0222660D02*
X0039033Y0222660D01*
X0039033Y0221062D02*
X0043291Y0221062D01*
X0045464Y0219463D02*
X0039033Y0219463D01*
X0039033Y0217865D02*
X0089508Y0217865D01*
X0090133Y0216266D02*
X0039033Y0216266D01*
X0039033Y0214668D02*
X0088685Y0214668D01*
X0088023Y0213069D02*
X0039033Y0213069D01*
X0039033Y0211471D02*
X0088015Y0211471D01*
X0088491Y0209872D02*
X0039033Y0209872D01*
X0039033Y0208274D02*
X0089665Y0208274D01*
X0099508Y0195486D02*
X0124421Y0195486D01*
X0130234Y0195486D02*
X0154421Y0195486D01*
X0154439Y0195469D02*
X0156313Y0194692D01*
X0158342Y0194692D01*
X0160216Y0195469D01*
X0161651Y0196903D01*
X0162428Y0198778D01*
X0162428Y0200807D01*
X0161651Y0202681D01*
X0160216Y0204116D01*
X0158357Y0204886D01*
X0159622Y0205409D01*
X0161057Y0206844D01*
X0161833Y0208719D01*
X0161833Y0210748D01*
X0161057Y0212622D01*
X0159622Y0214057D01*
X0157989Y0214733D01*
X0159622Y0215409D01*
X0161057Y0216844D01*
X0161833Y0218719D01*
X0161833Y0220748D01*
X0161057Y0222622D01*
X0159622Y0224057D01*
X0157748Y0224833D01*
X0155719Y0224833D01*
X0153844Y0224057D01*
X0152409Y0222622D01*
X0151633Y0220748D01*
X0151633Y0218719D01*
X0152409Y0216844D01*
X0153844Y0215409D01*
X0155477Y0214733D01*
X0153844Y0214057D01*
X0152409Y0212622D01*
X0151633Y0210748D01*
X0151633Y0208719D01*
X0152409Y0206844D01*
X0153844Y0205409D01*
X0155703Y0204639D01*
X0154439Y0204116D01*
X0153004Y0202681D01*
X0152228Y0200807D01*
X0152228Y0198778D01*
X0153004Y0196903D01*
X0154439Y0195469D01*
X0152929Y0197084D02*
X0131726Y0197084D01*
X0132388Y0198683D02*
X0152267Y0198683D01*
X0152228Y0200281D02*
X0132428Y0200281D01*
X0131983Y0201880D02*
X0152672Y0201880D01*
X0153801Y0203478D02*
X0130854Y0203478D01*
X0128819Y0205077D02*
X0154647Y0205077D01*
X0152578Y0206675D02*
X0130888Y0206675D01*
X0131649Y0208274D02*
X0151817Y0208274D01*
X0151633Y0209872D02*
X0131833Y0209872D01*
X0131533Y0211471D02*
X0151933Y0211471D01*
X0152857Y0213069D02*
X0130609Y0213069D01*
X0128146Y0214668D02*
X0155320Y0214668D01*
X0158146Y0214668D02*
X0191986Y0214668D01*
X0191535Y0216266D02*
X0160479Y0216266D01*
X0161479Y0217865D02*
X0191567Y0217865D01*
X0192229Y0219463D02*
X0161833Y0219463D01*
X0161703Y0221062D02*
X0193712Y0221062D01*
X0193534Y0222660D02*
X0161018Y0222660D01*
X0159134Y0224259D02*
X0192156Y0224259D01*
X0199735Y0222660D02*
X0217882Y0222660D01*
X0217496Y0223592D02*
X0218369Y0221483D01*
X0219983Y0219869D01*
X0222092Y0218996D01*
X0224374Y0218996D01*
X0226483Y0219869D01*
X0228097Y0221483D01*
X0228970Y0223592D01*
X0228970Y0225874D01*
X0228097Y0227983D01*
X0226483Y0229597D01*
X0224374Y0230470D01*
X0222092Y0230470D01*
X0219983Y0229597D01*
X0218369Y0227983D01*
X0217496Y0225874D01*
X0217496Y0223592D01*
X0217496Y0224259D02*
X0201114Y0224259D01*
X0201735Y0225857D02*
X0217496Y0225857D01*
X0218151Y0227456D02*
X0201735Y0227456D01*
X0201210Y0229054D02*
X0219441Y0229054D01*
X0224490Y0232251D02*
X0046826Y0232251D01*
X0053470Y0225857D02*
X0089158Y0225857D01*
X0088075Y0224259D02*
X0053470Y0224259D01*
X0053084Y0222660D02*
X0087645Y0222660D01*
X0087701Y0221062D02*
X0052175Y0221062D01*
X0050002Y0219463D02*
X0088253Y0219463D01*
X0092915Y0222660D02*
X0093315Y0222660D01*
X0093315Y0224259D02*
X0092915Y0224259D01*
X0092915Y0225857D02*
X0093315Y0225857D01*
X0100036Y0193887D02*
X0165898Y0193887D01*
X0165633Y0193248D02*
X0165633Y0191219D01*
X0166409Y0189344D01*
X0167844Y0187909D01*
X0169719Y0187133D01*
X0171748Y0187133D01*
X0173622Y0187909D01*
X0175057Y0189344D01*
X0175833Y0191219D01*
X0175833Y0193248D01*
X0175057Y0195122D01*
X0173622Y0196557D01*
X0171748Y0197333D01*
X0169719Y0197333D01*
X0167844Y0196557D01*
X0166409Y0195122D01*
X0165633Y0193248D01*
X0165633Y0192289D02*
X0100070Y0192289D01*
X0099617Y0190690D02*
X0165852Y0190690D01*
X0166662Y0189092D02*
X0098500Y0189092D01*
X0097045Y0187493D02*
X0168849Y0187493D01*
X0172617Y0187493D02*
X0191180Y0187493D01*
X0191644Y0189092D02*
X0174804Y0189092D01*
X0175614Y0190690D02*
X0192774Y0190690D01*
X0194132Y0192289D02*
X0175833Y0192289D01*
X0175568Y0193887D02*
X0192310Y0193887D01*
X0191647Y0195486D02*
X0174693Y0195486D01*
X0172348Y0197084D02*
X0191535Y0197084D01*
X0191906Y0198683D02*
X0162388Y0198683D01*
X0162428Y0200281D02*
X0192931Y0200281D01*
X0195120Y0201880D02*
X0161983Y0201880D01*
X0160854Y0203478D02*
X0192716Y0203478D01*
X0191817Y0205077D02*
X0158819Y0205077D01*
X0160888Y0206675D02*
X0191535Y0206675D01*
X0191736Y0208274D02*
X0161649Y0208274D01*
X0161833Y0209872D02*
X0192522Y0209872D01*
X0194651Y0211471D02*
X0161533Y0211471D01*
X0160609Y0213069D02*
X0193125Y0213069D01*
X0198619Y0211471D02*
X0232283Y0211471D01*
X0232283Y0213069D02*
X0200144Y0213069D01*
X0201283Y0214668D02*
X0232283Y0214668D01*
X0232283Y0216266D02*
X0201735Y0216266D01*
X0201702Y0217865D02*
X0232283Y0217865D01*
X0232283Y0219463D02*
X0225502Y0219463D01*
X0227675Y0221062D02*
X0232283Y0221062D01*
X0232283Y0222660D02*
X0228584Y0222660D01*
X0228970Y0224259D02*
X0232270Y0224259D01*
X0232023Y0225857D02*
X0228970Y0225857D01*
X0228315Y0227456D02*
X0231504Y0227456D01*
X0230483Y0229054D02*
X0227025Y0229054D01*
X0228820Y0230653D02*
X0199967Y0230653D01*
X0199558Y0221062D02*
X0218791Y0221062D01*
X0220964Y0219463D02*
X0201040Y0219463D01*
X0200747Y0209872D02*
X0232283Y0209872D01*
X0232283Y0208274D02*
X0201533Y0208274D01*
X0201735Y0206675D02*
X0232283Y0206675D01*
X0232283Y0205077D02*
X0201452Y0205077D01*
X0200553Y0203478D02*
X0232283Y0203478D01*
X0232283Y0201880D02*
X0198150Y0201880D01*
X0200338Y0200281D02*
X0232283Y0200281D01*
X0232283Y0198683D02*
X0201364Y0198683D01*
X0201735Y0197084D02*
X0232283Y0197084D01*
X0232283Y0195486D02*
X0201622Y0195486D01*
X0200960Y0193887D02*
X0232283Y0193887D01*
X0232283Y0192289D02*
X0199137Y0192289D01*
X0200495Y0190690D02*
X0232283Y0190690D01*
X0232283Y0189092D02*
X0201626Y0189092D01*
X0202089Y0187493D02*
X0232283Y0187493D01*
X0232283Y0185895D02*
X0202064Y0185895D01*
X0201546Y0184296D02*
X0232283Y0184296D01*
X0232283Y0182698D02*
X0200338Y0182698D01*
X0199516Y0181099D02*
X0232283Y0181099D01*
X0232283Y0179501D02*
X0201025Y0179501D01*
X0201687Y0177902D02*
X0232283Y0177902D01*
X0232283Y0176304D02*
X0201735Y0176304D01*
X0201298Y0174705D02*
X0232283Y0174705D01*
X0232283Y0173107D02*
X0200181Y0173107D01*
X0197733Y0166712D02*
X0232283Y0166712D01*
X0232283Y0165114D02*
X0199998Y0165114D01*
X0200305Y0164807D02*
X0198870Y0166242D01*
X0196996Y0167018D01*
X0194967Y0167018D01*
X0193092Y0166242D01*
X0191658Y0164807D01*
X0190881Y0162933D01*
X0190881Y0160904D01*
X0191658Y0159029D01*
X0193092Y0157595D01*
X0194725Y0156918D01*
X0193092Y0156242D01*
X0191658Y0154807D01*
X0190881Y0152933D01*
X0190881Y0150904D01*
X0191658Y0149029D01*
X0193092Y0147595D01*
X0194725Y0146918D01*
X0193092Y0146242D01*
X0191658Y0144807D01*
X0190881Y0142933D01*
X0190881Y0140904D01*
X0191658Y0139029D01*
X0193092Y0137595D01*
X0194725Y0136918D01*
X0193092Y0136242D01*
X0191658Y0134807D01*
X0190881Y0132933D01*
X0190881Y0130904D01*
X0191658Y0129029D01*
X0193092Y0127595D01*
X0194218Y0127128D01*
X0193870Y0127015D01*
X0193098Y0126622D01*
X0192398Y0126113D01*
X0191786Y0125501D01*
X0191277Y0124801D01*
X0190884Y0124029D01*
X0190617Y0123206D01*
X0190481Y0122351D01*
X0190481Y0122118D01*
X0195781Y0122118D01*
X0195781Y0121718D01*
X0190481Y0121718D01*
X0190481Y0121485D01*
X0190617Y0120630D01*
X0190884Y0119807D01*
X0191277Y0119035D01*
X0191786Y0118335D01*
X0192398Y0117723D01*
X0193098Y0117214D01*
X0193870Y0116821D01*
X0194218Y0116708D01*
X0193092Y0116242D01*
X0191658Y0114807D01*
X0190881Y0112933D01*
X0190881Y0110904D01*
X0191658Y0109029D01*
X0193092Y0107595D01*
X0194967Y0106818D01*
X0196996Y0106818D01*
X0198870Y0107595D01*
X0200305Y0109029D01*
X0201081Y0110904D01*
X0201081Y0112933D01*
X0200305Y0114807D01*
X0198870Y0116242D01*
X0197744Y0116708D01*
X0198092Y0116821D01*
X0198864Y0117214D01*
X0199564Y0117723D01*
X0200176Y0118335D01*
X0200685Y0119035D01*
X0201078Y0119807D01*
X0201346Y0120630D01*
X0201481Y0121485D01*
X0201481Y0121718D01*
X0196181Y0121718D01*
X0196181Y0122118D01*
X0201481Y0122118D01*
X0201481Y0122351D01*
X0201346Y0123206D01*
X0201078Y0124029D01*
X0200685Y0124801D01*
X0200176Y0125501D01*
X0199564Y0126113D01*
X0198864Y0126622D01*
X0198092Y0127015D01*
X0197744Y0127128D01*
X0198870Y0127595D01*
X0200305Y0129029D01*
X0201081Y0130904D01*
X0201081Y0132933D01*
X0200305Y0134807D01*
X0198870Y0136242D01*
X0197237Y0136918D01*
X0198870Y0137595D01*
X0200305Y0139029D01*
X0201081Y0140904D01*
X0201081Y0142933D01*
X0200305Y0144807D01*
X0198870Y0146242D01*
X0197237Y0146918D01*
X0198870Y0147595D01*
X0200305Y0149029D01*
X0201081Y0150904D01*
X0201081Y0152933D01*
X0200305Y0154807D01*
X0198870Y0156242D01*
X0197237Y0156918D01*
X0198870Y0157595D01*
X0200305Y0159029D01*
X0201081Y0160904D01*
X0201081Y0162933D01*
X0200305Y0164807D01*
X0200840Y0163515D02*
X0232283Y0163515D01*
X0232283Y0161917D02*
X0201081Y0161917D01*
X0200839Y0160318D02*
X0232283Y0160318D01*
X0232283Y0158720D02*
X0199995Y0158720D01*
X0197728Y0157121D02*
X0232283Y0157121D01*
X0232283Y0155523D02*
X0199589Y0155523D01*
X0200670Y0153924D02*
X0232283Y0153924D01*
X0232283Y0152326D02*
X0201081Y0152326D01*
X0201008Y0150727D02*
X0232283Y0150727D01*
X0232283Y0149129D02*
X0200346Y0149129D01*
X0198715Y0147530D02*
X0232283Y0147530D01*
X0232283Y0145932D02*
X0199180Y0145932D01*
X0200501Y0144333D02*
X0232283Y0144333D01*
X0232283Y0142735D02*
X0201081Y0142735D01*
X0201081Y0141136D02*
X0232283Y0141136D01*
X0232283Y0139538D02*
X0200515Y0139538D01*
X0199215Y0137939D02*
X0232283Y0137939D01*
X0232283Y0136341D02*
X0228838Y0136341D01*
X0228622Y0136557D02*
X0230057Y0135122D01*
X0230833Y0133248D01*
X0230833Y0131219D01*
X0230057Y0129344D01*
X0228622Y0127909D01*
X0226748Y0127133D01*
X0224719Y0127133D01*
X0222844Y0127909D01*
X0221409Y0129344D01*
X0220733Y0130977D01*
X0220057Y0129344D01*
X0218622Y0127909D01*
X0216748Y0127133D01*
X0214719Y0127133D01*
X0212844Y0127909D01*
X0211409Y0129344D01*
X0210633Y0131219D01*
X0210633Y0133248D01*
X0211409Y0135122D01*
X0212844Y0136557D01*
X0214719Y0137333D01*
X0216748Y0137333D01*
X0218622Y0136557D01*
X0220057Y0135122D01*
X0220733Y0133489D01*
X0221409Y0135122D01*
X0222844Y0136557D01*
X0224719Y0137333D01*
X0226748Y0137333D01*
X0228622Y0136557D01*
X0230214Y0134742D02*
X0232283Y0134742D01*
X0232283Y0133144D02*
X0230833Y0133144D01*
X0230833Y0131545D02*
X0232283Y0131545D01*
X0232283Y0129947D02*
X0230306Y0129947D01*
X0229061Y0128348D02*
X0232283Y0128348D01*
X0232283Y0126750D02*
X0198613Y0126750D01*
X0199624Y0128348D02*
X0212405Y0128348D01*
X0211160Y0129947D02*
X0200685Y0129947D01*
X0201081Y0131545D02*
X0210633Y0131545D01*
X0210633Y0133144D02*
X0200994Y0133144D01*
X0200331Y0134742D02*
X0211252Y0134742D01*
X0212628Y0136341D02*
X0198631Y0136341D01*
X0193331Y0136341D02*
X0101373Y0136341D01*
X0101373Y0136021D02*
X0101373Y0137843D01*
X0096973Y0137843D01*
X0096973Y0137843D01*
X0096973Y0133443D01*
X0095151Y0133443D01*
X0092573Y0136021D01*
X0092573Y0137843D01*
X0096973Y0137843D01*
X0096973Y0137843D01*
X0096973Y0133443D01*
X0098796Y0133443D01*
X0101373Y0136021D01*
X0100095Y0134742D02*
X0126241Y0134742D01*
X0125437Y0133144D02*
X0105912Y0133144D01*
X0106122Y0133057D02*
X0104248Y0133833D01*
X0102219Y0133833D01*
X0100344Y0133057D01*
X0098909Y0131622D01*
X0098133Y0129748D01*
X0098133Y0127719D01*
X0098909Y0125844D01*
X0100344Y0124409D01*
X0102219Y0123633D01*
X0104248Y0123633D01*
X0106122Y0124409D01*
X0107557Y0125844D01*
X0108333Y0127719D01*
X0108333Y0129748D01*
X0107557Y0131622D01*
X0106122Y0133057D01*
X0107588Y0131545D02*
X0125389Y0131545D01*
X0126018Y0129947D02*
X0108251Y0129947D01*
X0108333Y0128348D02*
X0128315Y0128348D01*
X0126650Y0125151D02*
X0106864Y0125151D01*
X0107932Y0126750D02*
X0193349Y0126750D01*
X0192338Y0128348D02*
X0165663Y0128348D01*
X0167959Y0129947D02*
X0191277Y0129947D01*
X0190881Y0131545D02*
X0168589Y0131545D01*
X0168541Y0133144D02*
X0190969Y0133144D01*
X0191631Y0134742D02*
X0167737Y0134742D01*
X0167551Y0139538D02*
X0191447Y0139538D01*
X0190881Y0141136D02*
X0168464Y0141136D01*
X0168589Y0142735D02*
X0190881Y0142735D01*
X0191461Y0144333D02*
X0168049Y0144333D01*
X0166112Y0145932D02*
X0192782Y0145932D01*
X0193247Y0147530D02*
X0112707Y0147530D01*
X0111989Y0147233D02*
X0113622Y0147909D01*
X0115057Y0149344D01*
X0115833Y0151219D01*
X0115833Y0153248D01*
X0115057Y0155122D01*
X0113622Y0156557D01*
X0111748Y0157333D01*
X0109719Y0157333D01*
X0107844Y0156557D01*
X0106409Y0155122D01*
X0105633Y0153248D01*
X0105633Y0151219D01*
X0106409Y0149344D01*
X0107844Y0147909D01*
X0109477Y0147233D01*
X0107844Y0146557D01*
X0106409Y0145122D01*
X0105633Y0143248D01*
X0105633Y0141219D01*
X0106409Y0139344D01*
X0107844Y0137909D01*
X0109719Y0137133D01*
X0111748Y0137133D01*
X0113622Y0137909D01*
X0115057Y0139344D01*
X0115833Y0141219D01*
X0115833Y0143248D01*
X0115057Y0145122D01*
X0113622Y0146557D01*
X0111989Y0147233D01*
X0114247Y0145932D02*
X0127866Y0145932D01*
X0125929Y0144333D02*
X0115383Y0144333D01*
X0115833Y0142735D02*
X0125389Y0142735D01*
X0125514Y0141136D02*
X0115799Y0141136D01*
X0115137Y0139538D02*
X0126427Y0139538D01*
X0126836Y0149129D02*
X0114841Y0149129D01*
X0115630Y0150727D02*
X0125683Y0150727D01*
X0125389Y0152326D02*
X0115833Y0152326D01*
X0115553Y0153924D02*
X0125760Y0153924D01*
X0127022Y0155523D02*
X0114656Y0155523D01*
X0112258Y0157121D02*
X0194234Y0157121D01*
X0192373Y0155523D02*
X0166956Y0155523D01*
X0168218Y0153924D02*
X0191292Y0153924D01*
X0190881Y0152326D02*
X0168589Y0152326D01*
X0168295Y0150727D02*
X0190954Y0150727D01*
X0191616Y0149129D02*
X0167142Y0149129D01*
X0166560Y0158720D02*
X0191967Y0158720D01*
X0191123Y0160318D02*
X0168125Y0160318D01*
X0168589Y0161917D02*
X0190881Y0161917D01*
X0191123Y0163515D02*
X0168387Y0163515D01*
X0167365Y0165114D02*
X0191964Y0165114D01*
X0194229Y0166712D02*
X0039033Y0166712D01*
X0039033Y0165114D02*
X0126613Y0165114D01*
X0125591Y0163515D02*
X0087522Y0163515D01*
X0087240Y0163632D02*
X0085211Y0163632D01*
X0083336Y0162856D01*
X0081902Y0161421D01*
X0081125Y0159547D01*
X0081125Y0157518D01*
X0081902Y0155643D01*
X0083336Y0154209D01*
X0085211Y0153432D01*
X0087240Y0153432D01*
X0089114Y0154209D01*
X0090549Y0155643D01*
X0091325Y0157518D01*
X0091325Y0159547D01*
X0090549Y0161421D01*
X0089114Y0162856D01*
X0087240Y0163632D01*
X0084929Y0163515D02*
X0075711Y0163515D01*
X0075429Y0163632D02*
X0073400Y0163632D01*
X0071525Y0162856D01*
X0070091Y0161421D01*
X0069314Y0159547D01*
X0069314Y0157518D01*
X0070091Y0155643D01*
X0071525Y0154209D01*
X0073400Y0153432D01*
X0075429Y0153432D01*
X0077303Y0154209D01*
X0078738Y0155643D01*
X0079514Y0157518D01*
X0079514Y0159547D01*
X0078738Y0161421D01*
X0077303Y0162856D01*
X0075429Y0163632D01*
X0073118Y0163515D02*
X0039033Y0163515D01*
X0039033Y0161917D02*
X0070586Y0161917D01*
X0069634Y0160318D02*
X0039033Y0160318D01*
X0039033Y0158720D02*
X0044457Y0158720D01*
X0045316Y0159580D02*
X0042973Y0157236D01*
X0042973Y0153923D01*
X0045316Y0151580D01*
X0048630Y0151580D01*
X0050973Y0153923D01*
X0050973Y0157236D01*
X0048630Y0159580D01*
X0045316Y0159580D01*
X0042973Y0157121D02*
X0039033Y0157121D01*
X0039033Y0155523D02*
X0042973Y0155523D01*
X0042973Y0153924D02*
X0039033Y0153924D01*
X0039033Y0152326D02*
X0044570Y0152326D01*
X0049376Y0152326D02*
X0105633Y0152326D01*
X0105837Y0150727D02*
X0039033Y0150727D01*
X0039033Y0149129D02*
X0106625Y0149129D01*
X0108759Y0147530D02*
X0039033Y0147530D01*
X0039033Y0145932D02*
X0053497Y0145932D01*
X0053461Y0145913D02*
X0052760Y0145405D01*
X0052148Y0144792D01*
X0051639Y0144092D01*
X0051246Y0143321D01*
X0050979Y0142497D01*
X0050843Y0141642D01*
X0050843Y0141409D01*
X0056143Y0141409D01*
X0056143Y0141009D01*
X0050843Y0141009D01*
X0050843Y0140777D01*
X0050979Y0139922D01*
X0051246Y0139098D01*
X0051639Y0138327D01*
X0052148Y0137626D01*
X0052760Y0137014D01*
X0053461Y0136505D01*
X0054232Y0136112D01*
X0054580Y0135999D01*
X0053454Y0135533D01*
X0052020Y0134098D01*
X0051243Y0132224D01*
X0051243Y0130195D01*
X0052020Y0128321D01*
X0053454Y0126886D01*
X0055087Y0126209D01*
X0053454Y0125533D01*
X0052020Y0124098D01*
X0051243Y0122224D01*
X0051243Y0120195D01*
X0052020Y0118321D01*
X0053454Y0116886D01*
X0055329Y0116109D01*
X0057358Y0116109D01*
X0059232Y0116886D01*
X0060667Y0118321D01*
X0061443Y0120195D01*
X0061443Y0122224D01*
X0060667Y0124098D01*
X0059232Y0125533D01*
X0057599Y0126209D01*
X0059232Y0126886D01*
X0060667Y0128321D01*
X0061443Y0130195D01*
X0061443Y0132224D01*
X0060667Y0134098D01*
X0059232Y0135533D01*
X0058106Y0135999D01*
X0058455Y0136112D01*
X0059226Y0136505D01*
X0059926Y0137014D01*
X0060538Y0137626D01*
X0061047Y0138327D01*
X0061440Y0139098D01*
X0061708Y0139922D01*
X0061843Y0140777D01*
X0061843Y0141009D01*
X0056543Y0141009D01*
X0056543Y0141409D01*
X0061843Y0141409D01*
X0061843Y0141642D01*
X0061708Y0142497D01*
X0061440Y0143321D01*
X0061047Y0144092D01*
X0060538Y0144792D01*
X0059926Y0145405D01*
X0059226Y0145913D01*
X0058455Y0146306D01*
X0057631Y0146574D01*
X0056776Y0146709D01*
X0056543Y0146709D01*
X0056543Y0141410D01*
X0056143Y0141410D01*
X0056143Y0146709D01*
X0055910Y0146709D01*
X0055055Y0146574D01*
X0054232Y0146306D01*
X0053461Y0145913D01*
X0051815Y0144333D02*
X0039033Y0144333D01*
X0039033Y0142735D02*
X0051056Y0142735D01*
X0051103Y0139538D02*
X0039033Y0139538D01*
X0039033Y0141136D02*
X0056143Y0141136D01*
X0056543Y0141136D02*
X0094044Y0141136D01*
X0095151Y0142243D02*
X0092573Y0139666D01*
X0092573Y0137843D01*
X0096973Y0137843D01*
X0096973Y0137843D01*
X0096973Y0142243D01*
X0095151Y0142243D01*
X0096973Y0142243D02*
X0096973Y0137843D01*
X0096973Y0137843D01*
X0101373Y0137843D01*
X0101373Y0139666D01*
X0098796Y0142243D01*
X0096973Y0142243D01*
X0096973Y0141136D02*
X0096973Y0141136D01*
X0096973Y0139538D02*
X0096973Y0139538D01*
X0096973Y0137939D02*
X0096973Y0137939D01*
X0096973Y0136341D02*
X0096973Y0136341D01*
X0096973Y0134742D02*
X0096973Y0134742D01*
X0093852Y0134742D02*
X0060023Y0134742D01*
X0061062Y0133144D02*
X0072220Y0133144D01*
X0071525Y0132856D02*
X0073400Y0133632D01*
X0075429Y0133632D01*
X0077303Y0132856D01*
X0078738Y0131421D01*
X0079514Y0129547D01*
X0079514Y0127518D01*
X0078738Y0125643D01*
X0077303Y0124209D01*
X0075429Y0123432D01*
X0073400Y0123432D01*
X0071525Y0124209D01*
X0070091Y0125643D01*
X0069314Y0127518D01*
X0069314Y0129547D01*
X0070091Y0131421D01*
X0071525Y0132856D01*
X0070215Y0131545D02*
X0061443Y0131545D01*
X0061340Y0129947D02*
X0069480Y0129947D01*
X0069314Y0128348D02*
X0060678Y0128348D01*
X0058903Y0126750D02*
X0069632Y0126750D01*
X0070583Y0125151D02*
X0059614Y0125151D01*
X0060893Y0123553D02*
X0073109Y0123553D01*
X0075719Y0123553D02*
X0083883Y0123553D01*
X0084114Y0123435D02*
X0084937Y0123168D01*
X0085792Y0123032D01*
X0086139Y0123032D01*
X0086139Y0128446D01*
X0080725Y0128446D01*
X0080725Y0128099D01*
X0080861Y0127244D01*
X0081128Y0126421D01*
X0081521Y0125650D01*
X0082030Y0124949D01*
X0082642Y0124337D01*
X0083343Y0123828D01*
X0084114Y0123435D01*
X0086139Y0123553D02*
X0086311Y0123553D01*
X0086311Y0123032D02*
X0086658Y0123032D01*
X0087513Y0123168D01*
X0088336Y0123435D01*
X0089108Y0123828D01*
X0089808Y0124337D01*
X0090420Y0124949D01*
X0090929Y0125650D01*
X0091322Y0126421D01*
X0091590Y0127244D01*
X0091725Y0128099D01*
X0091725Y0128446D01*
X0086311Y0128446D01*
X0086311Y0123032D01*
X0086311Y0125151D02*
X0086139Y0125151D01*
X0086139Y0126750D02*
X0086311Y0126750D01*
X0086311Y0128348D02*
X0086139Y0128348D01*
X0086139Y0128446D02*
X0086311Y0128446D01*
X0086311Y0128618D01*
X0091725Y0128618D01*
X0091725Y0128965D01*
X0091590Y0129820D01*
X0091322Y0130644D01*
X0090929Y0131415D01*
X0090420Y0132115D01*
X0089808Y0132727D01*
X0089108Y0133236D01*
X0088336Y0133629D01*
X0087513Y0133897D01*
X0086658Y0134032D01*
X0086311Y0134032D01*
X0086311Y0128618D01*
X0086139Y0128618D01*
X0086139Y0128446D01*
X0086139Y0128618D02*
X0080725Y0128618D01*
X0080725Y0128965D01*
X0080861Y0129820D01*
X0081128Y0130644D01*
X0081521Y0131415D01*
X0082030Y0132115D01*
X0082642Y0132727D01*
X0083343Y0133236D01*
X0084114Y0133629D01*
X0084937Y0133897D01*
X0085792Y0134032D01*
X0086139Y0134032D01*
X0086139Y0128618D01*
X0086139Y0129947D02*
X0086311Y0129947D01*
X0086311Y0131545D02*
X0086139Y0131545D01*
X0086139Y0133144D02*
X0086311Y0133144D01*
X0089235Y0133144D02*
X0100554Y0133144D01*
X0098878Y0131545D02*
X0090835Y0131545D01*
X0091549Y0129947D02*
X0098216Y0129947D01*
X0098133Y0128348D02*
X0091725Y0128348D01*
X0091429Y0126750D02*
X0098534Y0126750D01*
X0099602Y0125151D02*
X0090567Y0125151D01*
X0088567Y0123553D02*
X0125606Y0123553D01*
X0125389Y0121954D02*
X0061443Y0121954D01*
X0061443Y0120356D02*
X0125837Y0120356D01*
X0127328Y0118757D02*
X0060848Y0118757D01*
X0059505Y0117159D02*
X0193207Y0117159D01*
X0192411Y0115560D02*
X0166919Y0115560D01*
X0168203Y0113962D02*
X0191307Y0113962D01*
X0190881Y0112363D02*
X0168589Y0112363D01*
X0168310Y0110765D02*
X0190939Y0110765D01*
X0191601Y0109166D02*
X0167179Y0109166D01*
X0166022Y0105969D02*
X0211691Y0105969D01*
X0211538Y0105816D02*
X0211029Y0105116D01*
X0210636Y0104344D01*
X0210369Y0103521D01*
X0210233Y0102666D01*
X0210233Y0102319D01*
X0215647Y0102319D01*
X0215647Y0102147D01*
X0210233Y0102147D01*
X0210233Y0101800D01*
X0210369Y0100945D01*
X0210636Y0100122D01*
X0211029Y0099350D01*
X0211538Y0098650D01*
X0212150Y0098038D01*
X0212850Y0097529D01*
X0213622Y0097136D01*
X0214445Y0096869D01*
X0215300Y0096733D01*
X0215647Y0096733D01*
X0215647Y0102147D01*
X0215819Y0102147D01*
X0215819Y0096733D01*
X0216166Y0096733D01*
X0217021Y0096869D01*
X0217844Y0097136D01*
X0218616Y0097529D01*
X0219316Y0098038D01*
X0219928Y0098650D01*
X0220437Y0099350D01*
X0220830Y0100122D01*
X0220943Y0100470D01*
X0221409Y0099344D01*
X0222844Y0097909D01*
X0224719Y0097133D01*
X0226748Y0097133D01*
X0228622Y0097909D01*
X0230057Y0099344D01*
X0230833Y0101219D01*
X0230833Y0103248D01*
X0230057Y0105122D01*
X0228622Y0106557D01*
X0226748Y0107333D01*
X0224719Y0107333D01*
X0222844Y0106557D01*
X0221409Y0105122D01*
X0220943Y0103996D01*
X0220830Y0104344D01*
X0220437Y0105116D01*
X0219928Y0105816D01*
X0219316Y0106428D01*
X0218616Y0106937D01*
X0217844Y0107330D01*
X0217021Y0107598D01*
X0216166Y0107733D01*
X0215819Y0107733D01*
X0215819Y0102319D01*
X0215647Y0102319D01*
X0215647Y0107733D01*
X0215300Y0107733D01*
X0214445Y0107598D01*
X0213622Y0107330D01*
X0212850Y0106937D01*
X0212150Y0106428D01*
X0211538Y0105816D01*
X0210649Y0104371D02*
X0168033Y0104371D01*
X0168589Y0102772D02*
X0210250Y0102772D01*
X0210332Y0101174D02*
X0168480Y0101174D01*
X0167588Y0099575D02*
X0210915Y0099575D01*
X0212235Y0097977D02*
X0108333Y0097977D01*
X0108333Y0097719D02*
X0107557Y0095844D01*
X0106122Y0094409D01*
X0104248Y0093633D01*
X0102219Y0093633D01*
X0100344Y0094409D01*
X0098909Y0095844D01*
X0098133Y0097719D01*
X0098133Y0099748D01*
X0098909Y0101622D01*
X0100344Y0103057D01*
X0102219Y0103833D01*
X0104248Y0103833D01*
X0106122Y0103057D01*
X0107557Y0101622D01*
X0108333Y0099748D01*
X0108333Y0097719D01*
X0107778Y0096378D02*
X0232283Y0096378D01*
X0232283Y0097977D02*
X0228689Y0097977D01*
X0230152Y0099575D02*
X0232283Y0099575D01*
X0232283Y0101174D02*
X0230814Y0101174D01*
X0230833Y0102772D02*
X0232283Y0102772D01*
X0232283Y0104371D02*
X0230368Y0104371D01*
X0229210Y0105969D02*
X0232283Y0105969D01*
X0232283Y0107568D02*
X0217113Y0107568D01*
X0215819Y0107568D02*
X0215647Y0107568D01*
X0214353Y0107568D02*
X0198805Y0107568D01*
X0200361Y0109166D02*
X0232283Y0109166D01*
X0232283Y0110765D02*
X0201023Y0110765D01*
X0201081Y0112363D02*
X0232283Y0112363D01*
X0232283Y0113962D02*
X0200655Y0113962D01*
X0199552Y0115560D02*
X0232283Y0115560D01*
X0232283Y0117159D02*
X0198755Y0117159D01*
X0200483Y0118757D02*
X0232283Y0118757D01*
X0232283Y0120356D02*
X0201256Y0120356D01*
X0201233Y0123553D02*
X0232283Y0123553D01*
X0232283Y0125151D02*
X0200430Y0125151D01*
X0196181Y0121954D02*
X0232283Y0121954D01*
X0222405Y0128348D02*
X0219061Y0128348D01*
X0220306Y0129947D02*
X0221160Y0129947D01*
X0221252Y0134742D02*
X0220214Y0134742D01*
X0218838Y0136341D02*
X0222628Y0136341D01*
X0195781Y0121954D02*
X0168989Y0121954D01*
X0168787Y0123553D02*
X0190729Y0123553D01*
X0191532Y0125151D02*
X0167893Y0125151D01*
X0168571Y0120356D02*
X0190706Y0120356D01*
X0191479Y0118757D02*
X0167291Y0118757D01*
X0161989Y0118757D02*
X0161989Y0118757D01*
X0161989Y0120356D02*
X0161989Y0120356D01*
X0161989Y0121954D02*
X0161989Y0121954D01*
X0161989Y0123553D02*
X0161989Y0123553D01*
X0161989Y0125151D02*
X0161989Y0125151D01*
X0167699Y0094779D02*
X0232283Y0094779D01*
X0232283Y0093181D02*
X0168526Y0093181D01*
X0168589Y0091582D02*
X0232283Y0091582D01*
X0232283Y0089984D02*
X0167987Y0089984D01*
X0175496Y0086787D02*
X0050679Y0086787D01*
X0051393Y0087501D02*
X0051393Y0089324D01*
X0051393Y0091146D01*
X0048815Y0093724D01*
X0046993Y0093724D01*
X0046993Y0089324D01*
X0046993Y0089324D01*
X0046993Y0093724D01*
X0045170Y0093724D01*
X0042593Y0091146D01*
X0042593Y0089324D01*
X0046993Y0089324D01*
X0051393Y0089324D01*
X0046993Y0089324D01*
X0046993Y0089324D01*
X0046993Y0089324D01*
X0042593Y0089324D01*
X0042593Y0087501D01*
X0045170Y0084924D01*
X0046993Y0084924D01*
X0048815Y0084924D01*
X0051393Y0087501D01*
X0051393Y0088385D02*
X0128225Y0088385D01*
X0125991Y0089984D02*
X0051393Y0089984D01*
X0050957Y0091582D02*
X0125389Y0091582D01*
X0125452Y0093181D02*
X0090070Y0093181D01*
X0090622Y0093409D02*
X0092057Y0094844D01*
X0092833Y0096719D01*
X0092833Y0098748D01*
X0092057Y0100622D01*
X0090622Y0102057D01*
X0088989Y0102733D01*
X0090622Y0103409D01*
X0092057Y0104844D01*
X0092833Y0106719D01*
X0092833Y0108748D01*
X0092057Y0110622D01*
X0090622Y0112057D01*
X0088748Y0112833D01*
X0086719Y0112833D01*
X0084844Y0112057D01*
X0083409Y0110622D01*
X0082633Y0108748D01*
X0082633Y0106719D01*
X0083409Y0104844D01*
X0084844Y0103409D01*
X0086477Y0102733D01*
X0084844Y0102057D01*
X0083409Y0100622D01*
X0082633Y0098748D01*
X0082633Y0096719D01*
X0083409Y0094844D01*
X0084844Y0093409D01*
X0086719Y0092633D01*
X0088748Y0092633D01*
X0090622Y0093409D01*
X0091992Y0094779D02*
X0099974Y0094779D01*
X0098688Y0096378D02*
X0092692Y0096378D01*
X0092833Y0097977D02*
X0098133Y0097977D01*
X0098133Y0099575D02*
X0092490Y0099575D01*
X0091505Y0101174D02*
X0098724Y0101174D01*
X0100060Y0102772D02*
X0089083Y0102772D01*
X0086383Y0102772D02*
X0039033Y0102772D01*
X0039033Y0101174D02*
X0083961Y0101174D01*
X0082976Y0099575D02*
X0039033Y0099575D01*
X0039033Y0097977D02*
X0082633Y0097977D01*
X0082774Y0096378D02*
X0039033Y0096378D01*
X0039033Y0094779D02*
X0083474Y0094779D01*
X0085396Y0093181D02*
X0049358Y0093181D01*
X0046993Y0093181D02*
X0046993Y0093181D01*
X0046993Y0091582D02*
X0046993Y0091582D01*
X0046993Y0089984D02*
X0046993Y0089984D01*
X0046993Y0089323D02*
X0046993Y0084924D01*
X0046993Y0089323D01*
X0046993Y0089323D01*
X0046993Y0088385D02*
X0046993Y0088385D01*
X0046993Y0086787D02*
X0046993Y0086787D01*
X0046993Y0085188D02*
X0046993Y0085188D01*
X0049080Y0085188D02*
X0126687Y0085188D01*
X0125621Y0083590D02*
X0039033Y0083590D01*
X0039033Y0085188D02*
X0044906Y0085188D01*
X0043307Y0086787D02*
X0039033Y0086787D01*
X0039033Y0088385D02*
X0042593Y0088385D01*
X0042593Y0089984D02*
X0039033Y0089984D01*
X0039033Y0091582D02*
X0043029Y0091582D01*
X0044628Y0093181D02*
X0039033Y0093181D01*
X0039033Y0081991D02*
X0098894Y0081991D01*
X0096680Y0080393D02*
X0039033Y0080393D01*
X0039033Y0078794D02*
X0095860Y0078794D01*
X0095633Y0077196D02*
X0079952Y0077196D01*
X0080040Y0077159D02*
X0078331Y0077867D01*
X0076481Y0077867D01*
X0074772Y0077159D01*
X0073464Y0075851D01*
X0072756Y0074142D01*
X0072756Y0072292D01*
X0073464Y0070583D01*
X0074772Y0069275D01*
X0076481Y0068567D01*
X0078331Y0068567D01*
X0080040Y0069275D01*
X0081348Y0070583D01*
X0082056Y0072292D01*
X0082056Y0074142D01*
X0081348Y0075851D01*
X0080040Y0077159D01*
X0081454Y0075597D02*
X0095890Y0075597D01*
X0096755Y0073999D02*
X0082056Y0073999D01*
X0082056Y0072400D02*
X0099073Y0072400D01*
X0097589Y0070802D02*
X0081439Y0070802D01*
X0079867Y0069203D02*
X0096529Y0069203D01*
X0096133Y0067605D02*
X0045800Y0067605D01*
X0045690Y0067715D02*
X0043784Y0067715D01*
X0041879Y0067715D01*
X0039184Y0065020D01*
X0039184Y0063115D01*
X0043784Y0063115D01*
X0043784Y0063115D01*
X0039184Y0063115D01*
X0039184Y0061210D01*
X0041879Y0058515D01*
X0043784Y0058515D01*
X0043784Y0063115D01*
X0043784Y0067715D01*
X0043784Y0063115D01*
X0043784Y0063115D01*
X0043784Y0063115D01*
X0043784Y0058515D01*
X0045690Y0058515D01*
X0048384Y0061210D01*
X0048384Y0063115D01*
X0048384Y0065020D01*
X0045690Y0067715D01*
X0045178Y0068696D02*
X0047872Y0071391D01*
X0047872Y0073296D01*
X0043273Y0073296D01*
X0043273Y0073296D01*
X0047872Y0073296D01*
X0047872Y0075201D01*
X0045178Y0077896D01*
X0043272Y0077896D01*
X0043272Y0073296D01*
X0043272Y0073296D01*
X0043272Y0068696D01*
X0045178Y0068696D01*
X0045685Y0069203D02*
X0051426Y0069203D01*
X0051533Y0069096D02*
X0055012Y0069096D01*
X0057472Y0071556D01*
X0057472Y0075036D01*
X0055012Y0077496D01*
X0051533Y0077496D01*
X0049072Y0075036D01*
X0049072Y0071556D01*
X0051533Y0069096D01*
X0052045Y0067315D02*
X0049584Y0064855D01*
X0049584Y0061375D01*
X0052045Y0058915D01*
X0055524Y0058915D01*
X0057984Y0061375D01*
X0057984Y0064855D01*
X0055524Y0067315D01*
X0052045Y0067315D01*
X0050736Y0066006D02*
X0047398Y0066006D01*
X0048384Y0064408D02*
X0049584Y0064408D01*
X0049584Y0062809D02*
X0048384Y0062809D01*
X0048384Y0063115D02*
X0043784Y0063115D01*
X0048384Y0063115D01*
X0048384Y0061211D02*
X0049749Y0061211D01*
X0051347Y0059612D02*
X0046787Y0059612D01*
X0043784Y0059612D02*
X0043784Y0059612D01*
X0043784Y0061211D02*
X0043784Y0061211D01*
X0043784Y0062809D02*
X0043784Y0062809D01*
X0043784Y0063115D02*
X0043784Y0063115D01*
X0043784Y0064408D02*
X0043784Y0064408D01*
X0043784Y0066006D02*
X0043784Y0066006D01*
X0043784Y0067605D02*
X0043784Y0067605D01*
X0043272Y0069203D02*
X0043272Y0069203D01*
X0043272Y0070802D02*
X0043272Y0070802D01*
X0043272Y0072400D02*
X0043272Y0072400D01*
X0043272Y0073999D02*
X0043272Y0073999D01*
X0043272Y0075597D02*
X0043272Y0075597D01*
X0043272Y0077196D02*
X0043272Y0077196D01*
X0040667Y0077196D02*
X0039033Y0077196D01*
X0039033Y0075597D02*
X0039068Y0075597D01*
X0039033Y0070802D02*
X0039261Y0070802D01*
X0039033Y0069203D02*
X0040860Y0069203D01*
X0041769Y0067605D02*
X0039033Y0067605D01*
X0039033Y0066006D02*
X0040170Y0066006D01*
X0039184Y0064408D02*
X0039033Y0064408D01*
X0039033Y0062809D02*
X0039184Y0062809D01*
X0039184Y0061211D02*
X0039033Y0061211D01*
X0039033Y0059612D02*
X0040782Y0059612D01*
X0039033Y0058014D02*
X0105743Y0058014D01*
X0105633Y0056415D02*
X0080784Y0056415D01*
X0081777Y0054817D02*
X0106007Y0054817D01*
X0107035Y0053218D02*
X0082056Y0053218D01*
X0081778Y0051620D02*
X0109203Y0051620D01*
X0112263Y0051620D02*
X0125389Y0051620D01*
X0125467Y0053218D02*
X0114431Y0053218D01*
X0115459Y0054817D02*
X0126316Y0054817D01*
X0126353Y0059612D02*
X0115061Y0059612D01*
X0113250Y0061211D02*
X0125483Y0061211D01*
X0125389Y0062809D02*
X0103880Y0062809D01*
X0105583Y0064408D02*
X0125960Y0064408D01*
X0128046Y0066006D02*
X0106245Y0066006D01*
X0108216Y0061211D02*
X0057820Y0061211D01*
X0057984Y0062809D02*
X0098586Y0062809D01*
X0096883Y0064408D02*
X0057984Y0064408D01*
X0056833Y0066006D02*
X0096221Y0066006D01*
X0106405Y0059612D02*
X0056221Y0059612D01*
X0055119Y0069203D02*
X0074946Y0069203D01*
X0073374Y0070802D02*
X0056718Y0070802D01*
X0057472Y0072400D02*
X0072756Y0072400D01*
X0072756Y0073999D02*
X0057472Y0073999D01*
X0056911Y0075597D02*
X0073359Y0075597D01*
X0074860Y0077196D02*
X0055312Y0077196D01*
X0051233Y0077196D02*
X0045878Y0077196D01*
X0047477Y0075597D02*
X0049634Y0075597D01*
X0049072Y0073999D02*
X0047872Y0073999D01*
X0047872Y0072400D02*
X0049072Y0072400D01*
X0049827Y0070802D02*
X0047284Y0070802D01*
X0048650Y0105324D02*
X0045336Y0105324D01*
X0042993Y0107667D01*
X0042993Y0110980D01*
X0045336Y0113324D01*
X0048650Y0113324D01*
X0050993Y0110980D01*
X0050993Y0107667D01*
X0048650Y0105324D01*
X0049295Y0105969D02*
X0082944Y0105969D01*
X0082633Y0107568D02*
X0050894Y0107568D01*
X0050993Y0109166D02*
X0082806Y0109166D01*
X0083552Y0110765D02*
X0050993Y0110765D01*
X0049610Y0112363D02*
X0085584Y0112363D01*
X0089882Y0112363D02*
X0124989Y0112363D01*
X0124989Y0112233D02*
X0124989Y0112579D01*
X0125097Y0113263D01*
X0125311Y0113922D01*
X0125626Y0114539D01*
X0126033Y0115099D01*
X0126523Y0115589D01*
X0127083Y0115996D01*
X0127700Y0116311D01*
X0128359Y0116525D01*
X0129043Y0116633D01*
X0131989Y0116633D01*
X0131989Y0112233D01*
X0131989Y0112233D01*
X0124989Y0112233D01*
X0125240Y0110765D02*
X0091914Y0110765D01*
X0092660Y0109166D02*
X0126233Y0109166D01*
X0127956Y0105969D02*
X0092523Y0105969D01*
X0092833Y0107568D02*
X0193157Y0107568D01*
X0215647Y0105969D02*
X0215819Y0105969D01*
X0215819Y0104371D02*
X0215647Y0104371D01*
X0215647Y0102772D02*
X0215819Y0102772D01*
X0215819Y0101174D02*
X0215647Y0101174D01*
X0215647Y0099575D02*
X0215819Y0099575D01*
X0215819Y0097977D02*
X0215647Y0097977D01*
X0219232Y0097977D02*
X0222777Y0097977D01*
X0221314Y0099575D02*
X0220552Y0099575D01*
X0220817Y0104371D02*
X0221098Y0104371D01*
X0222257Y0105969D02*
X0219775Y0105969D01*
X0192747Y0137939D02*
X0113652Y0137939D01*
X0107814Y0137939D02*
X0101373Y0137939D01*
X0101373Y0139538D02*
X0106329Y0139538D01*
X0105667Y0141136D02*
X0099903Y0141136D01*
X0105633Y0142735D02*
X0061631Y0142735D01*
X0060872Y0144333D02*
X0106083Y0144333D01*
X0107219Y0145932D02*
X0059190Y0145932D01*
X0056543Y0145932D02*
X0056143Y0145932D01*
X0056143Y0144333D02*
X0056543Y0144333D01*
X0056543Y0142735D02*
X0056143Y0142735D01*
X0061583Y0139538D02*
X0092573Y0139538D01*
X0092573Y0137939D02*
X0060766Y0137939D01*
X0058903Y0136341D02*
X0092573Y0136341D01*
X0083215Y0133144D02*
X0076608Y0133144D01*
X0078614Y0131545D02*
X0081616Y0131545D01*
X0080902Y0129947D02*
X0079348Y0129947D01*
X0079514Y0128348D02*
X0080725Y0128348D01*
X0081021Y0126750D02*
X0079196Y0126750D01*
X0078246Y0125151D02*
X0081883Y0125151D01*
X0083883Y0104371D02*
X0039033Y0104371D01*
X0039033Y0105969D02*
X0044691Y0105969D01*
X0043092Y0107568D02*
X0039033Y0107568D01*
X0039033Y0109166D02*
X0042993Y0109166D01*
X0042993Y0110765D02*
X0039033Y0110765D01*
X0039033Y0112363D02*
X0044376Y0112363D01*
X0039033Y0113962D02*
X0125331Y0113962D01*
X0126493Y0115560D02*
X0039033Y0115560D01*
X0039033Y0117159D02*
X0053182Y0117159D01*
X0051839Y0118757D02*
X0039033Y0118757D01*
X0039033Y0120356D02*
X0051243Y0120356D01*
X0051243Y0121954D02*
X0039033Y0121954D01*
X0039033Y0123553D02*
X0051794Y0123553D01*
X0053073Y0125151D02*
X0039033Y0125151D01*
X0039033Y0126750D02*
X0053783Y0126750D01*
X0052008Y0128348D02*
X0039033Y0128348D01*
X0039033Y0129947D02*
X0051346Y0129947D01*
X0051243Y0131545D02*
X0039033Y0131545D01*
X0039033Y0133144D02*
X0051624Y0133144D01*
X0052664Y0134742D02*
X0039033Y0134742D01*
X0039033Y0136341D02*
X0053784Y0136341D01*
X0051921Y0137939D02*
X0039033Y0137939D01*
X0050973Y0153924D02*
X0072212Y0153924D01*
X0070211Y0155523D02*
X0050973Y0155523D01*
X0050973Y0157121D02*
X0069478Y0157121D01*
X0069314Y0158720D02*
X0049490Y0158720D01*
X0039033Y0168311D02*
X0092559Y0168311D01*
X0090470Y0169910D02*
X0039033Y0169910D01*
X0039033Y0171508D02*
X0044822Y0171508D01*
X0043224Y0173107D02*
X0039033Y0173107D01*
X0039033Y0174705D02*
X0042573Y0174705D01*
X0042573Y0176304D02*
X0039033Y0176304D01*
X0039033Y0177902D02*
X0043073Y0177902D01*
X0049275Y0179501D02*
X0090879Y0179501D01*
X0098343Y0179501D02*
X0126465Y0179501D01*
X0125529Y0181099D02*
X0099352Y0181099D01*
X0099711Y0182698D02*
X0125389Y0182698D01*
X0125914Y0184296D02*
X0099587Y0184296D01*
X0098910Y0185895D02*
X0127776Y0185895D01*
X0126204Y0174705D02*
X0099417Y0174705D01*
X0099711Y0173107D02*
X0125421Y0173107D01*
X0125389Y0171508D02*
X0099521Y0171508D01*
X0098752Y0169910D02*
X0126056Y0169910D01*
X0128405Y0168311D02*
X0096663Y0168311D01*
X0095316Y0161843D02*
X0092973Y0159500D01*
X0092973Y0156186D01*
X0095316Y0153843D01*
X0098630Y0153843D01*
X0100973Y0156186D01*
X0100973Y0159500D01*
X0098630Y0161843D01*
X0095316Y0161843D01*
X0093792Y0160318D02*
X0091006Y0160318D01*
X0091325Y0158720D02*
X0092973Y0158720D01*
X0092973Y0157121D02*
X0091161Y0157121D01*
X0090428Y0155523D02*
X0093637Y0155523D01*
X0095235Y0153924D02*
X0088428Y0153924D01*
X0084023Y0153924D02*
X0076617Y0153924D01*
X0078617Y0155523D02*
X0082022Y0155523D01*
X0081289Y0157121D02*
X0079350Y0157121D01*
X0079514Y0158720D02*
X0081125Y0158720D01*
X0081445Y0160318D02*
X0079195Y0160318D01*
X0078242Y0161917D02*
X0082397Y0161917D01*
X0090053Y0161917D02*
X0125389Y0161917D01*
X0125852Y0160318D02*
X0100155Y0160318D01*
X0100973Y0158720D02*
X0127418Y0158720D01*
X0109208Y0157121D02*
X0100973Y0157121D01*
X0100310Y0155523D02*
X0106810Y0155523D01*
X0105913Y0153924D02*
X0098711Y0153924D01*
X0098501Y0176304D02*
X0191535Y0176304D01*
X0191971Y0174705D02*
X0167774Y0174705D01*
X0168557Y0173107D02*
X0193088Y0173107D01*
X0168589Y0171508D02*
X0232283Y0171508D01*
X0232283Y0169910D02*
X0167922Y0169910D01*
X0165573Y0168311D02*
X0232283Y0168311D01*
X0169118Y0197084D02*
X0161726Y0197084D01*
X0160234Y0195486D02*
X0166773Y0195486D01*
X0152987Y0216266D02*
X0130479Y0216266D01*
X0131479Y0217865D02*
X0151987Y0217865D01*
X0151633Y0219463D02*
X0131833Y0219463D01*
X0131703Y0221062D02*
X0151763Y0221062D01*
X0152448Y0222660D02*
X0131018Y0222660D01*
X0129134Y0224259D02*
X0154332Y0224259D01*
X0131989Y0115560D02*
X0131989Y0115560D01*
X0131989Y0113962D02*
X0131989Y0113962D01*
X0131989Y0112363D02*
X0131989Y0112363D01*
X0131989Y0112233D02*
X0131989Y0112233D01*
X0131989Y0110765D02*
X0131989Y0110765D01*
X0131989Y0109166D02*
X0131989Y0109166D01*
X0125945Y0104371D02*
X0091583Y0104371D01*
X0106407Y0102772D02*
X0125389Y0102772D01*
X0125498Y0101174D02*
X0107742Y0101174D01*
X0108333Y0099575D02*
X0126390Y0099575D01*
X0126279Y0094779D02*
X0106492Y0094779D01*
X0102572Y0081991D02*
X0125389Y0081991D01*
X0125822Y0080393D02*
X0104786Y0080393D01*
X0114657Y0050021D02*
X0125976Y0050021D01*
X0128136Y0048423D02*
X0115553Y0048423D01*
X0043797Y0195486D02*
X0039033Y0195486D01*
X0039033Y0197084D02*
X0042455Y0197084D01*
X0042455Y0198683D02*
X0039033Y0198683D01*
X0039033Y0200281D02*
X0042455Y0200281D01*
M02*
