G75*
%MOIN*%
%OFA0B0*%
%FSLAX25Y25*%
%IPPOS*%
%LPD*%
%AMOC8*
5,1,8,0,0,1.08239X$1,22.5*
%
%ADD10C,0.00000*%
%ADD11C,0.05200*%
%ADD12OC8,0.05200*%
%ADD13OC8,0.05600*%
%ADD14C,0.06500*%
%ADD15C,0.07400*%
%ADD16R,0.07400X0.07400*%
%ADD17C,0.01600*%
%ADD18C,0.02400*%
D10*
X0037233Y0047233D02*
X0037233Y0224083D01*
X0037236Y0224325D01*
X0037245Y0224566D01*
X0037259Y0224807D01*
X0037280Y0225048D01*
X0037306Y0225288D01*
X0037338Y0225528D01*
X0037376Y0225767D01*
X0037419Y0226004D01*
X0037469Y0226241D01*
X0037524Y0226476D01*
X0037584Y0226710D01*
X0037651Y0226942D01*
X0037722Y0227173D01*
X0037800Y0227402D01*
X0037883Y0227629D01*
X0037971Y0227854D01*
X0038065Y0228077D01*
X0038164Y0228297D01*
X0038269Y0228515D01*
X0038378Y0228730D01*
X0038493Y0228943D01*
X0038613Y0229153D01*
X0038738Y0229359D01*
X0038868Y0229563D01*
X0039003Y0229764D01*
X0039143Y0229961D01*
X0039287Y0230155D01*
X0039436Y0230345D01*
X0039590Y0230531D01*
X0039748Y0230714D01*
X0039910Y0230893D01*
X0040077Y0231068D01*
X0040248Y0231239D01*
X0040423Y0231406D01*
X0040602Y0231568D01*
X0040785Y0231726D01*
X0040971Y0231880D01*
X0041161Y0232029D01*
X0041355Y0232173D01*
X0041552Y0232313D01*
X0041753Y0232448D01*
X0041957Y0232578D01*
X0042163Y0232703D01*
X0042373Y0232823D01*
X0042586Y0232938D01*
X0042801Y0233047D01*
X0043019Y0233152D01*
X0043239Y0233251D01*
X0043462Y0233345D01*
X0043687Y0233433D01*
X0043914Y0233516D01*
X0044143Y0233594D01*
X0044374Y0233665D01*
X0044606Y0233732D01*
X0044840Y0233792D01*
X0045075Y0233847D01*
X0045312Y0233897D01*
X0045549Y0233940D01*
X0045788Y0233978D01*
X0046028Y0234010D01*
X0046268Y0234036D01*
X0046509Y0234057D01*
X0046750Y0234071D01*
X0046991Y0234080D01*
X0047233Y0234083D01*
X0224083Y0234083D01*
X0219296Y0224733D02*
X0219298Y0224858D01*
X0219304Y0224983D01*
X0219314Y0225107D01*
X0219328Y0225231D01*
X0219345Y0225355D01*
X0219367Y0225478D01*
X0219393Y0225600D01*
X0219422Y0225722D01*
X0219455Y0225842D01*
X0219493Y0225961D01*
X0219533Y0226080D01*
X0219578Y0226196D01*
X0219626Y0226311D01*
X0219678Y0226425D01*
X0219734Y0226537D01*
X0219793Y0226647D01*
X0219855Y0226755D01*
X0219921Y0226862D01*
X0219990Y0226966D01*
X0220063Y0227067D01*
X0220138Y0227167D01*
X0220217Y0227264D01*
X0220299Y0227358D01*
X0220384Y0227450D01*
X0220471Y0227539D01*
X0220562Y0227625D01*
X0220655Y0227708D01*
X0220751Y0227789D01*
X0220849Y0227866D01*
X0220949Y0227940D01*
X0221052Y0228011D01*
X0221157Y0228078D01*
X0221265Y0228143D01*
X0221374Y0228203D01*
X0221485Y0228261D01*
X0221598Y0228314D01*
X0221712Y0228364D01*
X0221828Y0228411D01*
X0221945Y0228453D01*
X0222064Y0228492D01*
X0222184Y0228528D01*
X0222305Y0228559D01*
X0222427Y0228587D01*
X0222549Y0228610D01*
X0222673Y0228630D01*
X0222797Y0228646D01*
X0222921Y0228658D01*
X0223046Y0228666D01*
X0223171Y0228670D01*
X0223295Y0228670D01*
X0223420Y0228666D01*
X0223545Y0228658D01*
X0223669Y0228646D01*
X0223793Y0228630D01*
X0223917Y0228610D01*
X0224039Y0228587D01*
X0224161Y0228559D01*
X0224282Y0228528D01*
X0224402Y0228492D01*
X0224521Y0228453D01*
X0224638Y0228411D01*
X0224754Y0228364D01*
X0224868Y0228314D01*
X0224981Y0228261D01*
X0225092Y0228203D01*
X0225202Y0228143D01*
X0225309Y0228078D01*
X0225414Y0228011D01*
X0225517Y0227940D01*
X0225617Y0227866D01*
X0225715Y0227789D01*
X0225811Y0227708D01*
X0225904Y0227625D01*
X0225995Y0227539D01*
X0226082Y0227450D01*
X0226167Y0227358D01*
X0226249Y0227264D01*
X0226328Y0227167D01*
X0226403Y0227067D01*
X0226476Y0226966D01*
X0226545Y0226862D01*
X0226611Y0226755D01*
X0226673Y0226647D01*
X0226732Y0226537D01*
X0226788Y0226425D01*
X0226840Y0226311D01*
X0226888Y0226196D01*
X0226933Y0226080D01*
X0226973Y0225961D01*
X0227011Y0225842D01*
X0227044Y0225722D01*
X0227073Y0225600D01*
X0227099Y0225478D01*
X0227121Y0225355D01*
X0227138Y0225231D01*
X0227152Y0225107D01*
X0227162Y0224983D01*
X0227168Y0224858D01*
X0227170Y0224733D01*
X0227168Y0224608D01*
X0227162Y0224483D01*
X0227152Y0224359D01*
X0227138Y0224235D01*
X0227121Y0224111D01*
X0227099Y0223988D01*
X0227073Y0223866D01*
X0227044Y0223744D01*
X0227011Y0223624D01*
X0226973Y0223505D01*
X0226933Y0223386D01*
X0226888Y0223270D01*
X0226840Y0223155D01*
X0226788Y0223041D01*
X0226732Y0222929D01*
X0226673Y0222819D01*
X0226611Y0222711D01*
X0226545Y0222604D01*
X0226476Y0222500D01*
X0226403Y0222399D01*
X0226328Y0222299D01*
X0226249Y0222202D01*
X0226167Y0222108D01*
X0226082Y0222016D01*
X0225995Y0221927D01*
X0225904Y0221841D01*
X0225811Y0221758D01*
X0225715Y0221677D01*
X0225617Y0221600D01*
X0225517Y0221526D01*
X0225414Y0221455D01*
X0225309Y0221388D01*
X0225201Y0221323D01*
X0225092Y0221263D01*
X0224981Y0221205D01*
X0224868Y0221152D01*
X0224754Y0221102D01*
X0224638Y0221055D01*
X0224521Y0221013D01*
X0224402Y0220974D01*
X0224282Y0220938D01*
X0224161Y0220907D01*
X0224039Y0220879D01*
X0223917Y0220856D01*
X0223793Y0220836D01*
X0223669Y0220820D01*
X0223545Y0220808D01*
X0223420Y0220800D01*
X0223295Y0220796D01*
X0223171Y0220796D01*
X0223046Y0220800D01*
X0222921Y0220808D01*
X0222797Y0220820D01*
X0222673Y0220836D01*
X0222549Y0220856D01*
X0222427Y0220879D01*
X0222305Y0220907D01*
X0222184Y0220938D01*
X0222064Y0220974D01*
X0221945Y0221013D01*
X0221828Y0221055D01*
X0221712Y0221102D01*
X0221598Y0221152D01*
X0221485Y0221205D01*
X0221374Y0221263D01*
X0221264Y0221323D01*
X0221157Y0221388D01*
X0221052Y0221455D01*
X0220949Y0221526D01*
X0220849Y0221600D01*
X0220751Y0221677D01*
X0220655Y0221758D01*
X0220562Y0221841D01*
X0220471Y0221927D01*
X0220384Y0222016D01*
X0220299Y0222108D01*
X0220217Y0222202D01*
X0220138Y0222299D01*
X0220063Y0222399D01*
X0219990Y0222500D01*
X0219921Y0222604D01*
X0219855Y0222711D01*
X0219793Y0222819D01*
X0219734Y0222929D01*
X0219678Y0223041D01*
X0219626Y0223155D01*
X0219578Y0223270D01*
X0219533Y0223386D01*
X0219493Y0223505D01*
X0219455Y0223624D01*
X0219422Y0223744D01*
X0219393Y0223866D01*
X0219367Y0223988D01*
X0219345Y0224111D01*
X0219328Y0224235D01*
X0219314Y0224359D01*
X0219304Y0224483D01*
X0219298Y0224608D01*
X0219296Y0224733D01*
X0224083Y0234083D02*
X0224325Y0234080D01*
X0224566Y0234071D01*
X0224807Y0234057D01*
X0225048Y0234036D01*
X0225288Y0234010D01*
X0225528Y0233978D01*
X0225767Y0233940D01*
X0226004Y0233897D01*
X0226241Y0233847D01*
X0226476Y0233792D01*
X0226710Y0233732D01*
X0226942Y0233665D01*
X0227173Y0233594D01*
X0227402Y0233516D01*
X0227629Y0233433D01*
X0227854Y0233345D01*
X0228077Y0233251D01*
X0228297Y0233152D01*
X0228515Y0233047D01*
X0228730Y0232938D01*
X0228943Y0232823D01*
X0229153Y0232703D01*
X0229359Y0232578D01*
X0229563Y0232448D01*
X0229764Y0232313D01*
X0229961Y0232173D01*
X0230155Y0232029D01*
X0230345Y0231880D01*
X0230531Y0231726D01*
X0230714Y0231568D01*
X0230893Y0231406D01*
X0231068Y0231239D01*
X0231239Y0231068D01*
X0231406Y0230893D01*
X0231568Y0230714D01*
X0231726Y0230531D01*
X0231880Y0230345D01*
X0232029Y0230155D01*
X0232173Y0229961D01*
X0232313Y0229764D01*
X0232448Y0229563D01*
X0232578Y0229359D01*
X0232703Y0229153D01*
X0232823Y0228943D01*
X0232938Y0228730D01*
X0233047Y0228515D01*
X0233152Y0228297D01*
X0233251Y0228077D01*
X0233345Y0227854D01*
X0233433Y0227629D01*
X0233516Y0227402D01*
X0233594Y0227173D01*
X0233665Y0226942D01*
X0233732Y0226710D01*
X0233792Y0226476D01*
X0233847Y0226241D01*
X0233897Y0226004D01*
X0233940Y0225767D01*
X0233978Y0225528D01*
X0234010Y0225288D01*
X0234036Y0225048D01*
X0234057Y0224807D01*
X0234071Y0224566D01*
X0234080Y0224325D01*
X0234083Y0224083D01*
X0234083Y0047233D01*
X0234080Y0046991D01*
X0234071Y0046750D01*
X0234057Y0046509D01*
X0234036Y0046268D01*
X0234010Y0046028D01*
X0233978Y0045788D01*
X0233940Y0045549D01*
X0233897Y0045312D01*
X0233847Y0045075D01*
X0233792Y0044840D01*
X0233732Y0044606D01*
X0233665Y0044374D01*
X0233594Y0044143D01*
X0233516Y0043914D01*
X0233433Y0043687D01*
X0233345Y0043462D01*
X0233251Y0043239D01*
X0233152Y0043019D01*
X0233047Y0042801D01*
X0232938Y0042586D01*
X0232823Y0042373D01*
X0232703Y0042163D01*
X0232578Y0041957D01*
X0232448Y0041753D01*
X0232313Y0041552D01*
X0232173Y0041355D01*
X0232029Y0041161D01*
X0231880Y0040971D01*
X0231726Y0040785D01*
X0231568Y0040602D01*
X0231406Y0040423D01*
X0231239Y0040248D01*
X0231068Y0040077D01*
X0230893Y0039910D01*
X0230714Y0039748D01*
X0230531Y0039590D01*
X0230345Y0039436D01*
X0230155Y0039287D01*
X0229961Y0039143D01*
X0229764Y0039003D01*
X0229563Y0038868D01*
X0229359Y0038738D01*
X0229153Y0038613D01*
X0228943Y0038493D01*
X0228730Y0038378D01*
X0228515Y0038269D01*
X0228297Y0038164D01*
X0228077Y0038065D01*
X0227854Y0037971D01*
X0227629Y0037883D01*
X0227402Y0037800D01*
X0227173Y0037722D01*
X0226942Y0037651D01*
X0226710Y0037584D01*
X0226476Y0037524D01*
X0226241Y0037469D01*
X0226004Y0037419D01*
X0225767Y0037376D01*
X0225528Y0037338D01*
X0225288Y0037306D01*
X0225048Y0037280D01*
X0224807Y0037259D01*
X0224566Y0037245D01*
X0224325Y0037236D01*
X0224083Y0037233D01*
X0047233Y0037233D01*
X0043296Y0047233D02*
X0043298Y0047358D01*
X0043304Y0047483D01*
X0043314Y0047607D01*
X0043328Y0047731D01*
X0043345Y0047855D01*
X0043367Y0047978D01*
X0043393Y0048100D01*
X0043422Y0048222D01*
X0043455Y0048342D01*
X0043493Y0048461D01*
X0043533Y0048580D01*
X0043578Y0048696D01*
X0043626Y0048811D01*
X0043678Y0048925D01*
X0043734Y0049037D01*
X0043793Y0049147D01*
X0043855Y0049255D01*
X0043921Y0049362D01*
X0043990Y0049466D01*
X0044063Y0049567D01*
X0044138Y0049667D01*
X0044217Y0049764D01*
X0044299Y0049858D01*
X0044384Y0049950D01*
X0044471Y0050039D01*
X0044562Y0050125D01*
X0044655Y0050208D01*
X0044751Y0050289D01*
X0044849Y0050366D01*
X0044949Y0050440D01*
X0045052Y0050511D01*
X0045157Y0050578D01*
X0045265Y0050643D01*
X0045374Y0050703D01*
X0045485Y0050761D01*
X0045598Y0050814D01*
X0045712Y0050864D01*
X0045828Y0050911D01*
X0045945Y0050953D01*
X0046064Y0050992D01*
X0046184Y0051028D01*
X0046305Y0051059D01*
X0046427Y0051087D01*
X0046549Y0051110D01*
X0046673Y0051130D01*
X0046797Y0051146D01*
X0046921Y0051158D01*
X0047046Y0051166D01*
X0047171Y0051170D01*
X0047295Y0051170D01*
X0047420Y0051166D01*
X0047545Y0051158D01*
X0047669Y0051146D01*
X0047793Y0051130D01*
X0047917Y0051110D01*
X0048039Y0051087D01*
X0048161Y0051059D01*
X0048282Y0051028D01*
X0048402Y0050992D01*
X0048521Y0050953D01*
X0048638Y0050911D01*
X0048754Y0050864D01*
X0048868Y0050814D01*
X0048981Y0050761D01*
X0049092Y0050703D01*
X0049202Y0050643D01*
X0049309Y0050578D01*
X0049414Y0050511D01*
X0049517Y0050440D01*
X0049617Y0050366D01*
X0049715Y0050289D01*
X0049811Y0050208D01*
X0049904Y0050125D01*
X0049995Y0050039D01*
X0050082Y0049950D01*
X0050167Y0049858D01*
X0050249Y0049764D01*
X0050328Y0049667D01*
X0050403Y0049567D01*
X0050476Y0049466D01*
X0050545Y0049362D01*
X0050611Y0049255D01*
X0050673Y0049147D01*
X0050732Y0049037D01*
X0050788Y0048925D01*
X0050840Y0048811D01*
X0050888Y0048696D01*
X0050933Y0048580D01*
X0050973Y0048461D01*
X0051011Y0048342D01*
X0051044Y0048222D01*
X0051073Y0048100D01*
X0051099Y0047978D01*
X0051121Y0047855D01*
X0051138Y0047731D01*
X0051152Y0047607D01*
X0051162Y0047483D01*
X0051168Y0047358D01*
X0051170Y0047233D01*
X0051168Y0047108D01*
X0051162Y0046983D01*
X0051152Y0046859D01*
X0051138Y0046735D01*
X0051121Y0046611D01*
X0051099Y0046488D01*
X0051073Y0046366D01*
X0051044Y0046244D01*
X0051011Y0046124D01*
X0050973Y0046005D01*
X0050933Y0045886D01*
X0050888Y0045770D01*
X0050840Y0045655D01*
X0050788Y0045541D01*
X0050732Y0045429D01*
X0050673Y0045319D01*
X0050611Y0045211D01*
X0050545Y0045104D01*
X0050476Y0045000D01*
X0050403Y0044899D01*
X0050328Y0044799D01*
X0050249Y0044702D01*
X0050167Y0044608D01*
X0050082Y0044516D01*
X0049995Y0044427D01*
X0049904Y0044341D01*
X0049811Y0044258D01*
X0049715Y0044177D01*
X0049617Y0044100D01*
X0049517Y0044026D01*
X0049414Y0043955D01*
X0049309Y0043888D01*
X0049201Y0043823D01*
X0049092Y0043763D01*
X0048981Y0043705D01*
X0048868Y0043652D01*
X0048754Y0043602D01*
X0048638Y0043555D01*
X0048521Y0043513D01*
X0048402Y0043474D01*
X0048282Y0043438D01*
X0048161Y0043407D01*
X0048039Y0043379D01*
X0047917Y0043356D01*
X0047793Y0043336D01*
X0047669Y0043320D01*
X0047545Y0043308D01*
X0047420Y0043300D01*
X0047295Y0043296D01*
X0047171Y0043296D01*
X0047046Y0043300D01*
X0046921Y0043308D01*
X0046797Y0043320D01*
X0046673Y0043336D01*
X0046549Y0043356D01*
X0046427Y0043379D01*
X0046305Y0043407D01*
X0046184Y0043438D01*
X0046064Y0043474D01*
X0045945Y0043513D01*
X0045828Y0043555D01*
X0045712Y0043602D01*
X0045598Y0043652D01*
X0045485Y0043705D01*
X0045374Y0043763D01*
X0045264Y0043823D01*
X0045157Y0043888D01*
X0045052Y0043955D01*
X0044949Y0044026D01*
X0044849Y0044100D01*
X0044751Y0044177D01*
X0044655Y0044258D01*
X0044562Y0044341D01*
X0044471Y0044427D01*
X0044384Y0044516D01*
X0044299Y0044608D01*
X0044217Y0044702D01*
X0044138Y0044799D01*
X0044063Y0044899D01*
X0043990Y0045000D01*
X0043921Y0045104D01*
X0043855Y0045211D01*
X0043793Y0045319D01*
X0043734Y0045429D01*
X0043678Y0045541D01*
X0043626Y0045655D01*
X0043578Y0045770D01*
X0043533Y0045886D01*
X0043493Y0046005D01*
X0043455Y0046124D01*
X0043422Y0046244D01*
X0043393Y0046366D01*
X0043367Y0046488D01*
X0043345Y0046611D01*
X0043328Y0046735D01*
X0043314Y0046859D01*
X0043304Y0046983D01*
X0043298Y0047108D01*
X0043296Y0047233D01*
X0037233Y0047233D02*
X0037236Y0046991D01*
X0037245Y0046750D01*
X0037259Y0046509D01*
X0037280Y0046268D01*
X0037306Y0046028D01*
X0037338Y0045788D01*
X0037376Y0045549D01*
X0037419Y0045312D01*
X0037469Y0045075D01*
X0037524Y0044840D01*
X0037584Y0044606D01*
X0037651Y0044374D01*
X0037722Y0044143D01*
X0037800Y0043914D01*
X0037883Y0043687D01*
X0037971Y0043462D01*
X0038065Y0043239D01*
X0038164Y0043019D01*
X0038269Y0042801D01*
X0038378Y0042586D01*
X0038493Y0042373D01*
X0038613Y0042163D01*
X0038738Y0041957D01*
X0038868Y0041753D01*
X0039003Y0041552D01*
X0039143Y0041355D01*
X0039287Y0041161D01*
X0039436Y0040971D01*
X0039590Y0040785D01*
X0039748Y0040602D01*
X0039910Y0040423D01*
X0040077Y0040248D01*
X0040248Y0040077D01*
X0040423Y0039910D01*
X0040602Y0039748D01*
X0040785Y0039590D01*
X0040971Y0039436D01*
X0041161Y0039287D01*
X0041355Y0039143D01*
X0041552Y0039003D01*
X0041753Y0038868D01*
X0041957Y0038738D01*
X0042163Y0038613D01*
X0042373Y0038493D01*
X0042586Y0038378D01*
X0042801Y0038269D01*
X0043019Y0038164D01*
X0043239Y0038065D01*
X0043462Y0037971D01*
X0043687Y0037883D01*
X0043914Y0037800D01*
X0044143Y0037722D01*
X0044374Y0037651D01*
X0044606Y0037584D01*
X0044840Y0037524D01*
X0045075Y0037469D01*
X0045312Y0037419D01*
X0045549Y0037376D01*
X0045788Y0037338D01*
X0046028Y0037306D01*
X0046268Y0037280D01*
X0046509Y0037259D01*
X0046750Y0037245D01*
X0046991Y0037236D01*
X0047233Y0037233D01*
X0043796Y0224733D02*
X0043798Y0224858D01*
X0043804Y0224983D01*
X0043814Y0225107D01*
X0043828Y0225231D01*
X0043845Y0225355D01*
X0043867Y0225478D01*
X0043893Y0225600D01*
X0043922Y0225722D01*
X0043955Y0225842D01*
X0043993Y0225961D01*
X0044033Y0226080D01*
X0044078Y0226196D01*
X0044126Y0226311D01*
X0044178Y0226425D01*
X0044234Y0226537D01*
X0044293Y0226647D01*
X0044355Y0226755D01*
X0044421Y0226862D01*
X0044490Y0226966D01*
X0044563Y0227067D01*
X0044638Y0227167D01*
X0044717Y0227264D01*
X0044799Y0227358D01*
X0044884Y0227450D01*
X0044971Y0227539D01*
X0045062Y0227625D01*
X0045155Y0227708D01*
X0045251Y0227789D01*
X0045349Y0227866D01*
X0045449Y0227940D01*
X0045552Y0228011D01*
X0045657Y0228078D01*
X0045765Y0228143D01*
X0045874Y0228203D01*
X0045985Y0228261D01*
X0046098Y0228314D01*
X0046212Y0228364D01*
X0046328Y0228411D01*
X0046445Y0228453D01*
X0046564Y0228492D01*
X0046684Y0228528D01*
X0046805Y0228559D01*
X0046927Y0228587D01*
X0047049Y0228610D01*
X0047173Y0228630D01*
X0047297Y0228646D01*
X0047421Y0228658D01*
X0047546Y0228666D01*
X0047671Y0228670D01*
X0047795Y0228670D01*
X0047920Y0228666D01*
X0048045Y0228658D01*
X0048169Y0228646D01*
X0048293Y0228630D01*
X0048417Y0228610D01*
X0048539Y0228587D01*
X0048661Y0228559D01*
X0048782Y0228528D01*
X0048902Y0228492D01*
X0049021Y0228453D01*
X0049138Y0228411D01*
X0049254Y0228364D01*
X0049368Y0228314D01*
X0049481Y0228261D01*
X0049592Y0228203D01*
X0049702Y0228143D01*
X0049809Y0228078D01*
X0049914Y0228011D01*
X0050017Y0227940D01*
X0050117Y0227866D01*
X0050215Y0227789D01*
X0050311Y0227708D01*
X0050404Y0227625D01*
X0050495Y0227539D01*
X0050582Y0227450D01*
X0050667Y0227358D01*
X0050749Y0227264D01*
X0050828Y0227167D01*
X0050903Y0227067D01*
X0050976Y0226966D01*
X0051045Y0226862D01*
X0051111Y0226755D01*
X0051173Y0226647D01*
X0051232Y0226537D01*
X0051288Y0226425D01*
X0051340Y0226311D01*
X0051388Y0226196D01*
X0051433Y0226080D01*
X0051473Y0225961D01*
X0051511Y0225842D01*
X0051544Y0225722D01*
X0051573Y0225600D01*
X0051599Y0225478D01*
X0051621Y0225355D01*
X0051638Y0225231D01*
X0051652Y0225107D01*
X0051662Y0224983D01*
X0051668Y0224858D01*
X0051670Y0224733D01*
X0051668Y0224608D01*
X0051662Y0224483D01*
X0051652Y0224359D01*
X0051638Y0224235D01*
X0051621Y0224111D01*
X0051599Y0223988D01*
X0051573Y0223866D01*
X0051544Y0223744D01*
X0051511Y0223624D01*
X0051473Y0223505D01*
X0051433Y0223386D01*
X0051388Y0223270D01*
X0051340Y0223155D01*
X0051288Y0223041D01*
X0051232Y0222929D01*
X0051173Y0222819D01*
X0051111Y0222711D01*
X0051045Y0222604D01*
X0050976Y0222500D01*
X0050903Y0222399D01*
X0050828Y0222299D01*
X0050749Y0222202D01*
X0050667Y0222108D01*
X0050582Y0222016D01*
X0050495Y0221927D01*
X0050404Y0221841D01*
X0050311Y0221758D01*
X0050215Y0221677D01*
X0050117Y0221600D01*
X0050017Y0221526D01*
X0049914Y0221455D01*
X0049809Y0221388D01*
X0049701Y0221323D01*
X0049592Y0221263D01*
X0049481Y0221205D01*
X0049368Y0221152D01*
X0049254Y0221102D01*
X0049138Y0221055D01*
X0049021Y0221013D01*
X0048902Y0220974D01*
X0048782Y0220938D01*
X0048661Y0220907D01*
X0048539Y0220879D01*
X0048417Y0220856D01*
X0048293Y0220836D01*
X0048169Y0220820D01*
X0048045Y0220808D01*
X0047920Y0220800D01*
X0047795Y0220796D01*
X0047671Y0220796D01*
X0047546Y0220800D01*
X0047421Y0220808D01*
X0047297Y0220820D01*
X0047173Y0220836D01*
X0047049Y0220856D01*
X0046927Y0220879D01*
X0046805Y0220907D01*
X0046684Y0220938D01*
X0046564Y0220974D01*
X0046445Y0221013D01*
X0046328Y0221055D01*
X0046212Y0221102D01*
X0046098Y0221152D01*
X0045985Y0221205D01*
X0045874Y0221263D01*
X0045764Y0221323D01*
X0045657Y0221388D01*
X0045552Y0221455D01*
X0045449Y0221526D01*
X0045349Y0221600D01*
X0045251Y0221677D01*
X0045155Y0221758D01*
X0045062Y0221841D01*
X0044971Y0221927D01*
X0044884Y0222016D01*
X0044799Y0222108D01*
X0044717Y0222202D01*
X0044638Y0222299D01*
X0044563Y0222399D01*
X0044490Y0222500D01*
X0044421Y0222604D01*
X0044355Y0222711D01*
X0044293Y0222819D01*
X0044234Y0222929D01*
X0044178Y0223041D01*
X0044126Y0223155D01*
X0044078Y0223270D01*
X0044033Y0223386D01*
X0043993Y0223505D01*
X0043955Y0223624D01*
X0043922Y0223744D01*
X0043893Y0223866D01*
X0043867Y0223988D01*
X0043845Y0224111D01*
X0043828Y0224235D01*
X0043814Y0224359D01*
X0043804Y0224483D01*
X0043798Y0224608D01*
X0043796Y0224733D01*
D11*
X0129389Y0182233D02*
X0134589Y0182233D01*
X0134589Y0172233D02*
X0129389Y0172233D01*
X0129389Y0162233D02*
X0134589Y0162233D01*
X0134589Y0152233D02*
X0129389Y0152233D01*
X0129389Y0142233D02*
X0134589Y0142233D01*
X0134589Y0132233D02*
X0129389Y0132233D01*
X0129389Y0122233D02*
X0134589Y0122233D01*
X0134589Y0112233D02*
X0129389Y0112233D01*
X0129389Y0102233D02*
X0134589Y0102233D01*
X0134589Y0092233D02*
X0129389Y0092233D01*
X0129389Y0082233D02*
X0134589Y0082233D01*
X0134589Y0072233D02*
X0129389Y0072233D01*
X0129389Y0062233D02*
X0134589Y0062233D01*
X0134589Y0052233D02*
X0129389Y0052233D01*
X0159389Y0052233D02*
X0164589Y0052233D01*
X0164589Y0062233D02*
X0159389Y0062233D01*
X0159389Y0072233D02*
X0164589Y0072233D01*
X0164589Y0082233D02*
X0159389Y0082233D01*
X0159389Y0092233D02*
X0164589Y0092233D01*
X0164589Y0102233D02*
X0159389Y0102233D01*
X0159389Y0112233D02*
X0164589Y0112233D01*
X0164589Y0122233D02*
X0159389Y0122233D01*
X0159389Y0132233D02*
X0164589Y0132233D01*
X0164589Y0142233D02*
X0159389Y0142233D01*
X0159389Y0152233D02*
X0164589Y0152233D01*
X0164589Y0162233D02*
X0159389Y0162233D01*
X0159389Y0172233D02*
X0164589Y0172233D01*
X0164589Y0182233D02*
X0159389Y0182233D01*
D12*
X0096973Y0157843D03*
X0096973Y0137843D03*
X0046973Y0155580D03*
X0046973Y0175580D03*
X0046855Y0198650D03*
X0066855Y0198650D03*
X0046993Y0109324D03*
X0046993Y0089324D03*
D13*
X0043272Y0073296D03*
X0053272Y0073296D03*
X0053784Y0063115D03*
X0043784Y0063115D03*
D14*
X0077406Y0053217D03*
X0077406Y0073217D03*
D15*
X0100733Y0077233D03*
X0101233Y0067233D03*
X0110733Y0056733D03*
X0110733Y0046733D03*
X0103233Y0098733D03*
X0087733Y0097733D03*
X0087733Y0107733D03*
X0086225Y0128532D03*
X0074414Y0128532D03*
X0056343Y0131209D03*
X0056343Y0141209D03*
X0056343Y0121209D03*
X0074414Y0158532D03*
X0086225Y0158532D03*
X0094611Y0172981D03*
X0094611Y0182981D03*
X0094611Y0192981D03*
X0093115Y0212036D03*
X0093115Y0222036D03*
X0126733Y0219733D03*
X0126733Y0209733D03*
X0127328Y0199792D03*
X0156733Y0209733D03*
X0157328Y0199792D03*
X0170733Y0192233D03*
X0196635Y0196772D03*
X0196635Y0186772D03*
X0196635Y0176772D03*
X0195981Y0161918D03*
X0195981Y0151918D03*
X0195981Y0141918D03*
X0195981Y0131918D03*
X0195981Y0121918D03*
X0195981Y0111918D03*
X0215733Y0102233D03*
X0225733Y0102233D03*
X0221461Y0084477D03*
X0221461Y0072666D03*
X0221461Y0060855D03*
X0221461Y0049044D03*
X0191461Y0049044D03*
X0191461Y0060855D03*
X0191461Y0072666D03*
X0191461Y0084477D03*
X0178902Y0082981D03*
X0178902Y0072981D03*
X0178902Y0062981D03*
X0215733Y0132233D03*
X0225733Y0132233D03*
X0196635Y0206772D03*
X0196635Y0216772D03*
X0196635Y0226772D03*
X0156733Y0219733D03*
X0110733Y0152233D03*
X0110733Y0142233D03*
X0103233Y0128733D03*
D16*
X0178902Y0052981D03*
D17*
X0041435Y0041435D02*
X0039927Y0043510D01*
X0039134Y0045950D01*
X0039033Y0047233D01*
X0039033Y0071030D01*
X0041367Y0068696D01*
X0043272Y0068696D01*
X0043272Y0073296D01*
X0043272Y0073296D01*
X0043272Y0077896D01*
X0041367Y0077896D01*
X0039033Y0075562D01*
X0039033Y0224083D01*
X0039134Y0225366D01*
X0039927Y0227806D01*
X0041435Y0229882D01*
X0043510Y0231390D01*
X0045950Y0232183D01*
X0047233Y0232283D01*
X0224083Y0232283D01*
X0225366Y0232183D01*
X0227806Y0231390D01*
X0229882Y0229882D01*
X0231390Y0227806D01*
X0232183Y0225366D01*
X0232283Y0224083D01*
X0232283Y0047233D01*
X0232183Y0045950D01*
X0231390Y0043510D01*
X0229882Y0041435D01*
X0227806Y0039927D01*
X0225366Y0039134D01*
X0224083Y0039033D01*
X0047233Y0039033D01*
X0045950Y0039134D01*
X0043510Y0039927D01*
X0041435Y0041435D01*
X0041003Y0042029D02*
X0044806Y0042029D01*
X0043983Y0042369D02*
X0046092Y0041496D01*
X0048374Y0041496D01*
X0050483Y0042369D01*
X0052097Y0043983D01*
X0052970Y0046092D01*
X0052970Y0048374D01*
X0052097Y0050483D01*
X0050483Y0052097D01*
X0048374Y0052970D01*
X0046092Y0052970D01*
X0043983Y0052097D01*
X0042369Y0050483D01*
X0041496Y0048374D01*
X0041496Y0046092D01*
X0042369Y0043983D01*
X0043983Y0042369D01*
X0042726Y0043627D02*
X0039889Y0043627D01*
X0039369Y0045226D02*
X0041855Y0045226D01*
X0041496Y0046824D02*
X0039065Y0046824D01*
X0039033Y0048423D02*
X0041516Y0048423D01*
X0042178Y0050021D02*
X0039033Y0050021D01*
X0039033Y0051620D02*
X0043506Y0051620D01*
X0039033Y0053218D02*
X0072756Y0053218D01*
X0072756Y0054142D02*
X0072756Y0052292D01*
X0073464Y0050583D01*
X0074772Y0049275D01*
X0076481Y0048567D01*
X0078331Y0048567D01*
X0080040Y0049275D01*
X0081348Y0050583D01*
X0081709Y0051453D01*
X0082429Y0051687D01*
X0085229Y0053721D01*
X0087263Y0056522D01*
X0088333Y0059813D01*
X0088333Y0079733D01*
X0088387Y0080421D01*
X0088813Y0081731D01*
X0089622Y0082844D01*
X0090736Y0083653D01*
X0092045Y0084079D01*
X0092733Y0084133D01*
X0099343Y0084133D01*
X0105914Y0084639D01*
X0105933Y0084641D01*
X0108184Y0084814D01*
X0108184Y0084814D01*
X0112451Y0086298D01*
X0116197Y0088821D01*
X0116197Y0088821D01*
X0117346Y0090129D01*
X0117687Y0090518D01*
X0118515Y0091336D01*
X0120472Y0092582D01*
X0122701Y0093231D01*
X0125021Y0093231D01*
X0125424Y0093114D01*
X0125389Y0093029D01*
X0125389Y0091437D01*
X0125998Y0089967D01*
X0127123Y0088842D01*
X0128593Y0088233D01*
X0135385Y0088233D01*
X0136855Y0088842D01*
X0137980Y0089967D01*
X0138589Y0091437D01*
X0138589Y0093029D01*
X0137980Y0094499D01*
X0136855Y0095624D01*
X0135385Y0096233D01*
X0131351Y0096233D01*
X0129451Y0097443D01*
X0129451Y0097443D01*
X0125775Y0098514D01*
X0121947Y0098514D01*
X0118271Y0097443D01*
X0115042Y0095387D01*
X0115042Y0095387D01*
X0113779Y0093948D01*
X0112666Y0092834D01*
X0111745Y0092214D01*
X0113698Y0094901D01*
X0113698Y0094901D01*
X0114833Y0098396D01*
X0114833Y0099633D01*
X0126332Y0099633D01*
X0127123Y0098842D01*
X0128593Y0098233D01*
X0135385Y0098233D01*
X0136855Y0098842D01*
X0137980Y0099967D01*
X0138589Y0101437D01*
X0138589Y0103029D01*
X0137980Y0104499D01*
X0136855Y0105624D01*
X0135385Y0106233D01*
X0128593Y0106233D01*
X0127123Y0105624D01*
X0126332Y0104833D01*
X0113000Y0104833D01*
X0110866Y0103600D01*
X0109633Y0101466D01*
X0109633Y0100233D01*
X0109554Y0099232D01*
X0108936Y0097328D01*
X0107759Y0095708D01*
X0106521Y0094808D01*
X0107557Y0095844D01*
X0108333Y0097719D01*
X0108333Y0099748D01*
X0107557Y0101622D01*
X0106122Y0103057D01*
X0104248Y0103833D01*
X0102219Y0103833D01*
X0100344Y0103057D01*
X0098909Y0101622D01*
X0098376Y0100333D01*
X0092176Y0100333D01*
X0092057Y0100622D01*
X0090622Y0102057D01*
X0088989Y0102733D01*
X0090622Y0103409D01*
X0092057Y0104844D01*
X0092833Y0106719D01*
X0092833Y0108748D01*
X0092057Y0110622D01*
X0090622Y0112057D01*
X0090333Y0112176D01*
X0090333Y0118209D01*
X0090341Y0118287D01*
X0090400Y0118432D01*
X0090511Y0118542D01*
X0090655Y0118602D01*
X0090733Y0118609D01*
X0127685Y0118609D01*
X0128593Y0118233D01*
X0135385Y0118233D01*
X0136855Y0118842D01*
X0137290Y0119277D01*
X0137504Y0119208D01*
X0138491Y0118491D01*
X0139208Y0117504D01*
X0139585Y0116343D01*
X0139633Y0115733D01*
X0139633Y0113179D01*
X0140696Y0109212D01*
X0140696Y0109212D01*
X0142750Y0105654D01*
X0145654Y0102750D01*
X0145654Y0102750D01*
X0149212Y0100696D01*
X0153179Y0099633D01*
X0156332Y0099633D01*
X0157123Y0098842D01*
X0158593Y0098233D01*
X0165385Y0098233D01*
X0166855Y0098842D01*
X0167646Y0099633D01*
X0187391Y0099633D01*
X0187498Y0099599D01*
X0187905Y0099633D01*
X0188313Y0099633D01*
X0188417Y0099676D01*
X0189839Y0099795D01*
X0193217Y0101215D01*
X0195990Y0103609D01*
X0195990Y0103609D01*
X0195990Y0103609D01*
X0197888Y0106743D01*
X0198004Y0107236D01*
X0198870Y0107595D01*
X0200305Y0109029D01*
X0200774Y0110163D01*
X0202348Y0110674D01*
X0202348Y0110674D01*
X0205898Y0113253D01*
X0205898Y0113253D01*
X0205898Y0113253D01*
X0208477Y0116803D01*
X0209833Y0120976D01*
X0209833Y0169156D01*
X0208645Y0172813D01*
X0206385Y0175924D01*
X0206385Y0175924D01*
X0206385Y0175924D01*
X0203274Y0178184D01*
X0203274Y0178184D01*
X0201305Y0178824D01*
X0200958Y0179661D01*
X0199524Y0181096D01*
X0198398Y0181562D01*
X0198746Y0181675D01*
X0199517Y0182068D01*
X0200218Y0182577D01*
X0200830Y0183189D01*
X0201339Y0183890D01*
X0201732Y0184661D01*
X0201999Y0185485D01*
X0202135Y0186340D01*
X0202135Y0186572D01*
X0196835Y0186572D01*
X0196835Y0186972D01*
X0202135Y0186972D01*
X0202135Y0187205D01*
X0201999Y0188060D01*
X0201732Y0188884D01*
X0201339Y0189655D01*
X0200830Y0190355D01*
X0200218Y0190968D01*
X0199517Y0191476D01*
X0198746Y0191869D01*
X0198398Y0191983D01*
X0199524Y0192449D01*
X0200649Y0193574D01*
X0202084Y0193247D01*
X0205412Y0191644D01*
X0208301Y0189340D01*
X0210604Y0186452D01*
X0212207Y0183123D01*
X0213029Y0179521D01*
X0213133Y0177674D01*
X0213133Y0136676D01*
X0212844Y0136557D01*
X0211409Y0135122D01*
X0210633Y0133248D01*
X0210633Y0131219D01*
X0211409Y0129344D01*
X0212844Y0127909D01*
X0213133Y0127790D01*
X0213133Y0122292D01*
X0214024Y0119550D01*
X0215718Y0117218D01*
X0218050Y0115524D01*
X0218050Y0115524D01*
X0220792Y0114633D01*
X0222233Y0114633D01*
X0222409Y0114616D01*
X0222733Y0114481D01*
X0222981Y0114233D01*
X0223116Y0113909D01*
X0223133Y0113733D01*
X0223133Y0106676D01*
X0222844Y0106557D01*
X0221409Y0105122D01*
X0220943Y0103996D01*
X0220830Y0104344D01*
X0220437Y0105116D01*
X0219928Y0105816D01*
X0219316Y0106428D01*
X0218616Y0106937D01*
X0217844Y0107330D01*
X0217021Y0107598D01*
X0216166Y0107733D01*
X0215819Y0107733D01*
X0215819Y0102319D01*
X0215647Y0102319D01*
X0215647Y0102147D01*
X0215819Y0102147D01*
X0215819Y0096733D01*
X0216166Y0096733D01*
X0217021Y0096869D01*
X0217844Y0097136D01*
X0218616Y0097529D01*
X0219316Y0098038D01*
X0219928Y0098650D01*
X0220437Y0099350D01*
X0220830Y0100122D01*
X0220943Y0100470D01*
X0221409Y0099344D01*
X0222844Y0097909D01*
X0224719Y0097133D01*
X0226748Y0097133D01*
X0228622Y0097909D01*
X0230057Y0099344D01*
X0230833Y0101219D01*
X0230833Y0103248D01*
X0230057Y0105122D01*
X0228622Y0106557D01*
X0228333Y0106676D01*
X0228333Y0114946D01*
X0227404Y0117188D01*
X0227404Y0117188D01*
X0225688Y0118904D01*
X0223446Y0119833D01*
X0222233Y0119833D01*
X0221623Y0119881D01*
X0220462Y0120258D01*
X0219475Y0120975D01*
X0218758Y0121962D01*
X0218381Y0123123D01*
X0218333Y0123733D01*
X0218333Y0127790D01*
X0218622Y0127909D01*
X0220057Y0129344D01*
X0220733Y0130977D01*
X0221409Y0129344D01*
X0222844Y0127909D01*
X0224719Y0127133D01*
X0226748Y0127133D01*
X0228622Y0127909D01*
X0230057Y0129344D01*
X0230833Y0131219D01*
X0230833Y0133248D01*
X0230057Y0135122D01*
X0228622Y0136557D01*
X0228333Y0136676D01*
X0228333Y0180796D01*
X0227115Y0186920D01*
X0227115Y0186920D01*
X0224725Y0192689D01*
X0221256Y0197881D01*
X0216841Y0202296D01*
X0211649Y0205765D01*
X0205881Y0208154D01*
X0205881Y0208154D01*
X0201197Y0209086D01*
X0200958Y0209661D01*
X0199524Y0211096D01*
X0197890Y0211772D01*
X0199524Y0212449D01*
X0200958Y0213884D01*
X0201735Y0215758D01*
X0201735Y0217787D01*
X0200958Y0219661D01*
X0199524Y0221096D01*
X0197890Y0221772D01*
X0199524Y0222449D01*
X0200958Y0223884D01*
X0201735Y0225758D01*
X0201735Y0227787D01*
X0200958Y0229661D01*
X0199524Y0231096D01*
X0197649Y0231872D01*
X0195620Y0231872D01*
X0193746Y0231096D01*
X0192311Y0229661D01*
X0192191Y0229372D01*
X0132246Y0229372D01*
X0129342Y0228429D01*
X0129342Y0228429D01*
X0126871Y0226634D01*
X0125496Y0224741D01*
X0123844Y0224057D01*
X0122409Y0222622D01*
X0121633Y0220748D01*
X0121633Y0218719D01*
X0122409Y0216844D01*
X0123844Y0215409D01*
X0125477Y0214733D01*
X0123844Y0214057D01*
X0122409Y0212622D01*
X0121633Y0210748D01*
X0121633Y0208719D01*
X0122409Y0206844D01*
X0123844Y0205409D01*
X0125703Y0204639D01*
X0124439Y0204116D01*
X0123004Y0202681D01*
X0122228Y0200807D01*
X0122228Y0198778D01*
X0123004Y0196903D01*
X0124439Y0195469D01*
X0124728Y0195349D01*
X0124728Y0183938D01*
X0124686Y0183792D01*
X0124728Y0183425D01*
X0124728Y0183054D01*
X0124785Y0182915D01*
X0124803Y0182764D01*
X0124982Y0182441D01*
X0125123Y0182099D01*
X0125230Y0181992D01*
X0125304Y0181860D01*
X0125389Y0181792D01*
X0125389Y0181437D01*
X0125998Y0179967D01*
X0127123Y0178842D01*
X0128593Y0178233D01*
X0135385Y0178233D01*
X0136855Y0178842D01*
X0137980Y0179967D01*
X0138589Y0181437D01*
X0138589Y0183029D01*
X0137980Y0184499D01*
X0136855Y0185624D01*
X0135385Y0186233D01*
X0131119Y0186233D01*
X0129928Y0186575D01*
X0129928Y0195349D01*
X0130216Y0195469D01*
X0131651Y0196903D01*
X0132428Y0198778D01*
X0132428Y0200807D01*
X0131651Y0202681D01*
X0130216Y0204116D01*
X0128357Y0204886D01*
X0129622Y0205409D01*
X0131057Y0206844D01*
X0131176Y0207133D01*
X0140748Y0207133D01*
X0142622Y0207909D01*
X0144057Y0209344D01*
X0144833Y0211219D01*
X0144833Y0212233D01*
X0144893Y0213000D01*
X0145367Y0214458D01*
X0146268Y0215698D01*
X0147509Y0216599D01*
X0148967Y0217073D01*
X0149733Y0217133D01*
X0152290Y0217133D01*
X0152409Y0216844D01*
X0153844Y0215409D01*
X0155477Y0214733D01*
X0153844Y0214057D01*
X0152409Y0212622D01*
X0151633Y0210748D01*
X0151633Y0208719D01*
X0152409Y0206844D01*
X0153844Y0205409D01*
X0155703Y0204639D01*
X0154439Y0204116D01*
X0153004Y0202681D01*
X0152620Y0201755D01*
X0150498Y0201186D01*
X0150498Y0201186D01*
X0146463Y0198857D01*
X0146463Y0198857D01*
X0143168Y0195562D01*
X0140839Y0191527D01*
X0139633Y0187027D01*
X0139633Y0124034D01*
X0137873Y0124606D01*
X0136855Y0125624D01*
X0135385Y0126233D01*
X0128593Y0126233D01*
X0127123Y0125624D01*
X0125998Y0124499D01*
X0125712Y0123809D01*
X0104673Y0123809D01*
X0106122Y0124409D01*
X0107557Y0125844D01*
X0108333Y0127719D01*
X0108333Y0129633D01*
X0126332Y0129633D01*
X0127123Y0128842D01*
X0128593Y0128233D01*
X0135385Y0128233D01*
X0136855Y0128842D01*
X0137980Y0129967D01*
X0138589Y0131437D01*
X0138589Y0133029D01*
X0137980Y0134499D01*
X0136855Y0135624D01*
X0135385Y0136233D01*
X0128593Y0136233D01*
X0127123Y0135624D01*
X0126332Y0134833D01*
X0105520Y0134833D01*
X0103278Y0133904D01*
X0103206Y0133833D01*
X0102219Y0133833D01*
X0100344Y0133057D01*
X0098909Y0131622D01*
X0098133Y0129748D01*
X0098133Y0127719D01*
X0098909Y0125844D01*
X0100344Y0124409D01*
X0101793Y0123809D01*
X0089071Y0123809D01*
X0089108Y0123828D01*
X0089808Y0124337D01*
X0090420Y0124949D01*
X0090929Y0125650D01*
X0091322Y0126421D01*
X0091590Y0127244D01*
X0091725Y0128099D01*
X0091725Y0128446D01*
X0086311Y0128446D01*
X0086311Y0128618D01*
X0091725Y0128618D01*
X0091725Y0128965D01*
X0091590Y0129820D01*
X0091322Y0130644D01*
X0090929Y0131415D01*
X0090420Y0132115D01*
X0089808Y0132727D01*
X0089108Y0133236D01*
X0088336Y0133629D01*
X0087513Y0133897D01*
X0086658Y0134032D01*
X0086311Y0134032D01*
X0086311Y0128618D01*
X0086139Y0128618D01*
X0086139Y0128446D01*
X0080725Y0128446D01*
X0080725Y0128099D01*
X0080861Y0127244D01*
X0081128Y0126421D01*
X0081521Y0125650D01*
X0082030Y0124949D01*
X0082642Y0124337D01*
X0083343Y0123828D01*
X0083380Y0123809D01*
X0076339Y0123809D01*
X0077303Y0124209D01*
X0078738Y0125643D01*
X0079514Y0127518D01*
X0079514Y0129547D01*
X0078738Y0131421D01*
X0077303Y0132856D01*
X0075429Y0133632D01*
X0073400Y0133632D01*
X0073307Y0133594D01*
X0072787Y0133809D01*
X0060787Y0133809D01*
X0060667Y0134098D01*
X0059232Y0135533D01*
X0058106Y0135999D01*
X0058455Y0136112D01*
X0059226Y0136505D01*
X0059926Y0137014D01*
X0060538Y0137626D01*
X0061047Y0138327D01*
X0061440Y0139098D01*
X0061708Y0139922D01*
X0061843Y0140777D01*
X0061843Y0141009D01*
X0056543Y0141009D01*
X0056543Y0141409D01*
X0061843Y0141409D01*
X0061843Y0141642D01*
X0061708Y0142497D01*
X0061440Y0143321D01*
X0061047Y0144092D01*
X0060538Y0144792D01*
X0059926Y0145405D01*
X0059226Y0145913D01*
X0058455Y0146306D01*
X0057631Y0146574D01*
X0056776Y0146709D01*
X0056543Y0146709D01*
X0056543Y0141410D01*
X0056143Y0141410D01*
X0056143Y0146709D01*
X0055910Y0146709D01*
X0055055Y0146574D01*
X0054232Y0146306D01*
X0053461Y0145913D01*
X0052760Y0145405D01*
X0052148Y0144792D01*
X0051639Y0144092D01*
X0051246Y0143321D01*
X0050979Y0142497D01*
X0050843Y0141642D01*
X0050843Y0141409D01*
X0056143Y0141409D01*
X0056143Y0141009D01*
X0050843Y0141009D01*
X0050843Y0140777D01*
X0050979Y0139922D01*
X0051246Y0139098D01*
X0051639Y0138327D01*
X0052148Y0137626D01*
X0052760Y0137014D01*
X0053461Y0136505D01*
X0054232Y0136112D01*
X0054580Y0135999D01*
X0053454Y0135533D01*
X0052806Y0134884D01*
X0051556Y0135792D01*
X0050311Y0137506D01*
X0049657Y0139520D01*
X0049573Y0140580D01*
X0049573Y0152523D01*
X0050030Y0152980D01*
X0056540Y0152980D01*
X0059449Y0154185D01*
X0061675Y0156411D01*
X0062880Y0159320D01*
X0062880Y0160499D01*
X0063387Y0162070D01*
X0065163Y0165482D01*
X0067653Y0168413D01*
X0070734Y0170716D01*
X0074250Y0172276D01*
X0078024Y0173015D01*
X0081869Y0172895D01*
X0083385Y0172588D01*
X0083395Y0172581D01*
X0083829Y0172494D01*
X0084257Y0172382D01*
X0084334Y0172393D01*
X0086257Y0172006D01*
X0086632Y0171790D01*
X0086632Y0171790D01*
X0089953Y0170900D01*
X0090287Y0170092D01*
X0091722Y0168658D01*
X0093597Y0167881D01*
X0095625Y0167881D01*
X0097500Y0168658D01*
X0098935Y0170092D01*
X0099711Y0171967D01*
X0099711Y0173996D01*
X0098935Y0175870D01*
X0097500Y0177305D01*
X0095867Y0177981D01*
X0097500Y0178658D01*
X0098935Y0180092D01*
X0099054Y0180381D01*
X0100084Y0180381D01*
X0100921Y0180315D01*
X0102514Y0179798D01*
X0103868Y0178813D01*
X0104853Y0177458D01*
X0105370Y0175866D01*
X0105436Y0175028D01*
X0105436Y0173955D01*
X0106258Y0171972D01*
X0107775Y0170454D01*
X0107775Y0170454D01*
X0109758Y0169633D01*
X0126332Y0169633D01*
X0127123Y0168842D01*
X0128593Y0168233D01*
X0135385Y0168233D01*
X0136855Y0168842D01*
X0137980Y0169967D01*
X0138589Y0171437D01*
X0138589Y0173029D01*
X0137980Y0174499D01*
X0136855Y0175624D01*
X0135385Y0176233D01*
X0130871Y0176233D01*
X0130519Y0176427D01*
X0127593Y0176751D01*
X0124766Y0175931D01*
X0124766Y0175931D01*
X0123616Y0175011D01*
X0123394Y0174833D01*
X0110831Y0174833D01*
X0110793Y0174837D01*
X0110723Y0174866D01*
X0110669Y0174920D01*
X0110640Y0174990D01*
X0110636Y0175028D01*
X0110636Y0176700D01*
X0109603Y0179879D01*
X0107638Y0182583D01*
X0107638Y0182583D01*
X0104934Y0184548D01*
X0101755Y0185581D01*
X0099054Y0185581D01*
X0098935Y0185870D01*
X0097500Y0187305D01*
X0096374Y0187771D01*
X0096722Y0187884D01*
X0097494Y0188277D01*
X0098194Y0188786D01*
X0098806Y0189398D01*
X0099315Y0190098D01*
X0099708Y0190870D01*
X0099976Y0191693D01*
X0100111Y0192548D01*
X0100111Y0192781D01*
X0094811Y0192781D01*
X0094811Y0193181D01*
X0100111Y0193181D01*
X0100111Y0193414D01*
X0099976Y0194269D01*
X0099708Y0195092D01*
X0099315Y0195864D01*
X0098806Y0196564D01*
X0098194Y0197176D01*
X0097494Y0197685D01*
X0096722Y0198078D01*
X0095899Y0198346D01*
X0095044Y0198481D01*
X0094811Y0198481D01*
X0094811Y0193181D01*
X0094411Y0193181D01*
X0094411Y0192781D01*
X0089111Y0192781D01*
X0089111Y0192548D01*
X0089246Y0191693D01*
X0089514Y0190870D01*
X0089907Y0190098D01*
X0090416Y0189398D01*
X0091028Y0188786D01*
X0091728Y0188277D01*
X0092500Y0187884D01*
X0092848Y0187771D01*
X0091722Y0187305D01*
X0090287Y0185870D01*
X0089511Y0183996D01*
X0089511Y0181967D01*
X0090287Y0180092D01*
X0091722Y0178658D01*
X0093355Y0177981D01*
X0091722Y0177305D01*
X0090813Y0176396D01*
X0088524Y0176855D01*
X0085193Y0178778D01*
X0082337Y0181634D01*
X0080318Y0185132D01*
X0079273Y0189033D01*
X0079140Y0191052D01*
X0079140Y0198650D01*
X0079232Y0200058D01*
X0079961Y0202778D01*
X0081369Y0205216D01*
X0083360Y0207207D01*
X0085798Y0208615D01*
X0088518Y0209344D01*
X0088705Y0209356D01*
X0088791Y0209147D01*
X0090226Y0207713D01*
X0092100Y0206936D01*
X0094129Y0206936D01*
X0096004Y0207713D01*
X0097439Y0209147D01*
X0098215Y0211022D01*
X0098215Y0213051D01*
X0097439Y0214925D01*
X0096004Y0216360D01*
X0094878Y0216826D01*
X0095226Y0216939D01*
X0095998Y0217332D01*
X0096698Y0217841D01*
X0097310Y0218453D01*
X0097819Y0219154D01*
X0098212Y0219925D01*
X0098480Y0220748D01*
X0098615Y0221603D01*
X0098615Y0221836D01*
X0093315Y0221836D01*
X0093315Y0222236D01*
X0098615Y0222236D01*
X0098615Y0222469D01*
X0098480Y0223324D01*
X0098212Y0224147D01*
X0097819Y0224919D01*
X0097310Y0225619D01*
X0096698Y0226231D01*
X0095998Y0226740D01*
X0095226Y0227133D01*
X0094403Y0227401D01*
X0093548Y0227536D01*
X0093315Y0227536D01*
X0093315Y0222236D01*
X0092915Y0222236D01*
X0092915Y0221836D01*
X0087615Y0221836D01*
X0087615Y0221603D01*
X0087750Y0220748D01*
X0088018Y0219925D01*
X0088411Y0219154D01*
X0088920Y0218453D01*
X0089532Y0217841D01*
X0090232Y0217332D01*
X0091004Y0216939D01*
X0091352Y0216826D01*
X0090226Y0216360D01*
X0088791Y0214925D01*
X0088672Y0214636D01*
X0087821Y0214636D01*
X0083756Y0213547D01*
X0083756Y0213547D01*
X0080110Y0211442D01*
X0077134Y0208466D01*
X0075030Y0204821D01*
X0074073Y0201250D01*
X0069912Y0201250D01*
X0068512Y0202650D01*
X0065198Y0202650D01*
X0062855Y0200307D01*
X0062855Y0196994D01*
X0065198Y0194650D01*
X0068512Y0194650D01*
X0069912Y0196050D01*
X0073940Y0196050D01*
X0073940Y0188331D01*
X0075349Y0183073D01*
X0078070Y0178360D01*
X0078070Y0178360D01*
X0078107Y0178323D01*
X0077592Y0178339D01*
X0072644Y0177370D01*
X0072644Y0177370D01*
X0068035Y0175325D01*
X0068035Y0175325D01*
X0063996Y0172306D01*
X0060731Y0168464D01*
X0058402Y0163991D01*
X0057810Y0161725D01*
X0057680Y0161412D01*
X0057680Y0161229D01*
X0057634Y0161051D01*
X0057670Y0160790D01*
X0057628Y0160365D01*
X0057223Y0159386D01*
X0056474Y0158637D01*
X0055495Y0158232D01*
X0054965Y0158180D01*
X0050030Y0158180D01*
X0048630Y0159580D01*
X0045316Y0159580D01*
X0042973Y0157236D01*
X0042973Y0153923D01*
X0044373Y0152523D01*
X0044373Y0138684D01*
X0045545Y0135077D01*
X0047774Y0132010D01*
X0050841Y0129781D01*
X0050841Y0129781D01*
X0051504Y0129566D01*
X0052020Y0128321D01*
X0053454Y0126886D01*
X0055087Y0126209D01*
X0053454Y0125533D01*
X0052020Y0124098D01*
X0051503Y0122852D01*
X0050850Y0122640D01*
X0047788Y0120415D01*
X0047788Y0120415D01*
X0047788Y0120415D01*
X0045563Y0117352D01*
X0044393Y0113752D01*
X0044393Y0112380D01*
X0042993Y0110980D01*
X0042993Y0107667D01*
X0045336Y0105324D01*
X0048650Y0105324D01*
X0050993Y0107667D01*
X0050993Y0110980D01*
X0049631Y0112342D01*
X0049676Y0112915D01*
X0050329Y0114924D01*
X0051570Y0116632D01*
X0052808Y0117532D01*
X0053454Y0116886D01*
X0055329Y0116109D01*
X0057358Y0116109D01*
X0059232Y0116886D01*
X0060667Y0118321D01*
X0060787Y0118609D01*
X0085133Y0118609D01*
X0085133Y0112176D01*
X0084844Y0112057D01*
X0083409Y0110622D01*
X0082633Y0108748D01*
X0082633Y0106719D01*
X0083409Y0104844D01*
X0084844Y0103409D01*
X0086477Y0102733D01*
X0084844Y0102057D01*
X0083409Y0100622D01*
X0082633Y0098748D01*
X0082633Y0096719D01*
X0083409Y0094844D01*
X0084844Y0093409D01*
X0086395Y0092767D01*
X0085814Y0092611D01*
X0085814Y0092611D01*
X0081726Y0090251D01*
X0081726Y0090251D01*
X0078388Y0086914D01*
X0078388Y0086914D01*
X0076028Y0082826D01*
X0076028Y0082826D01*
X0074806Y0078266D01*
X0074806Y0077173D01*
X0074772Y0077159D01*
X0073464Y0075851D01*
X0073450Y0075817D01*
X0056691Y0075817D01*
X0055012Y0077496D01*
X0051533Y0077496D01*
X0049072Y0075036D01*
X0049072Y0071556D01*
X0051533Y0069096D01*
X0055012Y0069096D01*
X0056533Y0070617D01*
X0073450Y0070617D01*
X0073464Y0070583D01*
X0074772Y0069275D01*
X0076481Y0068567D01*
X0078331Y0068567D01*
X0080040Y0069275D01*
X0081348Y0070583D01*
X0082056Y0072292D01*
X0082056Y0074142D01*
X0081348Y0075851D01*
X0080085Y0077114D01*
X0080115Y0077567D01*
X0080975Y0080777D01*
X0082636Y0083654D01*
X0084985Y0086003D01*
X0085738Y0086438D01*
X0084073Y0084146D01*
X0084073Y0084146D01*
X0083133Y0081254D01*
X0083133Y0061544D01*
X0083063Y0060648D01*
X0082509Y0058944D01*
X0081456Y0057495D01*
X0080442Y0056758D01*
X0080040Y0057159D01*
X0079264Y0057481D01*
X0078783Y0058962D01*
X0076456Y0062165D01*
X0073253Y0064492D01*
X0069488Y0065715D01*
X0057124Y0065715D01*
X0055524Y0067315D01*
X0052045Y0067315D01*
X0049584Y0064855D01*
X0049584Y0061375D01*
X0052045Y0058915D01*
X0055524Y0058915D01*
X0057124Y0060515D01*
X0067509Y0060515D01*
X0068650Y0060425D01*
X0070822Y0059720D01*
X0072669Y0058378D01*
X0074011Y0056530D01*
X0074043Y0056430D01*
X0073464Y0055851D01*
X0072756Y0054142D01*
X0073036Y0054817D02*
X0039033Y0054817D01*
X0039033Y0056415D02*
X0074028Y0056415D01*
X0072933Y0058014D02*
X0039033Y0058014D01*
X0039033Y0059612D02*
X0040782Y0059612D01*
X0041879Y0058515D02*
X0039184Y0061210D01*
X0039184Y0063115D01*
X0043784Y0063115D01*
X0043784Y0063115D01*
X0039184Y0063115D01*
X0039184Y0065020D01*
X0041879Y0067715D01*
X0043784Y0067715D01*
X0043784Y0063115D01*
X0043784Y0063115D01*
X0043784Y0063115D01*
X0043784Y0058515D01*
X0041879Y0058515D01*
X0043784Y0058515D02*
X0045690Y0058515D01*
X0048384Y0061210D01*
X0048384Y0063115D01*
X0048384Y0065020D01*
X0045690Y0067715D01*
X0043784Y0067715D01*
X0043784Y0063115D01*
X0043784Y0058515D01*
X0043784Y0059612D02*
X0043784Y0059612D01*
X0043784Y0061211D02*
X0043784Y0061211D01*
X0043784Y0062809D02*
X0043784Y0062809D01*
X0043784Y0063115D02*
X0043784Y0063115D01*
X0048384Y0063115D01*
X0043784Y0063115D01*
X0043784Y0064408D02*
X0043784Y0064408D01*
X0043784Y0066006D02*
X0043784Y0066006D01*
X0043784Y0067605D02*
X0043784Y0067605D01*
X0043272Y0068696D02*
X0045178Y0068696D01*
X0047872Y0071391D01*
X0047872Y0073296D01*
X0043273Y0073296D01*
X0043273Y0073296D01*
X0047872Y0073296D01*
X0047872Y0075201D01*
X0045178Y0077896D01*
X0043272Y0077896D01*
X0043272Y0073296D01*
X0043272Y0073296D01*
X0043272Y0068696D01*
X0043272Y0069203D02*
X0043272Y0069203D01*
X0043272Y0070802D02*
X0043272Y0070802D01*
X0043272Y0072400D02*
X0043272Y0072400D01*
X0043272Y0073999D02*
X0043272Y0073999D01*
X0043272Y0075597D02*
X0043272Y0075597D01*
X0043272Y0077196D02*
X0043272Y0077196D01*
X0040667Y0077196D02*
X0039033Y0077196D01*
X0039033Y0078794D02*
X0074948Y0078794D01*
X0074806Y0077196D02*
X0055312Y0077196D01*
X0053272Y0073296D02*
X0053274Y0073281D01*
X0053278Y0073266D01*
X0053285Y0073252D01*
X0053295Y0073240D01*
X0053307Y0073230D01*
X0053321Y0073223D01*
X0053336Y0073219D01*
X0053351Y0073217D01*
X0049827Y0070802D02*
X0047284Y0070802D01*
X0047872Y0072400D02*
X0049072Y0072400D01*
X0049072Y0073999D02*
X0047872Y0073999D01*
X0047477Y0075597D02*
X0049634Y0075597D01*
X0051233Y0077196D02*
X0045878Y0077196D01*
X0039068Y0075597D02*
X0039033Y0075597D01*
X0039033Y0070802D02*
X0039261Y0070802D01*
X0039033Y0069203D02*
X0040860Y0069203D01*
X0041769Y0067605D02*
X0039033Y0067605D01*
X0039033Y0066006D02*
X0040170Y0066006D01*
X0039184Y0064408D02*
X0039033Y0064408D01*
X0039033Y0062809D02*
X0039184Y0062809D01*
X0039184Y0061211D02*
X0039033Y0061211D01*
X0046787Y0059612D02*
X0051347Y0059612D01*
X0049749Y0061211D02*
X0048384Y0061211D01*
X0048384Y0062809D02*
X0049584Y0062809D01*
X0049584Y0064408D02*
X0048384Y0064408D01*
X0047398Y0066006D02*
X0050736Y0066006D01*
X0051426Y0069203D02*
X0045685Y0069203D01*
X0045800Y0067605D02*
X0083133Y0067605D01*
X0083133Y0069203D02*
X0079867Y0069203D01*
X0081439Y0070802D02*
X0083133Y0070802D01*
X0083133Y0072400D02*
X0082056Y0072400D01*
X0082056Y0073999D02*
X0083133Y0073999D01*
X0083133Y0075597D02*
X0081454Y0075597D01*
X0080091Y0077196D02*
X0083133Y0077196D01*
X0083133Y0078794D02*
X0080444Y0078794D01*
X0080872Y0080393D02*
X0083133Y0080393D01*
X0083373Y0081991D02*
X0081676Y0081991D01*
X0082599Y0083590D02*
X0083892Y0083590D01*
X0084171Y0085188D02*
X0084830Y0085188D01*
X0089002Y0081991D02*
X0098894Y0081991D01*
X0099719Y0082333D02*
X0097844Y0081557D01*
X0096409Y0080122D01*
X0095633Y0078248D01*
X0095633Y0076219D01*
X0096409Y0074344D01*
X0097844Y0072909D01*
X0099719Y0072133D01*
X0099736Y0072133D01*
X0098344Y0071557D01*
X0096909Y0070122D01*
X0096133Y0068248D01*
X0096133Y0066219D01*
X0096909Y0064344D01*
X0098344Y0062909D01*
X0100219Y0062133D01*
X0102248Y0062133D01*
X0104122Y0062909D01*
X0105557Y0064344D01*
X0105676Y0064633D01*
X0114239Y0064633D01*
X0111928Y0063676D01*
X0110085Y0061833D01*
X0109719Y0061833D01*
X0107844Y0061057D01*
X0106409Y0059622D01*
X0105633Y0057748D01*
X0105633Y0055719D01*
X0106409Y0053844D01*
X0107844Y0052409D01*
X0109477Y0051733D01*
X0107844Y0051057D01*
X0106409Y0049622D01*
X0105633Y0047748D01*
X0105633Y0045719D01*
X0106409Y0043844D01*
X0107844Y0042409D01*
X0109719Y0041633D01*
X0111748Y0041633D01*
X0113622Y0042409D01*
X0115057Y0043844D01*
X0115383Y0044633D01*
X0128501Y0044633D01*
X0131294Y0045790D01*
X0133432Y0047928D01*
X0133558Y0048233D01*
X0135385Y0048233D01*
X0136855Y0048842D01*
X0137980Y0049967D01*
X0138589Y0051437D01*
X0138589Y0053029D01*
X0137980Y0054499D01*
X0136855Y0055624D01*
X0135385Y0056233D01*
X0128593Y0056233D01*
X0127123Y0055624D01*
X0125998Y0054499D01*
X0125389Y0053029D01*
X0125389Y0051437D01*
X0125998Y0049967D01*
X0126132Y0049833D01*
X0114846Y0049833D01*
X0113622Y0051057D01*
X0111989Y0051733D01*
X0113622Y0052409D01*
X0115057Y0053844D01*
X0115833Y0055719D01*
X0115833Y0057748D01*
X0115173Y0059342D01*
X0115765Y0059587D01*
X0116233Y0059633D01*
X0126332Y0059633D01*
X0127123Y0058842D01*
X0128593Y0058233D01*
X0135385Y0058233D01*
X0136855Y0058842D01*
X0137980Y0059967D01*
X0138589Y0061437D01*
X0138589Y0063029D01*
X0137980Y0064499D01*
X0136855Y0065624D01*
X0135385Y0066233D01*
X0128593Y0066233D01*
X0128385Y0066147D01*
X0131648Y0068233D01*
X0135385Y0068233D01*
X0136855Y0068842D01*
X0137980Y0069967D01*
X0138589Y0071437D01*
X0138589Y0073029D01*
X0137980Y0074499D01*
X0136855Y0075624D01*
X0135385Y0076233D01*
X0128593Y0076233D01*
X0128385Y0076147D01*
X0131648Y0078233D01*
X0135385Y0078233D01*
X0136855Y0078842D01*
X0137980Y0079967D01*
X0138589Y0081437D01*
X0138589Y0083029D01*
X0137980Y0084499D01*
X0136855Y0085624D01*
X0135385Y0086233D01*
X0128593Y0086233D01*
X0127123Y0085624D01*
X0125998Y0084499D01*
X0125389Y0083029D01*
X0125389Y0081437D01*
X0125645Y0080818D01*
X0122690Y0079954D01*
X0120989Y0079833D01*
X0105176Y0079833D01*
X0105057Y0080122D01*
X0103622Y0081557D01*
X0101748Y0082333D01*
X0099719Y0082333D01*
X0102572Y0081991D02*
X0125389Y0081991D01*
X0125621Y0083590D02*
X0090648Y0083590D01*
X0088385Y0080393D02*
X0096680Y0080393D01*
X0095860Y0078794D02*
X0088333Y0078794D01*
X0088333Y0077196D02*
X0095633Y0077196D01*
X0095890Y0075597D02*
X0088333Y0075597D01*
X0088333Y0073999D02*
X0096755Y0073999D01*
X0099073Y0072400D02*
X0088333Y0072400D01*
X0088333Y0070802D02*
X0097589Y0070802D01*
X0096529Y0069203D02*
X0088333Y0069203D01*
X0088333Y0067605D02*
X0096133Y0067605D01*
X0096221Y0066006D02*
X0088333Y0066006D01*
X0088333Y0064408D02*
X0096883Y0064408D01*
X0098586Y0062809D02*
X0088333Y0062809D01*
X0088333Y0061211D02*
X0108216Y0061211D01*
X0106405Y0059612D02*
X0088268Y0059612D01*
X0087748Y0058014D02*
X0105743Y0058014D01*
X0105633Y0056415D02*
X0087186Y0056415D01*
X0086025Y0054817D02*
X0106007Y0054817D01*
X0107035Y0053218D02*
X0084536Y0053218D01*
X0085229Y0053721D02*
X0085229Y0053721D01*
X0082429Y0051687D02*
X0082429Y0051687D01*
X0082222Y0051620D02*
X0109203Y0051620D01*
X0106809Y0050021D02*
X0080786Y0050021D01*
X0074026Y0050021D02*
X0052288Y0050021D01*
X0052950Y0048423D02*
X0105913Y0048423D01*
X0105633Y0046824D02*
X0052970Y0046824D01*
X0052611Y0045226D02*
X0105837Y0045226D01*
X0106627Y0043627D02*
X0051740Y0043627D01*
X0049660Y0042029D02*
X0108764Y0042029D01*
X0112702Y0042029D02*
X0230313Y0042029D01*
X0231428Y0043627D02*
X0114840Y0043627D01*
X0114657Y0050021D02*
X0125976Y0050021D01*
X0125389Y0051620D02*
X0112263Y0051620D01*
X0114431Y0053218D02*
X0125467Y0053218D01*
X0126316Y0054817D02*
X0115459Y0054817D01*
X0115833Y0056415D02*
X0173802Y0056415D01*
X0173802Y0057261D02*
X0173802Y0054833D01*
X0167646Y0054833D01*
X0166855Y0055624D01*
X0165385Y0056233D01*
X0158593Y0056233D01*
X0157123Y0055624D01*
X0155998Y0054499D01*
X0155389Y0053029D01*
X0155389Y0051437D01*
X0155998Y0049967D01*
X0157123Y0048842D01*
X0158593Y0048233D01*
X0165385Y0048233D01*
X0166855Y0048842D01*
X0167646Y0049633D01*
X0173802Y0049633D01*
X0173802Y0048701D01*
X0174622Y0047881D01*
X0183182Y0047881D01*
X0184002Y0048701D01*
X0184002Y0050381D01*
X0186495Y0050381D01*
X0186361Y0050059D01*
X0186361Y0048030D01*
X0187138Y0046155D01*
X0188572Y0044721D01*
X0190447Y0043944D01*
X0192476Y0043944D01*
X0194350Y0044721D01*
X0195785Y0046155D01*
X0196561Y0048030D01*
X0196561Y0050059D01*
X0195785Y0051933D01*
X0194350Y0053368D01*
X0192476Y0054144D01*
X0191669Y0054144D01*
X0191227Y0054586D01*
X0188825Y0055581D01*
X0184002Y0055581D01*
X0184002Y0057261D01*
X0183182Y0058081D01*
X0180400Y0058081D01*
X0181791Y0058658D01*
X0183226Y0060092D01*
X0183346Y0060381D01*
X0186361Y0060381D01*
X0186361Y0059841D01*
X0187138Y0057966D01*
X0188572Y0056532D01*
X0190447Y0055755D01*
X0192476Y0055755D01*
X0194350Y0056532D01*
X0195785Y0057966D01*
X0196561Y0059841D01*
X0196561Y0061870D01*
X0195785Y0063744D01*
X0194350Y0065179D01*
X0192476Y0065955D01*
X0190447Y0065955D01*
X0189544Y0065581D01*
X0183346Y0065581D01*
X0183226Y0065870D01*
X0181791Y0067305D01*
X0180158Y0067981D01*
X0181791Y0068658D01*
X0183226Y0070092D01*
X0183346Y0070381D01*
X0186888Y0070381D01*
X0187138Y0069777D01*
X0188572Y0068343D01*
X0190447Y0067566D01*
X0192476Y0067566D01*
X0194350Y0068343D01*
X0195785Y0069777D01*
X0196561Y0071652D01*
X0196561Y0073681D01*
X0195785Y0075555D01*
X0194350Y0076990D01*
X0192476Y0077766D01*
X0190447Y0077766D01*
X0188572Y0076990D01*
X0187164Y0075581D01*
X0183346Y0075581D01*
X0183226Y0075870D01*
X0181791Y0077305D01*
X0180158Y0077981D01*
X0181791Y0078658D01*
X0183226Y0080092D01*
X0183346Y0080381D01*
X0188345Y0080381D01*
X0188572Y0080154D01*
X0190447Y0079377D01*
X0192476Y0079377D01*
X0194350Y0080154D01*
X0195785Y0081588D01*
X0196561Y0083463D01*
X0196561Y0085492D01*
X0195785Y0087366D01*
X0194350Y0088801D01*
X0192476Y0089577D01*
X0190447Y0089577D01*
X0188572Y0088801D01*
X0187138Y0087366D01*
X0186398Y0085581D01*
X0183346Y0085581D01*
X0183226Y0085870D01*
X0181791Y0087305D01*
X0179917Y0088081D01*
X0177888Y0088081D01*
X0176013Y0087305D01*
X0174579Y0085870D01*
X0174149Y0084833D01*
X0167646Y0084833D01*
X0166855Y0085624D01*
X0165385Y0086233D01*
X0158593Y0086233D01*
X0157123Y0085624D01*
X0155998Y0084499D01*
X0155389Y0083029D01*
X0155389Y0081437D01*
X0155998Y0079967D01*
X0157123Y0078842D01*
X0158593Y0078233D01*
X0165385Y0078233D01*
X0166855Y0078842D01*
X0167646Y0079633D01*
X0175038Y0079633D01*
X0176013Y0078658D01*
X0177647Y0077981D01*
X0176013Y0077305D01*
X0174579Y0075870D01*
X0174149Y0074833D01*
X0167646Y0074833D01*
X0166855Y0075624D01*
X0165385Y0076233D01*
X0158593Y0076233D01*
X0157123Y0075624D01*
X0155998Y0074499D01*
X0155389Y0073029D01*
X0155389Y0071437D01*
X0155998Y0069967D01*
X0157123Y0068842D01*
X0158593Y0068233D01*
X0165385Y0068233D01*
X0166855Y0068842D01*
X0167646Y0069633D01*
X0175038Y0069633D01*
X0176013Y0068658D01*
X0177647Y0067981D01*
X0176013Y0067305D01*
X0174579Y0065870D01*
X0174149Y0064833D01*
X0167646Y0064833D01*
X0166855Y0065624D01*
X0165385Y0066233D01*
X0158593Y0066233D01*
X0157123Y0065624D01*
X0155998Y0064499D01*
X0155389Y0063029D01*
X0155389Y0061437D01*
X0155998Y0059967D01*
X0157123Y0058842D01*
X0158593Y0058233D01*
X0165385Y0058233D01*
X0166855Y0058842D01*
X0167646Y0059633D01*
X0175038Y0059633D01*
X0176013Y0058658D01*
X0177405Y0058081D01*
X0174622Y0058081D01*
X0173802Y0057261D01*
X0174555Y0058014D02*
X0115723Y0058014D01*
X0116021Y0059612D02*
X0126353Y0059612D01*
X0130665Y0067605D02*
X0176738Y0067605D01*
X0175468Y0069203D02*
X0167216Y0069203D01*
X0165932Y0066006D02*
X0174715Y0066006D01*
X0175059Y0059612D02*
X0167625Y0059612D01*
X0158046Y0066006D02*
X0135932Y0066006D01*
X0138018Y0064408D02*
X0155960Y0064408D01*
X0155389Y0062809D02*
X0138589Y0062809D01*
X0138495Y0061211D02*
X0155483Y0061211D01*
X0156353Y0059612D02*
X0137625Y0059612D01*
X0137662Y0054817D02*
X0156316Y0054817D01*
X0155467Y0053218D02*
X0138510Y0053218D01*
X0138589Y0051620D02*
X0155389Y0051620D01*
X0155976Y0050021D02*
X0138002Y0050021D01*
X0135842Y0048423D02*
X0158136Y0048423D01*
X0165842Y0048423D02*
X0174081Y0048423D01*
X0183724Y0048423D02*
X0186361Y0048423D01*
X0186361Y0050021D02*
X0184002Y0050021D01*
X0186861Y0046824D02*
X0132328Y0046824D01*
X0131294Y0045790D02*
X0131294Y0045790D01*
X0129931Y0045226D02*
X0188067Y0045226D01*
X0194855Y0045226D02*
X0218067Y0045226D01*
X0218572Y0044721D02*
X0220447Y0043944D01*
X0222476Y0043944D01*
X0224350Y0044721D01*
X0225785Y0046155D01*
X0226561Y0048030D01*
X0226561Y0050059D01*
X0225785Y0051933D01*
X0224350Y0053368D01*
X0224061Y0053487D01*
X0224061Y0056412D01*
X0224350Y0056532D01*
X0225785Y0057966D01*
X0226561Y0059841D01*
X0226561Y0061870D01*
X0225785Y0063744D01*
X0224350Y0065179D01*
X0224061Y0065298D01*
X0224061Y0068223D01*
X0224350Y0068343D01*
X0225785Y0069777D01*
X0226561Y0071652D01*
X0226561Y0073681D01*
X0225785Y0075555D01*
X0224350Y0076990D01*
X0224061Y0077109D01*
X0224061Y0080034D01*
X0224350Y0080154D01*
X0225785Y0081588D01*
X0226561Y0083463D01*
X0226561Y0085492D01*
X0225785Y0087366D01*
X0224350Y0088801D01*
X0222941Y0089385D01*
X0221120Y0091891D01*
X0221120Y0091891D01*
X0221120Y0091891D01*
X0218466Y0093819D01*
X0218466Y0093819D01*
X0215346Y0094833D01*
X0167646Y0094833D01*
X0166855Y0095624D01*
X0165385Y0096233D01*
X0158593Y0096233D01*
X0157123Y0095624D01*
X0155998Y0094499D01*
X0155389Y0093029D01*
X0155389Y0091437D01*
X0155998Y0089967D01*
X0157123Y0088842D01*
X0158593Y0088233D01*
X0165385Y0088233D01*
X0166855Y0088842D01*
X0167646Y0089633D01*
X0213706Y0089633D01*
X0214512Y0089570D01*
X0214512Y0089570D01*
X0216046Y0089071D01*
X0217351Y0088123D01*
X0217580Y0087808D01*
X0217138Y0087366D01*
X0216361Y0085492D01*
X0216361Y0083463D01*
X0217138Y0081588D01*
X0218572Y0080154D01*
X0218861Y0080034D01*
X0218861Y0077109D01*
X0218572Y0076990D01*
X0217138Y0075555D01*
X0216361Y0073681D01*
X0216361Y0071652D01*
X0217138Y0069777D01*
X0218572Y0068343D01*
X0218861Y0068223D01*
X0218861Y0065298D01*
X0218572Y0065179D01*
X0217138Y0063744D01*
X0216361Y0061870D01*
X0216361Y0059841D01*
X0217138Y0057966D01*
X0218572Y0056532D01*
X0218861Y0056412D01*
X0218861Y0053487D01*
X0218572Y0053368D01*
X0217138Y0051933D01*
X0216361Y0050059D01*
X0216361Y0048030D01*
X0217138Y0046155D01*
X0218572Y0044721D01*
X0216861Y0046824D02*
X0196062Y0046824D01*
X0196561Y0048423D02*
X0216361Y0048423D01*
X0216361Y0050021D02*
X0196561Y0050021D01*
X0195915Y0051620D02*
X0217008Y0051620D01*
X0218423Y0053218D02*
X0194500Y0053218D01*
X0191227Y0054586D02*
X0191227Y0054586D01*
X0190670Y0054817D02*
X0218861Y0054817D01*
X0218853Y0056415D02*
X0194069Y0056415D01*
X0195805Y0058014D02*
X0217118Y0058014D01*
X0216456Y0059612D02*
X0196467Y0059612D01*
X0196561Y0061211D02*
X0216361Y0061211D01*
X0216751Y0062809D02*
X0196172Y0062809D01*
X0195121Y0064408D02*
X0217802Y0064408D01*
X0218861Y0066006D02*
X0183090Y0066006D01*
X0181067Y0067605D02*
X0190354Y0067605D01*
X0192569Y0067605D02*
X0218861Y0067605D01*
X0217712Y0069203D02*
X0195211Y0069203D01*
X0196209Y0070802D02*
X0216713Y0070802D01*
X0216361Y0072400D02*
X0196561Y0072400D01*
X0196430Y0073999D02*
X0216493Y0073999D01*
X0217180Y0075597D02*
X0195743Y0075597D01*
X0193853Y0077196D02*
X0218861Y0077196D01*
X0218861Y0078794D02*
X0181928Y0078794D01*
X0181900Y0077196D02*
X0189070Y0077196D01*
X0187180Y0075597D02*
X0183339Y0075597D01*
X0182337Y0069203D02*
X0187712Y0069203D01*
X0186456Y0059612D02*
X0182746Y0059612D01*
X0183250Y0058014D02*
X0187118Y0058014D01*
X0188853Y0056415D02*
X0184002Y0056415D01*
X0174466Y0075597D02*
X0166882Y0075597D01*
X0166740Y0078794D02*
X0175877Y0078794D01*
X0175905Y0077196D02*
X0130026Y0077196D01*
X0124190Y0080393D02*
X0104786Y0080393D01*
X0109260Y0085188D02*
X0126687Y0085188D01*
X0128225Y0088385D02*
X0115551Y0088385D01*
X0117218Y0089984D02*
X0125991Y0089984D01*
X0125389Y0091582D02*
X0118902Y0091582D01*
X0117346Y0090129D02*
X0117346Y0090129D01*
X0113013Y0093181D02*
X0112448Y0093181D01*
X0113779Y0093948D02*
X0113779Y0093948D01*
X0113609Y0094779D02*
X0114509Y0094779D01*
X0114177Y0096378D02*
X0116599Y0096378D01*
X0118271Y0097443D02*
X0118271Y0097443D01*
X0120103Y0097977D02*
X0114697Y0097977D01*
X0114833Y0099575D02*
X0126390Y0099575D01*
X0127619Y0097977D02*
X0212235Y0097977D01*
X0212150Y0098038D02*
X0212850Y0097529D01*
X0213622Y0097136D01*
X0214445Y0096869D01*
X0215300Y0096733D01*
X0215647Y0096733D01*
X0215647Y0102147D01*
X0210233Y0102147D01*
X0210233Y0101800D01*
X0210369Y0100945D01*
X0210636Y0100122D01*
X0211029Y0099350D01*
X0211538Y0098650D01*
X0212150Y0098038D01*
X0210915Y0099575D02*
X0167588Y0099575D01*
X0167646Y0104833D02*
X0166855Y0105624D01*
X0165385Y0106233D01*
X0158593Y0106233D01*
X0157123Y0105624D01*
X0156332Y0104833D01*
X0155233Y0104833D01*
X0153876Y0104922D01*
X0151253Y0105625D01*
X0148902Y0106982D01*
X0146982Y0108902D01*
X0145625Y0111253D01*
X0144922Y0113876D01*
X0144833Y0115233D01*
X0144833Y0184698D01*
X0144940Y0186328D01*
X0145784Y0189479D01*
X0147415Y0192304D01*
X0149721Y0194610D01*
X0152546Y0196241D01*
X0153429Y0196478D01*
X0154439Y0195469D01*
X0156313Y0194692D01*
X0158342Y0194692D01*
X0160216Y0195469D01*
X0161651Y0196903D01*
X0162428Y0198778D01*
X0162428Y0200807D01*
X0161651Y0202681D01*
X0160216Y0204116D01*
X0160079Y0204172D01*
X0192191Y0204172D01*
X0192311Y0203884D01*
X0193746Y0202449D01*
X0195379Y0201772D01*
X0193746Y0201096D01*
X0192311Y0199661D01*
X0191796Y0198418D01*
X0191118Y0198198D01*
X0188042Y0195963D01*
X0185808Y0192887D01*
X0184633Y0189272D01*
X0184633Y0187233D01*
X0184527Y0185615D01*
X0183689Y0182488D01*
X0182071Y0179684D01*
X0179782Y0177395D01*
X0176978Y0175777D01*
X0173852Y0174939D01*
X0172233Y0174833D01*
X0167646Y0174833D01*
X0166855Y0175624D01*
X0165385Y0176233D01*
X0158593Y0176233D01*
X0157123Y0175624D01*
X0155998Y0174499D01*
X0155389Y0173029D01*
X0155389Y0171437D01*
X0155998Y0169967D01*
X0157123Y0168842D01*
X0158593Y0168233D01*
X0165385Y0168233D01*
X0166855Y0168842D01*
X0167646Y0169633D01*
X0174550Y0169633D01*
X0179026Y0170832D01*
X0179026Y0170832D01*
X0183040Y0173150D01*
X0186317Y0176426D01*
X0188634Y0180440D01*
X0189833Y0184916D01*
X0189833Y0187371D01*
X0189917Y0188435D01*
X0190574Y0190459D01*
X0191825Y0192180D01*
X0193093Y0193102D01*
X0193746Y0192449D01*
X0194871Y0191983D01*
X0194523Y0191869D01*
X0193752Y0191476D01*
X0193052Y0190968D01*
X0192439Y0190355D01*
X0191931Y0189655D01*
X0191538Y0188884D01*
X0191270Y0188060D01*
X0191135Y0187205D01*
X0191135Y0186972D01*
X0196435Y0186972D01*
X0196435Y0186572D01*
X0191135Y0186572D01*
X0191135Y0186340D01*
X0191270Y0185485D01*
X0191538Y0184661D01*
X0191931Y0183890D01*
X0192439Y0183189D01*
X0193052Y0182577D01*
X0193752Y0182068D01*
X0194523Y0181675D01*
X0194871Y0181562D01*
X0193746Y0181096D01*
X0192311Y0179661D01*
X0191535Y0177787D01*
X0191535Y0175758D01*
X0192311Y0173884D01*
X0193746Y0172449D01*
X0195620Y0171672D01*
X0197649Y0171672D01*
X0199524Y0172449D01*
X0200577Y0173503D01*
X0200844Y0173416D01*
X0202601Y0172140D01*
X0203877Y0170383D01*
X0204548Y0168319D01*
X0204633Y0167233D01*
X0204633Y0123170D01*
X0204527Y0121817D01*
X0203690Y0119242D01*
X0202099Y0117052D01*
X0199909Y0115461D01*
X0199714Y0115398D01*
X0198870Y0116242D01*
X0197744Y0116708D01*
X0198092Y0116821D01*
X0198864Y0117214D01*
X0199564Y0117723D01*
X0200176Y0118335D01*
X0200685Y0119035D01*
X0201078Y0119807D01*
X0201346Y0120630D01*
X0201481Y0121485D01*
X0201481Y0121718D01*
X0196181Y0121718D01*
X0196181Y0122118D01*
X0201481Y0122118D01*
X0201481Y0122351D01*
X0201346Y0123206D01*
X0201078Y0124029D01*
X0200685Y0124801D01*
X0200176Y0125501D01*
X0199564Y0126113D01*
X0198864Y0126622D01*
X0198092Y0127015D01*
X0197744Y0127128D01*
X0198870Y0127595D01*
X0200305Y0129029D01*
X0201081Y0130904D01*
X0201081Y0132933D01*
X0200305Y0134807D01*
X0198870Y0136242D01*
X0197237Y0136918D01*
X0198870Y0137595D01*
X0200305Y0139029D01*
X0201081Y0140904D01*
X0201081Y0142933D01*
X0200305Y0144807D01*
X0198870Y0146242D01*
X0197237Y0146918D01*
X0198870Y0147595D01*
X0200305Y0149029D01*
X0201081Y0150904D01*
X0201081Y0152933D01*
X0200305Y0154807D01*
X0198870Y0156242D01*
X0197237Y0156918D01*
X0198870Y0157595D01*
X0200305Y0159029D01*
X0201081Y0160904D01*
X0201081Y0162933D01*
X0200305Y0164807D01*
X0198870Y0166242D01*
X0196996Y0167018D01*
X0194967Y0167018D01*
X0193092Y0166242D01*
X0191684Y0164833D01*
X0167646Y0164833D01*
X0166855Y0165624D01*
X0165385Y0166233D01*
X0158593Y0166233D01*
X0157123Y0165624D01*
X0155998Y0164499D01*
X0155389Y0163029D01*
X0155389Y0161437D01*
X0155998Y0159967D01*
X0157123Y0158842D01*
X0158593Y0158233D01*
X0165385Y0158233D01*
X0166855Y0158842D01*
X0167646Y0159633D01*
X0191407Y0159633D01*
X0191658Y0159029D01*
X0193092Y0157595D01*
X0194725Y0156918D01*
X0193092Y0156242D01*
X0191684Y0154833D01*
X0167646Y0154833D01*
X0166855Y0155624D01*
X0165385Y0156233D01*
X0158593Y0156233D01*
X0157123Y0155624D01*
X0155998Y0154499D01*
X0155389Y0153029D01*
X0155389Y0151437D01*
X0155998Y0149967D01*
X0157123Y0148842D01*
X0158593Y0148233D01*
X0165385Y0148233D01*
X0166855Y0148842D01*
X0167646Y0149633D01*
X0191407Y0149633D01*
X0191658Y0149029D01*
X0193092Y0147595D01*
X0194725Y0146918D01*
X0193092Y0146242D01*
X0191684Y0144833D01*
X0167646Y0144833D01*
X0166855Y0145624D01*
X0165385Y0146233D01*
X0158593Y0146233D01*
X0157123Y0145624D01*
X0155998Y0144499D01*
X0155389Y0143029D01*
X0155389Y0141437D01*
X0155998Y0139967D01*
X0157123Y0138842D01*
X0158593Y0138233D01*
X0165385Y0138233D01*
X0166855Y0138842D01*
X0167646Y0139633D01*
X0191407Y0139633D01*
X0191658Y0139029D01*
X0193092Y0137595D01*
X0194725Y0136918D01*
X0193092Y0136242D01*
X0191684Y0134833D01*
X0167646Y0134833D01*
X0166855Y0135624D01*
X0165385Y0136233D01*
X0158593Y0136233D01*
X0157123Y0135624D01*
X0155998Y0134499D01*
X0155389Y0133029D01*
X0155389Y0131437D01*
X0155998Y0129967D01*
X0157123Y0128842D01*
X0158593Y0128233D01*
X0165385Y0128233D01*
X0166855Y0128842D01*
X0167646Y0129633D01*
X0191407Y0129633D01*
X0191658Y0129029D01*
X0193092Y0127595D01*
X0194218Y0127128D01*
X0193870Y0127015D01*
X0193098Y0126622D01*
X0192398Y0126113D01*
X0191786Y0125501D01*
X0191277Y0124801D01*
X0190884Y0124029D01*
X0190617Y0123206D01*
X0190481Y0122351D01*
X0190481Y0122118D01*
X0195781Y0122118D01*
X0195781Y0121718D01*
X0190481Y0121718D01*
X0190481Y0121485D01*
X0190617Y0120630D01*
X0190884Y0119807D01*
X0191277Y0119035D01*
X0191786Y0118335D01*
X0192398Y0117723D01*
X0193098Y0117214D01*
X0193870Y0116821D01*
X0194218Y0116708D01*
X0193092Y0116242D01*
X0191658Y0114807D01*
X0190881Y0112933D01*
X0190881Y0110904D01*
X0191658Y0109029D01*
X0192557Y0108130D01*
X0191909Y0107059D01*
X0190401Y0105757D01*
X0188564Y0104985D01*
X0187634Y0104833D01*
X0167646Y0104833D01*
X0166022Y0105969D02*
X0190646Y0105969D01*
X0192217Y0107568D02*
X0148317Y0107568D01*
X0146830Y0109166D02*
X0156799Y0109166D01*
X0157123Y0108842D02*
X0155998Y0109967D01*
X0155389Y0111437D01*
X0155389Y0113029D01*
X0155998Y0114499D01*
X0157123Y0115624D01*
X0158593Y0116233D01*
X0165385Y0116233D01*
X0166855Y0115624D01*
X0167980Y0114499D01*
X0168589Y0113029D01*
X0168589Y0111437D01*
X0167980Y0109967D01*
X0166855Y0108842D01*
X0165385Y0108233D01*
X0158593Y0108233D01*
X0157123Y0108842D01*
X0155668Y0110765D02*
X0145907Y0110765D01*
X0145327Y0112363D02*
X0155389Y0112363D01*
X0155775Y0113962D02*
X0144916Y0113962D01*
X0144833Y0115560D02*
X0157059Y0115560D01*
X0157700Y0118155D02*
X0158359Y0117941D01*
X0159043Y0117833D01*
X0161989Y0117833D01*
X0164935Y0117833D01*
X0165619Y0117941D01*
X0166278Y0118155D01*
X0166895Y0118470D01*
X0167455Y0118877D01*
X0167945Y0119367D01*
X0168352Y0119927D01*
X0168667Y0120544D01*
X0168881Y0121203D01*
X0168989Y0121887D01*
X0168989Y0122233D01*
X0161989Y0122233D01*
X0161989Y0117833D01*
X0161989Y0122233D01*
X0161989Y0122233D01*
X0161989Y0122233D01*
X0168989Y0122233D01*
X0168989Y0122579D01*
X0168881Y0123263D01*
X0168667Y0123922D01*
X0168352Y0124539D01*
X0167945Y0125099D01*
X0167455Y0125589D01*
X0166895Y0125996D01*
X0166278Y0126311D01*
X0165619Y0126525D01*
X0164935Y0126633D01*
X0161989Y0126633D01*
X0161989Y0122233D01*
X0154989Y0122233D01*
X0154989Y0121887D01*
X0155097Y0121203D01*
X0155311Y0120544D01*
X0155626Y0119927D01*
X0156033Y0119367D01*
X0156523Y0118877D01*
X0157083Y0118470D01*
X0157700Y0118155D01*
X0156687Y0118757D02*
X0144833Y0118757D01*
X0144833Y0117159D02*
X0193207Y0117159D01*
X0192411Y0115560D02*
X0166919Y0115560D01*
X0168203Y0113962D02*
X0191307Y0113962D01*
X0190881Y0112363D02*
X0168589Y0112363D01*
X0168310Y0110765D02*
X0190939Y0110765D01*
X0191601Y0109166D02*
X0167179Y0109166D01*
X0157956Y0105969D02*
X0150657Y0105969D01*
X0148385Y0101174D02*
X0138480Y0101174D01*
X0138589Y0102772D02*
X0145632Y0102772D01*
X0144034Y0104371D02*
X0138033Y0104371D01*
X0136022Y0105969D02*
X0142568Y0105969D01*
X0142750Y0105654D02*
X0142750Y0105654D01*
X0141645Y0107568D02*
X0092833Y0107568D01*
X0092660Y0109166D02*
X0126233Y0109166D01*
X0126033Y0109367D02*
X0126523Y0108877D01*
X0127083Y0108470D01*
X0127700Y0108155D01*
X0128359Y0107941D01*
X0129043Y0107833D01*
X0131989Y0107833D01*
X0134935Y0107833D01*
X0135619Y0107941D01*
X0136278Y0108155D01*
X0136895Y0108470D01*
X0137455Y0108877D01*
X0137945Y0109367D01*
X0138352Y0109927D01*
X0138667Y0110544D01*
X0138881Y0111203D01*
X0138989Y0111887D01*
X0138989Y0112233D01*
X0131989Y0112233D01*
X0131989Y0107833D01*
X0131989Y0112233D01*
X0131989Y0112233D01*
X0131989Y0112233D01*
X0138989Y0112233D01*
X0138989Y0112579D01*
X0138881Y0113263D01*
X0138667Y0113922D01*
X0138352Y0114539D01*
X0137945Y0115099D01*
X0137455Y0115589D01*
X0136895Y0115996D01*
X0136278Y0116311D01*
X0135619Y0116525D01*
X0134935Y0116633D01*
X0131989Y0116633D01*
X0131989Y0112233D01*
X0124989Y0112233D01*
X0124989Y0111887D01*
X0125097Y0111203D01*
X0125311Y0110544D01*
X0125626Y0109927D01*
X0126033Y0109367D01*
X0125240Y0110765D02*
X0091914Y0110765D01*
X0090333Y0112363D02*
X0124989Y0112363D01*
X0124989Y0112233D02*
X0124989Y0112579D01*
X0125097Y0113263D01*
X0125311Y0113922D01*
X0125626Y0114539D01*
X0126033Y0115099D01*
X0126523Y0115589D01*
X0127083Y0115996D01*
X0127700Y0116311D01*
X0128359Y0116525D01*
X0129043Y0116633D01*
X0131989Y0116633D01*
X0131989Y0112233D01*
X0131989Y0112233D01*
X0124989Y0112233D01*
X0125331Y0113962D02*
X0090333Y0113962D01*
X0090333Y0115560D02*
X0126493Y0115560D01*
X0131989Y0115560D02*
X0131989Y0115560D01*
X0131989Y0113962D02*
X0131989Y0113962D01*
X0131989Y0112363D02*
X0131989Y0112363D01*
X0131989Y0112233D02*
X0131989Y0112233D01*
X0131989Y0110765D02*
X0131989Y0110765D01*
X0131989Y0109166D02*
X0131989Y0109166D01*
X0127956Y0105969D02*
X0092523Y0105969D01*
X0091583Y0104371D02*
X0112199Y0104371D01*
X0110866Y0103600D02*
X0110866Y0103600D01*
X0110866Y0103600D01*
X0110387Y0102772D02*
X0106407Y0102772D01*
X0107742Y0101174D02*
X0109633Y0101174D01*
X0109581Y0099575D02*
X0108333Y0099575D01*
X0108333Y0097977D02*
X0109146Y0097977D01*
X0108246Y0096378D02*
X0107778Y0096378D01*
X0100060Y0102772D02*
X0089083Y0102772D01*
X0086383Y0102772D02*
X0039033Y0102772D01*
X0039033Y0101174D02*
X0083961Y0101174D01*
X0082976Y0099575D02*
X0039033Y0099575D01*
X0039033Y0097977D02*
X0082633Y0097977D01*
X0082774Y0096378D02*
X0039033Y0096378D01*
X0039033Y0094779D02*
X0083474Y0094779D01*
X0085396Y0093181D02*
X0049358Y0093181D01*
X0048815Y0093724D02*
X0046993Y0093724D01*
X0046993Y0089324D01*
X0046993Y0089324D01*
X0046993Y0093724D01*
X0045170Y0093724D01*
X0042593Y0091146D01*
X0042593Y0089324D01*
X0046993Y0089324D01*
X0051393Y0089324D01*
X0051393Y0091146D01*
X0048815Y0093724D01*
X0046993Y0093181D02*
X0046993Y0093181D01*
X0046993Y0091582D02*
X0046993Y0091582D01*
X0046993Y0089984D02*
X0046993Y0089984D01*
X0046993Y0089324D02*
X0046993Y0089324D01*
X0046993Y0089324D01*
X0051393Y0089324D01*
X0051393Y0087501D01*
X0048815Y0084924D01*
X0046993Y0084924D01*
X0046993Y0089323D01*
X0046993Y0089323D01*
X0046993Y0084924D01*
X0045170Y0084924D01*
X0042593Y0087501D01*
X0042593Y0089324D01*
X0046993Y0089324D01*
X0046993Y0088385D02*
X0046993Y0088385D01*
X0046993Y0086787D02*
X0046993Y0086787D01*
X0046993Y0085188D02*
X0046993Y0085188D01*
X0049080Y0085188D02*
X0077392Y0085188D01*
X0076469Y0083590D02*
X0039033Y0083590D01*
X0039033Y0085188D02*
X0044906Y0085188D01*
X0043307Y0086787D02*
X0039033Y0086787D01*
X0039033Y0088385D02*
X0042593Y0088385D01*
X0042593Y0089984D02*
X0039033Y0089984D01*
X0039033Y0091582D02*
X0043029Y0091582D01*
X0044628Y0093181D02*
X0039033Y0093181D01*
X0039033Y0081991D02*
X0075804Y0081991D01*
X0075376Y0080393D02*
X0039033Y0080393D01*
X0050679Y0086787D02*
X0078315Y0086787D01*
X0079860Y0088385D02*
X0051393Y0088385D01*
X0051393Y0089984D02*
X0081458Y0089984D01*
X0084031Y0091582D02*
X0050957Y0091582D01*
X0049295Y0105969D02*
X0082944Y0105969D01*
X0082633Y0107568D02*
X0050894Y0107568D01*
X0050993Y0109166D02*
X0082806Y0109166D01*
X0083552Y0110765D02*
X0050993Y0110765D01*
X0049633Y0112363D02*
X0085133Y0112363D01*
X0085133Y0113962D02*
X0050016Y0113962D01*
X0050791Y0115560D02*
X0085133Y0115560D01*
X0085133Y0117159D02*
X0059505Y0117159D01*
X0053182Y0117159D02*
X0052294Y0117159D01*
X0049907Y0121954D02*
X0039033Y0121954D01*
X0039033Y0120356D02*
X0047745Y0120356D01*
X0046584Y0118757D02*
X0039033Y0118757D01*
X0039033Y0117159D02*
X0045500Y0117159D01*
X0045563Y0117352D02*
X0045563Y0117352D01*
X0044980Y0115560D02*
X0039033Y0115560D01*
X0039033Y0113962D02*
X0044461Y0113962D01*
X0044376Y0112363D02*
X0039033Y0112363D01*
X0039033Y0110765D02*
X0042993Y0110765D01*
X0042993Y0109166D02*
X0039033Y0109166D01*
X0039033Y0107568D02*
X0043092Y0107568D01*
X0044691Y0105969D02*
X0039033Y0105969D01*
X0039033Y0104371D02*
X0083883Y0104371D01*
X0091505Y0101174D02*
X0098724Y0101174D01*
X0112451Y0086298D02*
X0112451Y0086298D01*
X0113177Y0086787D02*
X0175496Y0086787D01*
X0174296Y0085188D02*
X0167290Y0085188D01*
X0165752Y0088385D02*
X0188157Y0088385D01*
X0186898Y0086787D02*
X0182309Y0086787D01*
X0194766Y0088385D02*
X0216990Y0088385D01*
X0216898Y0086787D02*
X0196025Y0086787D01*
X0196561Y0085188D02*
X0216361Y0085188D01*
X0216361Y0083590D02*
X0196561Y0083590D01*
X0195952Y0081991D02*
X0216971Y0081991D01*
X0218333Y0080393D02*
X0194590Y0080393D01*
X0189839Y0099795D02*
X0189839Y0099795D01*
X0193118Y0101174D02*
X0210332Y0101174D01*
X0210233Y0102319D02*
X0215647Y0102319D01*
X0215647Y0107733D01*
X0215300Y0107733D01*
X0214445Y0107598D01*
X0213622Y0107330D01*
X0212850Y0106937D01*
X0212150Y0106428D01*
X0211538Y0105816D01*
X0211029Y0105116D01*
X0210636Y0104344D01*
X0210369Y0103521D01*
X0210233Y0102666D01*
X0210233Y0102319D01*
X0210250Y0102772D02*
X0195021Y0102772D01*
X0196452Y0104371D02*
X0210649Y0104371D01*
X0211691Y0105969D02*
X0197420Y0105969D01*
X0197888Y0106743D02*
X0197888Y0106743D01*
X0198805Y0107568D02*
X0214353Y0107568D01*
X0215647Y0107568D02*
X0215819Y0107568D01*
X0217113Y0107568D02*
X0223133Y0107568D01*
X0223133Y0109166D02*
X0200361Y0109166D01*
X0202473Y0110765D02*
X0223133Y0110765D01*
X0223133Y0112363D02*
X0204673Y0112363D01*
X0206413Y0113962D02*
X0223094Y0113962D01*
X0228079Y0115560D02*
X0232283Y0115560D01*
X0232283Y0113962D02*
X0228333Y0113962D01*
X0228333Y0112363D02*
X0232283Y0112363D01*
X0232283Y0110765D02*
X0228333Y0110765D01*
X0228333Y0109166D02*
X0232283Y0109166D01*
X0232283Y0107568D02*
X0228333Y0107568D01*
X0229210Y0105969D02*
X0232283Y0105969D01*
X0232283Y0104371D02*
X0230368Y0104371D01*
X0230833Y0102772D02*
X0232283Y0102772D01*
X0232283Y0101174D02*
X0230814Y0101174D01*
X0230152Y0099575D02*
X0232283Y0099575D01*
X0232283Y0097977D02*
X0228689Y0097977D01*
X0232283Y0096378D02*
X0131123Y0096378D01*
X0125194Y0093181D02*
X0122528Y0093181D01*
X0135752Y0088385D02*
X0158225Y0088385D01*
X0155991Y0089984D02*
X0137987Y0089984D01*
X0138589Y0091582D02*
X0155389Y0091582D01*
X0155452Y0093181D02*
X0138526Y0093181D01*
X0137699Y0094779D02*
X0156279Y0094779D01*
X0156390Y0099575D02*
X0137588Y0099575D01*
X0137745Y0109166D02*
X0140723Y0109166D01*
X0140280Y0110765D02*
X0138738Y0110765D01*
X0138989Y0112363D02*
X0139852Y0112363D01*
X0139633Y0113962D02*
X0138646Y0113962D01*
X0139633Y0115560D02*
X0137484Y0115560D01*
X0139320Y0117159D02*
X0090333Y0117159D01*
X0090567Y0125151D02*
X0099602Y0125151D01*
X0098534Y0126750D02*
X0091429Y0126750D01*
X0091725Y0128348D02*
X0098133Y0128348D01*
X0098216Y0129947D02*
X0091549Y0129947D01*
X0090835Y0131545D02*
X0098878Y0131545D01*
X0098796Y0133443D02*
X0101373Y0136021D01*
X0101373Y0137843D01*
X0096973Y0137843D01*
X0096973Y0137843D01*
X0096973Y0133443D01*
X0095151Y0133443D01*
X0092573Y0136021D01*
X0092573Y0137843D01*
X0096973Y0137843D01*
X0096973Y0137843D01*
X0096973Y0133443D01*
X0098796Y0133443D01*
X0100554Y0133144D02*
X0089235Y0133144D01*
X0086311Y0133144D02*
X0086139Y0133144D01*
X0086139Y0134032D02*
X0086139Y0128618D01*
X0080725Y0128618D01*
X0080725Y0128965D01*
X0080861Y0129820D01*
X0081128Y0130644D01*
X0081521Y0131415D01*
X0082030Y0132115D01*
X0082642Y0132727D01*
X0083343Y0133236D01*
X0084114Y0133629D01*
X0084937Y0133897D01*
X0085792Y0134032D01*
X0086139Y0134032D01*
X0086139Y0131545D02*
X0086311Y0131545D01*
X0086311Y0129947D02*
X0086139Y0129947D01*
X0083215Y0133144D02*
X0076608Y0133144D01*
X0078614Y0131545D02*
X0081616Y0131545D01*
X0080902Y0129947D02*
X0079348Y0129947D01*
X0079514Y0128348D02*
X0080725Y0128348D01*
X0081021Y0126750D02*
X0079196Y0126750D01*
X0078246Y0125151D02*
X0081883Y0125151D01*
X0092573Y0136341D02*
X0058903Y0136341D01*
X0060023Y0134742D02*
X0093852Y0134742D01*
X0096973Y0134742D02*
X0096973Y0134742D01*
X0096973Y0136341D02*
X0096973Y0136341D01*
X0096973Y0137843D02*
X0096973Y0137843D01*
X0092573Y0137843D01*
X0092573Y0139666D01*
X0095151Y0142243D01*
X0096973Y0142243D01*
X0096973Y0137843D01*
X0096973Y0137843D01*
X0096973Y0142243D01*
X0098796Y0142243D01*
X0101373Y0139666D01*
X0101373Y0137843D01*
X0096973Y0137843D01*
X0096973Y0137939D02*
X0096973Y0137939D01*
X0096973Y0139538D02*
X0096973Y0139538D01*
X0096973Y0141136D02*
X0096973Y0141136D01*
X0094044Y0141136D02*
X0056543Y0141136D01*
X0056143Y0141136D02*
X0049573Y0141136D01*
X0049573Y0142735D02*
X0051056Y0142735D01*
X0051815Y0144333D02*
X0049573Y0144333D01*
X0049573Y0145932D02*
X0053497Y0145932D01*
X0056143Y0145932D02*
X0056543Y0145932D01*
X0056543Y0144333D02*
X0056143Y0144333D01*
X0056143Y0142735D02*
X0056543Y0142735D01*
X0059190Y0145932D02*
X0107219Y0145932D01*
X0107844Y0146557D02*
X0106409Y0145122D01*
X0105633Y0143248D01*
X0105633Y0141219D01*
X0106409Y0139344D01*
X0107844Y0137909D01*
X0109719Y0137133D01*
X0111748Y0137133D01*
X0113622Y0137909D01*
X0115057Y0139344D01*
X0115176Y0139633D01*
X0126332Y0139633D01*
X0127123Y0138842D01*
X0128593Y0138233D01*
X0135385Y0138233D01*
X0136855Y0138842D01*
X0137980Y0139967D01*
X0138589Y0141437D01*
X0138589Y0143029D01*
X0137980Y0144499D01*
X0136855Y0145624D01*
X0135385Y0146233D01*
X0128593Y0146233D01*
X0127123Y0145624D01*
X0126332Y0144833D01*
X0115176Y0144833D01*
X0115057Y0145122D01*
X0113622Y0146557D01*
X0111989Y0147233D01*
X0113622Y0147909D01*
X0115057Y0149344D01*
X0115176Y0149633D01*
X0126332Y0149633D01*
X0127123Y0148842D01*
X0128593Y0148233D01*
X0135385Y0148233D01*
X0136855Y0148842D01*
X0137980Y0149967D01*
X0138589Y0151437D01*
X0138589Y0153029D01*
X0137980Y0154499D01*
X0136855Y0155624D01*
X0135385Y0156233D01*
X0128593Y0156233D01*
X0127123Y0155624D01*
X0126332Y0154833D01*
X0115176Y0154833D01*
X0115057Y0155122D01*
X0113622Y0156557D01*
X0111748Y0157333D01*
X0109719Y0157333D01*
X0107844Y0156557D01*
X0106409Y0155122D01*
X0105633Y0153248D01*
X0105633Y0151219D01*
X0106409Y0149344D01*
X0107844Y0147909D01*
X0109477Y0147233D01*
X0107844Y0146557D01*
X0108759Y0147530D02*
X0049573Y0147530D01*
X0049573Y0149129D02*
X0106625Y0149129D01*
X0105837Y0150727D02*
X0049573Y0150727D01*
X0049573Y0152326D02*
X0105633Y0152326D01*
X0105913Y0153924D02*
X0098711Y0153924D01*
X0098630Y0153843D02*
X0100973Y0156186D01*
X0100973Y0159500D01*
X0100915Y0159558D01*
X0101014Y0159599D01*
X0101363Y0159633D01*
X0126332Y0159633D01*
X0127123Y0158842D01*
X0128593Y0158233D01*
X0135385Y0158233D01*
X0136855Y0158842D01*
X0137980Y0159967D01*
X0138589Y0161437D01*
X0138589Y0163029D01*
X0137980Y0164499D01*
X0136855Y0165624D01*
X0135385Y0166233D01*
X0128593Y0166233D01*
X0127123Y0165624D01*
X0126332Y0164833D01*
X0099973Y0164833D01*
X0097404Y0163769D01*
X0097404Y0163769D01*
X0095478Y0161843D01*
X0095316Y0161843D01*
X0094284Y0160811D01*
X0091788Y0161132D01*
X0090668Y0161132D01*
X0090549Y0161421D01*
X0089114Y0162856D01*
X0087240Y0163632D01*
X0085211Y0163632D01*
X0083336Y0162856D01*
X0081902Y0161421D01*
X0081782Y0161132D01*
X0078857Y0161132D01*
X0078738Y0161421D01*
X0077303Y0162856D01*
X0075429Y0163632D01*
X0073400Y0163632D01*
X0071525Y0162856D01*
X0070091Y0161421D01*
X0069314Y0159547D01*
X0069314Y0157518D01*
X0070091Y0155643D01*
X0071525Y0154209D01*
X0073400Y0153432D01*
X0075429Y0153432D01*
X0077303Y0154209D01*
X0078738Y0155643D01*
X0078857Y0155932D01*
X0081782Y0155932D01*
X0081902Y0155643D01*
X0083336Y0154209D01*
X0085211Y0153432D01*
X0087240Y0153432D01*
X0089114Y0154209D01*
X0090549Y0155643D01*
X0090610Y0155792D01*
X0091444Y0155765D01*
X0093602Y0155557D01*
X0095316Y0153843D01*
X0098630Y0153843D01*
X0100310Y0155523D02*
X0106810Y0155523D01*
X0109208Y0157121D02*
X0100973Y0157121D01*
X0100973Y0158720D02*
X0127418Y0158720D01*
X0127022Y0155523D02*
X0114656Y0155523D01*
X0112258Y0157121D02*
X0139633Y0157121D01*
X0139633Y0155523D02*
X0136956Y0155523D01*
X0138218Y0153924D02*
X0139633Y0153924D01*
X0139633Y0152326D02*
X0138589Y0152326D01*
X0138295Y0150727D02*
X0139633Y0150727D01*
X0139633Y0149129D02*
X0137142Y0149129D01*
X0139633Y0147530D02*
X0112707Y0147530D01*
X0114247Y0145932D02*
X0127866Y0145932D01*
X0126836Y0149129D02*
X0114841Y0149129D01*
X0115137Y0139538D02*
X0126427Y0139538D01*
X0137551Y0139538D02*
X0139633Y0139538D01*
X0139633Y0141136D02*
X0138464Y0141136D01*
X0138589Y0142735D02*
X0139633Y0142735D01*
X0139633Y0144333D02*
X0138049Y0144333D01*
X0139633Y0145932D02*
X0136112Y0145932D01*
X0144833Y0145932D02*
X0157866Y0145932D01*
X0155929Y0144333D02*
X0144833Y0144333D01*
X0144833Y0142735D02*
X0155389Y0142735D01*
X0155514Y0141136D02*
X0144833Y0141136D01*
X0144833Y0139538D02*
X0156427Y0139538D01*
X0156241Y0134742D02*
X0144833Y0134742D01*
X0144833Y0133144D02*
X0155437Y0133144D01*
X0155389Y0131545D02*
X0144833Y0131545D01*
X0144833Y0129947D02*
X0156018Y0129947D01*
X0158315Y0128348D02*
X0144833Y0128348D01*
X0144833Y0126750D02*
X0193349Y0126750D01*
X0192338Y0128348D02*
X0165663Y0128348D01*
X0167893Y0125151D02*
X0191532Y0125151D01*
X0190729Y0123553D02*
X0168787Y0123553D01*
X0168989Y0121954D02*
X0195781Y0121954D01*
X0196181Y0121954D02*
X0204537Y0121954D01*
X0204633Y0123553D02*
X0201233Y0123553D01*
X0200430Y0125151D02*
X0204633Y0125151D01*
X0204633Y0126750D02*
X0198613Y0126750D01*
X0199624Y0128348D02*
X0204633Y0128348D01*
X0204633Y0129947D02*
X0200685Y0129947D01*
X0201081Y0131545D02*
X0204633Y0131545D01*
X0204633Y0133144D02*
X0200994Y0133144D01*
X0200331Y0134742D02*
X0204633Y0134742D01*
X0204633Y0136341D02*
X0198631Y0136341D01*
X0199215Y0137939D02*
X0204633Y0137939D01*
X0204633Y0139538D02*
X0200515Y0139538D01*
X0201081Y0141136D02*
X0204633Y0141136D01*
X0204633Y0142735D02*
X0201081Y0142735D01*
X0200501Y0144333D02*
X0204633Y0144333D01*
X0204633Y0145932D02*
X0199180Y0145932D01*
X0198715Y0147530D02*
X0204633Y0147530D01*
X0204633Y0149129D02*
X0200346Y0149129D01*
X0201008Y0150727D02*
X0204633Y0150727D01*
X0204633Y0152326D02*
X0201081Y0152326D01*
X0200670Y0153924D02*
X0204633Y0153924D01*
X0204633Y0155523D02*
X0199589Y0155523D01*
X0197728Y0157121D02*
X0204633Y0157121D01*
X0204633Y0158720D02*
X0199995Y0158720D01*
X0200839Y0160318D02*
X0204633Y0160318D01*
X0204633Y0161917D02*
X0201081Y0161917D01*
X0200840Y0163515D02*
X0204633Y0163515D01*
X0204633Y0165114D02*
X0199998Y0165114D01*
X0197733Y0166712D02*
X0204633Y0166712D01*
X0204548Y0168311D02*
X0165573Y0168311D01*
X0167365Y0165114D02*
X0191964Y0165114D01*
X0194229Y0166712D02*
X0144833Y0166712D01*
X0144833Y0165114D02*
X0156613Y0165114D01*
X0155591Y0163515D02*
X0144833Y0163515D01*
X0144833Y0161917D02*
X0155389Y0161917D01*
X0155852Y0160318D02*
X0144833Y0160318D01*
X0144833Y0158720D02*
X0157418Y0158720D01*
X0157022Y0155523D02*
X0144833Y0155523D01*
X0144833Y0157121D02*
X0194234Y0157121D01*
X0192373Y0155523D02*
X0166956Y0155523D01*
X0166560Y0158720D02*
X0191967Y0158720D01*
X0191616Y0149129D02*
X0167142Y0149129D01*
X0166112Y0145932D02*
X0192782Y0145932D01*
X0193247Y0147530D02*
X0144833Y0147530D01*
X0144833Y0149129D02*
X0156836Y0149129D01*
X0155683Y0150727D02*
X0144833Y0150727D01*
X0144833Y0152326D02*
X0155389Y0152326D01*
X0155760Y0153924D02*
X0144833Y0153924D01*
X0139633Y0158720D02*
X0136560Y0158720D01*
X0138125Y0160318D02*
X0139633Y0160318D01*
X0139633Y0161917D02*
X0138589Y0161917D01*
X0138387Y0163515D02*
X0139633Y0163515D01*
X0139633Y0165114D02*
X0137365Y0165114D01*
X0139633Y0166712D02*
X0066208Y0166712D01*
X0064971Y0165114D02*
X0126613Y0165114D01*
X0128405Y0168311D02*
X0096663Y0168311D01*
X0098752Y0169910D02*
X0109091Y0169910D01*
X0106722Y0171508D02*
X0099521Y0171508D01*
X0099711Y0173107D02*
X0105788Y0173107D01*
X0106258Y0171972D02*
X0106258Y0171972D01*
X0105436Y0174705D02*
X0099417Y0174705D01*
X0098501Y0176304D02*
X0105228Y0176304D01*
X0104530Y0177902D02*
X0096058Y0177902D01*
X0098343Y0179501D02*
X0102922Y0179501D01*
X0105281Y0184296D02*
X0124728Y0184296D01*
X0124728Y0185895D02*
X0098910Y0185895D01*
X0097045Y0187493D02*
X0124728Y0187493D01*
X0124728Y0189092D02*
X0098500Y0189092D01*
X0099617Y0190690D02*
X0124728Y0190690D01*
X0124728Y0192289D02*
X0100070Y0192289D01*
X0100036Y0193887D02*
X0124728Y0193887D01*
X0124421Y0195486D02*
X0099508Y0195486D01*
X0098286Y0197084D02*
X0122929Y0197084D01*
X0122267Y0198683D02*
X0079142Y0198683D01*
X0079140Y0197084D02*
X0090936Y0197084D01*
X0091028Y0197176D02*
X0090416Y0196564D01*
X0089907Y0195864D01*
X0089514Y0195092D01*
X0089246Y0194269D01*
X0089111Y0193414D01*
X0089111Y0193181D01*
X0094411Y0193181D01*
X0094411Y0198481D01*
X0094178Y0198481D01*
X0093323Y0198346D01*
X0092500Y0198078D01*
X0091728Y0197685D01*
X0091028Y0197176D01*
X0089714Y0195486D02*
X0079140Y0195486D01*
X0079140Y0193887D02*
X0089186Y0193887D01*
X0089152Y0192289D02*
X0079140Y0192289D01*
X0079164Y0190690D02*
X0089606Y0190690D01*
X0090722Y0189092D02*
X0079269Y0189092D01*
X0079685Y0187493D02*
X0092177Y0187493D01*
X0090312Y0185895D02*
X0080113Y0185895D01*
X0080800Y0184296D02*
X0089636Y0184296D01*
X0089511Y0182698D02*
X0081723Y0182698D01*
X0082872Y0181099D02*
X0089870Y0181099D01*
X0090879Y0179501D02*
X0084470Y0179501D01*
X0086710Y0177902D02*
X0093164Y0177902D01*
X0087684Y0171508D02*
X0072519Y0171508D01*
X0069655Y0169910D02*
X0090470Y0169910D01*
X0092559Y0168311D02*
X0067567Y0168311D01*
X0064139Y0163515D02*
X0073118Y0163515D01*
X0075711Y0163515D02*
X0084929Y0163515D01*
X0087522Y0163515D02*
X0097150Y0163515D01*
X0095552Y0161917D02*
X0090053Y0161917D01*
X0090428Y0155523D02*
X0093637Y0155523D01*
X0095235Y0153924D02*
X0088428Y0153924D01*
X0084023Y0153924D02*
X0076617Y0153924D01*
X0078617Y0155523D02*
X0082022Y0155523D01*
X0082397Y0161917D02*
X0078242Y0161917D01*
X0070586Y0161917D02*
X0063337Y0161917D01*
X0062880Y0160318D02*
X0069634Y0160318D01*
X0069314Y0158720D02*
X0062632Y0158720D01*
X0061970Y0157121D02*
X0069478Y0157121D01*
X0070211Y0155523D02*
X0060787Y0155523D01*
X0061675Y0156411D02*
X0061675Y0156411D01*
X0059449Y0154185D02*
X0059449Y0154185D01*
X0058821Y0153924D02*
X0072212Y0153924D01*
X0060872Y0144333D02*
X0106083Y0144333D01*
X0105633Y0142735D02*
X0061631Y0142735D01*
X0061583Y0139538D02*
X0092573Y0139538D01*
X0092573Y0137939D02*
X0060766Y0137939D01*
X0053784Y0136341D02*
X0051158Y0136341D01*
X0051921Y0137939D02*
X0050170Y0137939D01*
X0049655Y0139538D02*
X0051103Y0139538D01*
X0044615Y0137939D02*
X0039033Y0137939D01*
X0039033Y0136341D02*
X0045134Y0136341D01*
X0045545Y0135077D02*
X0045545Y0135077D01*
X0045788Y0134742D02*
X0039033Y0134742D01*
X0039033Y0133144D02*
X0046950Y0133144D01*
X0047774Y0132010D02*
X0047774Y0132010D01*
X0047774Y0132010D01*
X0048413Y0131545D02*
X0039033Y0131545D01*
X0039033Y0129947D02*
X0050613Y0129947D01*
X0052008Y0128348D02*
X0039033Y0128348D01*
X0039033Y0126750D02*
X0053783Y0126750D01*
X0053073Y0125151D02*
X0039033Y0125151D01*
X0039033Y0123553D02*
X0051794Y0123553D01*
X0050850Y0122640D02*
X0050850Y0122640D01*
X0044373Y0139538D02*
X0039033Y0139538D01*
X0039033Y0141136D02*
X0044373Y0141136D01*
X0044373Y0142735D02*
X0039033Y0142735D01*
X0039033Y0144333D02*
X0044373Y0144333D01*
X0044373Y0145932D02*
X0039033Y0145932D01*
X0039033Y0147530D02*
X0044373Y0147530D01*
X0044373Y0149129D02*
X0039033Y0149129D01*
X0039033Y0150727D02*
X0044373Y0150727D01*
X0044373Y0152326D02*
X0039033Y0152326D01*
X0039033Y0153924D02*
X0042973Y0153924D01*
X0042973Y0155523D02*
X0039033Y0155523D01*
X0039033Y0157121D02*
X0042973Y0157121D01*
X0044457Y0158720D02*
X0039033Y0158720D01*
X0039033Y0160318D02*
X0057609Y0160318D01*
X0057860Y0161917D02*
X0039033Y0161917D01*
X0039033Y0163515D02*
X0058278Y0163515D01*
X0058402Y0163991D02*
X0058402Y0163991D01*
X0058987Y0165114D02*
X0039033Y0165114D01*
X0039033Y0166712D02*
X0059819Y0166712D01*
X0060651Y0168311D02*
X0039033Y0168311D01*
X0039033Y0169910D02*
X0061959Y0169910D01*
X0060731Y0168464D02*
X0060731Y0168464D01*
X0063318Y0171508D02*
X0049124Y0171508D01*
X0048796Y0171180D02*
X0051373Y0173757D01*
X0051373Y0175579D01*
X0046973Y0175579D01*
X0046973Y0175579D01*
X0046973Y0171180D01*
X0045151Y0171180D01*
X0042573Y0173757D01*
X0042573Y0175579D01*
X0046973Y0175579D01*
X0046973Y0175580D01*
X0046973Y0179980D01*
X0045151Y0179980D01*
X0042573Y0177402D01*
X0042573Y0175580D01*
X0046973Y0175580D01*
X0046973Y0175580D01*
X0046973Y0179980D01*
X0048796Y0179980D01*
X0051373Y0177402D01*
X0051373Y0175580D01*
X0046973Y0175580D01*
X0046973Y0175579D01*
X0046973Y0171180D01*
X0048796Y0171180D01*
X0046973Y0171508D02*
X0046973Y0171508D01*
X0046973Y0173107D02*
X0046973Y0173107D01*
X0046973Y0174705D02*
X0046973Y0174705D01*
X0046973Y0176304D02*
X0046973Y0176304D01*
X0046973Y0177902D02*
X0046973Y0177902D01*
X0046973Y0179501D02*
X0046973Y0179501D01*
X0044672Y0179501D02*
X0039033Y0179501D01*
X0039033Y0181099D02*
X0076489Y0181099D01*
X0077412Y0179501D02*
X0049275Y0179501D01*
X0050873Y0177902D02*
X0075361Y0177902D01*
X0077592Y0178339D02*
X0077592Y0178339D01*
X0075566Y0182698D02*
X0039033Y0182698D01*
X0039033Y0184296D02*
X0075021Y0184296D01*
X0075349Y0183073D02*
X0075349Y0183073D01*
X0074593Y0185895D02*
X0039033Y0185895D01*
X0039033Y0187493D02*
X0074165Y0187493D01*
X0073940Y0189092D02*
X0039033Y0189092D01*
X0039033Y0190690D02*
X0073940Y0190690D01*
X0073940Y0192289D02*
X0039033Y0192289D01*
X0039033Y0193887D02*
X0073940Y0193887D01*
X0073940Y0195486D02*
X0069347Y0195486D01*
X0064363Y0195486D02*
X0049913Y0195486D01*
X0048678Y0194250D02*
X0051255Y0196828D01*
X0051255Y0198650D01*
X0046855Y0198650D01*
X0046855Y0198650D01*
X0046855Y0194250D01*
X0045033Y0194250D01*
X0042455Y0196828D01*
X0042455Y0198650D01*
X0046855Y0198650D01*
X0046855Y0194250D01*
X0048678Y0194250D01*
X0046855Y0195486D02*
X0046855Y0195486D01*
X0046855Y0197084D02*
X0046855Y0197084D01*
X0046855Y0198650D02*
X0046855Y0198650D01*
X0046855Y0198650D01*
X0042455Y0198650D01*
X0042455Y0200473D01*
X0045033Y0203050D01*
X0046855Y0203050D01*
X0046855Y0198651D01*
X0046855Y0198651D01*
X0046855Y0203050D01*
X0048678Y0203050D01*
X0051255Y0200473D01*
X0051255Y0198650D01*
X0046855Y0198650D01*
X0046855Y0198683D02*
X0046855Y0198683D01*
X0046855Y0200281D02*
X0046855Y0200281D01*
X0046855Y0201880D02*
X0046855Y0201880D01*
X0049848Y0201880D02*
X0064428Y0201880D01*
X0062855Y0200281D02*
X0051255Y0200281D01*
X0051255Y0198683D02*
X0062855Y0198683D01*
X0062855Y0197084D02*
X0051255Y0197084D01*
X0043797Y0195486D02*
X0039033Y0195486D01*
X0039033Y0197084D02*
X0042455Y0197084D01*
X0042455Y0198683D02*
X0039033Y0198683D01*
X0039033Y0200281D02*
X0042455Y0200281D01*
X0043862Y0201880D02*
X0039033Y0201880D01*
X0039033Y0203478D02*
X0074670Y0203478D01*
X0075030Y0204821D02*
X0075030Y0204821D01*
X0075177Y0205077D02*
X0039033Y0205077D01*
X0039033Y0206675D02*
X0076100Y0206675D01*
X0077023Y0208274D02*
X0039033Y0208274D01*
X0039033Y0209872D02*
X0078541Y0209872D01*
X0077134Y0208466D02*
X0077134Y0208466D01*
X0081288Y0205077D02*
X0124647Y0205077D01*
X0123801Y0203478D02*
X0080365Y0203478D01*
X0079720Y0201880D02*
X0122672Y0201880D01*
X0122228Y0200281D02*
X0079292Y0200281D01*
X0074242Y0201880D02*
X0069283Y0201880D01*
X0080110Y0211442D02*
X0080110Y0211442D01*
X0080160Y0211471D02*
X0039033Y0211471D01*
X0039033Y0213069D02*
X0082929Y0213069D01*
X0085207Y0208274D02*
X0089665Y0208274D01*
X0082828Y0206675D02*
X0122578Y0206675D01*
X0121817Y0208274D02*
X0096565Y0208274D01*
X0097739Y0209872D02*
X0121633Y0209872D01*
X0121933Y0211471D02*
X0098215Y0211471D01*
X0098207Y0213069D02*
X0122857Y0213069D01*
X0125320Y0214668D02*
X0097545Y0214668D01*
X0096097Y0216266D02*
X0122987Y0216266D01*
X0121987Y0217865D02*
X0096722Y0217865D01*
X0097977Y0219463D02*
X0121633Y0219463D01*
X0121763Y0221062D02*
X0098529Y0221062D01*
X0098585Y0222660D02*
X0122448Y0222660D01*
X0124332Y0224259D02*
X0098155Y0224259D01*
X0097072Y0225857D02*
X0126307Y0225857D01*
X0126871Y0226634D02*
X0126871Y0226634D01*
X0126871Y0226634D01*
X0128003Y0227456D02*
X0094055Y0227456D01*
X0093315Y0227456D02*
X0092915Y0227456D01*
X0092915Y0227536D02*
X0092682Y0227536D01*
X0091827Y0227401D01*
X0091004Y0227133D01*
X0090232Y0226740D01*
X0089532Y0226231D01*
X0088920Y0225619D01*
X0088411Y0224919D01*
X0088018Y0224147D01*
X0087750Y0223324D01*
X0087615Y0222469D01*
X0087615Y0222236D01*
X0092915Y0222236D01*
X0092915Y0227536D01*
X0092175Y0227456D02*
X0052815Y0227456D01*
X0052597Y0227983D02*
X0050983Y0229597D01*
X0048874Y0230470D01*
X0046592Y0230470D01*
X0044483Y0229597D01*
X0042869Y0227983D01*
X0041996Y0225874D01*
X0041996Y0223592D01*
X0042869Y0221483D01*
X0044483Y0219869D01*
X0046592Y0218996D01*
X0048874Y0218996D01*
X0050983Y0219869D01*
X0052597Y0221483D01*
X0053470Y0223592D01*
X0053470Y0225874D01*
X0052597Y0227983D01*
X0051525Y0229054D02*
X0131267Y0229054D01*
X0145520Y0214668D02*
X0155320Y0214668D01*
X0152987Y0216266D02*
X0147051Y0216266D01*
X0144916Y0213069D02*
X0152857Y0213069D01*
X0151933Y0211471D02*
X0144833Y0211471D01*
X0144275Y0209872D02*
X0151633Y0209872D01*
X0151817Y0208274D02*
X0142986Y0208274D01*
X0142622Y0207909D02*
X0142622Y0207909D01*
X0144057Y0209344D02*
X0144057Y0209344D01*
X0152578Y0206675D02*
X0130888Y0206675D01*
X0128819Y0205077D02*
X0154647Y0205077D01*
X0153801Y0203478D02*
X0130854Y0203478D01*
X0131983Y0201880D02*
X0152672Y0201880D01*
X0148930Y0200281D02*
X0132428Y0200281D01*
X0132388Y0198683D02*
X0146289Y0198683D01*
X0144690Y0197084D02*
X0131726Y0197084D01*
X0130234Y0195486D02*
X0143124Y0195486D01*
X0143168Y0195562D02*
X0143168Y0195562D01*
X0142201Y0193887D02*
X0129928Y0193887D01*
X0129928Y0192289D02*
X0141278Y0192289D01*
X0140839Y0191527D02*
X0140839Y0191527D01*
X0140615Y0190690D02*
X0129928Y0190690D01*
X0129928Y0189092D02*
X0140186Y0189092D01*
X0139758Y0187493D02*
X0129928Y0187493D01*
X0136202Y0185895D02*
X0139633Y0185895D01*
X0139633Y0184296D02*
X0138064Y0184296D01*
X0138589Y0182698D02*
X0139633Y0182698D01*
X0139633Y0181099D02*
X0138449Y0181099D01*
X0137513Y0179501D02*
X0139633Y0179501D01*
X0139633Y0177902D02*
X0110246Y0177902D01*
X0110636Y0176304D02*
X0126051Y0176304D01*
X0127593Y0176751D02*
X0127593Y0176751D01*
X0130519Y0176427D02*
X0130519Y0176427D01*
X0130743Y0176304D02*
X0139633Y0176304D01*
X0139633Y0174705D02*
X0137774Y0174705D01*
X0138557Y0173107D02*
X0139633Y0173107D01*
X0139633Y0171508D02*
X0138589Y0171508D01*
X0137922Y0169910D02*
X0139633Y0169910D01*
X0139633Y0168311D02*
X0135573Y0168311D01*
X0144833Y0168311D02*
X0158405Y0168311D01*
X0156056Y0169910D02*
X0144833Y0169910D01*
X0144833Y0171508D02*
X0155389Y0171508D01*
X0155421Y0173107D02*
X0144833Y0173107D01*
X0144833Y0174705D02*
X0156204Y0174705D01*
X0157123Y0178842D02*
X0158593Y0178233D01*
X0165385Y0178233D01*
X0166855Y0178842D01*
X0167980Y0179967D01*
X0168589Y0181437D01*
X0168589Y0183029D01*
X0167980Y0184499D01*
X0166855Y0185624D01*
X0165385Y0186233D01*
X0165244Y0186233D01*
X0165259Y0186278D01*
X0166389Y0187834D01*
X0167276Y0188478D01*
X0167844Y0187909D01*
X0169719Y0187133D01*
X0171748Y0187133D01*
X0173622Y0187909D01*
X0175057Y0189344D01*
X0175833Y0191219D01*
X0175833Y0193248D01*
X0175057Y0195122D01*
X0173622Y0196557D01*
X0171748Y0197333D01*
X0169719Y0197333D01*
X0167844Y0196557D01*
X0166409Y0195122D01*
X0165878Y0193839D01*
X0165519Y0193723D01*
X0162612Y0191610D01*
X0160499Y0188703D01*
X0159697Y0186233D01*
X0158593Y0186233D01*
X0157123Y0185624D01*
X0155998Y0184499D01*
X0155389Y0183029D01*
X0155389Y0181437D01*
X0155998Y0179967D01*
X0157123Y0178842D01*
X0156465Y0179501D02*
X0144833Y0179501D01*
X0144833Y0181099D02*
X0155529Y0181099D01*
X0155389Y0182698D02*
X0144833Y0182698D01*
X0144833Y0184296D02*
X0155914Y0184296D01*
X0157776Y0185895D02*
X0144912Y0185895D01*
X0145252Y0187493D02*
X0160106Y0187493D01*
X0160499Y0188703D02*
X0160499Y0188703D01*
X0160782Y0189092D02*
X0145680Y0189092D01*
X0146483Y0190690D02*
X0161943Y0190690D01*
X0162612Y0191610D02*
X0162612Y0191610D01*
X0163545Y0192289D02*
X0147406Y0192289D01*
X0148998Y0193887D02*
X0165898Y0193887D01*
X0166773Y0195486D02*
X0160234Y0195486D01*
X0161726Y0197084D02*
X0169118Y0197084D01*
X0172348Y0197084D02*
X0189586Y0197084D01*
X0191118Y0198198D02*
X0191118Y0198198D01*
X0191906Y0198683D02*
X0162388Y0198683D01*
X0162428Y0200281D02*
X0192931Y0200281D01*
X0195120Y0201880D02*
X0161983Y0201880D01*
X0160854Y0203478D02*
X0192716Y0203478D01*
X0200747Y0209872D02*
X0232283Y0209872D01*
X0232283Y0208274D02*
X0205280Y0208274D01*
X0209451Y0206675D02*
X0232283Y0206675D01*
X0232283Y0205077D02*
X0212679Y0205077D01*
X0211649Y0205765D02*
X0211649Y0205765D01*
X0215072Y0203478D02*
X0232283Y0203478D01*
X0232283Y0201880D02*
X0217257Y0201880D01*
X0216841Y0202296D02*
X0216841Y0202296D01*
X0218856Y0200281D02*
X0232283Y0200281D01*
X0232283Y0198683D02*
X0220454Y0198683D01*
X0221256Y0197881D02*
X0221256Y0197881D01*
X0221789Y0197084D02*
X0232283Y0197084D01*
X0232283Y0195486D02*
X0222857Y0195486D01*
X0223925Y0193887D02*
X0232283Y0193887D01*
X0232283Y0192289D02*
X0224891Y0192289D01*
X0224725Y0192689D02*
X0224725Y0192689D01*
X0225553Y0190690D02*
X0232283Y0190690D01*
X0232283Y0189092D02*
X0226215Y0189092D01*
X0226878Y0187493D02*
X0232283Y0187493D01*
X0232283Y0185895D02*
X0227319Y0185895D01*
X0227637Y0184296D02*
X0232283Y0184296D01*
X0232283Y0182698D02*
X0227955Y0182698D01*
X0228273Y0181099D02*
X0232283Y0181099D01*
X0232283Y0179501D02*
X0228333Y0179501D01*
X0228333Y0177902D02*
X0232283Y0177902D01*
X0232283Y0176304D02*
X0228333Y0176304D01*
X0228333Y0174705D02*
X0232283Y0174705D01*
X0232283Y0173107D02*
X0228333Y0173107D01*
X0228333Y0171508D02*
X0232283Y0171508D01*
X0232283Y0169910D02*
X0228333Y0169910D01*
X0228333Y0168311D02*
X0232283Y0168311D01*
X0232283Y0166712D02*
X0228333Y0166712D01*
X0228333Y0165114D02*
X0232283Y0165114D01*
X0232283Y0163515D02*
X0228333Y0163515D01*
X0228333Y0161917D02*
X0232283Y0161917D01*
X0232283Y0160318D02*
X0228333Y0160318D01*
X0228333Y0158720D02*
X0232283Y0158720D01*
X0232283Y0157121D02*
X0228333Y0157121D01*
X0228333Y0155523D02*
X0232283Y0155523D01*
X0232283Y0153924D02*
X0228333Y0153924D01*
X0228333Y0152326D02*
X0232283Y0152326D01*
X0232283Y0150727D02*
X0228333Y0150727D01*
X0228333Y0149129D02*
X0232283Y0149129D01*
X0232283Y0147530D02*
X0228333Y0147530D01*
X0228333Y0145932D02*
X0232283Y0145932D01*
X0232283Y0144333D02*
X0228333Y0144333D01*
X0228333Y0142735D02*
X0232283Y0142735D01*
X0232283Y0141136D02*
X0228333Y0141136D01*
X0228333Y0139538D02*
X0232283Y0139538D01*
X0232283Y0137939D02*
X0228333Y0137939D01*
X0228838Y0136341D02*
X0232283Y0136341D01*
X0232283Y0134742D02*
X0230214Y0134742D01*
X0230833Y0133144D02*
X0232283Y0133144D01*
X0232283Y0131545D02*
X0230833Y0131545D01*
X0230306Y0129947D02*
X0232283Y0129947D01*
X0232283Y0128348D02*
X0229061Y0128348D01*
X0232283Y0126750D02*
X0218333Y0126750D01*
X0218333Y0125151D02*
X0232283Y0125151D01*
X0232283Y0123553D02*
X0218347Y0123553D01*
X0218764Y0121954D02*
X0232283Y0121954D01*
X0232283Y0120356D02*
X0220328Y0120356D01*
X0225688Y0118904D02*
X0225688Y0118904D01*
X0225836Y0118757D02*
X0232283Y0118757D01*
X0232283Y0117159D02*
X0227417Y0117159D01*
X0218000Y0115560D02*
X0207574Y0115560D01*
X0208477Y0116803D02*
X0208477Y0116803D01*
X0208593Y0117159D02*
X0215800Y0117159D01*
X0215718Y0117218D02*
X0215718Y0117218D01*
X0215718Y0117218D01*
X0214600Y0118757D02*
X0209112Y0118757D01*
X0209631Y0120356D02*
X0213762Y0120356D01*
X0214024Y0119550D02*
X0214024Y0119550D01*
X0213243Y0121954D02*
X0209833Y0121954D01*
X0209833Y0123553D02*
X0213133Y0123553D01*
X0213133Y0125151D02*
X0209833Y0125151D01*
X0209833Y0126750D02*
X0213133Y0126750D01*
X0212405Y0128348D02*
X0209833Y0128348D01*
X0209833Y0129947D02*
X0211160Y0129947D01*
X0210633Y0131545D02*
X0209833Y0131545D01*
X0209833Y0133144D02*
X0210633Y0133144D01*
X0211252Y0134742D02*
X0209833Y0134742D01*
X0209833Y0136341D02*
X0212628Y0136341D01*
X0213133Y0137939D02*
X0209833Y0137939D01*
X0209833Y0139538D02*
X0213133Y0139538D01*
X0213133Y0141136D02*
X0209833Y0141136D01*
X0209833Y0142735D02*
X0213133Y0142735D01*
X0213133Y0144333D02*
X0209833Y0144333D01*
X0209833Y0145932D02*
X0213133Y0145932D01*
X0213133Y0147530D02*
X0209833Y0147530D01*
X0209833Y0149129D02*
X0213133Y0149129D01*
X0213133Y0150727D02*
X0209833Y0150727D01*
X0209833Y0152326D02*
X0213133Y0152326D01*
X0213133Y0153924D02*
X0209833Y0153924D01*
X0209833Y0155523D02*
X0213133Y0155523D01*
X0213133Y0157121D02*
X0209833Y0157121D01*
X0209833Y0158720D02*
X0213133Y0158720D01*
X0213133Y0160318D02*
X0209833Y0160318D01*
X0209833Y0161917D02*
X0213133Y0161917D01*
X0213133Y0163515D02*
X0209833Y0163515D01*
X0209833Y0165114D02*
X0213133Y0165114D01*
X0213133Y0166712D02*
X0209833Y0166712D01*
X0209833Y0168311D02*
X0213133Y0168311D01*
X0213133Y0169910D02*
X0209588Y0169910D01*
X0209069Y0171508D02*
X0213133Y0171508D01*
X0213133Y0173107D02*
X0208431Y0173107D01*
X0208645Y0172813D02*
X0208645Y0172813D01*
X0207270Y0174705D02*
X0213133Y0174705D01*
X0213133Y0176304D02*
X0205862Y0176304D01*
X0203662Y0177902D02*
X0213120Y0177902D01*
X0213030Y0179501D02*
X0201025Y0179501D01*
X0199516Y0181099D02*
X0212669Y0181099D01*
X0212304Y0182698D02*
X0200338Y0182698D01*
X0201546Y0184296D02*
X0211642Y0184296D01*
X0210873Y0185895D02*
X0202064Y0185895D01*
X0202089Y0187493D02*
X0209774Y0187493D01*
X0208499Y0189092D02*
X0201626Y0189092D01*
X0200495Y0190690D02*
X0206608Y0190690D01*
X0204073Y0192289D02*
X0199137Y0192289D01*
X0194132Y0192289D02*
X0191974Y0192289D01*
X0192774Y0190690D02*
X0190743Y0190690D01*
X0190130Y0189092D02*
X0191644Y0189092D01*
X0191180Y0187493D02*
X0189843Y0187493D01*
X0189833Y0185895D02*
X0191205Y0185895D01*
X0191724Y0184296D02*
X0189667Y0184296D01*
X0189239Y0182698D02*
X0192931Y0182698D01*
X0193753Y0181099D02*
X0188810Y0181099D01*
X0188091Y0179501D02*
X0192244Y0179501D01*
X0191582Y0177902D02*
X0187169Y0177902D01*
X0186317Y0176426D02*
X0186317Y0176426D01*
X0186194Y0176304D02*
X0191535Y0176304D01*
X0191971Y0174705D02*
X0184595Y0174705D01*
X0182965Y0173107D02*
X0193088Y0173107D01*
X0200181Y0173107D02*
X0201270Y0173107D01*
X0203060Y0171508D02*
X0180196Y0171508D01*
X0177890Y0176304D02*
X0144833Y0176304D01*
X0144833Y0177902D02*
X0180288Y0177902D01*
X0179782Y0177395D02*
X0179782Y0177395D01*
X0181887Y0179501D02*
X0167513Y0179501D01*
X0168449Y0181099D02*
X0182887Y0181099D01*
X0183745Y0182698D02*
X0168589Y0182698D01*
X0168064Y0184296D02*
X0184174Y0184296D01*
X0184545Y0185895D02*
X0166202Y0185895D01*
X0166141Y0187493D02*
X0168849Y0187493D01*
X0172617Y0187493D02*
X0184633Y0187493D01*
X0184633Y0189092D02*
X0174804Y0189092D01*
X0175614Y0190690D02*
X0185094Y0190690D01*
X0185613Y0192289D02*
X0175833Y0192289D01*
X0175568Y0193887D02*
X0186534Y0193887D01*
X0185808Y0192887D02*
X0185808Y0192887D01*
X0187696Y0195486D02*
X0174693Y0195486D01*
X0188042Y0195963D02*
X0188042Y0195963D01*
X0188042Y0195963D01*
X0198619Y0211471D02*
X0232283Y0211471D01*
X0232283Y0213069D02*
X0200144Y0213069D01*
X0201283Y0214668D02*
X0232283Y0214668D01*
X0232283Y0216266D02*
X0201735Y0216266D01*
X0201702Y0217865D02*
X0232283Y0217865D01*
X0232283Y0219463D02*
X0225502Y0219463D01*
X0226483Y0219869D02*
X0224374Y0218996D01*
X0222092Y0218996D01*
X0219983Y0219869D01*
X0218369Y0221483D01*
X0217496Y0223592D01*
X0217496Y0225874D01*
X0218369Y0227983D01*
X0219983Y0229597D01*
X0222092Y0230470D01*
X0224374Y0230470D01*
X0226483Y0229597D01*
X0228097Y0227983D01*
X0228970Y0225874D01*
X0228970Y0223592D01*
X0228097Y0221483D01*
X0226483Y0219869D01*
X0227675Y0221062D02*
X0232283Y0221062D01*
X0232283Y0222660D02*
X0228584Y0222660D01*
X0228970Y0224259D02*
X0232270Y0224259D01*
X0232023Y0225857D02*
X0228970Y0225857D01*
X0228315Y0227456D02*
X0231504Y0227456D01*
X0230483Y0229054D02*
X0227025Y0229054D01*
X0228820Y0230653D02*
X0199967Y0230653D01*
X0201210Y0229054D02*
X0219441Y0229054D01*
X0218151Y0227456D02*
X0201735Y0227456D01*
X0201735Y0225857D02*
X0217496Y0225857D01*
X0217496Y0224259D02*
X0201114Y0224259D01*
X0199735Y0222660D02*
X0217882Y0222660D01*
X0218791Y0221062D02*
X0199558Y0221062D01*
X0201040Y0219463D02*
X0220964Y0219463D01*
X0224490Y0232251D02*
X0046826Y0232251D01*
X0043941Y0229054D02*
X0040834Y0229054D01*
X0039813Y0227456D02*
X0042651Y0227456D01*
X0041996Y0225857D02*
X0039294Y0225857D01*
X0039047Y0224259D02*
X0041996Y0224259D01*
X0042382Y0222660D02*
X0039033Y0222660D01*
X0039033Y0221062D02*
X0043291Y0221062D01*
X0045464Y0219463D02*
X0039033Y0219463D01*
X0039033Y0217865D02*
X0089508Y0217865D01*
X0090133Y0216266D02*
X0039033Y0216266D01*
X0039033Y0214668D02*
X0088685Y0214668D01*
X0088253Y0219463D02*
X0050002Y0219463D01*
X0052175Y0221062D02*
X0087701Y0221062D01*
X0087645Y0222660D02*
X0053084Y0222660D01*
X0053470Y0224259D02*
X0088075Y0224259D01*
X0089158Y0225857D02*
X0053470Y0225857D01*
X0042496Y0230653D02*
X0193303Y0230653D01*
X0154421Y0195486D02*
X0151238Y0195486D01*
X0124840Y0182698D02*
X0107481Y0182698D01*
X0108717Y0181099D02*
X0125529Y0181099D01*
X0126465Y0179501D02*
X0109726Y0179501D01*
X0104934Y0184548D02*
X0104934Y0184548D01*
X0094811Y0193887D02*
X0094411Y0193887D01*
X0094411Y0195486D02*
X0094811Y0195486D01*
X0094811Y0197084D02*
X0094411Y0197084D01*
X0070239Y0176304D02*
X0051373Y0176304D01*
X0051373Y0174705D02*
X0067205Y0174705D01*
X0065067Y0173107D02*
X0050723Y0173107D01*
X0044822Y0171508D02*
X0039033Y0171508D01*
X0039033Y0173107D02*
X0043224Y0173107D01*
X0042573Y0174705D02*
X0039033Y0174705D01*
X0039033Y0176304D02*
X0042573Y0176304D01*
X0043073Y0177902D02*
X0039033Y0177902D01*
X0049490Y0158720D02*
X0056557Y0158720D01*
X0063996Y0172306D02*
X0063996Y0172306D01*
X0063996Y0172306D01*
X0099903Y0141136D02*
X0105667Y0141136D01*
X0106329Y0139538D02*
X0101373Y0139538D01*
X0101373Y0137939D02*
X0107814Y0137939D01*
X0105301Y0134742D02*
X0100095Y0134742D01*
X0101373Y0136341D02*
X0139633Y0136341D01*
X0139633Y0137939D02*
X0113652Y0137939D01*
X0108333Y0128348D02*
X0128315Y0128348D01*
X0126650Y0125151D02*
X0106864Y0125151D01*
X0107932Y0126750D02*
X0139633Y0126750D01*
X0139633Y0128348D02*
X0135663Y0128348D01*
X0137959Y0129947D02*
X0139633Y0129947D01*
X0139633Y0131545D02*
X0138589Y0131545D01*
X0138541Y0133144D02*
X0139633Y0133144D01*
X0139633Y0134742D02*
X0137737Y0134742D01*
X0144833Y0136341D02*
X0193331Y0136341D01*
X0192747Y0137939D02*
X0144833Y0137939D01*
X0144833Y0125151D02*
X0156085Y0125151D01*
X0156033Y0125099D02*
X0155626Y0124539D01*
X0155311Y0123922D01*
X0155097Y0123263D01*
X0154989Y0122579D01*
X0154989Y0122233D01*
X0161989Y0122233D01*
X0161989Y0122233D01*
X0161989Y0122233D01*
X0161989Y0126633D01*
X0159043Y0126633D01*
X0158359Y0126525D01*
X0157700Y0126311D01*
X0157083Y0125996D01*
X0156523Y0125589D01*
X0156033Y0125099D01*
X0155191Y0123553D02*
X0144833Y0123553D01*
X0144833Y0121954D02*
X0154989Y0121954D01*
X0155407Y0120356D02*
X0144833Y0120356D01*
X0138124Y0118757D02*
X0136650Y0118757D01*
X0137328Y0125151D02*
X0139633Y0125151D01*
X0161989Y0125151D02*
X0161989Y0125151D01*
X0161989Y0123553D02*
X0161989Y0123553D01*
X0161989Y0121954D02*
X0161989Y0121954D01*
X0161989Y0120356D02*
X0161989Y0120356D01*
X0161989Y0118757D02*
X0161989Y0118757D01*
X0167291Y0118757D02*
X0191479Y0118757D01*
X0190706Y0120356D02*
X0168571Y0120356D01*
X0167551Y0139538D02*
X0191447Y0139538D01*
X0201256Y0120356D02*
X0204052Y0120356D01*
X0203338Y0118757D02*
X0200483Y0118757D01*
X0202176Y0117159D02*
X0198755Y0117159D01*
X0199552Y0115560D02*
X0200045Y0115560D01*
X0193217Y0101215D02*
X0193217Y0101215D01*
X0215647Y0101174D02*
X0215819Y0101174D01*
X0215819Y0102772D02*
X0215647Y0102772D01*
X0215647Y0104371D02*
X0215819Y0104371D01*
X0215819Y0105969D02*
X0215647Y0105969D01*
X0219775Y0105969D02*
X0222257Y0105969D01*
X0221098Y0104371D02*
X0220817Y0104371D01*
X0220552Y0099575D02*
X0221314Y0099575D01*
X0222777Y0097977D02*
X0219232Y0097977D01*
X0215819Y0097977D02*
X0215647Y0097977D01*
X0215647Y0099575D02*
X0215819Y0099575D01*
X0215511Y0094779D02*
X0232283Y0094779D01*
X0232283Y0093181D02*
X0219344Y0093181D01*
X0221344Y0091582D02*
X0232283Y0091582D01*
X0232283Y0089984D02*
X0222505Y0089984D01*
X0224766Y0088385D02*
X0232283Y0088385D01*
X0232283Y0086787D02*
X0226025Y0086787D01*
X0226561Y0085188D02*
X0232283Y0085188D01*
X0232283Y0083590D02*
X0226561Y0083590D01*
X0225952Y0081991D02*
X0232283Y0081991D01*
X0232283Y0080393D02*
X0224590Y0080393D01*
X0224061Y0078794D02*
X0232283Y0078794D01*
X0232283Y0077196D02*
X0224061Y0077196D01*
X0225743Y0075597D02*
X0232283Y0075597D01*
X0232283Y0073999D02*
X0226430Y0073999D01*
X0226561Y0072400D02*
X0232283Y0072400D01*
X0232283Y0070802D02*
X0226209Y0070802D01*
X0225211Y0069203D02*
X0232283Y0069203D01*
X0232283Y0067605D02*
X0224061Y0067605D01*
X0224061Y0066006D02*
X0232283Y0066006D01*
X0232283Y0064408D02*
X0225121Y0064408D01*
X0226172Y0062809D02*
X0232283Y0062809D01*
X0232283Y0061211D02*
X0226561Y0061211D01*
X0226467Y0059612D02*
X0232283Y0059612D01*
X0232283Y0058014D02*
X0225805Y0058014D01*
X0224069Y0056415D02*
X0232283Y0056415D01*
X0232283Y0054817D02*
X0224061Y0054817D01*
X0224500Y0053218D02*
X0232283Y0053218D01*
X0232283Y0051620D02*
X0225915Y0051620D01*
X0226561Y0050021D02*
X0232283Y0050021D01*
X0232283Y0048423D02*
X0226561Y0048423D01*
X0226062Y0046824D02*
X0232251Y0046824D01*
X0231947Y0045226D02*
X0224855Y0045226D01*
X0228499Y0040430D02*
X0042818Y0040430D01*
X0050960Y0051620D02*
X0073035Y0051620D01*
X0079091Y0058014D02*
X0081833Y0058014D01*
X0082726Y0059612D02*
X0078310Y0059612D01*
X0077149Y0061211D02*
X0083107Y0061211D01*
X0083133Y0062809D02*
X0075569Y0062809D01*
X0076456Y0062165D02*
X0076456Y0062165D01*
X0073369Y0064408D02*
X0083133Y0064408D01*
X0083133Y0066006D02*
X0056833Y0066006D01*
X0055119Y0069203D02*
X0074946Y0069203D01*
X0070969Y0059612D02*
X0056221Y0059612D01*
X0103880Y0062809D02*
X0111061Y0062809D01*
X0111928Y0063676D02*
X0111928Y0063676D01*
X0113695Y0064408D02*
X0105583Y0064408D01*
X0133432Y0047928D02*
X0133432Y0047928D01*
X0137216Y0069203D02*
X0156762Y0069203D01*
X0155652Y0070802D02*
X0138326Y0070802D01*
X0138589Y0072400D02*
X0155389Y0072400D01*
X0155791Y0073999D02*
X0138187Y0073999D01*
X0136882Y0075597D02*
X0157096Y0075597D01*
X0157238Y0078794D02*
X0136740Y0078794D01*
X0138156Y0080393D02*
X0155822Y0080393D01*
X0155389Y0081991D02*
X0138589Y0081991D01*
X0138357Y0083590D02*
X0155621Y0083590D01*
X0156687Y0085188D02*
X0137290Y0085188D01*
X0149212Y0100696D02*
X0149212Y0100696D01*
X0103278Y0133904D02*
X0103278Y0133904D01*
X0175582Y0169910D02*
X0204031Y0169910D01*
X0220306Y0129947D02*
X0221160Y0129947D01*
X0222405Y0128348D02*
X0219061Y0128348D01*
X0093315Y0222660D02*
X0092915Y0222660D01*
X0092915Y0224259D02*
X0093315Y0224259D01*
X0093315Y0225857D02*
X0092915Y0225857D01*
D18*
X0093115Y0212036D02*
X0089926Y0212036D01*
X0089603Y0212032D01*
X0089279Y0212020D01*
X0088956Y0212001D01*
X0088634Y0211974D01*
X0088312Y0211938D01*
X0087992Y0211896D01*
X0087672Y0211845D01*
X0087354Y0211787D01*
X0087038Y0211721D01*
X0086723Y0211647D01*
X0086409Y0211566D01*
X0086098Y0211477D01*
X0085789Y0211381D01*
X0085483Y0211277D01*
X0085179Y0211166D01*
X0084878Y0211048D01*
X0084580Y0210922D01*
X0084285Y0210789D01*
X0083993Y0210650D01*
X0083705Y0210503D01*
X0083421Y0210349D01*
X0083140Y0210188D01*
X0082863Y0210021D01*
X0082590Y0209847D01*
X0082322Y0209666D01*
X0082058Y0209480D01*
X0081799Y0209286D01*
X0081544Y0209087D01*
X0081294Y0208881D01*
X0081049Y0208670D01*
X0080810Y0208452D01*
X0080576Y0208229D01*
X0080347Y0208000D01*
X0080124Y0207766D01*
X0079906Y0207527D01*
X0079695Y0207282D01*
X0079489Y0207032D01*
X0079290Y0206777D01*
X0079096Y0206518D01*
X0078910Y0206254D01*
X0078729Y0205986D01*
X0078555Y0205713D01*
X0078388Y0205436D01*
X0078227Y0205155D01*
X0078073Y0204871D01*
X0077926Y0204583D01*
X0077787Y0204291D01*
X0077654Y0203996D01*
X0077528Y0203698D01*
X0077410Y0203397D01*
X0077299Y0203093D01*
X0077195Y0202787D01*
X0077099Y0202478D01*
X0077010Y0202167D01*
X0076929Y0201853D01*
X0076855Y0201538D01*
X0076789Y0201222D01*
X0076731Y0200904D01*
X0076680Y0200584D01*
X0076638Y0200264D01*
X0076602Y0199942D01*
X0076575Y0199620D01*
X0076556Y0199297D01*
X0076544Y0198973D01*
X0076540Y0198650D01*
X0076540Y0191052D01*
X0076540Y0198650D02*
X0066855Y0198650D01*
X0084414Y0175028D02*
X0094611Y0172981D01*
X0100083Y0182981D02*
X0100275Y0182979D01*
X0100467Y0182972D01*
X0100659Y0182960D01*
X0100851Y0182944D01*
X0101042Y0182923D01*
X0101232Y0182898D01*
X0101422Y0182867D01*
X0101611Y0182833D01*
X0101799Y0182794D01*
X0101986Y0182750D01*
X0102172Y0182702D01*
X0102357Y0182649D01*
X0102541Y0182592D01*
X0102723Y0182530D01*
X0102903Y0182464D01*
X0103082Y0182394D01*
X0103259Y0182319D01*
X0103434Y0182240D01*
X0103608Y0182157D01*
X0103779Y0182070D01*
X0103948Y0181979D01*
X0104115Y0181883D01*
X0104279Y0181784D01*
X0104441Y0181680D01*
X0104601Y0181573D01*
X0104758Y0181462D01*
X0104912Y0181347D01*
X0105063Y0181229D01*
X0105211Y0181107D01*
X0105357Y0180981D01*
X0105499Y0180852D01*
X0105638Y0180719D01*
X0105774Y0180583D01*
X0105907Y0180444D01*
X0106036Y0180302D01*
X0106162Y0180156D01*
X0106284Y0180008D01*
X0106402Y0179857D01*
X0106517Y0179703D01*
X0106628Y0179546D01*
X0106735Y0179386D01*
X0106839Y0179224D01*
X0106938Y0179060D01*
X0107034Y0178893D01*
X0107125Y0178724D01*
X0107212Y0178553D01*
X0107295Y0178379D01*
X0107374Y0178204D01*
X0107449Y0178027D01*
X0107519Y0177848D01*
X0107585Y0177668D01*
X0107647Y0177486D01*
X0107704Y0177302D01*
X0107757Y0177117D01*
X0107805Y0176931D01*
X0107849Y0176744D01*
X0107888Y0176556D01*
X0107922Y0176367D01*
X0107953Y0176177D01*
X0107978Y0175987D01*
X0107999Y0175796D01*
X0108015Y0175604D01*
X0108027Y0175412D01*
X0108034Y0175220D01*
X0108036Y0175028D01*
X0108038Y0174923D01*
X0108044Y0174819D01*
X0108054Y0174715D01*
X0108067Y0174611D01*
X0108085Y0174508D01*
X0108106Y0174406D01*
X0108131Y0174305D01*
X0108160Y0174204D01*
X0108193Y0174105D01*
X0108229Y0174007D01*
X0108269Y0173910D01*
X0108313Y0173815D01*
X0108360Y0173722D01*
X0108410Y0173631D01*
X0108464Y0173541D01*
X0108522Y0173454D01*
X0108582Y0173368D01*
X0108646Y0173285D01*
X0108712Y0173205D01*
X0108782Y0173127D01*
X0108855Y0173052D01*
X0108930Y0172979D01*
X0109008Y0172909D01*
X0109088Y0172843D01*
X0109171Y0172779D01*
X0109257Y0172719D01*
X0109344Y0172661D01*
X0109434Y0172607D01*
X0109525Y0172557D01*
X0109618Y0172510D01*
X0109713Y0172466D01*
X0109810Y0172426D01*
X0109908Y0172390D01*
X0110007Y0172357D01*
X0110108Y0172328D01*
X0110209Y0172303D01*
X0110311Y0172282D01*
X0110414Y0172264D01*
X0110518Y0172251D01*
X0110622Y0172241D01*
X0110726Y0172235D01*
X0110831Y0172233D01*
X0131989Y0172233D01*
X0131902Y0172339D01*
X0131812Y0172442D01*
X0131719Y0172543D01*
X0131623Y0172641D01*
X0131524Y0172736D01*
X0131423Y0172828D01*
X0131319Y0172918D01*
X0131212Y0173004D01*
X0131103Y0173087D01*
X0130992Y0173168D01*
X0130879Y0173245D01*
X0130763Y0173318D01*
X0130645Y0173389D01*
X0130526Y0173456D01*
X0130404Y0173519D01*
X0130281Y0173579D01*
X0130156Y0173636D01*
X0130029Y0173688D01*
X0129901Y0173738D01*
X0129772Y0173783D01*
X0129642Y0173825D01*
X0129510Y0173863D01*
X0129377Y0173898D01*
X0129244Y0173928D01*
X0129109Y0173955D01*
X0128974Y0173978D01*
X0128838Y0173997D01*
X0128702Y0174012D01*
X0128565Y0174023D01*
X0128428Y0174030D01*
X0128291Y0174034D01*
X0128154Y0174033D01*
X0128017Y0174029D01*
X0127880Y0174020D01*
X0127744Y0174008D01*
X0127607Y0173992D01*
X0127472Y0173972D01*
X0127337Y0173948D01*
X0127202Y0173920D01*
X0127069Y0173889D01*
X0126937Y0173853D01*
X0126805Y0173814D01*
X0126675Y0173771D01*
X0126546Y0173725D01*
X0126418Y0173675D01*
X0126292Y0173621D01*
X0126168Y0173563D01*
X0126045Y0173502D01*
X0125924Y0173438D01*
X0125805Y0173370D01*
X0125688Y0173299D01*
X0125573Y0173224D01*
X0125460Y0173146D01*
X0125349Y0173065D01*
X0125241Y0172981D01*
X0127328Y0183572D02*
X0127429Y0183626D01*
X0127532Y0183676D01*
X0127636Y0183723D01*
X0127742Y0183766D01*
X0127850Y0183806D01*
X0127959Y0183843D01*
X0128068Y0183875D01*
X0128179Y0183904D01*
X0128291Y0183929D01*
X0128404Y0183951D01*
X0128517Y0183968D01*
X0128631Y0183982D01*
X0128745Y0183992D01*
X0128859Y0183999D01*
X0128974Y0184001D01*
X0129088Y0184000D01*
X0129203Y0183994D01*
X0129317Y0183985D01*
X0129431Y0183972D01*
X0129544Y0183956D01*
X0129657Y0183935D01*
X0129769Y0183911D01*
X0129880Y0183883D01*
X0129990Y0183852D01*
X0130099Y0183816D01*
X0130207Y0183777D01*
X0130314Y0183735D01*
X0130419Y0183689D01*
X0130522Y0183639D01*
X0130624Y0183586D01*
X0130723Y0183530D01*
X0130821Y0183470D01*
X0130917Y0183408D01*
X0131011Y0183342D01*
X0131102Y0183272D01*
X0131191Y0183200D01*
X0131278Y0183125D01*
X0131362Y0183047D01*
X0131443Y0182967D01*
X0131522Y0182883D01*
X0131598Y0182797D01*
X0131671Y0182709D01*
X0131741Y0182618D01*
X0131807Y0182525D01*
X0131871Y0182430D01*
X0131932Y0182333D01*
X0131989Y0182233D01*
X0127328Y0183572D02*
X0127328Y0199792D01*
X0126733Y0209733D02*
X0139733Y0209733D01*
X0139831Y0209735D01*
X0139929Y0209741D01*
X0140027Y0209750D01*
X0140124Y0209764D01*
X0140221Y0209781D01*
X0140317Y0209802D01*
X0140412Y0209827D01*
X0140506Y0209855D01*
X0140598Y0209888D01*
X0140690Y0209923D01*
X0140780Y0209963D01*
X0140868Y0210005D01*
X0140955Y0210052D01*
X0141039Y0210101D01*
X0141122Y0210154D01*
X0141202Y0210210D01*
X0141281Y0210270D01*
X0141357Y0210332D01*
X0141430Y0210397D01*
X0141501Y0210465D01*
X0141569Y0210536D01*
X0141634Y0210609D01*
X0141696Y0210685D01*
X0141756Y0210764D01*
X0141812Y0210844D01*
X0141865Y0210927D01*
X0141914Y0211011D01*
X0141961Y0211098D01*
X0142003Y0211186D01*
X0142043Y0211276D01*
X0142078Y0211368D01*
X0142111Y0211460D01*
X0142139Y0211554D01*
X0142164Y0211649D01*
X0142185Y0211745D01*
X0142202Y0211842D01*
X0142216Y0211939D01*
X0142225Y0212037D01*
X0142231Y0212135D01*
X0142233Y0212233D01*
X0142235Y0212414D01*
X0142242Y0212595D01*
X0142253Y0212776D01*
X0142268Y0212957D01*
X0142288Y0213137D01*
X0142312Y0213317D01*
X0142340Y0213496D01*
X0142373Y0213674D01*
X0142410Y0213851D01*
X0142451Y0214028D01*
X0142496Y0214203D01*
X0142546Y0214378D01*
X0142600Y0214551D01*
X0142658Y0214722D01*
X0142720Y0214893D01*
X0142787Y0215061D01*
X0142857Y0215228D01*
X0142931Y0215394D01*
X0143010Y0215557D01*
X0143092Y0215718D01*
X0143178Y0215878D01*
X0143268Y0216035D01*
X0143362Y0216190D01*
X0143459Y0216343D01*
X0143561Y0216493D01*
X0143665Y0216641D01*
X0143774Y0216787D01*
X0143885Y0216929D01*
X0144001Y0217069D01*
X0144119Y0217206D01*
X0144241Y0217341D01*
X0144366Y0217472D01*
X0144494Y0217600D01*
X0144625Y0217725D01*
X0144760Y0217847D01*
X0144897Y0217965D01*
X0145037Y0218081D01*
X0145179Y0218192D01*
X0145325Y0218301D01*
X0145473Y0218405D01*
X0145623Y0218507D01*
X0145776Y0218604D01*
X0145931Y0218698D01*
X0146088Y0218788D01*
X0146248Y0218874D01*
X0146409Y0218956D01*
X0146572Y0219035D01*
X0146738Y0219109D01*
X0146905Y0219179D01*
X0147073Y0219246D01*
X0147244Y0219308D01*
X0147415Y0219366D01*
X0147588Y0219420D01*
X0147763Y0219470D01*
X0147938Y0219515D01*
X0148115Y0219556D01*
X0148292Y0219593D01*
X0148470Y0219626D01*
X0148649Y0219654D01*
X0148829Y0219678D01*
X0149009Y0219698D01*
X0149190Y0219713D01*
X0149371Y0219724D01*
X0149552Y0219731D01*
X0149733Y0219733D01*
X0156733Y0219733D01*
X0156735Y0219625D01*
X0156741Y0219517D01*
X0156751Y0219409D01*
X0156765Y0219302D01*
X0156782Y0219195D01*
X0156804Y0219089D01*
X0156829Y0218984D01*
X0156859Y0218880D01*
X0156892Y0218777D01*
X0156928Y0218675D01*
X0156969Y0218575D01*
X0157013Y0218476D01*
X0157061Y0218379D01*
X0157112Y0218284D01*
X0157167Y0218190D01*
X0157225Y0218099D01*
X0157286Y0218010D01*
X0157350Y0217923D01*
X0157418Y0217839D01*
X0157489Y0217757D01*
X0157562Y0217678D01*
X0157639Y0217601D01*
X0157718Y0217528D01*
X0157800Y0217457D01*
X0157884Y0217389D01*
X0157971Y0217325D01*
X0158060Y0217264D01*
X0158151Y0217206D01*
X0158245Y0217151D01*
X0158340Y0217100D01*
X0158437Y0217052D01*
X0158536Y0217008D01*
X0158636Y0216967D01*
X0158738Y0216931D01*
X0158841Y0216898D01*
X0158945Y0216868D01*
X0159050Y0216843D01*
X0159156Y0216821D01*
X0159263Y0216804D01*
X0159370Y0216790D01*
X0159478Y0216780D01*
X0159586Y0216774D01*
X0159694Y0216772D01*
X0196635Y0216772D01*
X0196635Y0226772D02*
X0133772Y0226772D01*
X0133602Y0226770D01*
X0133432Y0226764D01*
X0133262Y0226754D01*
X0133093Y0226739D01*
X0132924Y0226721D01*
X0132755Y0226698D01*
X0132587Y0226672D01*
X0132420Y0226641D01*
X0132253Y0226606D01*
X0132087Y0226567D01*
X0131923Y0226525D01*
X0131759Y0226478D01*
X0131597Y0226427D01*
X0131436Y0226373D01*
X0131276Y0226315D01*
X0131118Y0226252D01*
X0130961Y0226186D01*
X0130806Y0226116D01*
X0130652Y0226043D01*
X0130501Y0225966D01*
X0130351Y0225885D01*
X0130204Y0225800D01*
X0130058Y0225712D01*
X0129915Y0225621D01*
X0129773Y0225526D01*
X0129635Y0225428D01*
X0129498Y0225326D01*
X0129364Y0225221D01*
X0129233Y0225113D01*
X0129104Y0225002D01*
X0128978Y0224887D01*
X0128855Y0224770D01*
X0128735Y0224650D01*
X0128618Y0224527D01*
X0128503Y0224401D01*
X0128392Y0224272D01*
X0128284Y0224141D01*
X0128179Y0224007D01*
X0128077Y0223870D01*
X0127979Y0223732D01*
X0127884Y0223590D01*
X0127793Y0223447D01*
X0127705Y0223301D01*
X0127620Y0223154D01*
X0127539Y0223004D01*
X0127462Y0222853D01*
X0127389Y0222699D01*
X0127319Y0222544D01*
X0127253Y0222387D01*
X0127190Y0222229D01*
X0127132Y0222069D01*
X0127078Y0221908D01*
X0127027Y0221746D01*
X0126980Y0221582D01*
X0126938Y0221418D01*
X0126899Y0221252D01*
X0126864Y0221085D01*
X0126833Y0220918D01*
X0126807Y0220750D01*
X0126784Y0220581D01*
X0126766Y0220412D01*
X0126751Y0220243D01*
X0126741Y0220073D01*
X0126735Y0219903D01*
X0126733Y0219733D01*
X0156733Y0209733D02*
X0156735Y0209625D01*
X0156741Y0209517D01*
X0156751Y0209409D01*
X0156765Y0209302D01*
X0156782Y0209195D01*
X0156804Y0209089D01*
X0156829Y0208984D01*
X0156859Y0208880D01*
X0156892Y0208777D01*
X0156928Y0208675D01*
X0156969Y0208575D01*
X0157013Y0208476D01*
X0157061Y0208379D01*
X0157112Y0208284D01*
X0157167Y0208190D01*
X0157225Y0208099D01*
X0157286Y0208010D01*
X0157350Y0207923D01*
X0157418Y0207839D01*
X0157489Y0207757D01*
X0157562Y0207678D01*
X0157639Y0207601D01*
X0157718Y0207528D01*
X0157800Y0207457D01*
X0157884Y0207389D01*
X0157971Y0207325D01*
X0158060Y0207264D01*
X0158151Y0207206D01*
X0158245Y0207151D01*
X0158340Y0207100D01*
X0158437Y0207052D01*
X0158536Y0207008D01*
X0158636Y0206967D01*
X0158738Y0206931D01*
X0158841Y0206898D01*
X0158945Y0206868D01*
X0159050Y0206843D01*
X0159156Y0206821D01*
X0159263Y0206804D01*
X0159370Y0206790D01*
X0159478Y0206780D01*
X0159586Y0206774D01*
X0159694Y0206772D01*
X0196635Y0206772D01*
X0196635Y0196773D02*
X0196408Y0196770D01*
X0196181Y0196762D01*
X0195954Y0196748D01*
X0195728Y0196729D01*
X0195502Y0196704D01*
X0195277Y0196674D01*
X0195052Y0196639D01*
X0194829Y0196598D01*
X0194606Y0196551D01*
X0194385Y0196500D01*
X0194165Y0196443D01*
X0193947Y0196380D01*
X0193730Y0196313D01*
X0193514Y0196240D01*
X0193301Y0196162D01*
X0193090Y0196079D01*
X0192880Y0195991D01*
X0192673Y0195897D01*
X0192468Y0195799D01*
X0192266Y0195696D01*
X0192066Y0195588D01*
X0191869Y0195475D01*
X0191674Y0195358D01*
X0191483Y0195235D01*
X0191294Y0195109D01*
X0191109Y0194977D01*
X0190926Y0194842D01*
X0190748Y0194701D01*
X0190572Y0194557D01*
X0190400Y0194408D01*
X0190232Y0194256D01*
X0190068Y0194099D01*
X0189907Y0193938D01*
X0189750Y0193774D01*
X0189598Y0193606D01*
X0189449Y0193434D01*
X0189305Y0193258D01*
X0189164Y0193080D01*
X0189029Y0192897D01*
X0188897Y0192712D01*
X0188771Y0192523D01*
X0188648Y0192332D01*
X0188531Y0192137D01*
X0188418Y0191940D01*
X0188310Y0191740D01*
X0188207Y0191538D01*
X0188109Y0191333D01*
X0188015Y0191126D01*
X0187927Y0190916D01*
X0187844Y0190705D01*
X0187766Y0190492D01*
X0187693Y0190276D01*
X0187626Y0190059D01*
X0187563Y0189841D01*
X0187506Y0189621D01*
X0187455Y0189400D01*
X0187408Y0189177D01*
X0187367Y0188954D01*
X0187332Y0188729D01*
X0187302Y0188504D01*
X0187277Y0188278D01*
X0187258Y0188052D01*
X0187244Y0187825D01*
X0187236Y0187598D01*
X0187233Y0187371D01*
X0187233Y0187233D01*
X0196635Y0206772D02*
X0197338Y0206764D01*
X0198041Y0206738D01*
X0198743Y0206696D01*
X0199443Y0206636D01*
X0200142Y0206560D01*
X0200839Y0206467D01*
X0201534Y0206357D01*
X0202226Y0206230D01*
X0202914Y0206086D01*
X0203599Y0205926D01*
X0204279Y0205750D01*
X0204955Y0205557D01*
X0205627Y0205348D01*
X0206293Y0205122D01*
X0206953Y0204881D01*
X0207608Y0204624D01*
X0208256Y0204351D01*
X0208897Y0204062D01*
X0209531Y0203758D01*
X0210158Y0203439D01*
X0210776Y0203105D01*
X0211387Y0202756D01*
X0211988Y0202392D01*
X0212581Y0202014D01*
X0213165Y0201621D01*
X0213738Y0201215D01*
X0214302Y0200795D01*
X0214856Y0200361D01*
X0215399Y0199914D01*
X0215931Y0199454D01*
X0216451Y0198982D01*
X0216960Y0198496D01*
X0217457Y0197999D01*
X0217943Y0197490D01*
X0218415Y0196970D01*
X0218875Y0196438D01*
X0219322Y0195895D01*
X0219756Y0195341D01*
X0220176Y0194777D01*
X0220582Y0194204D01*
X0220975Y0193620D01*
X0221353Y0193027D01*
X0221717Y0192426D01*
X0222066Y0191815D01*
X0222400Y0191197D01*
X0222719Y0190570D01*
X0223023Y0189936D01*
X0223312Y0189295D01*
X0223585Y0188647D01*
X0223842Y0187992D01*
X0224083Y0187332D01*
X0224309Y0186666D01*
X0224518Y0185994D01*
X0224711Y0185318D01*
X0224887Y0184638D01*
X0225047Y0183953D01*
X0225191Y0183265D01*
X0225318Y0182573D01*
X0225428Y0181878D01*
X0225521Y0181181D01*
X0225597Y0180482D01*
X0225657Y0179782D01*
X0225699Y0179080D01*
X0225725Y0178377D01*
X0225733Y0177674D01*
X0225733Y0132233D01*
X0215733Y0123733D02*
X0215735Y0123573D01*
X0215741Y0123414D01*
X0215751Y0123255D01*
X0215764Y0123096D01*
X0215782Y0122937D01*
X0215803Y0122779D01*
X0215829Y0122622D01*
X0215858Y0122465D01*
X0215891Y0122309D01*
X0215928Y0122154D01*
X0215968Y0121999D01*
X0216013Y0121846D01*
X0216061Y0121694D01*
X0216113Y0121543D01*
X0216169Y0121394D01*
X0216228Y0121246D01*
X0216291Y0121099D01*
X0216357Y0120954D01*
X0216427Y0120811D01*
X0216501Y0120669D01*
X0216577Y0120529D01*
X0216658Y0120391D01*
X0216741Y0120256D01*
X0216828Y0120122D01*
X0216919Y0119990D01*
X0217012Y0119861D01*
X0217109Y0119734D01*
X0217208Y0119609D01*
X0217311Y0119487D01*
X0217417Y0119368D01*
X0217525Y0119251D01*
X0217637Y0119137D01*
X0217751Y0119025D01*
X0217868Y0118917D01*
X0217987Y0118811D01*
X0218109Y0118708D01*
X0218234Y0118609D01*
X0218361Y0118512D01*
X0218490Y0118419D01*
X0218622Y0118328D01*
X0218756Y0118241D01*
X0218891Y0118158D01*
X0219029Y0118077D01*
X0219169Y0118001D01*
X0219311Y0117927D01*
X0219454Y0117857D01*
X0219599Y0117791D01*
X0219746Y0117728D01*
X0219894Y0117669D01*
X0220043Y0117613D01*
X0220194Y0117561D01*
X0220346Y0117513D01*
X0220499Y0117468D01*
X0220654Y0117428D01*
X0220809Y0117391D01*
X0220965Y0117358D01*
X0221122Y0117329D01*
X0221279Y0117303D01*
X0221437Y0117282D01*
X0221596Y0117264D01*
X0221755Y0117251D01*
X0221914Y0117241D01*
X0222073Y0117235D01*
X0222233Y0117233D01*
X0222350Y0117231D01*
X0222467Y0117225D01*
X0222583Y0117215D01*
X0222700Y0117202D01*
X0222815Y0117184D01*
X0222930Y0117163D01*
X0223044Y0117138D01*
X0223158Y0117109D01*
X0223270Y0117076D01*
X0223381Y0117039D01*
X0223491Y0116999D01*
X0223599Y0116955D01*
X0223706Y0116908D01*
X0223812Y0116857D01*
X0223915Y0116802D01*
X0224017Y0116744D01*
X0224116Y0116683D01*
X0224214Y0116619D01*
X0224309Y0116551D01*
X0224402Y0116480D01*
X0224493Y0116406D01*
X0224581Y0116329D01*
X0224666Y0116249D01*
X0224749Y0116166D01*
X0224829Y0116081D01*
X0224906Y0115993D01*
X0224980Y0115902D01*
X0225051Y0115809D01*
X0225119Y0115714D01*
X0225183Y0115616D01*
X0225244Y0115517D01*
X0225302Y0115415D01*
X0225357Y0115312D01*
X0225408Y0115206D01*
X0225455Y0115099D01*
X0225499Y0114991D01*
X0225539Y0114881D01*
X0225576Y0114770D01*
X0225609Y0114658D01*
X0225638Y0114544D01*
X0225663Y0114430D01*
X0225684Y0114315D01*
X0225702Y0114200D01*
X0225715Y0114083D01*
X0225725Y0113967D01*
X0225731Y0113850D01*
X0225733Y0113733D01*
X0225733Y0102233D01*
X0213706Y0092233D02*
X0161989Y0092233D01*
X0161989Y0082233D02*
X0178154Y0082233D01*
X0178207Y0082235D01*
X0178260Y0082241D01*
X0178313Y0082250D01*
X0178365Y0082263D01*
X0178415Y0082280D01*
X0178465Y0082301D01*
X0178512Y0082324D01*
X0178558Y0082352D01*
X0178602Y0082382D01*
X0178644Y0082416D01*
X0178683Y0082452D01*
X0178719Y0082491D01*
X0178753Y0082533D01*
X0178783Y0082577D01*
X0178811Y0082623D01*
X0178834Y0082670D01*
X0178855Y0082720D01*
X0178872Y0082770D01*
X0178885Y0082822D01*
X0178894Y0082875D01*
X0178900Y0082928D01*
X0178902Y0082981D01*
X0189965Y0082981D01*
X0190041Y0082983D01*
X0190116Y0082989D01*
X0190192Y0082998D01*
X0190266Y0083012D01*
X0190340Y0083029D01*
X0190413Y0083050D01*
X0190485Y0083074D01*
X0190555Y0083102D01*
X0190624Y0083134D01*
X0190691Y0083169D01*
X0190756Y0083207D01*
X0190820Y0083249D01*
X0190881Y0083294D01*
X0190939Y0083342D01*
X0190996Y0083393D01*
X0191049Y0083446D01*
X0191100Y0083503D01*
X0191148Y0083561D01*
X0191193Y0083622D01*
X0191235Y0083686D01*
X0191273Y0083751D01*
X0191308Y0083818D01*
X0191340Y0083887D01*
X0191368Y0083957D01*
X0191392Y0084029D01*
X0191413Y0084102D01*
X0191430Y0084176D01*
X0191444Y0084250D01*
X0191453Y0084326D01*
X0191459Y0084401D01*
X0191461Y0084477D01*
X0191146Y0072981D02*
X0178902Y0072981D01*
X0178900Y0072928D01*
X0178894Y0072875D01*
X0178885Y0072822D01*
X0178872Y0072770D01*
X0178855Y0072720D01*
X0178834Y0072670D01*
X0178811Y0072623D01*
X0178783Y0072577D01*
X0178753Y0072533D01*
X0178719Y0072491D01*
X0178683Y0072452D01*
X0178644Y0072416D01*
X0178602Y0072382D01*
X0178558Y0072352D01*
X0178512Y0072324D01*
X0178465Y0072301D01*
X0178415Y0072280D01*
X0178365Y0072263D01*
X0178313Y0072250D01*
X0178260Y0072241D01*
X0178207Y0072235D01*
X0178154Y0072233D01*
X0161989Y0072233D01*
X0161989Y0062233D02*
X0178154Y0062233D01*
X0178207Y0062235D01*
X0178260Y0062241D01*
X0178313Y0062250D01*
X0178365Y0062263D01*
X0178415Y0062280D01*
X0178465Y0062301D01*
X0178512Y0062324D01*
X0178558Y0062352D01*
X0178602Y0062382D01*
X0178644Y0062416D01*
X0178683Y0062452D01*
X0178719Y0062491D01*
X0178753Y0062533D01*
X0178783Y0062577D01*
X0178811Y0062623D01*
X0178834Y0062670D01*
X0178855Y0062720D01*
X0178872Y0062770D01*
X0178885Y0062822D01*
X0178894Y0062875D01*
X0178900Y0062928D01*
X0178902Y0062981D01*
X0189335Y0062981D01*
X0189425Y0062979D01*
X0189515Y0062973D01*
X0189605Y0062964D01*
X0189694Y0062950D01*
X0189783Y0062933D01*
X0189871Y0062912D01*
X0189958Y0062888D01*
X0190043Y0062860D01*
X0190128Y0062828D01*
X0190211Y0062792D01*
X0190292Y0062753D01*
X0190372Y0062711D01*
X0190450Y0062665D01*
X0190526Y0062616D01*
X0190599Y0062564D01*
X0190671Y0062509D01*
X0190740Y0062451D01*
X0190806Y0062390D01*
X0190870Y0062326D01*
X0190931Y0062260D01*
X0190989Y0062191D01*
X0191044Y0062119D01*
X0191096Y0062046D01*
X0191145Y0061970D01*
X0191191Y0061892D01*
X0191233Y0061812D01*
X0191272Y0061731D01*
X0191308Y0061648D01*
X0191340Y0061563D01*
X0191368Y0061478D01*
X0191392Y0061391D01*
X0191413Y0061303D01*
X0191430Y0061214D01*
X0191444Y0061125D01*
X0191453Y0061035D01*
X0191459Y0060945D01*
X0191461Y0060855D01*
X0187524Y0052981D02*
X0178902Y0052981D01*
X0178900Y0052928D01*
X0178894Y0052875D01*
X0178885Y0052822D01*
X0178872Y0052770D01*
X0178855Y0052720D01*
X0178834Y0052670D01*
X0178811Y0052623D01*
X0178783Y0052577D01*
X0178753Y0052533D01*
X0178719Y0052491D01*
X0178683Y0052452D01*
X0178644Y0052416D01*
X0178602Y0052382D01*
X0178558Y0052352D01*
X0178512Y0052324D01*
X0178465Y0052301D01*
X0178415Y0052280D01*
X0178365Y0052263D01*
X0178313Y0052250D01*
X0178260Y0052241D01*
X0178207Y0052235D01*
X0178154Y0052233D01*
X0161989Y0052233D01*
X0187524Y0052981D02*
X0187648Y0052979D01*
X0187771Y0052973D01*
X0187895Y0052964D01*
X0188017Y0052950D01*
X0188140Y0052933D01*
X0188262Y0052911D01*
X0188383Y0052886D01*
X0188503Y0052857D01*
X0188622Y0052825D01*
X0188741Y0052788D01*
X0188858Y0052748D01*
X0188973Y0052705D01*
X0189088Y0052657D01*
X0189200Y0052606D01*
X0189311Y0052552D01*
X0189421Y0052494D01*
X0189528Y0052433D01*
X0189634Y0052368D01*
X0189737Y0052300D01*
X0189838Y0052229D01*
X0189937Y0052155D01*
X0190034Y0052078D01*
X0190128Y0051997D01*
X0190219Y0051914D01*
X0190308Y0051828D01*
X0190394Y0051739D01*
X0190477Y0051648D01*
X0190558Y0051554D01*
X0190635Y0051457D01*
X0190709Y0051358D01*
X0190780Y0051257D01*
X0190848Y0051154D01*
X0190913Y0051048D01*
X0190974Y0050941D01*
X0191032Y0050831D01*
X0191086Y0050720D01*
X0191137Y0050608D01*
X0191185Y0050493D01*
X0191228Y0050378D01*
X0191268Y0050261D01*
X0191305Y0050142D01*
X0191337Y0050023D01*
X0191366Y0049903D01*
X0191391Y0049782D01*
X0191413Y0049660D01*
X0191430Y0049537D01*
X0191444Y0049415D01*
X0191453Y0049291D01*
X0191459Y0049168D01*
X0191461Y0049044D01*
X0191461Y0072666D02*
X0191459Y0072699D01*
X0191454Y0072731D01*
X0191446Y0072763D01*
X0191434Y0072794D01*
X0191419Y0072824D01*
X0191401Y0072851D01*
X0191380Y0072877D01*
X0191357Y0072900D01*
X0191331Y0072921D01*
X0191304Y0072939D01*
X0191274Y0072954D01*
X0191243Y0072966D01*
X0191211Y0072974D01*
X0191179Y0072979D01*
X0191146Y0072981D01*
X0213706Y0092233D02*
X0213893Y0092231D01*
X0214081Y0092224D01*
X0214268Y0092213D01*
X0214455Y0092197D01*
X0214641Y0092176D01*
X0214827Y0092152D01*
X0215012Y0092122D01*
X0215196Y0092089D01*
X0215380Y0092050D01*
X0215562Y0092008D01*
X0215744Y0091961D01*
X0215924Y0091909D01*
X0216103Y0091853D01*
X0216280Y0091793D01*
X0216456Y0091729D01*
X0216631Y0091660D01*
X0216803Y0091588D01*
X0216974Y0091511D01*
X0217143Y0091430D01*
X0217310Y0091345D01*
X0217475Y0091255D01*
X0217638Y0091162D01*
X0217798Y0091065D01*
X0217956Y0090965D01*
X0218112Y0090860D01*
X0218265Y0090752D01*
X0218415Y0090640D01*
X0218563Y0090524D01*
X0218707Y0090405D01*
X0218849Y0090282D01*
X0218988Y0090156D01*
X0219124Y0090027D01*
X0219256Y0089895D01*
X0219385Y0089759D01*
X0219511Y0089620D01*
X0219634Y0089478D01*
X0219753Y0089334D01*
X0219869Y0089186D01*
X0219981Y0089036D01*
X0220089Y0088883D01*
X0220194Y0088727D01*
X0220294Y0088569D01*
X0220391Y0088409D01*
X0220484Y0088246D01*
X0220574Y0088081D01*
X0220659Y0087914D01*
X0220740Y0087745D01*
X0220817Y0087574D01*
X0220889Y0087402D01*
X0220958Y0087227D01*
X0221022Y0087051D01*
X0221082Y0086874D01*
X0221138Y0086695D01*
X0221190Y0086515D01*
X0221237Y0086333D01*
X0221279Y0086151D01*
X0221318Y0085967D01*
X0221351Y0085783D01*
X0221381Y0085598D01*
X0221405Y0085412D01*
X0221426Y0085226D01*
X0221442Y0085039D01*
X0221453Y0084852D01*
X0221460Y0084664D01*
X0221462Y0084477D01*
X0221461Y0084477D02*
X0221461Y0072666D01*
X0221461Y0060855D01*
X0221461Y0049044D01*
X0187796Y0102233D02*
X0161989Y0102233D01*
X0155233Y0102233D01*
X0154919Y0102237D01*
X0154605Y0102248D01*
X0154291Y0102267D01*
X0153978Y0102294D01*
X0153666Y0102328D01*
X0153355Y0102369D01*
X0153044Y0102419D01*
X0152735Y0102475D01*
X0152428Y0102539D01*
X0152122Y0102611D01*
X0151818Y0102690D01*
X0151516Y0102776D01*
X0151216Y0102869D01*
X0150918Y0102970D01*
X0150623Y0103078D01*
X0150331Y0103193D01*
X0150041Y0103315D01*
X0149755Y0103444D01*
X0149472Y0103579D01*
X0149192Y0103722D01*
X0148915Y0103871D01*
X0148643Y0104027D01*
X0148374Y0104190D01*
X0148109Y0104359D01*
X0147848Y0104534D01*
X0147592Y0104716D01*
X0147340Y0104903D01*
X0147093Y0105097D01*
X0146850Y0105297D01*
X0146612Y0105502D01*
X0146380Y0105714D01*
X0146152Y0105930D01*
X0145930Y0106152D01*
X0145714Y0106380D01*
X0145502Y0106612D01*
X0145297Y0106850D01*
X0145097Y0107093D01*
X0144903Y0107340D01*
X0144716Y0107592D01*
X0144534Y0107848D01*
X0144359Y0108109D01*
X0144190Y0108374D01*
X0144027Y0108643D01*
X0143871Y0108915D01*
X0143722Y0109192D01*
X0143579Y0109472D01*
X0143444Y0109755D01*
X0143315Y0110041D01*
X0143193Y0110331D01*
X0143078Y0110623D01*
X0142970Y0110918D01*
X0142869Y0111216D01*
X0142776Y0111516D01*
X0142690Y0111818D01*
X0142611Y0112122D01*
X0142539Y0112428D01*
X0142475Y0112735D01*
X0142419Y0113044D01*
X0142369Y0113355D01*
X0142328Y0113666D01*
X0142294Y0113978D01*
X0142267Y0114291D01*
X0142248Y0114605D01*
X0142237Y0114919D01*
X0142233Y0115233D01*
X0142233Y0115733D01*
X0142233Y0184698D01*
X0142234Y0184698D02*
X0142238Y0185063D01*
X0142252Y0185427D01*
X0142274Y0185791D01*
X0142304Y0186155D01*
X0142344Y0186517D01*
X0142392Y0186879D01*
X0142449Y0187239D01*
X0142515Y0187598D01*
X0142590Y0187955D01*
X0142673Y0188310D01*
X0142764Y0188663D01*
X0142864Y0189014D01*
X0142973Y0189362D01*
X0143090Y0189708D01*
X0143215Y0190050D01*
X0143348Y0190390D01*
X0143490Y0190726D01*
X0143640Y0191059D01*
X0143797Y0191388D01*
X0143963Y0191713D01*
X0144136Y0192033D01*
X0144317Y0192350D01*
X0144506Y0192662D01*
X0144702Y0192970D01*
X0144906Y0193272D01*
X0145117Y0193570D01*
X0145335Y0193863D01*
X0145560Y0194150D01*
X0145791Y0194431D01*
X0146030Y0194707D01*
X0146275Y0194977D01*
X0146527Y0195241D01*
X0146785Y0195499D01*
X0147049Y0195751D01*
X0147319Y0195996D01*
X0147595Y0196235D01*
X0147876Y0196466D01*
X0148163Y0196691D01*
X0148456Y0196909D01*
X0148754Y0197120D01*
X0149056Y0197324D01*
X0149364Y0197520D01*
X0149676Y0197709D01*
X0149993Y0197890D01*
X0150313Y0198063D01*
X0150638Y0198229D01*
X0150967Y0198386D01*
X0151300Y0198536D01*
X0151636Y0198678D01*
X0151976Y0198811D01*
X0152318Y0198936D01*
X0152664Y0199053D01*
X0153012Y0199162D01*
X0153363Y0199262D01*
X0153716Y0199353D01*
X0154071Y0199436D01*
X0154428Y0199511D01*
X0154787Y0199577D01*
X0155147Y0199634D01*
X0155509Y0199682D01*
X0155871Y0199722D01*
X0156235Y0199752D01*
X0156599Y0199774D01*
X0156963Y0199788D01*
X0157328Y0199792D01*
X0172233Y0172233D02*
X0172595Y0172237D01*
X0172958Y0172251D01*
X0173320Y0172272D01*
X0173681Y0172303D01*
X0174041Y0172342D01*
X0174400Y0172390D01*
X0174758Y0172447D01*
X0175115Y0172512D01*
X0175470Y0172586D01*
X0175823Y0172669D01*
X0176174Y0172760D01*
X0176522Y0172859D01*
X0176868Y0172967D01*
X0177212Y0173083D01*
X0177552Y0173208D01*
X0177889Y0173340D01*
X0178223Y0173481D01*
X0178554Y0173630D01*
X0178881Y0173787D01*
X0179204Y0173951D01*
X0179523Y0174123D01*
X0179837Y0174303D01*
X0180148Y0174491D01*
X0180453Y0174686D01*
X0180754Y0174888D01*
X0181050Y0175098D01*
X0181340Y0175314D01*
X0181626Y0175538D01*
X0181906Y0175768D01*
X0182180Y0176005D01*
X0182448Y0176249D01*
X0182711Y0176499D01*
X0182967Y0176755D01*
X0183217Y0177018D01*
X0183461Y0177286D01*
X0183698Y0177560D01*
X0183928Y0177840D01*
X0184152Y0178126D01*
X0184368Y0178416D01*
X0184578Y0178712D01*
X0184780Y0179013D01*
X0184975Y0179318D01*
X0185163Y0179629D01*
X0185343Y0179943D01*
X0185515Y0180262D01*
X0185679Y0180585D01*
X0185836Y0180912D01*
X0185985Y0181243D01*
X0186126Y0181577D01*
X0186258Y0181914D01*
X0186383Y0182254D01*
X0186499Y0182598D01*
X0186607Y0182944D01*
X0186706Y0183292D01*
X0186797Y0183643D01*
X0186880Y0183996D01*
X0186954Y0184351D01*
X0187019Y0184708D01*
X0187076Y0185066D01*
X0187124Y0185425D01*
X0187163Y0185785D01*
X0187194Y0186146D01*
X0187215Y0186508D01*
X0187229Y0186871D01*
X0187233Y0187233D01*
X0196635Y0196772D02*
X0197096Y0196766D01*
X0197558Y0196750D01*
X0198018Y0196722D01*
X0198478Y0196683D01*
X0198937Y0196633D01*
X0199394Y0196572D01*
X0199850Y0196499D01*
X0200304Y0196416D01*
X0200756Y0196322D01*
X0201205Y0196217D01*
X0201652Y0196101D01*
X0202096Y0195975D01*
X0202537Y0195837D01*
X0202974Y0195689D01*
X0203407Y0195531D01*
X0203837Y0195362D01*
X0204262Y0195183D01*
X0204683Y0194993D01*
X0205099Y0194794D01*
X0205510Y0194584D01*
X0205916Y0194365D01*
X0206317Y0194136D01*
X0206712Y0193897D01*
X0207101Y0193649D01*
X0207484Y0193391D01*
X0207861Y0193125D01*
X0208231Y0192849D01*
X0208594Y0192564D01*
X0208950Y0192271D01*
X0209299Y0191969D01*
X0209641Y0191659D01*
X0209975Y0191341D01*
X0210302Y0191014D01*
X0210620Y0190680D01*
X0210930Y0190338D01*
X0211232Y0189989D01*
X0211525Y0189633D01*
X0211810Y0189270D01*
X0212086Y0188900D01*
X0212352Y0188523D01*
X0212610Y0188140D01*
X0212858Y0187751D01*
X0213097Y0187356D01*
X0213326Y0186955D01*
X0213545Y0186549D01*
X0213755Y0186138D01*
X0213954Y0185722D01*
X0214144Y0185301D01*
X0214323Y0184876D01*
X0214492Y0184446D01*
X0214650Y0184013D01*
X0214798Y0183576D01*
X0214936Y0183135D01*
X0215062Y0182691D01*
X0215178Y0182244D01*
X0215283Y0181795D01*
X0215377Y0181343D01*
X0215460Y0180889D01*
X0215533Y0180433D01*
X0215594Y0179976D01*
X0215644Y0179517D01*
X0215683Y0179057D01*
X0215711Y0178597D01*
X0215727Y0178135D01*
X0215733Y0177674D01*
X0215733Y0132233D01*
X0215733Y0123733D01*
X0207233Y0123170D02*
X0207233Y0167233D01*
X0207230Y0167463D01*
X0207222Y0167694D01*
X0207208Y0167924D01*
X0207188Y0168154D01*
X0207163Y0168383D01*
X0207133Y0168611D01*
X0207097Y0168839D01*
X0207055Y0169066D01*
X0207008Y0169291D01*
X0206956Y0169516D01*
X0206898Y0169739D01*
X0206835Y0169961D01*
X0206766Y0170181D01*
X0206692Y0170399D01*
X0206613Y0170616D01*
X0206529Y0170830D01*
X0206439Y0171043D01*
X0206345Y0171253D01*
X0206245Y0171461D01*
X0206140Y0171666D01*
X0206031Y0171869D01*
X0205916Y0172069D01*
X0205797Y0172266D01*
X0205673Y0172460D01*
X0205544Y0172652D01*
X0205411Y0172840D01*
X0205273Y0173025D01*
X0205131Y0173206D01*
X0204985Y0173384D01*
X0204834Y0173559D01*
X0204679Y0173729D01*
X0204520Y0173896D01*
X0204357Y0174059D01*
X0204190Y0174218D01*
X0204020Y0174373D01*
X0203845Y0174524D01*
X0203667Y0174670D01*
X0203486Y0174812D01*
X0203301Y0174950D01*
X0203113Y0175083D01*
X0202921Y0175212D01*
X0202727Y0175336D01*
X0202530Y0175455D01*
X0202330Y0175570D01*
X0202127Y0175679D01*
X0201922Y0175784D01*
X0201714Y0175884D01*
X0201504Y0175978D01*
X0201291Y0176068D01*
X0201077Y0176152D01*
X0200860Y0176231D01*
X0200642Y0176305D01*
X0200422Y0176374D01*
X0200200Y0176437D01*
X0199977Y0176495D01*
X0199752Y0176547D01*
X0199527Y0176594D01*
X0199300Y0176636D01*
X0199072Y0176672D01*
X0198844Y0176702D01*
X0198615Y0176727D01*
X0198385Y0176747D01*
X0198155Y0176761D01*
X0197924Y0176769D01*
X0197694Y0176772D01*
X0196635Y0176772D01*
X0195666Y0162233D02*
X0161989Y0162233D01*
X0161989Y0152233D02*
X0195666Y0152233D01*
X0195699Y0152231D01*
X0195731Y0152226D01*
X0195763Y0152218D01*
X0195794Y0152206D01*
X0195824Y0152191D01*
X0195851Y0152173D01*
X0195877Y0152152D01*
X0195900Y0152129D01*
X0195921Y0152103D01*
X0195939Y0152076D01*
X0195954Y0152046D01*
X0195966Y0152015D01*
X0195974Y0151983D01*
X0195979Y0151951D01*
X0195981Y0151918D01*
X0195666Y0142233D02*
X0161989Y0142233D01*
X0161989Y0132233D02*
X0195666Y0132233D01*
X0195699Y0132231D01*
X0195731Y0132226D01*
X0195763Y0132218D01*
X0195794Y0132206D01*
X0195824Y0132191D01*
X0195851Y0132173D01*
X0195877Y0132152D01*
X0195900Y0132129D01*
X0195921Y0132103D01*
X0195939Y0132076D01*
X0195954Y0132046D01*
X0195966Y0132015D01*
X0195974Y0131983D01*
X0195979Y0131951D01*
X0195981Y0131918D01*
X0207233Y0123170D02*
X0207230Y0122898D01*
X0207220Y0122626D01*
X0207203Y0122355D01*
X0207180Y0122084D01*
X0207151Y0121814D01*
X0207115Y0121544D01*
X0207072Y0121276D01*
X0207023Y0121008D01*
X0206968Y0120742D01*
X0206906Y0120477D01*
X0206838Y0120214D01*
X0206763Y0119953D01*
X0206682Y0119693D01*
X0206595Y0119435D01*
X0206502Y0119180D01*
X0206402Y0118927D01*
X0206297Y0118676D01*
X0206185Y0118428D01*
X0206068Y0118183D01*
X0205944Y0117941D01*
X0205815Y0117702D01*
X0205680Y0117466D01*
X0205539Y0117233D01*
X0205393Y0117004D01*
X0205241Y0116778D01*
X0205084Y0116556D01*
X0204922Y0116338D01*
X0204754Y0116124D01*
X0204581Y0115914D01*
X0204403Y0115709D01*
X0204220Y0115507D01*
X0204033Y0115310D01*
X0203841Y0115118D01*
X0203644Y0114931D01*
X0203442Y0114748D01*
X0203237Y0114570D01*
X0203027Y0114397D01*
X0202813Y0114229D01*
X0202595Y0114067D01*
X0202373Y0113910D01*
X0202147Y0113758D01*
X0201918Y0113612D01*
X0201685Y0113471D01*
X0201449Y0113336D01*
X0201210Y0113207D01*
X0200968Y0113083D01*
X0200723Y0112966D01*
X0200475Y0112854D01*
X0200224Y0112749D01*
X0199971Y0112649D01*
X0199716Y0112556D01*
X0199458Y0112469D01*
X0199198Y0112388D01*
X0198937Y0112313D01*
X0198674Y0112245D01*
X0198409Y0112183D01*
X0198143Y0112128D01*
X0197875Y0112079D01*
X0197607Y0112036D01*
X0197337Y0112000D01*
X0197067Y0111971D01*
X0196796Y0111948D01*
X0196525Y0111931D01*
X0196253Y0111921D01*
X0195981Y0111918D01*
X0195996Y0111702D01*
X0196006Y0111485D01*
X0196011Y0111269D01*
X0196011Y0111052D01*
X0196006Y0110836D01*
X0195995Y0110619D01*
X0195979Y0110403D01*
X0195958Y0110187D01*
X0195932Y0109972D01*
X0195900Y0109758D01*
X0195864Y0109544D01*
X0195822Y0109332D01*
X0195775Y0109120D01*
X0195723Y0108910D01*
X0195666Y0108701D01*
X0195604Y0108493D01*
X0195537Y0108287D01*
X0195465Y0108083D01*
X0195388Y0107881D01*
X0195306Y0107680D01*
X0195219Y0107481D01*
X0195128Y0107285D01*
X0195031Y0107091D01*
X0194930Y0106899D01*
X0194825Y0106710D01*
X0194715Y0106523D01*
X0194601Y0106339D01*
X0194482Y0106158D01*
X0194358Y0105980D01*
X0194231Y0105805D01*
X0194099Y0105633D01*
X0193963Y0105464D01*
X0193824Y0105298D01*
X0193680Y0105136D01*
X0193532Y0104978D01*
X0193381Y0104823D01*
X0193225Y0104672D01*
X0193067Y0104524D01*
X0192904Y0104381D01*
X0192739Y0104241D01*
X0192570Y0104105D01*
X0192397Y0103974D01*
X0192222Y0103847D01*
X0192043Y0103724D01*
X0191862Y0103605D01*
X0191678Y0103491D01*
X0191491Y0103381D01*
X0191302Y0103276D01*
X0191110Y0103176D01*
X0190915Y0103080D01*
X0190719Y0102989D01*
X0190520Y0102902D01*
X0190319Y0102821D01*
X0190117Y0102744D01*
X0189912Y0102673D01*
X0189706Y0102606D01*
X0189499Y0102544D01*
X0189289Y0102487D01*
X0189079Y0102436D01*
X0188867Y0102389D01*
X0188655Y0102348D01*
X0188441Y0102311D01*
X0188227Y0102280D01*
X0188012Y0102254D01*
X0187796Y0102233D01*
X0195981Y0141918D02*
X0195979Y0141951D01*
X0195974Y0141983D01*
X0195966Y0142015D01*
X0195954Y0142046D01*
X0195939Y0142076D01*
X0195921Y0142103D01*
X0195900Y0142129D01*
X0195877Y0142152D01*
X0195851Y0142173D01*
X0195824Y0142191D01*
X0195794Y0142206D01*
X0195763Y0142218D01*
X0195731Y0142226D01*
X0195699Y0142231D01*
X0195666Y0142233D01*
X0195981Y0161918D02*
X0195979Y0161951D01*
X0195974Y0161983D01*
X0195966Y0162015D01*
X0195954Y0162046D01*
X0195939Y0162076D01*
X0195921Y0162103D01*
X0195900Y0162129D01*
X0195877Y0162152D01*
X0195851Y0162173D01*
X0195824Y0162191D01*
X0195794Y0162206D01*
X0195763Y0162218D01*
X0195731Y0162226D01*
X0195699Y0162231D01*
X0195666Y0162233D01*
X0172233Y0172233D02*
X0161989Y0172233D01*
X0161989Y0182233D02*
X0161989Y0183489D01*
X0161992Y0183700D01*
X0161999Y0183911D01*
X0162012Y0184122D01*
X0162030Y0184333D01*
X0162053Y0184543D01*
X0162081Y0184752D01*
X0162114Y0184961D01*
X0162152Y0185169D01*
X0162195Y0185376D01*
X0162243Y0185582D01*
X0162296Y0185786D01*
X0162354Y0185989D01*
X0162417Y0186191D01*
X0162485Y0186391D01*
X0162557Y0186590D01*
X0162635Y0186786D01*
X0162717Y0186981D01*
X0162803Y0187174D01*
X0162895Y0187364D01*
X0162991Y0187553D01*
X0163091Y0187738D01*
X0163196Y0187922D01*
X0163305Y0188103D01*
X0163419Y0188281D01*
X0163537Y0188456D01*
X0163659Y0188629D01*
X0163785Y0188798D01*
X0163916Y0188964D01*
X0164050Y0189128D01*
X0164188Y0189287D01*
X0164330Y0189444D01*
X0164476Y0189597D01*
X0164625Y0189746D01*
X0164778Y0189892D01*
X0164935Y0190034D01*
X0165094Y0190172D01*
X0165258Y0190306D01*
X0165424Y0190437D01*
X0165593Y0190563D01*
X0165766Y0190685D01*
X0165941Y0190803D01*
X0166119Y0190917D01*
X0166300Y0191026D01*
X0166484Y0191131D01*
X0166669Y0191231D01*
X0166858Y0191327D01*
X0167048Y0191419D01*
X0167241Y0191505D01*
X0167436Y0191587D01*
X0167632Y0191665D01*
X0167831Y0191737D01*
X0168031Y0191805D01*
X0168233Y0191868D01*
X0168436Y0191926D01*
X0168640Y0191979D01*
X0168846Y0192027D01*
X0169053Y0192070D01*
X0169261Y0192108D01*
X0169470Y0192141D01*
X0169679Y0192169D01*
X0169889Y0192192D01*
X0170100Y0192210D01*
X0170311Y0192223D01*
X0170522Y0192230D01*
X0170733Y0192233D01*
X0131989Y0162233D02*
X0101363Y0162233D01*
X0101233Y0162231D01*
X0101103Y0162225D01*
X0100973Y0162216D01*
X0100844Y0162202D01*
X0100715Y0162185D01*
X0100586Y0162164D01*
X0100459Y0162139D01*
X0100332Y0162110D01*
X0100206Y0162078D01*
X0100081Y0162042D01*
X0099957Y0162002D01*
X0099834Y0161958D01*
X0099713Y0161911D01*
X0099593Y0161860D01*
X0099475Y0161806D01*
X0099358Y0161749D01*
X0099244Y0161687D01*
X0099131Y0161623D01*
X0099020Y0161555D01*
X0098911Y0161484D01*
X0098804Y0161410D01*
X0098699Y0161332D01*
X0098597Y0161252D01*
X0098497Y0161168D01*
X0098400Y0161082D01*
X0098305Y0160993D01*
X0098213Y0160901D01*
X0098124Y0160806D01*
X0098038Y0160709D01*
X0097954Y0160609D01*
X0097874Y0160507D01*
X0097796Y0160402D01*
X0097722Y0160295D01*
X0097651Y0160186D01*
X0097583Y0160075D01*
X0097519Y0159962D01*
X0097457Y0159848D01*
X0097400Y0159731D01*
X0097346Y0159613D01*
X0097295Y0159493D01*
X0097248Y0159372D01*
X0097204Y0159249D01*
X0097164Y0159125D01*
X0097128Y0159000D01*
X0097096Y0158874D01*
X0097067Y0158747D01*
X0097042Y0158620D01*
X0097021Y0158491D01*
X0097004Y0158362D01*
X0096990Y0158233D01*
X0096981Y0158103D01*
X0096975Y0157973D01*
X0096973Y0157843D01*
X0086225Y0158532D02*
X0074414Y0158532D01*
X0060280Y0160894D02*
X0060407Y0161355D01*
X0060544Y0161812D01*
X0060693Y0162267D01*
X0060852Y0162717D01*
X0061023Y0163164D01*
X0061204Y0163606D01*
X0061395Y0164044D01*
X0061598Y0164477D01*
X0061810Y0164905D01*
X0062033Y0165328D01*
X0062266Y0165745D01*
X0062509Y0166156D01*
X0062762Y0166562D01*
X0063025Y0166961D01*
X0063297Y0167354D01*
X0063578Y0167740D01*
X0063869Y0168119D01*
X0064169Y0168491D01*
X0064478Y0168856D01*
X0064796Y0169213D01*
X0065122Y0169562D01*
X0065456Y0169904D01*
X0065799Y0170237D01*
X0066149Y0170562D01*
X0066508Y0170878D01*
X0066874Y0171185D01*
X0067247Y0171484D01*
X0067627Y0171773D01*
X0068014Y0172054D01*
X0068408Y0172324D01*
X0068808Y0172585D01*
X0069215Y0172837D01*
X0069627Y0173078D01*
X0070045Y0173310D01*
X0070469Y0173531D01*
X0070897Y0173742D01*
X0071331Y0173943D01*
X0071770Y0174133D01*
X0072213Y0174312D01*
X0072660Y0174481D01*
X0073111Y0174639D01*
X0073566Y0174785D01*
X0074024Y0174921D01*
X0074485Y0175046D01*
X0074949Y0175159D01*
X0075416Y0175262D01*
X0075885Y0175353D01*
X0076357Y0175432D01*
X0076830Y0175500D01*
X0077304Y0175557D01*
X0077780Y0175602D01*
X0078257Y0175636D01*
X0078734Y0175658D01*
X0079212Y0175669D01*
X0079690Y0175668D01*
X0080167Y0175656D01*
X0080645Y0175632D01*
X0081121Y0175596D01*
X0081597Y0175549D01*
X0082071Y0175491D01*
X0082544Y0175421D01*
X0083015Y0175339D01*
X0083484Y0175247D01*
X0083950Y0175143D01*
X0084414Y0175028D01*
X0094611Y0182981D02*
X0100083Y0182981D01*
X0094611Y0172981D02*
X0094174Y0172986D01*
X0093738Y0173002D01*
X0093302Y0173028D01*
X0092867Y0173065D01*
X0092433Y0173113D01*
X0092000Y0173171D01*
X0091569Y0173239D01*
X0091139Y0173318D01*
X0090712Y0173407D01*
X0090286Y0173506D01*
X0089864Y0173616D01*
X0089444Y0173736D01*
X0089027Y0173865D01*
X0088613Y0174005D01*
X0088203Y0174155D01*
X0087797Y0174315D01*
X0087394Y0174485D01*
X0086996Y0174664D01*
X0086602Y0174853D01*
X0086213Y0175051D01*
X0085829Y0175259D01*
X0085450Y0175475D01*
X0085076Y0175701D01*
X0084708Y0175936D01*
X0084346Y0176180D01*
X0083989Y0176432D01*
X0083639Y0176693D01*
X0083295Y0176963D01*
X0082958Y0177240D01*
X0082628Y0177526D01*
X0082304Y0177819D01*
X0081988Y0178120D01*
X0081679Y0178429D01*
X0081378Y0178745D01*
X0081085Y0179069D01*
X0080799Y0179399D01*
X0080522Y0179736D01*
X0080252Y0180080D01*
X0079991Y0180430D01*
X0079739Y0180787D01*
X0079495Y0181149D01*
X0079260Y0181517D01*
X0079034Y0181891D01*
X0078818Y0182270D01*
X0078610Y0182654D01*
X0078412Y0183043D01*
X0078223Y0183437D01*
X0078044Y0183835D01*
X0077874Y0184238D01*
X0077714Y0184644D01*
X0077564Y0185054D01*
X0077424Y0185468D01*
X0077295Y0185885D01*
X0077175Y0186305D01*
X0077065Y0186727D01*
X0076966Y0187153D01*
X0076877Y0187580D01*
X0076798Y0188010D01*
X0076730Y0188441D01*
X0076672Y0188874D01*
X0076624Y0189308D01*
X0076587Y0189743D01*
X0076561Y0190179D01*
X0076545Y0190615D01*
X0076540Y0191052D01*
X0060280Y0160894D02*
X0060278Y0160750D01*
X0060272Y0160606D01*
X0060262Y0160463D01*
X0060249Y0160319D01*
X0060231Y0160176D01*
X0060210Y0160034D01*
X0060185Y0159892D01*
X0060156Y0159751D01*
X0060123Y0159611D01*
X0060086Y0159472D01*
X0060046Y0159334D01*
X0060002Y0159197D01*
X0059954Y0159061D01*
X0059903Y0158927D01*
X0059847Y0158794D01*
X0059789Y0158662D01*
X0059727Y0158532D01*
X0059661Y0158404D01*
X0059592Y0158278D01*
X0059519Y0158154D01*
X0059443Y0158032D01*
X0059364Y0157911D01*
X0059282Y0157793D01*
X0059196Y0157677D01*
X0059108Y0157564D01*
X0059016Y0157453D01*
X0058921Y0157345D01*
X0058824Y0157239D01*
X0058723Y0157136D01*
X0058620Y0157035D01*
X0058514Y0156938D01*
X0058406Y0156843D01*
X0058295Y0156751D01*
X0058182Y0156663D01*
X0058066Y0156577D01*
X0057948Y0156495D01*
X0057827Y0156416D01*
X0057705Y0156340D01*
X0057581Y0156267D01*
X0057455Y0156198D01*
X0057327Y0156132D01*
X0057197Y0156070D01*
X0057065Y0156012D01*
X0056932Y0155956D01*
X0056798Y0155905D01*
X0056662Y0155857D01*
X0056525Y0155813D01*
X0056387Y0155773D01*
X0056248Y0155736D01*
X0056108Y0155703D01*
X0055967Y0155674D01*
X0055825Y0155649D01*
X0055683Y0155628D01*
X0055540Y0155610D01*
X0055396Y0155597D01*
X0055253Y0155587D01*
X0055109Y0155581D01*
X0054965Y0155579D01*
X0054965Y0155580D02*
X0046973Y0155580D01*
X0046973Y0140580D01*
X0046976Y0140354D01*
X0046984Y0140127D01*
X0046998Y0139901D01*
X0047017Y0139676D01*
X0047041Y0139451D01*
X0047071Y0139226D01*
X0047107Y0139002D01*
X0047148Y0138780D01*
X0047194Y0138558D01*
X0047245Y0138338D01*
X0047302Y0138118D01*
X0047364Y0137901D01*
X0047432Y0137685D01*
X0047504Y0137470D01*
X0047582Y0137257D01*
X0047665Y0137047D01*
X0047753Y0136838D01*
X0047846Y0136631D01*
X0047943Y0136427D01*
X0048046Y0136226D01*
X0048154Y0136026D01*
X0048266Y0135830D01*
X0048383Y0135636D01*
X0048505Y0135445D01*
X0048632Y0135257D01*
X0048763Y0135072D01*
X0048898Y0134891D01*
X0049037Y0134713D01*
X0049181Y0134538D01*
X0049329Y0134367D01*
X0049482Y0134199D01*
X0049638Y0134035D01*
X0049798Y0133875D01*
X0049962Y0133719D01*
X0050130Y0133566D01*
X0050301Y0133418D01*
X0050476Y0133274D01*
X0050654Y0133135D01*
X0050835Y0133000D01*
X0051020Y0132869D01*
X0051208Y0132742D01*
X0051399Y0132620D01*
X0051593Y0132503D01*
X0051789Y0132391D01*
X0051989Y0132283D01*
X0052190Y0132180D01*
X0052394Y0132083D01*
X0052601Y0131990D01*
X0052810Y0131902D01*
X0053020Y0131819D01*
X0053233Y0131741D01*
X0053448Y0131669D01*
X0053664Y0131601D01*
X0053881Y0131539D01*
X0054101Y0131482D01*
X0054321Y0131431D01*
X0054543Y0131385D01*
X0054765Y0131344D01*
X0054989Y0131308D01*
X0055214Y0131278D01*
X0055439Y0131254D01*
X0055664Y0131235D01*
X0055890Y0131221D01*
X0056117Y0131213D01*
X0056343Y0131210D01*
X0056343Y0131209D02*
X0071737Y0131209D01*
X0071840Y0131207D01*
X0071942Y0131201D01*
X0072044Y0131191D01*
X0072146Y0131178D01*
X0072247Y0131160D01*
X0072347Y0131139D01*
X0072446Y0131113D01*
X0072545Y0131084D01*
X0072642Y0131051D01*
X0072738Y0131015D01*
X0072832Y0130975D01*
X0072925Y0130931D01*
X0073016Y0130884D01*
X0073105Y0130833D01*
X0073192Y0130779D01*
X0073277Y0130722D01*
X0073360Y0130661D01*
X0073440Y0130597D01*
X0073518Y0130531D01*
X0073593Y0130461D01*
X0073666Y0130388D01*
X0073736Y0130313D01*
X0073802Y0130235D01*
X0073866Y0130155D01*
X0073927Y0130072D01*
X0073984Y0129987D01*
X0074038Y0129900D01*
X0074089Y0129811D01*
X0074136Y0129720D01*
X0074180Y0129627D01*
X0074220Y0129533D01*
X0074256Y0129437D01*
X0074289Y0129340D01*
X0074318Y0129241D01*
X0074344Y0129142D01*
X0074365Y0129042D01*
X0074383Y0128941D01*
X0074396Y0128839D01*
X0074406Y0128737D01*
X0074412Y0128635D01*
X0074414Y0128532D01*
X0087733Y0118209D02*
X0087733Y0107733D01*
X0087733Y0097733D02*
X0102233Y0097733D01*
X0102293Y0097735D01*
X0102354Y0097740D01*
X0102413Y0097749D01*
X0102472Y0097762D01*
X0102531Y0097778D01*
X0102588Y0097798D01*
X0102643Y0097821D01*
X0102698Y0097848D01*
X0102750Y0097877D01*
X0102801Y0097910D01*
X0102850Y0097946D01*
X0102896Y0097984D01*
X0102940Y0098026D01*
X0102982Y0098070D01*
X0103020Y0098116D01*
X0103056Y0098165D01*
X0103089Y0098216D01*
X0103118Y0098268D01*
X0103145Y0098323D01*
X0103168Y0098378D01*
X0103188Y0098435D01*
X0103204Y0098494D01*
X0103217Y0098553D01*
X0103226Y0098612D01*
X0103231Y0098673D01*
X0103233Y0098733D01*
X0103233Y0091233D02*
X0103450Y0091236D01*
X0103668Y0091244D01*
X0103885Y0091257D01*
X0104102Y0091275D01*
X0104318Y0091299D01*
X0104533Y0091327D01*
X0104748Y0091361D01*
X0104962Y0091401D01*
X0105175Y0091445D01*
X0105387Y0091495D01*
X0105597Y0091549D01*
X0105807Y0091609D01*
X0106014Y0091673D01*
X0106220Y0091743D01*
X0106424Y0091818D01*
X0106627Y0091897D01*
X0106827Y0091982D01*
X0107026Y0092071D01*
X0107222Y0092165D01*
X0107416Y0092264D01*
X0107607Y0092367D01*
X0107796Y0092475D01*
X0107982Y0092588D01*
X0108165Y0092705D01*
X0108346Y0092826D01*
X0108523Y0092952D01*
X0108697Y0093082D01*
X0108869Y0093216D01*
X0109037Y0093354D01*
X0109201Y0093496D01*
X0109362Y0093643D01*
X0109520Y0093793D01*
X0109673Y0093946D01*
X0109823Y0094104D01*
X0109970Y0094265D01*
X0110112Y0094429D01*
X0110250Y0094597D01*
X0110384Y0094769D01*
X0110514Y0094943D01*
X0110640Y0095120D01*
X0110761Y0095301D01*
X0110878Y0095484D01*
X0110991Y0095670D01*
X0111099Y0095859D01*
X0111202Y0096050D01*
X0111301Y0096244D01*
X0111395Y0096440D01*
X0111484Y0096639D01*
X0111569Y0096839D01*
X0111648Y0097042D01*
X0111723Y0097246D01*
X0111793Y0097452D01*
X0111857Y0097659D01*
X0111917Y0097869D01*
X0111971Y0098079D01*
X0112021Y0098291D01*
X0112065Y0098504D01*
X0112105Y0098718D01*
X0112139Y0098933D01*
X0112167Y0099148D01*
X0112191Y0099364D01*
X0112209Y0099581D01*
X0112222Y0099798D01*
X0112230Y0100016D01*
X0112233Y0100233D01*
X0112235Y0100320D01*
X0112241Y0100407D01*
X0112250Y0100494D01*
X0112263Y0100580D01*
X0112280Y0100666D01*
X0112301Y0100751D01*
X0112326Y0100834D01*
X0112354Y0100917D01*
X0112385Y0100998D01*
X0112420Y0101078D01*
X0112459Y0101156D01*
X0112501Y0101233D01*
X0112546Y0101308D01*
X0112595Y0101380D01*
X0112646Y0101451D01*
X0112701Y0101519D01*
X0112758Y0101584D01*
X0112819Y0101647D01*
X0112882Y0101708D01*
X0112947Y0101765D01*
X0113015Y0101820D01*
X0113086Y0101871D01*
X0113158Y0101920D01*
X0113233Y0101965D01*
X0113310Y0102007D01*
X0113388Y0102046D01*
X0113468Y0102081D01*
X0113549Y0102112D01*
X0113632Y0102140D01*
X0113715Y0102165D01*
X0113800Y0102186D01*
X0113886Y0102203D01*
X0113972Y0102216D01*
X0114059Y0102225D01*
X0114146Y0102231D01*
X0114233Y0102233D01*
X0131989Y0102233D01*
X0131989Y0082233D02*
X0131752Y0081968D01*
X0131508Y0081708D01*
X0131258Y0081455D01*
X0131002Y0081208D01*
X0130740Y0080967D01*
X0130472Y0080732D01*
X0130199Y0080504D01*
X0129920Y0080283D01*
X0129636Y0080069D01*
X0129346Y0079862D01*
X0129052Y0079662D01*
X0128753Y0079469D01*
X0128449Y0079283D01*
X0128141Y0079105D01*
X0127829Y0078934D01*
X0127512Y0078771D01*
X0127192Y0078616D01*
X0126868Y0078469D01*
X0126541Y0078330D01*
X0126210Y0078198D01*
X0125876Y0078075D01*
X0125539Y0077960D01*
X0125199Y0077853D01*
X0124857Y0077755D01*
X0124513Y0077665D01*
X0124167Y0077583D01*
X0123818Y0077510D01*
X0123468Y0077445D01*
X0123117Y0077389D01*
X0122764Y0077341D01*
X0122410Y0077302D01*
X0122056Y0077272D01*
X0121701Y0077250D01*
X0121345Y0077237D01*
X0120989Y0077233D01*
X0100733Y0077233D01*
X0092733Y0091233D02*
X0092363Y0091229D01*
X0091993Y0091215D01*
X0091623Y0091193D01*
X0091254Y0091161D01*
X0090886Y0091121D01*
X0090518Y0091072D01*
X0090153Y0091014D01*
X0089788Y0090947D01*
X0089426Y0090872D01*
X0089065Y0090788D01*
X0088706Y0090695D01*
X0088350Y0090593D01*
X0087997Y0090483D01*
X0087646Y0090364D01*
X0087298Y0090237D01*
X0086953Y0090101D01*
X0086612Y0089958D01*
X0086274Y0089806D01*
X0085940Y0089646D01*
X0085610Y0089477D01*
X0085284Y0089301D01*
X0084963Y0089117D01*
X0084646Y0088926D01*
X0084334Y0088727D01*
X0084026Y0088520D01*
X0083724Y0088306D01*
X0083427Y0088084D01*
X0083135Y0087856D01*
X0082850Y0087621D01*
X0082569Y0087378D01*
X0082295Y0087129D01*
X0082027Y0086874D01*
X0081765Y0086612D01*
X0081510Y0086344D01*
X0081261Y0086070D01*
X0081018Y0085789D01*
X0080783Y0085504D01*
X0080555Y0085212D01*
X0080333Y0084915D01*
X0080119Y0084613D01*
X0079912Y0084305D01*
X0079713Y0083993D01*
X0079522Y0083676D01*
X0079338Y0083355D01*
X0079162Y0083029D01*
X0078993Y0082699D01*
X0078833Y0082365D01*
X0078681Y0082027D01*
X0078538Y0081686D01*
X0078402Y0081341D01*
X0078275Y0080993D01*
X0078156Y0080642D01*
X0078046Y0080289D01*
X0077944Y0079933D01*
X0077851Y0079574D01*
X0077767Y0079213D01*
X0077692Y0078851D01*
X0077625Y0078486D01*
X0077567Y0078121D01*
X0077518Y0077753D01*
X0077478Y0077385D01*
X0077446Y0077016D01*
X0077424Y0076646D01*
X0077410Y0076276D01*
X0077406Y0075906D01*
X0077406Y0073217D01*
X0053351Y0073217D01*
X0053784Y0063115D02*
X0067509Y0063115D01*
X0067748Y0063112D01*
X0067987Y0063103D01*
X0068226Y0063089D01*
X0068464Y0063069D01*
X0068702Y0063043D01*
X0068939Y0063011D01*
X0069175Y0062974D01*
X0069411Y0062931D01*
X0069645Y0062882D01*
X0069878Y0062827D01*
X0070109Y0062767D01*
X0070339Y0062702D01*
X0070568Y0062631D01*
X0070794Y0062554D01*
X0071019Y0062472D01*
X0071241Y0062384D01*
X0071462Y0062291D01*
X0071680Y0062193D01*
X0071896Y0062090D01*
X0072109Y0061981D01*
X0072319Y0061868D01*
X0072527Y0061749D01*
X0072732Y0061625D01*
X0072933Y0061496D01*
X0073132Y0061363D01*
X0073327Y0061225D01*
X0073519Y0061082D01*
X0073707Y0060934D01*
X0073892Y0060782D01*
X0074073Y0060626D01*
X0074250Y0060465D01*
X0074423Y0060300D01*
X0074592Y0060131D01*
X0074757Y0059958D01*
X0074918Y0059781D01*
X0075074Y0059600D01*
X0075226Y0059415D01*
X0075374Y0059227D01*
X0075517Y0059035D01*
X0075655Y0058840D01*
X0075788Y0058641D01*
X0075917Y0058440D01*
X0076041Y0058235D01*
X0076160Y0058027D01*
X0076273Y0057817D01*
X0076382Y0057604D01*
X0076485Y0057388D01*
X0076583Y0057170D01*
X0076676Y0056949D01*
X0076764Y0056727D01*
X0076846Y0056502D01*
X0076923Y0056276D01*
X0076994Y0056047D01*
X0077059Y0055817D01*
X0077119Y0055586D01*
X0077174Y0055353D01*
X0077223Y0055119D01*
X0077266Y0054883D01*
X0077303Y0054647D01*
X0077335Y0054410D01*
X0077361Y0054172D01*
X0077381Y0053934D01*
X0077395Y0053695D01*
X0077404Y0053456D01*
X0077407Y0053217D01*
X0077406Y0053217D02*
X0077607Y0053219D01*
X0077808Y0053227D01*
X0078009Y0053239D01*
X0078210Y0053256D01*
X0078410Y0053278D01*
X0078609Y0053304D01*
X0078808Y0053336D01*
X0079006Y0053372D01*
X0079203Y0053413D01*
X0079399Y0053459D01*
X0079594Y0053509D01*
X0079787Y0053565D01*
X0079979Y0053625D01*
X0080170Y0053689D01*
X0080359Y0053758D01*
X0080546Y0053832D01*
X0080732Y0053910D01*
X0080915Y0053992D01*
X0081096Y0054079D01*
X0081276Y0054171D01*
X0081453Y0054266D01*
X0081627Y0054366D01*
X0081800Y0054470D01*
X0081969Y0054579D01*
X0082136Y0054691D01*
X0082300Y0054807D01*
X0082462Y0054928D01*
X0082620Y0055052D01*
X0082776Y0055180D01*
X0082928Y0055311D01*
X0083077Y0055446D01*
X0083223Y0055585D01*
X0083365Y0055727D01*
X0083504Y0055873D01*
X0083639Y0056022D01*
X0083770Y0056174D01*
X0083898Y0056330D01*
X0084022Y0056488D01*
X0084143Y0056650D01*
X0084259Y0056814D01*
X0084371Y0056981D01*
X0084480Y0057150D01*
X0084584Y0057323D01*
X0084684Y0057497D01*
X0084779Y0057674D01*
X0084871Y0057854D01*
X0084958Y0058035D01*
X0085040Y0058218D01*
X0085118Y0058404D01*
X0085192Y0058591D01*
X0085261Y0058780D01*
X0085325Y0058971D01*
X0085385Y0059163D01*
X0085441Y0059356D01*
X0085491Y0059551D01*
X0085537Y0059747D01*
X0085578Y0059944D01*
X0085614Y0060142D01*
X0085646Y0060341D01*
X0085672Y0060540D01*
X0085694Y0060740D01*
X0085711Y0060941D01*
X0085723Y0061142D01*
X0085731Y0061343D01*
X0085733Y0061544D01*
X0085733Y0079733D01*
X0086225Y0158532D02*
X0088021Y0158513D01*
X0089816Y0158455D01*
X0091610Y0158360D01*
X0093401Y0158226D01*
X0095189Y0158053D01*
X0096973Y0157843D01*
X0110733Y0152233D02*
X0131989Y0152233D01*
X0131989Y0142233D02*
X0110733Y0142233D01*
X0106733Y0132233D02*
X0131989Y0132233D01*
X0131989Y0122233D02*
X0135733Y0122233D01*
X0133272Y0122233D02*
X0131989Y0122233D01*
X0131987Y0122171D01*
X0131982Y0122110D01*
X0131972Y0122048D01*
X0131959Y0121988D01*
X0131943Y0121928D01*
X0131922Y0121870D01*
X0131899Y0121813D01*
X0131872Y0121757D01*
X0131841Y0121703D01*
X0131808Y0121651D01*
X0131771Y0121601D01*
X0131731Y0121554D01*
X0131689Y0121509D01*
X0131644Y0121467D01*
X0131597Y0121427D01*
X0131547Y0121390D01*
X0131495Y0121357D01*
X0131441Y0121326D01*
X0131385Y0121299D01*
X0131328Y0121276D01*
X0131270Y0121255D01*
X0131210Y0121239D01*
X0131150Y0121226D01*
X0131088Y0121216D01*
X0131027Y0121211D01*
X0130965Y0121209D01*
X0090733Y0121209D01*
X0056343Y0121209D01*
X0056117Y0121206D01*
X0055891Y0121198D01*
X0055666Y0121184D01*
X0055441Y0121165D01*
X0055216Y0121141D01*
X0054992Y0121111D01*
X0054769Y0121076D01*
X0054547Y0121035D01*
X0054325Y0120989D01*
X0054105Y0120937D01*
X0053887Y0120881D01*
X0053669Y0120819D01*
X0053454Y0120751D01*
X0053240Y0120679D01*
X0053027Y0120601D01*
X0052817Y0120519D01*
X0052609Y0120431D01*
X0052403Y0120338D01*
X0052199Y0120241D01*
X0051998Y0120138D01*
X0051799Y0120031D01*
X0051603Y0119918D01*
X0051410Y0119802D01*
X0051219Y0119680D01*
X0051032Y0119554D01*
X0050847Y0119423D01*
X0050666Y0119288D01*
X0050488Y0119149D01*
X0050314Y0119005D01*
X0050143Y0118858D01*
X0049976Y0118706D01*
X0049812Y0118550D01*
X0049652Y0118390D01*
X0049496Y0118226D01*
X0049344Y0118059D01*
X0049197Y0117888D01*
X0049053Y0117714D01*
X0048914Y0117536D01*
X0048779Y0117355D01*
X0048648Y0117170D01*
X0048522Y0116983D01*
X0048400Y0116792D01*
X0048284Y0116599D01*
X0048171Y0116403D01*
X0048064Y0116204D01*
X0047961Y0116003D01*
X0047864Y0115799D01*
X0047771Y0115593D01*
X0047683Y0115385D01*
X0047601Y0115175D01*
X0047523Y0114962D01*
X0047451Y0114748D01*
X0047383Y0114533D01*
X0047321Y0114315D01*
X0047265Y0114097D01*
X0047213Y0113877D01*
X0047167Y0113655D01*
X0047126Y0113433D01*
X0047091Y0113210D01*
X0047061Y0112986D01*
X0047037Y0112761D01*
X0047018Y0112536D01*
X0047004Y0112311D01*
X0046996Y0112085D01*
X0046993Y0111859D01*
X0046993Y0109324D01*
X0087733Y0118209D02*
X0087735Y0118316D01*
X0087741Y0118423D01*
X0087750Y0118530D01*
X0087764Y0118636D01*
X0087781Y0118742D01*
X0087802Y0118847D01*
X0087826Y0118951D01*
X0087855Y0119054D01*
X0087887Y0119156D01*
X0087922Y0119257D01*
X0087961Y0119357D01*
X0088004Y0119455D01*
X0088050Y0119552D01*
X0088100Y0119647D01*
X0088153Y0119740D01*
X0088209Y0119831D01*
X0088269Y0119920D01*
X0088331Y0120007D01*
X0088397Y0120091D01*
X0088466Y0120174D01*
X0088537Y0120253D01*
X0088612Y0120330D01*
X0088689Y0120405D01*
X0088768Y0120476D01*
X0088851Y0120545D01*
X0088935Y0120611D01*
X0089022Y0120673D01*
X0089111Y0120733D01*
X0089202Y0120789D01*
X0089295Y0120842D01*
X0089390Y0120892D01*
X0089487Y0120938D01*
X0089585Y0120981D01*
X0089685Y0121020D01*
X0089786Y0121055D01*
X0089888Y0121087D01*
X0089991Y0121116D01*
X0090095Y0121140D01*
X0090200Y0121161D01*
X0090306Y0121178D01*
X0090412Y0121192D01*
X0090519Y0121201D01*
X0090626Y0121207D01*
X0090733Y0121209D01*
X0103233Y0128733D02*
X0103235Y0128850D01*
X0103241Y0128967D01*
X0103251Y0129083D01*
X0103264Y0129200D01*
X0103282Y0129315D01*
X0103303Y0129430D01*
X0103328Y0129544D01*
X0103357Y0129658D01*
X0103390Y0129770D01*
X0103427Y0129881D01*
X0103467Y0129991D01*
X0103511Y0130099D01*
X0103558Y0130206D01*
X0103609Y0130312D01*
X0103664Y0130415D01*
X0103722Y0130517D01*
X0103783Y0130616D01*
X0103847Y0130714D01*
X0103915Y0130809D01*
X0103986Y0130902D01*
X0104060Y0130993D01*
X0104137Y0131081D01*
X0104217Y0131166D01*
X0104300Y0131249D01*
X0104385Y0131329D01*
X0104473Y0131406D01*
X0104564Y0131480D01*
X0104657Y0131551D01*
X0104752Y0131619D01*
X0104850Y0131683D01*
X0104949Y0131744D01*
X0105051Y0131802D01*
X0105154Y0131857D01*
X0105260Y0131908D01*
X0105367Y0131955D01*
X0105475Y0131999D01*
X0105585Y0132039D01*
X0105696Y0132076D01*
X0105808Y0132109D01*
X0105922Y0132138D01*
X0106036Y0132163D01*
X0106151Y0132184D01*
X0106266Y0132202D01*
X0106383Y0132215D01*
X0106499Y0132225D01*
X0106616Y0132231D01*
X0106733Y0132233D01*
X0115733Y0092234D02*
X0115493Y0091967D01*
X0115248Y0091707D01*
X0114995Y0091452D01*
X0114737Y0091204D01*
X0114473Y0090962D01*
X0114203Y0090727D01*
X0113928Y0090498D01*
X0113647Y0090275D01*
X0113360Y0090060D01*
X0113069Y0089852D01*
X0112773Y0089650D01*
X0112471Y0089456D01*
X0112166Y0089270D01*
X0111856Y0089090D01*
X0111541Y0088919D01*
X0111223Y0088755D01*
X0110900Y0088598D01*
X0110574Y0088450D01*
X0110245Y0088309D01*
X0109912Y0088177D01*
X0109576Y0088052D01*
X0109237Y0087936D01*
X0108896Y0087828D01*
X0108552Y0087728D01*
X0108205Y0087637D01*
X0107857Y0087553D01*
X0107507Y0087479D01*
X0107154Y0087413D01*
X0106801Y0087355D01*
X0106446Y0087306D01*
X0106090Y0087266D01*
X0105733Y0087234D01*
X0103233Y0091233D02*
X0092733Y0091233D01*
X0092733Y0086733D02*
X0092564Y0086731D01*
X0092395Y0086725D01*
X0092226Y0086715D01*
X0092057Y0086700D01*
X0091889Y0086682D01*
X0091722Y0086660D01*
X0091555Y0086633D01*
X0091388Y0086603D01*
X0091223Y0086568D01*
X0091058Y0086530D01*
X0090894Y0086487D01*
X0090731Y0086441D01*
X0090570Y0086390D01*
X0090410Y0086336D01*
X0090251Y0086278D01*
X0090093Y0086216D01*
X0089937Y0086151D01*
X0089783Y0086081D01*
X0089631Y0086008D01*
X0089480Y0085931D01*
X0089331Y0085851D01*
X0089184Y0085767D01*
X0089040Y0085679D01*
X0088897Y0085588D01*
X0088757Y0085494D01*
X0088619Y0085396D01*
X0088483Y0085295D01*
X0088350Y0085191D01*
X0088219Y0085083D01*
X0088091Y0084973D01*
X0087966Y0084859D01*
X0087843Y0084742D01*
X0087724Y0084623D01*
X0087607Y0084500D01*
X0087493Y0084375D01*
X0087383Y0084247D01*
X0087275Y0084116D01*
X0087171Y0083983D01*
X0087070Y0083847D01*
X0086972Y0083709D01*
X0086878Y0083569D01*
X0086787Y0083426D01*
X0086699Y0083282D01*
X0086615Y0083135D01*
X0086535Y0082986D01*
X0086458Y0082835D01*
X0086385Y0082683D01*
X0086315Y0082529D01*
X0086250Y0082373D01*
X0086188Y0082215D01*
X0086130Y0082056D01*
X0086076Y0081896D01*
X0086025Y0081735D01*
X0085979Y0081572D01*
X0085936Y0081408D01*
X0085898Y0081243D01*
X0085863Y0081078D01*
X0085833Y0080911D01*
X0085806Y0080744D01*
X0085784Y0080577D01*
X0085766Y0080409D01*
X0085751Y0080240D01*
X0085741Y0080071D01*
X0085735Y0079902D01*
X0085733Y0079733D01*
X0101233Y0067233D02*
X0120989Y0067233D01*
X0116233Y0062233D02*
X0131989Y0062233D01*
X0131989Y0052233D02*
X0131987Y0052093D01*
X0131981Y0051953D01*
X0131971Y0051813D01*
X0131958Y0051673D01*
X0131940Y0051534D01*
X0131918Y0051395D01*
X0131893Y0051258D01*
X0131864Y0051120D01*
X0131831Y0050984D01*
X0131794Y0050849D01*
X0131753Y0050715D01*
X0131708Y0050582D01*
X0131660Y0050450D01*
X0131608Y0050320D01*
X0131553Y0050191D01*
X0131494Y0050064D01*
X0131431Y0049938D01*
X0131365Y0049814D01*
X0131296Y0049693D01*
X0131223Y0049573D01*
X0131146Y0049455D01*
X0131067Y0049340D01*
X0130984Y0049226D01*
X0130898Y0049116D01*
X0130809Y0049007D01*
X0130717Y0048901D01*
X0130622Y0048798D01*
X0130525Y0048697D01*
X0130424Y0048600D01*
X0130321Y0048505D01*
X0130215Y0048413D01*
X0130106Y0048324D01*
X0129996Y0048238D01*
X0129882Y0048155D01*
X0129767Y0048076D01*
X0129649Y0047999D01*
X0129529Y0047926D01*
X0129408Y0047857D01*
X0129284Y0047791D01*
X0129158Y0047728D01*
X0129031Y0047669D01*
X0128902Y0047614D01*
X0128772Y0047562D01*
X0128640Y0047514D01*
X0128507Y0047469D01*
X0128373Y0047428D01*
X0128238Y0047391D01*
X0128102Y0047358D01*
X0127964Y0047329D01*
X0127827Y0047304D01*
X0127688Y0047282D01*
X0127549Y0047264D01*
X0127409Y0047251D01*
X0127269Y0047241D01*
X0127129Y0047235D01*
X0126989Y0047233D01*
X0111233Y0047233D01*
X0111189Y0047231D01*
X0111146Y0047225D01*
X0111104Y0047216D01*
X0111062Y0047203D01*
X0111022Y0047186D01*
X0110983Y0047166D01*
X0110946Y0047143D01*
X0110912Y0047116D01*
X0110879Y0047087D01*
X0110850Y0047054D01*
X0110823Y0047020D01*
X0110800Y0046983D01*
X0110780Y0046944D01*
X0110763Y0046904D01*
X0110750Y0046862D01*
X0110741Y0046820D01*
X0110735Y0046777D01*
X0110733Y0046733D01*
X0110733Y0056733D02*
X0110735Y0056777D01*
X0110741Y0056820D01*
X0110750Y0056862D01*
X0110763Y0056904D01*
X0110780Y0056944D01*
X0110800Y0056983D01*
X0110823Y0057020D01*
X0110850Y0057054D01*
X0110879Y0057087D01*
X0110912Y0057116D01*
X0110946Y0057143D01*
X0110983Y0057166D01*
X0111022Y0057186D01*
X0111062Y0057203D01*
X0111104Y0057216D01*
X0111146Y0057225D01*
X0111189Y0057231D01*
X0111233Y0057233D01*
X0111235Y0057373D01*
X0111241Y0057513D01*
X0111251Y0057653D01*
X0111264Y0057793D01*
X0111282Y0057932D01*
X0111304Y0058071D01*
X0111329Y0058208D01*
X0111358Y0058346D01*
X0111391Y0058482D01*
X0111428Y0058617D01*
X0111469Y0058751D01*
X0111514Y0058884D01*
X0111562Y0059016D01*
X0111614Y0059146D01*
X0111669Y0059275D01*
X0111728Y0059402D01*
X0111791Y0059528D01*
X0111857Y0059652D01*
X0111926Y0059773D01*
X0111999Y0059893D01*
X0112076Y0060011D01*
X0112155Y0060126D01*
X0112238Y0060240D01*
X0112324Y0060350D01*
X0112413Y0060459D01*
X0112505Y0060565D01*
X0112600Y0060668D01*
X0112697Y0060769D01*
X0112798Y0060866D01*
X0112901Y0060961D01*
X0113007Y0061053D01*
X0113116Y0061142D01*
X0113226Y0061228D01*
X0113340Y0061311D01*
X0113455Y0061390D01*
X0113573Y0061467D01*
X0113693Y0061540D01*
X0113814Y0061609D01*
X0113938Y0061675D01*
X0114064Y0061738D01*
X0114191Y0061797D01*
X0114320Y0061852D01*
X0114450Y0061904D01*
X0114582Y0061952D01*
X0114715Y0061997D01*
X0114849Y0062038D01*
X0114984Y0062075D01*
X0115120Y0062108D01*
X0115258Y0062137D01*
X0115395Y0062162D01*
X0115534Y0062184D01*
X0115673Y0062202D01*
X0115813Y0062215D01*
X0115953Y0062225D01*
X0116093Y0062231D01*
X0116233Y0062233D01*
X0120989Y0067233D02*
X0121345Y0067237D01*
X0121701Y0067250D01*
X0122056Y0067272D01*
X0122410Y0067302D01*
X0122764Y0067341D01*
X0123117Y0067389D01*
X0123468Y0067445D01*
X0123818Y0067510D01*
X0124167Y0067583D01*
X0124513Y0067665D01*
X0124857Y0067755D01*
X0125199Y0067853D01*
X0125539Y0067960D01*
X0125876Y0068075D01*
X0126210Y0068198D01*
X0126541Y0068330D01*
X0126868Y0068469D01*
X0127192Y0068616D01*
X0127512Y0068771D01*
X0127829Y0068934D01*
X0128141Y0069105D01*
X0128449Y0069283D01*
X0128753Y0069469D01*
X0129052Y0069662D01*
X0129346Y0069862D01*
X0129636Y0070069D01*
X0129920Y0070283D01*
X0130199Y0070504D01*
X0130472Y0070732D01*
X0130740Y0070967D01*
X0131002Y0071208D01*
X0131258Y0071455D01*
X0131508Y0071708D01*
X0131752Y0071968D01*
X0131989Y0072233D01*
X0131989Y0092233D02*
X0131813Y0092429D01*
X0131633Y0092620D01*
X0131448Y0092806D01*
X0131258Y0092988D01*
X0131065Y0093166D01*
X0130866Y0093338D01*
X0130664Y0093506D01*
X0130458Y0093669D01*
X0130248Y0093827D01*
X0130034Y0093979D01*
X0129816Y0094127D01*
X0129595Y0094269D01*
X0129371Y0094405D01*
X0129143Y0094536D01*
X0128912Y0094662D01*
X0128678Y0094782D01*
X0128442Y0094896D01*
X0128202Y0095004D01*
X0127960Y0095107D01*
X0127716Y0095204D01*
X0127469Y0095294D01*
X0127221Y0095379D01*
X0126970Y0095458D01*
X0126717Y0095530D01*
X0126463Y0095596D01*
X0126207Y0095656D01*
X0125950Y0095710D01*
X0125692Y0095758D01*
X0125432Y0095799D01*
X0125172Y0095834D01*
X0124910Y0095863D01*
X0124649Y0095885D01*
X0124386Y0095901D01*
X0124124Y0095911D01*
X0123861Y0095914D01*
X0123598Y0095911D01*
X0123336Y0095901D01*
X0123073Y0095885D01*
X0122812Y0095863D01*
X0122550Y0095834D01*
X0122290Y0095799D01*
X0122030Y0095758D01*
X0121772Y0095710D01*
X0121515Y0095656D01*
X0121259Y0095596D01*
X0121005Y0095530D01*
X0120752Y0095458D01*
X0120501Y0095379D01*
X0120253Y0095294D01*
X0120006Y0095204D01*
X0119762Y0095107D01*
X0119520Y0095004D01*
X0119280Y0094896D01*
X0119044Y0094782D01*
X0118810Y0094662D01*
X0118579Y0094536D01*
X0118351Y0094405D01*
X0118127Y0094269D01*
X0117906Y0094127D01*
X0117688Y0093979D01*
X0117474Y0093827D01*
X0117264Y0093669D01*
X0117058Y0093506D01*
X0116856Y0093338D01*
X0116657Y0093166D01*
X0116464Y0092988D01*
X0116274Y0092806D01*
X0116089Y0092620D01*
X0115909Y0092429D01*
X0115733Y0092233D01*
X0142233Y0115733D02*
X0142231Y0115893D01*
X0142225Y0116052D01*
X0142215Y0116211D01*
X0142202Y0116370D01*
X0142184Y0116529D01*
X0142163Y0116687D01*
X0142137Y0116844D01*
X0142108Y0117001D01*
X0142075Y0117157D01*
X0142038Y0117312D01*
X0141998Y0117467D01*
X0141953Y0117620D01*
X0141905Y0117772D01*
X0141853Y0117923D01*
X0141797Y0118072D01*
X0141738Y0118220D01*
X0141675Y0118367D01*
X0141609Y0118512D01*
X0141539Y0118655D01*
X0141465Y0118797D01*
X0141389Y0118937D01*
X0141308Y0119075D01*
X0141225Y0119210D01*
X0141138Y0119344D01*
X0141047Y0119476D01*
X0140954Y0119605D01*
X0140857Y0119732D01*
X0140758Y0119857D01*
X0140655Y0119979D01*
X0140549Y0120098D01*
X0140441Y0120215D01*
X0140329Y0120329D01*
X0140215Y0120441D01*
X0140098Y0120549D01*
X0139979Y0120655D01*
X0139857Y0120758D01*
X0139732Y0120857D01*
X0139605Y0120954D01*
X0139476Y0121047D01*
X0139344Y0121138D01*
X0139210Y0121225D01*
X0139075Y0121308D01*
X0138937Y0121389D01*
X0138797Y0121465D01*
X0138655Y0121539D01*
X0138512Y0121609D01*
X0138367Y0121675D01*
X0138220Y0121738D01*
X0138072Y0121797D01*
X0137923Y0121853D01*
X0137772Y0121905D01*
X0137620Y0121953D01*
X0137467Y0121998D01*
X0137312Y0122038D01*
X0137157Y0122075D01*
X0137001Y0122108D01*
X0136844Y0122137D01*
X0136687Y0122163D01*
X0136529Y0122184D01*
X0136370Y0122202D01*
X0136211Y0122215D01*
X0136052Y0122225D01*
X0135893Y0122231D01*
X0135733Y0122233D01*
X0131989Y0162233D02*
X0123863Y0162233D01*
X0105733Y0087233D02*
X0102487Y0087014D01*
X0099238Y0086858D01*
X0095986Y0086764D01*
X0092733Y0086733D01*
M02*
