%
M48
M72
T01C0.03937
T02C0.04000
%
T01
X235855Y56091
X226800Y56091
X217745Y56091
X203178Y86800
X217745Y121091
X226800Y121091
X235855Y121091
X250422Y151800
X203178Y151800
X175422Y151800
X160855Y121091
X151800Y121091
X142745Y121091
X128178Y151800
X100422Y151800
X85855Y121091
X76800Y121091
X67745Y121091
X53178Y151800
X250422Y86800
T02
X151800Y56800
X141800Y56800
X131800Y56800
X121800Y56800
X111800Y56800
X101800Y56800
M30
