G75*
%MOIN*%
%OFA0B0*%
%FSLAX25Y25*%
%IPPOS*%
%LPD*%
%AMOC8*
5,1,8,0,0,1.08239X$1,22.5*
%
%ADD10C,0.01600*%
%ADD11C,0.07800*%
%ADD12R,0.06337X0.06337*%
%ADD13C,0.00000*%
%ADD14C,0.04337*%
D10*
X0051800Y0036800D02*
X0251800Y0036800D01*
X0252042Y0036803D01*
X0252283Y0036812D01*
X0252524Y0036826D01*
X0252765Y0036847D01*
X0253005Y0036873D01*
X0253245Y0036905D01*
X0253484Y0036943D01*
X0253721Y0036986D01*
X0253958Y0037036D01*
X0254193Y0037091D01*
X0254427Y0037151D01*
X0254659Y0037218D01*
X0254890Y0037289D01*
X0255119Y0037367D01*
X0255346Y0037450D01*
X0255571Y0037538D01*
X0255794Y0037632D01*
X0256014Y0037731D01*
X0256232Y0037836D01*
X0256447Y0037945D01*
X0256660Y0038060D01*
X0256870Y0038180D01*
X0257076Y0038305D01*
X0257280Y0038435D01*
X0257481Y0038570D01*
X0257678Y0038710D01*
X0257872Y0038854D01*
X0258062Y0039003D01*
X0258248Y0039157D01*
X0258431Y0039315D01*
X0258610Y0039477D01*
X0258785Y0039644D01*
X0258956Y0039815D01*
X0259123Y0039990D01*
X0259285Y0040169D01*
X0259443Y0040352D01*
X0259597Y0040538D01*
X0259746Y0040728D01*
X0259890Y0040922D01*
X0260030Y0041119D01*
X0260165Y0041320D01*
X0260295Y0041524D01*
X0260420Y0041730D01*
X0260540Y0041940D01*
X0260655Y0042153D01*
X0260764Y0042368D01*
X0260869Y0042586D01*
X0260968Y0042806D01*
X0261062Y0043029D01*
X0261150Y0043254D01*
X0261233Y0043481D01*
X0261311Y0043710D01*
X0261382Y0043941D01*
X0261449Y0044173D01*
X0261509Y0044407D01*
X0261564Y0044642D01*
X0261614Y0044879D01*
X0261657Y0045116D01*
X0261695Y0045355D01*
X0261727Y0045595D01*
X0261753Y0045835D01*
X0261774Y0046076D01*
X0261788Y0046317D01*
X0261797Y0046558D01*
X0261800Y0046800D01*
X0261800Y0166800D01*
X0261797Y0167042D01*
X0261788Y0167283D01*
X0261774Y0167524D01*
X0261753Y0167765D01*
X0261727Y0168005D01*
X0261695Y0168245D01*
X0261657Y0168484D01*
X0261614Y0168721D01*
X0261564Y0168958D01*
X0261509Y0169193D01*
X0261449Y0169427D01*
X0261382Y0169659D01*
X0261311Y0169890D01*
X0261233Y0170119D01*
X0261150Y0170346D01*
X0261062Y0170571D01*
X0260968Y0170794D01*
X0260869Y0171014D01*
X0260764Y0171232D01*
X0260655Y0171447D01*
X0260540Y0171660D01*
X0260420Y0171870D01*
X0260295Y0172076D01*
X0260165Y0172280D01*
X0260030Y0172481D01*
X0259890Y0172678D01*
X0259746Y0172872D01*
X0259597Y0173062D01*
X0259443Y0173248D01*
X0259285Y0173431D01*
X0259123Y0173610D01*
X0258956Y0173785D01*
X0258785Y0173956D01*
X0258610Y0174123D01*
X0258431Y0174285D01*
X0258248Y0174443D01*
X0258062Y0174597D01*
X0257872Y0174746D01*
X0257678Y0174890D01*
X0257481Y0175030D01*
X0257280Y0175165D01*
X0257076Y0175295D01*
X0256870Y0175420D01*
X0256660Y0175540D01*
X0256447Y0175655D01*
X0256232Y0175764D01*
X0256014Y0175869D01*
X0255794Y0175968D01*
X0255571Y0176062D01*
X0255346Y0176150D01*
X0255119Y0176233D01*
X0254890Y0176311D01*
X0254659Y0176382D01*
X0254427Y0176449D01*
X0254193Y0176509D01*
X0253958Y0176564D01*
X0253721Y0176614D01*
X0253484Y0176657D01*
X0253245Y0176695D01*
X0253005Y0176727D01*
X0252765Y0176753D01*
X0252524Y0176774D01*
X0252283Y0176788D01*
X0252042Y0176797D01*
X0251800Y0176800D01*
X0051800Y0176800D01*
X0051558Y0176797D01*
X0051317Y0176788D01*
X0051076Y0176774D01*
X0050835Y0176753D01*
X0050595Y0176727D01*
X0050355Y0176695D01*
X0050116Y0176657D01*
X0049879Y0176614D01*
X0049642Y0176564D01*
X0049407Y0176509D01*
X0049173Y0176449D01*
X0048941Y0176382D01*
X0048710Y0176311D01*
X0048481Y0176233D01*
X0048254Y0176150D01*
X0048029Y0176062D01*
X0047806Y0175968D01*
X0047586Y0175869D01*
X0047368Y0175764D01*
X0047153Y0175655D01*
X0046940Y0175540D01*
X0046730Y0175420D01*
X0046524Y0175295D01*
X0046320Y0175165D01*
X0046119Y0175030D01*
X0045922Y0174890D01*
X0045728Y0174746D01*
X0045538Y0174597D01*
X0045352Y0174443D01*
X0045169Y0174285D01*
X0044990Y0174123D01*
X0044815Y0173956D01*
X0044644Y0173785D01*
X0044477Y0173610D01*
X0044315Y0173431D01*
X0044157Y0173248D01*
X0044003Y0173062D01*
X0043854Y0172872D01*
X0043710Y0172678D01*
X0043570Y0172481D01*
X0043435Y0172280D01*
X0043305Y0172076D01*
X0043180Y0171870D01*
X0043060Y0171660D01*
X0042945Y0171447D01*
X0042836Y0171232D01*
X0042731Y0171014D01*
X0042632Y0170794D01*
X0042538Y0170571D01*
X0042450Y0170346D01*
X0042367Y0170119D01*
X0042289Y0169890D01*
X0042218Y0169659D01*
X0042151Y0169427D01*
X0042091Y0169193D01*
X0042036Y0168958D01*
X0041986Y0168721D01*
X0041943Y0168484D01*
X0041905Y0168245D01*
X0041873Y0168005D01*
X0041847Y0167765D01*
X0041826Y0167524D01*
X0041812Y0167283D01*
X0041803Y0167042D01*
X0041800Y0166800D01*
X0041800Y0046800D01*
X0041803Y0046558D01*
X0041812Y0046317D01*
X0041826Y0046076D01*
X0041847Y0045835D01*
X0041873Y0045595D01*
X0041905Y0045355D01*
X0041943Y0045116D01*
X0041986Y0044879D01*
X0042036Y0044642D01*
X0042091Y0044407D01*
X0042151Y0044173D01*
X0042218Y0043941D01*
X0042289Y0043710D01*
X0042367Y0043481D01*
X0042450Y0043254D01*
X0042538Y0043029D01*
X0042632Y0042806D01*
X0042731Y0042586D01*
X0042836Y0042368D01*
X0042945Y0042153D01*
X0043060Y0041940D01*
X0043180Y0041730D01*
X0043305Y0041524D01*
X0043435Y0041320D01*
X0043570Y0041119D01*
X0043710Y0040922D01*
X0043854Y0040728D01*
X0044003Y0040538D01*
X0044157Y0040352D01*
X0044315Y0040169D01*
X0044477Y0039990D01*
X0044644Y0039815D01*
X0044815Y0039644D01*
X0044990Y0039477D01*
X0045169Y0039315D01*
X0045352Y0039157D01*
X0045538Y0039003D01*
X0045728Y0038854D01*
X0045922Y0038710D01*
X0046119Y0038570D01*
X0046320Y0038435D01*
X0046524Y0038305D01*
X0046730Y0038180D01*
X0046940Y0038060D01*
X0047153Y0037945D01*
X0047368Y0037836D01*
X0047586Y0037731D01*
X0047806Y0037632D01*
X0048029Y0037538D01*
X0048254Y0037450D01*
X0048481Y0037367D01*
X0048710Y0037289D01*
X0048941Y0037218D01*
X0049173Y0037151D01*
X0049407Y0037091D01*
X0049642Y0037036D01*
X0049879Y0036986D01*
X0050116Y0036943D01*
X0050355Y0036905D01*
X0050595Y0036873D01*
X0050835Y0036847D01*
X0051076Y0036826D01*
X0051317Y0036812D01*
X0051558Y0036803D01*
X0051800Y0036800D01*
D11*
X0101800Y0056800D03*
X0111800Y0056800D03*
X0121800Y0056800D03*
X0131800Y0056800D03*
X0141800Y0056800D03*
X0151800Y0056800D03*
D12*
X0217745Y0056091D03*
X0226800Y0056091D03*
X0235855Y0056091D03*
X0235855Y0121091D03*
X0226800Y0121091D03*
X0217745Y0121091D03*
X0160855Y0121091D03*
X0151800Y0121091D03*
X0142745Y0121091D03*
X0085855Y0121091D03*
X0076800Y0121091D03*
X0067745Y0121091D03*
D13*
X0051209Y0151800D02*
X0051211Y0151888D01*
X0051217Y0151976D01*
X0051227Y0152064D01*
X0051241Y0152152D01*
X0051258Y0152238D01*
X0051280Y0152324D01*
X0051305Y0152408D01*
X0051335Y0152492D01*
X0051367Y0152574D01*
X0051404Y0152654D01*
X0051444Y0152733D01*
X0051488Y0152810D01*
X0051535Y0152885D01*
X0051585Y0152957D01*
X0051639Y0153028D01*
X0051695Y0153095D01*
X0051755Y0153161D01*
X0051817Y0153223D01*
X0051883Y0153283D01*
X0051950Y0153339D01*
X0052021Y0153393D01*
X0052093Y0153443D01*
X0052168Y0153490D01*
X0052245Y0153534D01*
X0052324Y0153574D01*
X0052404Y0153611D01*
X0052486Y0153643D01*
X0052570Y0153673D01*
X0052654Y0153698D01*
X0052740Y0153720D01*
X0052826Y0153737D01*
X0052914Y0153751D01*
X0053002Y0153761D01*
X0053090Y0153767D01*
X0053178Y0153769D01*
X0053266Y0153767D01*
X0053354Y0153761D01*
X0053442Y0153751D01*
X0053530Y0153737D01*
X0053616Y0153720D01*
X0053702Y0153698D01*
X0053786Y0153673D01*
X0053870Y0153643D01*
X0053952Y0153611D01*
X0054032Y0153574D01*
X0054111Y0153534D01*
X0054188Y0153490D01*
X0054263Y0153443D01*
X0054335Y0153393D01*
X0054406Y0153339D01*
X0054473Y0153283D01*
X0054539Y0153223D01*
X0054601Y0153161D01*
X0054661Y0153095D01*
X0054717Y0153028D01*
X0054771Y0152957D01*
X0054821Y0152885D01*
X0054868Y0152810D01*
X0054912Y0152733D01*
X0054952Y0152654D01*
X0054989Y0152574D01*
X0055021Y0152492D01*
X0055051Y0152408D01*
X0055076Y0152324D01*
X0055098Y0152238D01*
X0055115Y0152152D01*
X0055129Y0152064D01*
X0055139Y0151976D01*
X0055145Y0151888D01*
X0055147Y0151800D01*
X0055145Y0151712D01*
X0055139Y0151624D01*
X0055129Y0151536D01*
X0055115Y0151448D01*
X0055098Y0151362D01*
X0055076Y0151276D01*
X0055051Y0151192D01*
X0055021Y0151108D01*
X0054989Y0151026D01*
X0054952Y0150946D01*
X0054912Y0150867D01*
X0054868Y0150790D01*
X0054821Y0150715D01*
X0054771Y0150643D01*
X0054717Y0150572D01*
X0054661Y0150505D01*
X0054601Y0150439D01*
X0054539Y0150377D01*
X0054473Y0150317D01*
X0054406Y0150261D01*
X0054335Y0150207D01*
X0054263Y0150157D01*
X0054188Y0150110D01*
X0054111Y0150066D01*
X0054032Y0150026D01*
X0053952Y0149989D01*
X0053870Y0149957D01*
X0053786Y0149927D01*
X0053702Y0149902D01*
X0053616Y0149880D01*
X0053530Y0149863D01*
X0053442Y0149849D01*
X0053354Y0149839D01*
X0053266Y0149833D01*
X0053178Y0149831D01*
X0053090Y0149833D01*
X0053002Y0149839D01*
X0052914Y0149849D01*
X0052826Y0149863D01*
X0052740Y0149880D01*
X0052654Y0149902D01*
X0052570Y0149927D01*
X0052486Y0149957D01*
X0052404Y0149989D01*
X0052324Y0150026D01*
X0052245Y0150066D01*
X0052168Y0150110D01*
X0052093Y0150157D01*
X0052021Y0150207D01*
X0051950Y0150261D01*
X0051883Y0150317D01*
X0051817Y0150377D01*
X0051755Y0150439D01*
X0051695Y0150505D01*
X0051639Y0150572D01*
X0051585Y0150643D01*
X0051535Y0150715D01*
X0051488Y0150790D01*
X0051444Y0150867D01*
X0051404Y0150946D01*
X0051367Y0151026D01*
X0051335Y0151108D01*
X0051305Y0151192D01*
X0051280Y0151276D01*
X0051258Y0151362D01*
X0051241Y0151448D01*
X0051227Y0151536D01*
X0051217Y0151624D01*
X0051211Y0151712D01*
X0051209Y0151800D01*
X0098453Y0151800D02*
X0098455Y0151888D01*
X0098461Y0151976D01*
X0098471Y0152064D01*
X0098485Y0152152D01*
X0098502Y0152238D01*
X0098524Y0152324D01*
X0098549Y0152408D01*
X0098579Y0152492D01*
X0098611Y0152574D01*
X0098648Y0152654D01*
X0098688Y0152733D01*
X0098732Y0152810D01*
X0098779Y0152885D01*
X0098829Y0152957D01*
X0098883Y0153028D01*
X0098939Y0153095D01*
X0098999Y0153161D01*
X0099061Y0153223D01*
X0099127Y0153283D01*
X0099194Y0153339D01*
X0099265Y0153393D01*
X0099337Y0153443D01*
X0099412Y0153490D01*
X0099489Y0153534D01*
X0099568Y0153574D01*
X0099648Y0153611D01*
X0099730Y0153643D01*
X0099814Y0153673D01*
X0099898Y0153698D01*
X0099984Y0153720D01*
X0100070Y0153737D01*
X0100158Y0153751D01*
X0100246Y0153761D01*
X0100334Y0153767D01*
X0100422Y0153769D01*
X0100510Y0153767D01*
X0100598Y0153761D01*
X0100686Y0153751D01*
X0100774Y0153737D01*
X0100860Y0153720D01*
X0100946Y0153698D01*
X0101030Y0153673D01*
X0101114Y0153643D01*
X0101196Y0153611D01*
X0101276Y0153574D01*
X0101355Y0153534D01*
X0101432Y0153490D01*
X0101507Y0153443D01*
X0101579Y0153393D01*
X0101650Y0153339D01*
X0101717Y0153283D01*
X0101783Y0153223D01*
X0101845Y0153161D01*
X0101905Y0153095D01*
X0101961Y0153028D01*
X0102015Y0152957D01*
X0102065Y0152885D01*
X0102112Y0152810D01*
X0102156Y0152733D01*
X0102196Y0152654D01*
X0102233Y0152574D01*
X0102265Y0152492D01*
X0102295Y0152408D01*
X0102320Y0152324D01*
X0102342Y0152238D01*
X0102359Y0152152D01*
X0102373Y0152064D01*
X0102383Y0151976D01*
X0102389Y0151888D01*
X0102391Y0151800D01*
X0102389Y0151712D01*
X0102383Y0151624D01*
X0102373Y0151536D01*
X0102359Y0151448D01*
X0102342Y0151362D01*
X0102320Y0151276D01*
X0102295Y0151192D01*
X0102265Y0151108D01*
X0102233Y0151026D01*
X0102196Y0150946D01*
X0102156Y0150867D01*
X0102112Y0150790D01*
X0102065Y0150715D01*
X0102015Y0150643D01*
X0101961Y0150572D01*
X0101905Y0150505D01*
X0101845Y0150439D01*
X0101783Y0150377D01*
X0101717Y0150317D01*
X0101650Y0150261D01*
X0101579Y0150207D01*
X0101507Y0150157D01*
X0101432Y0150110D01*
X0101355Y0150066D01*
X0101276Y0150026D01*
X0101196Y0149989D01*
X0101114Y0149957D01*
X0101030Y0149927D01*
X0100946Y0149902D01*
X0100860Y0149880D01*
X0100774Y0149863D01*
X0100686Y0149849D01*
X0100598Y0149839D01*
X0100510Y0149833D01*
X0100422Y0149831D01*
X0100334Y0149833D01*
X0100246Y0149839D01*
X0100158Y0149849D01*
X0100070Y0149863D01*
X0099984Y0149880D01*
X0099898Y0149902D01*
X0099814Y0149927D01*
X0099730Y0149957D01*
X0099648Y0149989D01*
X0099568Y0150026D01*
X0099489Y0150066D01*
X0099412Y0150110D01*
X0099337Y0150157D01*
X0099265Y0150207D01*
X0099194Y0150261D01*
X0099127Y0150317D01*
X0099061Y0150377D01*
X0098999Y0150439D01*
X0098939Y0150505D01*
X0098883Y0150572D01*
X0098829Y0150643D01*
X0098779Y0150715D01*
X0098732Y0150790D01*
X0098688Y0150867D01*
X0098648Y0150946D01*
X0098611Y0151026D01*
X0098579Y0151108D01*
X0098549Y0151192D01*
X0098524Y0151276D01*
X0098502Y0151362D01*
X0098485Y0151448D01*
X0098471Y0151536D01*
X0098461Y0151624D01*
X0098455Y0151712D01*
X0098453Y0151800D01*
X0126209Y0151800D02*
X0126211Y0151888D01*
X0126217Y0151976D01*
X0126227Y0152064D01*
X0126241Y0152152D01*
X0126258Y0152238D01*
X0126280Y0152324D01*
X0126305Y0152408D01*
X0126335Y0152492D01*
X0126367Y0152574D01*
X0126404Y0152654D01*
X0126444Y0152733D01*
X0126488Y0152810D01*
X0126535Y0152885D01*
X0126585Y0152957D01*
X0126639Y0153028D01*
X0126695Y0153095D01*
X0126755Y0153161D01*
X0126817Y0153223D01*
X0126883Y0153283D01*
X0126950Y0153339D01*
X0127021Y0153393D01*
X0127093Y0153443D01*
X0127168Y0153490D01*
X0127245Y0153534D01*
X0127324Y0153574D01*
X0127404Y0153611D01*
X0127486Y0153643D01*
X0127570Y0153673D01*
X0127654Y0153698D01*
X0127740Y0153720D01*
X0127826Y0153737D01*
X0127914Y0153751D01*
X0128002Y0153761D01*
X0128090Y0153767D01*
X0128178Y0153769D01*
X0128266Y0153767D01*
X0128354Y0153761D01*
X0128442Y0153751D01*
X0128530Y0153737D01*
X0128616Y0153720D01*
X0128702Y0153698D01*
X0128786Y0153673D01*
X0128870Y0153643D01*
X0128952Y0153611D01*
X0129032Y0153574D01*
X0129111Y0153534D01*
X0129188Y0153490D01*
X0129263Y0153443D01*
X0129335Y0153393D01*
X0129406Y0153339D01*
X0129473Y0153283D01*
X0129539Y0153223D01*
X0129601Y0153161D01*
X0129661Y0153095D01*
X0129717Y0153028D01*
X0129771Y0152957D01*
X0129821Y0152885D01*
X0129868Y0152810D01*
X0129912Y0152733D01*
X0129952Y0152654D01*
X0129989Y0152574D01*
X0130021Y0152492D01*
X0130051Y0152408D01*
X0130076Y0152324D01*
X0130098Y0152238D01*
X0130115Y0152152D01*
X0130129Y0152064D01*
X0130139Y0151976D01*
X0130145Y0151888D01*
X0130147Y0151800D01*
X0130145Y0151712D01*
X0130139Y0151624D01*
X0130129Y0151536D01*
X0130115Y0151448D01*
X0130098Y0151362D01*
X0130076Y0151276D01*
X0130051Y0151192D01*
X0130021Y0151108D01*
X0129989Y0151026D01*
X0129952Y0150946D01*
X0129912Y0150867D01*
X0129868Y0150790D01*
X0129821Y0150715D01*
X0129771Y0150643D01*
X0129717Y0150572D01*
X0129661Y0150505D01*
X0129601Y0150439D01*
X0129539Y0150377D01*
X0129473Y0150317D01*
X0129406Y0150261D01*
X0129335Y0150207D01*
X0129263Y0150157D01*
X0129188Y0150110D01*
X0129111Y0150066D01*
X0129032Y0150026D01*
X0128952Y0149989D01*
X0128870Y0149957D01*
X0128786Y0149927D01*
X0128702Y0149902D01*
X0128616Y0149880D01*
X0128530Y0149863D01*
X0128442Y0149849D01*
X0128354Y0149839D01*
X0128266Y0149833D01*
X0128178Y0149831D01*
X0128090Y0149833D01*
X0128002Y0149839D01*
X0127914Y0149849D01*
X0127826Y0149863D01*
X0127740Y0149880D01*
X0127654Y0149902D01*
X0127570Y0149927D01*
X0127486Y0149957D01*
X0127404Y0149989D01*
X0127324Y0150026D01*
X0127245Y0150066D01*
X0127168Y0150110D01*
X0127093Y0150157D01*
X0127021Y0150207D01*
X0126950Y0150261D01*
X0126883Y0150317D01*
X0126817Y0150377D01*
X0126755Y0150439D01*
X0126695Y0150505D01*
X0126639Y0150572D01*
X0126585Y0150643D01*
X0126535Y0150715D01*
X0126488Y0150790D01*
X0126444Y0150867D01*
X0126404Y0150946D01*
X0126367Y0151026D01*
X0126335Y0151108D01*
X0126305Y0151192D01*
X0126280Y0151276D01*
X0126258Y0151362D01*
X0126241Y0151448D01*
X0126227Y0151536D01*
X0126217Y0151624D01*
X0126211Y0151712D01*
X0126209Y0151800D01*
X0173453Y0151800D02*
X0173455Y0151888D01*
X0173461Y0151976D01*
X0173471Y0152064D01*
X0173485Y0152152D01*
X0173502Y0152238D01*
X0173524Y0152324D01*
X0173549Y0152408D01*
X0173579Y0152492D01*
X0173611Y0152574D01*
X0173648Y0152654D01*
X0173688Y0152733D01*
X0173732Y0152810D01*
X0173779Y0152885D01*
X0173829Y0152957D01*
X0173883Y0153028D01*
X0173939Y0153095D01*
X0173999Y0153161D01*
X0174061Y0153223D01*
X0174127Y0153283D01*
X0174194Y0153339D01*
X0174265Y0153393D01*
X0174337Y0153443D01*
X0174412Y0153490D01*
X0174489Y0153534D01*
X0174568Y0153574D01*
X0174648Y0153611D01*
X0174730Y0153643D01*
X0174814Y0153673D01*
X0174898Y0153698D01*
X0174984Y0153720D01*
X0175070Y0153737D01*
X0175158Y0153751D01*
X0175246Y0153761D01*
X0175334Y0153767D01*
X0175422Y0153769D01*
X0175510Y0153767D01*
X0175598Y0153761D01*
X0175686Y0153751D01*
X0175774Y0153737D01*
X0175860Y0153720D01*
X0175946Y0153698D01*
X0176030Y0153673D01*
X0176114Y0153643D01*
X0176196Y0153611D01*
X0176276Y0153574D01*
X0176355Y0153534D01*
X0176432Y0153490D01*
X0176507Y0153443D01*
X0176579Y0153393D01*
X0176650Y0153339D01*
X0176717Y0153283D01*
X0176783Y0153223D01*
X0176845Y0153161D01*
X0176905Y0153095D01*
X0176961Y0153028D01*
X0177015Y0152957D01*
X0177065Y0152885D01*
X0177112Y0152810D01*
X0177156Y0152733D01*
X0177196Y0152654D01*
X0177233Y0152574D01*
X0177265Y0152492D01*
X0177295Y0152408D01*
X0177320Y0152324D01*
X0177342Y0152238D01*
X0177359Y0152152D01*
X0177373Y0152064D01*
X0177383Y0151976D01*
X0177389Y0151888D01*
X0177391Y0151800D01*
X0177389Y0151712D01*
X0177383Y0151624D01*
X0177373Y0151536D01*
X0177359Y0151448D01*
X0177342Y0151362D01*
X0177320Y0151276D01*
X0177295Y0151192D01*
X0177265Y0151108D01*
X0177233Y0151026D01*
X0177196Y0150946D01*
X0177156Y0150867D01*
X0177112Y0150790D01*
X0177065Y0150715D01*
X0177015Y0150643D01*
X0176961Y0150572D01*
X0176905Y0150505D01*
X0176845Y0150439D01*
X0176783Y0150377D01*
X0176717Y0150317D01*
X0176650Y0150261D01*
X0176579Y0150207D01*
X0176507Y0150157D01*
X0176432Y0150110D01*
X0176355Y0150066D01*
X0176276Y0150026D01*
X0176196Y0149989D01*
X0176114Y0149957D01*
X0176030Y0149927D01*
X0175946Y0149902D01*
X0175860Y0149880D01*
X0175774Y0149863D01*
X0175686Y0149849D01*
X0175598Y0149839D01*
X0175510Y0149833D01*
X0175422Y0149831D01*
X0175334Y0149833D01*
X0175246Y0149839D01*
X0175158Y0149849D01*
X0175070Y0149863D01*
X0174984Y0149880D01*
X0174898Y0149902D01*
X0174814Y0149927D01*
X0174730Y0149957D01*
X0174648Y0149989D01*
X0174568Y0150026D01*
X0174489Y0150066D01*
X0174412Y0150110D01*
X0174337Y0150157D01*
X0174265Y0150207D01*
X0174194Y0150261D01*
X0174127Y0150317D01*
X0174061Y0150377D01*
X0173999Y0150439D01*
X0173939Y0150505D01*
X0173883Y0150572D01*
X0173829Y0150643D01*
X0173779Y0150715D01*
X0173732Y0150790D01*
X0173688Y0150867D01*
X0173648Y0150946D01*
X0173611Y0151026D01*
X0173579Y0151108D01*
X0173549Y0151192D01*
X0173524Y0151276D01*
X0173502Y0151362D01*
X0173485Y0151448D01*
X0173471Y0151536D01*
X0173461Y0151624D01*
X0173455Y0151712D01*
X0173453Y0151800D01*
X0201209Y0151800D02*
X0201211Y0151888D01*
X0201217Y0151976D01*
X0201227Y0152064D01*
X0201241Y0152152D01*
X0201258Y0152238D01*
X0201280Y0152324D01*
X0201305Y0152408D01*
X0201335Y0152492D01*
X0201367Y0152574D01*
X0201404Y0152654D01*
X0201444Y0152733D01*
X0201488Y0152810D01*
X0201535Y0152885D01*
X0201585Y0152957D01*
X0201639Y0153028D01*
X0201695Y0153095D01*
X0201755Y0153161D01*
X0201817Y0153223D01*
X0201883Y0153283D01*
X0201950Y0153339D01*
X0202021Y0153393D01*
X0202093Y0153443D01*
X0202168Y0153490D01*
X0202245Y0153534D01*
X0202324Y0153574D01*
X0202404Y0153611D01*
X0202486Y0153643D01*
X0202570Y0153673D01*
X0202654Y0153698D01*
X0202740Y0153720D01*
X0202826Y0153737D01*
X0202914Y0153751D01*
X0203002Y0153761D01*
X0203090Y0153767D01*
X0203178Y0153769D01*
X0203266Y0153767D01*
X0203354Y0153761D01*
X0203442Y0153751D01*
X0203530Y0153737D01*
X0203616Y0153720D01*
X0203702Y0153698D01*
X0203786Y0153673D01*
X0203870Y0153643D01*
X0203952Y0153611D01*
X0204032Y0153574D01*
X0204111Y0153534D01*
X0204188Y0153490D01*
X0204263Y0153443D01*
X0204335Y0153393D01*
X0204406Y0153339D01*
X0204473Y0153283D01*
X0204539Y0153223D01*
X0204601Y0153161D01*
X0204661Y0153095D01*
X0204717Y0153028D01*
X0204771Y0152957D01*
X0204821Y0152885D01*
X0204868Y0152810D01*
X0204912Y0152733D01*
X0204952Y0152654D01*
X0204989Y0152574D01*
X0205021Y0152492D01*
X0205051Y0152408D01*
X0205076Y0152324D01*
X0205098Y0152238D01*
X0205115Y0152152D01*
X0205129Y0152064D01*
X0205139Y0151976D01*
X0205145Y0151888D01*
X0205147Y0151800D01*
X0205145Y0151712D01*
X0205139Y0151624D01*
X0205129Y0151536D01*
X0205115Y0151448D01*
X0205098Y0151362D01*
X0205076Y0151276D01*
X0205051Y0151192D01*
X0205021Y0151108D01*
X0204989Y0151026D01*
X0204952Y0150946D01*
X0204912Y0150867D01*
X0204868Y0150790D01*
X0204821Y0150715D01*
X0204771Y0150643D01*
X0204717Y0150572D01*
X0204661Y0150505D01*
X0204601Y0150439D01*
X0204539Y0150377D01*
X0204473Y0150317D01*
X0204406Y0150261D01*
X0204335Y0150207D01*
X0204263Y0150157D01*
X0204188Y0150110D01*
X0204111Y0150066D01*
X0204032Y0150026D01*
X0203952Y0149989D01*
X0203870Y0149957D01*
X0203786Y0149927D01*
X0203702Y0149902D01*
X0203616Y0149880D01*
X0203530Y0149863D01*
X0203442Y0149849D01*
X0203354Y0149839D01*
X0203266Y0149833D01*
X0203178Y0149831D01*
X0203090Y0149833D01*
X0203002Y0149839D01*
X0202914Y0149849D01*
X0202826Y0149863D01*
X0202740Y0149880D01*
X0202654Y0149902D01*
X0202570Y0149927D01*
X0202486Y0149957D01*
X0202404Y0149989D01*
X0202324Y0150026D01*
X0202245Y0150066D01*
X0202168Y0150110D01*
X0202093Y0150157D01*
X0202021Y0150207D01*
X0201950Y0150261D01*
X0201883Y0150317D01*
X0201817Y0150377D01*
X0201755Y0150439D01*
X0201695Y0150505D01*
X0201639Y0150572D01*
X0201585Y0150643D01*
X0201535Y0150715D01*
X0201488Y0150790D01*
X0201444Y0150867D01*
X0201404Y0150946D01*
X0201367Y0151026D01*
X0201335Y0151108D01*
X0201305Y0151192D01*
X0201280Y0151276D01*
X0201258Y0151362D01*
X0201241Y0151448D01*
X0201227Y0151536D01*
X0201217Y0151624D01*
X0201211Y0151712D01*
X0201209Y0151800D01*
X0248453Y0151800D02*
X0248455Y0151888D01*
X0248461Y0151976D01*
X0248471Y0152064D01*
X0248485Y0152152D01*
X0248502Y0152238D01*
X0248524Y0152324D01*
X0248549Y0152408D01*
X0248579Y0152492D01*
X0248611Y0152574D01*
X0248648Y0152654D01*
X0248688Y0152733D01*
X0248732Y0152810D01*
X0248779Y0152885D01*
X0248829Y0152957D01*
X0248883Y0153028D01*
X0248939Y0153095D01*
X0248999Y0153161D01*
X0249061Y0153223D01*
X0249127Y0153283D01*
X0249194Y0153339D01*
X0249265Y0153393D01*
X0249337Y0153443D01*
X0249412Y0153490D01*
X0249489Y0153534D01*
X0249568Y0153574D01*
X0249648Y0153611D01*
X0249730Y0153643D01*
X0249814Y0153673D01*
X0249898Y0153698D01*
X0249984Y0153720D01*
X0250070Y0153737D01*
X0250158Y0153751D01*
X0250246Y0153761D01*
X0250334Y0153767D01*
X0250422Y0153769D01*
X0250510Y0153767D01*
X0250598Y0153761D01*
X0250686Y0153751D01*
X0250774Y0153737D01*
X0250860Y0153720D01*
X0250946Y0153698D01*
X0251030Y0153673D01*
X0251114Y0153643D01*
X0251196Y0153611D01*
X0251276Y0153574D01*
X0251355Y0153534D01*
X0251432Y0153490D01*
X0251507Y0153443D01*
X0251579Y0153393D01*
X0251650Y0153339D01*
X0251717Y0153283D01*
X0251783Y0153223D01*
X0251845Y0153161D01*
X0251905Y0153095D01*
X0251961Y0153028D01*
X0252015Y0152957D01*
X0252065Y0152885D01*
X0252112Y0152810D01*
X0252156Y0152733D01*
X0252196Y0152654D01*
X0252233Y0152574D01*
X0252265Y0152492D01*
X0252295Y0152408D01*
X0252320Y0152324D01*
X0252342Y0152238D01*
X0252359Y0152152D01*
X0252373Y0152064D01*
X0252383Y0151976D01*
X0252389Y0151888D01*
X0252391Y0151800D01*
X0252389Y0151712D01*
X0252383Y0151624D01*
X0252373Y0151536D01*
X0252359Y0151448D01*
X0252342Y0151362D01*
X0252320Y0151276D01*
X0252295Y0151192D01*
X0252265Y0151108D01*
X0252233Y0151026D01*
X0252196Y0150946D01*
X0252156Y0150867D01*
X0252112Y0150790D01*
X0252065Y0150715D01*
X0252015Y0150643D01*
X0251961Y0150572D01*
X0251905Y0150505D01*
X0251845Y0150439D01*
X0251783Y0150377D01*
X0251717Y0150317D01*
X0251650Y0150261D01*
X0251579Y0150207D01*
X0251507Y0150157D01*
X0251432Y0150110D01*
X0251355Y0150066D01*
X0251276Y0150026D01*
X0251196Y0149989D01*
X0251114Y0149957D01*
X0251030Y0149927D01*
X0250946Y0149902D01*
X0250860Y0149880D01*
X0250774Y0149863D01*
X0250686Y0149849D01*
X0250598Y0149839D01*
X0250510Y0149833D01*
X0250422Y0149831D01*
X0250334Y0149833D01*
X0250246Y0149839D01*
X0250158Y0149849D01*
X0250070Y0149863D01*
X0249984Y0149880D01*
X0249898Y0149902D01*
X0249814Y0149927D01*
X0249730Y0149957D01*
X0249648Y0149989D01*
X0249568Y0150026D01*
X0249489Y0150066D01*
X0249412Y0150110D01*
X0249337Y0150157D01*
X0249265Y0150207D01*
X0249194Y0150261D01*
X0249127Y0150317D01*
X0249061Y0150377D01*
X0248999Y0150439D01*
X0248939Y0150505D01*
X0248883Y0150572D01*
X0248829Y0150643D01*
X0248779Y0150715D01*
X0248732Y0150790D01*
X0248688Y0150867D01*
X0248648Y0150946D01*
X0248611Y0151026D01*
X0248579Y0151108D01*
X0248549Y0151192D01*
X0248524Y0151276D01*
X0248502Y0151362D01*
X0248485Y0151448D01*
X0248471Y0151536D01*
X0248461Y0151624D01*
X0248455Y0151712D01*
X0248453Y0151800D01*
X0248453Y0086800D02*
X0248455Y0086888D01*
X0248461Y0086976D01*
X0248471Y0087064D01*
X0248485Y0087152D01*
X0248502Y0087238D01*
X0248524Y0087324D01*
X0248549Y0087408D01*
X0248579Y0087492D01*
X0248611Y0087574D01*
X0248648Y0087654D01*
X0248688Y0087733D01*
X0248732Y0087810D01*
X0248779Y0087885D01*
X0248829Y0087957D01*
X0248883Y0088028D01*
X0248939Y0088095D01*
X0248999Y0088161D01*
X0249061Y0088223D01*
X0249127Y0088283D01*
X0249194Y0088339D01*
X0249265Y0088393D01*
X0249337Y0088443D01*
X0249412Y0088490D01*
X0249489Y0088534D01*
X0249568Y0088574D01*
X0249648Y0088611D01*
X0249730Y0088643D01*
X0249814Y0088673D01*
X0249898Y0088698D01*
X0249984Y0088720D01*
X0250070Y0088737D01*
X0250158Y0088751D01*
X0250246Y0088761D01*
X0250334Y0088767D01*
X0250422Y0088769D01*
X0250510Y0088767D01*
X0250598Y0088761D01*
X0250686Y0088751D01*
X0250774Y0088737D01*
X0250860Y0088720D01*
X0250946Y0088698D01*
X0251030Y0088673D01*
X0251114Y0088643D01*
X0251196Y0088611D01*
X0251276Y0088574D01*
X0251355Y0088534D01*
X0251432Y0088490D01*
X0251507Y0088443D01*
X0251579Y0088393D01*
X0251650Y0088339D01*
X0251717Y0088283D01*
X0251783Y0088223D01*
X0251845Y0088161D01*
X0251905Y0088095D01*
X0251961Y0088028D01*
X0252015Y0087957D01*
X0252065Y0087885D01*
X0252112Y0087810D01*
X0252156Y0087733D01*
X0252196Y0087654D01*
X0252233Y0087574D01*
X0252265Y0087492D01*
X0252295Y0087408D01*
X0252320Y0087324D01*
X0252342Y0087238D01*
X0252359Y0087152D01*
X0252373Y0087064D01*
X0252383Y0086976D01*
X0252389Y0086888D01*
X0252391Y0086800D01*
X0252389Y0086712D01*
X0252383Y0086624D01*
X0252373Y0086536D01*
X0252359Y0086448D01*
X0252342Y0086362D01*
X0252320Y0086276D01*
X0252295Y0086192D01*
X0252265Y0086108D01*
X0252233Y0086026D01*
X0252196Y0085946D01*
X0252156Y0085867D01*
X0252112Y0085790D01*
X0252065Y0085715D01*
X0252015Y0085643D01*
X0251961Y0085572D01*
X0251905Y0085505D01*
X0251845Y0085439D01*
X0251783Y0085377D01*
X0251717Y0085317D01*
X0251650Y0085261D01*
X0251579Y0085207D01*
X0251507Y0085157D01*
X0251432Y0085110D01*
X0251355Y0085066D01*
X0251276Y0085026D01*
X0251196Y0084989D01*
X0251114Y0084957D01*
X0251030Y0084927D01*
X0250946Y0084902D01*
X0250860Y0084880D01*
X0250774Y0084863D01*
X0250686Y0084849D01*
X0250598Y0084839D01*
X0250510Y0084833D01*
X0250422Y0084831D01*
X0250334Y0084833D01*
X0250246Y0084839D01*
X0250158Y0084849D01*
X0250070Y0084863D01*
X0249984Y0084880D01*
X0249898Y0084902D01*
X0249814Y0084927D01*
X0249730Y0084957D01*
X0249648Y0084989D01*
X0249568Y0085026D01*
X0249489Y0085066D01*
X0249412Y0085110D01*
X0249337Y0085157D01*
X0249265Y0085207D01*
X0249194Y0085261D01*
X0249127Y0085317D01*
X0249061Y0085377D01*
X0248999Y0085439D01*
X0248939Y0085505D01*
X0248883Y0085572D01*
X0248829Y0085643D01*
X0248779Y0085715D01*
X0248732Y0085790D01*
X0248688Y0085867D01*
X0248648Y0085946D01*
X0248611Y0086026D01*
X0248579Y0086108D01*
X0248549Y0086192D01*
X0248524Y0086276D01*
X0248502Y0086362D01*
X0248485Y0086448D01*
X0248471Y0086536D01*
X0248461Y0086624D01*
X0248455Y0086712D01*
X0248453Y0086800D01*
X0201209Y0086800D02*
X0201211Y0086888D01*
X0201217Y0086976D01*
X0201227Y0087064D01*
X0201241Y0087152D01*
X0201258Y0087238D01*
X0201280Y0087324D01*
X0201305Y0087408D01*
X0201335Y0087492D01*
X0201367Y0087574D01*
X0201404Y0087654D01*
X0201444Y0087733D01*
X0201488Y0087810D01*
X0201535Y0087885D01*
X0201585Y0087957D01*
X0201639Y0088028D01*
X0201695Y0088095D01*
X0201755Y0088161D01*
X0201817Y0088223D01*
X0201883Y0088283D01*
X0201950Y0088339D01*
X0202021Y0088393D01*
X0202093Y0088443D01*
X0202168Y0088490D01*
X0202245Y0088534D01*
X0202324Y0088574D01*
X0202404Y0088611D01*
X0202486Y0088643D01*
X0202570Y0088673D01*
X0202654Y0088698D01*
X0202740Y0088720D01*
X0202826Y0088737D01*
X0202914Y0088751D01*
X0203002Y0088761D01*
X0203090Y0088767D01*
X0203178Y0088769D01*
X0203266Y0088767D01*
X0203354Y0088761D01*
X0203442Y0088751D01*
X0203530Y0088737D01*
X0203616Y0088720D01*
X0203702Y0088698D01*
X0203786Y0088673D01*
X0203870Y0088643D01*
X0203952Y0088611D01*
X0204032Y0088574D01*
X0204111Y0088534D01*
X0204188Y0088490D01*
X0204263Y0088443D01*
X0204335Y0088393D01*
X0204406Y0088339D01*
X0204473Y0088283D01*
X0204539Y0088223D01*
X0204601Y0088161D01*
X0204661Y0088095D01*
X0204717Y0088028D01*
X0204771Y0087957D01*
X0204821Y0087885D01*
X0204868Y0087810D01*
X0204912Y0087733D01*
X0204952Y0087654D01*
X0204989Y0087574D01*
X0205021Y0087492D01*
X0205051Y0087408D01*
X0205076Y0087324D01*
X0205098Y0087238D01*
X0205115Y0087152D01*
X0205129Y0087064D01*
X0205139Y0086976D01*
X0205145Y0086888D01*
X0205147Y0086800D01*
X0205145Y0086712D01*
X0205139Y0086624D01*
X0205129Y0086536D01*
X0205115Y0086448D01*
X0205098Y0086362D01*
X0205076Y0086276D01*
X0205051Y0086192D01*
X0205021Y0086108D01*
X0204989Y0086026D01*
X0204952Y0085946D01*
X0204912Y0085867D01*
X0204868Y0085790D01*
X0204821Y0085715D01*
X0204771Y0085643D01*
X0204717Y0085572D01*
X0204661Y0085505D01*
X0204601Y0085439D01*
X0204539Y0085377D01*
X0204473Y0085317D01*
X0204406Y0085261D01*
X0204335Y0085207D01*
X0204263Y0085157D01*
X0204188Y0085110D01*
X0204111Y0085066D01*
X0204032Y0085026D01*
X0203952Y0084989D01*
X0203870Y0084957D01*
X0203786Y0084927D01*
X0203702Y0084902D01*
X0203616Y0084880D01*
X0203530Y0084863D01*
X0203442Y0084849D01*
X0203354Y0084839D01*
X0203266Y0084833D01*
X0203178Y0084831D01*
X0203090Y0084833D01*
X0203002Y0084839D01*
X0202914Y0084849D01*
X0202826Y0084863D01*
X0202740Y0084880D01*
X0202654Y0084902D01*
X0202570Y0084927D01*
X0202486Y0084957D01*
X0202404Y0084989D01*
X0202324Y0085026D01*
X0202245Y0085066D01*
X0202168Y0085110D01*
X0202093Y0085157D01*
X0202021Y0085207D01*
X0201950Y0085261D01*
X0201883Y0085317D01*
X0201817Y0085377D01*
X0201755Y0085439D01*
X0201695Y0085505D01*
X0201639Y0085572D01*
X0201585Y0085643D01*
X0201535Y0085715D01*
X0201488Y0085790D01*
X0201444Y0085867D01*
X0201404Y0085946D01*
X0201367Y0086026D01*
X0201335Y0086108D01*
X0201305Y0086192D01*
X0201280Y0086276D01*
X0201258Y0086362D01*
X0201241Y0086448D01*
X0201227Y0086536D01*
X0201217Y0086624D01*
X0201211Y0086712D01*
X0201209Y0086800D01*
D14*
X0203178Y0086800D03*
X0250422Y0086800D03*
X0250422Y0151800D03*
X0203178Y0151800D03*
X0175422Y0151800D03*
X0128178Y0151800D03*
X0100422Y0151800D03*
X0053178Y0151800D03*
M02*
