G75*
%MOIN*%
%OFA0B0*%
%FSLAX25Y25*%
%IPPOS*%
%LPD*%
%AMOC8*
5,1,8,0,0,1.08239X$1,22.5*
%
%ADD10C,0.01600*%
%ADD11C,0.07400*%
%ADD12R,0.05937X0.05937*%
%ADD13C,0.00000*%
D10*
X0046567Y0041567D02*
X0045207Y0043440D01*
X0044491Y0045642D01*
X0044400Y0046800D01*
X0044400Y0047317D01*
X0044400Y0166800D01*
X0044491Y0167958D01*
X0045207Y0170160D01*
X0046567Y0172033D01*
X0048440Y0173393D01*
X0050642Y0174109D01*
X0051800Y0174200D01*
X0251800Y0174200D01*
X0252958Y0174109D01*
X0255160Y0173393D01*
X0257033Y0172033D01*
X0258393Y0170160D01*
X0259109Y0167958D01*
X0259200Y0166800D01*
X0259200Y0046800D01*
X0259109Y0045642D01*
X0258393Y0043440D01*
X0257033Y0041567D01*
X0255160Y0040207D01*
X0252958Y0039491D01*
X0251800Y0039400D01*
X0051800Y0039400D01*
X0050642Y0039491D01*
X0048440Y0040207D01*
X0046567Y0041567D01*
X0046547Y0041596D02*
X0257053Y0041596D01*
X0258214Y0043194D02*
X0045386Y0043194D01*
X0044767Y0044793D02*
X0108553Y0044793D01*
X0109146Y0044600D02*
X0219264Y0044600D01*
X0222367Y0045431D01*
X0225149Y0047038D01*
X0225640Y0047529D01*
X0225640Y0047529D01*
X0227711Y0049600D01*
X0229000Y0050889D01*
X0229000Y0051723D01*
X0230348Y0051723D01*
X0231168Y0052543D01*
X0231168Y0052580D01*
X0231209Y0052428D01*
X0231446Y0052018D01*
X0231781Y0051682D01*
X0232192Y0051445D01*
X0232650Y0051323D01*
X0235671Y0051323D01*
X0235671Y0055907D01*
X0236039Y0055907D01*
X0236039Y0051323D01*
X0239061Y0051323D01*
X0239518Y0051445D01*
X0239929Y0051682D01*
X0240264Y0052018D01*
X0240501Y0052428D01*
X0240624Y0052886D01*
X0240624Y0055907D01*
X0236039Y0055907D01*
X0236039Y0056276D01*
X0235671Y0056276D01*
X0235671Y0060860D01*
X0232650Y0060860D01*
X0232192Y0060737D01*
X0231781Y0060500D01*
X0231446Y0060165D01*
X0231209Y0059755D01*
X0231168Y0059602D01*
X0231168Y0059640D01*
X0230348Y0060460D01*
X0223252Y0060460D01*
X0222431Y0059640D01*
X0222431Y0052543D01*
X0223252Y0051723D01*
X0223612Y0051723D01*
X0223173Y0051284D01*
X0222406Y0050612D01*
X0220643Y0049594D01*
X0218676Y0049067D01*
X0217658Y0049000D01*
X0110942Y0049000D01*
X0109856Y0049085D01*
X0107790Y0049757D01*
X0106033Y0051033D01*
X0104860Y0052648D01*
X0106124Y0053911D01*
X0106800Y0055544D01*
X0107476Y0053911D01*
X0108911Y0052476D01*
X0110786Y0051700D01*
X0112814Y0051700D01*
X0114689Y0052476D01*
X0116124Y0053911D01*
X0116800Y0055544D01*
X0117476Y0053911D01*
X0118911Y0052476D01*
X0120786Y0051700D01*
X0122814Y0051700D01*
X0124689Y0052476D01*
X0126124Y0053911D01*
X0126800Y0055544D01*
X0127476Y0053911D01*
X0128911Y0052476D01*
X0130786Y0051700D01*
X0132814Y0051700D01*
X0134689Y0052476D01*
X0136124Y0053911D01*
X0136590Y0055037D01*
X0136703Y0054689D01*
X0137096Y0053917D01*
X0137605Y0053217D01*
X0138217Y0052605D01*
X0138917Y0052096D01*
X0139689Y0051703D01*
X0140512Y0051435D01*
X0141367Y0051300D01*
X0141600Y0051300D01*
X0141600Y0056600D01*
X0142000Y0056600D01*
X0142000Y0051300D01*
X0142233Y0051300D01*
X0143088Y0051435D01*
X0143911Y0051703D01*
X0144683Y0052096D01*
X0145383Y0052605D01*
X0145995Y0053217D01*
X0146504Y0053917D01*
X0146897Y0054689D01*
X0147010Y0055037D01*
X0147476Y0053911D01*
X0148911Y0052476D01*
X0150786Y0051700D01*
X0152814Y0051700D01*
X0154689Y0052476D01*
X0156124Y0053911D01*
X0156900Y0055786D01*
X0156900Y0057814D01*
X0156124Y0059689D01*
X0155112Y0060701D01*
X0156285Y0062315D01*
X0158259Y0063750D01*
X0160580Y0064504D01*
X0161800Y0064600D01*
X0211800Y0064600D01*
X0212346Y0064546D01*
X0213356Y0064128D01*
X0214128Y0063356D01*
X0214546Y0062346D01*
X0214600Y0061800D01*
X0214600Y0060460D01*
X0214196Y0060460D01*
X0213376Y0059640D01*
X0213376Y0052543D01*
X0214196Y0051723D01*
X0221293Y0051723D01*
X0222113Y0052543D01*
X0222113Y0059640D01*
X0221293Y0060460D01*
X0219000Y0060460D01*
X0219000Y0063232D01*
X0218433Y0064600D01*
X0219865Y0064600D01*
X0225840Y0065964D01*
X0225840Y0065964D01*
X0231363Y0068623D01*
X0236155Y0072445D01*
X0239977Y0077237D01*
X0242636Y0082760D01*
X0244000Y0088735D01*
X0244000Y0101800D01*
X0244054Y0102346D01*
X0244472Y0103356D01*
X0245244Y0104128D01*
X0246254Y0104546D01*
X0246800Y0104600D01*
X0248232Y0104600D01*
X0250878Y0105696D01*
X0250878Y0105696D01*
X0252904Y0107722D01*
X0254000Y0110368D01*
X0254000Y0133232D01*
X0252904Y0135878D01*
X0252904Y0135878D01*
X0250878Y0137904D01*
X0248232Y0139000D01*
X0079660Y0139000D01*
X0075526Y0137892D01*
X0071819Y0135752D01*
X0068793Y0132726D01*
X0068793Y0132726D01*
X0066653Y0129019D01*
X0065699Y0125460D01*
X0064196Y0125460D01*
X0063376Y0124640D01*
X0063376Y0117543D01*
X0064196Y0116723D01*
X0071293Y0116723D01*
X0072113Y0117543D01*
X0072113Y0124640D01*
X0071293Y0125460D01*
X0070359Y0125460D01*
X0070847Y0127282D01*
X0072395Y0129962D01*
X0074583Y0132150D01*
X0077263Y0133698D01*
X0080253Y0134499D01*
X0081800Y0134600D01*
X0145667Y0134600D01*
X0143793Y0132726D01*
X0143793Y0132726D01*
X0143793Y0132726D01*
X0141653Y0129019D01*
X0140699Y0125460D01*
X0139196Y0125460D01*
X0138376Y0124640D01*
X0138376Y0117543D01*
X0139196Y0116723D01*
X0146293Y0116723D01*
X0147113Y0117543D01*
X0147113Y0124640D01*
X0146293Y0125460D01*
X0145359Y0125460D01*
X0145847Y0127282D01*
X0147395Y0129962D01*
X0149583Y0132150D01*
X0152263Y0133698D01*
X0155253Y0134499D01*
X0156800Y0134600D01*
X0215167Y0134600D01*
X0214600Y0133232D01*
X0214600Y0125460D01*
X0214196Y0125460D01*
X0213376Y0124640D01*
X0213376Y0117543D01*
X0214196Y0116723D01*
X0221293Y0116723D01*
X0222113Y0117543D01*
X0222113Y0124640D01*
X0221293Y0125460D01*
X0219000Y0125460D01*
X0219000Y0131800D01*
X0219054Y0132346D01*
X0219472Y0133356D01*
X0220244Y0134128D01*
X0221254Y0134546D01*
X0221800Y0134600D01*
X0246800Y0134600D01*
X0247346Y0134546D01*
X0248356Y0134128D01*
X0249128Y0133356D01*
X0249546Y0132346D01*
X0249600Y0131800D01*
X0249600Y0111800D01*
X0249546Y0111254D01*
X0249128Y0110244D01*
X0248356Y0109472D01*
X0247346Y0109054D01*
X0246800Y0109000D01*
X0245368Y0109000D01*
X0242722Y0107904D01*
X0242722Y0107904D01*
X0240696Y0105878D01*
X0239600Y0103232D01*
X0239600Y0091800D01*
X0239457Y0089247D01*
X0238321Y0084270D01*
X0236105Y0079670D01*
X0232922Y0075678D01*
X0228930Y0072495D01*
X0224330Y0070279D01*
X0219353Y0069143D01*
X0216800Y0069000D01*
X0159868Y0069000D01*
X0156192Y0067806D01*
X0153066Y0065534D01*
X0150794Y0062408D01*
X0150794Y0062408D01*
X0150605Y0061825D01*
X0148911Y0061124D01*
X0147476Y0059689D01*
X0147010Y0058563D01*
X0146897Y0058911D01*
X0146504Y0059683D01*
X0145995Y0060383D01*
X0145383Y0060995D01*
X0144683Y0061504D01*
X0143911Y0061897D01*
X0143088Y0062165D01*
X0142233Y0062300D01*
X0142000Y0062300D01*
X0142000Y0057000D01*
X0141600Y0057000D01*
X0141600Y0062300D01*
X0141367Y0062300D01*
X0140512Y0062165D01*
X0139689Y0061897D01*
X0138917Y0061504D01*
X0138217Y0060995D01*
X0137605Y0060383D01*
X0137096Y0059683D01*
X0136703Y0058911D01*
X0136590Y0058563D01*
X0136124Y0059689D01*
X0134689Y0061124D01*
X0134350Y0061264D01*
X0135288Y0066583D01*
X0137542Y0072775D01*
X0140836Y0078481D01*
X0145071Y0083529D01*
X0150119Y0087764D01*
X0155825Y0091058D01*
X0162017Y0093312D01*
X0168506Y0094456D01*
X0171800Y0094600D01*
X0223232Y0094600D01*
X0225878Y0095696D01*
X0225878Y0095696D01*
X0227904Y0097722D01*
X0229000Y0100368D01*
X0229000Y0116723D01*
X0230348Y0116723D01*
X0231168Y0117543D01*
X0231168Y0117580D01*
X0231209Y0117428D01*
X0231446Y0117018D01*
X0231781Y0116682D01*
X0232192Y0116445D01*
X0232650Y0116323D01*
X0235671Y0116323D01*
X0235671Y0120907D01*
X0236039Y0120907D01*
X0236039Y0116323D01*
X0239061Y0116323D01*
X0239518Y0116445D01*
X0239929Y0116682D01*
X0240264Y0117018D01*
X0240501Y0117428D01*
X0240624Y0117886D01*
X0240624Y0120907D01*
X0236039Y0120907D01*
X0236039Y0121276D01*
X0235671Y0121276D01*
X0235671Y0125860D01*
X0232650Y0125860D01*
X0232192Y0125737D01*
X0231781Y0125500D01*
X0231446Y0125165D01*
X0231209Y0124755D01*
X0231168Y0124602D01*
X0231168Y0124640D01*
X0230348Y0125460D01*
X0223252Y0125460D01*
X0222431Y0124640D01*
X0222431Y0117543D01*
X0223252Y0116723D01*
X0224600Y0116723D01*
X0224600Y0101800D01*
X0224546Y0101254D01*
X0224128Y0100244D01*
X0223356Y0099472D01*
X0222346Y0099054D01*
X0221800Y0099000D01*
X0168108Y0099000D01*
X0160836Y0097718D01*
X0153897Y0095192D01*
X0147503Y0091500D01*
X0147503Y0091500D01*
X0141846Y0086754D01*
X0141846Y0086754D01*
X0141846Y0086754D01*
X0137100Y0081097D01*
X0133408Y0074703D01*
X0130882Y0067764D01*
X0129774Y0061481D01*
X0128911Y0061124D01*
X0127476Y0059689D01*
X0126800Y0058056D01*
X0126124Y0059689D01*
X0124689Y0061124D01*
X0124000Y0061409D01*
X0124000Y0081800D01*
X0124112Y0083793D01*
X0124999Y0087679D01*
X0126728Y0091270D01*
X0129213Y0094386D01*
X0132330Y0096872D01*
X0135921Y0098601D01*
X0139807Y0099488D01*
X0141800Y0099600D01*
X0143732Y0099600D01*
X0147408Y0100794D01*
X0150534Y0103066D01*
X0152806Y0106192D01*
X0154000Y0109868D01*
X0154000Y0116723D01*
X0155348Y0116723D01*
X0156168Y0117543D01*
X0156168Y0117580D01*
X0156209Y0117428D01*
X0156446Y0117018D01*
X0156781Y0116682D01*
X0157192Y0116445D01*
X0157650Y0116323D01*
X0160671Y0116323D01*
X0160671Y0120907D01*
X0161039Y0120907D01*
X0161039Y0116323D01*
X0164061Y0116323D01*
X0164518Y0116445D01*
X0164929Y0116682D01*
X0165264Y0117018D01*
X0165501Y0117428D01*
X0165624Y0117886D01*
X0165624Y0120907D01*
X0161039Y0120907D01*
X0161039Y0121276D01*
X0160671Y0121276D01*
X0160671Y0125860D01*
X0157650Y0125860D01*
X0157192Y0125737D01*
X0156781Y0125500D01*
X0156446Y0125165D01*
X0156209Y0124755D01*
X0156168Y0124602D01*
X0156168Y0124640D01*
X0155348Y0125460D01*
X0148252Y0125460D01*
X0147431Y0124640D01*
X0147431Y0117543D01*
X0148252Y0116723D01*
X0149600Y0116723D01*
X0149600Y0111800D01*
X0149504Y0110580D01*
X0148750Y0108259D01*
X0147315Y0106285D01*
X0145341Y0104850D01*
X0143020Y0104096D01*
X0141800Y0104000D01*
X0140889Y0104000D01*
X0139299Y0104000D01*
X0134421Y0102887D01*
X0129914Y0100716D01*
X0126003Y0097597D01*
X0126003Y0097597D01*
X0122884Y0093686D01*
X0120713Y0089179D01*
X0120713Y0089179D01*
X0119600Y0084301D01*
X0119600Y0061409D01*
X0118911Y0061124D01*
X0117476Y0059689D01*
X0116800Y0058056D01*
X0116124Y0059689D01*
X0114689Y0061124D01*
X0114000Y0061409D01*
X0114000Y0068232D01*
X0112904Y0070878D01*
X0112904Y0070878D01*
X0110878Y0072904D01*
X0108232Y0074000D01*
X0101800Y0074000D01*
X0099247Y0074143D01*
X0094270Y0075279D01*
X0089670Y0077495D01*
X0085678Y0080678D01*
X0082495Y0084670D01*
X0080279Y0089270D01*
X0079143Y0094247D01*
X0079000Y0096800D01*
X0079000Y0116723D01*
X0080348Y0116723D01*
X0081168Y0117543D01*
X0081168Y0117580D01*
X0081209Y0117428D01*
X0081446Y0117018D01*
X0081781Y0116682D01*
X0082192Y0116445D01*
X0082650Y0116323D01*
X0085671Y0116323D01*
X0085671Y0120907D01*
X0086039Y0120907D01*
X0086039Y0116323D01*
X0089061Y0116323D01*
X0089518Y0116445D01*
X0089929Y0116682D01*
X0090264Y0117018D01*
X0090501Y0117428D01*
X0090624Y0117886D01*
X0090624Y0120907D01*
X0086039Y0120907D01*
X0086039Y0121276D01*
X0085671Y0121276D01*
X0085671Y0125860D01*
X0082650Y0125860D01*
X0082192Y0125737D01*
X0081781Y0125500D01*
X0081446Y0125165D01*
X0081209Y0124755D01*
X0081168Y0124602D01*
X0081168Y0124640D01*
X0080348Y0125460D01*
X0073252Y0125460D01*
X0072431Y0124640D01*
X0072431Y0117543D01*
X0073252Y0116723D01*
X0074600Y0116723D01*
X0074600Y0093735D01*
X0075964Y0087760D01*
X0075964Y0087760D01*
X0078623Y0082237D01*
X0082445Y0077445D01*
X0087237Y0073623D01*
X0087237Y0073623D01*
X0092760Y0070964D01*
X0098735Y0069600D01*
X0106800Y0069600D01*
X0107346Y0069546D01*
X0108356Y0069128D01*
X0109128Y0068356D01*
X0109546Y0067346D01*
X0109600Y0066800D01*
X0109600Y0061409D01*
X0108911Y0061124D01*
X0107476Y0059689D01*
X0106800Y0058056D01*
X0106124Y0059689D01*
X0104689Y0061124D01*
X0102814Y0061900D01*
X0100786Y0061900D01*
X0098911Y0061124D01*
X0097476Y0059689D01*
X0096700Y0057814D01*
X0096700Y0055786D01*
X0097476Y0053911D01*
X0098911Y0052476D01*
X0100334Y0051887D01*
X0100710Y0050729D01*
X0102822Y0047822D01*
X0105729Y0045710D01*
X0109146Y0044600D01*
X0110942Y0046800D02*
X0217658Y0046800D01*
X0219264Y0044600D02*
X0219264Y0044600D01*
X0219983Y0044793D02*
X0258833Y0044793D01*
X0259168Y0046391D02*
X0224029Y0046391D01*
X0226101Y0047990D02*
X0259200Y0047990D01*
X0259200Y0049588D02*
X0227699Y0049588D01*
X0229000Y0051187D02*
X0259200Y0051187D01*
X0259200Y0052785D02*
X0240597Y0052785D01*
X0240624Y0054384D02*
X0259200Y0054384D01*
X0259200Y0055982D02*
X0236039Y0055982D01*
X0236039Y0056276D02*
X0240624Y0056276D01*
X0240624Y0059297D01*
X0240501Y0059755D01*
X0240264Y0060165D01*
X0239929Y0060500D01*
X0239518Y0060737D01*
X0239061Y0060860D01*
X0236039Y0060860D01*
X0236039Y0056276D01*
X0236039Y0057581D02*
X0235671Y0057581D01*
X0235671Y0059179D02*
X0236039Y0059179D01*
X0236039Y0060778D02*
X0235671Y0060778D01*
X0232343Y0060778D02*
X0219000Y0060778D01*
X0219000Y0062376D02*
X0259200Y0062376D01*
X0259200Y0060778D02*
X0239367Y0060778D01*
X0240624Y0059179D02*
X0259200Y0059179D01*
X0259200Y0057581D02*
X0240624Y0057581D01*
X0236039Y0054384D02*
X0235671Y0054384D01*
X0235671Y0052785D02*
X0236039Y0052785D01*
X0226800Y0051800D02*
X0226800Y0056091D01*
X0226800Y0051800D02*
X0224729Y0049729D01*
X0223062Y0051187D02*
X0105922Y0051187D01*
X0104998Y0052785D02*
X0108602Y0052785D01*
X0107281Y0054384D02*
X0106319Y0054384D01*
X0101800Y0055942D02*
X0101800Y0056800D01*
X0097265Y0059179D02*
X0044400Y0059179D01*
X0044400Y0057581D02*
X0096700Y0057581D01*
X0096700Y0055982D02*
X0044400Y0055982D01*
X0044400Y0054384D02*
X0097281Y0054384D01*
X0098602Y0052785D02*
X0044400Y0052785D01*
X0044400Y0051187D02*
X0100561Y0051187D01*
X0100710Y0050729D02*
X0100710Y0050729D01*
X0101539Y0049588D02*
X0044400Y0049588D01*
X0044400Y0047990D02*
X0102700Y0047990D01*
X0102822Y0047822D02*
X0102822Y0047822D01*
X0102822Y0047822D01*
X0104792Y0046391D02*
X0044432Y0046391D01*
X0041800Y0046800D02*
X0041800Y0166800D01*
X0044400Y0166279D02*
X0259200Y0166279D01*
X0259200Y0164681D02*
X0044400Y0164681D01*
X0044400Y0163082D02*
X0259200Y0163082D01*
X0259200Y0161484D02*
X0044400Y0161484D01*
X0044400Y0159885D02*
X0259200Y0159885D01*
X0259200Y0158287D02*
X0044400Y0158287D01*
X0044400Y0156688D02*
X0259200Y0156688D01*
X0259200Y0155090D02*
X0252327Y0155090D01*
X0252557Y0154995D02*
X0251172Y0155568D01*
X0249672Y0155568D01*
X0248287Y0154995D01*
X0247227Y0153935D01*
X0246654Y0152550D01*
X0246654Y0151050D01*
X0247227Y0149665D01*
X0248287Y0148605D01*
X0249672Y0148031D01*
X0251172Y0148031D01*
X0252557Y0148605D01*
X0253617Y0149665D01*
X0254191Y0151050D01*
X0254191Y0152550D01*
X0253617Y0153935D01*
X0252557Y0154995D01*
X0253800Y0153491D02*
X0259200Y0153491D01*
X0259200Y0151893D02*
X0254191Y0151893D01*
X0253877Y0150294D02*
X0259200Y0150294D01*
X0259200Y0148696D02*
X0252647Y0148696D01*
X0248197Y0148696D02*
X0205403Y0148696D01*
X0205313Y0148605D02*
X0206373Y0149665D01*
X0206946Y0151050D01*
X0206946Y0152550D01*
X0206373Y0153935D01*
X0205313Y0154995D01*
X0203928Y0155568D01*
X0202428Y0155568D01*
X0201043Y0154995D01*
X0199983Y0153935D01*
X0199409Y0152550D01*
X0199409Y0151050D01*
X0199983Y0149665D01*
X0201043Y0148605D01*
X0202428Y0148031D01*
X0203928Y0148031D01*
X0205313Y0148605D01*
X0206633Y0150294D02*
X0246967Y0150294D01*
X0246654Y0151893D02*
X0206946Y0151893D01*
X0206556Y0153491D02*
X0247044Y0153491D01*
X0248517Y0155090D02*
X0205083Y0155090D01*
X0201273Y0155090D02*
X0177327Y0155090D01*
X0177557Y0154995D02*
X0176172Y0155568D01*
X0174672Y0155568D01*
X0173287Y0154995D01*
X0172227Y0153935D01*
X0171654Y0152550D01*
X0171654Y0151050D01*
X0172227Y0149665D01*
X0173287Y0148605D01*
X0174672Y0148031D01*
X0176172Y0148031D01*
X0177557Y0148605D01*
X0178617Y0149665D01*
X0179191Y0151050D01*
X0179191Y0152550D01*
X0178617Y0153935D01*
X0177557Y0154995D01*
X0178800Y0153491D02*
X0199800Y0153491D01*
X0199409Y0151893D02*
X0179191Y0151893D01*
X0178877Y0150294D02*
X0199723Y0150294D01*
X0200953Y0148696D02*
X0177647Y0148696D01*
X0173197Y0148696D02*
X0130403Y0148696D01*
X0130313Y0148605D02*
X0131373Y0149665D01*
X0131946Y0151050D01*
X0131946Y0152550D01*
X0131373Y0153935D01*
X0130313Y0154995D01*
X0128928Y0155568D01*
X0127428Y0155568D01*
X0126043Y0154995D01*
X0124983Y0153935D01*
X0124409Y0152550D01*
X0124409Y0151050D01*
X0124983Y0149665D01*
X0126043Y0148605D01*
X0127428Y0148031D01*
X0128928Y0148031D01*
X0130313Y0148605D01*
X0131633Y0150294D02*
X0171967Y0150294D01*
X0171654Y0151893D02*
X0131946Y0151893D01*
X0131556Y0153491D02*
X0172044Y0153491D01*
X0173517Y0155090D02*
X0130083Y0155090D01*
X0126273Y0155090D02*
X0102327Y0155090D01*
X0102557Y0154995D02*
X0101172Y0155568D01*
X0099672Y0155568D01*
X0098287Y0154995D01*
X0097227Y0153935D01*
X0096654Y0152550D01*
X0096654Y0151050D01*
X0097227Y0149665D01*
X0098287Y0148605D01*
X0099672Y0148031D01*
X0101172Y0148031D01*
X0102557Y0148605D01*
X0103617Y0149665D01*
X0104191Y0151050D01*
X0104191Y0152550D01*
X0103617Y0153935D01*
X0102557Y0154995D01*
X0103800Y0153491D02*
X0124800Y0153491D01*
X0124409Y0151893D02*
X0104191Y0151893D01*
X0103877Y0150294D02*
X0124723Y0150294D01*
X0125953Y0148696D02*
X0102647Y0148696D01*
X0098197Y0148696D02*
X0055403Y0148696D01*
X0055313Y0148605D02*
X0056373Y0149665D01*
X0056946Y0151050D01*
X0056946Y0152550D01*
X0056373Y0153935D01*
X0055313Y0154995D01*
X0053928Y0155568D01*
X0052428Y0155568D01*
X0051043Y0154995D01*
X0049983Y0153935D01*
X0049409Y0152550D01*
X0049409Y0151050D01*
X0049983Y0149665D01*
X0051043Y0148605D01*
X0052428Y0148031D01*
X0053928Y0148031D01*
X0055313Y0148605D01*
X0056633Y0150294D02*
X0096967Y0150294D01*
X0096654Y0151893D02*
X0056946Y0151893D01*
X0056556Y0153491D02*
X0097044Y0153491D01*
X0098517Y0155090D02*
X0055083Y0155090D01*
X0051273Y0155090D02*
X0044400Y0155090D01*
X0044400Y0153491D02*
X0049800Y0153491D01*
X0049409Y0151893D02*
X0044400Y0151893D01*
X0044400Y0150294D02*
X0049723Y0150294D01*
X0050953Y0148696D02*
X0044400Y0148696D01*
X0044400Y0147097D02*
X0259200Y0147097D01*
X0259200Y0145499D02*
X0044400Y0145499D01*
X0044400Y0143900D02*
X0259200Y0143900D01*
X0259200Y0142302D02*
X0044400Y0142302D01*
X0044400Y0140703D02*
X0259200Y0140703D01*
X0259200Y0139105D02*
X0044400Y0139105D01*
X0044400Y0137506D02*
X0074857Y0137506D01*
X0075526Y0137892D02*
X0075526Y0137892D01*
X0072088Y0135908D02*
X0044400Y0135908D01*
X0044400Y0134309D02*
X0070376Y0134309D01*
X0071819Y0135752D02*
X0071819Y0135752D01*
X0068784Y0132711D02*
X0044400Y0132711D01*
X0044400Y0131112D02*
X0067861Y0131112D01*
X0066938Y0129514D02*
X0044400Y0129514D01*
X0044400Y0127915D02*
X0066357Y0127915D01*
X0066653Y0129019D02*
X0066653Y0129019D01*
X0065929Y0126317D02*
X0044400Y0126317D01*
X0044400Y0124718D02*
X0063455Y0124718D01*
X0063376Y0123120D02*
X0044400Y0123120D01*
X0044400Y0121521D02*
X0063376Y0121521D01*
X0063376Y0119923D02*
X0044400Y0119923D01*
X0044400Y0118324D02*
X0063376Y0118324D01*
X0064194Y0116726D02*
X0044400Y0116726D01*
X0044400Y0115127D02*
X0074600Y0115127D01*
X0074600Y0113529D02*
X0044400Y0113529D01*
X0044400Y0111930D02*
X0074600Y0111930D01*
X0074600Y0110332D02*
X0044400Y0110332D01*
X0044400Y0108733D02*
X0074600Y0108733D01*
X0074600Y0107134D02*
X0044400Y0107134D01*
X0044400Y0105536D02*
X0074600Y0105536D01*
X0074600Y0103937D02*
X0044400Y0103937D01*
X0044400Y0102339D02*
X0074600Y0102339D01*
X0074600Y0100740D02*
X0044400Y0100740D01*
X0044400Y0099142D02*
X0074600Y0099142D01*
X0074600Y0097543D02*
X0044400Y0097543D01*
X0044400Y0095945D02*
X0074600Y0095945D01*
X0074600Y0094346D02*
X0044400Y0094346D01*
X0044400Y0092748D02*
X0074825Y0092748D01*
X0075190Y0091149D02*
X0044400Y0091149D01*
X0044400Y0089551D02*
X0075555Y0089551D01*
X0075920Y0087952D02*
X0044400Y0087952D01*
X0044400Y0086354D02*
X0076641Y0086354D01*
X0077411Y0084755D02*
X0044400Y0084755D01*
X0044400Y0083157D02*
X0078180Y0083157D01*
X0078623Y0082237D02*
X0078623Y0082237D01*
X0079165Y0081558D02*
X0044400Y0081558D01*
X0044400Y0079960D02*
X0080439Y0079960D01*
X0081714Y0078361D02*
X0044400Y0078361D01*
X0044400Y0076763D02*
X0083300Y0076763D01*
X0082445Y0077445D02*
X0082445Y0077445D01*
X0082445Y0077445D01*
X0085305Y0075164D02*
X0044400Y0075164D01*
X0044400Y0073566D02*
X0087357Y0073566D01*
X0090676Y0071967D02*
X0044400Y0071967D01*
X0044400Y0070369D02*
X0095367Y0070369D01*
X0092760Y0070964D02*
X0092760Y0070964D01*
X0094774Y0075164D02*
X0119600Y0075164D01*
X0119600Y0073566D02*
X0109280Y0073566D01*
X0110878Y0072904D02*
X0110878Y0072904D01*
X0111815Y0071967D02*
X0119600Y0071967D01*
X0119600Y0070369D02*
X0113115Y0070369D01*
X0113777Y0068770D02*
X0119600Y0068770D01*
X0119600Y0067172D02*
X0114000Y0067172D01*
X0114000Y0065573D02*
X0119600Y0065573D01*
X0119600Y0063975D02*
X0114000Y0063975D01*
X0114000Y0062376D02*
X0119600Y0062376D01*
X0118565Y0060778D02*
X0115035Y0060778D01*
X0116335Y0059179D02*
X0117265Y0059179D01*
X0117281Y0054384D02*
X0116319Y0054384D01*
X0114998Y0052785D02*
X0118602Y0052785D01*
X0124998Y0052785D02*
X0128602Y0052785D01*
X0127281Y0054384D02*
X0126319Y0054384D01*
X0126335Y0059179D02*
X0127265Y0059179D01*
X0128565Y0060778D02*
X0125035Y0060778D01*
X0124000Y0062376D02*
X0129932Y0062376D01*
X0130214Y0063975D02*
X0124000Y0063975D01*
X0124000Y0065573D02*
X0130496Y0065573D01*
X0130778Y0067172D02*
X0124000Y0067172D01*
X0124000Y0068770D02*
X0131249Y0068770D01*
X0131830Y0070369D02*
X0124000Y0070369D01*
X0124000Y0071967D02*
X0132412Y0071967D01*
X0132994Y0073566D02*
X0124000Y0073566D01*
X0124000Y0075164D02*
X0133674Y0075164D01*
X0134597Y0076763D02*
X0124000Y0076763D01*
X0124000Y0078361D02*
X0135520Y0078361D01*
X0136443Y0079960D02*
X0124000Y0079960D01*
X0124000Y0081558D02*
X0137487Y0081558D01*
X0137100Y0081097D02*
X0137100Y0081097D01*
X0138828Y0083157D02*
X0124076Y0083157D01*
X0124332Y0084755D02*
X0140169Y0084755D01*
X0141510Y0086354D02*
X0124696Y0086354D01*
X0125131Y0087952D02*
X0143274Y0087952D01*
X0145179Y0089551D02*
X0125900Y0089551D01*
X0126670Y0091149D02*
X0147084Y0091149D01*
X0149664Y0092748D02*
X0127907Y0092748D01*
X0129182Y0094346D02*
X0152432Y0094346D01*
X0153897Y0095192D02*
X0153897Y0095192D01*
X0155965Y0095945D02*
X0131168Y0095945D01*
X0133725Y0097543D02*
X0160357Y0097543D01*
X0160836Y0097718D02*
X0160836Y0097718D01*
X0160467Y0092748D02*
X0239600Y0092748D01*
X0239600Y0094346D02*
X0167883Y0094346D01*
X0171800Y0096800D02*
X0221800Y0096800D01*
X0222559Y0099142D02*
X0138291Y0099142D01*
X0139025Y0103937D02*
X0079000Y0103937D01*
X0079000Y0102339D02*
X0133284Y0102339D01*
X0129965Y0100740D02*
X0079000Y0100740D01*
X0079000Y0099142D02*
X0127940Y0099142D01*
X0125960Y0097543D02*
X0079000Y0097543D01*
X0079048Y0095945D02*
X0124685Y0095945D01*
X0123411Y0094346D02*
X0079138Y0094346D01*
X0079486Y0092748D02*
X0122432Y0092748D01*
X0122884Y0093686D02*
X0122884Y0093686D01*
X0121662Y0091149D02*
X0079850Y0091149D01*
X0080215Y0089551D02*
X0120892Y0089551D01*
X0120433Y0087952D02*
X0080914Y0087952D01*
X0081684Y0086354D02*
X0120068Y0086354D01*
X0119704Y0084755D02*
X0082453Y0084755D01*
X0083701Y0083157D02*
X0119600Y0083157D01*
X0119600Y0081558D02*
X0084976Y0081558D01*
X0086578Y0079960D02*
X0119600Y0079960D01*
X0119600Y0078361D02*
X0088583Y0078361D01*
X0091189Y0076763D02*
X0119600Y0076763D01*
X0121800Y0081800D02*
X0121800Y0056800D01*
X0111800Y0056800D02*
X0111800Y0066800D01*
X0109563Y0067172D02*
X0044400Y0067172D01*
X0044400Y0068770D02*
X0108713Y0068770D01*
X0106800Y0071800D02*
X0106940Y0071798D01*
X0107080Y0071792D01*
X0107220Y0071782D01*
X0107360Y0071769D01*
X0107499Y0071751D01*
X0107638Y0071729D01*
X0107775Y0071704D01*
X0107913Y0071675D01*
X0108049Y0071642D01*
X0108184Y0071605D01*
X0108318Y0071564D01*
X0108451Y0071519D01*
X0108583Y0071471D01*
X0108713Y0071419D01*
X0108842Y0071364D01*
X0108969Y0071305D01*
X0109095Y0071242D01*
X0109219Y0071176D01*
X0109340Y0071107D01*
X0109460Y0071034D01*
X0109578Y0070957D01*
X0109693Y0070878D01*
X0109807Y0070795D01*
X0109917Y0070709D01*
X0110026Y0070620D01*
X0110132Y0070528D01*
X0110235Y0070433D01*
X0110336Y0070336D01*
X0110433Y0070235D01*
X0110528Y0070132D01*
X0110620Y0070026D01*
X0110709Y0069917D01*
X0110795Y0069807D01*
X0110878Y0069693D01*
X0110957Y0069578D01*
X0111034Y0069460D01*
X0111107Y0069340D01*
X0111176Y0069219D01*
X0111242Y0069095D01*
X0111305Y0068969D01*
X0111364Y0068842D01*
X0111419Y0068713D01*
X0111471Y0068583D01*
X0111519Y0068451D01*
X0111564Y0068318D01*
X0111605Y0068184D01*
X0111642Y0068049D01*
X0111675Y0067913D01*
X0111704Y0067775D01*
X0111729Y0067638D01*
X0111751Y0067499D01*
X0111769Y0067360D01*
X0111782Y0067220D01*
X0111792Y0067080D01*
X0111798Y0066940D01*
X0111800Y0066800D01*
X0109600Y0065573D02*
X0044400Y0065573D01*
X0044400Y0063975D02*
X0109600Y0063975D01*
X0109600Y0062376D02*
X0044400Y0062376D01*
X0044400Y0060778D02*
X0098565Y0060778D01*
X0105035Y0060778D02*
X0108565Y0060778D01*
X0107265Y0059179D02*
X0106335Y0059179D01*
X0101800Y0055942D02*
X0101803Y0055721D01*
X0101811Y0055500D01*
X0101824Y0055280D01*
X0101843Y0055060D01*
X0101867Y0054840D01*
X0101896Y0054621D01*
X0101930Y0054403D01*
X0101970Y0054186D01*
X0102015Y0053969D01*
X0102066Y0053754D01*
X0102121Y0053540D01*
X0102182Y0053328D01*
X0102247Y0053117D01*
X0102318Y0052908D01*
X0102394Y0052700D01*
X0102475Y0052495D01*
X0102561Y0052291D01*
X0102651Y0052090D01*
X0102747Y0051890D01*
X0102847Y0051694D01*
X0102952Y0051499D01*
X0103062Y0051307D01*
X0103176Y0051118D01*
X0103295Y0050932D01*
X0103418Y0050749D01*
X0103546Y0050568D01*
X0103678Y0050391D01*
X0103814Y0050217D01*
X0103955Y0050047D01*
X0104099Y0049880D01*
X0104248Y0049716D01*
X0104400Y0049556D01*
X0104556Y0049400D01*
X0104716Y0049248D01*
X0104880Y0049099D01*
X0105047Y0048955D01*
X0105217Y0048814D01*
X0105391Y0048678D01*
X0105568Y0048546D01*
X0105749Y0048418D01*
X0105932Y0048295D01*
X0106118Y0048176D01*
X0106307Y0048062D01*
X0106499Y0047952D01*
X0106694Y0047847D01*
X0106890Y0047747D01*
X0107090Y0047651D01*
X0107291Y0047561D01*
X0107495Y0047475D01*
X0107700Y0047394D01*
X0107908Y0047318D01*
X0108117Y0047247D01*
X0108328Y0047182D01*
X0108540Y0047121D01*
X0108754Y0047066D01*
X0108969Y0047015D01*
X0109186Y0046970D01*
X0109403Y0046930D01*
X0109621Y0046896D01*
X0109840Y0046867D01*
X0110060Y0046843D01*
X0110280Y0046824D01*
X0110500Y0046811D01*
X0110721Y0046803D01*
X0110942Y0046800D01*
X0108309Y0049588D02*
X0220622Y0049588D01*
X0222113Y0052785D02*
X0222431Y0052785D01*
X0222431Y0054384D02*
X0222113Y0054384D01*
X0222113Y0055982D02*
X0222431Y0055982D01*
X0222431Y0057581D02*
X0222113Y0057581D01*
X0222113Y0059179D02*
X0222431Y0059179D01*
X0224729Y0049729D02*
X0224559Y0049563D01*
X0224385Y0049400D01*
X0224207Y0049243D01*
X0224025Y0049089D01*
X0223840Y0048939D01*
X0223651Y0048795D01*
X0223459Y0048654D01*
X0223263Y0048519D01*
X0223064Y0048387D01*
X0222863Y0048261D01*
X0222658Y0048140D01*
X0222450Y0048023D01*
X0222240Y0047912D01*
X0222027Y0047805D01*
X0221812Y0047704D01*
X0221595Y0047607D01*
X0221375Y0047516D01*
X0221153Y0047431D01*
X0220929Y0047350D01*
X0220703Y0047275D01*
X0220475Y0047205D01*
X0220246Y0047141D01*
X0220016Y0047082D01*
X0219784Y0047029D01*
X0219551Y0046981D01*
X0219316Y0046938D01*
X0219081Y0046902D01*
X0218845Y0046871D01*
X0218609Y0046845D01*
X0218371Y0046825D01*
X0218134Y0046811D01*
X0217896Y0046803D01*
X0217658Y0046800D01*
X0213376Y0052785D02*
X0154998Y0052785D01*
X0156319Y0054384D02*
X0213376Y0054384D01*
X0213376Y0055982D02*
X0156900Y0055982D01*
X0156900Y0057581D02*
X0213376Y0057581D01*
X0213376Y0059179D02*
X0156335Y0059179D01*
X0155167Y0060778D02*
X0214600Y0060778D01*
X0214534Y0062376D02*
X0156368Y0062376D01*
X0158951Y0063975D02*
X0213509Y0063975D01*
X0211800Y0066800D02*
X0211940Y0066798D01*
X0212080Y0066792D01*
X0212220Y0066782D01*
X0212360Y0066769D01*
X0212499Y0066751D01*
X0212638Y0066729D01*
X0212775Y0066704D01*
X0212913Y0066675D01*
X0213049Y0066642D01*
X0213184Y0066605D01*
X0213318Y0066564D01*
X0213451Y0066519D01*
X0213583Y0066471D01*
X0213713Y0066419D01*
X0213842Y0066364D01*
X0213969Y0066305D01*
X0214095Y0066242D01*
X0214219Y0066176D01*
X0214340Y0066107D01*
X0214460Y0066034D01*
X0214578Y0065957D01*
X0214693Y0065878D01*
X0214807Y0065795D01*
X0214917Y0065709D01*
X0215026Y0065620D01*
X0215132Y0065528D01*
X0215235Y0065433D01*
X0215336Y0065336D01*
X0215433Y0065235D01*
X0215528Y0065132D01*
X0215620Y0065026D01*
X0215709Y0064917D01*
X0215795Y0064807D01*
X0215878Y0064693D01*
X0215957Y0064578D01*
X0216034Y0064460D01*
X0216107Y0064340D01*
X0216176Y0064219D01*
X0216242Y0064095D01*
X0216305Y0063969D01*
X0216364Y0063842D01*
X0216419Y0063713D01*
X0216471Y0063583D01*
X0216519Y0063451D01*
X0216564Y0063318D01*
X0216605Y0063184D01*
X0216642Y0063049D01*
X0216675Y0062913D01*
X0216704Y0062775D01*
X0216729Y0062638D01*
X0216751Y0062499D01*
X0216769Y0062360D01*
X0216782Y0062220D01*
X0216792Y0062080D01*
X0216798Y0061940D01*
X0216800Y0061800D01*
X0216800Y0056800D01*
X0216802Y0056749D01*
X0216807Y0056699D01*
X0216816Y0056649D01*
X0216829Y0056600D01*
X0216845Y0056552D01*
X0216864Y0056505D01*
X0216887Y0056460D01*
X0216913Y0056417D01*
X0216941Y0056375D01*
X0216973Y0056336D01*
X0217008Y0056299D01*
X0217045Y0056264D01*
X0217084Y0056232D01*
X0217126Y0056204D01*
X0217169Y0056178D01*
X0217214Y0056155D01*
X0217261Y0056136D01*
X0217309Y0056120D01*
X0217358Y0056107D01*
X0217408Y0056098D01*
X0217458Y0056093D01*
X0217509Y0056091D01*
X0217745Y0056091D01*
X0218692Y0063975D02*
X0259200Y0063975D01*
X0259200Y0065573D02*
X0224129Y0065573D01*
X0228348Y0067172D02*
X0259200Y0067172D01*
X0259200Y0068770D02*
X0231547Y0068770D01*
X0231363Y0068623D02*
X0231363Y0068623D01*
X0233551Y0070369D02*
X0259200Y0070369D01*
X0259200Y0071967D02*
X0235556Y0071967D01*
X0236155Y0072445D02*
X0236155Y0072445D01*
X0236155Y0072445D01*
X0237049Y0073566D02*
X0259200Y0073566D01*
X0259200Y0075164D02*
X0238324Y0075164D01*
X0239598Y0076763D02*
X0259200Y0076763D01*
X0259200Y0078361D02*
X0240518Y0078361D01*
X0239977Y0077237D02*
X0239977Y0077237D01*
X0241288Y0079960D02*
X0259200Y0079960D01*
X0259200Y0081558D02*
X0242058Y0081558D01*
X0242636Y0082760D02*
X0242636Y0082760D01*
X0242727Y0083157D02*
X0249370Y0083157D01*
X0249672Y0083031D02*
X0251172Y0083031D01*
X0252557Y0083605D01*
X0253617Y0084665D01*
X0254191Y0086050D01*
X0254191Y0087550D01*
X0253617Y0088935D01*
X0252557Y0089995D01*
X0251172Y0090568D01*
X0249672Y0090568D01*
X0248287Y0089995D01*
X0247227Y0088935D01*
X0246654Y0087550D01*
X0246654Y0086050D01*
X0247227Y0084665D01*
X0248287Y0083605D01*
X0249672Y0083031D01*
X0251474Y0083157D02*
X0259200Y0083157D01*
X0259200Y0084755D02*
X0253654Y0084755D01*
X0254191Y0086354D02*
X0259200Y0086354D01*
X0259200Y0087952D02*
X0254024Y0087952D01*
X0253001Y0089551D02*
X0259200Y0089551D01*
X0259200Y0091149D02*
X0244000Y0091149D01*
X0244000Y0089551D02*
X0247843Y0089551D01*
X0246820Y0087952D02*
X0243821Y0087952D01*
X0243456Y0086354D02*
X0246654Y0086354D01*
X0247190Y0084755D02*
X0243092Y0084755D01*
X0238796Y0086354D02*
X0206946Y0086354D01*
X0206946Y0086050D02*
X0206373Y0084665D01*
X0205313Y0083605D01*
X0203928Y0083031D01*
X0202428Y0083031D01*
X0201043Y0083605D01*
X0199983Y0084665D01*
X0199409Y0086050D01*
X0199409Y0087550D01*
X0199983Y0088935D01*
X0201043Y0089995D01*
X0202428Y0090568D01*
X0203928Y0090568D01*
X0205313Y0089995D01*
X0206373Y0088935D01*
X0206946Y0087550D01*
X0206946Y0086050D01*
X0206410Y0084755D02*
X0238431Y0084755D01*
X0237785Y0083157D02*
X0204230Y0083157D01*
X0202126Y0083157D02*
X0144759Y0083157D01*
X0143418Y0081558D02*
X0237015Y0081558D01*
X0236245Y0079960D02*
X0142077Y0079960D01*
X0121800Y0081800D02*
X0121806Y0082283D01*
X0121823Y0082766D01*
X0121853Y0083249D01*
X0121893Y0083730D01*
X0121946Y0084211D01*
X0122010Y0084690D01*
X0122085Y0085167D01*
X0122173Y0085643D01*
X0122271Y0086116D01*
X0122381Y0086586D01*
X0122502Y0087054D01*
X0122635Y0087519D01*
X0122779Y0087980D01*
X0122934Y0088438D01*
X0123100Y0088892D01*
X0123277Y0089342D01*
X0123464Y0089787D01*
X0123663Y0090228D01*
X0123871Y0090664D01*
X0124091Y0091094D01*
X0124321Y0091520D01*
X0124561Y0091939D01*
X0124811Y0092353D01*
X0125071Y0092760D01*
X0125340Y0093161D01*
X0125620Y0093556D01*
X0125908Y0093943D01*
X0126207Y0094324D01*
X0126514Y0094697D01*
X0126830Y0095062D01*
X0127155Y0095420D01*
X0127488Y0095770D01*
X0127830Y0096112D01*
X0128180Y0096445D01*
X0128538Y0096770D01*
X0128903Y0097086D01*
X0129276Y0097393D01*
X0129657Y0097692D01*
X0130044Y0097980D01*
X0130439Y0098260D01*
X0130840Y0098529D01*
X0131247Y0098789D01*
X0131661Y0099039D01*
X0132080Y0099279D01*
X0132506Y0099509D01*
X0132936Y0099729D01*
X0133372Y0099937D01*
X0133813Y0100136D01*
X0134258Y0100323D01*
X0134708Y0100500D01*
X0135162Y0100666D01*
X0135620Y0100821D01*
X0136081Y0100965D01*
X0136546Y0101098D01*
X0137014Y0101219D01*
X0137484Y0101329D01*
X0137957Y0101427D01*
X0138433Y0101515D01*
X0138910Y0101590D01*
X0139389Y0101654D01*
X0139870Y0101707D01*
X0140351Y0101747D01*
X0140834Y0101777D01*
X0141317Y0101794D01*
X0141800Y0101800D01*
X0147242Y0100740D02*
X0224334Y0100740D01*
X0224600Y0102339D02*
X0149534Y0102339D01*
X0150534Y0103066D02*
X0150534Y0103066D01*
X0150534Y0103066D01*
X0151168Y0103937D02*
X0224600Y0103937D01*
X0224600Y0105536D02*
X0152329Y0105536D01*
X0152806Y0106192D02*
X0152806Y0106192D01*
X0153112Y0107134D02*
X0224600Y0107134D01*
X0224600Y0108733D02*
X0153631Y0108733D01*
X0154000Y0110332D02*
X0224600Y0110332D01*
X0224600Y0111930D02*
X0154000Y0111930D01*
X0154000Y0113529D02*
X0224600Y0113529D01*
X0224600Y0115127D02*
X0154000Y0115127D01*
X0155351Y0116726D02*
X0156738Y0116726D01*
X0160671Y0116726D02*
X0161039Y0116726D01*
X0161039Y0118324D02*
X0160671Y0118324D01*
X0160671Y0119923D02*
X0161039Y0119923D01*
X0161039Y0121276D02*
X0165624Y0121276D01*
X0165624Y0124297D01*
X0165501Y0124755D01*
X0165264Y0125165D01*
X0164929Y0125500D01*
X0164518Y0125737D01*
X0164061Y0125860D01*
X0161039Y0125860D01*
X0161039Y0121276D01*
X0161039Y0121521D02*
X0160671Y0121521D01*
X0160671Y0123120D02*
X0161039Y0123120D01*
X0161039Y0124718D02*
X0160671Y0124718D01*
X0156800Y0136800D02*
X0156460Y0136796D01*
X0156121Y0136784D01*
X0155782Y0136763D01*
X0155443Y0136734D01*
X0155106Y0136698D01*
X0154769Y0136653D01*
X0154434Y0136599D01*
X0154100Y0136538D01*
X0153767Y0136469D01*
X0153436Y0136392D01*
X0153108Y0136306D01*
X0152781Y0136213D01*
X0152457Y0136112D01*
X0152135Y0136003D01*
X0151816Y0135887D01*
X0151500Y0135762D01*
X0151187Y0135631D01*
X0150877Y0135491D01*
X0150571Y0135344D01*
X0150268Y0135190D01*
X0149970Y0135029D01*
X0149675Y0134860D01*
X0149384Y0134684D01*
X0149098Y0134502D01*
X0148816Y0134312D01*
X0148539Y0134116D01*
X0148266Y0133913D01*
X0147999Y0133703D01*
X0147737Y0133487D01*
X0147480Y0133265D01*
X0147228Y0133037D01*
X0146982Y0132803D01*
X0146742Y0132563D01*
X0146508Y0132317D01*
X0146280Y0132065D01*
X0146058Y0131808D01*
X0145842Y0131546D01*
X0145632Y0131279D01*
X0145429Y0131006D01*
X0145233Y0130729D01*
X0145043Y0130447D01*
X0144861Y0130161D01*
X0144685Y0129870D01*
X0144516Y0129575D01*
X0144355Y0129277D01*
X0144201Y0128974D01*
X0144054Y0128668D01*
X0143914Y0128358D01*
X0143783Y0128045D01*
X0143658Y0127729D01*
X0143542Y0127410D01*
X0143433Y0127088D01*
X0143332Y0126764D01*
X0143239Y0126437D01*
X0143153Y0126109D01*
X0143076Y0125778D01*
X0143007Y0125445D01*
X0142946Y0125111D01*
X0142892Y0124776D01*
X0142847Y0124439D01*
X0142811Y0124102D01*
X0142782Y0123763D01*
X0142761Y0123424D01*
X0142749Y0123085D01*
X0142745Y0122745D01*
X0142745Y0121091D01*
X0147113Y0121521D02*
X0147431Y0121521D01*
X0147431Y0119923D02*
X0147113Y0119923D01*
X0147113Y0118324D02*
X0147431Y0118324D01*
X0148249Y0116726D02*
X0146296Y0116726D01*
X0149600Y0115127D02*
X0079000Y0115127D01*
X0079000Y0113529D02*
X0149600Y0113529D01*
X0149600Y0111930D02*
X0079000Y0111930D01*
X0079000Y0110332D02*
X0149423Y0110332D01*
X0148904Y0108733D02*
X0079000Y0108733D01*
X0079000Y0107134D02*
X0147933Y0107134D01*
X0146285Y0105536D02*
X0079000Y0105536D01*
X0076800Y0096800D02*
X0076800Y0121091D01*
X0072431Y0121521D02*
X0072113Y0121521D01*
X0072113Y0119923D02*
X0072431Y0119923D01*
X0072431Y0118324D02*
X0072113Y0118324D01*
X0071296Y0116726D02*
X0073249Y0116726D01*
X0067745Y0121091D02*
X0067745Y0122745D01*
X0072113Y0123120D02*
X0072431Y0123120D01*
X0072510Y0124718D02*
X0072035Y0124718D01*
X0070589Y0126317D02*
X0140929Y0126317D01*
X0141357Y0127915D02*
X0071213Y0127915D01*
X0072136Y0129514D02*
X0141938Y0129514D01*
X0141653Y0129019D02*
X0141653Y0129019D01*
X0142861Y0131112D02*
X0073545Y0131112D01*
X0075554Y0132711D02*
X0143784Y0132711D01*
X0145376Y0134309D02*
X0079546Y0134309D01*
X0081800Y0136800D02*
X0156800Y0136800D01*
X0221800Y0136800D01*
X0246800Y0136800D01*
X0247918Y0134309D02*
X0220682Y0134309D01*
X0219205Y0132711D02*
X0249395Y0132711D01*
X0249600Y0131112D02*
X0219000Y0131112D01*
X0219000Y0129514D02*
X0249600Y0129514D01*
X0249600Y0127915D02*
X0219000Y0127915D01*
X0219000Y0126317D02*
X0249600Y0126317D01*
X0249600Y0124718D02*
X0240511Y0124718D01*
X0240501Y0124755D02*
X0240264Y0125165D01*
X0239929Y0125500D01*
X0239518Y0125737D01*
X0239061Y0125860D01*
X0236039Y0125860D01*
X0236039Y0121276D01*
X0240624Y0121276D01*
X0240624Y0124297D01*
X0240501Y0124755D01*
X0240624Y0123120D02*
X0249600Y0123120D01*
X0249600Y0121521D02*
X0240624Y0121521D01*
X0240624Y0119923D02*
X0249600Y0119923D01*
X0249600Y0118324D02*
X0240624Y0118324D01*
X0239972Y0116726D02*
X0249600Y0116726D01*
X0249600Y0115127D02*
X0229000Y0115127D01*
X0229000Y0113529D02*
X0249600Y0113529D01*
X0249600Y0111930D02*
X0229000Y0111930D01*
X0229000Y0110332D02*
X0249164Y0110332D01*
X0251800Y0111800D02*
X0251798Y0111660D01*
X0251792Y0111520D01*
X0251782Y0111380D01*
X0251769Y0111240D01*
X0251751Y0111101D01*
X0251729Y0110962D01*
X0251704Y0110825D01*
X0251675Y0110687D01*
X0251642Y0110551D01*
X0251605Y0110416D01*
X0251564Y0110282D01*
X0251519Y0110149D01*
X0251471Y0110017D01*
X0251419Y0109887D01*
X0251364Y0109758D01*
X0251305Y0109631D01*
X0251242Y0109505D01*
X0251176Y0109381D01*
X0251107Y0109260D01*
X0251034Y0109140D01*
X0250957Y0109022D01*
X0250878Y0108907D01*
X0250795Y0108793D01*
X0250709Y0108683D01*
X0250620Y0108574D01*
X0250528Y0108468D01*
X0250433Y0108365D01*
X0250336Y0108264D01*
X0250235Y0108167D01*
X0250132Y0108072D01*
X0250026Y0107980D01*
X0249917Y0107891D01*
X0249807Y0107805D01*
X0249693Y0107722D01*
X0249578Y0107643D01*
X0249460Y0107566D01*
X0249340Y0107493D01*
X0249219Y0107424D01*
X0249095Y0107358D01*
X0248969Y0107295D01*
X0248842Y0107236D01*
X0248713Y0107181D01*
X0248583Y0107129D01*
X0248451Y0107081D01*
X0248318Y0107036D01*
X0248184Y0106995D01*
X0248049Y0106958D01*
X0247913Y0106925D01*
X0247775Y0106896D01*
X0247638Y0106871D01*
X0247499Y0106849D01*
X0247360Y0106831D01*
X0247220Y0106818D01*
X0247080Y0106808D01*
X0246940Y0106802D01*
X0246800Y0106800D01*
X0244723Y0108733D02*
X0229000Y0108733D01*
X0229000Y0107134D02*
X0241952Y0107134D01*
X0240696Y0105878D02*
X0240696Y0105878D01*
X0240696Y0105878D01*
X0240554Y0105536D02*
X0229000Y0105536D01*
X0229000Y0103937D02*
X0239892Y0103937D01*
X0239600Y0102339D02*
X0229000Y0102339D01*
X0229000Y0100740D02*
X0239600Y0100740D01*
X0239600Y0099142D02*
X0228492Y0099142D01*
X0227904Y0097722D02*
X0227904Y0097722D01*
X0227726Y0097543D02*
X0239600Y0097543D01*
X0239600Y0095945D02*
X0226127Y0095945D01*
X0226800Y0101800D02*
X0226800Y0121091D01*
X0222431Y0121521D02*
X0222113Y0121521D01*
X0222113Y0119923D02*
X0222431Y0119923D01*
X0222431Y0118324D02*
X0222113Y0118324D01*
X0221296Y0116726D02*
X0223249Y0116726D01*
X0217745Y0121091D02*
X0217509Y0121091D01*
X0217458Y0121093D01*
X0217408Y0121098D01*
X0217358Y0121107D01*
X0217309Y0121120D01*
X0217261Y0121136D01*
X0217214Y0121155D01*
X0217169Y0121178D01*
X0217126Y0121204D01*
X0217084Y0121232D01*
X0217045Y0121264D01*
X0217008Y0121299D01*
X0216973Y0121336D01*
X0216941Y0121375D01*
X0216913Y0121417D01*
X0216887Y0121460D01*
X0216864Y0121505D01*
X0216845Y0121552D01*
X0216829Y0121600D01*
X0216816Y0121649D01*
X0216807Y0121699D01*
X0216802Y0121749D01*
X0216800Y0121800D01*
X0216800Y0131800D01*
X0214600Y0131112D02*
X0148545Y0131112D01*
X0147136Y0129514D02*
X0214600Y0129514D01*
X0214600Y0127915D02*
X0146213Y0127915D01*
X0145589Y0126317D02*
X0214600Y0126317D01*
X0213455Y0124718D02*
X0165511Y0124718D01*
X0165624Y0123120D02*
X0213376Y0123120D01*
X0213376Y0121521D02*
X0165624Y0121521D01*
X0165624Y0119923D02*
X0213376Y0119923D01*
X0213376Y0118324D02*
X0165624Y0118324D01*
X0164972Y0116726D02*
X0214194Y0116726D01*
X0222113Y0123120D02*
X0222431Y0123120D01*
X0222510Y0124718D02*
X0222035Y0124718D01*
X0216800Y0131800D02*
X0216802Y0131940D01*
X0216808Y0132080D01*
X0216818Y0132220D01*
X0216831Y0132360D01*
X0216849Y0132499D01*
X0216871Y0132638D01*
X0216896Y0132775D01*
X0216925Y0132913D01*
X0216958Y0133049D01*
X0216995Y0133184D01*
X0217036Y0133318D01*
X0217081Y0133451D01*
X0217129Y0133583D01*
X0217181Y0133713D01*
X0217236Y0133842D01*
X0217295Y0133969D01*
X0217358Y0134095D01*
X0217424Y0134219D01*
X0217493Y0134340D01*
X0217566Y0134460D01*
X0217643Y0134578D01*
X0217722Y0134693D01*
X0217805Y0134807D01*
X0217891Y0134917D01*
X0217980Y0135026D01*
X0218072Y0135132D01*
X0218167Y0135235D01*
X0218264Y0135336D01*
X0218365Y0135433D01*
X0218468Y0135528D01*
X0218574Y0135620D01*
X0218683Y0135709D01*
X0218793Y0135795D01*
X0218907Y0135878D01*
X0219022Y0135957D01*
X0219140Y0136034D01*
X0219260Y0136107D01*
X0219381Y0136176D01*
X0219505Y0136242D01*
X0219631Y0136305D01*
X0219758Y0136364D01*
X0219887Y0136419D01*
X0220017Y0136471D01*
X0220149Y0136519D01*
X0220282Y0136564D01*
X0220416Y0136605D01*
X0220551Y0136642D01*
X0220687Y0136675D01*
X0220825Y0136704D01*
X0220962Y0136729D01*
X0221101Y0136751D01*
X0221240Y0136769D01*
X0221380Y0136782D01*
X0221520Y0136792D01*
X0221660Y0136798D01*
X0221800Y0136800D01*
X0215046Y0134309D02*
X0154546Y0134309D01*
X0150554Y0132711D02*
X0214600Y0132711D01*
X0231090Y0124718D02*
X0231200Y0124718D01*
X0235671Y0124718D02*
X0236039Y0124718D01*
X0236039Y0123120D02*
X0235671Y0123120D01*
X0235671Y0121521D02*
X0236039Y0121521D01*
X0236039Y0119923D02*
X0235671Y0119923D01*
X0235671Y0118324D02*
X0236039Y0118324D01*
X0236039Y0116726D02*
X0235671Y0116726D01*
X0231738Y0116726D02*
X0230351Y0116726D01*
X0245054Y0103937D02*
X0259200Y0103937D01*
X0259200Y0102339D02*
X0244053Y0102339D01*
X0244000Y0100740D02*
X0259200Y0100740D01*
X0259200Y0099142D02*
X0244000Y0099142D01*
X0244000Y0097543D02*
X0259200Y0097543D01*
X0259200Y0095945D02*
X0244000Y0095945D01*
X0244000Y0094346D02*
X0259200Y0094346D01*
X0259200Y0092748D02*
X0244000Y0092748D01*
X0241800Y0091800D02*
X0241800Y0101800D01*
X0241802Y0101940D01*
X0241808Y0102080D01*
X0241818Y0102220D01*
X0241831Y0102360D01*
X0241849Y0102499D01*
X0241871Y0102638D01*
X0241896Y0102775D01*
X0241925Y0102913D01*
X0241958Y0103049D01*
X0241995Y0103184D01*
X0242036Y0103318D01*
X0242081Y0103451D01*
X0242129Y0103583D01*
X0242181Y0103713D01*
X0242236Y0103842D01*
X0242295Y0103969D01*
X0242358Y0104095D01*
X0242424Y0104219D01*
X0242493Y0104340D01*
X0242566Y0104460D01*
X0242643Y0104578D01*
X0242722Y0104693D01*
X0242805Y0104807D01*
X0242891Y0104917D01*
X0242980Y0105026D01*
X0243072Y0105132D01*
X0243167Y0105235D01*
X0243264Y0105336D01*
X0243365Y0105433D01*
X0243468Y0105528D01*
X0243574Y0105620D01*
X0243683Y0105709D01*
X0243793Y0105795D01*
X0243907Y0105878D01*
X0244022Y0105957D01*
X0244140Y0106034D01*
X0244260Y0106107D01*
X0244381Y0106176D01*
X0244505Y0106242D01*
X0244631Y0106305D01*
X0244758Y0106364D01*
X0244887Y0106419D01*
X0245017Y0106471D01*
X0245149Y0106519D01*
X0245282Y0106564D01*
X0245416Y0106605D01*
X0245551Y0106642D01*
X0245687Y0106675D01*
X0245825Y0106704D01*
X0245962Y0106729D01*
X0246101Y0106751D01*
X0246240Y0106769D01*
X0246380Y0106782D01*
X0246520Y0106792D01*
X0246660Y0106798D01*
X0246800Y0106800D01*
X0250492Y0105536D02*
X0259200Y0105536D01*
X0259200Y0107134D02*
X0252317Y0107134D01*
X0252904Y0107722D02*
X0252904Y0107722D01*
X0253323Y0108733D02*
X0259200Y0108733D01*
X0259200Y0110332D02*
X0253985Y0110332D01*
X0254000Y0111930D02*
X0259200Y0111930D01*
X0259200Y0113529D02*
X0254000Y0113529D01*
X0254000Y0115127D02*
X0259200Y0115127D01*
X0259200Y0116726D02*
X0254000Y0116726D01*
X0254000Y0118324D02*
X0259200Y0118324D01*
X0259200Y0119923D02*
X0254000Y0119923D01*
X0254000Y0121521D02*
X0259200Y0121521D01*
X0259200Y0123120D02*
X0254000Y0123120D01*
X0254000Y0124718D02*
X0259200Y0124718D01*
X0259200Y0126317D02*
X0254000Y0126317D01*
X0254000Y0127915D02*
X0259200Y0127915D01*
X0259200Y0129514D02*
X0254000Y0129514D01*
X0254000Y0131112D02*
X0259200Y0131112D01*
X0259200Y0132711D02*
X0254000Y0132711D01*
X0253554Y0134309D02*
X0259200Y0134309D01*
X0259200Y0135908D02*
X0252875Y0135908D01*
X0251276Y0137506D02*
X0259200Y0137506D01*
X0250878Y0137904D02*
X0250878Y0137904D01*
X0251800Y0131800D02*
X0251800Y0111800D01*
X0251800Y0131800D02*
X0251798Y0131940D01*
X0251792Y0132080D01*
X0251782Y0132220D01*
X0251769Y0132360D01*
X0251751Y0132499D01*
X0251729Y0132638D01*
X0251704Y0132775D01*
X0251675Y0132913D01*
X0251642Y0133049D01*
X0251605Y0133184D01*
X0251564Y0133318D01*
X0251519Y0133451D01*
X0251471Y0133583D01*
X0251419Y0133713D01*
X0251364Y0133842D01*
X0251305Y0133969D01*
X0251242Y0134095D01*
X0251176Y0134219D01*
X0251107Y0134340D01*
X0251034Y0134460D01*
X0250957Y0134578D01*
X0250878Y0134693D01*
X0250795Y0134807D01*
X0250709Y0134917D01*
X0250620Y0135026D01*
X0250528Y0135132D01*
X0250433Y0135235D01*
X0250336Y0135336D01*
X0250235Y0135433D01*
X0250132Y0135528D01*
X0250026Y0135620D01*
X0249917Y0135709D01*
X0249807Y0135795D01*
X0249693Y0135878D01*
X0249578Y0135957D01*
X0249460Y0136034D01*
X0249340Y0136107D01*
X0249219Y0136176D01*
X0249095Y0136242D01*
X0248969Y0136305D01*
X0248842Y0136364D01*
X0248713Y0136419D01*
X0248583Y0136471D01*
X0248451Y0136519D01*
X0248318Y0136564D01*
X0248184Y0136605D01*
X0248049Y0136642D01*
X0247913Y0136675D01*
X0247775Y0136704D01*
X0247638Y0136729D01*
X0247499Y0136751D01*
X0247360Y0136769D01*
X0247220Y0136782D01*
X0247080Y0136792D01*
X0246940Y0136798D01*
X0246800Y0136800D01*
X0261800Y0166800D02*
X0261797Y0167042D01*
X0261788Y0167283D01*
X0261774Y0167524D01*
X0261753Y0167765D01*
X0261727Y0168005D01*
X0261695Y0168245D01*
X0261657Y0168484D01*
X0261614Y0168721D01*
X0261564Y0168958D01*
X0261509Y0169193D01*
X0261449Y0169427D01*
X0261382Y0169659D01*
X0261311Y0169890D01*
X0261233Y0170119D01*
X0261150Y0170346D01*
X0261062Y0170571D01*
X0260968Y0170794D01*
X0260869Y0171014D01*
X0260764Y0171232D01*
X0260655Y0171447D01*
X0260540Y0171660D01*
X0260420Y0171870D01*
X0260295Y0172076D01*
X0260165Y0172280D01*
X0260030Y0172481D01*
X0259890Y0172678D01*
X0259746Y0172872D01*
X0259597Y0173062D01*
X0259443Y0173248D01*
X0259285Y0173431D01*
X0259123Y0173610D01*
X0258956Y0173785D01*
X0258785Y0173956D01*
X0258610Y0174123D01*
X0258431Y0174285D01*
X0258248Y0174443D01*
X0258062Y0174597D01*
X0257872Y0174746D01*
X0257678Y0174890D01*
X0257481Y0175030D01*
X0257280Y0175165D01*
X0257076Y0175295D01*
X0256870Y0175420D01*
X0256660Y0175540D01*
X0256447Y0175655D01*
X0256232Y0175764D01*
X0256014Y0175869D01*
X0255794Y0175968D01*
X0255571Y0176062D01*
X0255346Y0176150D01*
X0255119Y0176233D01*
X0254890Y0176311D01*
X0254659Y0176382D01*
X0254427Y0176449D01*
X0254193Y0176509D01*
X0253958Y0176564D01*
X0253721Y0176614D01*
X0253484Y0176657D01*
X0253245Y0176695D01*
X0253005Y0176727D01*
X0252765Y0176753D01*
X0252524Y0176774D01*
X0252283Y0176788D01*
X0252042Y0176797D01*
X0251800Y0176800D01*
X0051800Y0176800D01*
X0047449Y0172673D02*
X0256150Y0172673D01*
X0257728Y0171075D02*
X0045872Y0171075D01*
X0044985Y0169476D02*
X0258615Y0169476D01*
X0259115Y0167878D02*
X0044485Y0167878D01*
X0041800Y0166800D02*
X0041803Y0167042D01*
X0041812Y0167283D01*
X0041826Y0167524D01*
X0041847Y0167765D01*
X0041873Y0168005D01*
X0041905Y0168245D01*
X0041943Y0168484D01*
X0041986Y0168721D01*
X0042036Y0168958D01*
X0042091Y0169193D01*
X0042151Y0169427D01*
X0042218Y0169659D01*
X0042289Y0169890D01*
X0042367Y0170119D01*
X0042450Y0170346D01*
X0042538Y0170571D01*
X0042632Y0170794D01*
X0042731Y0171014D01*
X0042836Y0171232D01*
X0042945Y0171447D01*
X0043060Y0171660D01*
X0043180Y0171870D01*
X0043305Y0172076D01*
X0043435Y0172280D01*
X0043570Y0172481D01*
X0043710Y0172678D01*
X0043854Y0172872D01*
X0044003Y0173062D01*
X0044157Y0173248D01*
X0044315Y0173431D01*
X0044477Y0173610D01*
X0044644Y0173785D01*
X0044815Y0173956D01*
X0044990Y0174123D01*
X0045169Y0174285D01*
X0045352Y0174443D01*
X0045538Y0174597D01*
X0045728Y0174746D01*
X0045922Y0174890D01*
X0046119Y0175030D01*
X0046320Y0175165D01*
X0046524Y0175295D01*
X0046730Y0175420D01*
X0046940Y0175540D01*
X0047153Y0175655D01*
X0047368Y0175764D01*
X0047586Y0175869D01*
X0047806Y0175968D01*
X0048029Y0176062D01*
X0048254Y0176150D01*
X0048481Y0176233D01*
X0048710Y0176311D01*
X0048941Y0176382D01*
X0049173Y0176449D01*
X0049407Y0176509D01*
X0049642Y0176564D01*
X0049879Y0176614D01*
X0050116Y0176657D01*
X0050355Y0176695D01*
X0050595Y0176727D01*
X0050835Y0176753D01*
X0051076Y0176774D01*
X0051317Y0176788D01*
X0051558Y0176797D01*
X0051800Y0176800D01*
X0086039Y0125860D02*
X0086039Y0121276D01*
X0090624Y0121276D01*
X0090624Y0124297D01*
X0090501Y0124755D01*
X0090264Y0125165D01*
X0089929Y0125500D01*
X0089518Y0125737D01*
X0089061Y0125860D01*
X0086039Y0125860D01*
X0086039Y0124718D02*
X0085671Y0124718D01*
X0085671Y0123120D02*
X0086039Y0123120D01*
X0086039Y0121521D02*
X0085671Y0121521D01*
X0085671Y0119923D02*
X0086039Y0119923D01*
X0086039Y0118324D02*
X0085671Y0118324D01*
X0085671Y0116726D02*
X0086039Y0116726D01*
X0089972Y0116726D02*
X0139194Y0116726D01*
X0138376Y0118324D02*
X0090624Y0118324D01*
X0090624Y0119923D02*
X0138376Y0119923D01*
X0138376Y0121521D02*
X0090624Y0121521D01*
X0090624Y0123120D02*
X0138376Y0123120D01*
X0138455Y0124718D02*
X0090511Y0124718D01*
X0081800Y0136800D02*
X0081460Y0136796D01*
X0081121Y0136784D01*
X0080782Y0136763D01*
X0080443Y0136734D01*
X0080106Y0136698D01*
X0079769Y0136653D01*
X0079434Y0136599D01*
X0079100Y0136538D01*
X0078767Y0136469D01*
X0078436Y0136392D01*
X0078108Y0136306D01*
X0077781Y0136213D01*
X0077457Y0136112D01*
X0077135Y0136003D01*
X0076816Y0135887D01*
X0076500Y0135762D01*
X0076187Y0135631D01*
X0075877Y0135491D01*
X0075571Y0135344D01*
X0075268Y0135190D01*
X0074970Y0135029D01*
X0074675Y0134860D01*
X0074384Y0134684D01*
X0074098Y0134502D01*
X0073816Y0134312D01*
X0073539Y0134116D01*
X0073266Y0133913D01*
X0072999Y0133703D01*
X0072737Y0133487D01*
X0072480Y0133265D01*
X0072228Y0133037D01*
X0071982Y0132803D01*
X0071742Y0132563D01*
X0071508Y0132317D01*
X0071280Y0132065D01*
X0071058Y0131808D01*
X0070842Y0131546D01*
X0070632Y0131279D01*
X0070429Y0131006D01*
X0070233Y0130729D01*
X0070043Y0130447D01*
X0069861Y0130161D01*
X0069685Y0129870D01*
X0069516Y0129575D01*
X0069355Y0129277D01*
X0069201Y0128974D01*
X0069054Y0128668D01*
X0068914Y0128358D01*
X0068783Y0128045D01*
X0068658Y0127729D01*
X0068542Y0127410D01*
X0068433Y0127088D01*
X0068332Y0126764D01*
X0068239Y0126437D01*
X0068153Y0126109D01*
X0068076Y0125778D01*
X0068007Y0125445D01*
X0067946Y0125111D01*
X0067892Y0124776D01*
X0067847Y0124439D01*
X0067811Y0124102D01*
X0067782Y0123763D01*
X0067761Y0123424D01*
X0067749Y0123085D01*
X0067745Y0122745D01*
X0081090Y0124718D02*
X0081200Y0124718D01*
X0081738Y0116726D02*
X0080351Y0116726D01*
X0076800Y0096800D02*
X0076807Y0096196D01*
X0076829Y0095592D01*
X0076866Y0094989D01*
X0076917Y0094387D01*
X0076982Y0093787D01*
X0077062Y0093188D01*
X0077157Y0092591D01*
X0077266Y0091997D01*
X0077389Y0091405D01*
X0077526Y0090817D01*
X0077678Y0090232D01*
X0077844Y0089651D01*
X0078024Y0089075D01*
X0078217Y0088502D01*
X0078425Y0087935D01*
X0078646Y0087373D01*
X0078880Y0086816D01*
X0079128Y0086265D01*
X0079389Y0085720D01*
X0079664Y0085182D01*
X0079951Y0084650D01*
X0080251Y0084126D01*
X0080563Y0083609D01*
X0080888Y0083100D01*
X0081225Y0082598D01*
X0081575Y0082105D01*
X0081936Y0081621D01*
X0082308Y0081145D01*
X0082692Y0080679D01*
X0083087Y0080222D01*
X0083493Y0079775D01*
X0083910Y0079337D01*
X0084337Y0078910D01*
X0084775Y0078493D01*
X0085222Y0078087D01*
X0085679Y0077692D01*
X0086145Y0077308D01*
X0086621Y0076936D01*
X0087105Y0076575D01*
X0087598Y0076225D01*
X0088100Y0075888D01*
X0088609Y0075563D01*
X0089126Y0075251D01*
X0089650Y0074951D01*
X0090182Y0074664D01*
X0090720Y0074389D01*
X0091265Y0074128D01*
X0091816Y0073880D01*
X0092373Y0073646D01*
X0092935Y0073425D01*
X0093502Y0073217D01*
X0094075Y0073024D01*
X0094651Y0072844D01*
X0095232Y0072678D01*
X0095817Y0072526D01*
X0096405Y0072389D01*
X0096997Y0072266D01*
X0097591Y0072157D01*
X0098188Y0072062D01*
X0098787Y0071982D01*
X0099387Y0071917D01*
X0099989Y0071866D01*
X0100592Y0071829D01*
X0101196Y0071807D01*
X0101800Y0071800D01*
X0106800Y0071800D01*
X0105729Y0045710D02*
X0105729Y0045710D01*
X0134998Y0052785D02*
X0138037Y0052785D01*
X0136858Y0054384D02*
X0136319Y0054384D01*
X0136335Y0059179D02*
X0136839Y0059179D01*
X0138000Y0060778D02*
X0135035Y0060778D01*
X0134546Y0062376D02*
X0150784Y0062376D01*
X0151933Y0063975D02*
X0134828Y0063975D01*
X0135110Y0065573D02*
X0153119Y0065573D01*
X0153066Y0065534D02*
X0153066Y0065534D01*
X0153066Y0065534D01*
X0155320Y0067172D02*
X0135502Y0067172D01*
X0136084Y0068770D02*
X0159161Y0068770D01*
X0156192Y0067806D02*
X0156192Y0067806D01*
X0161800Y0066800D02*
X0211800Y0066800D01*
X0216800Y0066800D01*
X0224516Y0070369D02*
X0136666Y0070369D01*
X0137248Y0071967D02*
X0227835Y0071967D01*
X0230273Y0073566D02*
X0137998Y0073566D01*
X0137542Y0072775D02*
X0137542Y0072775D01*
X0138921Y0075164D02*
X0232278Y0075164D01*
X0233787Y0076763D02*
X0139844Y0076763D01*
X0140767Y0078361D02*
X0235062Y0078361D01*
X0239161Y0087952D02*
X0206780Y0087952D01*
X0205757Y0089551D02*
X0239474Y0089551D01*
X0239563Y0091149D02*
X0156075Y0091149D01*
X0153214Y0089551D02*
X0200599Y0089551D01*
X0199576Y0087952D02*
X0150445Y0087952D01*
X0148438Y0086354D02*
X0199409Y0086354D01*
X0199946Y0084755D02*
X0146533Y0084755D01*
X0147408Y0100794D02*
X0147408Y0100794D01*
X0151800Y0111800D02*
X0151800Y0121091D01*
X0147431Y0123120D02*
X0147113Y0123120D01*
X0147035Y0124718D02*
X0147510Y0124718D01*
X0156090Y0124718D02*
X0156200Y0124718D01*
X0151800Y0111800D02*
X0151797Y0111558D01*
X0151788Y0111317D01*
X0151774Y0111076D01*
X0151753Y0110835D01*
X0151727Y0110595D01*
X0151695Y0110355D01*
X0151657Y0110116D01*
X0151614Y0109879D01*
X0151564Y0109642D01*
X0151509Y0109407D01*
X0151449Y0109173D01*
X0151382Y0108941D01*
X0151311Y0108710D01*
X0151233Y0108481D01*
X0151150Y0108254D01*
X0151062Y0108029D01*
X0150968Y0107806D01*
X0150869Y0107586D01*
X0150764Y0107368D01*
X0150655Y0107153D01*
X0150540Y0106940D01*
X0150420Y0106730D01*
X0150295Y0106524D01*
X0150165Y0106320D01*
X0150030Y0106119D01*
X0149890Y0105922D01*
X0149746Y0105728D01*
X0149597Y0105538D01*
X0149443Y0105352D01*
X0149285Y0105169D01*
X0149123Y0104990D01*
X0148956Y0104815D01*
X0148785Y0104644D01*
X0148610Y0104477D01*
X0148431Y0104315D01*
X0148248Y0104157D01*
X0148062Y0104003D01*
X0147872Y0103854D01*
X0147678Y0103710D01*
X0147481Y0103570D01*
X0147280Y0103435D01*
X0147076Y0103305D01*
X0146870Y0103180D01*
X0146660Y0103060D01*
X0146447Y0102945D01*
X0146232Y0102836D01*
X0146014Y0102731D01*
X0145794Y0102632D01*
X0145571Y0102538D01*
X0145346Y0102450D01*
X0145119Y0102367D01*
X0144890Y0102289D01*
X0144659Y0102218D01*
X0144427Y0102151D01*
X0144193Y0102091D01*
X0143958Y0102036D01*
X0143721Y0101986D01*
X0143484Y0101943D01*
X0143245Y0101905D01*
X0143005Y0101873D01*
X0142765Y0101847D01*
X0142524Y0101826D01*
X0142283Y0101812D01*
X0142042Y0101803D01*
X0141800Y0101800D01*
X0141600Y0060778D02*
X0142000Y0060778D01*
X0142000Y0059179D02*
X0141600Y0059179D01*
X0141600Y0057581D02*
X0142000Y0057581D01*
X0142000Y0055982D02*
X0141600Y0055982D01*
X0141600Y0054384D02*
X0142000Y0054384D01*
X0142000Y0052785D02*
X0141600Y0052785D01*
X0145563Y0052785D02*
X0148602Y0052785D01*
X0147281Y0054384D02*
X0146742Y0054384D01*
X0146761Y0059179D02*
X0147265Y0059179D01*
X0148565Y0060778D02*
X0145600Y0060778D01*
X0151800Y0056800D02*
X0151803Y0057042D01*
X0151812Y0057283D01*
X0151826Y0057524D01*
X0151847Y0057765D01*
X0151873Y0058005D01*
X0151905Y0058245D01*
X0151943Y0058484D01*
X0151986Y0058721D01*
X0152036Y0058958D01*
X0152091Y0059193D01*
X0152151Y0059427D01*
X0152218Y0059659D01*
X0152289Y0059890D01*
X0152367Y0060119D01*
X0152450Y0060346D01*
X0152538Y0060571D01*
X0152632Y0060794D01*
X0152731Y0061014D01*
X0152836Y0061232D01*
X0152945Y0061447D01*
X0153060Y0061660D01*
X0153180Y0061870D01*
X0153305Y0062076D01*
X0153435Y0062280D01*
X0153570Y0062481D01*
X0153710Y0062678D01*
X0153854Y0062872D01*
X0154003Y0063062D01*
X0154157Y0063248D01*
X0154315Y0063431D01*
X0154477Y0063610D01*
X0154644Y0063785D01*
X0154815Y0063956D01*
X0154990Y0064123D01*
X0155169Y0064285D01*
X0155352Y0064443D01*
X0155538Y0064597D01*
X0155728Y0064746D01*
X0155922Y0064890D01*
X0156119Y0065030D01*
X0156320Y0065165D01*
X0156524Y0065295D01*
X0156730Y0065420D01*
X0156940Y0065540D01*
X0157153Y0065655D01*
X0157368Y0065764D01*
X0157586Y0065869D01*
X0157806Y0065968D01*
X0158029Y0066062D01*
X0158254Y0066150D01*
X0158481Y0066233D01*
X0158710Y0066311D01*
X0158941Y0066382D01*
X0159173Y0066449D01*
X0159407Y0066509D01*
X0159642Y0066564D01*
X0159879Y0066614D01*
X0160116Y0066657D01*
X0160355Y0066695D01*
X0160595Y0066727D01*
X0160835Y0066753D01*
X0161076Y0066774D01*
X0161317Y0066788D01*
X0161558Y0066797D01*
X0161800Y0066800D01*
X0171800Y0096800D02*
X0170833Y0096788D01*
X0169867Y0096753D01*
X0168903Y0096695D01*
X0167939Y0096613D01*
X0166979Y0096508D01*
X0166020Y0096380D01*
X0165066Y0096229D01*
X0164115Y0096055D01*
X0163169Y0095858D01*
X0162227Y0095638D01*
X0161292Y0095395D01*
X0160362Y0095130D01*
X0159439Y0094842D01*
X0158524Y0094532D01*
X0157616Y0094201D01*
X0156716Y0093847D01*
X0155825Y0093472D01*
X0154944Y0093075D01*
X0154072Y0092657D01*
X0153211Y0092218D01*
X0152361Y0091759D01*
X0151522Y0091279D01*
X0150694Y0090779D01*
X0149879Y0090259D01*
X0149077Y0089719D01*
X0148289Y0089161D01*
X0147513Y0088583D01*
X0146753Y0087987D01*
X0146006Y0087373D01*
X0145275Y0086740D01*
X0144559Y0086091D01*
X0143860Y0085424D01*
X0143176Y0084740D01*
X0142509Y0084041D01*
X0141860Y0083325D01*
X0141227Y0082594D01*
X0140613Y0081847D01*
X0140017Y0081087D01*
X0139439Y0080311D01*
X0138881Y0079523D01*
X0138341Y0078721D01*
X0137821Y0077906D01*
X0137321Y0077078D01*
X0136841Y0076239D01*
X0136382Y0075389D01*
X0135943Y0074528D01*
X0135525Y0073656D01*
X0135128Y0072775D01*
X0134753Y0071884D01*
X0134399Y0070984D01*
X0134068Y0070076D01*
X0133758Y0069161D01*
X0133470Y0068238D01*
X0133205Y0067308D01*
X0132962Y0066373D01*
X0132742Y0065431D01*
X0132545Y0064485D01*
X0132371Y0063534D01*
X0132220Y0062580D01*
X0132092Y0061621D01*
X0131987Y0060661D01*
X0131905Y0059697D01*
X0131847Y0058733D01*
X0131812Y0057767D01*
X0131800Y0056800D01*
X0051800Y0036800D02*
X0051558Y0036803D01*
X0051317Y0036812D01*
X0051076Y0036826D01*
X0050835Y0036847D01*
X0050595Y0036873D01*
X0050355Y0036905D01*
X0050116Y0036943D01*
X0049879Y0036986D01*
X0049642Y0037036D01*
X0049407Y0037091D01*
X0049173Y0037151D01*
X0048941Y0037218D01*
X0048710Y0037289D01*
X0048481Y0037367D01*
X0048254Y0037450D01*
X0048029Y0037538D01*
X0047806Y0037632D01*
X0047586Y0037731D01*
X0047368Y0037836D01*
X0047153Y0037945D01*
X0046940Y0038060D01*
X0046730Y0038180D01*
X0046524Y0038305D01*
X0046320Y0038435D01*
X0046119Y0038570D01*
X0045922Y0038710D01*
X0045728Y0038854D01*
X0045538Y0039003D01*
X0045352Y0039157D01*
X0045169Y0039315D01*
X0044990Y0039477D01*
X0044815Y0039644D01*
X0044644Y0039815D01*
X0044477Y0039990D01*
X0044315Y0040169D01*
X0044157Y0040352D01*
X0044003Y0040538D01*
X0043854Y0040728D01*
X0043710Y0040922D01*
X0043570Y0041119D01*
X0043435Y0041320D01*
X0043305Y0041524D01*
X0043180Y0041730D01*
X0043060Y0041940D01*
X0042945Y0042153D01*
X0042836Y0042368D01*
X0042731Y0042586D01*
X0042632Y0042806D01*
X0042538Y0043029D01*
X0042450Y0043254D01*
X0042367Y0043481D01*
X0042289Y0043710D01*
X0042218Y0043941D01*
X0042151Y0044173D01*
X0042091Y0044407D01*
X0042036Y0044642D01*
X0041986Y0044879D01*
X0041943Y0045116D01*
X0041905Y0045355D01*
X0041873Y0045595D01*
X0041847Y0045835D01*
X0041826Y0046076D01*
X0041812Y0046317D01*
X0041803Y0046558D01*
X0041800Y0046800D01*
X0049085Y0039997D02*
X0254515Y0039997D01*
X0251800Y0036800D02*
X0051800Y0036800D01*
X0216800Y0066800D02*
X0217404Y0066807D01*
X0218008Y0066829D01*
X0218611Y0066866D01*
X0219213Y0066917D01*
X0219813Y0066982D01*
X0220412Y0067062D01*
X0221009Y0067157D01*
X0221603Y0067266D01*
X0222195Y0067389D01*
X0222783Y0067526D01*
X0223368Y0067678D01*
X0223949Y0067844D01*
X0224525Y0068024D01*
X0225098Y0068217D01*
X0225665Y0068425D01*
X0226227Y0068646D01*
X0226784Y0068880D01*
X0227335Y0069128D01*
X0227880Y0069389D01*
X0228418Y0069664D01*
X0228950Y0069951D01*
X0229474Y0070251D01*
X0229991Y0070563D01*
X0230500Y0070888D01*
X0231002Y0071225D01*
X0231495Y0071575D01*
X0231979Y0071936D01*
X0232455Y0072308D01*
X0232921Y0072692D01*
X0233378Y0073087D01*
X0233825Y0073493D01*
X0234263Y0073910D01*
X0234690Y0074337D01*
X0235107Y0074775D01*
X0235513Y0075222D01*
X0235908Y0075679D01*
X0236292Y0076145D01*
X0236664Y0076621D01*
X0237025Y0077105D01*
X0237375Y0077598D01*
X0237712Y0078100D01*
X0238037Y0078609D01*
X0238349Y0079126D01*
X0238649Y0079650D01*
X0238936Y0080182D01*
X0239211Y0080720D01*
X0239472Y0081265D01*
X0239720Y0081816D01*
X0239954Y0082373D01*
X0240175Y0082935D01*
X0240383Y0083502D01*
X0240576Y0084075D01*
X0240756Y0084651D01*
X0240922Y0085232D01*
X0241074Y0085817D01*
X0241211Y0086405D01*
X0241334Y0086997D01*
X0241443Y0087591D01*
X0241538Y0088188D01*
X0241618Y0088787D01*
X0241683Y0089387D01*
X0241734Y0089989D01*
X0241771Y0090592D01*
X0241793Y0091196D01*
X0241800Y0091800D01*
X0226800Y0101800D02*
X0226798Y0101660D01*
X0226792Y0101520D01*
X0226782Y0101380D01*
X0226769Y0101240D01*
X0226751Y0101101D01*
X0226729Y0100962D01*
X0226704Y0100825D01*
X0226675Y0100687D01*
X0226642Y0100551D01*
X0226605Y0100416D01*
X0226564Y0100282D01*
X0226519Y0100149D01*
X0226471Y0100017D01*
X0226419Y0099887D01*
X0226364Y0099758D01*
X0226305Y0099631D01*
X0226242Y0099505D01*
X0226176Y0099381D01*
X0226107Y0099260D01*
X0226034Y0099140D01*
X0225957Y0099022D01*
X0225878Y0098907D01*
X0225795Y0098793D01*
X0225709Y0098683D01*
X0225620Y0098574D01*
X0225528Y0098468D01*
X0225433Y0098365D01*
X0225336Y0098264D01*
X0225235Y0098167D01*
X0225132Y0098072D01*
X0225026Y0097980D01*
X0224917Y0097891D01*
X0224807Y0097805D01*
X0224693Y0097722D01*
X0224578Y0097643D01*
X0224460Y0097566D01*
X0224340Y0097493D01*
X0224219Y0097424D01*
X0224095Y0097358D01*
X0223969Y0097295D01*
X0223842Y0097236D01*
X0223713Y0097181D01*
X0223583Y0097129D01*
X0223451Y0097081D01*
X0223318Y0097036D01*
X0223184Y0096995D01*
X0223049Y0096958D01*
X0222913Y0096925D01*
X0222775Y0096896D01*
X0222638Y0096871D01*
X0222499Y0096849D01*
X0222360Y0096831D01*
X0222220Y0096818D01*
X0222080Y0096808D01*
X0221940Y0096802D01*
X0221800Y0096800D01*
X0261800Y0046800D02*
X0261797Y0046558D01*
X0261788Y0046317D01*
X0261774Y0046076D01*
X0261753Y0045835D01*
X0261727Y0045595D01*
X0261695Y0045355D01*
X0261657Y0045116D01*
X0261614Y0044879D01*
X0261564Y0044642D01*
X0261509Y0044407D01*
X0261449Y0044173D01*
X0261382Y0043941D01*
X0261311Y0043710D01*
X0261233Y0043481D01*
X0261150Y0043254D01*
X0261062Y0043029D01*
X0260968Y0042806D01*
X0260869Y0042586D01*
X0260764Y0042368D01*
X0260655Y0042153D01*
X0260540Y0041940D01*
X0260420Y0041730D01*
X0260295Y0041524D01*
X0260165Y0041320D01*
X0260030Y0041119D01*
X0259890Y0040922D01*
X0259746Y0040728D01*
X0259597Y0040538D01*
X0259443Y0040352D01*
X0259285Y0040169D01*
X0259123Y0039990D01*
X0258956Y0039815D01*
X0258785Y0039644D01*
X0258610Y0039477D01*
X0258431Y0039315D01*
X0258248Y0039157D01*
X0258062Y0039003D01*
X0257872Y0038854D01*
X0257678Y0038710D01*
X0257481Y0038570D01*
X0257280Y0038435D01*
X0257076Y0038305D01*
X0256870Y0038180D01*
X0256660Y0038060D01*
X0256447Y0037945D01*
X0256232Y0037836D01*
X0256014Y0037731D01*
X0255794Y0037632D01*
X0255571Y0037538D01*
X0255346Y0037450D01*
X0255119Y0037367D01*
X0254890Y0037289D01*
X0254659Y0037218D01*
X0254427Y0037151D01*
X0254193Y0037091D01*
X0253958Y0037036D01*
X0253721Y0036986D01*
X0253484Y0036943D01*
X0253245Y0036905D01*
X0253005Y0036873D01*
X0252765Y0036847D01*
X0252524Y0036826D01*
X0252283Y0036812D01*
X0252042Y0036803D01*
X0251800Y0036800D01*
X0261800Y0046800D02*
X0261800Y0166800D01*
D11*
X0151800Y0056800D03*
X0141800Y0056800D03*
X0131800Y0056800D03*
X0121800Y0056800D03*
X0111800Y0056800D03*
X0101800Y0056800D03*
D12*
X0085855Y0121091D03*
X0076800Y0121091D03*
X0067745Y0121091D03*
X0142745Y0121091D03*
X0151800Y0121091D03*
X0160855Y0121091D03*
X0217745Y0121091D03*
X0226800Y0121091D03*
X0235855Y0121091D03*
X0235855Y0056091D03*
X0226800Y0056091D03*
X0217745Y0056091D03*
D13*
X0201209Y0086800D02*
X0201211Y0086888D01*
X0201217Y0086976D01*
X0201227Y0087064D01*
X0201241Y0087152D01*
X0201258Y0087238D01*
X0201280Y0087324D01*
X0201305Y0087408D01*
X0201335Y0087492D01*
X0201367Y0087574D01*
X0201404Y0087654D01*
X0201444Y0087733D01*
X0201488Y0087810D01*
X0201535Y0087885D01*
X0201585Y0087957D01*
X0201639Y0088028D01*
X0201695Y0088095D01*
X0201755Y0088161D01*
X0201817Y0088223D01*
X0201883Y0088283D01*
X0201950Y0088339D01*
X0202021Y0088393D01*
X0202093Y0088443D01*
X0202168Y0088490D01*
X0202245Y0088534D01*
X0202324Y0088574D01*
X0202404Y0088611D01*
X0202486Y0088643D01*
X0202570Y0088673D01*
X0202654Y0088698D01*
X0202740Y0088720D01*
X0202826Y0088737D01*
X0202914Y0088751D01*
X0203002Y0088761D01*
X0203090Y0088767D01*
X0203178Y0088769D01*
X0203266Y0088767D01*
X0203354Y0088761D01*
X0203442Y0088751D01*
X0203530Y0088737D01*
X0203616Y0088720D01*
X0203702Y0088698D01*
X0203786Y0088673D01*
X0203870Y0088643D01*
X0203952Y0088611D01*
X0204032Y0088574D01*
X0204111Y0088534D01*
X0204188Y0088490D01*
X0204263Y0088443D01*
X0204335Y0088393D01*
X0204406Y0088339D01*
X0204473Y0088283D01*
X0204539Y0088223D01*
X0204601Y0088161D01*
X0204661Y0088095D01*
X0204717Y0088028D01*
X0204771Y0087957D01*
X0204821Y0087885D01*
X0204868Y0087810D01*
X0204912Y0087733D01*
X0204952Y0087654D01*
X0204989Y0087574D01*
X0205021Y0087492D01*
X0205051Y0087408D01*
X0205076Y0087324D01*
X0205098Y0087238D01*
X0205115Y0087152D01*
X0205129Y0087064D01*
X0205139Y0086976D01*
X0205145Y0086888D01*
X0205147Y0086800D01*
X0205145Y0086712D01*
X0205139Y0086624D01*
X0205129Y0086536D01*
X0205115Y0086448D01*
X0205098Y0086362D01*
X0205076Y0086276D01*
X0205051Y0086192D01*
X0205021Y0086108D01*
X0204989Y0086026D01*
X0204952Y0085946D01*
X0204912Y0085867D01*
X0204868Y0085790D01*
X0204821Y0085715D01*
X0204771Y0085643D01*
X0204717Y0085572D01*
X0204661Y0085505D01*
X0204601Y0085439D01*
X0204539Y0085377D01*
X0204473Y0085317D01*
X0204406Y0085261D01*
X0204335Y0085207D01*
X0204263Y0085157D01*
X0204188Y0085110D01*
X0204111Y0085066D01*
X0204032Y0085026D01*
X0203952Y0084989D01*
X0203870Y0084957D01*
X0203786Y0084927D01*
X0203702Y0084902D01*
X0203616Y0084880D01*
X0203530Y0084863D01*
X0203442Y0084849D01*
X0203354Y0084839D01*
X0203266Y0084833D01*
X0203178Y0084831D01*
X0203090Y0084833D01*
X0203002Y0084839D01*
X0202914Y0084849D01*
X0202826Y0084863D01*
X0202740Y0084880D01*
X0202654Y0084902D01*
X0202570Y0084927D01*
X0202486Y0084957D01*
X0202404Y0084989D01*
X0202324Y0085026D01*
X0202245Y0085066D01*
X0202168Y0085110D01*
X0202093Y0085157D01*
X0202021Y0085207D01*
X0201950Y0085261D01*
X0201883Y0085317D01*
X0201817Y0085377D01*
X0201755Y0085439D01*
X0201695Y0085505D01*
X0201639Y0085572D01*
X0201585Y0085643D01*
X0201535Y0085715D01*
X0201488Y0085790D01*
X0201444Y0085867D01*
X0201404Y0085946D01*
X0201367Y0086026D01*
X0201335Y0086108D01*
X0201305Y0086192D01*
X0201280Y0086276D01*
X0201258Y0086362D01*
X0201241Y0086448D01*
X0201227Y0086536D01*
X0201217Y0086624D01*
X0201211Y0086712D01*
X0201209Y0086800D01*
X0248453Y0086800D02*
X0248455Y0086888D01*
X0248461Y0086976D01*
X0248471Y0087064D01*
X0248485Y0087152D01*
X0248502Y0087238D01*
X0248524Y0087324D01*
X0248549Y0087408D01*
X0248579Y0087492D01*
X0248611Y0087574D01*
X0248648Y0087654D01*
X0248688Y0087733D01*
X0248732Y0087810D01*
X0248779Y0087885D01*
X0248829Y0087957D01*
X0248883Y0088028D01*
X0248939Y0088095D01*
X0248999Y0088161D01*
X0249061Y0088223D01*
X0249127Y0088283D01*
X0249194Y0088339D01*
X0249265Y0088393D01*
X0249337Y0088443D01*
X0249412Y0088490D01*
X0249489Y0088534D01*
X0249568Y0088574D01*
X0249648Y0088611D01*
X0249730Y0088643D01*
X0249814Y0088673D01*
X0249898Y0088698D01*
X0249984Y0088720D01*
X0250070Y0088737D01*
X0250158Y0088751D01*
X0250246Y0088761D01*
X0250334Y0088767D01*
X0250422Y0088769D01*
X0250510Y0088767D01*
X0250598Y0088761D01*
X0250686Y0088751D01*
X0250774Y0088737D01*
X0250860Y0088720D01*
X0250946Y0088698D01*
X0251030Y0088673D01*
X0251114Y0088643D01*
X0251196Y0088611D01*
X0251276Y0088574D01*
X0251355Y0088534D01*
X0251432Y0088490D01*
X0251507Y0088443D01*
X0251579Y0088393D01*
X0251650Y0088339D01*
X0251717Y0088283D01*
X0251783Y0088223D01*
X0251845Y0088161D01*
X0251905Y0088095D01*
X0251961Y0088028D01*
X0252015Y0087957D01*
X0252065Y0087885D01*
X0252112Y0087810D01*
X0252156Y0087733D01*
X0252196Y0087654D01*
X0252233Y0087574D01*
X0252265Y0087492D01*
X0252295Y0087408D01*
X0252320Y0087324D01*
X0252342Y0087238D01*
X0252359Y0087152D01*
X0252373Y0087064D01*
X0252383Y0086976D01*
X0252389Y0086888D01*
X0252391Y0086800D01*
X0252389Y0086712D01*
X0252383Y0086624D01*
X0252373Y0086536D01*
X0252359Y0086448D01*
X0252342Y0086362D01*
X0252320Y0086276D01*
X0252295Y0086192D01*
X0252265Y0086108D01*
X0252233Y0086026D01*
X0252196Y0085946D01*
X0252156Y0085867D01*
X0252112Y0085790D01*
X0252065Y0085715D01*
X0252015Y0085643D01*
X0251961Y0085572D01*
X0251905Y0085505D01*
X0251845Y0085439D01*
X0251783Y0085377D01*
X0251717Y0085317D01*
X0251650Y0085261D01*
X0251579Y0085207D01*
X0251507Y0085157D01*
X0251432Y0085110D01*
X0251355Y0085066D01*
X0251276Y0085026D01*
X0251196Y0084989D01*
X0251114Y0084957D01*
X0251030Y0084927D01*
X0250946Y0084902D01*
X0250860Y0084880D01*
X0250774Y0084863D01*
X0250686Y0084849D01*
X0250598Y0084839D01*
X0250510Y0084833D01*
X0250422Y0084831D01*
X0250334Y0084833D01*
X0250246Y0084839D01*
X0250158Y0084849D01*
X0250070Y0084863D01*
X0249984Y0084880D01*
X0249898Y0084902D01*
X0249814Y0084927D01*
X0249730Y0084957D01*
X0249648Y0084989D01*
X0249568Y0085026D01*
X0249489Y0085066D01*
X0249412Y0085110D01*
X0249337Y0085157D01*
X0249265Y0085207D01*
X0249194Y0085261D01*
X0249127Y0085317D01*
X0249061Y0085377D01*
X0248999Y0085439D01*
X0248939Y0085505D01*
X0248883Y0085572D01*
X0248829Y0085643D01*
X0248779Y0085715D01*
X0248732Y0085790D01*
X0248688Y0085867D01*
X0248648Y0085946D01*
X0248611Y0086026D01*
X0248579Y0086108D01*
X0248549Y0086192D01*
X0248524Y0086276D01*
X0248502Y0086362D01*
X0248485Y0086448D01*
X0248471Y0086536D01*
X0248461Y0086624D01*
X0248455Y0086712D01*
X0248453Y0086800D01*
X0248453Y0151800D02*
X0248455Y0151888D01*
X0248461Y0151976D01*
X0248471Y0152064D01*
X0248485Y0152152D01*
X0248502Y0152238D01*
X0248524Y0152324D01*
X0248549Y0152408D01*
X0248579Y0152492D01*
X0248611Y0152574D01*
X0248648Y0152654D01*
X0248688Y0152733D01*
X0248732Y0152810D01*
X0248779Y0152885D01*
X0248829Y0152957D01*
X0248883Y0153028D01*
X0248939Y0153095D01*
X0248999Y0153161D01*
X0249061Y0153223D01*
X0249127Y0153283D01*
X0249194Y0153339D01*
X0249265Y0153393D01*
X0249337Y0153443D01*
X0249412Y0153490D01*
X0249489Y0153534D01*
X0249568Y0153574D01*
X0249648Y0153611D01*
X0249730Y0153643D01*
X0249814Y0153673D01*
X0249898Y0153698D01*
X0249984Y0153720D01*
X0250070Y0153737D01*
X0250158Y0153751D01*
X0250246Y0153761D01*
X0250334Y0153767D01*
X0250422Y0153769D01*
X0250510Y0153767D01*
X0250598Y0153761D01*
X0250686Y0153751D01*
X0250774Y0153737D01*
X0250860Y0153720D01*
X0250946Y0153698D01*
X0251030Y0153673D01*
X0251114Y0153643D01*
X0251196Y0153611D01*
X0251276Y0153574D01*
X0251355Y0153534D01*
X0251432Y0153490D01*
X0251507Y0153443D01*
X0251579Y0153393D01*
X0251650Y0153339D01*
X0251717Y0153283D01*
X0251783Y0153223D01*
X0251845Y0153161D01*
X0251905Y0153095D01*
X0251961Y0153028D01*
X0252015Y0152957D01*
X0252065Y0152885D01*
X0252112Y0152810D01*
X0252156Y0152733D01*
X0252196Y0152654D01*
X0252233Y0152574D01*
X0252265Y0152492D01*
X0252295Y0152408D01*
X0252320Y0152324D01*
X0252342Y0152238D01*
X0252359Y0152152D01*
X0252373Y0152064D01*
X0252383Y0151976D01*
X0252389Y0151888D01*
X0252391Y0151800D01*
X0252389Y0151712D01*
X0252383Y0151624D01*
X0252373Y0151536D01*
X0252359Y0151448D01*
X0252342Y0151362D01*
X0252320Y0151276D01*
X0252295Y0151192D01*
X0252265Y0151108D01*
X0252233Y0151026D01*
X0252196Y0150946D01*
X0252156Y0150867D01*
X0252112Y0150790D01*
X0252065Y0150715D01*
X0252015Y0150643D01*
X0251961Y0150572D01*
X0251905Y0150505D01*
X0251845Y0150439D01*
X0251783Y0150377D01*
X0251717Y0150317D01*
X0251650Y0150261D01*
X0251579Y0150207D01*
X0251507Y0150157D01*
X0251432Y0150110D01*
X0251355Y0150066D01*
X0251276Y0150026D01*
X0251196Y0149989D01*
X0251114Y0149957D01*
X0251030Y0149927D01*
X0250946Y0149902D01*
X0250860Y0149880D01*
X0250774Y0149863D01*
X0250686Y0149849D01*
X0250598Y0149839D01*
X0250510Y0149833D01*
X0250422Y0149831D01*
X0250334Y0149833D01*
X0250246Y0149839D01*
X0250158Y0149849D01*
X0250070Y0149863D01*
X0249984Y0149880D01*
X0249898Y0149902D01*
X0249814Y0149927D01*
X0249730Y0149957D01*
X0249648Y0149989D01*
X0249568Y0150026D01*
X0249489Y0150066D01*
X0249412Y0150110D01*
X0249337Y0150157D01*
X0249265Y0150207D01*
X0249194Y0150261D01*
X0249127Y0150317D01*
X0249061Y0150377D01*
X0248999Y0150439D01*
X0248939Y0150505D01*
X0248883Y0150572D01*
X0248829Y0150643D01*
X0248779Y0150715D01*
X0248732Y0150790D01*
X0248688Y0150867D01*
X0248648Y0150946D01*
X0248611Y0151026D01*
X0248579Y0151108D01*
X0248549Y0151192D01*
X0248524Y0151276D01*
X0248502Y0151362D01*
X0248485Y0151448D01*
X0248471Y0151536D01*
X0248461Y0151624D01*
X0248455Y0151712D01*
X0248453Y0151800D01*
X0201209Y0151800D02*
X0201211Y0151888D01*
X0201217Y0151976D01*
X0201227Y0152064D01*
X0201241Y0152152D01*
X0201258Y0152238D01*
X0201280Y0152324D01*
X0201305Y0152408D01*
X0201335Y0152492D01*
X0201367Y0152574D01*
X0201404Y0152654D01*
X0201444Y0152733D01*
X0201488Y0152810D01*
X0201535Y0152885D01*
X0201585Y0152957D01*
X0201639Y0153028D01*
X0201695Y0153095D01*
X0201755Y0153161D01*
X0201817Y0153223D01*
X0201883Y0153283D01*
X0201950Y0153339D01*
X0202021Y0153393D01*
X0202093Y0153443D01*
X0202168Y0153490D01*
X0202245Y0153534D01*
X0202324Y0153574D01*
X0202404Y0153611D01*
X0202486Y0153643D01*
X0202570Y0153673D01*
X0202654Y0153698D01*
X0202740Y0153720D01*
X0202826Y0153737D01*
X0202914Y0153751D01*
X0203002Y0153761D01*
X0203090Y0153767D01*
X0203178Y0153769D01*
X0203266Y0153767D01*
X0203354Y0153761D01*
X0203442Y0153751D01*
X0203530Y0153737D01*
X0203616Y0153720D01*
X0203702Y0153698D01*
X0203786Y0153673D01*
X0203870Y0153643D01*
X0203952Y0153611D01*
X0204032Y0153574D01*
X0204111Y0153534D01*
X0204188Y0153490D01*
X0204263Y0153443D01*
X0204335Y0153393D01*
X0204406Y0153339D01*
X0204473Y0153283D01*
X0204539Y0153223D01*
X0204601Y0153161D01*
X0204661Y0153095D01*
X0204717Y0153028D01*
X0204771Y0152957D01*
X0204821Y0152885D01*
X0204868Y0152810D01*
X0204912Y0152733D01*
X0204952Y0152654D01*
X0204989Y0152574D01*
X0205021Y0152492D01*
X0205051Y0152408D01*
X0205076Y0152324D01*
X0205098Y0152238D01*
X0205115Y0152152D01*
X0205129Y0152064D01*
X0205139Y0151976D01*
X0205145Y0151888D01*
X0205147Y0151800D01*
X0205145Y0151712D01*
X0205139Y0151624D01*
X0205129Y0151536D01*
X0205115Y0151448D01*
X0205098Y0151362D01*
X0205076Y0151276D01*
X0205051Y0151192D01*
X0205021Y0151108D01*
X0204989Y0151026D01*
X0204952Y0150946D01*
X0204912Y0150867D01*
X0204868Y0150790D01*
X0204821Y0150715D01*
X0204771Y0150643D01*
X0204717Y0150572D01*
X0204661Y0150505D01*
X0204601Y0150439D01*
X0204539Y0150377D01*
X0204473Y0150317D01*
X0204406Y0150261D01*
X0204335Y0150207D01*
X0204263Y0150157D01*
X0204188Y0150110D01*
X0204111Y0150066D01*
X0204032Y0150026D01*
X0203952Y0149989D01*
X0203870Y0149957D01*
X0203786Y0149927D01*
X0203702Y0149902D01*
X0203616Y0149880D01*
X0203530Y0149863D01*
X0203442Y0149849D01*
X0203354Y0149839D01*
X0203266Y0149833D01*
X0203178Y0149831D01*
X0203090Y0149833D01*
X0203002Y0149839D01*
X0202914Y0149849D01*
X0202826Y0149863D01*
X0202740Y0149880D01*
X0202654Y0149902D01*
X0202570Y0149927D01*
X0202486Y0149957D01*
X0202404Y0149989D01*
X0202324Y0150026D01*
X0202245Y0150066D01*
X0202168Y0150110D01*
X0202093Y0150157D01*
X0202021Y0150207D01*
X0201950Y0150261D01*
X0201883Y0150317D01*
X0201817Y0150377D01*
X0201755Y0150439D01*
X0201695Y0150505D01*
X0201639Y0150572D01*
X0201585Y0150643D01*
X0201535Y0150715D01*
X0201488Y0150790D01*
X0201444Y0150867D01*
X0201404Y0150946D01*
X0201367Y0151026D01*
X0201335Y0151108D01*
X0201305Y0151192D01*
X0201280Y0151276D01*
X0201258Y0151362D01*
X0201241Y0151448D01*
X0201227Y0151536D01*
X0201217Y0151624D01*
X0201211Y0151712D01*
X0201209Y0151800D01*
X0173453Y0151800D02*
X0173455Y0151888D01*
X0173461Y0151976D01*
X0173471Y0152064D01*
X0173485Y0152152D01*
X0173502Y0152238D01*
X0173524Y0152324D01*
X0173549Y0152408D01*
X0173579Y0152492D01*
X0173611Y0152574D01*
X0173648Y0152654D01*
X0173688Y0152733D01*
X0173732Y0152810D01*
X0173779Y0152885D01*
X0173829Y0152957D01*
X0173883Y0153028D01*
X0173939Y0153095D01*
X0173999Y0153161D01*
X0174061Y0153223D01*
X0174127Y0153283D01*
X0174194Y0153339D01*
X0174265Y0153393D01*
X0174337Y0153443D01*
X0174412Y0153490D01*
X0174489Y0153534D01*
X0174568Y0153574D01*
X0174648Y0153611D01*
X0174730Y0153643D01*
X0174814Y0153673D01*
X0174898Y0153698D01*
X0174984Y0153720D01*
X0175070Y0153737D01*
X0175158Y0153751D01*
X0175246Y0153761D01*
X0175334Y0153767D01*
X0175422Y0153769D01*
X0175510Y0153767D01*
X0175598Y0153761D01*
X0175686Y0153751D01*
X0175774Y0153737D01*
X0175860Y0153720D01*
X0175946Y0153698D01*
X0176030Y0153673D01*
X0176114Y0153643D01*
X0176196Y0153611D01*
X0176276Y0153574D01*
X0176355Y0153534D01*
X0176432Y0153490D01*
X0176507Y0153443D01*
X0176579Y0153393D01*
X0176650Y0153339D01*
X0176717Y0153283D01*
X0176783Y0153223D01*
X0176845Y0153161D01*
X0176905Y0153095D01*
X0176961Y0153028D01*
X0177015Y0152957D01*
X0177065Y0152885D01*
X0177112Y0152810D01*
X0177156Y0152733D01*
X0177196Y0152654D01*
X0177233Y0152574D01*
X0177265Y0152492D01*
X0177295Y0152408D01*
X0177320Y0152324D01*
X0177342Y0152238D01*
X0177359Y0152152D01*
X0177373Y0152064D01*
X0177383Y0151976D01*
X0177389Y0151888D01*
X0177391Y0151800D01*
X0177389Y0151712D01*
X0177383Y0151624D01*
X0177373Y0151536D01*
X0177359Y0151448D01*
X0177342Y0151362D01*
X0177320Y0151276D01*
X0177295Y0151192D01*
X0177265Y0151108D01*
X0177233Y0151026D01*
X0177196Y0150946D01*
X0177156Y0150867D01*
X0177112Y0150790D01*
X0177065Y0150715D01*
X0177015Y0150643D01*
X0176961Y0150572D01*
X0176905Y0150505D01*
X0176845Y0150439D01*
X0176783Y0150377D01*
X0176717Y0150317D01*
X0176650Y0150261D01*
X0176579Y0150207D01*
X0176507Y0150157D01*
X0176432Y0150110D01*
X0176355Y0150066D01*
X0176276Y0150026D01*
X0176196Y0149989D01*
X0176114Y0149957D01*
X0176030Y0149927D01*
X0175946Y0149902D01*
X0175860Y0149880D01*
X0175774Y0149863D01*
X0175686Y0149849D01*
X0175598Y0149839D01*
X0175510Y0149833D01*
X0175422Y0149831D01*
X0175334Y0149833D01*
X0175246Y0149839D01*
X0175158Y0149849D01*
X0175070Y0149863D01*
X0174984Y0149880D01*
X0174898Y0149902D01*
X0174814Y0149927D01*
X0174730Y0149957D01*
X0174648Y0149989D01*
X0174568Y0150026D01*
X0174489Y0150066D01*
X0174412Y0150110D01*
X0174337Y0150157D01*
X0174265Y0150207D01*
X0174194Y0150261D01*
X0174127Y0150317D01*
X0174061Y0150377D01*
X0173999Y0150439D01*
X0173939Y0150505D01*
X0173883Y0150572D01*
X0173829Y0150643D01*
X0173779Y0150715D01*
X0173732Y0150790D01*
X0173688Y0150867D01*
X0173648Y0150946D01*
X0173611Y0151026D01*
X0173579Y0151108D01*
X0173549Y0151192D01*
X0173524Y0151276D01*
X0173502Y0151362D01*
X0173485Y0151448D01*
X0173471Y0151536D01*
X0173461Y0151624D01*
X0173455Y0151712D01*
X0173453Y0151800D01*
X0126209Y0151800D02*
X0126211Y0151888D01*
X0126217Y0151976D01*
X0126227Y0152064D01*
X0126241Y0152152D01*
X0126258Y0152238D01*
X0126280Y0152324D01*
X0126305Y0152408D01*
X0126335Y0152492D01*
X0126367Y0152574D01*
X0126404Y0152654D01*
X0126444Y0152733D01*
X0126488Y0152810D01*
X0126535Y0152885D01*
X0126585Y0152957D01*
X0126639Y0153028D01*
X0126695Y0153095D01*
X0126755Y0153161D01*
X0126817Y0153223D01*
X0126883Y0153283D01*
X0126950Y0153339D01*
X0127021Y0153393D01*
X0127093Y0153443D01*
X0127168Y0153490D01*
X0127245Y0153534D01*
X0127324Y0153574D01*
X0127404Y0153611D01*
X0127486Y0153643D01*
X0127570Y0153673D01*
X0127654Y0153698D01*
X0127740Y0153720D01*
X0127826Y0153737D01*
X0127914Y0153751D01*
X0128002Y0153761D01*
X0128090Y0153767D01*
X0128178Y0153769D01*
X0128266Y0153767D01*
X0128354Y0153761D01*
X0128442Y0153751D01*
X0128530Y0153737D01*
X0128616Y0153720D01*
X0128702Y0153698D01*
X0128786Y0153673D01*
X0128870Y0153643D01*
X0128952Y0153611D01*
X0129032Y0153574D01*
X0129111Y0153534D01*
X0129188Y0153490D01*
X0129263Y0153443D01*
X0129335Y0153393D01*
X0129406Y0153339D01*
X0129473Y0153283D01*
X0129539Y0153223D01*
X0129601Y0153161D01*
X0129661Y0153095D01*
X0129717Y0153028D01*
X0129771Y0152957D01*
X0129821Y0152885D01*
X0129868Y0152810D01*
X0129912Y0152733D01*
X0129952Y0152654D01*
X0129989Y0152574D01*
X0130021Y0152492D01*
X0130051Y0152408D01*
X0130076Y0152324D01*
X0130098Y0152238D01*
X0130115Y0152152D01*
X0130129Y0152064D01*
X0130139Y0151976D01*
X0130145Y0151888D01*
X0130147Y0151800D01*
X0130145Y0151712D01*
X0130139Y0151624D01*
X0130129Y0151536D01*
X0130115Y0151448D01*
X0130098Y0151362D01*
X0130076Y0151276D01*
X0130051Y0151192D01*
X0130021Y0151108D01*
X0129989Y0151026D01*
X0129952Y0150946D01*
X0129912Y0150867D01*
X0129868Y0150790D01*
X0129821Y0150715D01*
X0129771Y0150643D01*
X0129717Y0150572D01*
X0129661Y0150505D01*
X0129601Y0150439D01*
X0129539Y0150377D01*
X0129473Y0150317D01*
X0129406Y0150261D01*
X0129335Y0150207D01*
X0129263Y0150157D01*
X0129188Y0150110D01*
X0129111Y0150066D01*
X0129032Y0150026D01*
X0128952Y0149989D01*
X0128870Y0149957D01*
X0128786Y0149927D01*
X0128702Y0149902D01*
X0128616Y0149880D01*
X0128530Y0149863D01*
X0128442Y0149849D01*
X0128354Y0149839D01*
X0128266Y0149833D01*
X0128178Y0149831D01*
X0128090Y0149833D01*
X0128002Y0149839D01*
X0127914Y0149849D01*
X0127826Y0149863D01*
X0127740Y0149880D01*
X0127654Y0149902D01*
X0127570Y0149927D01*
X0127486Y0149957D01*
X0127404Y0149989D01*
X0127324Y0150026D01*
X0127245Y0150066D01*
X0127168Y0150110D01*
X0127093Y0150157D01*
X0127021Y0150207D01*
X0126950Y0150261D01*
X0126883Y0150317D01*
X0126817Y0150377D01*
X0126755Y0150439D01*
X0126695Y0150505D01*
X0126639Y0150572D01*
X0126585Y0150643D01*
X0126535Y0150715D01*
X0126488Y0150790D01*
X0126444Y0150867D01*
X0126404Y0150946D01*
X0126367Y0151026D01*
X0126335Y0151108D01*
X0126305Y0151192D01*
X0126280Y0151276D01*
X0126258Y0151362D01*
X0126241Y0151448D01*
X0126227Y0151536D01*
X0126217Y0151624D01*
X0126211Y0151712D01*
X0126209Y0151800D01*
X0098453Y0151800D02*
X0098455Y0151888D01*
X0098461Y0151976D01*
X0098471Y0152064D01*
X0098485Y0152152D01*
X0098502Y0152238D01*
X0098524Y0152324D01*
X0098549Y0152408D01*
X0098579Y0152492D01*
X0098611Y0152574D01*
X0098648Y0152654D01*
X0098688Y0152733D01*
X0098732Y0152810D01*
X0098779Y0152885D01*
X0098829Y0152957D01*
X0098883Y0153028D01*
X0098939Y0153095D01*
X0098999Y0153161D01*
X0099061Y0153223D01*
X0099127Y0153283D01*
X0099194Y0153339D01*
X0099265Y0153393D01*
X0099337Y0153443D01*
X0099412Y0153490D01*
X0099489Y0153534D01*
X0099568Y0153574D01*
X0099648Y0153611D01*
X0099730Y0153643D01*
X0099814Y0153673D01*
X0099898Y0153698D01*
X0099984Y0153720D01*
X0100070Y0153737D01*
X0100158Y0153751D01*
X0100246Y0153761D01*
X0100334Y0153767D01*
X0100422Y0153769D01*
X0100510Y0153767D01*
X0100598Y0153761D01*
X0100686Y0153751D01*
X0100774Y0153737D01*
X0100860Y0153720D01*
X0100946Y0153698D01*
X0101030Y0153673D01*
X0101114Y0153643D01*
X0101196Y0153611D01*
X0101276Y0153574D01*
X0101355Y0153534D01*
X0101432Y0153490D01*
X0101507Y0153443D01*
X0101579Y0153393D01*
X0101650Y0153339D01*
X0101717Y0153283D01*
X0101783Y0153223D01*
X0101845Y0153161D01*
X0101905Y0153095D01*
X0101961Y0153028D01*
X0102015Y0152957D01*
X0102065Y0152885D01*
X0102112Y0152810D01*
X0102156Y0152733D01*
X0102196Y0152654D01*
X0102233Y0152574D01*
X0102265Y0152492D01*
X0102295Y0152408D01*
X0102320Y0152324D01*
X0102342Y0152238D01*
X0102359Y0152152D01*
X0102373Y0152064D01*
X0102383Y0151976D01*
X0102389Y0151888D01*
X0102391Y0151800D01*
X0102389Y0151712D01*
X0102383Y0151624D01*
X0102373Y0151536D01*
X0102359Y0151448D01*
X0102342Y0151362D01*
X0102320Y0151276D01*
X0102295Y0151192D01*
X0102265Y0151108D01*
X0102233Y0151026D01*
X0102196Y0150946D01*
X0102156Y0150867D01*
X0102112Y0150790D01*
X0102065Y0150715D01*
X0102015Y0150643D01*
X0101961Y0150572D01*
X0101905Y0150505D01*
X0101845Y0150439D01*
X0101783Y0150377D01*
X0101717Y0150317D01*
X0101650Y0150261D01*
X0101579Y0150207D01*
X0101507Y0150157D01*
X0101432Y0150110D01*
X0101355Y0150066D01*
X0101276Y0150026D01*
X0101196Y0149989D01*
X0101114Y0149957D01*
X0101030Y0149927D01*
X0100946Y0149902D01*
X0100860Y0149880D01*
X0100774Y0149863D01*
X0100686Y0149849D01*
X0100598Y0149839D01*
X0100510Y0149833D01*
X0100422Y0149831D01*
X0100334Y0149833D01*
X0100246Y0149839D01*
X0100158Y0149849D01*
X0100070Y0149863D01*
X0099984Y0149880D01*
X0099898Y0149902D01*
X0099814Y0149927D01*
X0099730Y0149957D01*
X0099648Y0149989D01*
X0099568Y0150026D01*
X0099489Y0150066D01*
X0099412Y0150110D01*
X0099337Y0150157D01*
X0099265Y0150207D01*
X0099194Y0150261D01*
X0099127Y0150317D01*
X0099061Y0150377D01*
X0098999Y0150439D01*
X0098939Y0150505D01*
X0098883Y0150572D01*
X0098829Y0150643D01*
X0098779Y0150715D01*
X0098732Y0150790D01*
X0098688Y0150867D01*
X0098648Y0150946D01*
X0098611Y0151026D01*
X0098579Y0151108D01*
X0098549Y0151192D01*
X0098524Y0151276D01*
X0098502Y0151362D01*
X0098485Y0151448D01*
X0098471Y0151536D01*
X0098461Y0151624D01*
X0098455Y0151712D01*
X0098453Y0151800D01*
X0051209Y0151800D02*
X0051211Y0151888D01*
X0051217Y0151976D01*
X0051227Y0152064D01*
X0051241Y0152152D01*
X0051258Y0152238D01*
X0051280Y0152324D01*
X0051305Y0152408D01*
X0051335Y0152492D01*
X0051367Y0152574D01*
X0051404Y0152654D01*
X0051444Y0152733D01*
X0051488Y0152810D01*
X0051535Y0152885D01*
X0051585Y0152957D01*
X0051639Y0153028D01*
X0051695Y0153095D01*
X0051755Y0153161D01*
X0051817Y0153223D01*
X0051883Y0153283D01*
X0051950Y0153339D01*
X0052021Y0153393D01*
X0052093Y0153443D01*
X0052168Y0153490D01*
X0052245Y0153534D01*
X0052324Y0153574D01*
X0052404Y0153611D01*
X0052486Y0153643D01*
X0052570Y0153673D01*
X0052654Y0153698D01*
X0052740Y0153720D01*
X0052826Y0153737D01*
X0052914Y0153751D01*
X0053002Y0153761D01*
X0053090Y0153767D01*
X0053178Y0153769D01*
X0053266Y0153767D01*
X0053354Y0153761D01*
X0053442Y0153751D01*
X0053530Y0153737D01*
X0053616Y0153720D01*
X0053702Y0153698D01*
X0053786Y0153673D01*
X0053870Y0153643D01*
X0053952Y0153611D01*
X0054032Y0153574D01*
X0054111Y0153534D01*
X0054188Y0153490D01*
X0054263Y0153443D01*
X0054335Y0153393D01*
X0054406Y0153339D01*
X0054473Y0153283D01*
X0054539Y0153223D01*
X0054601Y0153161D01*
X0054661Y0153095D01*
X0054717Y0153028D01*
X0054771Y0152957D01*
X0054821Y0152885D01*
X0054868Y0152810D01*
X0054912Y0152733D01*
X0054952Y0152654D01*
X0054989Y0152574D01*
X0055021Y0152492D01*
X0055051Y0152408D01*
X0055076Y0152324D01*
X0055098Y0152238D01*
X0055115Y0152152D01*
X0055129Y0152064D01*
X0055139Y0151976D01*
X0055145Y0151888D01*
X0055147Y0151800D01*
X0055145Y0151712D01*
X0055139Y0151624D01*
X0055129Y0151536D01*
X0055115Y0151448D01*
X0055098Y0151362D01*
X0055076Y0151276D01*
X0055051Y0151192D01*
X0055021Y0151108D01*
X0054989Y0151026D01*
X0054952Y0150946D01*
X0054912Y0150867D01*
X0054868Y0150790D01*
X0054821Y0150715D01*
X0054771Y0150643D01*
X0054717Y0150572D01*
X0054661Y0150505D01*
X0054601Y0150439D01*
X0054539Y0150377D01*
X0054473Y0150317D01*
X0054406Y0150261D01*
X0054335Y0150207D01*
X0054263Y0150157D01*
X0054188Y0150110D01*
X0054111Y0150066D01*
X0054032Y0150026D01*
X0053952Y0149989D01*
X0053870Y0149957D01*
X0053786Y0149927D01*
X0053702Y0149902D01*
X0053616Y0149880D01*
X0053530Y0149863D01*
X0053442Y0149849D01*
X0053354Y0149839D01*
X0053266Y0149833D01*
X0053178Y0149831D01*
X0053090Y0149833D01*
X0053002Y0149839D01*
X0052914Y0149849D01*
X0052826Y0149863D01*
X0052740Y0149880D01*
X0052654Y0149902D01*
X0052570Y0149927D01*
X0052486Y0149957D01*
X0052404Y0149989D01*
X0052324Y0150026D01*
X0052245Y0150066D01*
X0052168Y0150110D01*
X0052093Y0150157D01*
X0052021Y0150207D01*
X0051950Y0150261D01*
X0051883Y0150317D01*
X0051817Y0150377D01*
X0051755Y0150439D01*
X0051695Y0150505D01*
X0051639Y0150572D01*
X0051585Y0150643D01*
X0051535Y0150715D01*
X0051488Y0150790D01*
X0051444Y0150867D01*
X0051404Y0150946D01*
X0051367Y0151026D01*
X0051335Y0151108D01*
X0051305Y0151192D01*
X0051280Y0151276D01*
X0051258Y0151362D01*
X0051241Y0151448D01*
X0051227Y0151536D01*
X0051217Y0151624D01*
X0051211Y0151712D01*
X0051209Y0151800D01*
M02*
