G75*
%MOIN*%
%OFA0B0*%
%FSLAX25Y25*%
%IPPOS*%
%LPD*%
%AMOC8*
5,1,8,0,0,1.08239X$1,22.5*
%
%ADD10C,0.01600*%
%ADD11C,0.07400*%
%ADD12C,0.03780*%
%ADD13R,0.03562X0.03562*%
D10*
X0080186Y0027745D02*
X0086839Y0027745D01*
X0086839Y0035028D02*
X0080776Y0035028D01*
X0081367Y0042312D02*
X0086839Y0042312D01*
X0113847Y0035265D02*
X0115973Y0035265D01*
X0113847Y0035264D02*
X0113819Y0035262D01*
X0113791Y0035257D01*
X0113763Y0035249D01*
X0113737Y0035237D01*
X0113713Y0035222D01*
X0113691Y0035205D01*
X0113670Y0035184D01*
X0113653Y0035162D01*
X0113638Y0035138D01*
X0113626Y0035112D01*
X0113618Y0035084D01*
X0113613Y0035056D01*
X0113611Y0035028D01*
X0114753Y0041170D02*
X0117942Y0041170D01*
X0114753Y0041170D02*
X0114687Y0041172D01*
X0114620Y0041178D01*
X0114555Y0041187D01*
X0114490Y0041201D01*
X0114425Y0041218D01*
X0114362Y0041239D01*
X0114301Y0041263D01*
X0114240Y0041291D01*
X0114182Y0041323D01*
X0114125Y0041358D01*
X0114071Y0041396D01*
X0114019Y0041437D01*
X0113969Y0041481D01*
X0113922Y0041528D01*
X0113878Y0041578D01*
X0113837Y0041630D01*
X0113799Y0041684D01*
X0113764Y0041741D01*
X0113732Y0041799D01*
X0113704Y0041860D01*
X0113680Y0041921D01*
X0113659Y0041984D01*
X0113642Y0042049D01*
X0113628Y0042114D01*
X0113619Y0042179D01*
X0113613Y0042246D01*
X0113611Y0042312D01*
X0113611Y0027745D02*
X0113613Y0027708D01*
X0113619Y0027671D01*
X0113628Y0027636D01*
X0113642Y0027601D01*
X0113658Y0027568D01*
X0113679Y0027537D01*
X0113702Y0027508D01*
X0113728Y0027482D01*
X0113757Y0027459D01*
X0113788Y0027438D01*
X0113821Y0027422D01*
X0113856Y0027408D01*
X0113891Y0027399D01*
X0113928Y0027393D01*
X0113965Y0027391D01*
X0117942Y0027391D01*
X0117942Y0041170D02*
X0118913Y0041182D01*
X0119884Y0041217D01*
X0120854Y0041276D01*
X0121822Y0041358D01*
X0122787Y0041463D01*
X0123750Y0041592D01*
X0124709Y0041744D01*
X0125665Y0041919D01*
X0126616Y0042117D01*
X0127562Y0042338D01*
X0128502Y0042582D01*
X0129436Y0042848D01*
X0130364Y0043137D01*
X0131284Y0043449D01*
X0132196Y0043782D01*
X0133100Y0044138D01*
X0133995Y0044515D01*
X0134881Y0044913D01*
X0135757Y0045333D01*
X0136622Y0045774D01*
X0137477Y0046236D01*
X0138320Y0046718D01*
X0139152Y0047221D01*
X0139970Y0047743D01*
X0140776Y0048286D01*
X0141569Y0048847D01*
X0142348Y0049427D01*
X0143113Y0050026D01*
X0143863Y0050644D01*
X0144598Y0051279D01*
X0145317Y0051932D01*
X0146020Y0052602D01*
X0146707Y0053289D01*
X0147377Y0053992D01*
X0148030Y0054711D01*
X0148665Y0055446D01*
X0149283Y0056196D01*
X0149882Y0056961D01*
X0150462Y0057740D01*
X0151023Y0058533D01*
X0151566Y0059339D01*
X0152088Y0060157D01*
X0152591Y0060989D01*
X0153073Y0061832D01*
X0153535Y0062687D01*
X0153976Y0063552D01*
X0154396Y0064428D01*
X0154794Y0065314D01*
X0155171Y0066209D01*
X0155527Y0067113D01*
X0155860Y0068025D01*
X0156172Y0068945D01*
X0156461Y0069873D01*
X0156727Y0070807D01*
X0156971Y0071747D01*
X0157192Y0072693D01*
X0157390Y0073644D01*
X0157565Y0074600D01*
X0157717Y0075559D01*
X0157846Y0076522D01*
X0157951Y0077487D01*
X0158033Y0078455D01*
X0158092Y0079425D01*
X0158127Y0080396D01*
X0158139Y0081367D01*
X0158139Y0084871D01*
X0165422Y0084871D02*
X0165422Y0084713D01*
X0172706Y0084871D02*
X0172706Y0082154D01*
X0172706Y0111643D02*
X0172743Y0111645D01*
X0172780Y0111651D01*
X0172815Y0111660D01*
X0172850Y0111674D01*
X0172883Y0111690D01*
X0172914Y0111711D01*
X0172943Y0111734D01*
X0172969Y0111760D01*
X0172992Y0111789D01*
X0173013Y0111820D01*
X0173029Y0111853D01*
X0173043Y0111888D01*
X0173052Y0111923D01*
X0173058Y0111960D01*
X0173060Y0111997D01*
X0173060Y0137627D01*
X0176997Y0137627D01*
X0169123Y0137627D02*
X0165186Y0137627D01*
X0165186Y0111879D01*
X0165188Y0111851D01*
X0165193Y0111823D01*
X0165201Y0111795D01*
X0165213Y0111769D01*
X0165228Y0111745D01*
X0165245Y0111723D01*
X0165266Y0111702D01*
X0165288Y0111685D01*
X0165312Y0111670D01*
X0165338Y0111658D01*
X0165366Y0111650D01*
X0165394Y0111645D01*
X0165422Y0111643D01*
X0159280Y0112784D02*
X0159280Y0137627D01*
X0161249Y0137627D01*
X0159281Y0112784D02*
X0159279Y0112718D01*
X0159273Y0112651D01*
X0159264Y0112586D01*
X0159250Y0112521D01*
X0159233Y0112456D01*
X0159212Y0112393D01*
X0159188Y0112332D01*
X0159160Y0112271D01*
X0159128Y0112213D01*
X0159093Y0112156D01*
X0159055Y0112102D01*
X0159014Y0112050D01*
X0158970Y0112000D01*
X0158923Y0111953D01*
X0158873Y0111909D01*
X0158821Y0111868D01*
X0158767Y0111830D01*
X0158710Y0111795D01*
X0158652Y0111763D01*
X0158591Y0111735D01*
X0158530Y0111711D01*
X0158467Y0111690D01*
X0158402Y0111673D01*
X0158337Y0111659D01*
X0158272Y0111650D01*
X0158205Y0111644D01*
X0158139Y0111642D01*
X0172706Y0082154D02*
X0172690Y0080831D01*
X0172642Y0079508D01*
X0172562Y0078187D01*
X0172450Y0076869D01*
X0172307Y0075553D01*
X0172131Y0074241D01*
X0171924Y0072934D01*
X0171686Y0071632D01*
X0171416Y0070337D01*
X0171115Y0069048D01*
X0170782Y0067767D01*
X0170419Y0066494D01*
X0170026Y0065231D01*
X0169602Y0063977D01*
X0169147Y0062734D01*
X0168663Y0061503D01*
X0168149Y0060283D01*
X0167606Y0059076D01*
X0167034Y0057883D01*
X0166433Y0056704D01*
X0165804Y0055540D01*
X0165147Y0054391D01*
X0164462Y0053258D01*
X0163750Y0052143D01*
X0163012Y0051045D01*
X0162247Y0049965D01*
X0161456Y0048903D01*
X0160640Y0047862D01*
X0159799Y0046840D01*
X0158933Y0045839D01*
X0158044Y0044859D01*
X0157131Y0043901D01*
X0156195Y0042965D01*
X0155237Y0042052D01*
X0154257Y0041163D01*
X0153256Y0040297D01*
X0152234Y0039456D01*
X0151193Y0038640D01*
X0150131Y0037849D01*
X0149051Y0037084D01*
X0147953Y0036346D01*
X0146838Y0035634D01*
X0145705Y0034949D01*
X0144556Y0034292D01*
X0143392Y0033663D01*
X0142213Y0033062D01*
X0141020Y0032490D01*
X0139813Y0031947D01*
X0138593Y0031433D01*
X0137362Y0030949D01*
X0136119Y0030494D01*
X0134865Y0030070D01*
X0133602Y0029677D01*
X0132329Y0029314D01*
X0131048Y0028981D01*
X0129759Y0028680D01*
X0128464Y0028410D01*
X0127162Y0028172D01*
X0125855Y0027965D01*
X0124543Y0027789D01*
X0123227Y0027646D01*
X0121909Y0027534D01*
X0120588Y0027454D01*
X0119265Y0027406D01*
X0117942Y0027390D01*
X0080776Y0035028D02*
X0079676Y0035041D01*
X0078577Y0035081D01*
X0077479Y0035148D01*
X0076383Y0035240D01*
X0075290Y0035360D01*
X0074200Y0035506D01*
X0073114Y0035678D01*
X0072032Y0035876D01*
X0070955Y0036100D01*
X0069884Y0036350D01*
X0068820Y0036627D01*
X0067762Y0036928D01*
X0066712Y0037256D01*
X0065670Y0037608D01*
X0064637Y0037986D01*
X0063614Y0038388D01*
X0062600Y0038815D01*
X0061597Y0039266D01*
X0060605Y0039742D01*
X0059626Y0040241D01*
X0058658Y0040764D01*
X0057703Y0041310D01*
X0056762Y0041879D01*
X0055835Y0042471D01*
X0054922Y0043084D01*
X0054025Y0043720D01*
X0053143Y0044377D01*
X0052277Y0045055D01*
X0051428Y0045754D01*
X0050596Y0046474D01*
X0049782Y0047213D01*
X0048985Y0047972D01*
X0048208Y0048749D01*
X0047449Y0049546D01*
X0046710Y0050360D01*
X0045990Y0051192D01*
X0045291Y0052041D01*
X0044613Y0052907D01*
X0043956Y0053789D01*
X0043320Y0054686D01*
X0042707Y0055599D01*
X0042115Y0056526D01*
X0041546Y0057467D01*
X0041000Y0058422D01*
X0040477Y0059390D01*
X0039978Y0060369D01*
X0039502Y0061361D01*
X0039051Y0062364D01*
X0038624Y0063378D01*
X0038222Y0064401D01*
X0037844Y0065434D01*
X0037492Y0066476D01*
X0037164Y0067526D01*
X0036863Y0068584D01*
X0036586Y0069648D01*
X0036336Y0070719D01*
X0036112Y0071796D01*
X0035914Y0072878D01*
X0035742Y0073964D01*
X0035596Y0075054D01*
X0035476Y0076147D01*
X0035384Y0077243D01*
X0035317Y0078341D01*
X0035277Y0079440D01*
X0035264Y0080540D01*
X0035265Y0080540D02*
X0035265Y0086603D01*
X0035264Y0086603D02*
X0035262Y0086631D01*
X0035257Y0086659D01*
X0035249Y0086687D01*
X0035237Y0086713D01*
X0035222Y0086737D01*
X0035205Y0086759D01*
X0035184Y0086780D01*
X0035162Y0086797D01*
X0035138Y0086812D01*
X0035112Y0086824D01*
X0035084Y0086832D01*
X0035056Y0086837D01*
X0035028Y0086839D01*
X0041170Y0085698D02*
X0041170Y0082509D01*
X0041170Y0085698D02*
X0041172Y0085764D01*
X0041178Y0085831D01*
X0041187Y0085896D01*
X0041201Y0085961D01*
X0041218Y0086026D01*
X0041239Y0086089D01*
X0041263Y0086150D01*
X0041291Y0086211D01*
X0041323Y0086269D01*
X0041358Y0086326D01*
X0041396Y0086380D01*
X0041437Y0086432D01*
X0041481Y0086482D01*
X0041528Y0086529D01*
X0041578Y0086573D01*
X0041630Y0086614D01*
X0041684Y0086652D01*
X0041741Y0086687D01*
X0041799Y0086719D01*
X0041860Y0086747D01*
X0041921Y0086771D01*
X0041984Y0086792D01*
X0042049Y0086809D01*
X0042114Y0086823D01*
X0042179Y0086832D01*
X0042246Y0086838D01*
X0042312Y0086840D01*
X0027745Y0086839D02*
X0027708Y0086837D01*
X0027671Y0086831D01*
X0027636Y0086822D01*
X0027601Y0086808D01*
X0027568Y0086792D01*
X0027537Y0086771D01*
X0027508Y0086748D01*
X0027482Y0086722D01*
X0027459Y0086693D01*
X0027438Y0086662D01*
X0027422Y0086629D01*
X0027408Y0086594D01*
X0027399Y0086559D01*
X0027393Y0086522D01*
X0027391Y0086485D01*
X0027391Y0080540D01*
X0027406Y0079264D01*
X0027453Y0077989D01*
X0027530Y0076716D01*
X0027637Y0075445D01*
X0027776Y0074176D01*
X0027945Y0072912D01*
X0028145Y0071652D01*
X0028375Y0070397D01*
X0028635Y0069148D01*
X0028925Y0067905D01*
X0029245Y0066670D01*
X0029595Y0065443D01*
X0029975Y0064225D01*
X0030384Y0063017D01*
X0030822Y0061819D01*
X0031289Y0060631D01*
X0031784Y0059456D01*
X0032308Y0058292D01*
X0032859Y0057142D01*
X0033438Y0056005D01*
X0034045Y0054883D01*
X0034678Y0053775D01*
X0035338Y0052683D01*
X0036025Y0051608D01*
X0036737Y0050549D01*
X0037474Y0049508D01*
X0038236Y0048485D01*
X0039023Y0047481D01*
X0039834Y0046496D01*
X0040668Y0045530D01*
X0041526Y0044586D01*
X0042406Y0043662D01*
X0043308Y0042760D01*
X0044232Y0041880D01*
X0045176Y0041022D01*
X0046142Y0040188D01*
X0047127Y0039377D01*
X0048131Y0038590D01*
X0049154Y0037828D01*
X0050195Y0037091D01*
X0051254Y0036379D01*
X0052329Y0035692D01*
X0053421Y0035032D01*
X0054529Y0034399D01*
X0055651Y0033792D01*
X0056788Y0033213D01*
X0057938Y0032662D01*
X0059102Y0032138D01*
X0060277Y0031643D01*
X0061465Y0031176D01*
X0062663Y0030738D01*
X0063871Y0030329D01*
X0065089Y0029949D01*
X0066316Y0029599D01*
X0067551Y0029279D01*
X0068794Y0028989D01*
X0070043Y0028729D01*
X0071298Y0028499D01*
X0072558Y0028299D01*
X0073822Y0028130D01*
X0075091Y0027991D01*
X0076362Y0027884D01*
X0077635Y0027807D01*
X0078910Y0027760D01*
X0080186Y0027745D01*
X0081367Y0042312D02*
X0080381Y0042324D01*
X0079395Y0042360D01*
X0078410Y0042421D01*
X0077427Y0042506D01*
X0076446Y0042614D01*
X0075469Y0042747D01*
X0074495Y0042904D01*
X0073525Y0043084D01*
X0072560Y0043289D01*
X0071600Y0043517D01*
X0070646Y0043768D01*
X0069698Y0044043D01*
X0068758Y0044341D01*
X0067825Y0044662D01*
X0066900Y0045005D01*
X0065984Y0045372D01*
X0065078Y0045761D01*
X0064181Y0046171D01*
X0063294Y0046604D01*
X0062418Y0047058D01*
X0061554Y0047534D01*
X0060702Y0048031D01*
X0059862Y0048548D01*
X0059035Y0049086D01*
X0058221Y0049645D01*
X0057422Y0050222D01*
X0056637Y0050820D01*
X0055866Y0051436D01*
X0055111Y0052071D01*
X0054372Y0052725D01*
X0053650Y0053396D01*
X0052943Y0054085D01*
X0052254Y0054792D01*
X0051583Y0055514D01*
X0050929Y0056253D01*
X0050294Y0057008D01*
X0049678Y0057779D01*
X0049080Y0058564D01*
X0048503Y0059363D01*
X0047944Y0060177D01*
X0047406Y0061004D01*
X0046889Y0061844D01*
X0046392Y0062696D01*
X0045916Y0063560D01*
X0045462Y0064436D01*
X0045029Y0065323D01*
X0044619Y0066220D01*
X0044230Y0067126D01*
X0043863Y0068042D01*
X0043520Y0068967D01*
X0043199Y0069900D01*
X0042901Y0070840D01*
X0042626Y0071788D01*
X0042375Y0072742D01*
X0042147Y0073702D01*
X0041942Y0074667D01*
X0041762Y0075637D01*
X0041605Y0076611D01*
X0041472Y0077588D01*
X0041364Y0078569D01*
X0041279Y0079552D01*
X0041218Y0080537D01*
X0041182Y0081523D01*
X0041170Y0082509D01*
X0042311Y0113611D02*
X0042324Y0114687D01*
X0042363Y0115762D01*
X0042428Y0116836D01*
X0042519Y0117909D01*
X0042636Y0118978D01*
X0042778Y0120045D01*
X0042947Y0121108D01*
X0043141Y0122166D01*
X0043360Y0123219D01*
X0043605Y0124267D01*
X0043875Y0125309D01*
X0044170Y0126344D01*
X0044490Y0127371D01*
X0044835Y0128390D01*
X0045205Y0129401D01*
X0045598Y0130402D01*
X0046016Y0131394D01*
X0046458Y0132375D01*
X0046923Y0133345D01*
X0047411Y0134304D01*
X0047923Y0135251D01*
X0048457Y0136185D01*
X0049014Y0137106D01*
X0049593Y0138013D01*
X0050193Y0138906D01*
X0050815Y0139784D01*
X0051458Y0140647D01*
X0052122Y0141494D01*
X0052806Y0142325D01*
X0053509Y0143139D01*
X0054233Y0143935D01*
X0054975Y0144714D01*
X0055736Y0145475D01*
X0056515Y0146217D01*
X0057311Y0146941D01*
X0058125Y0147644D01*
X0058956Y0148328D01*
X0059803Y0148992D01*
X0060666Y0149635D01*
X0061544Y0150257D01*
X0062437Y0150857D01*
X0063344Y0151436D01*
X0064265Y0151993D01*
X0065199Y0152527D01*
X0066146Y0153039D01*
X0067105Y0153527D01*
X0068075Y0153992D01*
X0069056Y0154434D01*
X0070048Y0154852D01*
X0071049Y0155245D01*
X0072060Y0155615D01*
X0073079Y0155960D01*
X0074106Y0156280D01*
X0075141Y0156575D01*
X0076183Y0156845D01*
X0077231Y0157090D01*
X0078284Y0157309D01*
X0079342Y0157503D01*
X0080405Y0157672D01*
X0081472Y0157814D01*
X0082541Y0157931D01*
X0083614Y0158022D01*
X0084688Y0158087D01*
X0085763Y0158126D01*
X0086839Y0158139D01*
X0086839Y0165422D02*
X0085587Y0165407D01*
X0084336Y0165361D01*
X0083086Y0165286D01*
X0081839Y0165180D01*
X0080594Y0165044D01*
X0079353Y0164878D01*
X0078116Y0164682D01*
X0076885Y0164457D01*
X0075659Y0164201D01*
X0074440Y0163916D01*
X0073228Y0163602D01*
X0072024Y0163259D01*
X0070829Y0162886D01*
X0069643Y0162485D01*
X0068467Y0162055D01*
X0067301Y0161597D01*
X0066148Y0161111D01*
X0065006Y0160597D01*
X0063877Y0160056D01*
X0062761Y0159487D01*
X0061660Y0158892D01*
X0060573Y0158271D01*
X0059501Y0157623D01*
X0058446Y0156949D01*
X0057407Y0156251D01*
X0056385Y0155527D01*
X0055381Y0154779D01*
X0054396Y0154007D01*
X0053429Y0153211D01*
X0052482Y0152392D01*
X0051555Y0151551D01*
X0050648Y0150687D01*
X0049763Y0149802D01*
X0048899Y0148895D01*
X0048058Y0147968D01*
X0047239Y0147021D01*
X0046443Y0146054D01*
X0045671Y0145069D01*
X0044923Y0144065D01*
X0044199Y0143043D01*
X0043501Y0142004D01*
X0042827Y0140949D01*
X0042179Y0139877D01*
X0041558Y0138790D01*
X0040963Y0137689D01*
X0040394Y0136573D01*
X0039853Y0135444D01*
X0039339Y0134302D01*
X0038853Y0133149D01*
X0038395Y0131983D01*
X0037965Y0130807D01*
X0037564Y0129621D01*
X0037191Y0128426D01*
X0036848Y0127222D01*
X0036534Y0126010D01*
X0036249Y0124791D01*
X0035993Y0123565D01*
X0035768Y0122334D01*
X0035572Y0121097D01*
X0035406Y0119856D01*
X0035270Y0118611D01*
X0035164Y0117364D01*
X0035089Y0116114D01*
X0035043Y0114863D01*
X0035028Y0113611D01*
X0027745Y0113611D02*
X0027762Y0115039D01*
X0027814Y0116466D01*
X0027900Y0117891D01*
X0028021Y0119314D01*
X0028176Y0120734D01*
X0028365Y0122149D01*
X0028589Y0123560D01*
X0028846Y0124965D01*
X0029137Y0126363D01*
X0029462Y0127753D01*
X0029821Y0129135D01*
X0030212Y0130509D01*
X0030637Y0131872D01*
X0031095Y0133225D01*
X0031585Y0134566D01*
X0032108Y0135895D01*
X0032662Y0137211D01*
X0033248Y0138513D01*
X0033866Y0139801D01*
X0034514Y0141073D01*
X0035193Y0142330D01*
X0035902Y0143569D01*
X0036641Y0144791D01*
X0037409Y0145995D01*
X0038206Y0147180D01*
X0039031Y0148346D01*
X0039884Y0149491D01*
X0040765Y0150615D01*
X0041673Y0151717D01*
X0042607Y0152798D01*
X0043566Y0153855D01*
X0044551Y0154889D01*
X0045561Y0155899D01*
X0046595Y0156884D01*
X0047652Y0157843D01*
X0048733Y0158777D01*
X0049835Y0159685D01*
X0050959Y0160566D01*
X0052104Y0161419D01*
X0053270Y0162244D01*
X0054455Y0163041D01*
X0055659Y0163809D01*
X0056881Y0164548D01*
X0058120Y0165257D01*
X0059377Y0165936D01*
X0060649Y0166584D01*
X0061937Y0167202D01*
X0063239Y0167788D01*
X0064555Y0168342D01*
X0065884Y0168865D01*
X0067225Y0169355D01*
X0068578Y0169813D01*
X0069941Y0170238D01*
X0071315Y0170629D01*
X0072697Y0170988D01*
X0074087Y0171313D01*
X0075485Y0171604D01*
X0076890Y0171861D01*
X0078301Y0172085D01*
X0079716Y0172274D01*
X0081136Y0172429D01*
X0082559Y0172550D01*
X0083984Y0172636D01*
X0085411Y0172688D01*
X0086839Y0172705D01*
X0060855Y0100225D02*
X0060867Y0101191D01*
X0060902Y0102157D01*
X0060962Y0103121D01*
X0061045Y0104084D01*
X0061151Y0105044D01*
X0061281Y0106002D01*
X0061435Y0106956D01*
X0061611Y0107906D01*
X0061812Y0108851D01*
X0062035Y0109791D01*
X0062281Y0110725D01*
X0062550Y0111654D01*
X0062842Y0112575D01*
X0063156Y0113488D01*
X0063493Y0114394D01*
X0063852Y0115291D01*
X0064233Y0116179D01*
X0064635Y0117058D01*
X0065059Y0117926D01*
X0065504Y0118784D01*
X0065970Y0119630D01*
X0066456Y0120465D01*
X0066963Y0121288D01*
X0067490Y0122098D01*
X0068037Y0122895D01*
X0068603Y0123678D01*
X0069188Y0124447D01*
X0069792Y0125201D01*
X0070414Y0125940D01*
X0071054Y0126664D01*
X0071711Y0127372D01*
X0072386Y0128064D01*
X0073078Y0128739D01*
X0073786Y0129396D01*
X0074510Y0130036D01*
X0075249Y0130658D01*
X0076003Y0131262D01*
X0076772Y0131847D01*
X0077555Y0132413D01*
X0078352Y0132960D01*
X0079162Y0133487D01*
X0079985Y0133994D01*
X0080820Y0134480D01*
X0081666Y0134946D01*
X0082524Y0135391D01*
X0083392Y0135815D01*
X0084271Y0136217D01*
X0085159Y0136598D01*
X0086056Y0136957D01*
X0086962Y0137294D01*
X0087875Y0137608D01*
X0088796Y0137900D01*
X0089725Y0138169D01*
X0090659Y0138415D01*
X0091599Y0138638D01*
X0092544Y0138839D01*
X0093494Y0139015D01*
X0094448Y0139169D01*
X0095406Y0139299D01*
X0096366Y0139405D01*
X0097329Y0139488D01*
X0098293Y0139548D01*
X0099259Y0139583D01*
X0100225Y0139595D01*
X0101191Y0139583D01*
X0102157Y0139548D01*
X0103121Y0139488D01*
X0104084Y0139405D01*
X0105044Y0139299D01*
X0106002Y0139169D01*
X0106956Y0139015D01*
X0107906Y0138839D01*
X0108851Y0138638D01*
X0109791Y0138415D01*
X0110725Y0138169D01*
X0111654Y0137900D01*
X0112575Y0137608D01*
X0113488Y0137294D01*
X0114394Y0136957D01*
X0115291Y0136598D01*
X0116179Y0136217D01*
X0117058Y0135815D01*
X0117926Y0135391D01*
X0118784Y0134946D01*
X0119630Y0134480D01*
X0120465Y0133994D01*
X0121288Y0133487D01*
X0122098Y0132960D01*
X0122895Y0132413D01*
X0123678Y0131847D01*
X0124447Y0131262D01*
X0125201Y0130658D01*
X0125940Y0130036D01*
X0126664Y0129396D01*
X0127372Y0128739D01*
X0128064Y0128064D01*
X0128739Y0127372D01*
X0129396Y0126664D01*
X0130036Y0125940D01*
X0130658Y0125201D01*
X0131262Y0124447D01*
X0131847Y0123678D01*
X0132413Y0122895D01*
X0132960Y0122098D01*
X0133487Y0121288D01*
X0133994Y0120465D01*
X0134480Y0119630D01*
X0134946Y0118784D01*
X0135391Y0117926D01*
X0135815Y0117058D01*
X0136217Y0116179D01*
X0136598Y0115291D01*
X0136957Y0114394D01*
X0137294Y0113488D01*
X0137608Y0112575D01*
X0137900Y0111654D01*
X0138169Y0110725D01*
X0138415Y0109791D01*
X0138638Y0108851D01*
X0138839Y0107906D01*
X0139015Y0106956D01*
X0139169Y0106002D01*
X0139299Y0105044D01*
X0139405Y0104084D01*
X0139488Y0103121D01*
X0139548Y0102157D01*
X0139583Y0101191D01*
X0139595Y0100225D01*
X0139583Y0099259D01*
X0139548Y0098293D01*
X0139488Y0097329D01*
X0139405Y0096366D01*
X0139299Y0095406D01*
X0139169Y0094448D01*
X0139015Y0093494D01*
X0138839Y0092544D01*
X0138638Y0091599D01*
X0138415Y0090659D01*
X0138169Y0089725D01*
X0137900Y0088796D01*
X0137608Y0087875D01*
X0137294Y0086962D01*
X0136957Y0086056D01*
X0136598Y0085159D01*
X0136217Y0084271D01*
X0135815Y0083392D01*
X0135391Y0082524D01*
X0134946Y0081666D01*
X0134480Y0080820D01*
X0133994Y0079985D01*
X0133487Y0079162D01*
X0132960Y0078352D01*
X0132413Y0077555D01*
X0131847Y0076772D01*
X0131262Y0076003D01*
X0130658Y0075249D01*
X0130036Y0074510D01*
X0129396Y0073786D01*
X0128739Y0073078D01*
X0128064Y0072386D01*
X0127372Y0071711D01*
X0126664Y0071054D01*
X0125940Y0070414D01*
X0125201Y0069792D01*
X0124447Y0069188D01*
X0123678Y0068603D01*
X0122895Y0068037D01*
X0122098Y0067490D01*
X0121288Y0066963D01*
X0120465Y0066456D01*
X0119630Y0065970D01*
X0118784Y0065504D01*
X0117926Y0065059D01*
X0117058Y0064635D01*
X0116179Y0064233D01*
X0115291Y0063852D01*
X0114394Y0063493D01*
X0113488Y0063156D01*
X0112575Y0062842D01*
X0111654Y0062550D01*
X0110725Y0062281D01*
X0109791Y0062035D01*
X0108851Y0061812D01*
X0107906Y0061611D01*
X0106956Y0061435D01*
X0106002Y0061281D01*
X0105044Y0061151D01*
X0104084Y0061045D01*
X0103121Y0060962D01*
X0102157Y0060902D01*
X0101191Y0060867D01*
X0100225Y0060855D01*
X0099259Y0060867D01*
X0098293Y0060902D01*
X0097329Y0060962D01*
X0096366Y0061045D01*
X0095406Y0061151D01*
X0094448Y0061281D01*
X0093494Y0061435D01*
X0092544Y0061611D01*
X0091599Y0061812D01*
X0090659Y0062035D01*
X0089725Y0062281D01*
X0088796Y0062550D01*
X0087875Y0062842D01*
X0086962Y0063156D01*
X0086056Y0063493D01*
X0085159Y0063852D01*
X0084271Y0064233D01*
X0083392Y0064635D01*
X0082524Y0065059D01*
X0081666Y0065504D01*
X0080820Y0065970D01*
X0079985Y0066456D01*
X0079162Y0066963D01*
X0078352Y0067490D01*
X0077555Y0068037D01*
X0076772Y0068603D01*
X0076003Y0069188D01*
X0075249Y0069792D01*
X0074510Y0070414D01*
X0073786Y0071054D01*
X0073078Y0071711D01*
X0072386Y0072386D01*
X0071711Y0073078D01*
X0071054Y0073786D01*
X0070414Y0074510D01*
X0069792Y0075249D01*
X0069188Y0076003D01*
X0068603Y0076772D01*
X0068037Y0077555D01*
X0067490Y0078352D01*
X0066963Y0079162D01*
X0066456Y0079985D01*
X0065970Y0080820D01*
X0065504Y0081666D01*
X0065059Y0082524D01*
X0064635Y0083392D01*
X0064233Y0084271D01*
X0063852Y0085159D01*
X0063493Y0086056D01*
X0063156Y0086962D01*
X0062842Y0087875D01*
X0062550Y0088796D01*
X0062281Y0089725D01*
X0062035Y0090659D01*
X0061812Y0091599D01*
X0061611Y0092544D01*
X0061435Y0093494D01*
X0061281Y0094448D01*
X0061151Y0095406D01*
X0061045Y0096366D01*
X0060962Y0097329D01*
X0060902Y0098293D01*
X0060867Y0099259D01*
X0060855Y0100225D01*
X0001800Y0100225D02*
X0001830Y0102640D01*
X0001919Y0105054D01*
X0002067Y0107466D01*
X0002274Y0109872D01*
X0002540Y0112273D01*
X0002865Y0114667D01*
X0003249Y0117052D01*
X0003691Y0119427D01*
X0004192Y0121790D01*
X0004750Y0124140D01*
X0005365Y0126476D01*
X0006038Y0128796D01*
X0006768Y0131099D01*
X0007554Y0133383D01*
X0008395Y0135648D01*
X0009292Y0137891D01*
X0010244Y0140111D01*
X0011250Y0142307D01*
X0012309Y0144478D01*
X0013422Y0146622D01*
X0014587Y0148739D01*
X0015803Y0150826D01*
X0017070Y0152882D01*
X0018388Y0154907D01*
X0019754Y0156899D01*
X0021169Y0158857D01*
X0022632Y0160779D01*
X0024141Y0162665D01*
X0025697Y0164514D01*
X0027297Y0166323D01*
X0028941Y0168093D01*
X0030628Y0169822D01*
X0032357Y0171509D01*
X0034127Y0173153D01*
X0035936Y0174753D01*
X0037785Y0176309D01*
X0039671Y0177818D01*
X0041593Y0179281D01*
X0043551Y0180696D01*
X0045543Y0182062D01*
X0047568Y0183380D01*
X0049624Y0184647D01*
X0051711Y0185863D01*
X0053828Y0187028D01*
X0055972Y0188141D01*
X0058143Y0189200D01*
X0060339Y0190206D01*
X0062559Y0191158D01*
X0064802Y0192055D01*
X0067067Y0192896D01*
X0069351Y0193682D01*
X0071654Y0194412D01*
X0073974Y0195085D01*
X0076310Y0195700D01*
X0078660Y0196258D01*
X0081023Y0196759D01*
X0083398Y0197201D01*
X0085783Y0197585D01*
X0088177Y0197910D01*
X0090578Y0198176D01*
X0092984Y0198383D01*
X0095396Y0198531D01*
X0097810Y0198620D01*
X0100225Y0198650D01*
X0102640Y0198620D01*
X0105054Y0198531D01*
X0107466Y0198383D01*
X0109872Y0198176D01*
X0112273Y0197910D01*
X0114667Y0197585D01*
X0117052Y0197201D01*
X0119427Y0196759D01*
X0121790Y0196258D01*
X0124140Y0195700D01*
X0126476Y0195085D01*
X0128796Y0194412D01*
X0131099Y0193682D01*
X0133383Y0192896D01*
X0135648Y0192055D01*
X0137891Y0191158D01*
X0140111Y0190206D01*
X0142307Y0189200D01*
X0144478Y0188141D01*
X0146622Y0187028D01*
X0148739Y0185863D01*
X0150826Y0184647D01*
X0152882Y0183380D01*
X0154907Y0182062D01*
X0156899Y0180696D01*
X0158857Y0179281D01*
X0160779Y0177818D01*
X0162665Y0176309D01*
X0164514Y0174753D01*
X0166323Y0173153D01*
X0168093Y0171509D01*
X0169822Y0169822D01*
X0171509Y0168093D01*
X0173153Y0166323D01*
X0174753Y0164514D01*
X0176309Y0162665D01*
X0177818Y0160779D01*
X0179281Y0158857D01*
X0180696Y0156899D01*
X0182062Y0154907D01*
X0183380Y0152882D01*
X0184647Y0150826D01*
X0185863Y0148739D01*
X0187028Y0146622D01*
X0188141Y0144478D01*
X0189200Y0142307D01*
X0190206Y0140111D01*
X0191158Y0137891D01*
X0192055Y0135648D01*
X0192896Y0133383D01*
X0193682Y0131099D01*
X0194412Y0128796D01*
X0195085Y0126476D01*
X0195700Y0124140D01*
X0196258Y0121790D01*
X0196759Y0119427D01*
X0197201Y0117052D01*
X0197585Y0114667D01*
X0197910Y0112273D01*
X0198176Y0109872D01*
X0198383Y0107466D01*
X0198531Y0105054D01*
X0198620Y0102640D01*
X0198650Y0100225D01*
X0198620Y0097810D01*
X0198531Y0095396D01*
X0198383Y0092984D01*
X0198176Y0090578D01*
X0197910Y0088177D01*
X0197585Y0085783D01*
X0197201Y0083398D01*
X0196759Y0081023D01*
X0196258Y0078660D01*
X0195700Y0076310D01*
X0195085Y0073974D01*
X0194412Y0071654D01*
X0193682Y0069351D01*
X0192896Y0067067D01*
X0192055Y0064802D01*
X0191158Y0062559D01*
X0190206Y0060339D01*
X0189200Y0058143D01*
X0188141Y0055972D01*
X0187028Y0053828D01*
X0185863Y0051711D01*
X0184647Y0049624D01*
X0183380Y0047568D01*
X0182062Y0045543D01*
X0180696Y0043551D01*
X0179281Y0041593D01*
X0177818Y0039671D01*
X0176309Y0037785D01*
X0174753Y0035936D01*
X0173153Y0034127D01*
X0171509Y0032357D01*
X0169822Y0030628D01*
X0168093Y0028941D01*
X0166323Y0027297D01*
X0164514Y0025697D01*
X0162665Y0024141D01*
X0160779Y0022632D01*
X0158857Y0021169D01*
X0156899Y0019754D01*
X0154907Y0018388D01*
X0152882Y0017070D01*
X0150826Y0015803D01*
X0148739Y0014587D01*
X0146622Y0013422D01*
X0144478Y0012309D01*
X0142307Y0011250D01*
X0140111Y0010244D01*
X0137891Y0009292D01*
X0135648Y0008395D01*
X0133383Y0007554D01*
X0131099Y0006768D01*
X0128796Y0006038D01*
X0126476Y0005365D01*
X0124140Y0004750D01*
X0121790Y0004192D01*
X0119427Y0003691D01*
X0117052Y0003249D01*
X0114667Y0002865D01*
X0112273Y0002540D01*
X0109872Y0002274D01*
X0107466Y0002067D01*
X0105054Y0001919D01*
X0102640Y0001830D01*
X0100225Y0001800D01*
X0097810Y0001830D01*
X0095396Y0001919D01*
X0092984Y0002067D01*
X0090578Y0002274D01*
X0088177Y0002540D01*
X0085783Y0002865D01*
X0083398Y0003249D01*
X0081023Y0003691D01*
X0078660Y0004192D01*
X0076310Y0004750D01*
X0073974Y0005365D01*
X0071654Y0006038D01*
X0069351Y0006768D01*
X0067067Y0007554D01*
X0064802Y0008395D01*
X0062559Y0009292D01*
X0060339Y0010244D01*
X0058143Y0011250D01*
X0055972Y0012309D01*
X0053828Y0013422D01*
X0051711Y0014587D01*
X0049624Y0015803D01*
X0047568Y0017070D01*
X0045543Y0018388D01*
X0043551Y0019754D01*
X0041593Y0021169D01*
X0039671Y0022632D01*
X0037785Y0024141D01*
X0035936Y0025697D01*
X0034127Y0027297D01*
X0032357Y0028941D01*
X0030628Y0030628D01*
X0028941Y0032357D01*
X0027297Y0034127D01*
X0025697Y0035936D01*
X0024141Y0037785D01*
X0022632Y0039671D01*
X0021169Y0041593D01*
X0019754Y0043551D01*
X0018388Y0045543D01*
X0017070Y0047568D01*
X0015803Y0049624D01*
X0014587Y0051711D01*
X0013422Y0053828D01*
X0012309Y0055972D01*
X0011250Y0058143D01*
X0010244Y0060339D01*
X0009292Y0062559D01*
X0008395Y0064802D01*
X0007554Y0067067D01*
X0006768Y0069351D01*
X0006038Y0071654D01*
X0005365Y0073974D01*
X0004750Y0076310D01*
X0004192Y0078660D01*
X0003691Y0081023D01*
X0003249Y0083398D01*
X0002865Y0085783D01*
X0002540Y0088177D01*
X0002274Y0090578D01*
X0002067Y0092984D01*
X0001919Y0095396D01*
X0001830Y0097810D01*
X0001800Y0100225D01*
X0115973Y0035264D02*
X0117168Y0035278D01*
X0118362Y0035322D01*
X0119555Y0035394D01*
X0120746Y0035495D01*
X0121933Y0035625D01*
X0123118Y0035783D01*
X0124298Y0035970D01*
X0125473Y0036185D01*
X0126643Y0036429D01*
X0127807Y0036701D01*
X0128964Y0037001D01*
X0130113Y0037329D01*
X0131254Y0037684D01*
X0132386Y0038067D01*
X0133508Y0038477D01*
X0134620Y0038915D01*
X0135721Y0039379D01*
X0136811Y0039869D01*
X0137888Y0040386D01*
X0138953Y0040928D01*
X0140004Y0041496D01*
X0141042Y0042089D01*
X0142064Y0042708D01*
X0143072Y0043350D01*
X0144063Y0044017D01*
X0145038Y0044708D01*
X0145997Y0045422D01*
X0146937Y0046159D01*
X0147860Y0046918D01*
X0148764Y0047700D01*
X0149649Y0048503D01*
X0150514Y0049327D01*
X0151359Y0050172D01*
X0152183Y0051037D01*
X0152986Y0051922D01*
X0153768Y0052826D01*
X0154527Y0053749D01*
X0155264Y0054689D01*
X0155978Y0055648D01*
X0156669Y0056623D01*
X0157336Y0057614D01*
X0157978Y0058622D01*
X0158597Y0059644D01*
X0159190Y0060682D01*
X0159758Y0061733D01*
X0160300Y0062798D01*
X0160817Y0063875D01*
X0161307Y0064965D01*
X0161771Y0066066D01*
X0162209Y0067178D01*
X0162619Y0068300D01*
X0163002Y0069432D01*
X0163357Y0070573D01*
X0163685Y0071722D01*
X0163985Y0072879D01*
X0164257Y0074043D01*
X0164501Y0075213D01*
X0164716Y0076388D01*
X0164903Y0077568D01*
X0165061Y0078753D01*
X0165191Y0079940D01*
X0165292Y0081131D01*
X0165364Y0082324D01*
X0165408Y0083518D01*
X0165422Y0084713D01*
D11*
X0141100Y0126831D03*
X0134029Y0133902D03*
X0126957Y0140973D03*
D12*
X0121563Y0158611D02*
X0105659Y0158611D01*
X0121563Y0158611D02*
X0121563Y0157667D01*
X0105659Y0157667D01*
X0105659Y0158611D01*
X0105659Y0165894D02*
X0121563Y0165894D01*
X0121563Y0164950D01*
X0105659Y0164950D01*
X0105659Y0165894D01*
X0105659Y0173178D02*
X0121563Y0173178D01*
X0121563Y0172234D01*
X0105659Y0172234D01*
X0105659Y0173178D01*
X0094791Y0173178D02*
X0078887Y0173178D01*
X0094791Y0173178D02*
X0094791Y0172234D01*
X0078887Y0172234D01*
X0078887Y0173178D01*
X0078887Y0165894D02*
X0094791Y0165894D01*
X0094791Y0164950D01*
X0078887Y0164950D01*
X0078887Y0165894D01*
X0078887Y0158611D02*
X0094791Y0158611D01*
X0094791Y0157667D01*
X0078887Y0157667D01*
X0078887Y0158611D01*
X0041840Y0121563D02*
X0041840Y0105659D01*
X0041840Y0121563D02*
X0042784Y0121563D01*
X0042784Y0105659D01*
X0041840Y0105659D01*
X0041840Y0109438D02*
X0042784Y0109438D01*
X0042784Y0113217D02*
X0041840Y0113217D01*
X0041840Y0116996D02*
X0042784Y0116996D01*
X0042784Y0120775D02*
X0041840Y0120775D01*
X0034556Y0121563D02*
X0034556Y0105659D01*
X0034556Y0121563D02*
X0035500Y0121563D01*
X0035500Y0105659D01*
X0034556Y0105659D01*
X0034556Y0109438D02*
X0035500Y0109438D01*
X0035500Y0113217D02*
X0034556Y0113217D01*
X0034556Y0116996D02*
X0035500Y0116996D01*
X0035500Y0120775D02*
X0034556Y0120775D01*
X0027273Y0121563D02*
X0027273Y0105659D01*
X0027273Y0121563D02*
X0028217Y0121563D01*
X0028217Y0105659D01*
X0027273Y0105659D01*
X0027273Y0109438D02*
X0028217Y0109438D01*
X0028217Y0113217D02*
X0027273Y0113217D01*
X0027273Y0116996D02*
X0028217Y0116996D01*
X0028217Y0120775D02*
X0027273Y0120775D01*
X0027273Y0094791D02*
X0027273Y0078887D01*
X0027273Y0094791D02*
X0028217Y0094791D01*
X0028217Y0078887D01*
X0027273Y0078887D01*
X0027273Y0082666D02*
X0028217Y0082666D01*
X0028217Y0086445D02*
X0027273Y0086445D01*
X0027273Y0090224D02*
X0028217Y0090224D01*
X0028217Y0094003D02*
X0027273Y0094003D01*
X0034556Y0094791D02*
X0034556Y0078887D01*
X0034556Y0094791D02*
X0035500Y0094791D01*
X0035500Y0078887D01*
X0034556Y0078887D01*
X0034556Y0082666D02*
X0035500Y0082666D01*
X0035500Y0086445D02*
X0034556Y0086445D01*
X0034556Y0090224D02*
X0035500Y0090224D01*
X0035500Y0094003D02*
X0034556Y0094003D01*
X0041840Y0094791D02*
X0041840Y0078887D01*
X0041840Y0094791D02*
X0042784Y0094791D01*
X0042784Y0078887D01*
X0041840Y0078887D01*
X0041840Y0082666D02*
X0042784Y0082666D01*
X0042784Y0086445D02*
X0041840Y0086445D01*
X0041840Y0090224D02*
X0042784Y0090224D01*
X0042784Y0094003D02*
X0041840Y0094003D01*
X0078887Y0041840D02*
X0094791Y0041840D01*
X0078887Y0041840D02*
X0078887Y0042784D01*
X0094791Y0042784D01*
X0094791Y0041840D01*
X0094791Y0034556D02*
X0078887Y0034556D01*
X0078887Y0035500D01*
X0094791Y0035500D01*
X0094791Y0034556D01*
X0094791Y0027273D02*
X0078887Y0027273D01*
X0078887Y0028217D01*
X0094791Y0028217D01*
X0094791Y0027273D01*
X0105659Y0027273D02*
X0121563Y0027273D01*
X0105659Y0027273D02*
X0105659Y0028217D01*
X0121563Y0028217D01*
X0121563Y0027273D01*
X0121563Y0034556D02*
X0105659Y0034556D01*
X0105659Y0035500D01*
X0121563Y0035500D01*
X0121563Y0034556D01*
X0121563Y0041840D02*
X0105659Y0041840D01*
X0105659Y0042784D01*
X0121563Y0042784D01*
X0121563Y0041840D01*
X0158611Y0076919D02*
X0158611Y0092823D01*
X0158611Y0076919D02*
X0157667Y0076919D01*
X0157667Y0092823D01*
X0158611Y0092823D01*
X0158611Y0080698D02*
X0157667Y0080698D01*
X0157667Y0084477D02*
X0158611Y0084477D01*
X0158611Y0088256D02*
X0157667Y0088256D01*
X0157667Y0092035D02*
X0158611Y0092035D01*
X0165894Y0092823D02*
X0165894Y0076919D01*
X0164950Y0076919D01*
X0164950Y0092823D01*
X0165894Y0092823D01*
X0165894Y0080698D02*
X0164950Y0080698D01*
X0164950Y0084477D02*
X0165894Y0084477D01*
X0165894Y0088256D02*
X0164950Y0088256D01*
X0164950Y0092035D02*
X0165894Y0092035D01*
X0173178Y0092823D02*
X0173178Y0076919D01*
X0172234Y0076919D01*
X0172234Y0092823D01*
X0173178Y0092823D01*
X0173178Y0080698D02*
X0172234Y0080698D01*
X0172234Y0084477D02*
X0173178Y0084477D01*
X0173178Y0088256D02*
X0172234Y0088256D01*
X0172234Y0092035D02*
X0173178Y0092035D01*
X0173178Y0103691D02*
X0173178Y0119595D01*
X0173178Y0103691D02*
X0172234Y0103691D01*
X0172234Y0119595D01*
X0173178Y0119595D01*
X0173178Y0107470D02*
X0172234Y0107470D01*
X0172234Y0111249D02*
X0173178Y0111249D01*
X0173178Y0115028D02*
X0172234Y0115028D01*
X0172234Y0118807D02*
X0173178Y0118807D01*
X0165894Y0119595D02*
X0165894Y0103691D01*
X0164950Y0103691D01*
X0164950Y0119595D01*
X0165894Y0119595D01*
X0165894Y0107470D02*
X0164950Y0107470D01*
X0164950Y0111249D02*
X0165894Y0111249D01*
X0165894Y0115028D02*
X0164950Y0115028D01*
X0164950Y0118807D02*
X0165894Y0118807D01*
X0158611Y0119595D02*
X0158611Y0103691D01*
X0157667Y0103691D01*
X0157667Y0119595D01*
X0158611Y0119595D01*
X0158611Y0107470D02*
X0157667Y0107470D01*
X0157667Y0111249D02*
X0158611Y0111249D01*
X0158611Y0115028D02*
X0157667Y0115028D01*
X0157667Y0118807D02*
X0158611Y0118807D01*
D13*
X0161249Y0137627D03*
X0169123Y0137627D03*
X0176997Y0137627D03*
M02*
