G75*
%MOIN*%
%OFA0B0*%
%FSLAX25Y25*%
%IPPOS*%
%LPD*%
%AMOC8*
5,1,8,0,0,1.08239X$1,22.5*
%
%ADD10C,0.01600*%
D10*
X0060855Y0100225D02*
X0060867Y0101191D01*
X0060902Y0102157D01*
X0060962Y0103121D01*
X0061045Y0104084D01*
X0061151Y0105044D01*
X0061281Y0106002D01*
X0061435Y0106956D01*
X0061611Y0107906D01*
X0061812Y0108851D01*
X0062035Y0109791D01*
X0062281Y0110725D01*
X0062550Y0111654D01*
X0062842Y0112575D01*
X0063156Y0113488D01*
X0063493Y0114394D01*
X0063852Y0115291D01*
X0064233Y0116179D01*
X0064635Y0117058D01*
X0065059Y0117926D01*
X0065504Y0118784D01*
X0065970Y0119630D01*
X0066456Y0120465D01*
X0066963Y0121288D01*
X0067490Y0122098D01*
X0068037Y0122895D01*
X0068603Y0123678D01*
X0069188Y0124447D01*
X0069792Y0125201D01*
X0070414Y0125940D01*
X0071054Y0126664D01*
X0071711Y0127372D01*
X0072386Y0128064D01*
X0073078Y0128739D01*
X0073786Y0129396D01*
X0074510Y0130036D01*
X0075249Y0130658D01*
X0076003Y0131262D01*
X0076772Y0131847D01*
X0077555Y0132413D01*
X0078352Y0132960D01*
X0079162Y0133487D01*
X0079985Y0133994D01*
X0080820Y0134480D01*
X0081666Y0134946D01*
X0082524Y0135391D01*
X0083392Y0135815D01*
X0084271Y0136217D01*
X0085159Y0136598D01*
X0086056Y0136957D01*
X0086962Y0137294D01*
X0087875Y0137608D01*
X0088796Y0137900D01*
X0089725Y0138169D01*
X0090659Y0138415D01*
X0091599Y0138638D01*
X0092544Y0138839D01*
X0093494Y0139015D01*
X0094448Y0139169D01*
X0095406Y0139299D01*
X0096366Y0139405D01*
X0097329Y0139488D01*
X0098293Y0139548D01*
X0099259Y0139583D01*
X0100225Y0139595D01*
X0101191Y0139583D01*
X0102157Y0139548D01*
X0103121Y0139488D01*
X0104084Y0139405D01*
X0105044Y0139299D01*
X0106002Y0139169D01*
X0106956Y0139015D01*
X0107906Y0138839D01*
X0108851Y0138638D01*
X0109791Y0138415D01*
X0110725Y0138169D01*
X0111654Y0137900D01*
X0112575Y0137608D01*
X0113488Y0137294D01*
X0114394Y0136957D01*
X0115291Y0136598D01*
X0116179Y0136217D01*
X0117058Y0135815D01*
X0117926Y0135391D01*
X0118784Y0134946D01*
X0119630Y0134480D01*
X0120465Y0133994D01*
X0121288Y0133487D01*
X0122098Y0132960D01*
X0122895Y0132413D01*
X0123678Y0131847D01*
X0124447Y0131262D01*
X0125201Y0130658D01*
X0125940Y0130036D01*
X0126664Y0129396D01*
X0127372Y0128739D01*
X0128064Y0128064D01*
X0128739Y0127372D01*
X0129396Y0126664D01*
X0130036Y0125940D01*
X0130658Y0125201D01*
X0131262Y0124447D01*
X0131847Y0123678D01*
X0132413Y0122895D01*
X0132960Y0122098D01*
X0133487Y0121288D01*
X0133994Y0120465D01*
X0134480Y0119630D01*
X0134946Y0118784D01*
X0135391Y0117926D01*
X0135815Y0117058D01*
X0136217Y0116179D01*
X0136598Y0115291D01*
X0136957Y0114394D01*
X0137294Y0113488D01*
X0137608Y0112575D01*
X0137900Y0111654D01*
X0138169Y0110725D01*
X0138415Y0109791D01*
X0138638Y0108851D01*
X0138839Y0107906D01*
X0139015Y0106956D01*
X0139169Y0106002D01*
X0139299Y0105044D01*
X0139405Y0104084D01*
X0139488Y0103121D01*
X0139548Y0102157D01*
X0139583Y0101191D01*
X0139595Y0100225D01*
X0139583Y0099259D01*
X0139548Y0098293D01*
X0139488Y0097329D01*
X0139405Y0096366D01*
X0139299Y0095406D01*
X0139169Y0094448D01*
X0139015Y0093494D01*
X0138839Y0092544D01*
X0138638Y0091599D01*
X0138415Y0090659D01*
X0138169Y0089725D01*
X0137900Y0088796D01*
X0137608Y0087875D01*
X0137294Y0086962D01*
X0136957Y0086056D01*
X0136598Y0085159D01*
X0136217Y0084271D01*
X0135815Y0083392D01*
X0135391Y0082524D01*
X0134946Y0081666D01*
X0134480Y0080820D01*
X0133994Y0079985D01*
X0133487Y0079162D01*
X0132960Y0078352D01*
X0132413Y0077555D01*
X0131847Y0076772D01*
X0131262Y0076003D01*
X0130658Y0075249D01*
X0130036Y0074510D01*
X0129396Y0073786D01*
X0128739Y0073078D01*
X0128064Y0072386D01*
X0127372Y0071711D01*
X0126664Y0071054D01*
X0125940Y0070414D01*
X0125201Y0069792D01*
X0124447Y0069188D01*
X0123678Y0068603D01*
X0122895Y0068037D01*
X0122098Y0067490D01*
X0121288Y0066963D01*
X0120465Y0066456D01*
X0119630Y0065970D01*
X0118784Y0065504D01*
X0117926Y0065059D01*
X0117058Y0064635D01*
X0116179Y0064233D01*
X0115291Y0063852D01*
X0114394Y0063493D01*
X0113488Y0063156D01*
X0112575Y0062842D01*
X0111654Y0062550D01*
X0110725Y0062281D01*
X0109791Y0062035D01*
X0108851Y0061812D01*
X0107906Y0061611D01*
X0106956Y0061435D01*
X0106002Y0061281D01*
X0105044Y0061151D01*
X0104084Y0061045D01*
X0103121Y0060962D01*
X0102157Y0060902D01*
X0101191Y0060867D01*
X0100225Y0060855D01*
X0099259Y0060867D01*
X0098293Y0060902D01*
X0097329Y0060962D01*
X0096366Y0061045D01*
X0095406Y0061151D01*
X0094448Y0061281D01*
X0093494Y0061435D01*
X0092544Y0061611D01*
X0091599Y0061812D01*
X0090659Y0062035D01*
X0089725Y0062281D01*
X0088796Y0062550D01*
X0087875Y0062842D01*
X0086962Y0063156D01*
X0086056Y0063493D01*
X0085159Y0063852D01*
X0084271Y0064233D01*
X0083392Y0064635D01*
X0082524Y0065059D01*
X0081666Y0065504D01*
X0080820Y0065970D01*
X0079985Y0066456D01*
X0079162Y0066963D01*
X0078352Y0067490D01*
X0077555Y0068037D01*
X0076772Y0068603D01*
X0076003Y0069188D01*
X0075249Y0069792D01*
X0074510Y0070414D01*
X0073786Y0071054D01*
X0073078Y0071711D01*
X0072386Y0072386D01*
X0071711Y0073078D01*
X0071054Y0073786D01*
X0070414Y0074510D01*
X0069792Y0075249D01*
X0069188Y0076003D01*
X0068603Y0076772D01*
X0068037Y0077555D01*
X0067490Y0078352D01*
X0066963Y0079162D01*
X0066456Y0079985D01*
X0065970Y0080820D01*
X0065504Y0081666D01*
X0065059Y0082524D01*
X0064635Y0083392D01*
X0064233Y0084271D01*
X0063852Y0085159D01*
X0063493Y0086056D01*
X0063156Y0086962D01*
X0062842Y0087875D01*
X0062550Y0088796D01*
X0062281Y0089725D01*
X0062035Y0090659D01*
X0061812Y0091599D01*
X0061611Y0092544D01*
X0061435Y0093494D01*
X0061281Y0094448D01*
X0061151Y0095406D01*
X0061045Y0096366D01*
X0060962Y0097329D01*
X0060902Y0098293D01*
X0060867Y0099259D01*
X0060855Y0100225D01*
X0001800Y0100225D02*
X0001830Y0102640D01*
X0001919Y0105054D01*
X0002067Y0107466D01*
X0002274Y0109872D01*
X0002540Y0112273D01*
X0002865Y0114667D01*
X0003249Y0117052D01*
X0003691Y0119427D01*
X0004192Y0121790D01*
X0004750Y0124140D01*
X0005365Y0126476D01*
X0006038Y0128796D01*
X0006768Y0131099D01*
X0007554Y0133383D01*
X0008395Y0135648D01*
X0009292Y0137891D01*
X0010244Y0140111D01*
X0011250Y0142307D01*
X0012309Y0144478D01*
X0013422Y0146622D01*
X0014587Y0148739D01*
X0015803Y0150826D01*
X0017070Y0152882D01*
X0018388Y0154907D01*
X0019754Y0156899D01*
X0021169Y0158857D01*
X0022632Y0160779D01*
X0024141Y0162665D01*
X0025697Y0164514D01*
X0027297Y0166323D01*
X0028941Y0168093D01*
X0030628Y0169822D01*
X0032357Y0171509D01*
X0034127Y0173153D01*
X0035936Y0174753D01*
X0037785Y0176309D01*
X0039671Y0177818D01*
X0041593Y0179281D01*
X0043551Y0180696D01*
X0045543Y0182062D01*
X0047568Y0183380D01*
X0049624Y0184647D01*
X0051711Y0185863D01*
X0053828Y0187028D01*
X0055972Y0188141D01*
X0058143Y0189200D01*
X0060339Y0190206D01*
X0062559Y0191158D01*
X0064802Y0192055D01*
X0067067Y0192896D01*
X0069351Y0193682D01*
X0071654Y0194412D01*
X0073974Y0195085D01*
X0076310Y0195700D01*
X0078660Y0196258D01*
X0081023Y0196759D01*
X0083398Y0197201D01*
X0085783Y0197585D01*
X0088177Y0197910D01*
X0090578Y0198176D01*
X0092984Y0198383D01*
X0095396Y0198531D01*
X0097810Y0198620D01*
X0100225Y0198650D01*
X0102640Y0198620D01*
X0105054Y0198531D01*
X0107466Y0198383D01*
X0109872Y0198176D01*
X0112273Y0197910D01*
X0114667Y0197585D01*
X0117052Y0197201D01*
X0119427Y0196759D01*
X0121790Y0196258D01*
X0124140Y0195700D01*
X0126476Y0195085D01*
X0128796Y0194412D01*
X0131099Y0193682D01*
X0133383Y0192896D01*
X0135648Y0192055D01*
X0137891Y0191158D01*
X0140111Y0190206D01*
X0142307Y0189200D01*
X0144478Y0188141D01*
X0146622Y0187028D01*
X0148739Y0185863D01*
X0150826Y0184647D01*
X0152882Y0183380D01*
X0154907Y0182062D01*
X0156899Y0180696D01*
X0158857Y0179281D01*
X0160779Y0177818D01*
X0162665Y0176309D01*
X0164514Y0174753D01*
X0166323Y0173153D01*
X0168093Y0171509D01*
X0169822Y0169822D01*
X0171509Y0168093D01*
X0173153Y0166323D01*
X0174753Y0164514D01*
X0176309Y0162665D01*
X0177818Y0160779D01*
X0179281Y0158857D01*
X0180696Y0156899D01*
X0182062Y0154907D01*
X0183380Y0152882D01*
X0184647Y0150826D01*
X0185863Y0148739D01*
X0187028Y0146622D01*
X0188141Y0144478D01*
X0189200Y0142307D01*
X0190206Y0140111D01*
X0191158Y0137891D01*
X0192055Y0135648D01*
X0192896Y0133383D01*
X0193682Y0131099D01*
X0194412Y0128796D01*
X0195085Y0126476D01*
X0195700Y0124140D01*
X0196258Y0121790D01*
X0196759Y0119427D01*
X0197201Y0117052D01*
X0197585Y0114667D01*
X0197910Y0112273D01*
X0198176Y0109872D01*
X0198383Y0107466D01*
X0198531Y0105054D01*
X0198620Y0102640D01*
X0198650Y0100225D01*
X0198620Y0097810D01*
X0198531Y0095396D01*
X0198383Y0092984D01*
X0198176Y0090578D01*
X0197910Y0088177D01*
X0197585Y0085783D01*
X0197201Y0083398D01*
X0196759Y0081023D01*
X0196258Y0078660D01*
X0195700Y0076310D01*
X0195085Y0073974D01*
X0194412Y0071654D01*
X0193682Y0069351D01*
X0192896Y0067067D01*
X0192055Y0064802D01*
X0191158Y0062559D01*
X0190206Y0060339D01*
X0189200Y0058143D01*
X0188141Y0055972D01*
X0187028Y0053828D01*
X0185863Y0051711D01*
X0184647Y0049624D01*
X0183380Y0047568D01*
X0182062Y0045543D01*
X0180696Y0043551D01*
X0179281Y0041593D01*
X0177818Y0039671D01*
X0176309Y0037785D01*
X0174753Y0035936D01*
X0173153Y0034127D01*
X0171509Y0032357D01*
X0169822Y0030628D01*
X0168093Y0028941D01*
X0166323Y0027297D01*
X0164514Y0025697D01*
X0162665Y0024141D01*
X0160779Y0022632D01*
X0158857Y0021169D01*
X0156899Y0019754D01*
X0154907Y0018388D01*
X0152882Y0017070D01*
X0150826Y0015803D01*
X0148739Y0014587D01*
X0146622Y0013422D01*
X0144478Y0012309D01*
X0142307Y0011250D01*
X0140111Y0010244D01*
X0137891Y0009292D01*
X0135648Y0008395D01*
X0133383Y0007554D01*
X0131099Y0006768D01*
X0128796Y0006038D01*
X0126476Y0005365D01*
X0124140Y0004750D01*
X0121790Y0004192D01*
X0119427Y0003691D01*
X0117052Y0003249D01*
X0114667Y0002865D01*
X0112273Y0002540D01*
X0109872Y0002274D01*
X0107466Y0002067D01*
X0105054Y0001919D01*
X0102640Y0001830D01*
X0100225Y0001800D01*
X0097810Y0001830D01*
X0095396Y0001919D01*
X0092984Y0002067D01*
X0090578Y0002274D01*
X0088177Y0002540D01*
X0085783Y0002865D01*
X0083398Y0003249D01*
X0081023Y0003691D01*
X0078660Y0004192D01*
X0076310Y0004750D01*
X0073974Y0005365D01*
X0071654Y0006038D01*
X0069351Y0006768D01*
X0067067Y0007554D01*
X0064802Y0008395D01*
X0062559Y0009292D01*
X0060339Y0010244D01*
X0058143Y0011250D01*
X0055972Y0012309D01*
X0053828Y0013422D01*
X0051711Y0014587D01*
X0049624Y0015803D01*
X0047568Y0017070D01*
X0045543Y0018388D01*
X0043551Y0019754D01*
X0041593Y0021169D01*
X0039671Y0022632D01*
X0037785Y0024141D01*
X0035936Y0025697D01*
X0034127Y0027297D01*
X0032357Y0028941D01*
X0030628Y0030628D01*
X0028941Y0032357D01*
X0027297Y0034127D01*
X0025697Y0035936D01*
X0024141Y0037785D01*
X0022632Y0039671D01*
X0021169Y0041593D01*
X0019754Y0043551D01*
X0018388Y0045543D01*
X0017070Y0047568D01*
X0015803Y0049624D01*
X0014587Y0051711D01*
X0013422Y0053828D01*
X0012309Y0055972D01*
X0011250Y0058143D01*
X0010244Y0060339D01*
X0009292Y0062559D01*
X0008395Y0064802D01*
X0007554Y0067067D01*
X0006768Y0069351D01*
X0006038Y0071654D01*
X0005365Y0073974D01*
X0004750Y0076310D01*
X0004192Y0078660D01*
X0003691Y0081023D01*
X0003249Y0083398D01*
X0002865Y0085783D01*
X0002540Y0088177D01*
X0002274Y0090578D01*
X0002067Y0092984D01*
X0001919Y0095396D01*
X0001830Y0097810D01*
X0001800Y0100225D01*
M02*
