G75*
%MOIN*%
%OFA0B0*%
%FSLAX25Y25*%
%IPPOS*%
%LPD*%
%AMOC8*
5,1,8,0,0,1.08239X$1,22.5*
%
%ADD10C,0.01600*%
%ADD11C,0.00800*%
%ADD12C,0.00300*%
%ADD13C,0.01000*%
%ADD14C,0.00500*%
D10*
X0060855Y0100225D02*
X0060867Y0101191D01*
X0060902Y0102157D01*
X0060962Y0103121D01*
X0061045Y0104084D01*
X0061151Y0105044D01*
X0061281Y0106002D01*
X0061435Y0106956D01*
X0061611Y0107906D01*
X0061812Y0108851D01*
X0062035Y0109791D01*
X0062281Y0110725D01*
X0062550Y0111654D01*
X0062842Y0112575D01*
X0063156Y0113488D01*
X0063493Y0114394D01*
X0063852Y0115291D01*
X0064233Y0116179D01*
X0064635Y0117058D01*
X0065059Y0117926D01*
X0065504Y0118784D01*
X0065970Y0119630D01*
X0066456Y0120465D01*
X0066963Y0121288D01*
X0067490Y0122098D01*
X0068037Y0122895D01*
X0068603Y0123678D01*
X0069188Y0124447D01*
X0069792Y0125201D01*
X0070414Y0125940D01*
X0071054Y0126664D01*
X0071711Y0127372D01*
X0072386Y0128064D01*
X0073078Y0128739D01*
X0073786Y0129396D01*
X0074510Y0130036D01*
X0075249Y0130658D01*
X0076003Y0131262D01*
X0076772Y0131847D01*
X0077555Y0132413D01*
X0078352Y0132960D01*
X0079162Y0133487D01*
X0079985Y0133994D01*
X0080820Y0134480D01*
X0081666Y0134946D01*
X0082524Y0135391D01*
X0083392Y0135815D01*
X0084271Y0136217D01*
X0085159Y0136598D01*
X0086056Y0136957D01*
X0086962Y0137294D01*
X0087875Y0137608D01*
X0088796Y0137900D01*
X0089725Y0138169D01*
X0090659Y0138415D01*
X0091599Y0138638D01*
X0092544Y0138839D01*
X0093494Y0139015D01*
X0094448Y0139169D01*
X0095406Y0139299D01*
X0096366Y0139405D01*
X0097329Y0139488D01*
X0098293Y0139548D01*
X0099259Y0139583D01*
X0100225Y0139595D01*
X0101191Y0139583D01*
X0102157Y0139548D01*
X0103121Y0139488D01*
X0104084Y0139405D01*
X0105044Y0139299D01*
X0106002Y0139169D01*
X0106956Y0139015D01*
X0107906Y0138839D01*
X0108851Y0138638D01*
X0109791Y0138415D01*
X0110725Y0138169D01*
X0111654Y0137900D01*
X0112575Y0137608D01*
X0113488Y0137294D01*
X0114394Y0136957D01*
X0115291Y0136598D01*
X0116179Y0136217D01*
X0117058Y0135815D01*
X0117926Y0135391D01*
X0118784Y0134946D01*
X0119630Y0134480D01*
X0120465Y0133994D01*
X0121288Y0133487D01*
X0122098Y0132960D01*
X0122895Y0132413D01*
X0123678Y0131847D01*
X0124447Y0131262D01*
X0125201Y0130658D01*
X0125940Y0130036D01*
X0126664Y0129396D01*
X0127372Y0128739D01*
X0128064Y0128064D01*
X0128739Y0127372D01*
X0129396Y0126664D01*
X0130036Y0125940D01*
X0130658Y0125201D01*
X0131262Y0124447D01*
X0131847Y0123678D01*
X0132413Y0122895D01*
X0132960Y0122098D01*
X0133487Y0121288D01*
X0133994Y0120465D01*
X0134480Y0119630D01*
X0134946Y0118784D01*
X0135391Y0117926D01*
X0135815Y0117058D01*
X0136217Y0116179D01*
X0136598Y0115291D01*
X0136957Y0114394D01*
X0137294Y0113488D01*
X0137608Y0112575D01*
X0137900Y0111654D01*
X0138169Y0110725D01*
X0138415Y0109791D01*
X0138638Y0108851D01*
X0138839Y0107906D01*
X0139015Y0106956D01*
X0139169Y0106002D01*
X0139299Y0105044D01*
X0139405Y0104084D01*
X0139488Y0103121D01*
X0139548Y0102157D01*
X0139583Y0101191D01*
X0139595Y0100225D01*
X0139583Y0099259D01*
X0139548Y0098293D01*
X0139488Y0097329D01*
X0139405Y0096366D01*
X0139299Y0095406D01*
X0139169Y0094448D01*
X0139015Y0093494D01*
X0138839Y0092544D01*
X0138638Y0091599D01*
X0138415Y0090659D01*
X0138169Y0089725D01*
X0137900Y0088796D01*
X0137608Y0087875D01*
X0137294Y0086962D01*
X0136957Y0086056D01*
X0136598Y0085159D01*
X0136217Y0084271D01*
X0135815Y0083392D01*
X0135391Y0082524D01*
X0134946Y0081666D01*
X0134480Y0080820D01*
X0133994Y0079985D01*
X0133487Y0079162D01*
X0132960Y0078352D01*
X0132413Y0077555D01*
X0131847Y0076772D01*
X0131262Y0076003D01*
X0130658Y0075249D01*
X0130036Y0074510D01*
X0129396Y0073786D01*
X0128739Y0073078D01*
X0128064Y0072386D01*
X0127372Y0071711D01*
X0126664Y0071054D01*
X0125940Y0070414D01*
X0125201Y0069792D01*
X0124447Y0069188D01*
X0123678Y0068603D01*
X0122895Y0068037D01*
X0122098Y0067490D01*
X0121288Y0066963D01*
X0120465Y0066456D01*
X0119630Y0065970D01*
X0118784Y0065504D01*
X0117926Y0065059D01*
X0117058Y0064635D01*
X0116179Y0064233D01*
X0115291Y0063852D01*
X0114394Y0063493D01*
X0113488Y0063156D01*
X0112575Y0062842D01*
X0111654Y0062550D01*
X0110725Y0062281D01*
X0109791Y0062035D01*
X0108851Y0061812D01*
X0107906Y0061611D01*
X0106956Y0061435D01*
X0106002Y0061281D01*
X0105044Y0061151D01*
X0104084Y0061045D01*
X0103121Y0060962D01*
X0102157Y0060902D01*
X0101191Y0060867D01*
X0100225Y0060855D01*
X0099259Y0060867D01*
X0098293Y0060902D01*
X0097329Y0060962D01*
X0096366Y0061045D01*
X0095406Y0061151D01*
X0094448Y0061281D01*
X0093494Y0061435D01*
X0092544Y0061611D01*
X0091599Y0061812D01*
X0090659Y0062035D01*
X0089725Y0062281D01*
X0088796Y0062550D01*
X0087875Y0062842D01*
X0086962Y0063156D01*
X0086056Y0063493D01*
X0085159Y0063852D01*
X0084271Y0064233D01*
X0083392Y0064635D01*
X0082524Y0065059D01*
X0081666Y0065504D01*
X0080820Y0065970D01*
X0079985Y0066456D01*
X0079162Y0066963D01*
X0078352Y0067490D01*
X0077555Y0068037D01*
X0076772Y0068603D01*
X0076003Y0069188D01*
X0075249Y0069792D01*
X0074510Y0070414D01*
X0073786Y0071054D01*
X0073078Y0071711D01*
X0072386Y0072386D01*
X0071711Y0073078D01*
X0071054Y0073786D01*
X0070414Y0074510D01*
X0069792Y0075249D01*
X0069188Y0076003D01*
X0068603Y0076772D01*
X0068037Y0077555D01*
X0067490Y0078352D01*
X0066963Y0079162D01*
X0066456Y0079985D01*
X0065970Y0080820D01*
X0065504Y0081666D01*
X0065059Y0082524D01*
X0064635Y0083392D01*
X0064233Y0084271D01*
X0063852Y0085159D01*
X0063493Y0086056D01*
X0063156Y0086962D01*
X0062842Y0087875D01*
X0062550Y0088796D01*
X0062281Y0089725D01*
X0062035Y0090659D01*
X0061812Y0091599D01*
X0061611Y0092544D01*
X0061435Y0093494D01*
X0061281Y0094448D01*
X0061151Y0095406D01*
X0061045Y0096366D01*
X0060962Y0097329D01*
X0060902Y0098293D01*
X0060867Y0099259D01*
X0060855Y0100225D01*
X0001800Y0100225D02*
X0001830Y0102640D01*
X0001919Y0105054D01*
X0002067Y0107466D01*
X0002274Y0109872D01*
X0002540Y0112273D01*
X0002865Y0114667D01*
X0003249Y0117052D01*
X0003691Y0119427D01*
X0004192Y0121790D01*
X0004750Y0124140D01*
X0005365Y0126476D01*
X0006038Y0128796D01*
X0006768Y0131099D01*
X0007554Y0133383D01*
X0008395Y0135648D01*
X0009292Y0137891D01*
X0010244Y0140111D01*
X0011250Y0142307D01*
X0012309Y0144478D01*
X0013422Y0146622D01*
X0014587Y0148739D01*
X0015803Y0150826D01*
X0017070Y0152882D01*
X0018388Y0154907D01*
X0019754Y0156899D01*
X0021169Y0158857D01*
X0022632Y0160779D01*
X0024141Y0162665D01*
X0025697Y0164514D01*
X0027297Y0166323D01*
X0028941Y0168093D01*
X0030628Y0169822D01*
X0032357Y0171509D01*
X0034127Y0173153D01*
X0035936Y0174753D01*
X0037785Y0176309D01*
X0039671Y0177818D01*
X0041593Y0179281D01*
X0043551Y0180696D01*
X0045543Y0182062D01*
X0047568Y0183380D01*
X0049624Y0184647D01*
X0051711Y0185863D01*
X0053828Y0187028D01*
X0055972Y0188141D01*
X0058143Y0189200D01*
X0060339Y0190206D01*
X0062559Y0191158D01*
X0064802Y0192055D01*
X0067067Y0192896D01*
X0069351Y0193682D01*
X0071654Y0194412D01*
X0073974Y0195085D01*
X0076310Y0195700D01*
X0078660Y0196258D01*
X0081023Y0196759D01*
X0083398Y0197201D01*
X0085783Y0197585D01*
X0088177Y0197910D01*
X0090578Y0198176D01*
X0092984Y0198383D01*
X0095396Y0198531D01*
X0097810Y0198620D01*
X0100225Y0198650D01*
X0102640Y0198620D01*
X0105054Y0198531D01*
X0107466Y0198383D01*
X0109872Y0198176D01*
X0112273Y0197910D01*
X0114667Y0197585D01*
X0117052Y0197201D01*
X0119427Y0196759D01*
X0121790Y0196258D01*
X0124140Y0195700D01*
X0126476Y0195085D01*
X0128796Y0194412D01*
X0131099Y0193682D01*
X0133383Y0192896D01*
X0135648Y0192055D01*
X0137891Y0191158D01*
X0140111Y0190206D01*
X0142307Y0189200D01*
X0144478Y0188141D01*
X0146622Y0187028D01*
X0148739Y0185863D01*
X0150826Y0184647D01*
X0152882Y0183380D01*
X0154907Y0182062D01*
X0156899Y0180696D01*
X0158857Y0179281D01*
X0160779Y0177818D01*
X0162665Y0176309D01*
X0164514Y0174753D01*
X0166323Y0173153D01*
X0168093Y0171509D01*
X0169822Y0169822D01*
X0171509Y0168093D01*
X0173153Y0166323D01*
X0174753Y0164514D01*
X0176309Y0162665D01*
X0177818Y0160779D01*
X0179281Y0158857D01*
X0180696Y0156899D01*
X0182062Y0154907D01*
X0183380Y0152882D01*
X0184647Y0150826D01*
X0185863Y0148739D01*
X0187028Y0146622D01*
X0188141Y0144478D01*
X0189200Y0142307D01*
X0190206Y0140111D01*
X0191158Y0137891D01*
X0192055Y0135648D01*
X0192896Y0133383D01*
X0193682Y0131099D01*
X0194412Y0128796D01*
X0195085Y0126476D01*
X0195700Y0124140D01*
X0196258Y0121790D01*
X0196759Y0119427D01*
X0197201Y0117052D01*
X0197585Y0114667D01*
X0197910Y0112273D01*
X0198176Y0109872D01*
X0198383Y0107466D01*
X0198531Y0105054D01*
X0198620Y0102640D01*
X0198650Y0100225D01*
X0198620Y0097810D01*
X0198531Y0095396D01*
X0198383Y0092984D01*
X0198176Y0090578D01*
X0197910Y0088177D01*
X0197585Y0085783D01*
X0197201Y0083398D01*
X0196759Y0081023D01*
X0196258Y0078660D01*
X0195700Y0076310D01*
X0195085Y0073974D01*
X0194412Y0071654D01*
X0193682Y0069351D01*
X0192896Y0067067D01*
X0192055Y0064802D01*
X0191158Y0062559D01*
X0190206Y0060339D01*
X0189200Y0058143D01*
X0188141Y0055972D01*
X0187028Y0053828D01*
X0185863Y0051711D01*
X0184647Y0049624D01*
X0183380Y0047568D01*
X0182062Y0045543D01*
X0180696Y0043551D01*
X0179281Y0041593D01*
X0177818Y0039671D01*
X0176309Y0037785D01*
X0174753Y0035936D01*
X0173153Y0034127D01*
X0171509Y0032357D01*
X0169822Y0030628D01*
X0168093Y0028941D01*
X0166323Y0027297D01*
X0164514Y0025697D01*
X0162665Y0024141D01*
X0160779Y0022632D01*
X0158857Y0021169D01*
X0156899Y0019754D01*
X0154907Y0018388D01*
X0152882Y0017070D01*
X0150826Y0015803D01*
X0148739Y0014587D01*
X0146622Y0013422D01*
X0144478Y0012309D01*
X0142307Y0011250D01*
X0140111Y0010244D01*
X0137891Y0009292D01*
X0135648Y0008395D01*
X0133383Y0007554D01*
X0131099Y0006768D01*
X0128796Y0006038D01*
X0126476Y0005365D01*
X0124140Y0004750D01*
X0121790Y0004192D01*
X0119427Y0003691D01*
X0117052Y0003249D01*
X0114667Y0002865D01*
X0112273Y0002540D01*
X0109872Y0002274D01*
X0107466Y0002067D01*
X0105054Y0001919D01*
X0102640Y0001830D01*
X0100225Y0001800D01*
X0097810Y0001830D01*
X0095396Y0001919D01*
X0092984Y0002067D01*
X0090578Y0002274D01*
X0088177Y0002540D01*
X0085783Y0002865D01*
X0083398Y0003249D01*
X0081023Y0003691D01*
X0078660Y0004192D01*
X0076310Y0004750D01*
X0073974Y0005365D01*
X0071654Y0006038D01*
X0069351Y0006768D01*
X0067067Y0007554D01*
X0064802Y0008395D01*
X0062559Y0009292D01*
X0060339Y0010244D01*
X0058143Y0011250D01*
X0055972Y0012309D01*
X0053828Y0013422D01*
X0051711Y0014587D01*
X0049624Y0015803D01*
X0047568Y0017070D01*
X0045543Y0018388D01*
X0043551Y0019754D01*
X0041593Y0021169D01*
X0039671Y0022632D01*
X0037785Y0024141D01*
X0035936Y0025697D01*
X0034127Y0027297D01*
X0032357Y0028941D01*
X0030628Y0030628D01*
X0028941Y0032357D01*
X0027297Y0034127D01*
X0025697Y0035936D01*
X0024141Y0037785D01*
X0022632Y0039671D01*
X0021169Y0041593D01*
X0019754Y0043551D01*
X0018388Y0045543D01*
X0017070Y0047568D01*
X0015803Y0049624D01*
X0014587Y0051711D01*
X0013422Y0053828D01*
X0012309Y0055972D01*
X0011250Y0058143D01*
X0010244Y0060339D01*
X0009292Y0062559D01*
X0008395Y0064802D01*
X0007554Y0067067D01*
X0006768Y0069351D01*
X0006038Y0071654D01*
X0005365Y0073974D01*
X0004750Y0076310D01*
X0004192Y0078660D01*
X0003691Y0081023D01*
X0003249Y0083398D01*
X0002865Y0085783D01*
X0002540Y0088177D01*
X0002274Y0090578D01*
X0002067Y0092984D01*
X0001919Y0095396D01*
X0001830Y0097810D01*
X0001800Y0100225D01*
D11*
X0121654Y0139205D02*
X0125190Y0135670D01*
X0128725Y0135670D01*
X0128725Y0132134D01*
X0132261Y0128599D01*
X0135796Y0128599D01*
X0135796Y0125063D01*
X0139332Y0121528D01*
X0142867Y0121528D01*
X0146403Y0125063D01*
X0146403Y0128599D01*
X0142867Y0132134D01*
X0139332Y0132134D01*
X0139332Y0135670D01*
X0135796Y0139205D01*
X0132261Y0139205D01*
X0132261Y0142741D01*
X0128725Y0146277D01*
X0125190Y0146277D01*
X0121654Y0142741D01*
X0121654Y0139205D01*
X0132670Y0146104D02*
X0137010Y0141764D01*
X0139181Y0139593D02*
X0143521Y0135253D01*
X0145692Y0133082D02*
X0148947Y0129827D01*
X0151117Y0129827D01*
X0155458Y0134167D01*
X0155458Y0136338D01*
X0152202Y0139593D01*
X0145692Y0133082D01*
X0139181Y0139593D02*
X0145692Y0146104D01*
X0150032Y0141764D01*
X0144606Y0140678D02*
X0142436Y0142849D01*
X0139181Y0152615D02*
X0132670Y0146104D01*
D12*
X0087245Y0017295D02*
X0086010Y0016060D01*
X0086010Y0019763D01*
X0087245Y0017295D02*
X0088479Y0016060D01*
X0088479Y0019763D01*
X0089694Y0019146D02*
X0089694Y0018529D01*
X0090311Y0017912D01*
X0091545Y0017912D01*
X0092162Y0017295D01*
X0092162Y0016677D01*
X0091545Y0016060D01*
X0090311Y0016060D01*
X0089694Y0016677D01*
X0089694Y0019146D02*
X0090311Y0019763D01*
X0091545Y0019763D01*
X0092162Y0019146D01*
X0093377Y0019146D02*
X0093994Y0019763D01*
X0095228Y0019763D01*
X0095846Y0019146D01*
X0095846Y0018529D01*
X0093377Y0016060D01*
X0095846Y0016060D01*
X0097060Y0016677D02*
X0097060Y0017295D01*
X0097677Y0017912D01*
X0098912Y0017912D01*
X0099529Y0017295D01*
X0099529Y0016677D01*
X0098912Y0016060D01*
X0097677Y0016060D01*
X0097060Y0016677D01*
X0097677Y0017912D02*
X0097060Y0018529D01*
X0097060Y0019146D01*
X0097677Y0019763D01*
X0098912Y0019763D01*
X0099529Y0019146D01*
X0099529Y0018529D01*
X0098912Y0017912D01*
X0100743Y0018529D02*
X0101977Y0019763D01*
X0101977Y0016060D01*
X0100743Y0016060D02*
X0103212Y0016060D01*
X0104426Y0016060D02*
X0106895Y0018529D01*
X0106895Y0019146D01*
X0106278Y0019763D01*
X0105043Y0019763D01*
X0104426Y0019146D01*
X0104426Y0016060D02*
X0106895Y0016060D01*
X0108109Y0016060D02*
X0109961Y0016060D01*
X0110578Y0016677D01*
X0110578Y0017295D01*
X0109961Y0017912D01*
X0108109Y0017912D01*
X0108109Y0019763D02*
X0108109Y0016060D01*
X0109961Y0017912D02*
X0110578Y0018529D01*
X0110578Y0019146D01*
X0109961Y0019763D01*
X0108109Y0019763D01*
X0180687Y0084042D02*
X0184390Y0084042D01*
X0183156Y0085276D01*
X0184390Y0086511D01*
X0180687Y0086511D01*
X0181304Y0087725D02*
X0181921Y0087725D01*
X0182539Y0088342D01*
X0182539Y0089577D01*
X0183156Y0090194D01*
X0183773Y0090194D01*
X0184390Y0089577D01*
X0184390Y0088342D01*
X0183773Y0087725D01*
X0181304Y0087725D02*
X0180687Y0088342D01*
X0180687Y0089577D01*
X0181304Y0090194D01*
X0181304Y0091408D02*
X0180687Y0092025D01*
X0180687Y0093260D01*
X0181304Y0093877D01*
X0181921Y0093877D01*
X0184390Y0091408D01*
X0184390Y0093877D01*
X0183773Y0095091D02*
X0183156Y0095091D01*
X0182539Y0095709D01*
X0182539Y0096943D01*
X0183156Y0097560D01*
X0183773Y0097560D01*
X0184390Y0096943D01*
X0184390Y0095709D01*
X0183773Y0095091D01*
X0182539Y0095709D02*
X0181921Y0095091D01*
X0181304Y0095091D01*
X0180687Y0095709D01*
X0180687Y0096943D01*
X0181304Y0097560D01*
X0181921Y0097560D01*
X0182539Y0096943D01*
X0181921Y0098775D02*
X0180687Y0100009D01*
X0184390Y0100009D01*
X0184390Y0098775D02*
X0184390Y0101243D01*
X0184390Y0102458D02*
X0181921Y0104926D01*
X0181304Y0104926D01*
X0180687Y0104309D01*
X0180687Y0103075D01*
X0181304Y0102458D01*
X0184390Y0102458D02*
X0184390Y0104926D01*
X0184390Y0106141D02*
X0184390Y0107992D01*
X0183773Y0108610D01*
X0183156Y0108610D01*
X0182539Y0107992D01*
X0182539Y0106141D01*
X0184390Y0106141D02*
X0180687Y0106141D01*
X0180687Y0107992D01*
X0181304Y0108610D01*
X0181921Y0108610D01*
X0182539Y0107992D01*
X0112908Y0180690D02*
X0111057Y0180690D01*
X0111057Y0184393D01*
X0112908Y0184393D01*
X0113526Y0183776D01*
X0113526Y0183159D01*
X0112908Y0182542D01*
X0111057Y0182542D01*
X0109842Y0183159D02*
X0109842Y0183776D01*
X0109225Y0184393D01*
X0107991Y0184393D01*
X0107374Y0183776D01*
X0104925Y0184393D02*
X0104925Y0180690D01*
X0106159Y0180690D02*
X0103690Y0180690D01*
X0102476Y0181307D02*
X0101859Y0180690D01*
X0100624Y0180690D01*
X0100007Y0181307D01*
X0100007Y0181925D01*
X0100624Y0182542D01*
X0101859Y0182542D01*
X0102476Y0181925D01*
X0102476Y0181307D01*
X0101859Y0182542D02*
X0102476Y0183159D01*
X0102476Y0183776D01*
X0101859Y0184393D01*
X0100624Y0184393D01*
X0100007Y0183776D01*
X0100007Y0183159D01*
X0100624Y0182542D01*
X0098793Y0183159D02*
X0098793Y0183776D01*
X0098176Y0184393D01*
X0096941Y0184393D01*
X0096324Y0183776D01*
X0095110Y0183776D02*
X0094493Y0184393D01*
X0093258Y0184393D01*
X0092641Y0183776D01*
X0092641Y0183159D01*
X0093258Y0182542D01*
X0094493Y0182542D01*
X0095110Y0181925D01*
X0095110Y0181307D01*
X0094493Y0180690D01*
X0093258Y0180690D01*
X0092641Y0181307D01*
X0091427Y0180690D02*
X0091427Y0184393D01*
X0088958Y0184393D02*
X0088958Y0180690D01*
X0090192Y0181925D01*
X0091427Y0180690D01*
X0096324Y0180690D02*
X0098793Y0183159D01*
X0098793Y0180690D02*
X0096324Y0180690D01*
X0103690Y0183159D02*
X0104925Y0184393D01*
X0107374Y0180690D02*
X0109842Y0183159D01*
X0109842Y0180690D02*
X0107374Y0180690D01*
X0112908Y0180690D02*
X0113526Y0181307D01*
X0113526Y0181925D01*
X0112908Y0182542D01*
X0019760Y0112908D02*
X0019760Y0111057D01*
X0016057Y0111057D01*
X0016057Y0112908D01*
X0016674Y0113526D01*
X0017291Y0113526D01*
X0017909Y0112908D01*
X0017909Y0111057D01*
X0017291Y0109842D02*
X0016674Y0109842D01*
X0016057Y0109225D01*
X0016057Y0107991D01*
X0016674Y0107374D01*
X0016057Y0104925D02*
X0019760Y0104925D01*
X0019760Y0106159D02*
X0019760Y0103690D01*
X0019143Y0102476D02*
X0019760Y0101859D01*
X0019760Y0100624D01*
X0019143Y0100007D01*
X0018526Y0100007D01*
X0017909Y0100624D01*
X0017909Y0101859D01*
X0018526Y0102476D01*
X0019143Y0102476D01*
X0017909Y0101859D02*
X0017291Y0102476D01*
X0016674Y0102476D01*
X0016057Y0101859D01*
X0016057Y0100624D01*
X0016674Y0100007D01*
X0017291Y0100007D01*
X0017909Y0100624D01*
X0017291Y0098793D02*
X0016674Y0098793D01*
X0016057Y0098176D01*
X0016057Y0096941D01*
X0016674Y0096324D01*
X0016674Y0095110D02*
X0016057Y0094493D01*
X0016057Y0093258D01*
X0016674Y0092641D01*
X0017291Y0092641D01*
X0017909Y0093258D01*
X0017909Y0094493D01*
X0018526Y0095110D01*
X0019143Y0095110D01*
X0019760Y0094493D01*
X0019760Y0093258D01*
X0019143Y0092641D01*
X0019760Y0091427D02*
X0016057Y0091427D01*
X0016057Y0088958D02*
X0019760Y0088958D01*
X0018526Y0090192D01*
X0019760Y0091427D01*
X0019760Y0096324D02*
X0017291Y0098793D01*
X0019760Y0098793D02*
X0019760Y0096324D01*
X0017291Y0103690D02*
X0016057Y0104925D01*
X0019760Y0107374D02*
X0017291Y0109842D01*
X0019760Y0109842D02*
X0019760Y0107374D01*
X0019760Y0112908D02*
X0019143Y0113526D01*
X0018526Y0113526D01*
X0017909Y0112908D01*
D13*
X0023454Y0102194D02*
X0023454Y0098257D01*
X0021485Y0100225D02*
X0025422Y0100225D01*
X0033296Y0099831D02*
X0035265Y0102194D01*
X0037233Y0099831D01*
X0038414Y0098650D02*
X0038414Y0101800D01*
X0035265Y0102194D02*
X0035265Y0097863D01*
X0098650Y0038414D02*
X0101800Y0038414D01*
X0100619Y0037233D02*
X0098257Y0035265D01*
X0100619Y0033296D01*
X0102587Y0035265D02*
X0098257Y0035265D01*
X0100225Y0025422D02*
X0100225Y0021485D01*
X0098257Y0023454D02*
X0102194Y0023454D01*
X0162036Y0096682D02*
X0162036Y0099831D01*
X0163217Y0098650D02*
X0165186Y0096288D01*
X0167154Y0098650D01*
X0165186Y0100619D02*
X0165186Y0096288D01*
X0175028Y0098257D02*
X0178965Y0098257D01*
X0176997Y0100225D02*
X0176997Y0096288D01*
X0101800Y0162036D02*
X0098650Y0162036D01*
X0099831Y0163217D02*
X0102194Y0165186D01*
X0099831Y0167154D01*
X0097863Y0165186D02*
X0102194Y0165186D01*
X0100225Y0175028D02*
X0100225Y0178965D01*
X0098257Y0176997D02*
X0102194Y0176997D01*
D14*
X0080540Y0165186D02*
X0080546Y0165669D01*
X0080564Y0166152D01*
X0080593Y0166634D01*
X0080635Y0167115D01*
X0080688Y0167596D01*
X0080753Y0168074D01*
X0080830Y0168551D01*
X0080918Y0169026D01*
X0081018Y0169499D01*
X0081130Y0169969D01*
X0081253Y0170436D01*
X0081388Y0170900D01*
X0081534Y0171361D01*
X0081691Y0171818D01*
X0081859Y0172271D01*
X0082038Y0172719D01*
X0082229Y0173163D01*
X0082430Y0173602D01*
X0082642Y0174037D01*
X0082864Y0174465D01*
X0083097Y0174889D01*
X0083341Y0175306D01*
X0083594Y0175717D01*
X0083858Y0176122D01*
X0084131Y0176521D01*
X0084414Y0176912D01*
X0084706Y0177297D01*
X0085008Y0177674D01*
X0085319Y0178044D01*
X0085639Y0178406D01*
X0085968Y0178760D01*
X0086306Y0179105D01*
X0086651Y0179443D01*
X0087005Y0179772D01*
X0087367Y0180092D01*
X0087737Y0180403D01*
X0088114Y0180705D01*
X0088499Y0180997D01*
X0088890Y0181280D01*
X0089289Y0181553D01*
X0089694Y0181817D01*
X0090105Y0182070D01*
X0090522Y0182314D01*
X0090946Y0182547D01*
X0091374Y0182769D01*
X0091809Y0182981D01*
X0092248Y0183182D01*
X0092692Y0183373D01*
X0093140Y0183552D01*
X0093593Y0183720D01*
X0094050Y0183877D01*
X0094511Y0184023D01*
X0094975Y0184158D01*
X0095442Y0184281D01*
X0095912Y0184393D01*
X0096385Y0184493D01*
X0096860Y0184581D01*
X0097337Y0184658D01*
X0097815Y0184723D01*
X0098296Y0184776D01*
X0098777Y0184818D01*
X0099259Y0184847D01*
X0099742Y0184865D01*
X0100225Y0184871D01*
X0100708Y0184865D01*
X0101191Y0184847D01*
X0101673Y0184818D01*
X0102154Y0184776D01*
X0102635Y0184723D01*
X0103113Y0184658D01*
X0103590Y0184581D01*
X0104065Y0184493D01*
X0104538Y0184393D01*
X0105008Y0184281D01*
X0105475Y0184158D01*
X0105939Y0184023D01*
X0106400Y0183877D01*
X0106857Y0183720D01*
X0107310Y0183552D01*
X0107758Y0183373D01*
X0108202Y0183182D01*
X0108641Y0182981D01*
X0109076Y0182769D01*
X0109504Y0182547D01*
X0109928Y0182314D01*
X0110345Y0182070D01*
X0110756Y0181817D01*
X0111161Y0181553D01*
X0111560Y0181280D01*
X0111951Y0180997D01*
X0112336Y0180705D01*
X0112713Y0180403D01*
X0113083Y0180092D01*
X0113445Y0179772D01*
X0113799Y0179443D01*
X0114144Y0179105D01*
X0114482Y0178760D01*
X0114811Y0178406D01*
X0115131Y0178044D01*
X0115442Y0177674D01*
X0115744Y0177297D01*
X0116036Y0176912D01*
X0116319Y0176521D01*
X0116592Y0176122D01*
X0116856Y0175717D01*
X0117109Y0175306D01*
X0117353Y0174889D01*
X0117586Y0174465D01*
X0117808Y0174037D01*
X0118020Y0173602D01*
X0118221Y0173163D01*
X0118412Y0172719D01*
X0118591Y0172271D01*
X0118759Y0171818D01*
X0118916Y0171361D01*
X0119062Y0170900D01*
X0119197Y0170436D01*
X0119320Y0169969D01*
X0119432Y0169499D01*
X0119532Y0169026D01*
X0119620Y0168551D01*
X0119697Y0168074D01*
X0119762Y0167596D01*
X0119815Y0167115D01*
X0119857Y0166634D01*
X0119886Y0166152D01*
X0119904Y0165669D01*
X0119910Y0165186D01*
X0119904Y0164703D01*
X0119886Y0164220D01*
X0119857Y0163738D01*
X0119815Y0163257D01*
X0119762Y0162776D01*
X0119697Y0162298D01*
X0119620Y0161821D01*
X0119532Y0161346D01*
X0119432Y0160873D01*
X0119320Y0160403D01*
X0119197Y0159936D01*
X0119062Y0159472D01*
X0118916Y0159011D01*
X0118759Y0158554D01*
X0118591Y0158101D01*
X0118412Y0157653D01*
X0118221Y0157209D01*
X0118020Y0156770D01*
X0117808Y0156335D01*
X0117586Y0155907D01*
X0117353Y0155483D01*
X0117109Y0155066D01*
X0116856Y0154655D01*
X0116592Y0154250D01*
X0116319Y0153851D01*
X0116036Y0153460D01*
X0115744Y0153075D01*
X0115442Y0152698D01*
X0115131Y0152328D01*
X0114811Y0151966D01*
X0114482Y0151612D01*
X0114144Y0151267D01*
X0113799Y0150929D01*
X0113445Y0150600D01*
X0113083Y0150280D01*
X0112713Y0149969D01*
X0112336Y0149667D01*
X0111951Y0149375D01*
X0111560Y0149092D01*
X0111161Y0148819D01*
X0110756Y0148555D01*
X0110345Y0148302D01*
X0109928Y0148058D01*
X0109504Y0147825D01*
X0109076Y0147603D01*
X0108641Y0147391D01*
X0108202Y0147190D01*
X0107758Y0146999D01*
X0107310Y0146820D01*
X0106857Y0146652D01*
X0106400Y0146495D01*
X0105939Y0146349D01*
X0105475Y0146214D01*
X0105008Y0146091D01*
X0104538Y0145979D01*
X0104065Y0145879D01*
X0103590Y0145791D01*
X0103113Y0145714D01*
X0102635Y0145649D01*
X0102154Y0145596D01*
X0101673Y0145554D01*
X0101191Y0145525D01*
X0100708Y0145507D01*
X0100225Y0145501D01*
X0099742Y0145507D01*
X0099259Y0145525D01*
X0098777Y0145554D01*
X0098296Y0145596D01*
X0097815Y0145649D01*
X0097337Y0145714D01*
X0096860Y0145791D01*
X0096385Y0145879D01*
X0095912Y0145979D01*
X0095442Y0146091D01*
X0094975Y0146214D01*
X0094511Y0146349D01*
X0094050Y0146495D01*
X0093593Y0146652D01*
X0093140Y0146820D01*
X0092692Y0146999D01*
X0092248Y0147190D01*
X0091809Y0147391D01*
X0091374Y0147603D01*
X0090946Y0147825D01*
X0090522Y0148058D01*
X0090105Y0148302D01*
X0089694Y0148555D01*
X0089289Y0148819D01*
X0088890Y0149092D01*
X0088499Y0149375D01*
X0088114Y0149667D01*
X0087737Y0149969D01*
X0087367Y0150280D01*
X0087005Y0150600D01*
X0086651Y0150929D01*
X0086306Y0151267D01*
X0085968Y0151612D01*
X0085639Y0151966D01*
X0085319Y0152328D01*
X0085008Y0152698D01*
X0084706Y0153075D01*
X0084414Y0153460D01*
X0084131Y0153851D01*
X0083858Y0154250D01*
X0083594Y0154655D01*
X0083341Y0155066D01*
X0083097Y0155483D01*
X0082864Y0155907D01*
X0082642Y0156335D01*
X0082430Y0156770D01*
X0082229Y0157209D01*
X0082038Y0157653D01*
X0081859Y0158101D01*
X0081691Y0158554D01*
X0081534Y0159011D01*
X0081388Y0159472D01*
X0081253Y0159936D01*
X0081130Y0160403D01*
X0081018Y0160873D01*
X0080918Y0161346D01*
X0080830Y0161821D01*
X0080753Y0162298D01*
X0080688Y0162776D01*
X0080635Y0163257D01*
X0080593Y0163738D01*
X0080564Y0164220D01*
X0080546Y0164703D01*
X0080540Y0165186D01*
X0015580Y0100225D02*
X0015586Y0100708D01*
X0015604Y0101191D01*
X0015633Y0101673D01*
X0015675Y0102154D01*
X0015728Y0102635D01*
X0015793Y0103113D01*
X0015870Y0103590D01*
X0015958Y0104065D01*
X0016058Y0104538D01*
X0016170Y0105008D01*
X0016293Y0105475D01*
X0016428Y0105939D01*
X0016574Y0106400D01*
X0016731Y0106857D01*
X0016899Y0107310D01*
X0017078Y0107758D01*
X0017269Y0108202D01*
X0017470Y0108641D01*
X0017682Y0109076D01*
X0017904Y0109504D01*
X0018137Y0109928D01*
X0018381Y0110345D01*
X0018634Y0110756D01*
X0018898Y0111161D01*
X0019171Y0111560D01*
X0019454Y0111951D01*
X0019746Y0112336D01*
X0020048Y0112713D01*
X0020359Y0113083D01*
X0020679Y0113445D01*
X0021008Y0113799D01*
X0021346Y0114144D01*
X0021691Y0114482D01*
X0022045Y0114811D01*
X0022407Y0115131D01*
X0022777Y0115442D01*
X0023154Y0115744D01*
X0023539Y0116036D01*
X0023930Y0116319D01*
X0024329Y0116592D01*
X0024734Y0116856D01*
X0025145Y0117109D01*
X0025562Y0117353D01*
X0025986Y0117586D01*
X0026414Y0117808D01*
X0026849Y0118020D01*
X0027288Y0118221D01*
X0027732Y0118412D01*
X0028180Y0118591D01*
X0028633Y0118759D01*
X0029090Y0118916D01*
X0029551Y0119062D01*
X0030015Y0119197D01*
X0030482Y0119320D01*
X0030952Y0119432D01*
X0031425Y0119532D01*
X0031900Y0119620D01*
X0032377Y0119697D01*
X0032855Y0119762D01*
X0033336Y0119815D01*
X0033817Y0119857D01*
X0034299Y0119886D01*
X0034782Y0119904D01*
X0035265Y0119910D01*
X0035748Y0119904D01*
X0036231Y0119886D01*
X0036713Y0119857D01*
X0037194Y0119815D01*
X0037675Y0119762D01*
X0038153Y0119697D01*
X0038630Y0119620D01*
X0039105Y0119532D01*
X0039578Y0119432D01*
X0040048Y0119320D01*
X0040515Y0119197D01*
X0040979Y0119062D01*
X0041440Y0118916D01*
X0041897Y0118759D01*
X0042350Y0118591D01*
X0042798Y0118412D01*
X0043242Y0118221D01*
X0043681Y0118020D01*
X0044116Y0117808D01*
X0044544Y0117586D01*
X0044968Y0117353D01*
X0045385Y0117109D01*
X0045796Y0116856D01*
X0046201Y0116592D01*
X0046600Y0116319D01*
X0046991Y0116036D01*
X0047376Y0115744D01*
X0047753Y0115442D01*
X0048123Y0115131D01*
X0048485Y0114811D01*
X0048839Y0114482D01*
X0049184Y0114144D01*
X0049522Y0113799D01*
X0049851Y0113445D01*
X0050171Y0113083D01*
X0050482Y0112713D01*
X0050784Y0112336D01*
X0051076Y0111951D01*
X0051359Y0111560D01*
X0051632Y0111161D01*
X0051896Y0110756D01*
X0052149Y0110345D01*
X0052393Y0109928D01*
X0052626Y0109504D01*
X0052848Y0109076D01*
X0053060Y0108641D01*
X0053261Y0108202D01*
X0053452Y0107758D01*
X0053631Y0107310D01*
X0053799Y0106857D01*
X0053956Y0106400D01*
X0054102Y0105939D01*
X0054237Y0105475D01*
X0054360Y0105008D01*
X0054472Y0104538D01*
X0054572Y0104065D01*
X0054660Y0103590D01*
X0054737Y0103113D01*
X0054802Y0102635D01*
X0054855Y0102154D01*
X0054897Y0101673D01*
X0054926Y0101191D01*
X0054944Y0100708D01*
X0054950Y0100225D01*
X0054944Y0099742D01*
X0054926Y0099259D01*
X0054897Y0098777D01*
X0054855Y0098296D01*
X0054802Y0097815D01*
X0054737Y0097337D01*
X0054660Y0096860D01*
X0054572Y0096385D01*
X0054472Y0095912D01*
X0054360Y0095442D01*
X0054237Y0094975D01*
X0054102Y0094511D01*
X0053956Y0094050D01*
X0053799Y0093593D01*
X0053631Y0093140D01*
X0053452Y0092692D01*
X0053261Y0092248D01*
X0053060Y0091809D01*
X0052848Y0091374D01*
X0052626Y0090946D01*
X0052393Y0090522D01*
X0052149Y0090105D01*
X0051896Y0089694D01*
X0051632Y0089289D01*
X0051359Y0088890D01*
X0051076Y0088499D01*
X0050784Y0088114D01*
X0050482Y0087737D01*
X0050171Y0087367D01*
X0049851Y0087005D01*
X0049522Y0086651D01*
X0049184Y0086306D01*
X0048839Y0085968D01*
X0048485Y0085639D01*
X0048123Y0085319D01*
X0047753Y0085008D01*
X0047376Y0084706D01*
X0046991Y0084414D01*
X0046600Y0084131D01*
X0046201Y0083858D01*
X0045796Y0083594D01*
X0045385Y0083341D01*
X0044968Y0083097D01*
X0044544Y0082864D01*
X0044116Y0082642D01*
X0043681Y0082430D01*
X0043242Y0082229D01*
X0042798Y0082038D01*
X0042350Y0081859D01*
X0041897Y0081691D01*
X0041440Y0081534D01*
X0040979Y0081388D01*
X0040515Y0081253D01*
X0040048Y0081130D01*
X0039578Y0081018D01*
X0039105Y0080918D01*
X0038630Y0080830D01*
X0038153Y0080753D01*
X0037675Y0080688D01*
X0037194Y0080635D01*
X0036713Y0080593D01*
X0036231Y0080564D01*
X0035748Y0080546D01*
X0035265Y0080540D01*
X0034782Y0080546D01*
X0034299Y0080564D01*
X0033817Y0080593D01*
X0033336Y0080635D01*
X0032855Y0080688D01*
X0032377Y0080753D01*
X0031900Y0080830D01*
X0031425Y0080918D01*
X0030952Y0081018D01*
X0030482Y0081130D01*
X0030015Y0081253D01*
X0029551Y0081388D01*
X0029090Y0081534D01*
X0028633Y0081691D01*
X0028180Y0081859D01*
X0027732Y0082038D01*
X0027288Y0082229D01*
X0026849Y0082430D01*
X0026414Y0082642D01*
X0025986Y0082864D01*
X0025562Y0083097D01*
X0025145Y0083341D01*
X0024734Y0083594D01*
X0024329Y0083858D01*
X0023930Y0084131D01*
X0023539Y0084414D01*
X0023154Y0084706D01*
X0022777Y0085008D01*
X0022407Y0085319D01*
X0022045Y0085639D01*
X0021691Y0085968D01*
X0021346Y0086306D01*
X0021008Y0086651D01*
X0020679Y0087005D01*
X0020359Y0087367D01*
X0020048Y0087737D01*
X0019746Y0088114D01*
X0019454Y0088499D01*
X0019171Y0088890D01*
X0018898Y0089289D01*
X0018634Y0089694D01*
X0018381Y0090105D01*
X0018137Y0090522D01*
X0017904Y0090946D01*
X0017682Y0091374D01*
X0017470Y0091809D01*
X0017269Y0092248D01*
X0017078Y0092692D01*
X0016899Y0093140D01*
X0016731Y0093593D01*
X0016574Y0094050D01*
X0016428Y0094511D01*
X0016293Y0094975D01*
X0016170Y0095442D01*
X0016058Y0095912D01*
X0015958Y0096385D01*
X0015870Y0096860D01*
X0015793Y0097337D01*
X0015728Y0097815D01*
X0015675Y0098296D01*
X0015633Y0098777D01*
X0015604Y0099259D01*
X0015586Y0099742D01*
X0015580Y0100225D01*
X0080540Y0035265D02*
X0080546Y0035748D01*
X0080564Y0036231D01*
X0080593Y0036713D01*
X0080635Y0037194D01*
X0080688Y0037675D01*
X0080753Y0038153D01*
X0080830Y0038630D01*
X0080918Y0039105D01*
X0081018Y0039578D01*
X0081130Y0040048D01*
X0081253Y0040515D01*
X0081388Y0040979D01*
X0081534Y0041440D01*
X0081691Y0041897D01*
X0081859Y0042350D01*
X0082038Y0042798D01*
X0082229Y0043242D01*
X0082430Y0043681D01*
X0082642Y0044116D01*
X0082864Y0044544D01*
X0083097Y0044968D01*
X0083341Y0045385D01*
X0083594Y0045796D01*
X0083858Y0046201D01*
X0084131Y0046600D01*
X0084414Y0046991D01*
X0084706Y0047376D01*
X0085008Y0047753D01*
X0085319Y0048123D01*
X0085639Y0048485D01*
X0085968Y0048839D01*
X0086306Y0049184D01*
X0086651Y0049522D01*
X0087005Y0049851D01*
X0087367Y0050171D01*
X0087737Y0050482D01*
X0088114Y0050784D01*
X0088499Y0051076D01*
X0088890Y0051359D01*
X0089289Y0051632D01*
X0089694Y0051896D01*
X0090105Y0052149D01*
X0090522Y0052393D01*
X0090946Y0052626D01*
X0091374Y0052848D01*
X0091809Y0053060D01*
X0092248Y0053261D01*
X0092692Y0053452D01*
X0093140Y0053631D01*
X0093593Y0053799D01*
X0094050Y0053956D01*
X0094511Y0054102D01*
X0094975Y0054237D01*
X0095442Y0054360D01*
X0095912Y0054472D01*
X0096385Y0054572D01*
X0096860Y0054660D01*
X0097337Y0054737D01*
X0097815Y0054802D01*
X0098296Y0054855D01*
X0098777Y0054897D01*
X0099259Y0054926D01*
X0099742Y0054944D01*
X0100225Y0054950D01*
X0100708Y0054944D01*
X0101191Y0054926D01*
X0101673Y0054897D01*
X0102154Y0054855D01*
X0102635Y0054802D01*
X0103113Y0054737D01*
X0103590Y0054660D01*
X0104065Y0054572D01*
X0104538Y0054472D01*
X0105008Y0054360D01*
X0105475Y0054237D01*
X0105939Y0054102D01*
X0106400Y0053956D01*
X0106857Y0053799D01*
X0107310Y0053631D01*
X0107758Y0053452D01*
X0108202Y0053261D01*
X0108641Y0053060D01*
X0109076Y0052848D01*
X0109504Y0052626D01*
X0109928Y0052393D01*
X0110345Y0052149D01*
X0110756Y0051896D01*
X0111161Y0051632D01*
X0111560Y0051359D01*
X0111951Y0051076D01*
X0112336Y0050784D01*
X0112713Y0050482D01*
X0113083Y0050171D01*
X0113445Y0049851D01*
X0113799Y0049522D01*
X0114144Y0049184D01*
X0114482Y0048839D01*
X0114811Y0048485D01*
X0115131Y0048123D01*
X0115442Y0047753D01*
X0115744Y0047376D01*
X0116036Y0046991D01*
X0116319Y0046600D01*
X0116592Y0046201D01*
X0116856Y0045796D01*
X0117109Y0045385D01*
X0117353Y0044968D01*
X0117586Y0044544D01*
X0117808Y0044116D01*
X0118020Y0043681D01*
X0118221Y0043242D01*
X0118412Y0042798D01*
X0118591Y0042350D01*
X0118759Y0041897D01*
X0118916Y0041440D01*
X0119062Y0040979D01*
X0119197Y0040515D01*
X0119320Y0040048D01*
X0119432Y0039578D01*
X0119532Y0039105D01*
X0119620Y0038630D01*
X0119697Y0038153D01*
X0119762Y0037675D01*
X0119815Y0037194D01*
X0119857Y0036713D01*
X0119886Y0036231D01*
X0119904Y0035748D01*
X0119910Y0035265D01*
X0119904Y0034782D01*
X0119886Y0034299D01*
X0119857Y0033817D01*
X0119815Y0033336D01*
X0119762Y0032855D01*
X0119697Y0032377D01*
X0119620Y0031900D01*
X0119532Y0031425D01*
X0119432Y0030952D01*
X0119320Y0030482D01*
X0119197Y0030015D01*
X0119062Y0029551D01*
X0118916Y0029090D01*
X0118759Y0028633D01*
X0118591Y0028180D01*
X0118412Y0027732D01*
X0118221Y0027288D01*
X0118020Y0026849D01*
X0117808Y0026414D01*
X0117586Y0025986D01*
X0117353Y0025562D01*
X0117109Y0025145D01*
X0116856Y0024734D01*
X0116592Y0024329D01*
X0116319Y0023930D01*
X0116036Y0023539D01*
X0115744Y0023154D01*
X0115442Y0022777D01*
X0115131Y0022407D01*
X0114811Y0022045D01*
X0114482Y0021691D01*
X0114144Y0021346D01*
X0113799Y0021008D01*
X0113445Y0020679D01*
X0113083Y0020359D01*
X0112713Y0020048D01*
X0112336Y0019746D01*
X0111951Y0019454D01*
X0111560Y0019171D01*
X0111161Y0018898D01*
X0110756Y0018634D01*
X0110345Y0018381D01*
X0109928Y0018137D01*
X0109504Y0017904D01*
X0109076Y0017682D01*
X0108641Y0017470D01*
X0108202Y0017269D01*
X0107758Y0017078D01*
X0107310Y0016899D01*
X0106857Y0016731D01*
X0106400Y0016574D01*
X0105939Y0016428D01*
X0105475Y0016293D01*
X0105008Y0016170D01*
X0104538Y0016058D01*
X0104065Y0015958D01*
X0103590Y0015870D01*
X0103113Y0015793D01*
X0102635Y0015728D01*
X0102154Y0015675D01*
X0101673Y0015633D01*
X0101191Y0015604D01*
X0100708Y0015586D01*
X0100225Y0015580D01*
X0099742Y0015586D01*
X0099259Y0015604D01*
X0098777Y0015633D01*
X0098296Y0015675D01*
X0097815Y0015728D01*
X0097337Y0015793D01*
X0096860Y0015870D01*
X0096385Y0015958D01*
X0095912Y0016058D01*
X0095442Y0016170D01*
X0094975Y0016293D01*
X0094511Y0016428D01*
X0094050Y0016574D01*
X0093593Y0016731D01*
X0093140Y0016899D01*
X0092692Y0017078D01*
X0092248Y0017269D01*
X0091809Y0017470D01*
X0091374Y0017682D01*
X0090946Y0017904D01*
X0090522Y0018137D01*
X0090105Y0018381D01*
X0089694Y0018634D01*
X0089289Y0018898D01*
X0088890Y0019171D01*
X0088499Y0019454D01*
X0088114Y0019746D01*
X0087737Y0020048D01*
X0087367Y0020359D01*
X0087005Y0020679D01*
X0086651Y0021008D01*
X0086306Y0021346D01*
X0085968Y0021691D01*
X0085639Y0022045D01*
X0085319Y0022407D01*
X0085008Y0022777D01*
X0084706Y0023154D01*
X0084414Y0023539D01*
X0084131Y0023930D01*
X0083858Y0024329D01*
X0083594Y0024734D01*
X0083341Y0025145D01*
X0083097Y0025562D01*
X0082864Y0025986D01*
X0082642Y0026414D01*
X0082430Y0026849D01*
X0082229Y0027288D01*
X0082038Y0027732D01*
X0081859Y0028180D01*
X0081691Y0028633D01*
X0081534Y0029090D01*
X0081388Y0029551D01*
X0081253Y0030015D01*
X0081130Y0030482D01*
X0081018Y0030952D01*
X0080918Y0031425D01*
X0080830Y0031900D01*
X0080753Y0032377D01*
X0080688Y0032855D01*
X0080635Y0033336D01*
X0080593Y0033817D01*
X0080564Y0034299D01*
X0080546Y0034782D01*
X0080540Y0035265D01*
X0145501Y0098257D02*
X0145507Y0098740D01*
X0145525Y0099223D01*
X0145554Y0099705D01*
X0145596Y0100186D01*
X0145649Y0100667D01*
X0145714Y0101145D01*
X0145791Y0101622D01*
X0145879Y0102097D01*
X0145979Y0102570D01*
X0146091Y0103040D01*
X0146214Y0103507D01*
X0146349Y0103971D01*
X0146495Y0104432D01*
X0146652Y0104889D01*
X0146820Y0105342D01*
X0146999Y0105790D01*
X0147190Y0106234D01*
X0147391Y0106673D01*
X0147603Y0107108D01*
X0147825Y0107536D01*
X0148058Y0107960D01*
X0148302Y0108377D01*
X0148555Y0108788D01*
X0148819Y0109193D01*
X0149092Y0109592D01*
X0149375Y0109983D01*
X0149667Y0110368D01*
X0149969Y0110745D01*
X0150280Y0111115D01*
X0150600Y0111477D01*
X0150929Y0111831D01*
X0151267Y0112176D01*
X0151612Y0112514D01*
X0151966Y0112843D01*
X0152328Y0113163D01*
X0152698Y0113474D01*
X0153075Y0113776D01*
X0153460Y0114068D01*
X0153851Y0114351D01*
X0154250Y0114624D01*
X0154655Y0114888D01*
X0155066Y0115141D01*
X0155483Y0115385D01*
X0155907Y0115618D01*
X0156335Y0115840D01*
X0156770Y0116052D01*
X0157209Y0116253D01*
X0157653Y0116444D01*
X0158101Y0116623D01*
X0158554Y0116791D01*
X0159011Y0116948D01*
X0159472Y0117094D01*
X0159936Y0117229D01*
X0160403Y0117352D01*
X0160873Y0117464D01*
X0161346Y0117564D01*
X0161821Y0117652D01*
X0162298Y0117729D01*
X0162776Y0117794D01*
X0163257Y0117847D01*
X0163738Y0117889D01*
X0164220Y0117918D01*
X0164703Y0117936D01*
X0165186Y0117942D01*
X0165669Y0117936D01*
X0166152Y0117918D01*
X0166634Y0117889D01*
X0167115Y0117847D01*
X0167596Y0117794D01*
X0168074Y0117729D01*
X0168551Y0117652D01*
X0169026Y0117564D01*
X0169499Y0117464D01*
X0169969Y0117352D01*
X0170436Y0117229D01*
X0170900Y0117094D01*
X0171361Y0116948D01*
X0171818Y0116791D01*
X0172271Y0116623D01*
X0172719Y0116444D01*
X0173163Y0116253D01*
X0173602Y0116052D01*
X0174037Y0115840D01*
X0174465Y0115618D01*
X0174889Y0115385D01*
X0175306Y0115141D01*
X0175717Y0114888D01*
X0176122Y0114624D01*
X0176521Y0114351D01*
X0176912Y0114068D01*
X0177297Y0113776D01*
X0177674Y0113474D01*
X0178044Y0113163D01*
X0178406Y0112843D01*
X0178760Y0112514D01*
X0179105Y0112176D01*
X0179443Y0111831D01*
X0179772Y0111477D01*
X0180092Y0111115D01*
X0180403Y0110745D01*
X0180705Y0110368D01*
X0180997Y0109983D01*
X0181280Y0109592D01*
X0181553Y0109193D01*
X0181817Y0108788D01*
X0182070Y0108377D01*
X0182314Y0107960D01*
X0182547Y0107536D01*
X0182769Y0107108D01*
X0182981Y0106673D01*
X0183182Y0106234D01*
X0183373Y0105790D01*
X0183552Y0105342D01*
X0183720Y0104889D01*
X0183877Y0104432D01*
X0184023Y0103971D01*
X0184158Y0103507D01*
X0184281Y0103040D01*
X0184393Y0102570D01*
X0184493Y0102097D01*
X0184581Y0101622D01*
X0184658Y0101145D01*
X0184723Y0100667D01*
X0184776Y0100186D01*
X0184818Y0099705D01*
X0184847Y0099223D01*
X0184865Y0098740D01*
X0184871Y0098257D01*
X0184865Y0097774D01*
X0184847Y0097291D01*
X0184818Y0096809D01*
X0184776Y0096328D01*
X0184723Y0095847D01*
X0184658Y0095369D01*
X0184581Y0094892D01*
X0184493Y0094417D01*
X0184393Y0093944D01*
X0184281Y0093474D01*
X0184158Y0093007D01*
X0184023Y0092543D01*
X0183877Y0092082D01*
X0183720Y0091625D01*
X0183552Y0091172D01*
X0183373Y0090724D01*
X0183182Y0090280D01*
X0182981Y0089841D01*
X0182769Y0089406D01*
X0182547Y0088978D01*
X0182314Y0088554D01*
X0182070Y0088137D01*
X0181817Y0087726D01*
X0181553Y0087321D01*
X0181280Y0086922D01*
X0180997Y0086531D01*
X0180705Y0086146D01*
X0180403Y0085769D01*
X0180092Y0085399D01*
X0179772Y0085037D01*
X0179443Y0084683D01*
X0179105Y0084338D01*
X0178760Y0084000D01*
X0178406Y0083671D01*
X0178044Y0083351D01*
X0177674Y0083040D01*
X0177297Y0082738D01*
X0176912Y0082446D01*
X0176521Y0082163D01*
X0176122Y0081890D01*
X0175717Y0081626D01*
X0175306Y0081373D01*
X0174889Y0081129D01*
X0174465Y0080896D01*
X0174037Y0080674D01*
X0173602Y0080462D01*
X0173163Y0080261D01*
X0172719Y0080070D01*
X0172271Y0079891D01*
X0171818Y0079723D01*
X0171361Y0079566D01*
X0170900Y0079420D01*
X0170436Y0079285D01*
X0169969Y0079162D01*
X0169499Y0079050D01*
X0169026Y0078950D01*
X0168551Y0078862D01*
X0168074Y0078785D01*
X0167596Y0078720D01*
X0167115Y0078667D01*
X0166634Y0078625D01*
X0166152Y0078596D01*
X0165669Y0078578D01*
X0165186Y0078572D01*
X0164703Y0078578D01*
X0164220Y0078596D01*
X0163738Y0078625D01*
X0163257Y0078667D01*
X0162776Y0078720D01*
X0162298Y0078785D01*
X0161821Y0078862D01*
X0161346Y0078950D01*
X0160873Y0079050D01*
X0160403Y0079162D01*
X0159936Y0079285D01*
X0159472Y0079420D01*
X0159011Y0079566D01*
X0158554Y0079723D01*
X0158101Y0079891D01*
X0157653Y0080070D01*
X0157209Y0080261D01*
X0156770Y0080462D01*
X0156335Y0080674D01*
X0155907Y0080896D01*
X0155483Y0081129D01*
X0155066Y0081373D01*
X0154655Y0081626D01*
X0154250Y0081890D01*
X0153851Y0082163D01*
X0153460Y0082446D01*
X0153075Y0082738D01*
X0152698Y0083040D01*
X0152328Y0083351D01*
X0151966Y0083671D01*
X0151612Y0084000D01*
X0151267Y0084338D01*
X0150929Y0084683D01*
X0150600Y0085037D01*
X0150280Y0085399D01*
X0149969Y0085769D01*
X0149667Y0086146D01*
X0149375Y0086531D01*
X0149092Y0086922D01*
X0148819Y0087321D01*
X0148555Y0087726D01*
X0148302Y0088137D01*
X0148058Y0088554D01*
X0147825Y0088978D01*
X0147603Y0089406D01*
X0147391Y0089841D01*
X0147190Y0090280D01*
X0146999Y0090724D01*
X0146820Y0091172D01*
X0146652Y0091625D01*
X0146495Y0092082D01*
X0146349Y0092543D01*
X0146214Y0093007D01*
X0146091Y0093474D01*
X0145979Y0093944D01*
X0145879Y0094417D01*
X0145791Y0094892D01*
X0145714Y0095369D01*
X0145649Y0095847D01*
X0145596Y0096328D01*
X0145554Y0096809D01*
X0145525Y0097291D01*
X0145507Y0097774D01*
X0145501Y0098257D01*
M02*
