<?xml version="1.0" encoding="UTF-8" standalone="no"?>
<!-- Created with Inkscape (http://www.inkscape.org/) -->

<svg
   xmlns:dc="http://purl.org/dc/elements/1.1/"
   xmlns:cc="http://creativecommons.org/ns#"
   xmlns:rdf="http://www.w3.org/1999/02/22-rdf-syntax-ns#"
   xmlns:svg="http://www.w3.org/2000/svg"
   xmlns="http://www.w3.org/2000/svg"
   xmlns:sodipodi="http://sodipodi.sourceforge.net/DTD/sodipodi-0.dtd"
   xmlns:inkscape="http://www.inkscape.org/namespaces/inkscape"
   width="54.030437mm"
   height="125.69725mm"
   viewBox="0 0 191.44644 445.38395"
   id="svg2"
   version="1.1"
   inkscape:version="0.91 r13725"
   sodipodi:docname="battery.svg">
  <defs
     id="defs4" />
  <sodipodi:namedview
     id="base"
     pagecolor="#ffffff"
     bordercolor="#666666"
     borderopacity="1.0"
     inkscape:pageopacity="0.0"
     inkscape:pageshadow="2"
     inkscape:zoom="0.98994949"
     inkscape:cx="-91.811014"
     inkscape:cy="161.91783"
     inkscape:document-units="px"
     inkscape:current-layer="layer1"
     showgrid="false"
     fit-margin-top="0"
     fit-margin-left="0"
     fit-margin-right="0"
     fit-margin-bottom="0"
     inkscape:window-width="1280"
     inkscape:window-height="657"
     inkscape:window-x="-8"
     inkscape:window-y="-8"
     inkscape:window-maximized="1" />
  <metadata
     id="metadata7">
    <rdf:RDF>
      <cc:Work
         rdf:about="">
        <dc:format>image/svg+xml</dc:format>
        <dc:type
           rdf:resource="http://purl.org/dc/dcmitype/StillImage" />
        <dc:title></dc:title>
      </cc:Work>
    </rdf:RDF>
  </metadata>
  <g
     inkscape:label="Layer 1"
     inkscape:groupmode="layer"
     id="layer1"
     transform="translate(-255.44226,-268.13976)">
    <path
       id="path3347"
       style="fill:#000000"
       d="m 346.42278,593.45659 c -22.33556,-1.31811 -39.68888,-4.95132 -53.57604,-11.21706 -15.52419,-7.00437 -29.38409,-19.30926 -32.64179,-28.97955 -1.44206,-4.2807 -1.60862,-6.31404 -1.67888,-20.49552 -0.0364,-7.3425 -0.21751,-16.86 -0.40253,-21.15 -0.53021,-12.29418 -0.63752,-15.24099 -0.95042,-26.1 -0.16165,-5.61 -0.36122,-12.0225 -0.44348,-14.25 -0.0823,-2.2275 -0.28773,-10.8 -0.4566,-19.05 -0.16887,-8.25 -0.36873,-16.89 -0.44413,-19.2 -0.0754,-2.31 -0.22244,-21.615 -0.32673,-42.9 -0.20099,-41.0179 0.10732,-65.84508 0.8696,-70.02727 0.28682,-1.57359 0.32248,-2.6187 0.12152,-3.56094 -0.3807,-1.78501 0.16435,-4.49653 1.36926,-6.81179 1.24554,-2.39331 5.3684,-6.52351 8.61022,-8.62553 6.76126,-4.38406 16.24013,-8.10525 24.67207,-9.6857 3.35125,-0.62815 3.36938,-0.64849 3.26927,-3.66896 -0.0343,-1.0341 0.10528,-2.4516 0.31011,-3.15 0.51611,-1.7597 3.14922,-5.67633 5.68069,-6.90562 2.47558,-1.20214 6.88557,-2.48562 8.54051,-2.48562 0.97684,0 -10.01276,3.37199 -8.05523,2.24557 8.53043,-4.90863 37.18294,-9.29482 54.78615,-9.29886 30.01342,1.14955 33.41734,10.51929 21.86317,8.02904 -20.20799,-3.42923 -35.79051,-1.9465 -40.56674,-1.2821 -1.8975,0.26395 -6.3525,0.95977 -9.9,1.54627 -4.71232,0.77907 -7.86618,0.55656 -11.475,1.24286 -12.95998,2.46465 -5.025,0.27494 -5.025,0.39527 0,0.12032 9.04789,-2.20722 -2.69215,1.77249 -6.17654,2.09376 -8.10785,5.65996 -8.10785,7.91231 0,1.01087 0.18982,1.38201 1.19669,2.33982 1.38895,1.32128 4.45334,3.16673 7.10931,4.2814 4.36988,1.83397 10.65777,3.11877 18.694,3.81973 3.77891,0.32961 24.78013,0.21002 28.5,-0.16229 0.7425,-0.0743 2.9025,-0.21559 4.8,-0.31394 12.81524,-0.66425 21.78925,-2.8103 31.05,-7.42532 3.04828,-1.51908 3.75,-2.18075 3.75,-3.53595 0,-0.646 0.22441,-1.64515 0.49869,-2.22032 0.41169,-0.86333 0.43092,-1.12743 0.11024,-1.51384 -30.55389,-8.40262 -29.571,-15.95463 -12.08759,-10.96066 7.57038,2.98661 19.10931,7.38055 20.35325,10.0313 0.69519,1.4814 0.69519,1.4814 3.7853,2.16974 10.82238,2.41074 20.82602,6.18772 27.09011,10.22816 3.96546,2.55778 7.36257,6.57645 8.28852,9.80498 0.14034,0.48939 0.33102,9.53563 0.42375,20.10276 0.0927,10.56713 0.285,29.40547 0.42732,41.86297 0.22017,19.26949 0.19602,22.7201 -0.16185,23.11969 2.77979,20.75892 -7.97763,22.02564 -6.19999,7.6881 -0.85791,-1.06941 0.21352,-6.24798 -1.0673,-5.10287 -1.50006,1.34108 -2.50461,1.96541 -6.36045,3.95298 -7.52054,3.87663 -13.89745,6.33561 -19.84552,7.65256 -7.01044,1.55218 -15.64082,1.77433 -16.58459,0.42691 -0.47761,-0.68189 -0.34623,-1.3055 0.32968,-1.56487 0.24925,-0.0956 3.70953,-0.71999 7.68951,-1.38743 11.81621,-1.98157 14.45843,-2.72816 22.19608,-6.27175 6.68518,-3.06161 8.44687,-4.09479 10.7713,-6.31706 2.04354,-1.95376 2.04354,-1.95376 2.04354,-7.48747 0,-5.53371 0,-5.53371 -1.275,-4.32285 -4.20387,3.99234 -9.24096,7.29688 -16.875,11.0707 -6.37077,3.14933 -10.64858,4.73354 -14.68271,5.4375 -3.15622,0.55077 -6.74205,0.4014 -8.98947,-0.37446 -1.47219,-0.50823 -1.47219,-0.50823 -0.3,-1.11101 2.09046,-1.07499 5.561,-2.2187 11.07218,-3.64883 9.25993,-2.4029 11.97866,-3.47973 17.66308,-6.99597 4.01102,-2.48111 8.11322,-5.66797 10.94519,-8.50294 2.50824,-2.51092 2.50824,-2.51092 2.325,-4.73118 -0.1008,-1.22115 -0.18327,-3.02254 -0.18327,-4.00309 0,-1.78283 0,-1.78283 -2.175,0.23255 -2.96715,2.74939 -7.33482,5.57271 -13.3905,8.65582 -9.3214,4.74577 -16.00932,6.98449 -21.8111,7.30106 -3.53871,0.19309 -6.51376,-0.095 -6.34076,-0.614 0.36002,-1.08006 7.85685,-4.02176 16.13404,-6.33088 5.06935,-1.41422 9.55288,-2.99725 12.0486,-4.25407 4.77777,-2.40604 10.02216,-6.27512 13.38144,-9.8722 2.15328,-2.30571 2.15328,-2.30571 2.15328,-5.92454 0,-3.61883 0,-3.61883 -2.025,-1.68085 -6.4521,6.17484 -16.44865,11.34242 -27.77339,14.35711 -6.73743,1.79353 -14.34229,2.69589 -14.92779,1.77127 -0.79575,-1.25667 -0.23033,-1.61443 4.6819,-2.96245 16.73815,-4.5933 25.50204,-8.55569 33.31507,-15.06265 1.49646,-1.24629 3.62271,-3.30008 4.725,-4.56398 2.00421,-2.29801 2.00421,-2.29801 2.00421,-7.0615 0,-4.76349 0,-4.76349 -2.775,-2.00062 -4.38207,4.36293 -8.41802,6.76343 -19.13227,11.37953 -10.0687,4.33798 -16.06041,5.99704 -21.09,5.83967 -2.15784,-0.0675 -2.76333,-0.18229 -2.82739,-0.53592 -0.14667,-0.80971 6.21936,-4.36589 6.46992,-3.61421 0.11375,0.34125 2.10566,0.42933 2.8913,0.12786 0.2671,-0.1025 0.67446,-0.55152 0.90525,-0.99782 0.37081,-0.71706 0.86686,-0.92749 4.26391,-1.80883 5.11758,-1.32772 8.30849,-2.45978 12.03525,-4.26983 5.90112,-2.86612 10.63745,-6.35852 15.88403,-11.71234 3.075,-3.13785 3.075,-3.13785 3.075,-5.91955 0,-2.7817 0,-2.7817 -1.32264,-1.56252 -9.8895,9.11582 -27.07598,15.46759 -54.02736,19.96742 -19.59735,3.27199 -33.65008,3.67269 -58.95,1.68093 -28.75293,-2.2636 -48.43318,-8.32717 -59.10965,-18.21194 -1.95662,-1.81153 -2.09035,-1.88537 -2.09035,-1.15406 0,1.05183 2.9868,5.82211 4.50308,7.19199 0.67024,0.60551 1.9612,1.45254 2.86881,1.88226 0.9076,0.42974 1.79839,1.05826 1.97954,1.39673 0.27682,0.51724 0.20061,0.72614 -0.47777,1.30966 -0.44391,0.38184 -1.11058,0.69425 -1.48149,0.69425 -1.31268,0 -3.75303,-1.5317 -5.61982,-3.52731 -1.86248,-1.99099 -1.86248,-1.99099 -1.69387,0.93116 0.16644,2.88447 0.18532,2.94381 1.46502,4.60253 1.4149,1.83397 3.1381,3.09817 6.57415,4.82301 1.896,0.95176 2.24692,1.24765 2.32903,1.96375 0.13734,1.19778 -0.41706,1.7069 -1.85841,1.70662 -1.68693,-3e-4 -4.63293,-1.44334 -6.48672,-3.17734 -1.50155,-1.40452 -1.50155,-1.40452 -1.50155,1.14839 0,2.55291 0,2.55291 2.175,4.61874 1.43852,1.36632 3.03846,2.51043 4.725,3.37884 3.1254,1.6093 3.6,2.00718 3.6,3.01811 0,1.10662 -0.52181,1.51398 -1.935,1.51057 -1.56123,-0.004 -3.69262,-1.00735 -6.24,-2.93815 -2.025,-1.53487 -2.025,-1.53487 -2.025,0.35817 0,1.84572 0.0419,1.94606 1.6786,4.01456 1.6731,2.1146 3.52364,3.5959 6.79618,5.44013 1.95697,1.10285 2.45016,2.06142 1.56428,3.04031 -0.71889,0.79436 -2.04543,0.74203 -3.97625,-0.15687 -1.77995,-0.82865 -4.90139,-3.13057 -5.60255,-4.13161 -0.43003,-0.61396 -0.46026,-0.49895 -0.46026,1.7509 0,2.17286 0.0907,2.55292 0.929,3.89176 1.85995,2.97057 4.36496,5.06648 7.54478,6.31265 2.13924,0.83836 2.92622,1.47241 2.92622,2.35758 0,1.02705 -0.60075,1.3635 -2.43464,1.3635 -2.11796,0 -4.48126,-1.17137 -7.18456,-3.56103 -1.82248,-1.61104 -1.82248,-1.61104 -1.7381,1.18596 0.0804,2.66593 0.13661,2.87497 1.19912,4.46103 1.74842,2.60997 3.0119,3.62135 6.94467,5.55903 3.28728,1.61964 3.67352,1.89246 3.761,2.65654 0.12427,1.08551 -0.68306,1.99847 -1.76726,1.99847 -2.25909,0 -6.2174,-1.88057 -8.75523,-4.15956 -1.125,-1.01026 -1.125,-1.01026 -1.125,1.51805 0,2.52831 0,2.52831 2.24498,4.67798 2.74566,2.62909 3.85723,3.34588 7.36733,4.75077 2.77982,1.1126 3.37275,1.67267 3.05544,2.88607 -0.23056,0.88169 -1.22422,1.21397 -3.11701,1.04234 -2.32648,-0.21096 -5.07334,-1.53268 -7.54777,-3.63181 -1.99794,-1.69489 -1.99794,-1.69489 -1.80414,1.53563 0.19379,3.23053 0.19379,3.23053 1.49947,4.93533 0.71812,0.93764 1.81103,2.12618 2.42869,2.64121 1.18441,0.98761 5.50242,3.18341 8.01021,4.07336 2.6522,0.94119 3.63154,2.6131 2.11335,3.60786 -1.87599,1.22919 -8.46971,-1.38685 -12.52555,-4.96948 -1.425,-1.25874 -1.425,-1.25874 -1.425,1.31675 0,2.5755 0,2.5755 1.1924,3.7679 1.44482,1.44482 4.44234,2.99628 7.83696,4.05625 4.2135,1.31567 5.20463,1.70453 5.59564,2.19532 0.9947,1.24857 -0.13025,2.75603 -2.0567,2.75603 -2.72799,0 -7.24859,-1.67821 -10.5012,-3.89842 -1.7671,-1.20621 -1.7671,-1.20621 -1.7671,1.43673 0,2.64293 0,2.64293 2.73419,5.02731 3.92895,3.42627 5.54626,4.49478 8.39096,5.54365 1.38606,0.51106 2.75743,1.14397 3.04748,1.40646 1.17376,1.06224 0.17937,2.78427 -1.60778,2.78427 -2.56937,0 -6.53705,-2.02931 -10.16264,-5.19779 -1.07129,-0.93621 -2.01629,-1.70247 -2.1,-1.7028 -0.0837,-3e-4 -0.11075,1.52473 -0.0601,3.389 0.0921,3.38959 0.0921,3.38959 1.95,4.64877 1.72066,1.16617 3.92059,2.19268 7.49472,3.4971 1.75129,0.63916 3.21315,1.81859 3.21315,2.59239 0,0.31533 -0.28614,0.85947 -0.63586,1.20919 -0.51655,0.51655 -0.86838,0.60348 -1.875,0.46328 -1.45562,-0.20273 -6.04065,-2.14413 -8.19621,-3.47046 -0.83011,-0.51078 -1.58585,-0.92868 -1.67944,-0.92868 -0.0936,0 -0.0904,0.77625 0.007,1.725 0.14176,1.37918 0.38462,1.97331 1.21142,2.96359 1.21396,1.45401 3.31381,3.10584 5.39922,4.24727 1.92323,1.05265 5.13564,4.8409 4.43674,5.23202 -0.69211,0.38732 -4.66805,-0.72358 -4.66805,-1.30428 0,-0.14498 0.10125,-0.26567 0.225,-0.26819 0.55442,-0.0113 0.9787,-0.53669 0.80306,-0.9944 -0.24171,-0.62989 -0.7329,-0.63205 -2.03948,-0.009 -0.98204,0.4683 -1.08015,0.46209 -2.03518,-0.12898 -0.55187,-0.34155 -1.39991,-1.03547 -1.88453,-1.54202 -0.48462,-0.50655 -1.00926,-0.92101 -1.16587,-0.92101 -0.1706,0 -0.2236,1.16907 -0.13221,2.91625 0.15253,2.91626 0.15253,2.91626 1.76587,4.40085 0.88734,0.81652 2.35584,1.95635 3.26334,2.53294 0.9075,0.57659 1.7175,1.13296 1.8,1.23638 0.0825,0.10342 1.51824,0.63146 3.19054,1.17342 3.5714,1.15744 4.30946,1.60657 4.30946,2.62248 0,0.58059 -0.25111,0.85321 -1.12042,1.21644 -2.34929,0.98159 -6.2827,-0.35905 -10.57958,-3.6059 -2.25,-1.70017 -2.25,-1.70017 -2.34558,-0.42827 -0.1829,2.43378 0.0911,2.92831 2.94794,5.32035 3.01622,2.52551 3.8402,3.018 6.59764,3.94334 2.70637,0.90822 4.11197,1.65848 4.65242,2.48331 1.43022,2.18279 -2.38417,3.04789 -6.22114,1.41093 -2.19294,-0.93557 -5.18726,-2.84539 -6.79498,-4.33396 -1.0137,-0.93856 -1.0137,-0.93856 -0.81401,3.25381 0.23207,4.87188 0.24495,4.89644 3.43704,6.55157 2.31184,1.19871 4.37817,1.89175 6.49067,2.17695 0.825,0.11138 1.73625,0.40941 2.025,0.66231 0.79329,0.69477 0.67181,2.05677 -0.23654,2.65194 -0.66674,0.43687 -1.02513,0.45545 -2.87939,0.14922 -2.69581,-0.4452 -5.11314,-1.29415 -6.97255,-2.4487 -0.8049,-0.49979 -1.50679,-0.86539 -1.55974,-0.81244 -0.053,0.053 -0.0147,1.35557 0.085,2.89471 0.1813,2.79844 0.1813,2.79844 1.77214,4.51674 1.83987,1.98728 3.79824,3.10882 8.35048,4.78225 3.92389,1.44245 4.41067,1.97857 3.27223,3.60392 -0.45122,0.6442 -0.6537,0.69148 -2.37109,0.55362 -2.31492,-0.18582 -5.41127,-1.55393 -8.45632,-3.73638 -2.17925,-1.56192 -2.17925,-1.56192 -2.17925,1.77908 0,3.34101 0,3.34101 1.18672,5.16192 2.23554,3.43021 5.34753,5.81149 9.27568,7.09768 1.09318,0.35796 2.22385,0.85677 2.5126,1.10853 1.15571,1.00758 0.28124,3.06888 -1.29862,3.06114 -2.48789,-0.0123 -6.70699,-2.01699 -9.30486,-4.42143 -0.93594,-0.86625 -1.76869,-1.575 -1.85055,-1.575 -0.0819,0 -0.0775,1.50483 0.01,3.34404 0.15509,3.27204 0.17855,3.36237 1.08893,4.1931 1.30617,1.1919 5.09732,3.12309 7.20711,3.67128 2.13678,0.55518 3.03084,1.32312 2.76651,2.3763 -0.25094,0.99981 -1.62925,1.53798 -3.29804,1.28772 -1.31896,-0.19779 -4.60198,-1.67163 -6.42015,-2.88219 -0.975,-0.64917 -0.975,-0.64917 -0.975,1.34313 0,1.96023 0.0227,2.01663 1.41111,3.50091 1.75878,1.88028 4.01384,3.21603 7.79913,4.6197 3.12323,1.15815 3.68976,1.59471 3.68976,2.84334 0,0.94476 -0.5001,1.50267 -1.34697,1.50267 -2.11465,0 -7.02468,-2.0472 -9.80495,-4.0881 -1.40318,-1.03005 -1.40318,-1.03005 -1.24216,1.30404 0.15003,2.17473 0.26476,2.49435 1.68075,4.68249 2.11111,3.26226 4.18479,5.02383 8.23758,6.99774 3.5084,1.70877 3.99727,2.2182 3.53284,3.68148 -0.69796,2.19909 -6.99133,-0.14706 -11.48209,-4.28052 -1.275,-1.17354 -1.275,-1.17354 -1.27446,0.43965 6e-4,1.5 0.12383,1.7778 1.75718,3.95787 2.04431,2.72862 3.95312,4.2426 8.15326,6.46677 3.40092,1.80093 4.00115,2.5149 3.17466,3.77628 -0.30898,0.47157 -0.77858,0.7623 -1.2313,0.7623 -1.95195,0 -6.53462,-2.52945 -9.86802,-5.44677 -1.46368,-1.28097 -1.46368,-1.28097 -0.82641,-0.0318 1.97585,3.873 9.16673,11.70897 14.17517,15.44679 13.99314,10.44321 32.7131,16.46868 57.56492,18.52866 4.94951,0.41025 22.5434,0.14193 27.6,-0.42096 20.31756,-2.26167 37.07078,-7.83894 50.55,-16.82844 4.71916,-3.1473 7.88886,-5.75976 12,-9.8904 5.36646,-5.3919 8.34768,-9.61758 9.00018,-12.75705 0.20943,-1.00767 0.12468,-0.94977 -2.10237,1.43616 -3.28944,3.52419 -7.59897,6.8859 -16.04781,12.51822 -10.62479,7.08288 -15.9247,9.88194 -21.26276,11.22954 -2.95904,0.74703 -6.49143,1.0947 -6.75695,0.6651 -0.4837,-0.78264 6.74688,-4.98354 13.76971,-8.00004 10.32282,-4.43394 18.06127,-9.78615 27.75,-19.19298 4.95,-4.806 4.95,-4.806 5.04552,-6.306 0.0525,-0.825 0.01,-2.07978 -0.0954,-2.78844 -0.19092,-1.28841 -0.19092,-1.28841 -1.94526,0.33579 -0.96489,0.89331 -2.87946,2.4636 -4.2546,3.48954 -2.68767,2.00514 -15.42431,10.03389 -19.97434,12.59118 -7.59812,4.27038 -13.68684,6.43182 -19.83867,7.0425 -1.57538,0.15639 -1.60067,0.14676 -1.09138,-0.41601 1.79042,-1.97838 7.53339,-5.21466 15.45413,-8.7087 12.57697,-5.54802 17.31899,-8.57355 28.10733,-17.93316 3.35733,-2.9127 3.35733,-2.9127 3.375,-7.22232 0.0177,-4.30962 0.0177,-4.30962 -2.79954,-1.49241 -4.45404,4.45404 -9.9204,8.17323 -18.26694,12.42843 -8.52665,4.34703 -14.66165,6.23739 -20.31585,6.25986 -3.90892,0.0156 -5.3385,-0.23742 -4.82668,-0.85413 0.66445,-0.80061 4.51251,-2.2974 8.88012,-3.45411 6.83207,-1.80945 11.23106,-3.43863 16.7233,-6.19353 5.64042,-2.82927 8.90706,-5.28429 15.99711,-12.02256 4.32615,-4.1115 4.32615,-4.1115 4.32615,-8.43864 0,-4.32717 0,-4.32717 -1.15461,-2.86647 -3.28818,4.15986 -10.11549,8.87379 -20.07126,13.85829 -5.94249,2.97519 -11.73062,5.06331 -16.23078,5.85537 1.92742,-0.83572 -2.21748,1.91388 -8.42635,-1.7029 0,-0.50082 6.25688,-1.93511 7.47939,-2.36126 1.58678,-0.47721 0.45293,-0.30194 4.58758,-1.16772 1.02632,-0.21426 3.21603,-0.89799 4.86603,-1.51938 9.78203,-3.68406 14.67044,-6.40626 19.95,-11.10954 3.85695,-3.43596 5.84166,-4.96935 7.55724,-5.83869 1.44276,-0.7311 1.44276,-0.7311 1.41099,-2.45104 -0.0174,-0.94597 -0.11871,-2.89001 -0.225,-4.32009 -0.19323,-2.60013 -0.19323,-2.60013 -2.26545,-0.83307 -1.13973,0.97188 -2.56872,2.11112 -3.17553,2.53165 -1.07127,0.74239 -12.38842,7.63422 -13.96573,7.23212 -2.73963,-0.69842 -9.08167,1.45365 14.39917,-12.15198 5.34247,-3.09561 4.96432,-3.67155 4.96432,-8.45006 0,-2.62819 -0.0762,-4.77852 -0.16938,-4.77852 -0.0931,0 -0.51039,0.4053 -0.92721,0.90066 -2.15949,2.56642 -8.32479,6.7755 -13.39493,9.14478 -4.09218,1.91229 -15.30554,6.03094 -19.34889,7.10682 -4.4923,1.19534 -9.08273,1.36117 -11.00959,0.39774 -0.66,-0.33 -1.2,-0.78926 -1.2,-1.02059 0,-0.75966 2.1596,-1.56199 5.43189,-2.01804 1.76981,-0.24665 5.25415,-0.96368 7.74298,-1.5934 13.50093,-3.41601 25.47197,-9.7454 31.26266,-16.52938 1.31247,-1.53758 1.31247,-1.53758 1.31247,-6.33493 0,-4.79734 0,-4.79734 -1.125,-3.8444 -5.39004,4.56567 -8.79219,6.88776 -14.325,9.77725 -8.80576,4.5988 -17.55705,7.22536 -25.9884,7.80004 -3.35178,0.22845 -4.4616,0.0415 -4.4616,-0.75152 0,-0.77098 4.28084,-2.41244 13.65872,-5.23734 8.20103,-2.4704 12.48178,-4.13974 16.72004,-6.52022 4.81724,-2.70568 10.70999,-6.86449 14.26124,-10.06491 1.29,-1.16256 1.29,-1.16256 1.08123,-4.95107 -0.20877,-3.78852 -0.20877,-3.78852 -2.04,-2.30575 -4.39995,3.56269 -14.71785,8.82119 -23.68932,12.07323 -5.70714,2.06876 -13.82929,3.9806 -17.50096,4.11948 -1.23221,0.0466 -1.87034,-0.29237 -1.88636,-1.00202 -0.0145,-0.64173 1.69375,-1.34436 9.35548,-3.84808 18.20396,-5.94875 22.45176,-8.07821 31.4144,-15.74835 4.20663,-3.6 4.20663,-3.6 4.21608,-6.62974 0.005,-1.66635 -0.0784,-4.06841 -0.18567,-5.33791 -0.19509,-2.30817 -0.19509,-2.30817 -0.975,-1.57635 -1.19793,1.12407 -4.94094,3.44574 -7.34895,4.55831 -3.29748,1.52353 -17.00756,6.83175 -20.73093,8.02653 -6.49558,2.08435 -11.32946,2.59867 -13.275,1.41245 -1.16449,-0.71001 -1.19185,-0.89498 -0.26165,-1.76886 0.98659,-0.92685 4.43492,-2.21358 9.36873,-3.4959 5.98358,-1.55515 13.88871,-3.93254 16.91003,-5.08552 6.98097,-2.66403 12.34035,-6.21474 15.14277,-10.0324 1.06512,-1.451 1.06512,-1.451 1.06512,-6.1358 0,-2.57665 -0.0615,-4.68481 -0.13668,-4.68481 -0.0752,0 -0.64893,0.35057 -1.275,0.77904 -4.58247,3.13612 -19.34192,8.79477 -27.98832,10.73049 -4.78859,1.07205 -9.25949,1.74718 -10.82768,1.63503 -1.06775,-0.0764 -1.3393,-0.21326 -1.41053,-0.71111 -0.0485,-0.33911 0.15763,-0.83903 0.45808,-1.11094 0.84246,-0.76241 6.09999,-2.40583 14.18013,-4.43247 4.0425,-1.01393 9.0375,-2.3826 11.1,-3.04148 4.8882,-1.56159 10.35,-4.25823 13.275,-6.55424 2.325,-1.82503 2.325,-1.82503 2.325,-6.80617 0.52549,-10.27333 -0.12519,-17.24589 6.39232,-11.84322 0.77031,0.0905 0.62942,1.51318 0.6347,3.13929 0.003,0.93779 0.25317,3.06578 0.33754,6.36578 0.0844,3.3 0.35415,21.5925 0.59949,40.65 0.84135,65.35719 1.00698,73.8798 1.55097,79.8 0.28956,3.15147 0.50595,8.20785 0.5007,11.7 -0.008,5.3109 -0.0955,6.46254 -0.64143,8.44071 -2.12274,7.692 -9.10941,15.72048 -20.77425,23.87205 -16.91311,11.81916 -37.1559,18.58527 -60.3,20.15523 -3.52978,0.23943 -15.45821,0.31842 -18.75,0.12414 z m 10.67975,-254.78861 c 32.28069,-1.2539 56.23337,-8.18394 71.84077,-20.78512 2.99241,-2.41604 5.34681,-4.97784 6.29562,-6.85028 0.96129,-1.89696 1.01949,-4.74597 0.12687,-6.21001 -2.28279,-3.7442 -7.88562,-7.04361 -17.13996,-10.09341 -4.89111,-1.61188 -12.40033,-3.59072 -14.95505,-3.94098 -1.348,-0.18482 -1.348,-0.18482 -1.24405,1.34573 0.0998,1.46965 0.13901,1.53055 0.98489,1.53055 0.98208,0 11.86903,2.44825 14.21116,3.19579 9.37602,2.99257 13.48806,10.69236 9.76029,18.27603 -1.04988,2.13583 -1.80302,2.90318 -2.84943,2.90318 -1.75179,0 -2.06444,-1.31302 -1.06882,-4.48872 0.92973,-2.96552 1.06346,-4.69256 0.48138,-6.21671 -0.55882,-1.46325 -2.48052,-3.40522 -4.2686,-4.31365 -2.70389,-1.37369 -9.62867,-3.10763 -14.50474,-3.63191 -1.40245,-0.1508 -2.57584,-0.24825 -2.60753,-0.21656 -0.0317,0.0317 -0.11686,2.09313 -0.18928,4.58099 -0.15343,5.27112 -0.1314,5.21819 -3.31747,7.97181 -8.67016,7.49335 -21.15853,11.82298 -37.9858,13.16942 -4.66706,0.37343 -17.03707,0.20818 -24.45,-0.32663 -17.42941,-1.25746 -27.9144,-4.40362 -33.57562,-10.07482 -0.81159,-0.81302 -1.88782,-1.61322 -2.39162,-1.77822 -1.14083,-0.37364 -2.00082,-1.83236 -3.09515,-5.25 -0.44907,-1.4025 -0.83581,-2.58706 -0.85941,-2.63236 -0.0236,-0.0453 -1.5471,0.19096 -3.38556,0.525 -1.83845,0.33405 -4.81424,0.87424 -6.61286,1.20043 -6.9957,1.26869 -9.92978,3.23602 -9.92978,6.658 0,1.28421 0.1433,1.6178 1.17649,2.73868 2.45918,2.66789 7.26598,4.80057 15.43051,6.84621 6.50587,1.63005 7.39831,2.14554 6.38689,3.68916 -0.68051,1.03858 -2.95132,1.47307 -5.53866,1.05974 -2.97284,-0.47491 -9.88705,-2.82773 -13.23458,-4.50357 -4.54482,-2.27521 -7.58454,-5.58735 -8.23225,-8.97002 -0.24451,-1.27698 0.72257,-4.60295 1.73896,-5.98059 1.07609,-1.45856 3.09481,-2.89686 5.50556,-3.9226 1.85217,-0.78808 12.17255,-3.65678 14.87189,-4.13385 0.77788,-0.13748 0.83792,-0.23538 0.66703,-1.08766 -0.10329,-0.51511 -0.27003,-1.44952 -0.37054,-2.07646 -0.21174,-1.32074 0.32974,-1.33166 -5.8013,0.11698 -10.07565,2.38067 -17.67698,5.78619 -21.99137,9.85249 -3.36381,3.17038 -4.49304,5.87362 -3.81599,9.13497 1.23517,5.94976 9.60629,10.81752 26.63022,15.48531 15.15563,4.15552 34.75596,6.84486 53.17714,7.29639 1.7325,0.0425 3.96,0.10347 4.95,0.13557 0.99,0.0321 5.12089,-0.0706 9.17975,-0.2283 z m -89.67096,-18.45009 c -2.28506,-1.92275 -2.83893,-7.11366 -1.15186,-10.79529 1.31718,-2.87445 2.3538,-3.57948 3.29251,-2.23929 0.38461,0.54911 0.35272,0.91226 -0.283,3.22289 -0.90877,3.30308 -0.90024,4.43966 0.0503,6.69798 0.97587,2.31856 0.90467,3.67298 -0.19982,3.80116 -0.5032,0.0584 -1.11374,-0.18732 -1.70811,-0.68745 z m 163.06621,-6.17746 c -0.68301,-0.39782 -0.66201,-1.08172 0.11136,-3.62788 0.77592,-2.55461 0.63582,-4.04158 -0.53574,-5.68548 -1.51122,-2.12046 -1.48476,-2.05792 -1.00062,-2.36656 0.2475,-0.15777 0.95175,-0.28893 1.56501,-0.29146 2.45196,-0.0101 4.10598,3.12262 3.73668,7.07734 -0.20694,2.21599 -0.71883,3.34257 -2.01393,4.43233 -1.04037,0.87542 -1.119,0.89491 -1.86276,0.46171 z m -75.375,5.12167 c 12.13718,-0.69939 21.47975,-2.61157 29.27182,-5.99118 2.94616,-1.27781 7.06874,-3.68838 8.67818,-5.07432 1.00778,-0.86783 0.95697,-0.85602 -1.26355,0.29391 -8.22502,4.25943 -14.83572,6.31805 -18.72737,5.83182 -1.26332,-0.15784 -1.60908,-0.31509 -1.60908,-0.73178 0,-0.84313 2.39624,-1.94218 7.95,-3.64633 7.00642,-2.1499 12.20134,-4.77196 15.675,-7.91175 1.06959,-0.96678 1.575,-1.65536 1.575,-2.14581 0,-0.39721 -0.0586,-0.7222 -0.13022,-0.7222 -0.0716,0 -1.11787,0.74935 -2.325,1.66522 -2.76498,2.09783 -7.98149,4.69276 -11.49478,5.71802 -4.42959,1.29267 -11.1,1.00247 -11.1,-0.4829 0,-0.69621 3.07959,-1.76049 8.24431,-2.84914 5.166,-1.08893 7.60227,-2.05474 10.35569,-4.1053 2.2329,-1.66292 4.95587,-4.02331 4.35,-3.77077 -0.2475,0.10316 -1.7325,0.75076 -3.3,1.43912 -10.01219,4.39676 -16.65947,5.52861 -41.7,7.10037 -6.21882,0.39034 -23.17084,0.28582 -26.55,-0.16371 -7.43382,-0.98891 -16.20613,-3.45028 -20.44439,-5.73637 -2.20561,-1.18969 -2.20561,-1.18969 -2.20561,-0.22047 0,2.02396 2.87994,4.26497 6.59454,5.13153 1.04091,0.24283 1.99279,0.55016 2.1153,0.68295 0.54772,0.59376 0.59085,1.54791 0.0925,2.04627 -0.94678,0.94677 -4.08376,0.39845 -7.37733,-1.28951 -0.12375,-0.0634 -0.22326,-0.003 -0.22112,0.13469 0.002,0.1375 0.99712,0.89616 2.2111,1.68591 1.53107,0.99603 2.77997,1.55273 4.0769,1.81728 1.02832,0.20976 1.97537,0.57611 2.10456,0.8141 0.36977,0.68119 -0.19564,1.74598 -1.0396,1.9578 -1.03025,0.25858 -3.35583,-0.34575 -4.68903,-1.21851 -1.08218,-0.70843 -1.08218,-0.70843 -0.88972,0.23261 0.18929,0.92551 0.28147,0.97006 5.58219,2.69827 17.69668,5.76971 30.77732,7.69831 46.18971,6.81018 z m -32.70611,218.44127 c -1.18611,-0.5388 -1.94389,-1.59669 -1.94389,-2.71374 0,-0.30066 0.6882,-2.21805 1.52933,-4.2609 0.84112,-2.04285 4.70071,-11.54427 8.57685,-21.11427 8.11721,-20.04099 12.87315,-31.51177 17.28939,-41.7 3.12094,-7.2 3.12094,-7.2 -8.76231,-7.38797 -10.59792,-0.16763 -17.73717,-0.53293 -20.67504,-1.05788 -3.67953,-0.63853 -7.71261,-0.49851 -6.16973,-5.58079 6.26164,-12.46769 19.22198,-33.82615 35.2693,-58.12336 2.56094,-3.8775 7.45436,-11.37 10.87427,-16.65 3.41991,-5.28 6.61388,-9.97125 7.09771,-10.425 1.70518,-1.59917 4.70539,-0.76235 5.38369,1.50163 0.31184,1.04082 0.19551,1.73352 -1.17371,6.98934 -0.83592,3.20872 -2.54246,9.34403 -3.79231,13.63403 -5.12215,17.58128 -7.95793,27.49466 -8.83912,30.9 -1.47195,5.68825 -3.30792,14.05039 -3.12503,14.2333 0.0917,0.0917 4.10419,0.25554 8.9167,0.36412 14.6512,0.33056 28.47363,1.14976 29.60355,1.75447 0.83556,0.44719 1.79394,2.05913 1.79534,3.01967 0.002,0.93819 -17.98395,27.45574 -33.86356,49.92844 -15.60397,22.08261 -34.00847,46.35048 -35.61494,46.96125 -0.97553,0.37092 -0.95545,0.3732 -2.37649,-0.27234 z m 70.80611,-23.92311 c -1.8091,-0.46707 -2.55,-0.804 -2.55,-1.15968 0,-0.60129 5.88184,-2.3646 13.05,-3.91218 6.73705,-1.45455 10.37962,-2.46657 12.91772,-3.58905 17.37544,-2.23347 -7.85284,6.41412 -9.66415,7.06158 -0.14179,0.14178 -1.40434,0.5421 -2.80567,0.88956 -2.48549,0.61626 -9.53885,1.07358 -10.94786,0.70977 z m 35.71944,-12.18551 c -285.96148,367.24497 -142.98074,183.62248 0,0 z m -154.68018,-48.2796 c -0.34353,-0.66985 -0.33549,-0.6779 0.18284,-0.18283 0.2982,0.28482 0.45991,0.60013 0.35935,0.70069 -0.10056,0.10056 -0.34455,-0.13248 -0.54219,-0.51786 z m 122.41074,-35.01353 c -1.22987,-0.26479 -2.15534,-0.73089 -2.66096,-1.34013 -0.29334,-0.35344 -0.21213,-0.55331 0.4301,-1.05849 0.43545,-0.34252 1.21678,-0.68236 1.73629,-0.75519 7.83171,-1.09795 17.88704,-3.16084 20.65327,-4.23711 13.31076,-6.15864 21.89943,-11.07984 21.58779,-10.25422 -0.26787,0.70967 3.12758,0.61315 0.99324,2.14891 -0.45581,0.32799 -6.72442,5.27175 -22.11994,11.738 -0.20313,0.19937 -9.47436,2.61896 -11.91978,3.1108 -3.36457,0.67671 -7.22848,0.96425 -8.7,0.64743 z M 358.69659,295.20203 c -1.30909,-0.3418 -1.62381,-0.58836 -1.62381,-1.27215 0,-1.31083 4.35729,-2.42445 11.55,-2.9519 5.49352,-0.40284 8.92338,-1.00523 11.42447,-2.00648 3.77967,-1.51311 4.47445,-3.40485 2.0897,-5.68984 -16.19646,-5.8172 -9.62192,-8.27558 2.51727,-1.41708 3.82736,4.34811 0.9988,9.09823 -6.67065,11.20232 -5.96209,1.63567 -16.66281,2.82028 -19.28698,2.13513 z m 6.92619,-17.43757 c 0.10198,-0.165 0.24494,-0.3 0.31771,-0.3 0.0728,0 0.13229,0.135 0.13229,0.3 0,0.165 -0.14297,0.3 -0.31771,0.3 -0.17473,0 -0.23427,-0.135 -0.13229,-0.3 z"
       inkscape:connector-curvature="0"
       inkscape:export-xdpi="90"
       inkscape:export-ydpi="90" />
  </g>
</svg>
