<?xml version="1.0" encoding="UTF-8" standalone="no"?>
<!-- Created with Inkscape (http://www.inkscape.org/) -->

<svg
   xmlns:dc="http://purl.org/dc/elements/1.1/"
   xmlns:cc="http://creativecommons.org/ns#"
   xmlns:rdf="http://www.w3.org/1999/02/22-rdf-syntax-ns#"
   xmlns:svg="http://www.w3.org/2000/svg"
   xmlns="http://www.w3.org/2000/svg"
   xmlns:sodipodi="http://sodipodi.sourceforge.net/DTD/sodipodi-0.dtd"
   xmlns:inkscape="http://www.inkscape.org/namespaces/inkscape"
   width="64.845711mm"
   height="71.510971mm"
   viewBox="0 0 229.76827 253.38533"
   id="svg2"
   version="1.1"
   inkscape:version="0.91 r13725"
   sodipodi:docname="clock.svg"
   inkscape:export-filename="C:\Users\rodri\Documents\rmelo19-eagle\IMG\clock.png"
   inkscape:export-xdpi="90"
   inkscape:export-ydpi="90">
  <defs
     id="defs4" />
  <sodipodi:namedview
     id="base"
     pagecolor="#ffffff"
     bordercolor="#666666"
     borderopacity="1.0"
     inkscape:pageopacity="0.0"
     inkscape:pageshadow="2"
     inkscape:zoom="1.4"
     inkscape:cx="77.567176"
     inkscape:cy="119.4022"
     inkscape:document-units="px"
     inkscape:current-layer="layer1"
     showgrid="false"
     fit-margin-top="0"
     fit-margin-left="0"
     fit-margin-right="0"
     fit-margin-bottom="0"
     inkscape:window-width="1280"
     inkscape:window-height="657"
     inkscape:window-x="-8"
     inkscape:window-y="-8"
     inkscape:window-maximized="1" />
  <metadata
     id="metadata7">
    <rdf:RDF>
      <cc:Work
         rdf:about="">
        <dc:format>image/svg+xml</dc:format>
        <dc:type
           rdf:resource="http://purl.org/dc/dcmitype/StillImage" />
        <dc:title />
      </cc:Work>
    </rdf:RDF>
  </metadata>
  <g
     inkscape:label="Layer 1"
     inkscape:groupmode="layer"
     id="layer1"
     transform="translate(-268.80265,-393.58101)">
    <path
       style="fill:#000000"
       d="m 430.85715,646.21936 c -3.06475,-0.6451 -3.16535,-0.75309 -0.80902,-0.86836 2.73324,-0.13371 5.01632,-2.06376 2.61804,-2.21321 -0.71996,-0.0449 0.15348,-0.72116 1.94098,-1.50287 3.90751,-1.70884 4.28112,-2.89117 0.62352,-1.97317 -2.11151,0.52995 -2.5098,0.35514 -2.03139,-0.89159 0.85546,-2.22929 -1.92939,-1.96901 -6.0267,0.56327 -1.88134,1.16273 -3.64787,1.88683 -3.9256,1.60909 -0.96076,-0.96075 5.32672,-4.6494 9.53798,-5.59561 5.52257,-1.24084 5.61648,-1.38644 4.11013,-6.37258 -0.70701,-2.34023 -1.71387,-5.71505 -2.23748,-7.4996 -0.99789,-3.40095 -4.1076,-3.2245 -5.46394,0.31004 -0.30277,0.78903 -1.46033,1.43459 -2.57234,1.43459 -1.84798,0 -1.96481,0.42996 -1.35857,5 0.78782,5.93887 0.21112,6.43317 -1.45838,1.25 -1.82093,-5.65331 -2.54522,-6.24072 -6.24934,-5.06837 -10.64996,3.37072 -14.86639,3.82835 -36.19789,3.92871 -12.7346,0.0599 -23.8952,-0.35237 -26.5,-0.97896 -2.475,-0.59537 -4.79619,-1.09349 -5.1582,-1.10693 -2.48057,-0.0921 -4.79823,12.49991 -2.60567,14.1568 3.26445,2.46689 1.13283,4.09961 -5.97124,4.57368 -11.87213,0.79226 -20.93493,-4.34576 -15.48006,-8.77619 2.00323,-1.62702 8.83976,-14.78519 8.02401,-15.4437 -0.16986,-0.13712 -4.09184,-2.20042 -8.7155,-4.58511 -4.62367,-2.3847 -9.57367,-5.3906 -11,-6.6798 -11.74272,-10.61367 -14.93108,-15.40853 -22.14936,-33.30963 -2.71689,-6.73779 -5.33367,-12.74777 -5.81507,-13.35552 -8.18092,-10.32791 -5.69272,-50.745 4.34327,-70.55008 1.75433,-3.462 2.12607,-5.02215 1.26503,-5.30916 -0.85857,-0.28619 -0.70268,-0.92313 0.52686,-2.15267 0.96042,-0.96041 2.69931,-3.96175 3.86421,-6.66964 1.16491,-2.70789 2.50604,-4.92343 2.9803,-4.92343 0.47427,0 1.88135,-1.52696 3.12686,-3.39325 1.24551,-1.86629 4.3062,-6.02879 6.80153,-9.25 11.4683,-14.80438 3.11962,-14.43206 -12.16281,0.54242 -13.30907,13.04088 -13.30907,13.04088 -15.69123,10.82086 -19.5946,-18.26093 -14.87744,-54.01281 8.57453,-64.98731 3.60798,-1.68837 9.04957,-4.56894 12.09243,-6.40125 13.88678,-8.36219 33.40616,-2.32836 44.77018,13.83935 4.16638,5.92756 4.33926,5.11795 -1.77567,8.31536 -28.46899,14.88603 -37.17602,32.20412 -9.15323,18.20558 11.98654,-5.98777 26.77246,-10.76529 29.00962,-9.37337 0.43956,0.27349 0.65239,-2.5448 0.47294,-6.26287 -0.49677,-10.29293 4.80524,-12.63022 22.7116,-10.01196 10.01356,1.46418 10.71981,2.10917 11.00643,10.05179 0.28573,7.91786 0.0538,7.63234 6.874,8.46346 6.62878,0.8078 16.39191,3.65164 23.83122,6.94166 15.37399,6.79911 20.22935,0.96654 5.40302,-6.49046 -7.73381,-3.88976 -18,-10.2006 -18,-11.06496 0,-4.33582 16.50527,4.32362 35,18.36265 2.475,1.87873 6.975,4.8483 10,6.59905 8.10424,4.69041 8.92788,5.22276 14.84226,9.59325 2.97716,2.2 6.22054,4.59412 7.2075,5.32026 1.61607,1.189 1.99972,0.85632 3.85863,-3.34606 6.88745,-15.57022 8.03543,-30.79208 2.73915,-36.32021 -1.45615,-1.51988 -2.64754,-3.09309 -2.64754,-3.49601 0,-0.96019 -8.95696,-9.65798 -9.94575,-9.65798 -0.41921,0 -1.97465,-1.12365 -3.45652,-2.49701 -4.89523,-4.53675 -22.12257,-11.14222 -24.31465,-9.32296 -0.83521,0.69316 -2.1726,0.70553 -4.08797,0.0378 -1.89933,-0.66211 -3.44949,-0.65501 -4.65806,0.0213 -1.3535,0.75745 -1.6225,0.70807 -1.06416,-0.19535 1.87746,-3.03779 -6.61992,2.86822 -12.72666,8.84552 -4.71963,4.61959 -6.81833,7.43888 -6.96811,9.36062 -0.23083,2.96158 -0.54545,3.18362 -2.63501,1.85961 -2.90648,-1.84163 -0.0536,-7.23413 8.78735,-16.60961 6.50131,-6.89441 15.46051,-9.56389 24.86991,-7.41022 2.5848,0.59162 5.90792,1.23837 7.38472,1.43722 4.38686,0.5907 12.84999,4.60722 12.13736,5.76028 -0.40479,0.65497 -0.0183,0.80997 1.02323,0.41031 1.71721,-0.65895 22.9977,19.16867 23.23823,21.65171 0.0613,0.63289 0.18,2.18976 0.26378,3.45972 0.0838,1.26996 0.60231,2.0309 1.15231,1.69098 4.04845,-2.50208 0.35064,18.59798 -5.12481,29.24264 -2.13135,4.1435 -3.87519,8.15506 -3.87519,8.91456 0,1.70246 -4.29149,0.84687 -8,-1.59495 -1.375,-0.90535 -4.20906,-2.52722 -6.29791,-3.60417 -2.08885,-1.07694 -5.15413,-3.19558 -6.81172,-4.70808 -1.65759,-1.5125 -3.41285,-2.75 -3.90057,-2.75 -0.48771,0 -2.10065,-1.125 -3.5843,-2.5 -3.12533,-2.89646 -4.6487,-3.11681 -6.45992,-0.93442 -1.71388,2.0651 0.38663,5.71361 8.27953,14.38127 5.86867,6.44474 11.83449,17.25473 13.27444,24.05315 0.40773,1.925 1.41721,4.82167 2.24329,6.43704 0.82608,1.61538 2.0703,6.56538 2.76492,11 0.69462,4.43463 1.31454,7.05046 1.37759,5.81296 0.0642,-1.25959 0.76091,-2.25 1.58282,-2.25 1.12517,0 1.37199,0.99291 1.0565,4.25 -0.43704,4.51192 -1.01148,11.62087 -2.12114,26.25 -0.97106,12.80191 -1.02798,13.30055 -2.33618,20.46571 -0.64928,3.55614 -1.66471,7.04914 -2.25652,7.76223 -0.59181,0.71309 -1.23128,2.62999 -1.42104,4.25978 -0.18976,1.62979 -1.72344,5.40567 -3.40817,8.39085 -2.22198,3.93714 -2.70869,5.55184 -1.77238,5.88005 1.14146,0.40012 -7.34544,10.50737 -12.1803,14.50581 -3.83325,3.17011 -12.46437,9.23557 -13.14216,9.23557 -0.4136,0 -1.00205,0.78781 -1.30765,1.75069 -0.30561,0.96288 -1.83741,2.31806 -3.40401,3.0115 -3.71599,1.64486 -0.65693,17.8278 3.57056,18.88883 3.98266,0.99958 2.19014,6.51846 -3.28012,10.09898 -3.62726,2.3742 -3.93294,2.41457 -9.46556,1.25 z m 9,-3 c 0.825,-0.53316 1.05,-0.96937 0.5,-0.96937 -0.55,0 -1.675,0.43621 -2.5,0.96937 -0.825,0.53316 -1.05,0.96937 -0.5,0.96937 0.55,0 1.675,-0.43621 2.5,-0.96937 z m -106,-1.39301 c 0,-0.21616 -0.69837,-0.661 -1.55194,-0.98855 -0.88992,-0.34149 -1.29132,-0.17385 -0.94098,0.39301 0.58726,0.95021 2.49292,1.40545 2.49292,0.59554 z m 10.51235,-9.64418 c 1.92747,-5.80307 1.40419,-8.43575 -1.5245,-7.66988 -1.09332,0.28591 -1.98785,0.15409 -1.98785,-0.29293 0,-0.44702 -0.97037,-0.559 -2.15637,-0.24886 -1.63144,0.42663 -1.97854,0.22127 -1.42584,-0.84362 0.40179,-0.77413 0.0161,-0.52572 -0.85711,0.55204 -2.10956,2.60376 -1.613,3.64281 2.49969,5.23057 3.16981,1.22376 3.20576,1.28195 0.45827,0.74178 -1.63974,-0.32238 -3.42906,-0.66394 -3.97625,-0.75903 -0.5472,-0.0951 -1.14939,0.83962 -1.3382,2.07712 -0.21909,1.43598 0.16919,2.25 1.07325,2.25 0.7791,0 2.45425,0.9 3.72256,2 3.2546,2.8227 3.63576,2.61269 5.51235,-3.03719 z m -9.01235,-0.96281 c -0.33992,-0.55 -0.14148,-1 0.44098,-1 0.58246,0 1.05902,0.45 1.05902,1 0,0.55 -0.19844,1 -0.44098,1 -0.24254,0 -0.7191,-0.45 -1.05902,-1 z m -0.5,4 c 0,-0.55 -0.45,-1 -1,-1 -0.55,0 -1,0.45 -1,1 0,0.55 0.45,1 1,1 0.55,0 1,-0.45 1,-1 z m 65.86187,-12.59665 c 4.59902,-1.32184 9.45714,-2.40335 10.7958,-2.40335 1.33867,0 4.54725,-1.125 7.13018,-2.5 2.58293,-1.375 5.21417,-2.5 5.8472,-2.5 0.63304,0 1.40999,-0.675 1.72658,-1.5 0.31658,-0.825 1.44454,-1.5 2.50657,-1.5 1.06204,0 4.22021,-1.6875 7.01815,-3.75 2.79794,-2.0625 7.35882,-5.325 10.13528,-7.25 18.17935,-12.60428 22.03131,-17.29416 26.2827,-32 8.14701,-28.18102 7.8101,-51.18726 -1.16685,-79.68129 -2.88942,-9.17141 -11.38069,-23.90446 -13.14772,-22.81238 -0.46517,0.28749 -1.14921,-0.43336 -1.52009,-1.60189 -0.37088,-1.16853 -1.50378,-3.08756 -2.51757,-4.26452 -1.01379,-1.17696 -2.88025,-3.68673 -4.14768,-5.57727 -5.47039,-8.15981 -48.08374,-23.33465 -51.68757,-18.40622 -1.17207,1.60287 -23.11685,1.4778 -23.11685,-0.13174 0,-0.78392 0.7875,-1.87815 1.75,-2.43162 1.29275,-0.74338 0.70485,-0.85075 -2.25,-0.41093 -2.2,0.32746 -4.47342,0.96411 -5.05204,1.41477 -0.57862,0.45066 -2.03168,0.56321 -3.22903,0.25009 -1.31542,-0.34399 -3.63188,0.28911 -5.85319,1.59971 -2.79778,1.65074 -3.8603,1.87111 -4.44672,0.92227 -0.58729,-0.95027 -2.41743,-0.58375 -7.69629,1.54135 -10.10719,4.06884 -10.54128,4.5463 -4.22273,4.64464 3.025,0.0471 6.4,0.49741 7.5,1.00074 1.34105,0.61362 0.002,0.73578 -4.06458,0.37075 -4.29642,-0.38567 -7.35773,-0.0656 -10.5,1.0977 -2.43948,0.90314 -5.33542,1.75447 -6.43542,1.89184 -1.1,0.13737 -2,0.74921 -2,1.35964 0,1.60564 -4.14415,5.22436 -5.98294,5.22436 -0.86161,0 -1.99102,1.1164 -2.5098,2.4809 -0.53199,1.39925 -1.50356,2.26588 -2.2284,1.98773 -1.77748,-0.68208 -12.27578,8.60622 -10.77543,9.53349 0.79252,0.4898 0.11668,2.18772 -2.15187,5.40614 -2.76985,3.92961 -3.06713,4.84392 -1.82942,5.62659 1.24436,0.78687 1.20136,0.93694 -0.27214,0.94984 -0.9625,0.008 -1.75,0.73334 -1.75,1.61094 0,0.8776 -0.92331,2.89229 -2.05179,4.47711 -2.82649,3.96944 -6.9422,20.66482 -7.62412,30.92726 -0.31065,4.675 -0.96065,8.9275 -1.44445,9.45 -2.60741,2.81597 -0.31796,37.06084 2.55132,38.16188 0.67964,0.2608 1.23761,1.69232 1.23994,3.18115 0.008,5.15707 3.75048,11.30951 19.79658,32.545 4.49369,5.94697 5.82901,6.97447 14,10.77272 27.48019,12.77403 52.53574,16.28775 73.39439,10.2926 z m -64.52486,-10.19527 c -7.93927,-4.28737 -19.33701,-16.32335 -19.33701,-20.41982 0,-0.6783 0.68731,-0.25199 1.52737,0.94735 0.86818,1.2395 2.15292,1.94057 2.97681,1.62441 1.09959,-0.42195 0.48955,-1.69458 -2.52737,-5.27247 -2.18724,-2.59394 -3.97681,-5.04949 -3.97681,-5.45678 0,-0.40728 -1.8,-3.39113 -4,-6.63077 -2.2,-3.23964 -4,-6.56339 -4,-7.38611 0,-0.82272 -0.45,-1.77397 -1,-2.11389 -0.55,-0.33992 -1,-1.68992 -1,-3 0,-1.31008 -0.38935,-2.6226 -0.86522,-2.9167 -0.47587,-0.2941 -1.14737,-2.00816 -1.49223,-3.80902 -0.34485,-1.80085 -1.06892,-5.29928 -1.60904,-7.77428 -2.65824,-12.18088 -2.12131,-28.0974 1.36949,-40.59732 3.86333,-13.83385 6.47458,-21.28742 8.72427,-24.90268 1.36902,-2.2 3.25588,-5.6545 4.19304,-7.67668 0.93717,-2.02217 3.10715,-4.94717 4.8222,-6.5 1.71504,-1.55282 3.94428,-3.59551 4.95385,-4.5393 1.00958,-0.94379 3.6675,-2.87241 5.90649,-4.28582 2.239,-1.41342 3.82517,-2.96745 3.52483,-3.4534 -4.49941,-7.28021 53.206,-18.86324 68.97232,-13.84461 4.95,1.57565 10.40447,3.30834 12.12105,3.85042 1.71658,0.54207 3.81173,0.72055 4.6559,0.39661 3.25392,-1.24865 32.72305,25.82746 32.72305,30.06581 0,0.89464 1.45349,3.7327 3.22997,6.30679 7.85673,11.38428 14.81669,32.18018 10.77003,32.18018 -0.59078,0 -1,3.59515 -1,8.78544 0,19.05152 -9.59241,54.30923 -15.3799,56.5301 -0.79723,0.30593 -2.05039,1.64707 -2.7848,2.98033 -2.21469,4.02054 -7.31516,10.18666 -8.65903,10.46816 -0.69326,0.14522 -3.14267,1.45222 -5.44313,2.90443 -5.55778,3.50847 -13.20064,6.8289 -18.73314,8.13858 -2.475,0.58589 -7.875,2.29309 -12,3.79377 -8.30852,3.02264 -17.70724,3.59334 -32.5,1.97344 -4.4,-0.48182 -9.15948,-0.95837 -10.57663,-1.05898 -1.41714,-0.10061 -2.99214,-0.4374 -3.5,-0.74842 -0.50785,-0.31102 -2.49837,-0.46481 -4.42337,-0.34175 -1.925,0.12305 -5.75,-0.74641 -8.5,-1.93215 -2.75,-1.18573 -6.20288,-2.4566 -7.67307,-2.82416 -1.47018,-0.36755 -4.62018,-2.15068 -7,-3.96251 -6.33567,-4.82355 -7.72404,-5.58819 -5.82693,-3.20915 3.26207,4.09075 8.75181,8.73944 13.75,11.64346 2.8875,1.67768 5.25,3.23237 5.25,3.45487 0,0.88457 -2.66476,0.23174 -5.66299,-1.38738 z m 63.38766,-6.84289 c 5.60084,-0.36383 9.64191,-1.10197 10.28677,-1.87898 0.58415,-0.70386 1.96035,-1.04484 3.05821,-0.75775 1.09786,0.2871 2.76882,-0.17004 3.71323,-1.01586 0.94442,-0.84583 4.19212,-2.67564 7.21712,-4.06625 6.78399,-3.11865 10.59318,-5.47068 13.59812,-8.39635 1.27104,-1.2375 2.78143,-2.25 3.35643,-2.25 0.575,0 1.04545,-0.675 1.04545,-1.5 0,-0.825 0.35395,-1.5 0.78655,-1.5 4.24638,0 14.28749,-20.73968 16.70315,-34.5 0.19311,-1.1 1.09432,-6.21146 2.0027,-11.35881 2.10428,-11.92396 0.42385,-23.96093 -5.43093,-38.90192 -1.13381,-2.8934 -2.06384,-6.4934 -2.06673,-8 -0.003,-1.5066 -0.7904,-3.91625 -1.75,-5.35479 -0.95961,-1.43853 -2.96426,-4.4386 -4.45478,-6.66682 -1.49052,-2.22822 -4.75302,-5.75903 -7.25,-7.84625 -2.49698,-2.08721 -4.53996,-4.3357 -4.53996,-4.99662 0,-5.2691 -26.87616,-19.76664 -36.23031,-19.54336 -0.95167,0.0227 -1.97252,-0.3506 -2.26856,-0.8296 -0.61454,-0.99434 -6.54453,-0.61217 -17.75113,1.14402 -7.64256,1.19767 -9.05801,1.98484 -6.39144,3.55446 3.18358,1.87395 5.62079,36.29969 2.56988,36.29969 -2.68656,0 -4.0851,-5.10696 -3.88799,-14.19753 0.26743,-12.33347 0.27069,-12.32829 -2.87298,-4.57226 -3.09661,7.63991 -4.65115,9.68611 -6.18982,8.14744 -0.69647,-0.69647 -0.38257,-2.4687 0.98477,-5.55978 1.10391,-2.49559 2.73907,-7.41303 3.63368,-10.92765 0.89461,-3.51462 2.06292,-7.21626 2.59625,-8.22587 2.01469,-3.81385 -3.36213,-2.33069 -12.26762,3.38395 -5.67168,3.63951 -8.54291,3.87177 -4.55935,0.36882 4.43101,-3.89642 2.5823,-3.83138 -4.9777,0.17512 -20.94816,11.1017 -39.75703,37.23726 -40.59475,56.40776 -0.036,0.825 -0.4662,2.01055 -0.95588,2.63456 -0.92416,1.17767 -0.30686,20.79626 0.70592,22.43496 0.95787,1.54987 2.28457,1.04922 2.97374,-1.12217 0.53027,-1.67074 0.92339,-1.82699 2.1129,-0.83979 0.80377,0.66708 1.24126,1.78656 0.9722,2.48773 -0.675,1.75901 10.06968,3.13321 11.70577,1.49713 3.27592,-3.27592 0.2402,-12.80312 -3.11269,-9.76879 -8.49306,7.68611 -17.40794,-9.95503 -9.06836,-17.94486 5.03789,-4.8266 19.34645,2.65886 17.07735,8.93395 -0.74417,2.05796 -0.96217,6.17159 -0.59453,11.21839 0.86971,11.9389 -1.8881,13.93865 -14.75329,10.6979 -7.21849,-1.81834 -6.91369,-2.12041 -5.83885,5.78646 2.873,21.13461 5.96432,29.46548 14.00205,37.73453 2.27212,2.3375 3.53478,4.26368 2.80593,4.28041 -0.73483,0.0169 -0.43421,0.54582 0.67481,1.18738 1.1,0.63633 2.83004,2.2102 3.84453,3.49749 7.93154,10.06433 28.88395,13.28055 69.38014,10.64991 z m -15.22467,-4.72872 c -15.03616,-6.8325 -7.06559,-33.7775 9.5,-32.11533 1.925,0.19315 4.2875,0.37991 5.25,0.41502 2.17014,0.0792 2.34575,2.06384 0.18261,2.06384 -1.16369,0 -1.38926,0.57951 -0.87579,2.25 0.6916,2.25 0.6916,2.25 -1.80218,-0.0518 -4.55837,-4.20741 -10.534,-0.57196 -13.10573,7.97325 -1.37466,4.56765 -1.37466,4.56765 1.03656,3.3167 3.30341,-1.71383 9.76815,0.002 12.34339,3.27566 5.61021,7.13223 -3.82593,16.8273 -12.52886,12.87265 z m 6.3,-2.83647 c 2.66604,-2.66604 0.17658,-9.8 -3.4198,-9.8 -3.52378,0 -4.40282,7.17032 -1.15769,9.4433 2.67197,1.87152 3.03443,1.89976 4.57749,0.3567 z m 2.77366,-9.57381 c -1.72775,-1.65022 -1.75457,-1.6234 -0.60945,0.60946 0.6588,1.2846 1.47209,2.06139 1.80729,1.72619 0.3352,-0.3352 -0.20383,-1.38624 -1.19784,-2.33565 z m -43.57366,7.94068 c 0,-0.45822 1.76962,-4.19197 3.93249,-8.29723 2.16287,-4.10526 6.03283,-12.39285 8.59991,-18.41687 2.56709,-6.02403 5.55004,-12.90112 6.6288,-15.28244 1.07876,-2.38132 2.81652,-7.55632 3.86169,-11.5 1.04518,-3.94368 2.17026,-8.08794 2.5002,-9.20946 0.56137,-1.9082 -3.99064,-6.98452 -13.07969,-14.58625 -3.63871,-3.04328 -20.85008,-22.03412 -28.73807,-31.70929 -6.70271,-8.22134 -0.48875,-4.26063 8.91729,5.68378 18.20781,19.24996 31.31187,29.06658 36.42238,27.28505 1.65625,-0.57737 3.61259,-0.81905 4.34744,-0.53706 0.80068,0.30725 7.20103,-5.60828 15.97182,-14.76199 10.67359,-11.13956 14.63574,-14.7069 14.63574,-13.17734 0,1.15354 -0.63729,2.62624 -1.41619,3.27268 -0.77891,0.64643 -3.46265,4.18903 -5.96386,7.87244 -2.50122,3.68341 -7.58624,10.52211 -11.30006,15.19711 -5.08427,6.40014 -6.78353,9.32598 -6.87842,11.8435 -0.1419,3.76499 -1.87897,5.38545 -5.17001,4.82295 -2.7936,-0.47748 -4.45025,1.93778 -7.91238,11.53561 -1.43096,3.96694 -5.64666,13.30682 -9.36822,20.75528 -3.72156,7.44846 -7.10065,14.66766 -7.50908,16.04266 -2.10656,7.0918 -8.48178,16.98852 -8.48178,13.16687 z m -9.75,-8.20159 c -2.83848,-1.13644 -3.08634,-4.96528 -0.32143,-4.96528 3.53521,0 6.54731,4.82473 3.50893,5.62055 -0.51563,0.13506 -1.95,-0.15982 -3.1875,-0.65527 z m 83.25,-8.96528 c -0.82558,-1.33582 0.28388,-3 2,-3 2.0399,0 2.96943,2.08857 1.37812,3.09649 -1.80685,1.14444 -2.62564,1.12105 -3.37812,-0.0965 z m -55.26793,-5 c -0.69188,-1.10788 -0.81487,-2 -0.27573,-2 0.53531,0 1.45496,0.9 2.04366,2 0.5887,1.1 0.71278,2 0.27573,2 -0.43705,0 -1.3567,-0.9 -2.04366,-2 z m -47.23807,-2.50723 c -1.62942,-1.96333 -0.53752,-4.49277 1.93943,-4.49277 1.81557,0 4.06657,2.61057 4.06657,4.71615 0,1.48063 -4.73804,1.30441 -6.006,-0.22338 z m 59.006,-8.99277 c -0.71755,-0.86459 -0.81474,-1.5 -0.22943,-1.5 0.5585,0 1.27447,0.675 1.59106,1.5 0.31658,0.825 0.41982,1.5 0.22943,1.5 -0.19039,0 -0.90637,-0.675 -1.59106,-1.5 z m 61.53964,-4.84736 c -1.2873,-0.9413 -1.4929,-1.5635 -0.68218,-2.06454 1.67647,-1.03612 5.14254,0.29792 5.14254,1.97929 0,1.80274 -2.05777,1.84207 -4.46036,0.0853 z m -27.03964,-0.65264 c 0.33992,-0.55 0.81648,-1 1.05902,-1 0.24254,0 0.44098,0.45 0.44098,1 0,0.55 -0.47656,1 -1.05902,1 -0.58246,0 -0.7809,-0.45 -0.44098,-1 z m 24.10855,-22.33802 c -6.33754,-1.98949 -9.95219,-4.65167 -8.40994,-6.19392 0.34532,-0.34533 1.67941,0.0399 2.96463,0.85594 3.00274,1.90669 11.37197,3.351 10.41138,1.79673 -0.42659,-0.69023 -0.0994,-0.87561 0.88116,-0.49932 2.65802,1.01997 6.54422,-2.30879 6.54422,-5.60551 0,-4.43756 -3.5911,-7.35055 -8,-6.48935 -9.78768,1.91185 -11.43861,0.14549 -4.0901,-4.37609 4.88072,-3.00314 8.77317,-8.23621 7.57195,-10.17983 -1.80262,-2.91669 -8.8272,0.28491 -9.88664,4.50604 -0.87778,3.49735 -3.27314,3.17109 -3.81482,-0.51961 -0.69535,-4.73771 5.01887,-9.38145 10.61967,-8.63023 6.98632,0.93707 9.09085,6.10011 4.95074,12.14568 -1.83432,2.67856 -1.7782,2.8438 1.65432,4.87144 7.81672,4.61745 4.51725,21.86363 -3.93512,20.56873 -0.3135,-0.048 -3.67115,-1.06085 -7.46145,-2.2507 z m -114.58541,-38.1341 c -0.97701,-1.17723 -0.90106,-1.79281 0.37914,-3.07302 2.02035,-2.02035 4.96282,-1.51314 5.43463,0.9368 0.62146,3.22699 -3.61623,4.7841 -5.81377,2.13622 z m 62.17659,-13.29405 c -3.27038,-0.36471 -6.44042,-4.71434 -4.4828,-6.15086 6.35995,-4.66698 10.45423,-18.85063 6.11224,-21.1744 -2.40655,-1.28794 -5.35547,1.27753 -4.38262,3.81274 0.59454,1.54934 0.0299,1.60407 -2.51229,0.24351 -4.3231,-2.31365 1.54478,-10.86839 6.4296,-9.37368 7.23488,2.2138 9.44476,16.97003 3.73262,24.92405 -3.22075,4.48481 -3.22075,4.48481 0.27628,4.48481 3.74015,0 9.25482,1.70575 8.37125,2.58933 -0.70057,0.70056 -9.35061,1.11217 -13.54428,0.6445 z m 45.81084,-0.72109 c -1.48896,-1.79409 -0.64474,-4.51274 1.40134,-4.51274 1.71406,0 4.74931,3.93013 3.98737,5.16297 -0.83436,1.35002 -4.05074,0.96192 -5.38871,-0.65023 z m -92.30933,-3.14484 c -1.21273,-1.21273 -0.76421,-4.07075 0.84895,-5.40955 2.25753,-1.87358 5.42094,1.27721 3.82568,3.81041 -1.1922,1.89315 -3.56792,2.70586 -4.67463,1.59914 z m 77.29876,-11.38422 c -2.10755,-1.65988 -2.26545,-2.1208 -1.00589,-2.93621 1.73824,-1.12528 5.50589,0.92156 5.50589,2.99117 0,2.08395 -1.81232,2.06181 -4.5,-0.055 z m -95.50746,56.01916 c 2.34186,-0.89038 2.58979,-1.45168 2.3151,-5.24138 -0.53451,-7.3741 -6.80764,-5.74952 -6.80764,1.763 0,4.53324 0.5658,4.97132 4.49254,3.47838 z m 21.08783,-69.7558 c -0.45746,-0.45746 -6.58037,2.5782 -6.58037,3.26246 0,0.25198 1.56935,-0.29023 3.48744,-1.2049 1.9181,-0.91468 3.30991,-1.84058 3.09293,-2.05756 z m -28.12149,143.68643 c -1.07627,-1.74144 0.14952,-2.11024 1.52106,-0.45764 0.78875,0.95039 0.86461,1.52417 0.20152,1.52417 -0.58488,0 -1.36005,-0.47994 -1.72258,-1.06653 z m 0,-10 c -0.36253,-0.58659 -0.44468,-1.281 -0.18255,-1.54313 0.26212,-0.26213 0.74306,0.21781 1.06875,1.06653 0.67618,1.76211 0.0999,2.07206 -0.8862,0.4766 z m -7.45888,-0.93347 c 0,-0.55 0.45,-1 1,-1 0.55,0 1,0.45 1,1 0,0.55 -0.45,1 -1,1 -0.55,0 -1,-0.45 -1,-1 z m -8.78947,-13.21053 c -2.34802,-2.78531 -4.07867,-5.25467 -3.84589,-5.48745 0.54759,-0.54758 5.20639,4.11366 7.29034,7.29416 2.88949,4.40992 0.92949,3.38185 -3.44445,-1.80671 z m -3.11166,-62.47437 c -0.11144,-2.46273 1.71067,-7.83889 2.4173,-7.13227 0.25311,0.25312 -0.16499,2.45303 -0.92911,4.88869 -0.85731,2.73268 -1.42718,3.59182 -1.48819,2.24358 z m 9.08308,-25.8151 c 0.6265,-1.375 1.52722,-2.5 2.00162,-2.5 0.47439,0 0.12541,1.125 -0.77553,2.5 -0.90093,1.375 -1.80166,2.5 -2.00161,2.5 -0.19995,0 0.14903,-1.125 0.77552,-2.5 z m 3.52536,-11.48875 c 0.28604,-1.09382 0.94076,-1.72875 1.45494,-1.41098 0.55165,0.34095 0.45486,1.15616 -0.23614,1.98876 -1.57743,1.90069 -1.835,1.77858 -1.2188,-0.57778 z m 2.91623,-1.54991 c -0.87039,-2.2682 -0.80856,-2.46134 0.78798,-2.46134 0.77633,0 1.31436,0.66197 1.19561,1.47106 -0.33709,2.29669 -1.29816,2.77649 -1.98359,0.99028 z m 3.40973,-4.06532 c 0.0502,-1.35309 3.93925,-5.75684 4.54712,-5.14897 0.29171,0.29171 -0.61954,1.77117 -2.02501,3.28769 -1.40546,1.51652 -2.54041,2.3541 -2.52211,1.86128 z m 7.96673,-8.89602 c 1.29174,-1.375 2.57363,-2.5 2.84863,-2.5 0.275,0 -0.55689,1.125 -1.84863,2.5 -1.29175,1.375 -2.57363,2.5 -2.84863,2.5 -0.275,0 0.55688,-1.125 1.84863,-2.5 z m 6,-3.87755 c 0,-0.20766 0.7875,-0.99516 1.75,-1.75 1.58606,-1.24388 1.62143,-1.20851 0.37755,0.37755 -1.30636,1.66575 -2.12755,2.19548 -2.12755,1.37245 z m 80,166.76092 c 0,-0.21085 -0.9,-0.38337 -2,-0.38337 -1.1,0 -2,0.40787 -2,0.90638 0,0.49851 0.9,0.67103 2,0.38337 1.1,-0.28766 2,-0.69553 2,-0.90638 z m 39.66641,-18.94555 c 8.86292,-5.01313 16.17317,-10.93158 14.97823,-12.12651 -0.25056,-0.25056 -3.3106,1.85772 -6.8001,4.68505 -3.4895,2.82734 -9.15704,6.72352 -12.59454,8.65819 -5.54009,3.11804 -7.18785,4.34545 -5.83359,4.34545 0.22903,0 4.84153,-2.50298 10.25,-5.56218 z M 287.19061,519.21936 c 0.54211,-5.8272 0.50376,-6.03421 -0.37049,-2 -2.51611,11.6104 -3.29894,21.07243 -2.31656,28 0.71108,5.01434 0.83745,4.39623 1.43115,-7 0.35816,-6.875 0.92331,-15.425 1.2559,-19 z m 1.34965,-10.1875 c -0.31922,-0.79773 -0.55618,-0.56078 -0.60416,0.60417 -0.0434,1.05416 0.19293,1.64479 0.52522,1.3125 0.33229,-0.3323 0.36781,-1.1948 0.079,-1.91667 z m 11.56689,-56.24493 c 1.5125,-0.98868 2.75,-2.37681 2.75,-3.08476 0,-0.70794 1.2375,-1.72351 2.75,-2.25684 1.5125,-0.53332 5.52174,-3.38984 8.90943,-6.34782 11.23971,-9.81404 27.07175,-20.87815 29.8753,-20.87815 5.51986,0 -9.53473,-15.89667 -18.30497,-19.32886 -7.88252,-3.08479 -23.22976,-1.07342 -23.22976,3.04443 0,0.93975 -0.57539,1.27761 -1.54328,0.9062 -0.8488,-0.32572 -3.39434,0.5763 -5.65674,2.00449 -2.2624,1.4282 -4.83042,2.70144 -5.70672,2.82944 -0.87629,0.128 -1.88197,1.54033 -2.23484,3.13851 -0.61179,2.7709 -0.67523,2.80134 -1.36663,0.65579 -1.87876,-5.83019 -13.27373,9.62237 -13.96889,18.94302 -0.16035,2.14993 -0.5686,4.18601 -0.90722,4.52464 -1.18559,1.18558 -0.60155,4.35053 0.90984,4.93051 1.05609,0.40525 1.21992,0.95363 0.53239,1.78205 -1.81403,2.18577 0.73469,11.87738 4.75202,18.06978 5.3337,8.22146 4.57563,8.21396 12.54205,0.12401 3.93141,-3.99237 8.38552,-8.06777 9.89802,-9.05644 z m -18.25,6.70988 c 0,-0.58074 0.92671,-2.11824 2.05935,-3.41667 2.05935,-2.36078 2.05935,-2.36078 0.30266,0.63922 -2.31206,3.94843 -2.36201,4.00717 -2.36201,2.77745 z m -3,-2.7304 c 0,-1.29868 2.44024,-5.54705 3.18619,-5.54705 0.47585,0 0.16706,1.35 -0.68619,3 -1.38382,2.67601 -2.5,3.8132 -2.5,2.54705 z m -5,-7.08223 c 0,-1.22092 3.22873,-5.33861 4.5981,-5.86409 0.86282,-0.3311 0.37217,0.88276 -1.17868,2.91603 -2.55425,3.3488 -3.41942,4.0947 -3.41942,2.94806 z m 11.10039,-3.16934 c 0.72815,-1.21249 1.53915,-1.98927 1.80223,-1.72619 0.26308,0.26308 -0.33267,1.25511 -1.3239,2.20452 -1.72194,1.64929 -1.74325,1.62798 -0.47833,-0.47833 z m -9.12934,-8.76466 c 1.98953,-2.11777 4.02895,-2.57981 4.02895,-0.91279 0,0.275 -0.36803,0.27255 -0.81784,-0.006 -0.44982,-0.278 -1.44916,0.37044 -2.22076,1.44099 -0.77161,1.07058 -1.83202,1.94648 -2.35647,1.94648 -0.52446,0 0.0903,-1.11113 1.36612,-2.46918 z m 43.52895,-26.53082 c 0.33992,-0.55 1.06803,-1 1.61803,-1 0.55,0 0.72189,0.45 0.38197,1 -0.33992,0.55 -1.06803,1 -1.61803,1 -0.55,0 -0.72189,-0.45 -0.38197,-1 z m -5.5,-6.39301 c 0,-0.21616 0.69837,-0.661 1.55194,-0.98855 0.88992,-0.34149 1.29132,-0.17385 0.94098,0.39301 -0.58726,0.95021 -2.49292,1.40545 -2.49292,0.59554 z m 3.87838,41.84282 c -2.22745,-2.22745 -4.86553,0.65582 -2.83673,3.10038 1.16211,1.40025 1.43648,1.40025 2.83673,0 1.40025,-1.40025 1.40025,-1.70013 0,-3.10038 z m 133.21668,1.93565 c 2.27282,-2.73858 -3.56175,-7.17808 -6.24378,-4.75087 -1.88028,1.70162 -1.86292,1.78218 0.86497,4.01497 3.35901,2.74936 3.67222,2.79222 5.37881,0.7359 z m -55.09506,-23.4069 c 0,-5.40073 -0.24967,-6.13519 -2.42199,-7.12497 -3.32869,-1.51665 -13.57801,-0.21955 -13.57801,1.71837 0,0.78542 -0.45,1.42804 -1,1.42804 -2.36495,0 -0.77463,2.89309 1.75,3.18358 2.26368,0.26046 2.7206,0.77433 2.58373,2.90577 -0.15197,2.36669 0.18476,2.6031 3.91597,2.7493 2.24524,0.088 4.30756,0.38527 4.58294,0.66065 2.46628,2.46628 4.16736,0.21276 4.16736,-5.52074 z m -25.56699,0.33248 c -0.28561,-3.0468 -0.0104,-4.95417 0.7857,-5.44621 0.88924,-0.54958 0.7412,-0.94298 -0.53986,-1.43457 -0.97081,-0.37254 -1.94824,-0.4942 -2.17208,-0.27037 -0.72552,0.72552 0.74772,11.84011 1.56941,11.84011 0.438,0 0.59858,-2.11003 0.35683,-4.68896 z m 59.06699,214.68896 c 0.33992,-0.55 1.06803,-1 1.61803,-1 0.55,0 0.72189,0.45 0.38197,1 -0.33992,0.55 -1.06803,1 -1.61803,1 -0.55,0 -0.72189,-0.45 -0.38197,-1 z m -1.6875,-14.68311 c 0.72187,-0.28887 1.58437,-0.25335 1.91667,0.0789 0.33229,0.33229 -0.25834,0.56864 -1.3125,0.52522 -1.16495,-0.048 -1.4019,-0.28494 -0.60417,-0.60416 z m 52.32859,-171.95347 c -1.20131,-2.68048 -1.1755,-2.75789 0.40388,-1.21163 0.92794,0.90848 1.50543,2.19702 1.28329,2.86342 -0.22213,0.6664 -0.98136,-0.0769 -1.68717,-1.65179 z m -56.64109,-37.36342 c -0.33992,-0.55 -0.14148,-1 0.44098,-1 0.58246,0 1.05902,0.45 1.05902,1 0,0.55 -0.19844,1 -0.44098,1 -0.24254,0 -0.7191,-0.45 -1.05902,-1 z"
       id="path3358"
       inkscape:connector-curvature="0" />
  </g>
</svg>
