<?xml version="1.0" encoding="UTF-8" standalone="no"?>
<!-- Created with Inkscape (http://www.inkscape.org/) -->

<svg
   xmlns:dc="http://purl.org/dc/elements/1.1/"
   xmlns:cc="http://creativecommons.org/ns#"
   xmlns:rdf="http://www.w3.org/1999/02/22-rdf-syntax-ns#"
   xmlns:svg="http://www.w3.org/2000/svg"
   xmlns="http://www.w3.org/2000/svg"
   xmlns:sodipodi="http://sodipodi.sourceforge.net/DTD/sodipodi-0.dtd"
   xmlns:inkscape="http://www.inkscape.org/namespaces/inkscape"
   width="220.07785mm"
   height="327.1243mm"
   viewBox="0 0 779.80341 1159.1018"
   id="svg3342"
   version="1.1"
   inkscape:version="0.91 r13725"
   sodipodi:docname="lamp.svg">
  <defs
     id="defs3344" />
  <sodipodi:namedview
     id="base"
     pagecolor="#ffffff"
     bordercolor="#666666"
     borderopacity="1.0"
     inkscape:pageopacity="0.0"
     inkscape:pageshadow="2"
     inkscape:zoom="0.49497475"
     inkscape:cx="422.72074"
     inkscape:cy="624.56802"
     inkscape:document-units="px"
     inkscape:current-layer="layer1"
     showgrid="false"
     inkscape:window-width="1280"
     inkscape:window-height="657"
     inkscape:window-x="-8"
     inkscape:window-y="-8"
     inkscape:window-maximized="1"
     fit-margin-top="0"
     fit-margin-left="0"
     fit-margin-right="0"
     fit-margin-bottom="0" />
  <metadata
     id="metadata3347">
    <rdf:RDF>
      <cc:Work
         rdf:about="">
        <dc:format>image/svg+xml</dc:format>
        <dc:type
           rdf:resource="http://purl.org/dc/dcmitype/StillImage" />
        <dc:title></dc:title>
      </cc:Work>
    </rdf:RDF>
  </metadata>
  <g
     inkscape:label="Layer 1"
     inkscape:groupmode="layer"
     id="layer1"
     transform="translate(15.929869,14.408235)">
    <path
       style="fill:#000000"
       d="m 373.12048,1144.463 c -0.33543,-0.3579 -9.78543,-1.0982 -21,-1.6452 -24.43091,-1.1915 -39.78152,-2.6792 -61.39012,-5.9495 -3.85,-0.5827 -9.025,-1.3153 -11.5,-1.6281 -2.475,-0.3128 -4.9275,-0.9751 -5.45,-1.4718 -0.5225,-0.4966 -2.795,-0.903 -5.05,-0.903 -2.255,0 -4.5275,-0.4039 -5.05,-0.8976 -0.5225,-0.4936 -2.75,-1.132 -4.95,-1.4185 -2.2,-0.2866 -5.9125,-1.0077 -8.25,-1.6025 -2.3375,-0.5948 -5.9375,-1.5015 -8,-2.0149 -2.0625,-0.5134 -5.55,-1.451 -7.75,-2.0834 -2.2,-0.6324 -6.25,-1.58 -9,-2.1057 -8.40616,-1.607 -15.81281,-2.9274 -19.75627,-3.5222 -2.06595,-0.3115 -4.005,-0.9689 -4.30901,-1.4608 -0.30402,-0.4919 -1.5387,-0.9012 -2.74374,-0.9095 -2.39238,-0.016 -9.24173,-2.2023 -10.33898,-3.2996 -0.37693,-0.3769 -1.73533,-0.6853 -3.01867,-0.6853 -1.28333,0 -2.33333,-0.45 -2.33333,-1 0,-0.55 -0.90611,-1 -2.01357,-1 -1.10746,0 -3.01996,-0.5203 -4.25,-1.1561 -4.6968,-2.428 -5.75496,-2.8439 -7.23643,-2.8439 -0.83993,0 -2.30853,-0.3975 -3.26357,-0.8833 -0.95504,-0.4859 -3.08643,-1.4384 -4.73643,-2.1167 -1.65,-0.6783 -3.78139,-1.6308 -4.73643,-2.1167 -0.95504,-0.4858 -2.64254,-0.8833 -3.75,-0.8833 -1.10746,0 -2.01357,-0.45 -2.01357,-1 0,-0.55 -0.68111,-1 -1.51357,-1 -1.46857,0 -2.53024,-0.418 -7.22286,-2.8439 -1.23004,-0.6358 -2.91754,-1.1561 -3.75,-1.1561 -0.83246,0 -1.51357,-0.45 -1.51357,-1 0,-0.55 -0.5625,-0.9963 -1.25,-0.9917 -1.58156,0.01 -18.13522,-8.2284 -18.58333,-9.2491 -0.18334,-0.4176 -1.19584,-0.7592 -2.25,-0.7592 -1.05417,0 -1.91667,-0.3975 -1.91667,-0.8834 0,-0.4858 -0.7875,-1.1331 -1.75,-1.4383 -1.80741,-0.5732 -7.36686,-3.7582 -8.25,-4.7265 -0.275,-0.3015 -2.07,-1.6462 -3.988889,-2.9882 -18.97929,-13.2735 -30.01111,-30.2656 -30.01111,-46.2256 0,-3.091 0.45,-5.8981 1,-6.238 0.55,-0.3399 1,-1.4584 1,-2.4856 0,-2.0885 7.91446,-18.32666 9.18636,-18.84766 0.4475,-0.1834 0.81364,-0.886 0.81364,-1.5615 0,-0.6754 0.7875,-2.1004 1.75,-3.1666 0.9625,-1.0662 2.38854,-3.1761 3.16898,-4.6886 0.78044,-1.5125 1.79294,-2.75 2.25,-2.75 0.45706,0 0.83102,-0.5871 0.83102,-1.3046 0,-0.7175 1.575,-3.0241 3.5,-5.1257 1.925,-2.1016 3.5,-4.1951 3.5,-4.6522 0,-1.2206 14.918009,-16.052 18.999999,-18.8896 1.925,-1.3382 4.175,-3.1507 5,-4.0279 0.825,-0.8772 3.075,-2.6837 5,-4.0146 1.925,-1.3308 4.09464,-2.9969 4.82143,-3.7025 0.72678,-0.7056 1.66929,-1.2829 2.09446,-1.2829 0.42517,0 2.08052,-1.1245 3.67857,-2.4988 1.59805,-1.3743 3.43054,-2.4993 4.07221,-2.5 0.64166,-7e-4 1.31666,-0.3387 1.5,-0.7512 0.41726,-0.9389 5.74374,-4.1863 8.08333,-4.9283 0.9625,-0.3052 1.75,-0.9525 1.75,-1.4383 0,-0.4859 0.66131,-0.8834 1.46958,-0.8834 0.80827,0 3.07196,-0.9 5.03042,-2 1.95846,-1.1 4.42059,-2 5.4714,-2 1.05081,0 2.15662,-0.3981 2.45734,-0.8847 0.30073,-0.4866 2.01479,-1.1786 3.80902,-1.5379 1.79423,-0.3592 5.51224,-1.1036 8.26224,-1.6542 2.75,-0.5506 7.7,-1.4368 11,-1.9694 3.3,-0.5326 8.7,-1.4327 12,-2.0002 3.3,-0.5675 7.69032,-1.2868 9.75627,-1.5984 2.06595,-0.3116 4.005,-0.9689 4.30901,-1.4608 0.30402,-0.4919 1.62464,-0.8944 2.93472,-0.8944 1.31008,0 2.66008,-0.45 3,-1 0.33992,-0.55 1.49148,-1 2.55902,-1 1.06754,0 1.94098,-0.45 1.94098,-1 0,-0.55 0.9,-1 2,-1 1.1,0 2,-0.4197 2,-0.9326 0,-0.513 0.91286,-1.2224 2.02858,-1.5765 2.41167,-0.7654 14.48249,-12.5172 17.96585,-17.4909 1.34817,-1.925 3.25094,-4.3724 4.22839,-5.4386 0.97745,-1.0662 1.77718,-2.4293 1.77718,-3.0292 0,-0.5999 0.9,-1.7394 2,-2.5322 1.1,-0.7929 2,-1.9293 2,-2.5254 0,-0.5961 1.575,-2.8033 3.5,-4.9049 1.925,-2.1016 3.5,-4.1022 3.5,-4.4459 0,-1.1365 7.43877,-8.6697 11,-11.1396 6.57835,-4.5624 7.79952,-6.2381 8.36914,-11.4842 0.2986,-2.75 1.02667,-7.925 1.61793,-11.5 0.59126,-3.575 1.44801,-10.3785 1.9039,-15.1189 0.45589,-4.7403 1.14544,-9.131 1.53234,-9.757 0.39452,-0.6384 -0.0666,-1.4337 -1.04996,-1.8111 -1.0085,-0.387 -1.9205,-0.1716 -2.14671,0.5071 -0.21632,0.6489 -1.67925,1.1799 -3.25096,1.1799 -1.5717,0 -3.1009,0.3936 -3.3982,0.8746 -1.51222,2.4468 -30.14066,3.2976 -42.07748,1.2504 -3.85,-0.6603 -8.69032,-1.4561 -10.75627,-1.7684 -2.06595,-0.3123 -4.005,-0.9703 -4.30901,-1.4622 -0.30402,-0.4919 -1.62464,-0.8944 -2.93472,-0.8944 -1.31008,0 -2.66008,-0.45 -3,-1 -0.33992,-0.55 -1.49758,-1 -2.57259,-1 -1.075,0 -2.73594,-0.4039 -3.69098,-0.8976 -0.95504,-0.4937 -5.78643,-2.8521 -10.73643,-5.2408 -4.95,-2.3888 -9.15,-4.6848 -9.33333,-5.1024 -0.18334,-0.4176 -0.85834,-0.7598 -1.5,-0.7604 -0.64167,-7e-4 -2.47416,-1.1257 -4.07221,-2.5 -1.59805,-1.3744 -3.29597,-2.4988 -3.77316,-2.4988 -0.47719,0 -5.08738,-4.275 -10.24487,-9.5 -5.1575,-5.225 -9.85187,-9.5 -10.43195,-9.5 -0.58007,0 -3.88738,1.2893 -7.34958,2.865 -10.39034,4.7291 -11.69628,5.135 -16.52096,5.135 -5.03388,0 -10.63443,-1.6308 -13.73743,-4 -2.20594,-1.6843 -6.2161,-5.7037 -15.06449,-15.0993 -8.39386,-8.9129 -20.555919,-14.5504 -26.019649,-12.061 -3.84772,1.7532 -7.27502,1.3992 -9.21216,-0.9513 -0.95711,-1.1614 -2.21532,-2.6239 -2.796,-3.25 -0.58069,-0.6261 -2.15569,-3.1634 -3.5,-5.63843 -1.34432,-2.475 -2.78171,-4.65 -3.19421,-4.8333 -0.4125,-0.1834 -0.75,-0.985 -0.75,-1.7814 0,-2.781 -2.86899,-2.5279 -6.07493,0.5359 -1.77193,1.6933 -3.82996,3.0788 -4.57338,3.0788 -0.74343,0 -1.35169,0.45 -1.35169,1 0,0.55 -0.9,1 -2,1 -1.1,0 -2,0.45 -2,1 0,0.55 -1.035,1 -2.3,1 -1.265,0 -2.83863,0.53863 -3.49695,1.19693 -1.6135,1.6135 -21.44709,1.571 -21.98646,-0.047 -0.21079,-0.6323 -1.02686,-1.14973 -1.81349,-1.14973 -1.58918,0 -5.0979,-1.8311 -7.18586,-3.75 -0.7480497,-0.6875 -1.7063397,-1.25 -2.1295297,-1.25 -1.12821,0 -9.08771004,-7.9867 -9.08771004,-9.1188 0,-0.5307 -0.89999996,-1.9309 -1.99999996,-3.1116 -1.1,-1.1807 -2,-2.7369 -2,-3.4582 0,-0.7213 -0.45,-1.3114 -1,-1.3114 -0.55,0 -1,-0.9 -1,-2 0,-1.1 -0.45,-2 -1,-2 -0.55,0 -1,-0.8735 -1,-1.941 0,-1.0675 -0.45,-2.2191 -1,-2.559 -0.5500003,-0.3399 -1.0000003,-1.6899 -1.0000003,-3 0,-1.3101 -0.45,-2.6601 -1,-3 -0.55,-0.3399 -1,-1.9149 -1,-3.5 0,-1.5851 -0.38397,-3.1193 -0.85327,-3.4093 -2.26554,-1.4002 -3.13151,-24.94548 -1.36416,-37.09072 1.91833,-13.18274 2.39677,-15.4928 3.32792,-16.06829 0.48923,-0.30236 0.88951,-1.42929 0.88951,-2.5043 0,-1.075 0.3991,-2.73594 0.8869003,-3.69098 0.48779,-0.95504 2.39554,-4.77393 4.23945,-8.48643 1.8439,-3.7125 3.6948,-6.75 4.1131,-6.75 0.4183,0 0.76054996,-0.59015 0.76054996,-1.31144 0,-0.72129 0.79973,-2.18379 1.77718004,-3.25 0.97745,-1.06621 2.8686,-3.51356 4.20256,-5.43856 1.33396,-1.925 3.14308,-4.175 4.02026,-5 0.8771797,-0.825 2.6910897,-3.075 4.0308997,-5 1.33981,-1.925 3.90596,-4.9775 5.70256,-6.78333 1.7966,-1.80584 3.26654,-3.68619 3.26654,-4.17857 0,-0.49239 0.5839,-1.48989 1.29755,-2.21667 2.21854,-2.25937 7.70245,-10.62616 7.70245,-11.75161 0,-0.5884 0.45,-1.06982 1,-1.06982 0.55,0 1,-0.9 1,-2 0,-1.1 0.45,-2 1,-2 0.55,0 1,-0.68111 1,-1.51357 0,-0.83246 0.3975,-2.29496 0.88333,-3.25 0.48583,-0.95504 1.43833,-3.08643 2.11667,-4.73643 0.67834,-1.65 1.63084,-3.78139 2.11667,-4.73643 0.48583,-0.95504 0.88333,-2.42364 0.88333,-3.26357 0,-0.83993 0.3975,-2.30853 0.88333,-3.26357 1.18808,-2.33551 2.6629,-6.00277 4.11667,-10.23643 0.66101,-1.925 1.60643,-4.5125 2.10092,-5.75 0.49449,-1.2375 1.28887,-3.2625 1.76528,-4.5 1.44434,-3.75173 3.31677,-8.15098 4.25047,-9.98643 0.48583,-0.95504 0.88333,-2.41754 0.88333,-3.25 0,-0.83246 0.45,-1.51357 1,-1.51357 0.55,0 1,-0.60586 1,-1.34636 0,-0.7405 0.62592,-2.653 1.39094,-4.25 0.76502,-1.597 2.06266,-4.47864 2.88364,-6.40364 0.82099,-1.925 2.44506,-5.6326 3.60906,-8.2391 1.164,-2.60651 2.11636,-5.41901 2.11636,-6.25 0,-0.831 0.45,-1.5109 1,-1.5109 0.55,0 1,-0.68111 1,-1.51357 0,-0.83246 0.3975,-2.29496 0.88333,-3.25 0.48583,-0.95504 1.34098,-2.86143 1.90034,-4.23643 0.55936,-1.375 1.96186,-4.6326 3.11667,-7.2391 1.15481,-2.60651 2.09966,-5.41901 2.09966,-6.25 0,-0.831 0.45,-1.5109 1,-1.5109 0.55,0 1,-0.6799 1,-1.5109 0,-0.83099 0.94485,-3.64349 2.09966,-6.25 1.15481,-2.6065 2.50481,-5.7516 3,-6.9891 0.49519,-1.2375 1.35034,-3.375 1.90034,-4.75 0.55,-1.375 1.45,-3.625 2,-5 0.55,-1.375 1.45,-3.625 2,-5 0.55,-1.375 1.51021,-3.7375 2.1338,-5.25 0.62358,-1.5125 1.57609,-3.875 2.11667,-5.25 0.54058,-1.375 1.38037,-3.28139 1.8662,-4.23643 0.48583,-0.95504 0.88333,-2.64254 0.88333,-3.75 0,-1.10746 0.36865,-2.01357 0.81923,-2.01357 0.45058,0 1.43192,-2.25 2.180769,-5 0.74885,-2.75 1.73019,-5 2.18077,-5 0.45058,0 0.81923,-0.90611 0.81923,-2.01357 0,-1.10746 0.3975,-2.79496 0.88333,-3.75 0.87295,-1.71603 2.29948,-5.11374 3.98287,-9.48643 0.47642,-1.2375 1.37642,-3.4875 2,-5 2.13721,-5.18375 2.93359,-7.25475 4.1338,-10.75 0.66101,-1.925 1.66663,-4.625 2.23472,-6 0.56808,-1.375 1.42266,-3.5125 1.89908,-4.75 0.47641,-1.2375 1.3162,-3.375 1.8662,-4.75 0.55,-1.375 1.45,-3.625 2,-5 0.55,-1.375 1.38979,-3.5125 1.8662,-4.75 0.47642,-1.2375 1.43662,-3.6 2.1338,-5.25 0.69718,-1.65 1.59718,-3.9 2,-5 0.40282,-1.1 1.24262,-3.2375 1.8662,-4.75 0.62359,-1.5125 1.5838,-3.875 2.1338,-5.25 0.55,-1.375 1.40515,-3.5125 1.90034,-4.75 0.49519,-1.2375 1.84519,-4.3826 3,-6.9891 1.15481,-2.60651 2.09966,-5.41901 2.09966,-6.25 0,-0.831 0.45,-1.5109 1,-1.5109 0.55,0 1,-0.68111 1,-1.51357 0,-0.83246 0.3975,-2.29496 0.88333,-3.25 0.48583,-0.95504 1.34098,-2.86143 1.90034,-4.23643 0.55936,-1.375 1.96186,-4.6326 3.11667,-7.2391 1.15481,-2.60651 2.09966,-5.41901 2.09966,-6.25 0,-0.831 0.45,-1.5109 1,-1.5109 0.55,0 1,-0.68111 1,-1.51357 0,-0.83246 0.3975,-2.29496 0.88333,-3.25 0.48583,-0.95504 1.34098,-2.86143 1.90034,-4.23643 0.55936,-1.375 1.96186,-4.6326 3.11667,-7.2391 1.15481,-2.60651 2.09966,-5.41901 2.09966,-6.25 0,-0.831 0.45,-1.5109 1,-1.5109 0.55,0 1,-0.68111 1,-1.51357 0,-0.83246 0.3975,-2.29496 0.88333,-3.25 0.82658,-1.62488 1.66936,-3.61817 4.11667,-9.73643 0.55,-1.375 1.51021,-3.7375 2.1338,-5.25 0.62358,-1.5125 1.46338,-3.65 1.8662,-4.75 0.40282,-1.1 1.1972,-3.125 1.76528,-4.5 0.56809,-1.375 1.57371,-4.075 2.23472,-6 0.66101,-1.925 1.66663,-4.625 2.23472,-6 2.11198,-5.1119 2.66285,-6.59376 3.90332,-10.5 0.69863,-2.2 1.62838,-4.4275 2.0661,-4.95 0.43772,-0.5225 0.79586,-1.95844 0.79586,-3.19098 0,-1.23254 0.45,-2.5191 1,-2.85902 0.55,-0.33992 1,-1.68992 1,-3 0,-1.31008 0.45,-2.66008 1,-3 0.55,-0.33992 1,-1.68992 1,-3 0,-1.31008 0.45,-2.66008 1,-3 0.55,-0.33992 1,-1.49758 1,-2.57259 0,-1.075 0.40614,-2.73594 0.90254,-3.69098 0.49639,-0.95504 1.44025,-3.76143 2.09746,-6.23643 0.65721,-2.475 1.60107,-5.28139 2.09746,-6.23643 0.4964,-0.95504 0.90254,-2.84098 0.90254,-4.19098 0,-1.35001 0.40028,-2.70194 0.88951,-3.0043 0.48923,-0.30237 1.16423,-2.12892 1.5,-4.05902 0.33577,-1.9301 0.88521,-5.08844 1.22098,-7.01854 0.33577,-1.9301 1.01077,-3.75665 1.5,-4.05902 0.48923,-0.30236 0.88951,-2.29663 0.88951,-4.43171 0,-2.13508 0.40247,-4.1307 0.89437,-4.43472 0.4919,-0.30401 1.14403,-2.24306 1.44918,-4.30901 0.30514,-2.06595 1.01324,-6.00627 1.57356,-8.75627 0.56031,-2.75 1.51462,-7.475 2.12069,-10.5 0.60606,-3.025 1.50653,-12.025002 2.00103,-20.000002 1.09953,-17.73267 1.87764,-24.20814 3.05812,-25.45 0.49668,-0.5225 0.90305,-1.80303 0.90305,-2.84563 0,-2.78007 3.84074,-7.70437 6.00908,-7.70437 1.03009,0 2.151,-0.45 2.49092,-1 0.33992,-0.55 1.68992,-1 3,-1 1.31008,0 2.66008,-0.45 3,-1 0.33992,-0.55 1.91492,-1 3.5,-1 1.58508,0 3.12935,-0.40028 3.43171,-0.88951 0.30237,-0.48923 2.01642,-1.12236 3.80902,-1.40696 1.7926,-0.28459 5.05927,-1.04325 7.25927,-1.68591 6.58801,-1.92446 20.45335,-4.85793 26.5,-5.60656 2.475,-0.30642 5.4,-0.95414 6.5,-1.43938 1.1,-0.48523 4.475,-1.1153 7.5,-1.40015 3.025,-0.28485 9.1,-0.97667 13.5,-1.53737 4.4,-0.5607 12.95,-1.48507 19,-2.05416 26.52377,-2.49494 23.96305,-1.14703 24.28557,-12.78348 0.15707,-5.66691 -0.14048,-12.6419095 -0.66121,-15.4999995 -1.03034,-5.65506 -0.23511,-7.69652 2.99808,-7.69652 1.03266,0 1.87756,-0.45 1.87756,-1 0,-0.55 1.09844,-1 2.44098,-1 1.34254,0 2.7191,-0.45 3.05902,-1 0.33992,-0.55 1.91492,-1 3.5,-1 1.58508,0 3.1307,-0.40247 3.43472,-0.89437 0.30401,-0.4919 2.24306,-1.14403 4.30901,-1.44918 2.06595,-0.30514 6.23127,-1.0514105 9.25627,-1.6583805 19.4899,-3.91062 47.8254,-4.40232 58,-1.00644 1.375,0.45892 4.56469,1.40029 7.08821,2.09193 4.23765,1.1614505 4.67697,1.5894105 5.75,5.6013305 0.63898,2.3891 1.16179,8.0265 1.16179,12.52756 0,11.6528195 2.00672,24.5611195 3.94572,25.3809495 7.10293,3.00319 35.14322,6.96368 66.55428,9.40031 17.79222,1.38018 39.67139,4.02831 49.5,5.99119 3.025,0.60412 6.96667,1.35438 8.75927,1.66724 1.7926,0.31286 3.50665,0.96912 3.80902,1.45835 0.30236,0.48923 1.65429,0.88951 3.0043,0.88951 1.35,0 3.23594,0.3975 4.19098,0.88333 0.95504,0.48583 2.86143,1.32193 4.23643,1.858 6.83384,2.66432 14.06683,6.71226 18.33053,10.25867 6.18284,5.1427 9.67816,9.17665 8.9514,10.33082 -0.40491,0.64305 -1.09737,3.86918 -1.53879,7.16918 -0.44142,3.3 -1.23414,8.925 -1.76158,12.5 -4.5996,31.175912 -5.39022,48.821822 -4.01851,89.689432 1.56272,46.55841 2.82447,63.50665 8.0076,107.56057 1.32618,11.27192 2.3903,18.90389 5.96059,42.75 1.64529,10.989 5.5726,33.3464 8.08038,46 0.59951,3.025 1.31769,7.3 1.59596,9.5 0.27826,2.2 0.90249,4.9 1.38717,6 0.48468,1.1 1.10916,3.575 1.38774,5.5 0.27857,1.925 1.00645,5.75 1.61751,8.5 0.61106,2.75 1.33894,6.575 1.61751,8.5 0.27858,1.925 0.89794,4.4 1.37636,5.5 0.86662,1.99258 1.62534,5.61964 2.6684,12.75627 0.30195,2.06595 0.95146,4.005 1.44336,4.30901 0.4919,0.30402 0.89437,2.07464 0.89437,3.93472 0,1.86008 0.45,3.66008 1,4 0.55,0.33992 1,2.13992 1,4 0,1.86008 0.45,3.66008 1,4 0.55,0.33992 1,2.13992 1,4 0,1.86008 0.40028,3.62935 0.88951,3.93171 0.48923,0.30237 1.13213,2.01642 1.42866,3.80902 0.89424,5.40595 1.78597,9.14976 2.68183,11.25927 0.89586,2.10951 1.78759,5.85332 2.68183,11.25927 0.2965,1.7926 0.9394,3.50665 1.4287,3.80902 0.4892,0.30236 0.8895,1.65429 0.8895,3.0043 0,1.35 0.4061,3.23594 0.9025,4.19098 0.4964,0.95504 1.4403,3.76143 2.0975,6.23643 0.6572,2.475 1.601,5.28139 2.0974,6.23643 0.4964,0.95504 0.9026,2.47097 0.9026,3.36873 0,1.80205 3.7169,13.88696 5.1152,16.63127 0.4866,0.95504 0.8848,2.61598 0.8848,3.69098 0,1.07501 0.45,2.23267 1,2.57259 0.55,0.33992 1,1.68992 1,3 0,1.31008 0.45,2.66008 1,3 0.55,0.33992 1,1.68992 1,3 0,1.31008 0.45,2.66008 1,3 0.55,0.33992 1,1.68992 1,3 0,1.31008 0.45,2.66008 1,3 0.55,0.33992 1,1.68992 1,3 0,1.31008 0.45,2.66008 1,3 0.55,0.33992 1,1.68992 1,3 0,1.31008 0.45,2.66008 1,3 0.55,0.33992 1,1.62648 1,2.85902 0,1.23254 0.3581,2.66848 0.7958,3.19098 0.4378,0.5225 1.3675,2.75 2.0661,4.95 1.329,4.18496 2.7638,7.80564 4.2547,10.73643 0.4859,0.95504 0.8834,2.42364 0.8834,3.26357 0,0.83993 0.3975,2.30853 0.8833,3.26357 0.4858,0.95504 1.3858,2.97393 2,4.48643 0.6142,1.5125 1.6269,3.9875 2.2505,5.5 0.6235,1.5125 1.5236,3.7625 2,5 0.4764,1.2375 1.3764,3.4875 2,5 0.6235,1.5125 1.4634,3.65 1.8662,4.75 0.6964,1.90169 1.4581,3.8369 3.7395,9.5 0.5539,1.375 1.9254,4.525 3.0478,7 1.1223,2.475 2.6392,5.9625 3.3708,7.75 1.0472,2.5587 1.9163,3.25 4.086,3.25 1.5158,0 2.7559,0.45 2.7559,1 0,0.55 0.6878,1 1.5285,1 1.9208,0 13.8551,5.94422 14.3048,7.12492 0.1834,0.48129 0.9491,0.87508 1.7016,0.87508 1.7837,0 16.4651,14.68142 16.4651,16.46502 0,0.7526 0.3375,1.5183 0.75,1.7017 1.0802,0.48 5.25,8.7623 5.25,10.4278 0,0.773 0.45,1.4055 1,1.4055 0.55,0 1,1.26 1,2.8 0,1.54 0.4216,3.2275 0.937,3.75 1.5174,1.5384 2.3068,22.2641 1.1599,30.45 -1.7307,12.35203 -2.2745,14.99173 -3.2074,15.56833 -0.4892,0.3023 -0.8895,1.4293 -0.8895,2.5043 0,1.075 -0.5203,2.9609 -1.1561,4.191 -2.4119,4.6654 -2.8439,5.7501 -2.8439,7.1395 0,0.7866 -0.3375,1.5802 -0.75,1.7636 -0.4125,0.1833 -1.8332,2.4708 -3.1572,5.0833 -1.324,2.6125 -2.7865,4.75 -3.25,4.75 -0.4635,0 -0.8428,0.5901 -0.8428,1.3114 0,0.7213 -0.7997,2.1838 -1.7772,3.25 -0.9774,1.0662 -2.8847,3.5136 -4.2384,5.4386 -3.1674,4.5041 -11.4958,12.8295 -15.9844,15.9786 -1.925,1.3506 -4.0946,3.0329 -4.8214,3.7385 -0.7268,0.7056 -1.7072,1.2829 -2.1786,1.2829 -0.4714,0 -1.4518,0.5676 -2.1786,1.2613 -0.7268,0.6937 -4.4714,2.766 -8.3214,4.6051 -3.85,1.839 -7.7814,3.7464 -8.7365,4.2387 -0.955,0.4922 -2.6159,0.8949 -3.6909,0.8949 -1.075,0 -2.2033,0.4025 -2.5073,0.8944 -1.0286,1.6642 -8.9983,2.3588 -27.0653,2.3588 -18.06196,0 -26.18106,-0.6843 -27.95003,-2.3556 -0.5225,-0.4937 -2.345,-0.8976 -4.05,-0.8976 -1.705,0 -3.5275,-0.3582 -4.05,-0.7959 -0.5225,-0.4377 -2.75,-1.3674 -4.95,-2.0661 -4.18496,-1.329 -7.80564,-2.7638 -10.73643,-4.2547 -0.95504,-0.4858 -2.41754,-0.8833 -3.25,-0.8833 -0.83246,0 -1.51357,-0.45 -1.51357,-1 0,-0.55 -0.9,-1 -2,-1 -1.1,0 -2,-0.3975 -2,-0.8834 0,-0.4858 -0.7875,-1.1331 -1.75,-1.4383 -2.23455,-0.7087 -7.55643,-3.9125 -8.38161,-5.0458 -0.50887,-0.6989 -5.66282,2.1619 -7.86839,4.3675 -1.34501,1.345 -9.41193,5 -11.03548,5 -1.01557,0 -2.09522,0.4025 -2.39924,0.8944 -0.92494,1.4965 -8.44805,2.3365 -21.06528,2.3519 -12.2965,0.015 -19.09591,-0.7835 -20.06829,-2.3568 -0.30236,-0.4892 -1.64819,-0.8895 -2.99073,-0.8895 -1.34254,0 -2.44098,-0.45 -2.44098,-1 0,-0.55 -0.80066,-1 -1.77924,-1 -0.97858,0 -2.42792,-0.9 -3.22076,-2 -0.79284,-1.1 -1.90468,-1.9937 -2.47076,-1.986 -0.56608,0.01 -4.1127,2.9327 -7.88138,6.5 -3.76868,3.5673 -7.23573,6.486 -7.70455,6.486 -0.46882,0 -1.88536,1.0125 -3.14786,2.25 -1.2625,1.2375 -3.53295,2.8885 -5.04545,3.669 -1.5125,0.7804 -2.75,1.7929 -2.75,2.25 0,0.457 -0.8625,0.831 -1.91667,0.831 -1.05416,0 -2.06666,0.3375 -2.25,0.75 -0.4801,1.0802 -8.76233,5.25 -10.42783,5.25 -0.77303,0 -1.4055,0.45 -1.4055,1 0,0.55 -1.09844,1 -2.44098,1 -1.34254,0 -2.7191,0.45 -3.05902,1 -0.33992,0.55 -1.68992,1 -3,1 -1.31008,0 -2.66008,0.45 -3,1 -0.33992,0.55 -1.97106,1 -3.62476,1 -1.6537,0 -3.82734,0.4392 -4.83031,0.9759 -1.00298,0.5368 -8.06089,1.2155 -15.68426,1.5082 -13.86067,0.5322 -13.86067,0.5322 -14.18351,3.6512 -0.17757,1.7155 0.15993,3.6018 0.75,4.1918 0.59006,0.5901 1.07856,1.9954 1.08554,3.1229 0.0155,2.5039 7.47224,17.3295 9.80416,19.4928 0.92573,0.8588 2.78031,3.1354 4.12129,5.0593 1.34098,1.9238 6.28906,7.0979 10.99572,11.4979 16.53625,15.4588 27.06613,26.8018 27.06613,29.1561 0,0.6475 0.3375,1.3272 0.75,1.5106 0.76655,0.3406 4.6066,7.9096 5.63455,11.106 0.31355,0.9749 1.36779,2.0356 2.34277,2.357 5.84389,1.9265 21.45693,9.5545 23.27268,11.3703 0.275,0.275 1.5125,1.0625 2.75,1.75 1.2375,0.6875 3.2625,1.8125 4.5,2.5 1.2375,0.6875 2.5572,1.6775 2.93266,2.2 0.61251,0.8525 8.81734,-7.0981 8.81734,-8.544 0,-0.3272 1.12445,-1.9024 2.49878,-3.5005 1.37433,-1.598 2.49933,-3.468 2.5,-4.1555 6.7e-4,-0.6875 0.45122,-1.25 1.00122,-1.25 0.55,0 1,-0.9 1,-2 0,-1.1 0.45,-2 1,-2 0.55,0 1,-0.493 1,-1.0956 0,-0.6026 0.9664,-2.4529 2.14756,-4.1116 2.05108,-2.8805 2.388,-2.9885 7.5,-2.4044 2.94384,0.3364 7.83575,0.893 10.8709,1.2369 3.03515,0.344 5.76171,1.019 6.05902,1.5 0.2973,0.4811 1.639,0.8747 2.98154,0.8747 1.34254,0 2.44098,0.45 2.44098,1 0,0.55 0.68111,1 1.51357,1 1.38964,0 5.29655,1.8079 6.48643,3.0016 0.275,0.2759 1.70782,1.1235 3.18405,1.8837 3.3177,1.7083 5.24727,6.1064 4.4315,10.1007 -0.33855,1.6577 -0.89162,4.364 -1.22905,6.014 -0.33742,1.65 -1.01242,3 -1.5,3 -0.48757,0 -0.8865,0.6811 -0.8865,1.5136 0,0.8324 -0.39476,2.2949 -0.87724,3.25 -2.00313,3.965 -3.12276,9.2198 -3.12276,14.6562 0,5.1518 0.33057,6.0866 3.05092,8.6278 1.678,1.5675 3.928,3.1283 5,3.4686 1.07199,0.3402 1.94908,1.0383 1.94908,1.5512 0,0.5129 0.63375,0.9326 1.40834,0.9326 1.51692,0 18.59166,16.3015 18.59166,17.7497 0,0.4803 0.7875,1.7646 1.75,2.8542 2.22103,2.51426 5.20773,7.37396 5.92828,9.64606 0.30524,0.9625 0.9525,1.75 1.43835,1.75 0.48585,0 0.88337,0.9 0.88337,2 0,1.1 0.45,2 1,2 0.55,0 1,0.9 1,2 0,1.1 0.45,2 1,2 0.55,0 1,0.6811 1,1.5136 0,0.8324 0.3975,2.2949 0.88333,3.25 0.48583,0.955 1.32562,2.8614 1.8662,4.2364 1.72397,4.385 3.45731,8.4479 4.36714,10.2364 0.48583,0.9551 0.88333,2.616 0.88333,3.691 0,1.075 0.45,2.2327 1,2.5726 0.55,0.3399 1,1.6899 1,3 0,1.3101 0.45,2.6601 1,3 0.55,0.3399 1,1.9149 1,3.5 0,1.5851 0.45,3.1601 1,3.5 2.39663,1.4812 0.46719,4.8572 -7.25,12.6854 -4.5375,4.6027 -9.825,9.4601 -11.75,10.7942 -1.925,1.334 -4.22778,3.2344 -5.1173,4.223 -0.88951,0.9886 -2.01451,1.7979 -2.5,1.7986 -0.48548,7e-4 -2.19019,1.1257 -3.78824,2.5 -1.59805,1.3743 -3.2534,2.4988 -3.67857,2.4988 -0.42517,0 -1.38508,0.5625 -2.13313,1.25 -0.74805,0.6875 -2.2427,1.7422 -3.32143,2.3439 -5.75928,3.212 -7.00508,3.9522 -7.46133,4.433 -1.02667,1.0818 -21.54918,10.9868 -22.75,10.9801 -0.6875,0 -1.25,0.443 -1.25,0.993 0,0.55 -0.69674,1 -1.54831,1 -0.85156,0 -3.41109,0.9 -5.68783,2 -2.27673,1.1 -4.92844,2 -5.89267,2 -0.96424,0 -1.9762,0.3609 -2.2488,0.802 -0.27261,0.4411 -2.80268,1.4302 -5.62239,2.198 -2.81971,0.7678 -5.34978,1.7569 -5.62239,2.198 -0.2726,0.4411 -1.79253,0.802 -3.37761,0.802 -1.58508,0 -3.16008,0.45 -3.5,1 -0.33992,0.55 -1.68992,1 -3,1 -1.31008,0 -2.66008,0.45 -3,1 -0.33992,0.55 -2.13992,1 -4,1 -1.86008,0 -3.62935,0.4003 -3.93171,0.8895 -0.30237,0.4892 -2.01642,1.1429 -3.80902,1.4526 -1.7926,0.3096 -4.83427,0.84 -6.75927,1.1786 -1.925,0.3386 -4.4,1.007 -5.5,1.4854 -1.1,0.4784 -3.575,1.104 -5.5,1.3902 -1.925,0.2862 -5.975,1.0123 -9,1.6135 -9.39129,1.8665 -27.74119,4.4915 -42,6.0082 -18.52847,1.9708 -73.14514,4.6089 -74.10988,3.5796 z m 70.10988,-17.5105 c 5.225,-0.5853 12.425,-1.4911 16,-2.0127 3.575,-0.5217 8.975,-1.233 12,-1.5807 3.025,-0.3478 6.4,-1.0256 7.5,-1.5062 1.1,-0.4807 3.9125,-1.1245 6.25,-1.4307 9.65106,-1.2643 12.29006,-1.8126 12.81528,-2.6624 0.30402,-0.4919 2.29964,-0.8944 4.43472,-0.8944 2.13508,0 4.16008,-0.45 4.5,-1 0.33992,-0.55 1.57203,-1 2.73802,-1 2.25157,0 8.10928,-1.6632 10.99841,-3.1228 0.95504,-0.4824 2.84098,-0.8772 4.19098,-0.8772 1.35001,0 2.73267,-0.45 3.07259,-1 0.33992,-0.55 1.68992,-1 3,-1 1.31008,0 2.66008,-0.45 3,-1 0.33992,-0.55 1.49758,-1 2.57259,-1 1.075,0 2.73594,-0.3975 3.69098,-0.8833 0.95504,-0.4859 2.86143,-1.3257 4.23643,-1.8662 1.375,-0.5406 3.7375,-1.4931 5.25,-2.1167 1.5125,-0.6236 3.7625,-1.5307 5,-2.0157 3.37128,-1.3215 24.17399,-11.4843 24.75,-12.0912 0.275,-0.2898 1.4,-1.0191 2.5,-1.6208 5.02649,-2.7491 7.0387,-4.0297 8.88764,-5.6561 1.09422,-0.9625 2.57963,-1.75 3.30092,-1.75 0.72129,0 1.31144,-0.374 1.31144,-0.831 0,-0.4571 1.2375,-1.4696 2.75,-2.25 1.5125,-0.7805 3.78295,-2.4315 5.04545,-3.669 1.2625,-1.2375 2.70298,-2.25 3.20106,-2.25 1.27697,0 15.00349,-13.6792 15.00349,-14.9517 0,-1.5076 -1.61513,-1.2903 -3.35714,0.4517 -0.825,0.825 -2.20715,1.5 -3.07143,1.5 -0.86429,0 -1.57143,0.3737 -1.57143,0.8304 0,0.4567 -5.7375,3.6398 -12.75,7.0736 -7.0125,3.4338 -13.53139,6.6601 -14.48643,7.1696 -0.95504,0.5095 -2.41754,0.9264 -3.25,0.9264 -0.83246,0 -1.51357,0.45 -1.51357,1 0,0.55 -0.6799,1 -1.5109,1 -0.83099,0 -3.41849,0.8622 -5.75,1.9159 -2.3315,1.0538 -6.0391,2.4956 -8.2391,3.2042 -2.2,0.7085 -4.4275,1.6463 -4.95,2.084 -0.5225,0.4378 -1.95844,0.7959 -3.19098,0.7959 -1.23254,0 -2.5191,0.45 -2.85902,1 -0.33992,0.55 -1.49758,1 -2.57259,1 -1.075,0 -2.73594,0.3981 -3.69098,0.8848 -3.05165,1.5549 -14.9249,5.1152 -17.05868,5.1152 -1.13285,0 -2.3071,0.4003 -2.60946,0.8895 -0.30237,0.4892 -2.01642,1.1317 -3.80902,1.4278 -1.7926,0.296 -5.28427,1.0453 -7.75927,1.6651 -7.14147,1.7885 -13.218,3.0878 -17,3.6351 -1.925,0.2786 -4.4,0.9031 -5.5,1.3878 -1.1,0.4846 -4.025,1.1427 -6.5,1.4624 -2.475,0.3197 -7.3125,1.0203 -10.75,1.5568 -14.70021,2.2944 -20.28113,3.053 -29.25,3.9755 -58.21009,5.9878 -114.53437,4.004 -170.5,-6.0052 -3.3,-0.5902 -7.8,-1.3265 -10,-1.6364 -2.2,-0.3098 -4.4275,-0.9672 -4.95,-1.4608 -0.5225,-0.4937 -2.63344,-0.8976 -4.69098,-0.8976 -2.05754,0 -3.98972,-0.4025 -4.29374,-0.8944 -0.30401,-0.4919 -2.24306,-1.1496 -4.30901,-1.4616 -8.77315,-1.3249 -11.30562,-1.9148 -11.82456,-2.7545 -0.30236,-0.4892 -1.84663,-0.8895 -3.43171,-0.8895 -1.58508,0 -3.16008,-0.45 -3.5,-1 -0.33992,-0.55 -1.68992,-1 -3,-1 -1.31008,0 -2.66008,-0.45 -3,-1 -0.33992,-0.55 -1.85148,-1 -3.35902,-1 -1.50754,0 -3.16848,-0.3581 -3.69098,-0.7959 -0.5225,-0.4377 -2.75,-1.3674 -4.95,-2.0661 -2.2,-0.6986 -5.0125,-1.6905 -6.25,-2.2041 -7.21297,-2.9939 -11.21666,-4.6138 -14.75,-5.968 -1.1,-0.4216 -4.1326,-1.7114 -6.7391,-2.8662 -2.60651,-1.1549 -5.41901,-2.0997 -6.25,-2.0997 -0.831,0 -1.5109,-0.45 -1.5109,-1 0,-0.55 -0.59048,-1 -1.31217,-1 -1.30548,0 -6.69865,-2.3245 -14.03233,-6.048 -2.11448,-1.0736 -4.47698,-1.952 -5.25,-1.952 -0.77303,0 -1.4055,-0.45 -1.4055,-1 0,-0.55 -0.63247,-1 -1.4055,-1 -1.32588,0 -2.82587,-0.6548 -13.439,-5.8666 -2.38948,-1.1734 -4.97698,-2.1334 -5.75,-2.1334 -0.77303,0 -1.4055,-0.45 -1.4055,-1 0,-0.55 -0.63247,-1 -1.4055,-1 -0.77302,0 -3.36052,-0.9639 -5.75,-2.142 -2.38947,-1.1781 -5.2445,-2.4679 -6.3445,-2.8662 -1.1,-0.3983 -3.35,-1.2946 -5,-1.9918 -3.02352,-1.2775 -5.90249,-2.443 -10.5,-4.2505 -1.375,-0.5405 -3.28139,-1.3803 -4.236429,-1.8662 -0.95504,-0.4858 -2.61598,-0.8833 -3.69098,-0.8833 -1.07501,0 -2.19946,-0.3963 -2.4988,-0.8806 -0.69658,-1.1271 -5.54395,-2.0681 -7.26041,-1.4094 -1.94303,0.7456 -1.61605,5.2405 0.43662,6.002 0.9625,0.357 2.47778,1.4679 3.3673,2.4686 0.88951,1.0007 2.01451,1.8205 2.5,1.8217 0.48548,0 2.4577,1.3503 4.3827,2.9977 1.925,1.6474 3.856319,2.9964 4.291809,2.9977 0.4355,0 1.75785,0.9023 2.93856,2.0023 1.18072,1.1 2.7369,2 3.45819,2 0.72129,0 1.31144,0.3954 1.31144,0.8787 0,0.4833 1.35,1.4378 3,2.1213 1.65,0.6835 3.007,1.5255 3.01555,1.8713 0.009,0.3458 2.25855,1.7297 5,3.0755 2.74145,1.3457 4.98445,2.8082 4.98445,3.25 0,0.4417 0.9,0.8032 2,0.8032 1.1,0 2,0.45 2,1 0,0.55 0.8625,1 1.91667,1 1.05416,0 2.06666,0.3736 2.25,0.8302 0.45193,1.1255 20.59149,11.1698 22.3963,11.1698 0.79036,0 1.43703,0.45 1.43703,1 0,0.55 0.9,1 2,1 1.1,0 2,0.45 2,1 0,0.55 0.68111,1 1.51357,1 0.83246,0 2.29496,0.3975 3.25,0.8833 1.96644,1.0004 6.75266,3.024 9.73643,4.1167 2.98377,1.0927 7.76999,3.1163 9.73643,4.1167 0.95504,0.4858 2.42364,0.8833 3.26357,0.8833 0.83993,0 2.53353,0.5203 3.76357,1.1561 4.80255,2.4827 5.77589,2.8439 7.66384,2.8439 1.07501,0 2.23267,0.45 2.57259,1 0.33992,0.55 1.68992,1 3,1 1.31008,0 2.66008,0.45 3,1 0.33992,0.55 1.91492,1 3.5,1 1.58508,0 3.16008,0.45 3.5,1 0.33992,0.55 1.68992,1 3,1 1.31008,0 2.66008,0.45 3,1 0.33992,0.55 1.91492,1 3.5,1 1.58508,0 3.16008,0.45 3.5,1 0.33992,0.55 2.13992,1 4,1 1.86008,0 3.62935,0.4003 3.93171,0.8895 0.30237,0.4892 2.01642,1.1429 3.80902,1.4526 1.7926,0.3096 4.83427,0.84 6.75927,1.1786 1.925,0.3386 4.4,1.0043 5.5,1.4793 1.1,0.475 3.575,1.1364 5.5,1.4697 1.925,0.3333 5.75,1.0566 8.5,1.6074 2.75,0.5507 7.25,1.416 10,1.9229 2.75,0.5069 7.475,1.3946 10.5,1.9728 15.66534,2.9942 45.15874,6.672 63.24029,7.8861 6.45716,0.4336 12.04752,1.0956 12.42304,1.4711 1.03341,1.0334 69.46885,-0.025 80.33667,-1.2429 z m -6,-24.007 c 12.47704,-1.4088 22.1189,-2.7404 29.5,-4.0742 3.3,-0.5963 7.8,-1.3171 10,-1.6018 2.2,-0.2847 4.9,-0.9142 6,-1.3988 1.1,-0.4847 3.8,-1.1515 6,-1.4817 2.2,-0.3302 5.69032,-0.8556 7.75627,-1.1676 2.06595,-0.312 4.005,-0.9697 4.30901,-1.4616 0.30402,-0.4919 2.07464,-0.8944 3.93472,-0.8944 1.86008,0 3.66008,-0.45 4,-1 0.33992,-0.55 1.91492,-1 3.5,-1 1.58508,0 3.16008,-0.45 3.5,-1 0.33992,-0.55 1.91492,-1 3.5,-1 1.58508,0 3.16008,-0.45 3.5,-1 0.33992,-0.55 1.68992,-1 3,-1 1.31008,0 2.66008,-0.45 3,-1 0.33992,-0.55 1.68992,-1 3,-1 1.31008,0 2.66008,-0.45 3,-1 0.33992,-0.55 1.49758,-1 2.57259,-1 1.075,0 2.73594,-0.3975 3.69098,-0.8833 1.62488,-0.8266 3.61817,-1.6694 9.73643,-4.1167 6.11826,-2.4473 8.11155,-3.2901 9.73643,-4.1167 0.95504,-0.4858 2.41754,-0.8833 3.25,-0.8833 0.83246,0 1.51357,-0.45 1.51357,-1 0,-0.55 0.5625,-0.9963 1.25,-0.9917 1.58156,0.01 18.13522,-8.2284 18.58333,-9.2491 0.18334,-0.4176 1.19584,-0.7592 2.25,-0.7592 1.05417,0 1.91667,-0.3975 1.91667,-0.8834 0,-0.4858 0.7875,-1.1331 1.75,-1.4383 1.71655,-0.5444 7.26509,-3.6918 8.25,-4.6799 0.275,-0.2759 1.7375,-1.1394 3.25,-1.919 1.5125,-0.7795 2.75,-1.7913 2.75,-2.2484 0,-0.457 0.52002,-0.831 1.15561,-0.831 0.63558,0 2.61002,-1.1093 4.38764,-2.4652 3.19656,-2.4381 3.22645,-2.5397 2.72323,-9.25 -0.27985,-3.7316 -0.90429,-7.2123 -1.38765,-7.7348 -0.48335,-0.5225 -0.87883,-1.9584 -0.87883,-3.191 0,-1.2325 -0.45,-2.5191 -1,-2.859 -0.55,-0.3399 -1,-1.4915 -1,-2.559 0,-1.0676 -0.45,-1.941 -1,-1.941 -0.55,0 -1,-0.9 -1,-2 0,-1.1 -0.45,-2 -1,-2 -0.55,0 -1,-0.6227 -1,-1.3838 0,-2.1025 -11.9337,-13.80786 -16.75168,-16.43106 -4.25168,-2.315 -4.25168,-2.315 -9.12104,2.6842 -2.67815,2.74956 -7.05427,6.02616 -9.72472,7.28146 -9.28154,4.3628 -28.34311,2.1876 -37.55693,-4.2859 -1.4599,-1.02566 -2.99618,-1.86486 -3.41394,-1.86486 -1.41046,0 -15.43169,-14.996 -15.43169,-16.5046 0,-0.8225 -0.45,-1.4954 -1,-1.4954 -0.55,0 -1,-0.8734 -1,-1.941 0,-1.0675 -0.45,-2.2191 -1,-2.559 -1.18009,-0.7293 -1.36837,-11.5 -0.20103,-11.5 0.43944,0 1.90194,-1.7879 3.25,-3.9731 1.34807,-2.1852 2.78853,-3.9852 3.20103,-4 1.23717,-0.044 0.84672,-3.0731 -0.58012,-4.4999 -2.16148,-2.1615 -13.30189,-7.574 -21.66988,-10.5281 -1.925,-0.6796 -5.431,-2.0934 -7.79111,-3.1417 -4.29111,-1.9061 -4.29111,-1.9061 -9,2.896 -2.58989,2.6411 -6.28389,5.8929 -8.20889,7.2262 -1.925,1.3333 -3.725,2.6926 -4,3.0206 -0.275,0.328 -2.075,1.678 -4,3 -1.925,1.322 -3.725,2.6503 -4,2.9518 -0.275,0.3015 -1.5125,1.1107 -2.75,1.7982 -1.2375,0.6875 -3.2625,1.8125 -4.5,2.5 -1.2375,0.6875 -2.475,1.475 -2.75,1.75 -0.77672,0.7767 -4.54728,2.8124 -11.3078,6.1048 -3.40571,1.6587 -6.97359,3.4386 -7.92863,3.9555 -0.95504,0.5168 -2.41754,0.9397 -3.25,0.9397 -0.83246,0 -1.51582,0.3375 -1.51858,0.75 -0.003,0.4125 -3.49025,1.8334 -7.75,3.1576 -4.25974,1.3242 -8.17249,2.7867 -8.69499,3.25 -0.5225,0.4633 -2.18344,0.8424 -3.69098,0.8424 -1.50754,0 -3.0191,0.45 -3.35902,1 -0.33992,0.55 -2.13992,1 -4,1 -1.86008,0 -3.66008,0.45 -4,1 -0.33992,0.55 -2.52648,1 -4.85902,1 -2.33254,0 -4.66848,0.4044 -5.19098,0.8987 -1.4662,1.3871 -14.28841,2.3387 -32.45,2.4083 -15.80918,0.061 -26.70925,-0.8998 -37.5,-3.304 -2.75,-0.6127 -6.46667,-1.3638 -8.25927,-1.669 -1.7926,-0.3052 -3.50665,-0.9553 -3.80902,-1.4445 -0.30236,-0.4892 -1.84663,-0.8895 -3.43171,-0.8895 -1.58508,0 -3.16008,-0.45 -3.5,-1 -0.33992,-0.55 -1.71648,-1 -3.05902,-1 -1.34254,0 -2.44098,-0.45 -2.44098,-1 0,-0.55 -0.88631,-1 -1.96958,-1 -1.08327,0 -3.57196,-0.9 -5.53042,-2 -1.95846,-1.1 -4.22215,-2 -5.03042,-2 -0.80827,0 -1.46958,-0.45 -1.46958,-1 0,-0.55 -0.9,-1 -2,-1 -1.1,0 -2,-0.45 -2,-1 0,-0.55 -0.59015,-1 -1.31144,-1 -0.72129,0 -2.18416,-0.7875 -3.25081,-1.75 -1.06666,-0.9625 -3.70444,-3.0698 -5.86174,-4.683 -2.15729,-1.6131 -9.38599,-8.3966 -16.06377,-15.0744 -18.15405,-18.154 -22.91609,-21.0002 -33.66034,-20.1176 -12.0876,0.9928 -17.2981,1.7677 -18.3019,2.7219 -0.5225,0.4967 -2.18344,0.9031 -3.69098,0.9031 -1.50754,0 -2.96403,0.3609 -3.23663,0.802 -0.27261,0.441 -2.77417,1.4224 -5.55902,2.1807 -2.78485,0.7584 -5.06337,1.7475 -5.06337,2.1981 0,0.4505 -0.63619,0.8192 -1.41377,0.8192 -1.34976,0 -13.54229,5.8148 -14.58623,6.9564 -0.275,0.3007 -1.7375,1.1846 -3.25,1.9642 -1.5125,0.7795 -2.75,1.7913 -2.75,2.2484 0,0.457 -0.59015,0.831 -1.31144,0.831 -0.72129,0 -2.20073,0.7875 -3.28764,1.75 -1.08691,0.9625 -3.43425,2.7852 -5.2163,4.0504 -8.68814,6.1685 -26.28353,23.8182 -32.24225,32.3417 -1.29112,1.8468 -3.15634,4.0857 -4.14493,4.9752 -0.98859,0.8895 -1.7985,2.0145 -1.79979,2.5 -10e-4,0.4855 -1.35023,2.4577 -2.99765,4.38266 -1.647419,1.925 -2.996359,4.0625 -2.997649,4.75 -10e-4,0.6875 -0.39776,1.25 -0.88103,1.25 -0.48327,0 -1.43787,1.35 -2.12132,3 -0.68345,1.65 -1.63805,3 -2.12132,3 -0.48327,0 -0.87868,0.9 -0.87868,2 0,1.1 -0.45,2 -1,2 -0.55,0 -1,0.9 -1,2 0,1.3333 0.66667,2 2,2 1.1,0 2,0.45 2,1 0,0.55 0.9,1 2,1 1.1,0 2,0.45 2,1 0,0.55 0.9,1 2,1 1.099999,0 1.999999,0.45 1.999999,1 0,0.55 0.9,1 2,1 1.1,0 2,0.45 2,1 0,0.55 0.9,1 2,1 1.1,0 2,0.45 2,1 0,0.55 0.9,1 2,1 1.1,0 2,0.45 2,1 0,0.55 0.9,1 2,1 1.1,0 2,0.45 2,1 0,0.55 0.5692,1 1.26489,1 1.18194,0 9.22183,3.5833 18.07961,8.0579 2.11448,1.0682 4.47698,1.9421 5.25,1.9421 0.77303,0 1.4055,0.45 1.4055,1 0,0.55 0.68111,1 1.51357,1 0.83246,0 2.40746,0.45 3.5,1 1.09254,0.55 2.88032,1.45 3.97286,2 1.09254,0.55 2.66754,1 3.5,1 0.83246,0 1.51357,0.45 1.51357,1 0,0.55 0.68111,1 1.51357,1 0.83246,0 2.29496,0.3975 3.25,0.8833 0.95504,0.4859 2.86143,1.3257 4.23643,1.8662 1.375,0.5406 3.85,1.5533 5.5,2.2505 1.65,0.6972 3.9,1.5972 5,2 2.5525,0.9347 6.31194,2.4386 9.5,3.8001 1.375,0.5872 4.3,1.6393 6.5,2.3379 2.2,0.6987 4.4275,1.6284 4.95,2.0661 0.5225,0.4378 1.985,0.7959 3.25,0.7959 1.265,0 2.3,0.45 2.3,1 0,0.55 1.035,1 2.3,1 1.265,0 2.7275,0.3718 3.25,0.8261 0.5225,0.4544 2.975,1.3982 5.45,2.0975 2.475,0.6992 5.28139,1.6775 6.23643,2.1739 0.95504,0.4964 2.61598,0.9025 3.69098,0.9025 1.07501,0 2.23267,0.45 2.57259,1 0.33992,0.55 1.72258,1 3.07259,1 1.35,0 3.23594,0.4061 4.19098,0.9025 0.95504,0.4964 3.76143,1.4477 6.23643,2.114 2.475,0.6663 5.4,1.5763 6.5,2.0222 2.13924,0.8671 5.99609,1.7725 11.25927,2.6431 1.7926,0.2966 3.50665,0.9395 3.80902,1.4287 0.30236,0.4892 2.07163,0.8895 3.93171,0.8895 1.86008,0 3.6307,0.4025 3.93472,0.8944 0.30401,0.4919 2.24306,1.1378 4.30901,1.4353 2.06595,0.2975 6.00627,1.0407 8.75627,1.6515 21.98848,4.8841 42.67368,8.1079 63.27558,9.8618 5.65157,0.4812 10.58512,1.1844 10.96344,1.5627 1.03504,1.035 69.34608,-0.093 80.26098,-1.3256 z M 564.5461,997.70454 c 3.81169,-2.026 8.16622,-7.5634 9.50002,-12.0807 0.70939,-2.4025 1.15355,-7.2486 0.98702,-10.7691 -0.30177,-6.3794 -0.31615,-6.4072 -4.30278,-8.3319 -6.85659,-3.3102 -8.99831,-3.9727 -17.25927,-5.3392 -1.7926,-0.2966 -3.50665,-0.9395 -3.80902,-1.4287 -0.30236,-0.4892 -1.84663,-0.8895 -3.43171,-0.8895 -1.58508,0 -3.16008,-0.45 -3.5,-1 -0.33992,-0.55 -1.40695,-1 -2.37119,-1 -0.96423,0 -3.61594,-0.9 -5.89267,-2 -2.27674,-1.1 -4.74119,-2 -5.47655,-2 -1.7195,0 -7.75959,9.9258 -7.75959,12.7515 0,1.1849 -0.50473,3.2621 -1.12161,4.6161 -0.86078,1.8892 -0.80401,3.1791 0.24411,5.547 0.75115,1.697 1.70587,3.0854 2.12161,3.0854 0.41574,0 0.75589,0.6207 0.75589,1.3794 0,1.8476 7.26974,9.2541 9.90389,10.0901 1.15286,0.3659 2.09611,1.008 2.09611,1.427 0,0.4189 2.3625,1.7895 5.25,3.0458 2.8875,1.2563 5.925,2.6567 6.75,3.1121 2.27834,1.2576 14.83833,1.1014 17.31574,-0.2153 z m -184.31574,-18.7464 c 3.575,-0.574 8.525,-1.3258 11,-1.6706 2.475,-0.3448 4.9275,-1.0309 5.45,-1.5245 0.5225,-0.4937 2.18344,-0.8976 3.69098,-0.8976 1.50754,0 3.0191,-0.45 3.35902,-1 0.33992,-0.55 1.91492,-1 3.5,-1 1.58508,0 3.10501,-0.3609 3.37761,-0.802 0.27261,-0.4411 2.77417,-1.4224 5.55902,-2.1807 2.78485,-0.7584 5.06337,-1.7475 5.06337,-2.1981 0,-0.4505 0.63619,-0.8192 1.41377,-0.8192 1.34784,0 13.53878,-5.8127 14.58623,-6.9548 0.275,-0.2999 1.5125,-1.1077 2.75,-1.7952 5.70577,-3.1699 6.78768,-3.8919 8.99015,-6 1.29292,-1.2375 2.77305,-2.25 3.28918,-2.25 1.39831,0 15.45811,-14.3237 17.57142,-17.9013 1.00676,-1.7043 2.18344,-3.0987 2.61486,-3.0987 1.56065,0 0.73628,-6.0252 -1.32985,-9.7196 -2.85013,-5.0962 -11.36865,-13.3369 -16.88576,-16.335 -2.475,-1.345 -4.65,-2.7829 -4.83333,-3.1954 -0.18334,-0.4125 -1.43062,-0.75 -2.77174,-0.75 -1.62231,0 -4.27917,1.8407 -7.93841,5.5 -3.025,3.025 -5.91976,5.5 -6.4328,5.5 -0.51305,0 -2.05781,1.125 -3.43281,2.5 -1.375,1.375 -3.19546,2.5 -4.04546,2.5 -0.85,0 -1.54545,0.3422 -1.54545,0.7605 0,0.7232 -10.67682,6.3861 -16,8.4864 -1.375,0.5426 -3.28139,1.3839 -4.23643,1.8698 -0.95504,0.4858 -2.61598,0.8833 -3.69098,0.8833 -1.07501,0 -2.20194,0.4003 -2.5043,0.8895 -0.30237,0.4892 -2.01642,1.1471 -3.80902,1.462 -1.7926,0.3149 -6.18427,1.1218 -9.75927,1.7931 -8.38555,1.5747 -34.61445,1.5747 -43,0 -3.575,-0.6713 -7.96667,-1.4782 -9.75927,-1.7931 -1.7926,-0.3149 -3.50665,-0.9728 -3.80902,-1.462 -0.30236,-0.4892 -1.65429,-0.8895 -3.0043,-0.8895 -1.35,0 -3.23594,-0.3975 -4.19098,-0.8833 -0.95504,-0.4859 -2.86143,-1.3387 -4.23643,-1.8952 -7.06249,-2.8586 -18.85123,-8.9426 -20,-10.3218 -0.275,-0.3302 -1.51731,-1.1361 -2.76069,-1.7909 -3.91305,-2.0609 -13.3253,-10.8038 -18.73931,-17.4068 -1.65,-2.0123 -3.57685,-3.6685 -4.28188,-3.6804 -1.47421,-0.025 -21.57353,19.915 -25.85138,25.6463 -1.57317,2.1076 -4.09926,5.0251 -5.61352,6.4833 -2.58442,2.4887 -3.71551,5.8488 -1.96883,5.8488 0.43142,0 1.61025,1.398 2.61963,3.1068 2.01916,3.4181 20.12295,21.8932 21.45326,21.8932 0.4574,0 2.13913,1.1244 3.73718,2.4988 1.59805,1.3743 3.43054,2.4993 4.07221,2.5 0.64166,6e-4 1.31666,0.374 1.5,0.8297 0.18333,0.4557 4.38333,2.7607 9.33333,5.1224 4.95,2.3616 9.78139,4.6888 10.73643,5.1715 0.95504,0.4827 2.64254,0.8776 3.75,0.8776 1.10746,0 2.01357,0.45 2.01357,1 0,0.55 1.13111,1 2.51357,1 1.38246,0 3.29496,0.3948 4.25,0.8772 3.30233,1.6684 8.89057,3.1228 11.99841,3.1228 1.71599,0 3.3981,0.45 3.73802,1 0.33992,0.55 3.17898,1.0316 6.30902,1.0703 3.13004,0.039 6.59098,0.4739 7.69098,0.9672 2.57075,1.1528 39.97412,0.4242 48.5,-0.9448 z m 189.57143,-25.5213 c 0.78571,-0.7857 1.42857,-1.8262 1.42857,-2.3122 0,-0.4859 0.9,-2.7463 2,-5.0231 1.1,-2.2767 2,-4.7462 2,-5.4878 0,-0.7416 0.39542,-1.7758 0.87871,-2.2983 0.48329,-0.5225 1.1678,-2.5795 1.52114,-4.5712 0.55423,-3.1239 0.30113,-3.8447 -1.84353,-5.25 -1.36727,-0.8958 -3.37523,-1.6288 -4.46212,-1.6288 -1.08689,0 -2.21739,-0.3903 -2.51222,-0.8674 -0.59464,-0.9621 -7.90687,-2.2513 -14.08198,-2.4827 -3.82761,-0.1435 -4.11501,0.066 -6.66869,4.8501 -3.9004,7.3077 -3.63864,14.2682 0.71759,19.0816 0.57689,0.6375 2.60189,1.9922 4.5,3.0106 8.18937,4.3937 14.05107,5.4507 16.52253,2.9792 z m -183.07143,-32.2918 c 9.22077,-1.8235 25.7301,-8.5904 29.32143,-12.0183 0.72678,-0.6937 1.71389,-1.2613 2.19358,-1.2613 2.57209,0 18.98499,-18.887 18.98499,-21.8469 0,-0.5425 0.5625,-1.2059 1.25,-1.4741 1.59068,-0.6206 -5.47167,-7.679 -7.68325,-7.679 -0.86171,0 -1.56675,-0.3778 -1.56675,-0.8395 0,-0.4617 -1.13017,-1.3544 -2.5115,-1.9838 -2.30425,-1.0499 -2.9315,-0.7331 -7.6013,3.8395 -2.79939,2.7411 -5.71921,4.9838 -6.4885,4.9838 -0.76928,0 -1.3987,0.3827 -1.3987,0.8504 0,0.4677 -3.0375,2.315 -6.75,4.105 -3.7125,1.7901 -7.53139,3.6574 -8.48643,4.1497 -0.95504,0.4922 -2.61598,0.8949 -3.69098,0.8949 -1.07501,0 -2.20194,0.4003 -2.5043,0.8895 -0.30237,0.4892 -2.24142,1.1762 -4.30902,1.5266 -11.27342,1.9107 -20.42536,2.9565 -25.75927,2.9435 -8.92498,-0.022 -23.49332,-1.5398 -24.09329,-2.5106 -0.28861,-0.4669 -2.27163,-0.849 -4.40671,-0.849 -2.13508,0 -4.16008,-0.45 -4.5,-1 -0.33992,-0.55 -1.68992,-1 -3,-1 -1.31008,0 -2.66008,-0.45 -3,-1 -0.33992,-0.55 -1.41832,-1 -2.39644,-1 -1.62529,0 -17.93832,-7.6364 -19.10356,-8.9427 -0.275,-0.3083 -1.7375,-1.1983 -3.25,-1.9779 -1.5125,-0.7796 -2.75,-1.7913 -2.75,-2.2484 0,-0.4571 -0.60826,-0.831 -1.35169,-0.831 -0.74342,0 -2.79362,-1.378 -4.55599,-3.0622 -2.01738,-1.9279 -4.01701,-2.9466 -5.39832,-2.75 -1.99308,0.2836 -2.22076,0.9688 -2.4862,7.4825 -0.2798,6.8661 -0.15247,7.3297 3,10.9244 8.56804,9.7699 17.81024,17.4243 23.0422,19.0836 0.9625,0.3052 1.75,0.9525 1.75,1.4383 0,0.4859 0.9,0.8834 2,0.8834 1.1,0 2,0.45 2,1 0,0.55 0.68111,1 1.51357,1 0.83246,0 2.40746,0.45 3.5,1 1.09254,0.55 2.88032,1.45 3.97286,2 1.09254,0.55 2.86598,1 3.94098,1 1.07501,0 2.23267,0.45 2.57259,1 0.33992,0.55 1.91492,1 3.5,1 1.58508,0 3.16008,0.45 3.5,1 0.33992,0.55 2.50398,1.0069 4.80902,1.0153 2.30504,0.01 4.86598,0.4622 5.69098,1.0084 1.86496,1.2347 35.46883,0.6464 42.5,-0.7441 z m -9,-33.8193 c 2.75,-0.3598 5.4275,-1.0606 5.95,-1.5573 0.5225,-0.4966 2.21611,-0.903 3.76357,-0.903 1.54746,0 3.59496,-0.3975 4.55,-0.8833 0.95504,-0.4859 2.86143,-1.3289 4.23643,-1.8734 5.1129,-2.0246 12.51091,-5.7679 12.83333,-6.4933 0.18334,-0.4125 0.91657,-0.75 1.62942,-0.75 0.71285,0 3.17365,-1.8221 5.46846,-4.0492 3.25091,-3.1549 4.03129,-4.5352 3.53356,-6.25 -1.44952,-4.9939 -2.38961,-8.44 -3.46477,-12.7008 -0.62454,-2.475 -1.55503,-5.882 -2.06776,-7.571 -0.51273,-1.6891 -0.93224,-4.3087 -0.93224,-5.8214 0,-2.7973 -1.97566,-5.6076 -3.94214,-5.6076 -0.59675,0 -1.86639,-0.3975 -2.82143,-0.8833 -0.95504,-0.4859 -2.86143,-1.3308 -4.23643,-1.8776 -3.7325,-1.4844 -16.42517,-7.6209 -17,-8.2189 -0.275,-0.2861 -1.5125,-1.0827 -2.75,-1.7702 -5.58648,-3.1036 -6.77013,-3.8573 -8.63764,-5.5 -1.09422,-0.9625 -2.41435,-1.75 -2.93363,-1.75 -0.51927,0 -1.67192,-0.8089 -2.56143,-1.7975 -0.88952,-0.9885 -3.1923,-2.8797 -5.1173,-4.2025 -1.925,-1.3228 -4.25091,-3.2406 -5.16869,-4.2618 -1.23411,-1.3732 -2.14561,-1.6128 -3.5,-0.9202 -4.71941,2.4134 -9.9351,3.182 -21.59329,3.182 -7.33464,0 -12.87882,-0.4188 -13.23802,-1 -0.33992,-0.55 -2.13992,-1 -4,-1 -1.86008,0 -3.66008,-0.45 -4,-1 -0.33992,-0.55 -1.49148,-1 -2.55902,-1 -1.06754,0 -1.94098,-0.45 -1.94098,-1 0,-0.55 -0.40082,-1 -0.8907,-1 -0.48989,0 -1.15636,3.2625 -1.48106,7.25 -0.58855,7.2279 -1.57738,14.4252 -3.67513,26.75 -0.60849,3.575 -1.32985,12.8999 -1.60304,20.7221 -0.48443,13.8708 -0.43931,14.2793 1.82661,16.5365 3.02659,3.015 11.38129,8.7414 12.7535,8.7414 0.5884,0 1.06982,0.45 1.06982,1 0,0.55 0.68111,1 1.51357,1 0.83246,0 2.29496,0.3975 3.25,0.8833 5.46399,2.7796 8.67377,3.6582 18.5518,5.0781 3.19845,0.4598 6.11809,1.1387 6.48809,1.5087 0.75229,0.7523 24.93804,0.01 32.69654,-1.0098 z m 73.5,-67.8681 c 4.56914,-0.8802 10.92173,-2.5925 13.75,-3.7062 1.2375,-0.4873 3.2625,-1.2809 4.5,-1.7636 5.6682,-2.2108 15.75,-7.5058 15.75,-8.272 0,-0.4677 0.6596,-0.8504 1.46578,-0.8504 2.05942,0 18.53422,-16.2893 18.53422,-18.3255 0,-0.921 0.45,-1.6745 1,-1.6745 0.55,0 1,-0.6485 1,-1.441 0,-2.8424 2.26592,-2.7257 8.83049,0.4546 9.06017,4.3894 11.72316,5.3197 21.66951,7.5702 9.6296,2.1788 28.15047,1.2608 33.73643,-1.6721 0.95504,-0.5014 2.64254,-0.9117 3.75,-0.9117 1.10746,0 2.01357,-0.45 2.01357,-1 0,-0.55 0.9,-1 2,-1 1.1,0 2,-0.45 2,-1 0,-0.55 0.60826,-1 1.35169,-1 0.74342,0 2.76433,-1.35 4.49089,-3 1.72657,-1.65 4.22579,-3 5.55382,-3 2.65393,0 10.6036,3.8876 10.6036,5.1855 0,0.448 0.5625,0.8155 1.25,0.8168 0.6875,10e-4 2.825,1.3503 4.75,2.9977 1.925,1.6474 4.0625,2.9963 4.75,2.9976 0.6875,0.001 1.25,0.4524 1.25,1.0024 0,0.55 0.9,1 2,1 1.1,0 2,0.45 2,1 0,0.55 1.09844,1 2.44098,1 1.34254,0 2.7191,0.45 3.05902,1 0.33992,0.55 1.91492,1 3.5,1 1.58508,0 3.11899,0.3835 3.40869,0.8522 1.26345,2.0444 24.88194,3.23 35.59134,1.7867 9.736,-1.3122 20.7163,-4.4388 27.2364,-7.7556 0.955,-0.4858 2.4175,-0.8833 3.25,-0.8833 0.8325,0 1.5136,-0.45 1.5136,-1 0,-0.55 0.9,-1 2,-1 1.1,0 2,-0.3975 2,-0.8834 0,-0.4858 0.7875,-1.1331 1.75,-1.4383 2.6061,-0.8265 7.5233,-3.9394 9.3645,-5.9283 0.8911,-0.9625 2.0837,-1.75 2.6503,-1.75 1.3841,0 15.1707,-13.6072 18.2374,-18 1.3439,-1.925 3.2432,-4.3724 4.2206,-5.4386 0.9775,-1.0662 1.7772,-2.5287 1.7772,-3.25 0,-0.7213 0.45,-1.3114 1,-1.3114 0.55,0 1,-0.9 1,-2 0,-1.1 0.45,-2 1,-2 0.55,0 1,-0.8735 1,-1.941 0,-1.0675 0.45,-2.2191 1,-2.559 0.55,-0.3399 1,-1.6899 1,-3 0,-1.3101 0.4025,-2.63073 0.8944,-2.93473 3.002,-1.8554 3.0888,-24.0667 0.1213,-31.0653 -0.4664,-1.1 -1.4456,-3.4625 -2.176,-5.25 -0.7303,-1.7875 -1.6681,-3.25 -2.0838,-3.25 -0.4158,0 -0.7559,-0.6857 -0.7559,-1.5237 0,-0.838 -3.7125,-5.2255 -8.25,-9.75 -7.8885,-7.8658 -12.1803,-11.1933 -16,-12.4046 -0.9625,-0.3052 -1.75,-0.9525 -1.75,-1.4383 0,-0.4859 -0.8625,-0.8834 -1.9167,-0.8834 -1.0541,0 -2.106,-0.5625 -2.3373,-1.25 -0.5242,-1.55738 -3.746,0.7958 -3.746,2.7361 0,2.1201 -5.1509,6.5139 -7.6364,6.5139 -1.3,0 -2.3636,0.45 -2.3636,1 0,0.55 -0.6811,1 -1.5136,1 -0.8325,0 -2.295,0.3975 -3.25,0.8833 -0.955,0.4858 -2.8614,1.3256 -4.2364,1.8662 -1.375,0.5406 -3.7375,1.4931 -5.25,2.1167 -1.5125,0.6236 -3.9875,1.6363 -5.5,2.2505 -1.5125,0.6141 -3.5314,1.5141 -4.4865,2 -0.955,0.4858 -2.4236,0.8833 -3.2635,0.8833 -0.84,0 -2.5336,0.5202 -3.7636,1.1561 -4.8025,2.4827 -5.7759,2.8439 -7.6638,2.8439 -1.0751,0 -2.2327,0.45 -2.5726,1 -0.3399,0.55 -1.68995,1 -3.00003,1 -1.31008,0 -2.66008,0.45 -3,1 -0.33992,0.55 -1.68992,1 -3,1 -1.31008,0 -2.66008,0.45 -3,1 -0.33992,0.55 -1.72258,1 -3.07259,1 -1.35,0 -3.23594,0.3947 -4.19098,0.8772 -2.88913,1.4596 -8.74684,3.1228 -10.99841,3.1228 -1.16599,0 -2.3981,0.45 -2.73802,1 -0.33992,0.55 -1.91492,1 -3.5,1 -1.58508,0 -3.12935,0.4003 -3.43171,0.8895 -0.51894,0.8397 -3.05141,1.4296 -11.82456,2.7545 -2.06595,0.312 -4.005,0.9697 -4.30901,1.4616 -0.30402,0.4919 -2.0112,0.8944 -3.79374,0.8944 -1.78254,0 -3.66848,0.4039 -4.19098,0.8976 -0.5225,0.4936 -2.75,1.1395 -4.95,1.4353 -2.2,0.2958 -6.25,1.0495 -9,1.675 -2.75,0.6255 -7.025,1.3733 -9.5,1.6617 -2.475,0.2883 -4.9275,0.9307 -5.45,1.4273 -0.5225,0.4967 -3.08344,0.9031 -5.69098,0.9031 -2.60754,0 -4.98535,0.3954 -5.28402,0.8786 -0.29867,0.4833 -3.13773,1.1587 -6.30902,1.5009 -3.17129,0.3422 -8.91598,1.0858 -12.76598,1.6525 -33.68579,4.9581 -55.43067,6.8021 -91.70659,7.7771 -51.43173,1.3823 -103.26805,-1.5121 -137.79341,-7.6941 -3.025,-0.5416 -7.75,-1.2719 -10.5,-1.6229 -2.75,-0.351 -5.9,-1.0298 -7,-1.5084 -1.1,-0.4786 -3.8,-1.0916 -6,-1.3623 -2.2,-0.2706 -6.25,-1.0003 -9,-1.6214 -2.75,-0.6212 -6.69032,-1.3728 -8.75627,-1.6703 -2.06595,-0.2975 -4.005,-0.9434 -4.30901,-1.4353 -0.30402,-0.4919 -1.6573,-0.8944 -3.00731,-0.8944 -1.35,0 -3.23594,-0.4062 -4.19098,-0.9026 -0.95504,-0.4964 -3.76143,-1.4476 -6.23643,-2.1139 -5.2837,-1.4225 -8.25849,-2.5012 -16.5,-5.9835 -1.65,-0.6972 -4.0125,-1.6574 -5.25,-2.1338 -6.36487,-2.4504 -13.25031,-5.3659 -17.65364,-7.4753 -1.597,-0.765 -3.5095,-1.3909 -4.25,-1.3909 -0.7405,0 -1.34636,-0.45 -1.34636,-1 0,-0.55 -0.63247,-1 -1.4055,-1 -0.77302,0 -3.13552,-0.874 -5.25,-1.9421 -8.85778,-4.4746 -16.89767,-8.0579 -18.07961,-8.0579 -0.69569,0 -1.26489,-0.45 -1.26489,-1 0,-0.55 -0.9,-1 -2,-1 -1.1,0 -2,-0.45 -2,-1 0,-0.55 -0.63247,-1 -1.4055,-1 -0.77302,0 -3.36052,-0.9601 -5.75,-2.1335 -10.61313,-5.2117 -12.11312,-5.8665 -13.439,-5.8665 -0.77303,0 -1.4055,-0.45 -1.4055,-1 0,-0.55 -0.68111,-1 -1.51357,-1 -0.83246,0 -2.29496,-0.43352 -3.25,-0.96335 -3.91503,-2.17195 -10.69721,-5.03667 -11.92426,-5.03667 -0.72169,0 -1.31217,-0.45 -1.31217,-1 0,-0.55 -0.68111,-1 -1.51357,-1 -0.83246,0 -2.29496,-0.4335 -3.25,-0.96333 -3.91503,-2.17195 -10.69721,-5.03667 -11.92426,-5.03667 -0.72169,0 -1.31217,-0.45 -1.31217,-1 0,-0.55 -0.63247,-1 -1.4055,-1 -0.77302,0 -3.13552,-0.86011 -5.25,-1.91135 -2.11447,-1.05124 -9.469499,-4.71363 -16.344499,-8.13865 -6.875,-3.42501 -13.50899,-6.7274 -14.7422,-7.33865 -1.23321,-0.61124 -2.24571,-1.44885 -2.25,-1.86135 -0.004,-0.4125 -0.9078,-0.75 -2.0078,-0.75 -1.1,0 -2,-0.39541 -2,-0.87868 0,-0.48327 -1.35,-1.43787 -3,-2.12132 -1.65,-0.68345 -3,-1.63805 -3,-2.12132 0,-0.48327 -0.9,-0.87868 -2,-0.87868 -1.1,0 -2,-0.37396 -2,-0.83102 0,-0.45706 -1.2375,-1.46956 -2.75,-2.25 -1.5125,-0.78044 -3.78295,-2.43148 -5.04545,-3.66898 -1.2625,-1.2375 -2.70455,-2.25 -3.20455,-2.25 -0.5,0 -1.94205,-1.01373 -3.20455,-2.25273 -1.2625,-1.239 -4.32045,-3.80989 -6.79545,-5.71309 -2.475,-1.9032 -5.57777,-4.71447 -6.89503,-6.24727 -1.31727,-1.5328 -3.04923,-2.78691 -3.84879,-2.78691 -1.50265,0 -7.25618,5.57763 -7.25618,7.03433 0,0.45255 -0.59066,1.41746 -1.31258,2.14424 -1.22123,1.22945 -8.88756,16.50443 -10.8264597,21.57143 -0.47353,1.2375 -1.25967,3.2625 -1.74698,4.5 -0.48731,1.2375 -1.43417,4.275 -2.10414,6.75 -0.66996,2.475 -1.62126,5.53367 -2.11398,6.79705 -0.49272,1.26338 -0.89586,3.76088 -0.89586,5.55 0,1.78912 -0.40281004,3.68045 -0.89513004,4.20295 -0.49232,0.5225 -1.14495,3.875 -1.45026996,7.45 -0.30533,3.57502 -0.80302,8.30002 -1.10597,10.50002 -1.22812,8.9184 3.68488,33.5 6.69548,33.5 0.41574,0 0.75644,0.5625 0.75711,1.25 0.005,4.8004 14.2424697,12.75 22.8355297,12.75 3.75339,0 11.16325,-2.1529 11.16325,-3.2435 0,-0.4161 0.62074,-0.7565 1.37942,-0.7565 0.75868,0 3.15891,-1.727 5.33385,-3.8377 9.34509,-9.0691 17.31901,-12.6842 20.84154,-9.4489 2.45491,2.2547 6.44519,9.8835 6.44519,12.3221 0,1.0155 0.45,2.1246 1,2.4645 0.55,0.3399 1,1.6899 1,3 0,1.3101 0.45,2.6601 1,3 0.55,0.3399 1,1.2869 1,2.1045 0,0.8175 1.10455,2.5909 2.45455,3.9409 2.10709,2.1071 3.383,2.4546 9.01356,2.4546 3.60747,0 7.34042,-0.3948 8.29546,-0.8773 2.55929,-1.2929 8.651339,-3.1227 10.396749,-3.1227 1.53694,0 7.83968,6.24993 7.83968,7.77403 0,1.471 2.47697,6.2101 3.25,6.2182 0.4125,0 0.75,0.6889 0.75,1.5214 0,2.4323 2.18943,5.6856 6.88884,10.2364 3.63657,3.5215 5.0935,4.269 8.5,4.3607 9.64162,0.2596 11.91024,-0.5441 17.95515,-6.3607 2.14344,-2.0625 4.51791,-3.75 5.27659,-3.75 0.75868,0 1.38293,-0.3375 1.38722,-0.75 0.004,-0.4125 1.17989,-1.2941 2.61245,-1.959 2.93264,-1.3612 3.30848,-1.1222 7.40351,4.709 3.188,4.5396 15.48278,16.8249 19.97624,19.961 1.925,1.3434 3.725,2.719 4,3.0568 1.03929,1.2766 9.9029,6.9822 10.84684,6.9822 0.54257,0 1.13649,0.3375 1.31983,0.75 0.46701,1.0508 8.74106,5.25 10.3445,5.25 0.72719,0 1.47216,0.3557 1.6555,0.7905 0.38816,0.9205 9.32897,4.0061 15.83333,5.4643 6.659,1.4929 29.05847,2.0867 30.3408,0.8044 0.58256,-0.5826 1.92603,-1.0592 2.9855,-1.0592 1.836,0 13.624,-5.509 14.6737,-6.8576 0.275,-0.3533 2.3,-1.6099 4.5,-2.7925 2.2,-1.1825 5.70119,-3.095 7.78042,-4.25 4.60595,-2.5585 8.44412,-2.6852 10.60228,-0.3499 2.06518,2.2346 9.78226,6.25 12.0118,6.25 0.93803,0 2.16788,0.4624 2.73302,1.0275 1.37709,1.3771 26.3532,1.3918 27.72868,0.016 0.57409,-0.5741 2.3038,-1.0438 3.8438,-1.0438 1.54,0 2.8,-0.45 2.8,-1 0,-0.55 0.9,-1 2,-1 1.1,0 2,-0.45 2,-1 0,-1.682 5.16345,-1.111 6.8827,0.761 0.88952,0.9686 3.31007,3.0205 5.37901,4.5599 2.06895,1.5393 6.92847,5.9218 10.79895,9.7389 3.87048,3.8171 7.39522,6.9402 7.83275,6.9402 0.43753,0 2.103,1.1244 3.70105,2.4988 1.59805,1.3743 3.46804,2.4993 4.15554,2.5 0.6875,6e-4 1.25,0.4512 1.25,1.0012 0,0.55 0.68111,1 1.51357,1 0.83246,0 2.40746,0.45 3.5,1 1.09254,0.55 2.88032,1.45 3.97286,2 1.09254,0.55 3.45504,1.0069 5.25,1.0153 1.79496,0.01 3.93857,0.4636 4.76357,1.0116 1.61057,1.0697 28.95332,0.7302 35,-0.4347 z m 27.5,-102.46973 c 6.05,-0.5287 15.275,-1.4728 20.5,-2.0981 5.225,-0.6252 12.2,-1.449 15.5,-1.8306 6,-0.6938 6,-0.6938 5.90158,-14.6938 -0.0912,-12.967 -0.90525,-22.7997 -3.41527,-41.25002 -0.92265,-6.78209 -1.53199,-11.15227 -4.00861,-28.75 -3.46606,-24.62829 -4.69755,-49.344 -2.92729,-58.75 0.69872,-3.7125 1.42932,-6.75 1.62356,-6.75 0.6314,0 4.72076,2.47311 5.78736,3.5 2.62562,2.52787 3.50784,6.88912 3.94457,19.5 0.25714,7.425 0.95783,16.65 1.55709,20.5 0.59927,3.85 1.51592,9.925 2.03701,13.5 0.52109,3.575 1.38128,9.425 1.91154,13 1.6733,11.28137 3.04774,21.22061 4.1485,30 0.58615,4.675 1.50302,11.87502 2.03749,16.00002 0.53446,4.125 1.22228,12.45 1.52848,18.5 0.57081,11.2784 1.50062,14.0852 4.2842,12.9329 0.87439,-0.362 4.28979,-1.0456 7.58979,-1.5191 10.90424,-1.5646 13.51267,-2.1253 14.06829,-3.0243 0.30236,-0.4892 2.26809,-0.8895 4.36828,-0.8895 4.09755,0 6.76542,-2.0695 5.42238,-4.2062 -0.44727,-0.7116 -1.1567,-3.9938 -1.57651,-7.2938 -0.74414,-5.8494 -1.68679,-12.2589 -3.75032,-25.50002 -2.51435,-16.13388 -3.01598,-19.67584 -6.0191,-42.5 -3.06603,-23.30228 -3.99363,-32.13922 -5.82575,-55.5 -0.53918,-6.875 -1.23052,-13.625 -1.53631,-15 -0.98498,-4.42911 -1.62474,-51.45131 -0.71975,-52.90192 0.71804,-1.15095 1.69758,-0.91963 5.4717,1.29215 2.5284,1.48174 4.59709,3.35011 4.59709,4.15192 0,0.80182 0.40077,1.45785 0.89059,1.45785 1.42474,0 2.18232,6.24518 3.15397,26 0.89525,18.20146 2.14158,35.27649 3.94152,54 0.50229,5.225 1.38238,14.45 1.95575,20.5 1.74557,18.41858 5.79044,48.61197 8.10491,60.50002 0.58893,3.025 1.31297,7.525 1.60897,10 0.29601,2.475 0.94457,4.9275 1.44124,5.45 0.49668,0.5225 0.90305,1.9921 0.90305,3.2657 0,1.2737 0.5625,4.1428 1.25,6.3759 1.23495,4.0113 1.29817,4.0536 5.25,3.5161 10.13442,-1.3786 12.55045,-1.8803 13.06528,-2.7133 0.30402,-0.4919 1.50675,-0.8944 2.67274,-0.8944 2.25157,0 8.10928,-1.6632 10.99841,-3.1228 0.95504,-0.4825 2.86754,-0.8772 4.25,-0.8772 1.38246,0 2.51357,-0.45 2.51357,-1 0,-0.55 1.09844,-1 2.44098,-1 1.34254,0 2.7191,-0.45 3.05902,-1 0.33992,-0.55 1.49758,-1 2.57259,-1 1.075,0 2.73594,-0.3975 3.69098,-0.8833 1.60778,-0.8179 3.69974,-1.7035 9.48643,-4.0158 1.2375,-0.4945 3.825,-1.4399 5.75,-2.1009 3.97246,-1.3641 6.40463,-2.2799 10.00003,-3.7653 1.375,-0.5681 4.075,-1.5737 6,-2.2347 4.2336,-1.4538 7.9009,-2.9286 10.2364,-4.1167 0.955,-0.4858 2.616,-0.8833 3.691,-0.8833 1.075,0 2.2327,-0.45002 2.5726,-1.00002 0.3399,-0.55 1.6899,-1 3,-1 1.3101,0 2.6601,-0.45 3,-1 0.3399,-0.55 1.7226,-1 3.0726,-1 1.35,0 3.2359,-0.41715 4.1909,-0.927 0.9551,-0.50985 2.6239,-1.20906 3.7084,-1.5538 1.1853,-0.37672 1.5498,-0.90455 0.9137,-1.32299 -0.582,-0.38292 -1.6801,-2.83371 -2.4402,-5.44621 -0.7601,-2.6125 -1.7338,-4.75 -2.1637,-4.75 -0.43,0 -0.7817,-0.90611 -0.7817,-2.01357 0,-1.10746 -0.3975,-2.79496 -0.8834,-3.75 -1.6277,-3.19985 -4.0871,-9.32615 -6.1166,-15.23643 -0.661,-1.925 -1.6667,-4.625 -2.2348,-6 -1.4854,-3.59534 -2.4012,-6.02754 -3.7652,-10 -1.4538,-4.23366 -2.9286,-7.90092 -4.1167,-10.23643 -0.4858,-0.95504 -0.8833,-2.61598 -0.8833,-3.69098 0,-1.07501 -0.3609,-2.1776 -0.802,-2.4502 -0.4411,-0.27261 -1.4302,-2.80268 -2.198,-5.62239 -0.7679,-2.81971 -1.757,-5.34978 -2.1981,-5.62239 -0.441,-0.2726 -0.8019,-1.56753 -0.8019,-2.87761 0,-1.31008 -0.45,-2.66008 -1,-3 -0.55,-0.33992 -1,-1.49758 -1,-2.57259 0,-1.075 -0.45,-2.84844 -1,-3.94098 -0.55,-1.09254 -1.45,-2.88032 -2,-3.97286 -0.55,-1.09254 -1,-2.86598 -1,-3.94098 0,-1.07501 -0.45,-2.23267 -1,-2.57259 -0.55,-0.33992 -1,-1.68992 -1,-3 0,-1.31008 -0.45,-2.66008 -1,-3 -0.55,-0.33992 -1,-1.68992 -1,-3 0,-1.31008 -0.45,-2.66008 -1,-3 -0.55,-0.33992 -1,-1.91492 -1,-3.5 0,-1.58508 -0.45,-3.16008 -1,-3.5 -0.55,-0.33992 -1,-1.68992 -1,-3 0,-1.31008 -0.45,-2.66008 -1.00003,-3 -0.55,-0.33992 -1,-1.68992 -1,-3 0,-1.31008 -0.45,-2.66008 -1,-3 -0.55,-0.33992 -1,-1.91492 -1,-3.5 0,-1.58508 -0.45,-3.16008 -1,-3.5 -0.55,-0.33992 -1,-1.68992 -1,-3 0,-1.31008 -0.45,-2.66008 -1,-3 -0.55,-0.33992 -1,-1.72258 -1,-3.07259 0,-1.35 -0.40614,-3.23594 -0.90254,-4.19098 -0.49639,-0.95504 -1.44025,-3.76143 -2.09746,-6.23643 -0.65721,-2.475 -1.60107,-5.28139 -2.09746,-6.23643 -0.4964,-0.95504 -0.90254,-2.49809 -0.90254,-3.429 0,-1.89114 -1.77746,-7.9081 -3.12276,-10.571 -0.48248,-0.95504 -0.87724,-3.06598 -0.87724,-4.69098 0,-1.62501 -0.40028,-3.20194 -0.88951,-3.5043 -0.48923,-0.30237 -1.12236,-2.01642 -1.40696,-3.80902 -0.28459,-1.7926 -1.04635,-5.05927 -1.69279,-7.25927 -0.64645,-2.2 -1.39398,-5.35 -1.66119,-7 -0.26721,-1.65 -0.87127,-3.9 -1.34237,-5 -0.86894,-2.02898 -1.71677,-5.56704 -2.63592,-11 -0.27915,-1.65 -0.89622,-3.9 -1.37126,-5 -0.47504,-1.1 -1.11938,-3.4625 -1.43186,-5.25 -0.31248,-1.7875 -0.8238,-4.7125 -1.13628,-6.5 -0.31248,-1.7875 -0.95958,-4.15 -1.43799,-5.25 -0.47842,-1.1 -1.09778,-3.575 -1.37636,-5.5 -0.27857,-1.925 -1.01058,-5.75 -1.62668,-8.5 -0.61609,-2.75 -1.34161,-6.8 -1.61226,-9 -0.27065,-2.2 -0.891,-4.9 -1.37857,-6 -0.48757,-1.1 -1.11416,-3.8 -1.39242,-6 -0.27827,-2.2 -0.99934,-6.475 -1.60239,-9.5 -1.36777,-6.86102 -3.26119,-18.19084 -6.01624,-36 -2.05521,-13.28522 -4.61433,-32.98049 -5.97704,-46 -1.83689,-17.54988 -3.00857,-31.40339 -3.93277,-46.5 -1.39899,-22.85191 -2.37392,-28.06812 -4.57914,-24.5 -0.33992,0.55 -2.13992,1 -4,1 -1.86008,0 -3.66008,0.45 -4,1 -0.33992,0.55 -2.30148,1 -4.35902,1 -2.05754,0 -4.16848,0.40391 -4.69098,0.89757 -0.5225,0.49367 -2.75,1.1458 -4.95,1.44918 -2.2,0.30339 -6.475,1.05092 -9.5,1.66119 -3.025,0.61027 -7.525,1.33164 -10,1.60303 -2.475,0.2714 -5.4,0.88878 -6.5,1.37195 -1.1,0.48318 -4.475,1.16538 -7.5,1.51602 -3.025,0.35063 -8.65,1.06937 -12.5,1.59719 -36.80429,5.04574 -71.41126,7.33287 -108.5,7.17062 -27.62168,-0.12082 -53.35613,-0.9283 -58.5,-1.83557 -1.65,-0.29102 -7.725,-0.96062 -13.5,-1.488 -11.54509,-1.0543 -22.50792,-2.3256 -34,-3.94279 -4.125,-0.58048 -9.75,-1.3143 -12.5,-1.63071 -2.75,-0.31641 -5.5625,-1.03413 -6.25,-1.59493 -1.73392,-1.41438 -4.25,0.8286 -4.25,3.78868 0,1.27519 -0.40247,2.56727 -0.89437,2.87129 -0.4919,0.30401 -1.15381,2.24306 -1.47092,4.30901 -0.3171,2.06595 -1.00947,6.45627 -1.53859,9.75627 -1.94805,12.1496 -3.18574,20.0998 -3.73631,24 -0.31056,2.2 -0.96857,4.4275 -1.46224,4.95 -0.49366,0.5225 -0.89757,1.95844 -0.89757,3.19098 0,1.23254 -0.45,2.5191 -1,2.85902 -0.55,0.33992 -1,1.2717 -1,2.07063 0,2.23451 -6.22613,11.18746 -8.71591,12.53316 -2.73855,1.48017 -5.28409,-0.21855 -5.28409,-3.52623 0,-1.19766 -0.4986,-2.67616 -1.10801,-3.28557 -1.18221,-1.18221 -0.80407,-6.36056 1.08016,-14.79199 0.61456,-2.75 1.37412,-6.24301 1.68791,-7.76224 0.31379,-1.51923 0.96865,-3.00829 1.45524,-3.30902 0.48658,-0.30072 0.8847,-1.87022 0.8847,-3.48776 0,-1.61754 0.45,-2.94098 1,-2.94098 0.55,0 1,-1.32344 1,-2.94098 0,-1.61754 0.45,-3.2191 1,-3.55902 0.55,-0.33992 1,-1.85148 1,-3.35902 0,-1.50754 0.43983,-3.18081 0.9774,-3.71838 0.53756,-0.53756 1.10006,-6.14006 1.25,-12.45 0.2726,-11.4726 0.2726,-11.4726 -4.7274,-12.19954 -2.75,-0.39982 -6.9125,-1.00958 -9.25,-1.35504 -2.3375,-0.34545 -4.25,-1.03082 -4.25,-1.52306 0,-0.49223 -0.84758,-0.89496 -1.8835,-0.89496 -1.59644,0 -1.97952,1.0288 -2.51345,6.75 -2.55386,27.36551 -4.73862,44.82364 -7.60241,60.75 -0.59339,3.3 -1.33238,7.8 -1.64219,10 -0.30982,2.2 -0.96721,4.4275 -1.46088,4.95 -0.49366,0.5225 -0.89757,1.96383 -0.89757,3.20295 0,1.23912 -0.40314,3.28662 -0.89586,4.55 -0.49272,1.26338 -1.47097,4.32205 -2.17388,6.79705 -0.70291,2.475 -1.64977,4.9275 -2.10414,5.45 -0.45437,0.5225 -0.82612,1.985 -0.82612,3.25 0,1.265 -0.45,2.3 -1,2.3 -0.55,0 -1,0.63619 -1,1.41377 0,1.72373 -6.12013,13.95391 -7.21573,14.41956 -0.43135,0.18334 -0.78427,1.00298 -0.78427,1.82143 0,0.81845 -0.71145,2.19955 -1.581,3.0691 -1.44133,1.44133 -1.81288,1.33092 -4.20588,-1.24982 -2.29456,-2.47458 -2.62488,-3.68061 -2.62488,-9.58348 0,-3.71396 0.48563,-7.79618 1.07919,-9.07161 2.41541,-5.19017 5.645,-12.46811 6.57593,-14.81895 0.54449,-1.375 1.38748,-3.28139 1.87331,-4.23643 0.48583,-0.95504 0.88333,-3.06598 0.88333,-4.69098 0,-1.62501 0.40247,-3.20329 0.89437,-3.50731 0.4919,-0.30401 1.14403,-2.24306 1.44918,-4.30901 0.30514,-2.06595 1.04821,-6.23127 1.65126,-9.25627 2.84742,-14.28324 5.88779,-35.62154 7.90786,-55.5 0.50302,-4.95 1.22897,-9.99638 1.61322,-11.21417 0.77753,-2.46422 -1.32805,-5.28583 -3.94446,-5.28583 -0.86429,0 -1.57494,-0.3375 -1.57923,-0.75 -0.004,-0.4125 -1.01679,-1.25698 -2.25,-1.87662 -1.23321,-0.61964 -8.51332,-4.33214 -16.17803,-8.25 -7.66471,-3.91786 -14.19236,-7.12338 -14.50589,-7.12338 -0.5893,0 -1.9063,2.93949 -4.03232,9 -1.84824,5.26864 -4.81321,12.62308 -6.14263,15.23643 -0.48583,0.95504 -0.88333,2.64254 -0.88333,3.75 0,1.10746 -0.35176,2.01357 -0.78168,2.01357 -0.42993,0 -1.4056,2.1375 -2.16816,4.75 -0.76256,2.6125 -1.7083,5.425 -2.10165,6.25 -0.75765,1.5891 -2.37847,5.51929 -3.81471,9.25 -0.47642,1.2375 -1.37642,3.4875 -2,5 -0.62359,1.5125 -1.5838,3.875 -2.1338,5.25 -0.55,1.375 -1.45,3.625 -2,5 -0.55,1.375 -1.45,3.625 -2,5 -0.55,1.375 -1.45,3.625 -2,5 -0.55,1.375 -1.38979,3.5125 -1.8662,4.75 -1.10279,2.86454 -2.55654,6.4989 -4,10 -0.62359,1.5125 -1.52359,3.7625 -2,5 -0.47642,1.2375 -1.37642,3.4875 -2,5 -0.62359,1.5125 -1.5838,3.875 -2.1338,5.25 -0.55,1.375 -1.45,3.625 -2,5 -0.55,1.375 -1.40515,3.5125 -1.90034,4.75 -0.49519,1.2375 -1.84519,4.3826 -3,6.9891 -1.15481,2.60651 -2.09966,5.41901 -2.09966,6.25 0,0.831 -0.45,1.5109 -1,1.5109 -0.55,0 -1,0.68111 -1,1.51357 0,0.83246 -0.3975,2.29496 -0.88333,3.25 -0.87295,1.71603 -2.29948,5.11374 -3.98287,9.48643 -1.32645,3.4455 -2.73268,6.79452 -5.03414,11.9891 -1.15481,2.60651 -2.09966,5.41901 -2.09966,6.25 0,0.831 -0.45,1.5109 -1,1.5109 -0.55,0 -1,0.68111 -1,1.51357 0,0.83246 -0.3975,2.29496 -0.88333,3.25 -0.48583,0.95504 -1.38583,2.97393 -2,4.48643 -0.61417,1.5125 -1.61917,3.9875 -2.23334,5.5 -0.61417,1.5125 -1.51417,3.53139 -2,4.48643 -0.48583,0.95504 -0.88333,2.41754 -0.88333,3.25 0,0.83246 -0.45,1.51357 -1,1.51357 -0.55,0 -1,0.68111 -1,1.51357 0,0.83246 -0.3975,2.29496 -0.88333,3.25 -0.48583,0.95504 -1.38583,2.97393 -2,4.48643 -0.61417,1.5125 -1.61917,3.9875 -2.23334,5.5 -0.61417,1.5125 -1.51417,3.53139 -2,4.48643 -0.48583,0.95504 -0.88333,2.41754 -0.88333,3.25 0,0.83246 -0.45,1.51357 -1,1.51357 -0.55,0 -1,0.68111 -1,1.51357 0,0.83246 -0.3975,2.29496 -0.88333,3.25 -0.48583,0.95504 -1.34098,2.86143 -1.90034,4.23643 -0.55936,1.375 -1.96186,4.6326 -3.11667,7.2391 -1.15481,2.60651 -2.09966,5.41901 -2.09966,6.25 0,0.831 -0.45,1.5109 -1,1.5109 -0.55,0 -1,0.68111 -1,1.51357 0,0.83246 -0.45,2.40746 -1,3.5 -0.55,1.09254 -1.45,2.88032 -2,3.97286 -0.549999,1.09254 -0.999999,2.66754 -0.999999,3.5 0,0.83246 -0.45,1.51357 -1,1.51357 -0.55,0 -1,0.6799 -1,1.5109 0,0.83099 -0.94485,3.64349 -2.09966,6.25 -1.15481,2.6065 -2.55731,5.8641 -3.11667,7.2391 -0.55936,1.375 -1.41451,3.28139 -1.90034,4.23643 -0.48583,0.95504 -0.88333,2.41754 -0.88333,3.25 0,0.83246 -0.45,1.51357 -1,1.51357 -0.55,0 -1,0.6799 -1,1.5109 0,0.83099 -0.94485,3.64349 -2.09966,6.25 -1.15481,2.6065 -2.55731,5.8641 -3.11667,7.2391 -0.55936,1.375 -1.41451,3.28139 -1.90034,4.23643 -0.48583,0.95504 -0.88333,2.41754 -0.88333,3.25 0,0.83246 -0.45,1.51357 -1,1.51357 -0.55,0 -1,0.6799 -1,1.5109 0,0.83099 -0.94485,3.64349 -2.09966,6.25 -1.15481,2.6065 -2.50481,5.7516 -3,6.9891 -0.49519,1.2375 -1.35034,3.375 -1.90034,4.75 -0.55,1.375 -1.45,3.625 -2,5 -0.55,1.375 -1.40515,3.5125 -1.90034,4.75 -0.49519,1.2375 -1.84519,4.3826 -3,6.9891 -1.15481,2.60651 -2.09966,5.41901 -2.09966,6.25 0,0.831 -0.45,1.5109 -1,1.5109 -0.55,0 -1,0.68111 -1,1.51357 0,0.83246 -0.3975,2.29496 -0.88333,3.25 -0.82658,1.62488 -1.66936,3.61817 -4.11667,9.73643 -0.55,1.375 -1.45,3.625 -2,5 -0.55,1.375 -1.45,3.625 -2,5 -0.55,1.375 -1.45,3.625 -2,5 -0.55,1.375 -1.38979,3.5125 -1.8662,4.75 -1.38207,3.58996 -3.04408,7.55726 -4.26247,10.17468 -0.99706,2.14195 -0.6915,2.95819 2.62046,7 2.06203,2.51643 4.03243,4.58517 4.37867,4.59721 0.34625,0.012 3.25546,2.4843 6.46492,5.4939 3.20946,3.00961 7.14696,6.24678 8.75,7.19372 1.60304,0.94694 2.91462,2.02009 2.91462,2.38478 0,0.36469 1.35,1.22226 3,1.90571 1.65,0.68345 3,1.60772 3,2.05393 0,0.44621 0.89734,1.0961 1.99408,1.44419 1.09674,0.34809 2.57294,1.16592 3.28043,1.81739 1.80697,1.66387 6.89161,4.7019 8.97549,5.36277 0.9625,0.30524 1.75,0.9525 1.75,1.43835 0,0.48585 0.8625,0.88337 1.91667,0.88337 1.05416,0 2.06666,0.34544 2.25,0.76765 0.44469,1.0241 32.985579,17.24323 34.583329,17.23712 0.6875,-0.003 1.25,0.44523 1.25,0.99523 0,0.55 0.9,1 2,1 1.1,0 2,0.45 2,1 0,0.55 0.63247,1 1.4055,1 0.77302,0 3.36052,0.96005 5.75,2.13344 10.61313,5.21176 12.11312,5.86656 13.439,5.86656 0.77303,0 1.4055,0.45 1.4055,1 0,0.55 0.9,1 2,1 1.1,0 2,0.45 2,1 0,0.55 0.61179,1 1.35954,1 1.13163,0 7.67152,2.93058 15.87689,7.11462 0.95504,0.4869 2.41754,0.8854 3.25,0.8854 0.83246,0 1.51357,0.45 1.51357,1 0,0.55 0.68111,1 1.51357,1 0.83246,0 2.29496,0.3975 3.25,0.8833 1.96644,1.0003 6.75266,3.024 9.73643,4.1167 1.1,0.4028 3.125,1.2129 4.5,1.8001 1.375,0.5872 4.3,1.6393 6.5,2.3379 2.2,0.6987 4.4275,1.6284 4.95,2.0661 0.5225,0.4377 1.95844,0.7959 3.19098,0.7959 1.23254,0 2.5191,0.45 2.85902,1 0.33992,0.55 1.68992,1 3,1 1.31008,0 2.66008,0.45 3,1 0.33992,0.55 1.49758,1 2.57259,1 1.075,0 2.73594,0.4061 3.69098,0.9025 0.95504,0.4964 3.76143,1.4403 6.23643,2.0975 2.475,0.6572 5.28139,1.6011 6.23643,2.0974 0.95504,0.4964 2.84098,0.9026 4.19098,0.9026 1.35001,0 2.70194,0.4003 3.0043,0.8895 0.51958,0.8407 1.75744,1.1484 10.82756,2.6918 2.0676,0.3518 4.00665,1.0399 4.30902,1.5292 0.30236,0.4892 2.29663,0.8895 4.43171,0.8895 2.13508,0 4.1307,0.4025 4.43472,0.8944 0.30401,0.4919 2.24306,1.1496 4.30901,1.4616 2.06595,0.312 5.55627,0.8374 7.75627,1.1676 2.2,0.3302 4.9,0.997 6,1.4816 1.1,0.4847 3.8,1.1089 6,1.3872 2.2,0.2783 6.475,0.9781 9.5,1.5551 18.38291,3.5066 42.25303,6.4991 62.73017,7.8642 6.7266,0.4484 12.5404,1.1255 12.91957,1.5047 0.97901,0.979 82.62141,-0.038 95.85026,-1.1939 z m 23.72089,-173.37252 c -0.89475,-1.09223 -1.68545,-9.94139 -1.3403,-15 0.17495,-2.56395 2.82385,-2.13646 5.91486,0.95455 2.15834,2.15833 2.70455,3.63697 2.70455,7.32142 0,6.38378 -4.30222,10.35793 -7.27911,6.72403 z m 47.00299,-76.12116 c -1.25187,-0.61908 -2.82422,-2.36382 -3.49412,-3.87722 -0.66989,-1.51339 -1.50706,-2.75162 -1.86037,-2.75162 -1.96297,0 -3.39237,-16.38531 -1.8398,-21.08966 1.17579,-3.56267 1.40795,-3.71772 4.85264,-3.24076 5.58229,0.77294 5.84247,0.95439 6.45774,4.50361 0.3172,1.82975 1.08454,5.80181 1.70521,8.82681 0.62067,3.025 1.35134,8.5375 1.62371,12.25 0.49523,6.75 0.49523,6.75 -2.33683,6.62722 -1.55763,-0.0675 -3.85632,-0.6293 -5.10818,-1.24838 z M 202.48036,388.15822 c -1.4764,-3.17906 -1.62051,-8.27878 -0.32485,-11.49578 0.50884,-1.26338 1.50708,-4.43455 2.21832,-7.04705 1.18107,-4.33826 1.55595,-4.74989 4.32485,-4.74878 4.01001,0.002 8.27883,3.74648 8.58997,7.53563 0.6217,7.57124 0.0157,9.44176 -4.53197,13.98947 -5.23957,5.23956 -8.41026,5.78461 -10.27632,1.76651 z m 53.38532,-48.76873 c -1.02557,-0.77676 -2.48807,-2.61389 -3.25,-4.0825 -1.60518,-3.094 -1.84967,-10.03658 -0.38532,-10.9416 0.55,-0.33992 1,-1.40176 1,-2.35965 0,-2.50579 2.27107,-7.01554 3.84023,-7.62569 1.34827,-0.52427 6.96898,2.12321 8.46104,3.98534 0.91563,1.14274 -0.0689,15.68934 -1.11537,16.47961 -0.379,0.28622 -1.32691,1.75789 -2.10647,3.27039 -1.56078,3.02821 -3.59666,3.43074 -6.44411,1.2741 z m 216.86468,-112.4116 c 16.74946,-1.3321 39.98388,-4.03598 52.5,-6.10963 3.575,-0.5923 8.525,-1.30874 11,-1.5921 2.475,-0.28336 5.4,-0.91616 6.5,-1.40622 1.1,-0.49007 3.8,-1.11247 6,-1.38312 2.2,-0.27065 6.25,-1.00029 9,-1.62143 2.75,-0.62114 6.69032,-1.37278 8.75627,-1.67031 2.06595,-0.29752 4.005,-0.94342 4.30901,-1.43532 0.30402,-0.4919 2.07464,-0.89437 3.93472,-0.89437 1.86008,0 3.66008,-0.45 4,-1 0.33992,-0.55 1.91492,-1 3.5,-1 1.58508,0 3.16008,-0.45 3.5,-1 0.33992,-0.55 1.91492,-1 3.5,-1 1.58508,0 3.16008,-0.45 3.5,-1 0.33992,-0.55 1.55164,-1 2.69271,-1 2.00765,0 2.05332,-0.33118 1.41337,-10.25 -1.69506,-26.27252 -1.80243,-34.41345 -0.66271,-50.25 0.67289,-9.35 1.07341,-25.68886 0.89004,-36.30858 -0.33341,-19.308582 -0.33341,-19.308582 -2.5416,-17.250002 -1.2145,1.13222 -2.68311,2.05858 -3.26357,2.05858 -0.58046,0 -2.06177,0.52026 -3.29181,1.15613 -4.86451,2.51472 -5.79309,2.84387 -8.02286,2.84387 -1.27246,0 -2.74107,0.40852 -3.26357,0.90781 -0.5225,0.4993 -3.2,1.14417 -5.95,1.43304 -2.75,0.28886 -9.05,1.024762 -14,1.635322 -31.74543,3.91565 -60.66759,5.39636 -105.5,5.40122 -54.08294,0.006 -100.50794,-3.14109 -137.75,-9.337502 -3.4375,-0.57194 -8.8375,-1.46936 -12,-1.99426 -6.25842,-1.03876 -12.9511,-2.34326 -20.75,-4.04448 -2.75,-0.59988 -6.35,-1.3262 -8,-1.61406 -1.65,-0.28785 -3.9,-0.90881 -5,-1.37991 -1.1,-0.47109 -3.35,-1.13693 -5,-1.47965 -1.65,-0.34271 -4.125,-0.8605 -5.5,-1.15065 -1.375,-0.29014 -3.4,-0.89234 -4.5,-1.33822 -1.1,-0.44588 -4.025,-1.39023 -6.5,-2.09856 -2.475,-0.70832 -4.9275,-1.65961 -5.45,-2.11398 -0.5225,-0.45437 -1.76611,-0.82612 -2.76357,-0.82612 -1.77325,0 -2.83526,-0.40597 -7.65433,-2.92597 -3.33952,-1.74632 -4.44693,-0.24697 -5.32212,7.20576 -0.40175,3.42111 -1.19835,8.80771 -1.77022,11.97021 -0.57187,3.1625 -1.50737,8.337502 -2.07889,11.500002 -0.57151,3.1625 -1.29261,7.55 -1.60242,9.75 -0.30982,2.2 -0.96721,4.4275 -1.46088,4.95 -0.49366,0.5225 -0.89757,2.57 -0.89757,4.55 0,1.98 -0.40391,4.0275 -0.89757,4.55 -0.49367,0.5225 -1.1514,2.75 -1.46163,4.95 -1.19488,8.47347 -1.89356,11.53818 -2.75129,12.06829 -0.48923,0.30236 -0.88951,2.07163 -0.88951,3.93171 0,1.86008 -0.45,3.66008 -1,4 -0.55,0.33992 -1,2.13992 -1,4 0,1.86008 -0.45,3.66008 -1,4 -0.55,0.33992 -1,1.91492 -1,3.5 0,1.58508 -0.45,3.16008 -1,3.5 -0.55,0.33992 -1,1.51942 -1,2.62112 0,1.1017 -0.73452,4.24874 -1.63226,6.99343 -1.58504,4.846 -1.57179,5.04669 0.45819,6.9379 1.14974,1.07115 2.74676,1.94755 3.54892,1.94755 0.80217,0 1.60848,0.3375 1.79182,0.75 0.4801,1.08023 8.76233,5.25 10.42783,5.25 0.77303,0 1.4055,0.45 1.4055,1 0,0.55 0.59048,1 1.31217,1 0.72169,0 3.17496,0.9 5.45169,2 2.27674,1.1 4.83627,2 5.68783,2 0.85157,0 1.54831,0.45 1.54831,1 0,0.55 0.90611,1 2.01357,1 1.10746,0 3.01996,0.52026 4.25,1.15613 4.8844,2.525 5.79978,2.84387 8.16384,2.84387 1.35001,0 2.73267,0.45 3.07259,1 0.33992,0.55 1.68992,1 3,1 1.31008,0 2.66008,0.45 3,1 0.33992,0.55 1.91492,1 3.5,1 1.58508,0 3.16008,0.45 3.5,1 0.33992,0.55 2.13992,1 4,1 1.86008,0 3.66008,0.45 4,1 0.33992,0.55 2.07648,1 3.85902,1 1.78254,0 3.66848,0.40391 4.19098,0.89757 0.5225,0.49367 2.75,1.1458 4.95,1.44918 2.2,0.30339 6.475,1.04501 9.5,1.64806 10.10478,2.01443 19.53059,3.44727 39.5,6.0045 4.4,0.56346 14.19031,1.39692 21.75625,1.85216 7.56593,0.45523 14.07868,1.15013 14.47277,1.54422 0.9815,0.9815 85.89016,-0.0997 100.77098,-1.28319 z M 434.06284,89.652688 c 9.33248,-1.23906 9.33248,-1.23906 8.80274,-11.76318 -0.61872,-12.29186 -1.40442,-18.73721 -2.62384,-21.52412 -0.4813,-1.1 -1.14727,-3.575 -1.47993,-5.5 -1.46382,-8.47071 -1.71485,-9.60832 -2.53758,-11.5 -0.47842,-1.1 -1.10401,-3.575 -1.39021,-5.5 -0.28619,-1.925 -1.03595,-5.975 -1.66613,-9 -0.63017,-3.025 -1.35477,-9.66167 -1.61022,-14.74816 -0.45149,-8.9897595 -0.53786,-9.26657951 -3.09125,-9.90743951 -3.94743,-0.99074 -55.06783,2.30831001 -62.73606,4.04866001 -1.1,0.24966 -3.9125,0.48835 -6.25,0.53043 -3.81837,0.0687 -4.25,0.32442 -4.25,2.51749 0,1.34254 0.40028,2.68837 0.88951,2.9907295 0.48923,0.30237 1.14549,2.01642 1.45835,3.80902 0.31286,1.7926 1.06732,5.73427 1.67658,8.75927 2.06236,10.23966 3.00418,21.43094 3.58866,42.64272 0.58257,21.14273 0.58257,21.14273 11.23473,21.69977 20.22146,1.05746 37.25278,2.42478 37.86816,3.04016 1.02288,1.02289 12.19281,0.7222 22.11649,-0.59535 z m 83.16752,-0.74355 c 6.875,-0.58688 15.875,-1.50798 20,-2.04688 4.125,-0.53891 10.09469,-1.26327 13.26598,-1.6097 3.17129,-0.34642 6.01035,-1.02526 6.30902,-1.50852 0.29867,-0.48326 2.51492,-0.87865 4.925,-0.87865 2.41008,0 4.66008,-0.45 5,-1 0.33992,-0.55 2.13992,-1 4,-1 1.86008,0 3.66008,-0.45 4,-1 0.33992,-0.55 2.13992,-1 4,-1 1.86008,0 3.66008,-0.45 4,-1 0.33992,-0.55 1.72258,-1 3.07259,-1 1.35,0 3.23594,-0.42282 4.19098,-0.9396 0.95504,-0.51678 2.97393,-1.20035 4.48643,-1.51905 3.78081,-0.79666 3.47175,-3.19774 -0.5,-3.88449 -1.7875,-0.30907 -4.825,-0.83897 -6.75,-1.17755 -1.925,-0.33857 -4.4,-1.00042 -5.5,-1.47077 -1.1,-0.47035 -4.025,-1.14842 -6.5,-1.50683 -2.475,-0.3584 -6.75,-1.09345 -9.5,-1.63343 -8.03579,-1.57789 -33.60847,-5.0609 -57.5,-7.83152 -18.43776,-2.13817 -34.59362,-4.14809 -47,-5.84718 -3.575,-0.48961 -6.88941,-0.67391 -7.36536,-0.40957 -0.47595,0.26434 -0.55628,2.55948 -0.1785,5.10031 1.32817,8.933 2.46344,15.67362 3.55699,21.11968 0.60742,3.025 1.35115,7.44878 1.65274,9.83062 0.54834,4.33062 0.54834,4.33062 23.19124,3.80541 12.45359,-0.28887 28.26789,-1.0054 35.14289,-1.59228 z m -174.39277,-3.68927 c 6.60723,-0.64552 6.60723,-0.64552 5.85219,-4.25 -0.41527,-1.98246 -0.80103,-10.17165 -0.85723,-18.1982 -0.0686,-9.7952 -0.4994,-15.07318 -1.31023,-16.05191 -1.299,-1.56798 -1.18994,-1.56849 -24.29196,0.11528 -14.44082,1.05251 -24.16873,2.24119 -33,4.03236 -3.025,0.61353 -7.525,1.3577 -10,1.6537 -2.475,0.29601 -4.9275,0.94457 -5.45,1.44124 -0.5225,0.49668 -2.40844,0.90305 -4.19098,0.90305 -1.78254,0 -3.5191,0.45 -3.85902,1 -0.33992,0.55 -2.13992,1 -4,1 -1.86008,0 -3.62935,0.40028 -3.93171,0.88951 -0.30237,0.48923 -2.01642,1.12236 -3.80902,1.40696 -1.7926,0.28459 -5.05927,1.05118 -7.25927,1.70353 -2.2,0.65235 -5.4625,1.41845 -7.25,1.70245 -1.7875,0.284 -3.25,0.82713 -3.25,1.20696 0,1.45027 2.49451,3.09059 4.7,3.09059 1.265,0 2.3,0.35176 2.3,0.78168 0,0.42993 2.1375,1.4056 4.75,2.16816 2.6125,0.76256 5.425,1.7083 6.25,2.10165 3.19658,1.52406 6.67745,2.76831 11,3.93199 2.475,0.6663 5.28139,1.61759 6.23643,2.11398 0.95504,0.4964 3.06598,0.90254 4.69098,0.90254 1.62501,0 3.20329,0.40247 3.50731,0.89437 0.30401,0.4919 2.24306,1.14929 4.30901,1.46087 2.06595,0.31158 6.45627,1.03953 9.75627,1.61766 3.3,0.57814 11.11753,1.47578 17.3723,1.99476 6.25476,0.51898 11.65476,1.2361 12,1.5936 0.34523,0.35749 3.4402,0.37746 6.8777,0.0444 3.4375,-0.3331 9.22325,-0.89611 12.85723,-1.25115 z"
       id="path3361"
       inkscape:connector-curvature="0"
       inkscape:export-xdpi="90"
       inkscape:export-ydpi="90" />
  </g>
</svg>
