<?xml version="1.0" encoding="UTF-8" standalone="no"?>
<!-- Created with Inkscape (http://www.inkscape.org/) -->

<svg
   xmlns:dc="http://purl.org/dc/elements/1.1/"
   xmlns:cc="http://creativecommons.org/ns#"
   xmlns:rdf="http://www.w3.org/1999/02/22-rdf-syntax-ns#"
   xmlns:svg="http://www.w3.org/2000/svg"
   xmlns="http://www.w3.org/2000/svg"
   xmlns:sodipodi="http://sodipodi.sourceforge.net/DTD/sodipodi-0.dtd"
   xmlns:inkscape="http://www.inkscape.org/namespaces/inkscape"
   width="84.666672mm"
   height="73.996826mm"
   viewBox="0 0 300.00002 262.19348"
   id="svg3466"
   version="1.1"
   inkscape:version="0.91 r13725"
   sodipodi:docname="pot2.svg"
   inkscape:export-filename="C:\Users\rodri\Documents\rmelo19-eagle\IMG\pot2.png"
   inkscape:export-xdpi="90"
   inkscape:export-ydpi="90">
  <defs
     id="defs3468" />
  <sodipodi:namedview
     id="base"
     pagecolor="#ffffff"
     bordercolor="#666666"
     borderopacity="1.0"
     inkscape:pageopacity="0.0"
     inkscape:pageshadow="2"
     inkscape:zoom="1.4"
     inkscape:cx="88.1401"
     inkscape:cy="110.50785"
     inkscape:document-units="px"
     inkscape:current-layer="layer1"
     showgrid="false"
     inkscape:window-width="1280"
     inkscape:window-height="657"
     inkscape:window-x="-8"
     inkscape:window-y="-8"
     inkscape:window-maximized="1"
     fit-margin-top="0"
     fit-margin-left="0"
     fit-margin-right="0"
     fit-margin-bottom="0" />
  <metadata
     id="metadata3471">
    <rdf:RDF>
      <cc:Work
         rdf:about="">
        <dc:format>image/svg+xml</dc:format>
        <dc:type
           rdf:resource="http://purl.org/dc/dcmitype/StillImage" />
        <dc:title></dc:title>
      </cc:Work>
    </rdf:RDF>
  </metadata>
  <g
     inkscape:label="Layer 1"
     inkscape:groupmode="layer"
     id="layer1"
     transform="translate(-495.9234,-406.71742)">
    <path
       style="fill:#000000"
       d="m 589.42892,667.66572 c -33.61171,-10.45807 -64.97828,-41.8306 -81.63476,-81.65025 -8.4857,-20.2863 -11.81487,-34.35398 -11.87025,-50.1589 -0.0785,-22.41047 8.91169,-37.50891 30.02557,-50.42585 10.16671,-6.21973 16.41444,-8.06967 27.25326,-8.06967 16.76008,0 34.50272,7.69785 52.90691,22.95424 23.43014,19.42274 38.65958,41.4966 49.86889,72.28101 5.18716,14.24562 5.62051,16.5185 6.20982,32.57049 0.55201,15.03594 0.26155,18.38939 -2.25762,26.06352 -3.55741,10.83702 -12.82031,22.89739 -21.36632,27.81916 -7.0309,4.04918 -6.88784,5.63852 0.34127,3.79158 28.26439,-7.22111 38.78752,-42.30162 25.57663,-85.26374 -7.32873,-23.83319 -26.16367,-53.88426 -45.69649,-72.90858 -30.79686,-29.99508 -61.95756,-39.24786 -89.33157,-26.52591 -6.1756,2.87009 -6.59249,2.92689 -4.30336,0.58639 3.08563,-3.15485 17.27643,-11.35168 35.60383,-20.56538 27.60155,-13.87606 64.34068,-33.06441 70.15855,-36.64285 3.29066,-2.02401 10.97124,-6.01424 17.06797,-8.86719 9.43407,-4.41463 12.68311,-5.27637 21.81566,-5.7861 13.20497,-0.73703 23.2054,1.19002 35.42722,6.82674 36.14661,16.67082 67.05242,51.61337 82.01329,92.72536 5.58161,15.33811 6.03467,17.15745 7.86543,31.58558 2.22878,17.56485 -0.0954,32.9553 -6.81817,45.14843 -5.84675,10.60431 -11.72788,15.10512 -35.00326,26.78781 -9.49149,4.76409 -32.42083,17.03288 -79.19538,42.37504 -25.67018,13.90793 -30.82396,15.34095 -58.71381,16.32546 -15.29073,0.53977 -21.86579,0.29231 -25.94331,-0.97639 z m 30.11211,-3.89631 c 7.11849,-2.75209 16.41805,-12.41088 19.85375,-20.6207 2.38305,-5.69442 3.11743,-10.44479 3.46127,-22.3891 0.65203,-22.65059 -4.18972,-39.93986 -18.48948,-66.02369 -14.63182,-26.68953 -41.01482,-51.164 -65.66,-60.91022 -10.67845,-4.22292 -26.18417,-4.97152 -34.2543,-1.65379 -13.1213,5.39435 -20.43752,14.83269 -23.63388,30.48913 -6.90543,33.82397 11.76564,81.2756 44.63452,113.43652 25.79697,25.24133 53.55662,35.60953 74.08812,27.67185 z m -31.10466,-8.36677 c -30.99595,-6.76523 -63.26894,-39.76899 -77.47312,-79.22735 -13.42407,-37.29129 -5.24338,-68.80469 19.58884,-75.45945 6.98237,-1.87119 9.11934,-1.94296 16.38524,-0.55033 10.41973,1.99714 20.0625,5.92091 28.5891,11.63331 30.55906,20.47305 52.88666,56.52961 56.82685,91.76901 2.2124,19.78664 -1.8373,34.76503 -11.92239,44.09665 -8.3853,7.75883 -19.53966,10.4566 -31.99452,7.73816 z m 14.53524,-3.19261 c 4.09429,-1.45375 4.49826,-0.65863 -23.59138,-46.43462 -7.61555,-12.41061 -13.84647,-23.24131 -13.84647,-24.06821 0,-1.94347 2.81197,-4.53569 4.92017,-4.53569 0.90371,0 3.85827,4.03454 6.56569,8.96567 5.79016,10.54589 31.38661,51.99475 35.26792,57.11011 3.31495,4.36892 4.80594,3.97163 9.56054,-2.5474 5.8908,-8.07686 8.35296,-19.09347 7.42148,-33.20623 -2.60398,-39.45238 -31.68992,-82.48059 -66.84225,-98.88288 -6.61551,-3.08683 -10.73666,-4.08196 -18.59024,-4.48896 -12.80013,-0.66334 -18.70449,0.99679 -25.10047,7.0575 -7.63737,7.23703 -10.89644,16.9938 -10.85986,32.51146 0.10077,42.76308 34.79406,92.66774 74.04227,106.50651 7.40219,2.60999 16.83158,3.51148 21.0526,2.01274 z m 70.72607,-3.73534 c 4.71954,-2.47622 11.36616,-6.0296 14.77028,-7.8964 3.40411,-1.8668 11.83724,-6.48812 18.74027,-10.26962 6.90306,-3.78149 12.36355,-7.04889 12.13444,-7.26089 -0.79889,-0.73919 -55.49741,28.20912 -55.49741,29.37112 0,1.06223 1.30984,0.53786 9.85242,-3.94421 z m -24.84132,-4.58173 c 27.64631,-35.31328 -4.27856,-116.74466 -59.17185,-150.93075 -16.4151,-10.2229 -36.06231,-14.44377 -48.52325,-10.4244 -5.04604,1.62764 -4.43603,3.6672 1.09681,3.6672 7.45887,0 21.61894,5.10346 32.75132,11.80397 22.7454,13.69029 42.58943,35.73579 56.82557,63.12971 9.08174,17.4756 13.97962,34.55742 15.10266,52.67209 0.78489,12.6604 0.057,18.06112 -4.38529,32.53316 -1.40643,4.58193 1.76268,3.34979 6.30403,-2.45098 z m 61.41377,-21.2665 c 36.42962,-19.00985 33.91434,-17.66573 56.60274,-30.24747 9.35199,-5.1861 16.82355,-9.59589 16.60348,-9.79951 -0.55533,-0.51384 -23.5013,11.12082 -47.94562,24.31066 -11.26486,6.07837 -24.47547,13.15285 -29.35691,15.72104 -14.97097,7.87646 -36.86681,20.3965 -36.86681,21.08043 0,0.35608 1.99695,-0.47046 4.43767,-1.83678 2.44072,-1.36632 18.87718,-10.01909 36.52545,-19.22837 z m -24.57787,6.53308 c 14.60758,-7.65673 16.66695,-8.74795 49.83847,-26.40833 24.04911,-12.80365 50.8128,-27.54981 52.45556,-28.90175 0.3129,-0.25753 0.2306,-0.78127 -0.18289,-1.16387 -0.41349,-0.3826 -4.35619,1.13429 -8.76155,3.37087 -4.40536,2.23658 -12.00365,6.04732 -16.88509,8.4683 -4.88144,2.42099 -13.17647,6.78843 -18.4334,9.70542 -5.25695,2.91701 -14.16642,7.74029 -19.79885,10.71844 -41.25082,21.81128 -55.70334,30.42593 -50.86255,30.31741 0.56325,-0.0126 6.24688,-2.76056 12.6303,-6.10649 z m 1.36543,-8.84551 c 13.78106,-7.273 32.40376,-17.20695 51.20392,-27.31384 7.5099,-4.03729 15.80493,-8.45797 18.4334,-9.82373 10.25656,-5.32934 29.4939,-16.00261 32.08563,-17.80176 1.5008,-1.04184 2.32398,-2.26876 1.82928,-2.7265 -1.11256,-1.02944 -8.8144,2.81177 -53.71376,26.78913 -52.08602,27.8152 -62.5304,33.67409 -63.15665,35.42841 -0.92216,2.58329 1.12306,1.88431 13.31818,-4.55171 z m 44.45711,-3.41439 c 2.49917,-1.85265 2.4556,-1.87895 -0.7631,-0.46057 -4.17965,1.84183 -4.95428,2.42541 -3.21943,2.42541 0.73263,0 2.52476,-0.88417 3.98253,-1.96484 z m -18.26506,-19.01101 c 19.01346,-10.22675 37.94938,-20.40927 42.07983,-22.62784 27.60625,-14.82799 32.33966,-17.4697 34.4773,-19.24173 2.71192,-2.24807 3.11342,-4.11603 0.88472,-4.11603 -1.56556,0 -15.82042,7.39756 -65.40164,33.94018 -16.1463,8.6437 -33.21418,17.73416 -37.92859,20.201 -10.04064,5.25384 -14.35395,8.67856 -13.16747,10.45487 1.1928,1.78581 0.68907,2.02584 39.05585,-18.61045 z m 27.06002,13.93811 c 0,-0.34744 -1.22889,-0.0232 -2.73087,0.72062 -1.50199,0.74378 -2.73088,1.6366 -2.73088,1.98404 0,0.34744 1.22889,0.0231 2.73088,-0.72062 1.50198,-0.74377 2.73087,-1.6366 2.73087,-1.98404 z m -46.66563,-13.66578 c 9.51981,-5.133 20.9954,-11.17186 25.50135,-13.4197 10.53451,-5.25526 42.66217,-22.42488 47.10759,-25.17517 1.87747,-1.16155 8.16802,-4.64015 13.979,-7.7302 5.81095,-3.09004 10.57292,-6.36724 10.58213,-7.28268 0.0243,-2.41538 -3.67741,-1.04598 -18.86799,6.98 -7.26167,3.83672 -15.96805,8.4121 -19.34751,10.16749 -31.81714,16.52692 -73.69692,39.29242 -76.77366,41.73352 -2.06819,1.64091 -2.1828,4.05944 -0.19237,4.05944 0.38652,0 8.49167,-4.19972 18.01146,-9.3327 z m -11.57685,-3.14945 c 17.12835,-8.85353 34.51335,-17.95209 36.39548,-19.04781 1.12649,-0.65581 13.81518,-7.45999 28.1971,-15.12038 32.37663,-17.24511 44.17108,-24.05564 44.17108,-25.50591 0,-2.99412 -7.54985,0.47705 -45.05943,20.71681 -2.62847,1.4183 -6.31515,3.32974 -8.19262,4.24764 -18.65662,9.12132 -63.58585,34.59667 -63.93432,36.25144 -0.59714,2.83548 0.25666,2.67919 8.42271,-1.54179 z m 21.37567,-20.65534 c 42.10577,-22.21223 82.4292,-44.13648 84.5986,-45.99711 1.48948,-1.27749 1.59828,-2.06856 0.43283,-3.14695 -1.59621,-1.47695 -20.06504,7.76 -83.92824,41.97561 -31.24812,16.7416 -34.77338,18.9855 -33.29782,21.19464 1.44239,2.15946 1.84726,1.98307 32.19463,-14.02619 z m -13.74257,-3.10967 c 16.98329,-8.90838 36.0071,-19.03299 41.05132,-21.8478 1.12648,-0.62862 7.27095,-3.93344 13.65437,-7.34408 6.38342,-3.41062 17.75069,-9.48378 25.26059,-13.49587 15.41654,-8.23616 17.77957,-9.94407 16.47035,-11.90417 -1.08134,-1.61894 -8.36889,1.95402 -54.7026,26.81983 -18.02377,9.67278 -35.5355,19.02801 -38.91496,20.7894 -15.77863,8.22395 -22.53815,12.49614 -22.95721,14.50961 -0.2505,1.20359 0.011,2.18835 0.58054,2.18835 0.5698,0 9.37073,-4.37187 19.5576,-9.71527 z m -9.32242,-4.8141 c 6.10962,-3.12697 11.31225,-5.6854 11.56142,-5.6854 0.24918,0 6.47249,-3.32346 13.82958,-7.38547 7.35708,-4.06201 24.43656,-13.2472 37.9544,-20.41151 13.51783,-7.16433 28.10556,-15.06954 32.41718,-17.56714 7.76674,-4.49905 10.0545,-7.69967 5.50366,-7.69967 -1.86854,0 -18.13922,8.00576 -35.87269,17.65064 -4.77657,2.59787 -62.85299,33.70477 -70.64874,37.84089 -5.32076,2.82298 -8.5261,5.35152 -8.53399,6.73208 -0.0183,3.20798 1.46125,2.83517 13.78918,-3.47442 z m 5.21283,-13.08704 c 10.19418,-5.46067 22.22156,-11.79743 26.7275,-14.08169 4.50595,-2.28427 13.1082,-6.82473 19.11612,-10.08989 18.84472,-10.2417 36.64327,-19.75508 42.66992,-22.8072 5.42357,-2.74672 8.10848,-7.52733 4.22754,-7.52733 -1.78905,0 -12.5024,5.38222 -35.29123,17.72981 -8.6364,4.67941 -17.8531,9.64661 -20.48157,11.03822 -50.03953,26.49269 -60.58678,32.62116 -59.34404,34.48173 1.436,2.1499 3.6662,1.27842 22.37576,-8.74365 z m -14.4039,-2.70575 c 5.14054,-2.77953 9.56669,-5.0537 9.83586,-5.0537 0.26918,0 5.57746,-2.77661 11.79616,-6.17025 12.60196,-6.87706 18.12574,-9.81538 31.1056,-16.54636 4.88144,-2.53138 13.48369,-7.16798 19.11613,-10.30358 5.63242,-3.1356 15.30969,-8.41349 21.50503,-11.72866 12.47028,-6.67293 12.94166,-7.06885 11.31519,-9.50391 -1.1184,-1.67442 -3.22024,-0.78833 -23.94489,10.09466 -2.25297,1.1831 -8.70466,4.55367 -14.33708,7.49017 -5.63244,2.9365 -12.39135,6.62123 -15.01982,8.18831 -2.62847,1.56706 -17.83602,9.81982 -33.79458,18.33945 -21.57474,11.51788 -29.01554,16.10022 -29.01554,17.8689 0,3.27015 0.78022,3.08767 11.43794,-2.67503 z m 21.42941,-21.4782 c 18.19627,-9.72836 33.35774,-17.68793 33.69218,-17.68793 1.32982,0 8.53953,-5.2919 8.53953,-6.26798 0,-2.98349 -5.25366,-2.19919 -13.48308,2.01285 -16.24689,8.31556 -62.24078,33.60064 -64.65602,35.54456 -2.53535,2.04058 -2.05271,4.08643 0.96407,4.08643 1.02255,0 16.74704,-7.95957 34.94332,-17.68793 z m -31.50192,5.91615 c 4.13045,-2.30161 10.88937,-5.9009 15.01982,-7.99843 4.13044,-2.09754 12.11825,-6.3538 17.75069,-9.45835 5.63242,-3.10455 15.30997,-8.42928 21.50564,-11.83274 10.61008,-5.82843 13.04892,-8.30628 9.93061,-10.08951 -1.64775,-0.94229 -13.12148,4.87002 -52.60054,26.64613 -24.46942,13.497 -23.06438,12.54914 -22.08882,14.9015 1.14923,2.77106 1.89467,2.61685 10.4826,-2.1686 z m -4.26252,-8.6893 c 20.21805,-10.63188 63.84963,-34.2713 65.36585,-35.41496 0.93874,-0.70808 1.7068,-2.4157 1.7068,-3.79473 0,-1.84258 -0.61655,-2.28841 -2.32553,-1.68161 -3.16153,1.12256 -72.01797,37.65955 -76.69717,40.69748 -1.06844,0.69368 1.18087,4.23039 2.6905,4.23039 0.87089,0 5.03769,-1.81645 9.25955,-4.03657 z m 1.17329,-11.53533 c 8.0825,-4.39527 18.38214,-9.85267 22.88808,-12.12759 4.50594,-2.27493 15.25876,-8.0024 23.89516,-12.72772 8.63639,-4.72532 23.84395,-12.98296 33.79457,-18.35034 9.95062,-5.36736 18.09205,-10.2573 18.09205,-10.86651 0,-2.33088 -4.45452,-0.8767 -17.36069,5.66743 -23.81766,12.07686 -48.77989,25.10125 -52.27663,27.27607 -3.45694,2.15008 -38.20884,20.78654 -44.41665,23.81942 -3.41804,1.66991 -4.11457,2.93048 -2.46336,4.45832 1.61312,1.49259 2.91547,0.97091 17.84747,-7.14908 z m 21.99155,-21.27248 c 11.52276,-6.14114 21.1328,-11.16571 21.35567,-11.16571 0.22285,0 8.92133,-4.6268 19.32993,-10.28176 10.4086,-5.65498 21.07531,-11.39396 23.70377,-12.7533 6.6118,-3.41937 7.6541,-4.5005 5.9019,-6.12178 -1.05166,-0.97309 -9.40761,2.75485 -29.28864,13.0669 -15.29943,7.93563 -30.58217,15.8489 -33.96164,17.58504 -19.48261,10.00888 -48.11157,25.50418 -50.68845,27.43491 -1.75422,1.31435 -2.5785,2.87457 -1.98675,3.76052 1.1164,1.6714 9.76376,-2.40742 45.63421,-21.52482 z m -35.58964,8.62975 c 14.24625,-7.22999 45.6548,-23.55508 53.65838,-27.8898 2.68578,-1.45462 13.97488,-7.47059 25.08685,-13.36883 18.65578,-9.90251 22.82928,-12.85753 20.80486,-14.7307 -0.89557,-0.82866 -17.74456,7.4125 -51.33358,25.1082 -47.75279,25.15759 -64.29968,34.42334 -64.29968,36.00584 0,2.63224 2.14583,1.9485 16.08317,-5.12471 z m 21.03512,-20.63922 c 22.01591,-11.5822 44.02283,-23.1416 48.90427,-25.68756 10.42919,-5.43945 23.6438,-12.68259 24.48684,-13.42164 0.32544,-0.28528 -0.0816,-1.14177 -0.90468,-1.90329 -1.08489,-1.00383 -4.25152,-0.0881 -11.5152,3.33011 -5.51034,2.59308 -11.55492,5.66498 -13.4324,6.82645 -1.87748,1.16148 -6.79305,3.75578 -10.9235,5.76511 -6.58224,3.20206 -41.05945,21.38519 -70.66139,37.26652 -5.44468,2.92105 -9.89942,5.73564 -9.89942,6.25464 0,1.22373 1.53293,2.6282 2.86858,2.6282 0.57639,0 19.061,-9.47635 41.0769,-21.05854 z m 85.58931,16.09065 c 9.38471,-4.43002 22.11862,-12.82682 21.30328,-14.0475 -1.38449,-2.0728 -4.06519,-1.34835 -14.33092,3.87291 -12.26789,6.2396 -13.61778,7.255 -13.61778,10.24347 0,2.94143 0.27428,2.93859 6.64542,-0.0688 z m -12.10717,-2.54221 c 0,-2.75066 -6.12688,-9.97792 -7.4353,-8.77066 -0.73419,0.67741 5.83886,11.22706 6.99513,11.22706 0.24209,0 0.44017,-1.10538 0.44017,-2.4564 z M 625.61301,492.3306 c 6.98693,-3.66193 24.84153,-12.90916 37.54953,-19.44761 3.00397,-1.54558 11.60622,-6.0745 19.11612,-10.06425 7.50991,-3.98976 15.49772,-8.23197 17.75069,-9.42715 2.25297,-1.19516 9.82373,-5.1624 16.82389,-8.81607 12.02447,-6.27606 15.45462,-9.15211 13.29673,-11.14878 -1.00892,-0.93355 -20.8193,8.07414 -34.21693,15.5583 -4.50594,2.5171 -11.26486,6.14477 -15.01981,8.06148 -3.75495,1.91673 -12.97166,6.7895 -20.48156,10.82841 -7.50991,4.03891 -17.05542,9.10478 -21.21226,11.25749 -4.15682,2.15272 -11.37657,5.89302 -16.04388,8.31179 -5.41568,2.8066 -8.48602,5.20649 -8.48602,6.63297 0,3.14088 2.2999,2.77315 10.9235,-1.74658 z m -5.73203,-7.25592 c 5.78107,-2.70634 20.03498,-10.03975 31.67534,-16.29646 11.64036,-6.25673 26.91507,-14.41831 33.94381,-18.13687 26.28687,-13.9071 36.2423,-19.65523 36.82024,-21.25949 0.42466,-1.17881 -0.34153,-1.43351 -2.67921,-0.89063 -4.98281,1.15718 -76.13577,38.20457 -110.11556,57.33415 -1.71365,0.96474 -2.75267,2.29764 -2.30892,2.96198 1.13734,1.70277 1.02723,1.73505 12.6643,-3.71268 z m 133.8613,0.29513 c 9.77496,-4.97009 13.87623,-7.76844 13.87623,-9.468 0,-2.35563 -5.30606,-0.7378 -15.36117,4.68364 -5.82018,3.13808 -10.58215,6.53905 -10.58215,7.55772 0,2.78106 2.08558,2.30174 12.06709,-2.77336 z m -136.3219,-8.14368 c 7.88541,-4.21657 33.23134,-17.64928 56.3243,-29.85046 23.09296,-12.20118 41.9872,-22.66949 41.9872,-23.26289 0,-2.09957 -5.70153,-1.03611 -12.02617,2.24313 -3.52398,1.82714 -14.39504,7.4504 -24.15792,12.49614 -64.98195,33.58457 -86.3747,46.17485 -78.27141,46.06505 0.9938,-0.0134 8.25861,-3.4744 16.144,-7.69097 z m 125.12213,3.57987 c 8.86484,-3.64578 19.61425,-10.12222 19.61425,-11.81746 0,-3.8209 -4.44177,-3.0491 -14.66163,2.54761 -14.63587,8.01505 -14.47462,7.90126 -13.42419,9.47391 1.22484,1.83377 3.65909,1.77513 8.47157,-0.20406 z M 613.15999,469.94714 c 10.22862,-5.46742 22.5914,-11.95039 27.47283,-14.4066 10.13938,-5.10186 57.81484,-30.48932 62.51228,-33.28815 1.71366,-1.02102 2.73626,-2.42454 2.27246,-3.11894 -1.21939,-1.8256 -30.623,13.00453 -109.49419,55.22499 -4.31274,2.30864 -6.00403,5.52946 -2.90358,5.52946 0.84848,0 9.91158,-4.47335 20.1402,-9.94076 z m -21.85493,2.44141 c 2.84951,-1.3451 19.56871,-10.06808 37.15377,-19.38438 35.4285,-18.7695 41.28389,-21.84466 55.18528,-28.98237 5.25693,-2.6992 10.45778,-5.73132 11.55745,-6.73807 1.75369,-1.6055 1.6952,-1.83043 -0.47584,-1.83043 -3.57925,0 -111.44127,56.41805 -111.44127,58.2902 0,1.70454 2.39718,1.29957 8.02061,-1.35495 z m -3.51243,-6.34285 c 5.08414,-2.74903 13.67665,-7.21594 19.09446,-9.92648 17.00356,-8.50685 39.13865,-20.5894 39.95291,-21.80846 1.36808,-2.04821 -1.99018,-1.26853 -9.3248,2.16492 -9.6026,4.49512 -61.40776,31.95029 -63.03782,33.40812 -3.448,3.08371 5.03732,0.63785 13.31525,-3.8381 z m -0.89254,-7.38825 c 35.37059,-18.43816 46.90555,-24.78967 46.90555,-25.8277 0,-0.57002 -5.37641,1.63264 -11.94758,4.89477 -10.43348,5.17951 -16.89438,8.50489 -35.16002,18.09661 -2.25297,1.18308 -8.24382,4.28833 -13.31301,6.90054 -5.06919,2.6122 -9.2167,4.9848 -9.2167,5.27245 0,1.83927 6.09469,-0.66401 22.73176,-9.33667 z m -10.67243,-1.71439 c 11.01564,-5.67083 24.94402,-12.84058 30.95194,-15.93276 11.90006,-6.1248 14.72798,-7.92853 13.79047,-8.79601 -0.33695,-0.31176 -4.4993,1.41078 -9.24971,3.82787 -4.75038,2.41709 -11.70931,5.93985 -15.46426,7.82835 -17.45702,8.77975 -43.01128,22.34899 -43.01128,22.83887 0,1.62877 4.85675,-0.43504 22.98284,-9.76632 z m 50.92496,-27.16724 c 1.69927,-1.906 1.58754,-1.96076 -1.19825,-0.58726 -3.17732,1.56653 -3.95968,2.68925 -1.87398,2.68925 0.65903,0 2.04153,-0.94589 3.07223,-2.10199 z m 43.27526,-7.17053 c 6.68281,-3.71013 13.15838,-7.10353 14.39018,-7.5409 2.46215,-0.87421 3.07646,-3.40136 0.82683,-3.40136 -1.78853,0 -23.04405,11.03216 -26.2373,13.61785 -2.22323,1.80021 -3.20471,4.07008 -1.75989,4.07008 0.34631,0 6.09738,-3.03555 12.78018,-6.74567 z m -18.87156,1.6607 c 0,-1.47695 -6.82366,-4.1834 -7.94096,-3.14958 -0.94154,0.8712 3.98443,4.35113 6.23416,4.40409 0.93875,0.0221 1.7068,-0.54243 1.7068,-1.25451 z m 22.58737,-12.68926 c 1.0891,-1.63055 -5.6738,1.51232 -9.61571,4.46864 -1.90547,1.42905 -1.00488,1.27268 2.97959,-0.51737 3.14075,-1.41099 6.127,-3.18906 6.63612,-3.95127 z m -18.49105,3.87657 c 1.12648,-0.67361 1.4337,-1.22473 0.68271,-1.22473 -0.75099,0 -2.2871,0.55112 -3.41359,1.22473 -1.12649,0.6736 -1.43371,1.22473 -0.68272,1.22473 0.75099,0 2.28711,-0.55113 3.4136,-1.22473 z"
       id="path3485"
       inkscape:connector-curvature="0" />
  </g>
</svg>
