<?xml version="1.0" encoding="UTF-8" standalone="no"?>
<!-- Created with Inkscape (http://www.inkscape.org/) -->

<svg
   xmlns:dc="http://purl.org/dc/elements/1.1/"
   xmlns:cc="http://creativecommons.org/ns#"
   xmlns:rdf="http://www.w3.org/1999/02/22-rdf-syntax-ns#"
   xmlns:svg="http://www.w3.org/2000/svg"
   xmlns="http://www.w3.org/2000/svg"
   xmlns:sodipodi="http://sodipodi.sourceforge.net/DTD/sodipodi-0.dtd"
   xmlns:inkscape="http://www.inkscape.org/namespaces/inkscape"
   width="84.666664mm"
   height="75.79702mm"
   viewBox="0 0 299.99999 268.57212"
   id="svg2"
   version="1.1"
   inkscape:version="0.91 r13725"
   sodipodi:docname="pot3.svg">
  <defs
     id="defs4" />
  <sodipodi:namedview
     id="base"
     pagecolor="#ffffff"
     bordercolor="#666666"
     borderopacity="1.0"
     inkscape:pageopacity="0.0"
     inkscape:pageshadow="2"
     inkscape:zoom="0.35"
     inkscape:cx="759.57451"
     inkscape:cy="-3.7867141"
     inkscape:document-units="px"
     inkscape:current-layer="layer1"
     showgrid="false"
     fit-margin-top="0"
     fit-margin-left="0"
     fit-margin-right="0"
     fit-margin-bottom="0"
     inkscape:window-width="1280"
     inkscape:window-height="657"
     inkscape:window-x="-8"
     inkscape:window-y="-8"
     inkscape:window-maximized="1" />
  <metadata
     id="metadata7">
    <rdf:RDF>
      <cc:Work
         rdf:about="">
        <dc:format>image/svg+xml</dc:format>
        <dc:type
           rdf:resource="http://purl.org/dc/dcmitype/StillImage" />
        <dc:title></dc:title>
      </cc:Work>
    </rdf:RDF>
  </metadata>
  <g
     inkscape:label="Layer 1"
     inkscape:groupmode="layer"
     id="layer1"
     transform="translate(384.57451,-488.57481)">
    <path
       style="fill:#000000"
       d="m -351.28395,756.47292 c 0.58479,-0.25498 9.29975,-6.92749 19.36658,-14.8278 10.06683,-7.90031 20.53574,-16.11546 23.26426,-18.25589 2.72851,-2.14045 6.60342,-5.20001 8.61091,-6.79903 2.00749,-1.59904 12.81497,-10.09444 24.01661,-18.87866 11.20165,-8.78423 21.87356,-17.1649 23.71537,-18.62371 3.28014,-2.59806 3.38713,-2.63858 5.22268,-1.9785 1.03068,0.37064 3.61386,1.02865 5.74042,1.46222 3.8452,0.784 3.86987,0.80149 4.48258,3.17829 0.604,2.343 0.72445,2.43452 6.13065,4.65803 10.14039,4.17065 9.46725,3.68664 9.94076,7.14763 0.4175,3.05159 0.4175,3.05159 4.73099,4.91376 2.37242,1.02419 4.48197,2.06649 4.68789,2.31622 0.64625,0.78374 4.08663,-0.007 6.60161,-1.51817 2.41498,-1.45065 2.41498,-1.45065 7.95205,0.71437 5.53707,2.165 5.53707,2.165 5.94028,5.11213 0.22176,1.62092 0.77646,3.29789 1.23266,3.72659 1.33585,1.25533 10.05417,4.89154 11.31467,4.71909 0.6346,-0.0868 2.39691,-0.88593 3.91625,-1.7758 2.76242,-1.61795 2.76242,-1.61795 5.9449,-0.43313 6.28086,2.33832 6.55251,2.57104 7.02403,6.01745 0.42286,3.09078 0.42286,3.09078 5.20784,5.30947 5.33947,2.47578 7.15228,2.53902 11.2729,0.39324 2.51103,-1.30759 2.51103,-1.30759 7.54407,0.69976 2.76818,1.10405 5.4961,1.944 6.06205,1.86657 0.56594,-0.0774 3.27577,-1.90488 6.02183,-4.06099 5.45124,-4.28012 5.42714,-4.22983 4.85591,-10.13275 -0.35746,-3.69374 -0.35746,-3.69374 5.74966,-9.1956 3.45686,-3.11425 6.36883,-6.22631 6.71017,-7.17123 0.36417,-1.00809 0.37561,-2.82784 0.0289,-4.59383 -0.57416,-2.92446 -0.57416,-2.92446 -8.67673,-6.09265 -8.10258,-3.16818 -8.10258,-3.16818 -10.67601,-23.08807 -2.57343,-19.91989 -2.57343,-19.91989 5.53153,-26.19046 23.953176,-18.53182 27.564939,-21.45386 29.855401,-24.1541 15.086779,-17.78585 6.37476,-55.36362 -19.880771,-85.75219 -15.84817,-18.34293 -34.03546,-30.69282 -51.65437,-35.0754 -9.59103,-2.3857 -19.37399,-1.96968 -25.94006,1.10308 -2.85323,1.33524 -16.9134,11.94384 -48.79921,36.8197 -3.3047,2.57818 -7.07849,5.50193 -8.38622,6.49722 -3.73031,2.83909 -7.72187,8.60082 -9.33212,13.47072 -2.07991,6.29027 -2.43196,10.43603 -1.62164,19.09651 0.72117,7.7077 0.72117,7.7077 -1.34745,10.65527 -4.16139,5.92954 -5.12492,11.77225 -3.74031,22.6807 0.93399,7.35828 0.93399,7.35828 -5.63895,12.14712 -8.68035,6.32424 -10.12184,7.84102 -11.63637,12.24414 -0.99393,2.88956 -1.19322,4.69313 -0.94188,8.52397 0.35849,5.46394 2.40787,3.26034 -17.55955,18.88095 -13.26212,10.37502 -37.43776,29.34992 -47.25702,37.09093 -5.31087,4.18683 -15.76811,12.38925 -23.23831,18.22761 -13.53126,10.5754 -13.58663,10.62752 -14.7708,13.9045 -1.11085,3.07409 -1.12547,3.62117 -0.22348,8.3615 1.62065,8.51721 6.69746,16.21473 14.58887,22.11981 5.80749,4.34571 13.85825,6.36973 18.05597,4.53941 z m -9.17891,-2.78956 c -4.06123,-1.28262 -10.86328,-6.30614 -14.12723,-10.4334 -7.09243,-8.96837 -9.2982,-20.60072 -4.54117,-23.94834 6.21995,-4.37711 18.37277,1.91102 25.95116,13.42772 3.20883,4.87637 5.26882,12.56662 4.33665,16.18934 -1.29886,5.04778 -5.39919,6.72916 -11.61941,4.76468 z m 225.40261,-67.60397 c -4.89394,-35.90471 -4.89394,-35.90471 -1.64355,-38.80697 1.78772,-1.59624 3.40821,-2.92385 3.60109,-2.95023 0.19289,-0.0264 2.57685,16.10587 5.29769,35.84947 4.94698,35.89746 4.94698,35.89746 1.42849,38.78976 -1.93517,1.59078 -3.57953,2.92165 -3.65413,2.9575 -0.0746,0.0359 -2.33792,-16.09193 -5.02959,-35.83953 z m -11.82713,30.7925 c -3.80133,-1.54986 -3.80133,-1.54986 -4.43829,-4.96786 -0.63696,-3.41799 -0.63696,-3.41799 -5.21904,-5.24866 -6.00568,-2.39943 -6.67951,-2.29161 -6.22961,0.99686 0.20971,1.5328 0.0908,2.58969 -0.29728,2.64279 -0.71841,0.0983 -4.50566,-1.50562 -11.73036,-4.96782 -4.79587,-2.29826 -4.79587,-2.29826 -5.15365,-4.91339 -0.41111,-3.00484 -0.77731,-3.32417 -6.48997,-5.65927 -4.8808,-1.99506 -5.74612,-1.77158 -5.54215,1.43131 0.0852,1.33726 0.008,2.45143 -0.17088,2.47594 -0.52796,0.0722 -10.59528,-4.14814 -14.29983,-5.99469 -3.38425,-1.6869 -3.4194,-1.72923 -4.15402,-5.00337 -0.7409,-3.30206 -0.7409,-3.30206 -5.78373,-5.1956 -5.7776,-2.16945 -6.74679,-1.86165 -6.22176,1.97593 0.16918,1.23656 0.0992,2.19007 -0.15542,2.11889 -0.25466,-0.0712 -2.86595,-1.10171 -5.80287,-2.29008 -4.56876,-1.84868 -5.36976,-2.37529 -5.54699,-3.64687 -0.17467,-1.24966 0.0912,-1.57746 1.66825,-2.05984 1.8573,-0.56811 9.95632,-5.78416 12.67655,-8.16413 1.17003,-1.02369 1.7333,-1.16973 3.29435,-0.85416 3.27534,0.66209 5.76703,0.008 7.29203,-1.91319 0.76085,-0.9587 1.33747,-2.07843 1.28139,-2.48831 -0.0561,-0.40988 -0.0369,-0.74501 0.0427,-0.74472 0.0795,2.8e-4 1.8627,0.23675 3.96255,0.52546 3.81791,0.52494 3.81791,0.52494 4.8662,3.54913 1.52864,4.40995 4.07124,7.91615 7.76607,10.70927 3.88298,2.93535 7.3082,3.78285 10.3709,2.56606 2.80922,-1.11608 4.28315,-5.09303 3.2553,-8.78339 -0.68658,-2.46508 -3.90893,-7.82524 -5.98161,-9.95001 -1.01641,-1.04195 -0.96561,-1.14153 1.34781,-2.64196 2.97195,-1.92755 2.84781,-1.91367 8.40916,-0.94085 11.19995,1.95912 19.67853,0.50576 26.76583,-4.58811 2.12518,-1.52743 4.0007,-2.79586 4.16781,-2.81872 0.41897,-0.0573 9.90075,69.49385 9.53892,69.97037 -0.16008,0.21082 -2.40515,-0.50778 -4.98903,-1.59691 -2.58389,-1.08914 -6.40858,-2.67768 -8.49932,-3.5301 z m -4.03291,-24.01319 c 3.29531,-2.25131 3.2102,-8.65735 -0.18458,-13.89152 -2.06622,-3.18576 -7.30761,-7.61028 -10.04291,-8.47772 -4.08833,-1.29653 -7.85659,0.19898 -9.04344,3.58908 -0.72146,2.06076 0.15898,6.74232 1.86312,9.90675 2.8624,5.31525 10.59708,10.56142 14.70514,9.97402 0.75931,-0.10882 1.97554,-0.60385 2.70267,-1.10061 z m -6.00423,-2.15966 c -0.92702,-0.32926 -2.11048,-0.99058 -2.62991,-1.46961 -0.86579,-0.79845 -0.83366,-0.83008 0.38579,-0.38004 0.73162,0.27002 2.22653,0.36831 3.32203,0.21843 2.47873,-0.33913 3.524,-2.11252 3.141,-5.32896 -0.21453,-1.80114 -0.13524,-2.06289 0.37027,-1.22305 1.05517,1.75301 1.39872,5.53214 0.63746,7.01224 -0.82353,1.60118 -2.78082,2.03969 -5.22664,1.17099 z m -1.64616,-4.67368 c -2.16071,-0.94326 -5.13682,-5.00209 -5.12572,-6.9905 0.0195,-3.48995 5.40077,-1.25062 7.56095,3.14636 1.06459,2.16695 1.22447,2.92885 0.76841,3.66155 -0.73411,1.17941 -0.8987,1.18879 -3.20364,0.18259 z m -8.65279,-6.50702 c -1.14725,-3.499 -0.31025,-6.19905 2.02052,-6.51793 1.94476,-0.26607 4.66188,0.52634 5.99437,1.74818 0.78258,0.71758 0.69957,0.73283 -0.88718,0.16307 -3.99636,-1.43505 -6.63795,0.59525 -6.16297,4.73678 0.35708,3.11348 0.0868,3.07704 -0.96474,-0.1301 z m -179.05644,63.79076 c -1.05399,-6.2681 -1.8933,-8.38664 -5.34148,-13.48278 -4.78473,-7.07143 -14.16361,-14.07273 -19.41764,-14.49519 -0.96346,-0.0775 -1.88173,-0.29852 -2.04062,-0.49121 -0.15889,-0.1927 2.80388,-2.76513 6.58395,-5.7165 3.78006,-2.95138 11.57119,-9.06387 17.31362,-13.58331 5.74242,-4.51943 20.66192,-16.24318 33.15445,-26.05274 12.49254,-9.80958 29.17454,-22.91545 37.07112,-29.12415 13.09084,-10.29269 14.58933,-11.3172 16.98607,-11.61317 3.57239,-0.44113 8.41743,1.25185 12.62394,4.41117 8.24091,6.1894 14.68066,16.57883 14.59098,23.54008 -0.0514,3.98901 -1.54531,6.32675 -6.53694,10.22909 -6.75311,5.27945 -42.74451,33.57222 -48.9983,38.51748 -3.01338,2.38287 -9.35687,7.36954 -14.09663,11.08152 -4.73976,3.71196 -15.78117,12.39944 -24.53646,19.30553 -8.75528,6.90608 -16.04437,12.58891 -16.19797,12.62851 -0.15361,0.0396 -0.67474,-2.27985 -1.15809,-5.15433 z m 189.71386,-23.82744 c -2.19416,-0.9804 -2.19416,-0.9804 -2.99711,-5.84684 -0.44162,-2.67654 -0.59877,-4.8951 -0.34923,-4.93013 0.2495,-0.0354 1.61797,0.36279 3.04095,0.88404 2.58721,0.94769 2.58721,0.94769 3.31027,6.23269 0.55727,4.07319 0.54722,5.21114 -0.0438,4.96282 -0.4218,-0.1772 -1.75427,-0.76335 -2.96106,-1.30258 z m 6.40158,0.0342 c -0.0427,-0.3122 0.17778,-0.60257 0.48997,-0.64528 0.3122,-0.0427 0.60257,0.17777 0.64528,0.48996 0.0427,0.31219 -0.17777,0.60257 -0.48996,0.64529 -0.31219,0.0427 -0.60258,-0.17778 -0.64529,-0.48997 z m -34.76974,-11.28522 c -2.79044,-1.20421 -2.79044,-1.20421 -3.47052,-6.17506 -0.37405,-2.73396 -0.53399,-4.99083 -0.35544,-5.01526 0.17855,-0.0245 1.54639,0.46369 3.03965,1.0847 2.715,1.12912 2.715,1.12912 3.40655,6.1838 0.38036,2.78008 0.57425,5.07074 0.43088,5.09036 -0.14338,0.0196 -1.51638,-0.50623 -3.05112,-1.16854 z m 62.93506,-10.26477 c 0.0147,-0.60509 0.52323,-1.64324 1.13,-2.30699 2.9582,-3.23603 3.35119,-3.79525 3.23971,-4.61002 -0.066,-0.48237 -1.35611,-1.41349 -2.86692,-2.06916 -2.18671,-0.94897 -2.79494,-1.51563 -2.98225,-2.77841 -0.23528,-1.58629 -0.23528,-1.58629 3.88352,-0.0101 6.8224,2.61079 8.17065,3.2607 8.05383,3.88224 -0.16517,0.87882 -9.20694,9.17113 -9.89516,9.07497 -0.32424,-0.0453 -0.57746,-0.57744 -0.56273,-1.18254 z m -0.52955,-6.36082 c 0.49807,-0.65594 1.093,0.14762 0.72438,0.97839 -0.27845,0.62758 -0.4121,0.64632 -0.68326,0.096 -0.18542,-0.37639 -0.20391,-0.85979 -0.0411,-1.07421 z m -93.06856,4.00246 c -2.48492,-1.2566 -2.48492,-1.2566 -3.26275,-5.69572 -0.42781,-2.44153 -0.60172,-4.66359 -0.38646,-4.93792 0.21527,-0.27434 1.56527,-0.002 3.00002,0.60535 2.60862,1.10415 2.60862,1.10415 3.29966,6.15514 0.38007,2.77804 0.4983,5.0687 0.26275,5.09037 -0.23557,0.0216 -1.54652,-0.52608 -2.91322,-1.21722 z m 28.45234,-17.02388 c -2.89798,-1.43897 -2.98623,-1.77974 -0.27422,-1.05883 1.18137,0.31403 2.71306,0.31556 3.49016,0.004 1.57606,-0.63292 2.89222,-3.68848 2.25414,-5.2331 -0.23417,-0.56688 -0.20582,-1.06079 0.063,-1.09757 1.04053,-0.14236 1.82799,3.89863 1.16465,5.97661 -0.54736,1.71463 -0.95834,2.09066 -2.51822,2.30407 -1.06013,0.14504 -2.8627,-0.24081 -4.1795,-0.89466 z m -1.72228,-5.1209 c -2.43734,-1.85067 -4.05223,-4.92175 -3.60052,-6.84715 0.76166,-3.24655 7.59312,2.07085 8.18101,6.36785 0.37539,2.74382 -1.35909,2.92531 -4.58049,0.4793 z m -53.90077,2.06445 c -1.73089,-0.47958 -3.05583,-1.07762 -2.94429,-1.32899 0.11152,-0.25137 2.3877,-2.13268 5.05815,-4.1807 2.67045,-2.04801 5.3904,-4.34317 6.04434,-5.10036 2.04504,-2.36791 2.72161,-5.77054 2.08823,-10.50221 -0.69154,-5.166 -2.25057,-8.80879 -6.17949,-14.43856 -5.38797,-7.72043 -16.06603,-14.52654 -22.04125,-14.0489 -4.49047,0.35895 -5.50863,0.8461 -11.01503,5.27021 -3.09977,2.4905 -5.84101,4.43721 -6.09166,4.32599 -0.55019,-0.24412 -0.60633,-6.35406 -0.0793,-8.63206 0.70897,-3.06446 2.71485,-5.78179 5.52293,-7.48182 2.5308,-1.53216 3.12175,-1.67461 6.49988,-1.56675 16.55725,0.52861 37.54165,21.45309 40.39379,40.27845 1.22297,8.07211 -0.4213,13.39044 -5.07204,16.40535 -2.77611,1.79964 -7.80825,2.2128 -12.18425,1.00035 z m 46.10432,-8.77558 c -0.0967,-0.54335 0.0796,-1.02283 0.39182,-1.06555 0.3122,-0.0427 0.68072,0.88267 0.81894,2.05639 0.20159,1.71191 0.12411,1.92269 -0.39182,1.06555 -0.35373,-0.58768 -0.72226,-1.51305 -0.81894,-2.05639 z m -16.98498,-1.0972 c 1.35948,-1.44716 3.34273,-1.89117 3.05976,-0.68501 -0.25026,1.06675 -2.29255,2.33687 -3.36492,2.09268 -0.63986,-0.1457 -0.56772,-0.4785 0.30516,-1.40767 z m -8.71689,1.43319 c 0.54592,-1.95491 -0.67194,-12.18462 -1.86673,-15.68013 -6.03982,-17.67024 -23.27284,-33.89232 -38.52386,-36.26396 -2.64879,-0.41191 -2.64879,-0.41191 -0.0432,-0.94899 3.27795,-0.67569 8.86804,0.34879 13.49558,2.4733 4.62097,2.12149 13.01077,8.66709 17.19241,13.41327 10.33181,11.72666 15.39934,27.68751 11.40093,35.90875 -1.03595,2.13003 -2.14967,2.86871 -1.65513,1.09776 z m 20.58493,-4.73109 c -6.61171,-0.82165 -6.59863,-0.81623 -4.75739,-1.9699 3.99796,-2.505 8.91569,-7.10588 10.06733,-9.41871 2.52257,-5.06607 2.4109,-12.64334 -0.29938,-20.31347 -7.16467,-20.27613 -28.86566,-37.85815 -44.14679,-35.76748 -3.66007,0.50075 -5.38466,1.36009 -10.71625,5.3398 -2.29509,1.71315 -4.36882,3.06378 -4.60829,3.0014 -0.32722,-0.0852 1.15256,-14.79703 1.5644,-15.553 0.0425,-0.0781 3.63539,0.30321 7.98403,0.84746 4.34864,0.54424 11.7181,1.45502 16.37658,2.02394 4.65847,0.56893 8.72839,1.35102 9.04426,1.73798 0.90553,1.10932 16.2027,20.77267 23.14341,29.7491 6.29553,8.142 6.29553,8.142 4.33312,23.69364 -1.07932,8.55338 -2.02966,15.88608 -2.11185,16.29487 -0.19715,0.98044 -0.52436,0.99907 -5.87318,0.33437 z m 32.09719,-5.2042 c -4.13739,-0.29632 -6.48927,-0.83803 -5.95335,-1.37126 0.72432,-0.72068 6.78897,-4.83265 7.20244,-4.88343 0.60847,-0.0747 5.55381,5.25996 5.67115,6.11764 0.0479,0.34987 -0.49475,0.58815 -1.22732,0.53894 -0.72222,-0.0485 -3.28403,-0.22936 -5.69292,-0.40189 z m 9.01413,-2.47017 c -1.08202,-0.99886 -2.55614,-2.62375 -3.27581,-3.61087 -1.29473,-1.77588 -1.29797,-1.82343 -0.30726,-4.52256 0.90392,-2.4627 1.20102,-2.75515 3.057,-3.00907 1.48014,-0.20251 3.18147,0.26674 6.07598,1.67586 2.21111,1.07641 5.29641,2.25092 6.85622,2.61003 1.5598,0.3591 2.86029,0.83034 2.88995,1.0472 0.1145,0.83686 -4.45977,4.61134 -7.03183,5.80234 -4.49243,2.08023 -6.01705,2.08153 -8.26425,0.007 z m -30.40462,-8.25624 c 0.99711,-7.90356 1.96376,-14.78106 2.14812,-15.28334 0.38676,-1.0537 9.5646,-8.33513 9.82862,-7.79774 0.0966,0.19658 -0.67128,7.05612 -1.70636,15.24345 -1.88194,14.88604 -1.88194,14.88604 -6.7968,18.68798 -2.70318,2.09107 -4.99848,3.73845 -5.10068,3.66085 -0.1022,-0.0776 0.62999,-6.60765 1.6271,-14.5112 z m -25.60713,14.96886 c 0.58689,-4.50578 -1.10087,-12.62174 -3.83183,-18.42612 -4.4854,-9.53328 -10.59351,-17.03699 -19.04971,-23.40225 -5.90604,-4.44567 -10.33826,-6.60326 -16.30078,-7.93515 -3.71864,-0.83065 -3.71864,-0.83065 -0.3151,-1.3127 13.49061,-1.91072 33.80722,15.11888 40.44376,33.90041 1.9001,5.37727 2.42395,9.26816 1.82768,13.57481 -0.3925,2.83486 -2.03069,6.53512 -2.94884,6.66073 -0.12528,0.0172 -0.0466,-1.35973 0.17484,-3.05973 z m 36.48161,-7.01505 c 0.1388,-0.57556 1.11858,-7.93049 2.17728,-16.3443 1.05869,-8.41381 2.07982,-16.16329 2.26916,-17.22108 0.30793,-1.72027 0.0877,-2.23934 -2.08667,-4.91876 -1.33701,-1.64753 -8.31958,-10.64677 -15.51682,-19.99829 -7.19723,-9.35152 -13.42227,-17.13499 -13.8334,-17.29656 -1.07406,-0.42214 -34.22173,-4.46306 -35.34726,-4.30907 -0.9697,0.13267 -13.30013,9.48541 -14.26299,10.81862 -0.29703,0.41127 -0.93024,4.02466 -1.40716,8.02979 -1.19242,10.01409 -1.39259,10.59852 -2.0629,6.02268 -0.73043,-4.98632 -0.22734,-11.48811 1.17505,-15.18623 1.85896,-4.90212 3.98831,-7.19135 11.17238,-12.01125 6.69912,-4.49452 6.69912,-4.49452 12.37875,-5.24633 5.02951,-0.66571 6.235,-0.61489 10.53123,0.44433 10.55859,2.60319 23.80651,10.96349 33.32001,21.0271 4.88946,5.17217 12.78115,16.35226 15.6061,22.10901 6.27688,12.79118 8.31648,26.97724 5.02848,34.97476 -1.4157,3.44348 -3.61466,6.23332 -6.55339,8.31435 -2.96865,2.10221 -2.89886,2.08086 -2.58785,0.79123 z m -30.70581,0.73148 c 0.75382,-12.788 -11.72419,-32.58369 -26.36301,-41.82348 -4.81522,-3.03928 -10.92886,-5.40394 -15.19857,-5.87856 -3.50305,-0.3894 -3.57394,-1.20618 -0.14332,-1.65153 6.02376,-0.782 13.41404,1.97009 21.53907,8.02102 11.59621,8.63599 19.80076,21.34156 21.44317,33.20686 0.55148,3.984 0.52413,5.73674 -0.12434,7.96794 -0.45724,1.57324 -0.94044,2.87535 -1.07378,2.89359 -0.13335,0.0183 -0.16903,-1.21288 -0.0792,-2.73584 z m 4.13109,-1.09078 c 0.63338,-4.0176 -0.59137,-11.81495 -2.65109,-16.8781 -4.07199,-10.00966 -11.02287,-18.84704 -20.33646,-25.85581 -5.82516,-4.38363 -10.26249,-6.58889 -15.3687,-7.63797 -1.69846,-0.34895 -3.3066,-0.81084 -3.57364,-1.02644 -1.05291,-0.85007 7.67163,-0.84835 10.55512,0.002 15.78306,4.65492 32.46359,23.78066 34.72218,39.8121 0.69626,4.94208 0.36508,8.66327 -1.01026,11.35098 -1.9209,3.75389 -2.90771,3.85234 -2.33715,0.23316 z m 62.63305,-8.82158 c -0.0468,-0.34205 0.29966,-1.36525 0.76991,-2.27377 0.47024,-0.90852 1.28227,-2.88128 1.8045,-4.38389 0.52223,-1.50261 1.1001,-2.43121 1.28415,-2.06355 0.18406,0.36767 -0.38801,2.59268 -1.27124,4.94448 -1.49271,3.97466 -2.38253,5.27355 -2.58732,3.77673 z m 5.70706,-4.05045 c 1.99746,-5.92563 2.44946,-12.0133 1.57757,-21.24713 -0.88174,-9.33809 -1.47838,-7.83007 5.02596,-12.70331 1.09053,-0.81705 2.13743,-1.50671 2.32646,-1.53257 0.18902,-0.0258 0.71835,3.73985 1.17628,8.36824 0.6704,6.7757 0.67629,9.30833 0.0302,12.99897 -1.1925,6.81208 -3.655,11.5113 -8.34409,15.92312 -2.60746,2.45327 -3.07104,1.98585 -1.79241,-1.80731 z m -12.50614,2.65563 c 0.24664,-0.55589 5.11181,-4.10154 5.74721,-4.18847 0.48845,-0.0668 -0.5203,2.50903 -1.59476,4.07224 -0.80567,1.17216 -1.21196,1.32889 -2.67701,1.03274 -0.94995,-0.19203 -1.6139,-0.60445 -1.47544,-0.91651 z m -49.38215,5.28752 c 0.82951,-6.11259 -2.43772,-17.10663 -7.40512,-24.91776 -5.18877,-8.15926 -13.12754,-15.93673 -20.7076,-20.2869 -4.36022,-2.50231 -10.24493,-4.5408 -13.30825,-4.61002 -2.83793,-0.0641 -3.19204,-0.80571 -0.66944,-1.40193 16.30784,-3.85434 41.76696,19.22968 44.71104,40.53992 0.64856,4.69448 0.32637,7.70176 -1.17965,11.0106 -1.3167,2.89292 -1.86174,2.76662 -1.44098,-0.33391 z m 33.24177,-7.4934 c 1.04087,-4.87987 -0.0225,-15.43183 -2.22011,-22.03056 -6.90585,-20.73599 -23.74731,-40.64934 -42.7189,-50.51081 -5.02136,-2.61011 -8.86268,-3.94916 -14.65135,-5.10734 -4.6766,-0.93567 -4.71518,-0.95768 -2.30575,-1.31506 2.99508,-0.44425 10.38266,0.89494 14.92843,2.70615 18.56161,7.39568 36.67467,25.95098 45.49307,46.6038 2.02111,4.73346 2.45055,6.44662 3.48692,13.91034 1.02329,7.36938 1.07712,8.97571 0.40109,11.96617 -0.6916,3.05932 -2.33852,7.092 -2.92933,7.17283 -0.11803,0.0161 0.11414,-1.51184 0.51593,-3.39552 z m 13.57372,-5.68383 c -0.72749,-5.31742 -0.72749,-5.31742 5.75803,-10.90715 3.56703,-3.07434 6.73116,-5.62332 7.03139,-5.6644 0.59525,-0.0814 2.07433,9.43894 1.70861,10.99777 -0.19828,0.84519 -12.23535,10.42509 -13.63173,10.84905 -0.0763,0.0232 -0.46618,-2.35069 -0.8663,-5.27527 z m -4.03319,0.0417 c -0.43612,-3.23278 -0.42549,-4.4436 0.0345,-3.9079 0.64946,0.75638 1.67135,7.14628 1.28953,8.06362 -0.45801,1.10042 -0.73006,0.24655 -1.32403,-4.15572 z m 30.74116,-2.70415 c 2.10073,-6.04128 2.34027,-10.19261 1.19008,-20.6245 -1.40023,-12.69968 -1.33357,-12.62684 -7.51739,-8.21379 -2.3755,1.69524 -5.64007,4.13646 -7.2546,5.4249 -2.4273,1.93705 -3.50531,2.42058 -6.22671,2.7929 -4.28255,0.58591 -6.99249,-0.0161 -7.9487,-1.76598 -1.78715,-3.2704 -1.81163,-3.70176 -0.33661,-5.93085 1.3317,-2.01252 1.7654,-2.25475 5.52852,-3.08782 3.59267,-0.79532 4.94101,-1.49389 11.21831,-5.81223 8.37286,-5.75993 8.10823,-4.65695 3.47478,-14.48311 -12.70597,-26.94555 -40.11161,-51.86424 -65.79788,-59.827 -6.13752,-1.90263 -9.96424,-2.48214 -16.62388,-2.51751 -5.12134,-0.0272 -5.12134,-0.0272 -1.02339,-3.25359 16.51773,-13.0047 25.81099,-20.03505 28.65165,-21.67495 4.16378,-2.40374 11.87421,-3.64752 18.20226,-2.93624 6.60221,0.74211 22.90313,6.467 23.79987,8.35853 0.14159,0.29866 -1.98086,2.10727 -4.71656,4.01913 -2.73569,1.91187 -5.06843,3.87862 -5.18384,4.37057 -0.81158,3.45935 2.59849,8.3294 10.05305,14.35712 5.97451,4.83096 8.49773,6.08224 10.28553,5.10066 0.6971,-0.38273 3.78776,-3.17609 6.86816,-6.20745 5.60073,-5.51159 5.60073,-5.51159 7.47096,-3.8337 4.48847,4.02687 13.26244,14.62695 18.18773,21.97312 9.897923,14.76292 14.343291,25.62 16.376045,39.99578 1.439498,10.18032 1.121454,15.17619 -1.401081,22.00761 -2.315568,6.27094 -4.705685,8.70569 -20.757894,21.14557 -8.16559,6.32804 -15.3135,11.8963 -15.88423,12.3739 -1.45514,1.2177 -1.56297,0.91997 -0.63418,-1.75106 z m -35.59557,6.85249 c 0.18398,-0.41464 0.53052,-2.6088 0.77009,-4.87592 0.43559,-4.12203 0.43559,-4.12203 1.11806,0.55515 0.67859,4.65069 0.67423,4.67832 -0.77009,4.87592 -1.00143,0.13701 -1.34867,-0.0354 -1.11806,-0.55515 z m 1.10172,-16.42479 c 0.61876,-5.61513 -0.72367,-14.52046 -3.08822,-20.48646 -4.73713,-11.95224 -12.57734,-22.5692 -22.9684,-31.10307 -2.07469,-1.70389 -3.66877,-3.11212 -3.54239,-3.12941 0.12637,-0.0173 6.59816,1.91035 14.38176,4.28363 14.15199,4.31507 14.15199,4.31507 15.89518,17.63036 0.95877,7.32341 1.8595,14.64757 2.00166,16.2759 0.19169,2.1958 0.70381,3.60697 1.98239,5.46267 1.45556,2.11255 2.18876,2.60985 4.70991,3.19454 1.6423,0.38087 3.22276,0.86769 3.51216,1.08185 0.28939,0.21414 -1.65074,2.19989 -4.31139,4.41276 -2.66066,2.21287 -5.63564,4.8469 -6.61107,5.85338 -2.19833,2.26832 -2.52986,1.6808 -1.96159,-3.47615 z m -34.66744,-3.57325 c -18.17833,-23.34925 -22.85182,-29.45771 -22.67861,-29.64202 0.75333,-0.80156 10.41403,-8.14501 10.77797,-8.19272 0.25166,-0.0332 5.13783,5.99897 10.85809,13.40438 5.72026,7.40541 12.12337,15.67684 14.22913,18.38095 2.10575,2.70411 3.7701,4.99367 3.69853,5.08791 -0.53232,0.70107 -10.17504,7.98322 -10.66661,8.0554 -0.34331,0.0507 -3.14166,-3.14184 -6.2185,-7.0939 z m 29.32856,-10.51786 c -7.79728,-18.10145 -23.80998,-35.52593 -40.61431,-44.19514 -2.41751,-1.24717 -4.23499,-2.28955 -4.03883,-2.31638 0.19616,-0.0268 1.83392,0.37667 3.63948,0.89668 14.4649,4.166 30.5482,18.91955 38.72143,35.51996 2.01617,4.09499 4.50864,11.5014 4.83684,14.37274 0.26344,2.30512 0.3634,2.47315 -2.54461,-4.27786 z m 12.00826,-20.00231 c -1.26245,-9.37136 -1.28692,-9.36127 3.21339,-1.33389 4.32896,7.7222 4.28763,7.59954 2.83888,8.4239 -0.68439,0.38944 -2.07228,0.83784 -3.0842,0.99644 -1.83987,0.28836 -1.83987,0.28836 -2.96807,-8.08645 z m 7.24732,-0.12415 c -7.01042,-14.42613 -22.15623,-32.21771 -36.75212,-43.17221 -16.42606,-12.32806 -32.04341,-18.24332 -46.07024,-17.44965 -4.4719,0.25302 -4.4719,0.25302 -3.03139,-1.02437 0.79227,-0.70255 3.12394,-2.05862 5.18148,-3.01345 3.15274,-1.46308 4.65099,-1.81031 9.52813,-2.20822 9.47411,-0.77297 17.18867,1.11765 29.96543,7.34367 15.3151,7.46293 32.14086,22.6526 43.59321,39.3543 5.07193,7.39673 9.60733,16.36697 8.80669,17.41811 -0.69587,0.91357 -8.19844,7.10882 -8.69044,7.17614 -0.19635,0.0269 -1.33519,-1.96408 -2.53075,-4.42432 z m -78.65137,-1.17794 c -2.06508,-0.32045 -8.51813,-1.16463 -14.34012,-1.87594 -5.82198,-0.71131 -10.81566,-1.44818 -11.09708,-1.63751 -0.51297,-0.34512 8.62793,-7.54669 9.77882,-7.70415 0.57971,-0.0793 27.92377,3.39318 29.70583,3.77241 0.82704,0.176 -8.33484,7.69739 -9.6458,7.91865 -0.35583,0.0601 -2.33658,-0.153 -4.40165,-0.47346 z m 44.76828,-22.08068 c -8.30513,-2.589 -21.21535,-6.61001 -28.68935,-8.93559 -7.47401,-2.32559 -16.98925,-5.30636 -21.14498,-6.62396 -4.15573,-1.3176 -10.33676,-3.22674 -13.73561,-4.24255 -3.39886,-1.0158 -6.21252,-2.08655 -6.25259,-2.37944 -0.13039,-0.95299 4.07485,-5.62404 6.71324,-7.45687 11.58428,-8.04735 29.89752,-5.78698 49.57268,6.11866 7.25504,4.3901 15.76635,11.16751 21.98415,17.5056 4.60786,4.69701 9.8389,10.7639 9.94413,11.53309 0.0276,0.20133 -0.70177,0.10095 -1.62066,-0.22282 -0.91892,-0.32386 -8.46587,-2.70712 -16.77101,-5.29612 z m -73.64258,4.84204 c -1.00923,-7.37666 0.15419,-20.91185 1.80017,-20.94326 1.12621,-0.0215 33.08054,9.75508 32.85499,10.05212 -0.0989,0.13027 -2.02821,0.0744 -4.28732,-0.12418 -8.26227,-0.72623 -11.87948,0.52248 -22.15478,7.64815 -3.63096,2.51799 -6.91993,4.63002 -7.30881,4.69338 -0.38887,0.0634 -0.79579,-0.53343 -0.90425,-1.32621 z m 109.52479,-50.69987 c -5.5107,-4.45403 -9.83918,-9.343 -9.51087,-10.7424 0.21311,-0.90838 9.68857,-7.61006 11.01673,-7.79177 0.85378,-0.11681 15.33016,10.15989 16.41034,11.64961 0.5704,0.78666 -0.20861,1.77018 -5.03784,6.36035 -4.35464,4.13907 -5.95357,5.34034 -6.72639,5.05347 -0.5576,-0.20697 -3.32598,-2.24514 -6.15197,-4.52926 z"
       id="path3347"
       inkscape:connector-curvature="0" />
  </g>
</svg>
